<?xml version="1.0" encoding="utf-8"?>
<!-- Generator: Adobe Illustrator 18.1.1, SVG Export Plug-In . SVG Version: 6.00 Build 0)  -->
<svg version="1.1" id="Camada_1" xmlns="http://www.w3.org/2000/svg" xmlns:xlink="http://www.w3.org/1999/xlink" x="0px" y="0px"
	 viewBox="0 158.9 595.3 434" enable-background="new 0 158.9 595.3 434" xml:space="preserve">
<line fill="none" stroke="#1B171B" x1="194.1" y1="173.8" x2="194.1" y2="573.7"/>
<rect x="197.4" y="473.2" fill="#043988" width="325.2" height="66.4"/>
<rect x="197.4" y="406.8" fill="#D5001E" width="60.6" height="66.4"/>
<rect x="197.4" y="340.7" fill="#DC9928" width="26" height="66.4"/>
<rect x="197.4" y="274.5" fill="#A1C8E7" width="17.4" height="66.4"/>
<rect x="197.2" y="208.2" fill="#F6D448" width="4.4" height="66.4"/>
<g>
	<g>
		<path fill="#4D4D4D" d="M41.5,241.9h-6.8l-1.5,4.6h-1.3l5.7-16.5h1.3l5.7,16.5h-1.3L41.5,241.9z M35.1,240.8h6.2l-3.1-8.8l0,0
			L35.1,240.8z"/>
		<path fill="#4D4D4D" d="M51,245.6c0.9,0,1.5-0.2,2.2-0.7c0.7-0.4,0.9-1.3,0.9-2.2h1.1l0,0c0,1.1-0.4,2-1.3,2.9
			c-0.9,0.7-2,1.1-3.1,1.1c-1.5,0-2.9-0.7-3.7-1.8c-0.9-1.1-1.3-2.6-1.3-4.4v-0.4c0-1.8,0.4-3.3,1.3-4.4c0.9-1.1,2-1.8,3.7-1.8
			c1.3,0,2.4,0.4,3.1,1.1c0.9,0.9,1.3,1.8,1.3,3.1l0,0h-1.1c0-0.9-0.2-1.8-0.9-2.4c-0.7-0.7-1.3-0.9-2.2-0.9c-1.3,0-2.2,0.4-2.9,1.3
			c-0.7,0.9-0.9,2.2-0.9,3.5v0.4c0,1.5,0.2,2.6,0.9,3.5C48.8,245.2,49.7,245.6,51,245.6z"/>
		<path fill="#4D4D4D" d="M59.6,230.6h-1.3v-2h1.3V230.6z M59.6,246.5h-1.3v-12.1h1.3V246.5z"/>
		<path fill="#4D4D4D" d="M64.2,234.2l0.2,2c0.4-0.7,0.9-1.3,1.5-1.5c0.6-0.2,1.3-0.7,2.2-0.7c0.9,0,1.5,0.2,2.2,0.7
			c0.7,0.4,1.1,1.1,1.3,2c0.4-0.9,0.9-1.5,1.5-2s1.5-0.7,2.4-0.7c1.3,0,2.2,0.4,2.9,1.3s1.1,2.2,1.1,4v7.1h-1.3v-7.1
			c0-1.5-0.2-2.6-0.9-3.1c-0.4-0.7-1.3-0.9-2.2-0.9c-1.1,0-1.8,0.2-2.2,0.9c-0.4,0.7-0.9,1.5-1.1,2.4v0.2v0.2v7.3h-1.3v-7.1
			c0-1.5-0.2-2.4-0.9-3.1c-0.7-0.7-1.3-0.9-2.2-0.9s-1.5,0.2-2.2,0.7c-0.4,0.4-0.9,1.1-1.1,2v8.6h-1.3v-12.1L64.2,234.2L64.2,234.2z
			"/>
		<path fill="#4D4D4D" d="M90.5,246.5c0-0.4-0.2-0.9-0.2-1.1c0-0.2,0-0.7,0-0.9c-0.4,0.7-0.9,1.1-1.8,1.5c-0.7,0.4-1.5,0.7-2.4,0.7
			c-1.1,0-2-0.2-2.6-0.9c-0.7-0.7-0.9-1.5-0.9-2.6c0-1.1,0.4-2,1.3-2.6c0.9-0.7,2.2-1.1,3.5-1.1h2.9V238c0-0.9-0.2-1.5-0.9-2
			c-0.7-0.5-1.3-0.7-2.2-0.7c-0.9,0-1.5,0.2-2.2,0.7c-0.4,0.4-0.9,1.1-0.9,1.8H83l0,0c0-0.9,0.4-1.8,1.1-2.4
			c0.9-0.7,1.8-1.1,3.1-1.1s2.4,0.4,3.1,1.1c0.7,0.7,1.1,1.8,1.1,2.9v6c0,0.4,0,0.9,0,1.3c0,0.4,0.2,0.9,0.2,1.1L90.5,246.5
			L90.5,246.5z M86.1,245.4c1.1,0,1.8-0.2,2.6-0.7c0.7-0.4,1.3-1.1,1.5-2v-2.4h-2.9c-1.1,0-2,0.2-2.6,0.9c-0.7,0.4-1.1,1.1-1.1,2
			c0,0.7,0.2,1.3,0.7,1.8C84.7,245.4,85.4,245.4,86.1,245.4z"/>
		<path fill="#4D4D4D" d="M100,240.6c0-2,0.4-3.5,1.1-4.6c0.9-1.1,2-1.8,3.3-1.8c0.9,0,1.5,0.2,2.2,0.4c0.7,0.4,1.1,0.9,1.5,1.5
			v-7.3h1.3v17.6h-1.1l-0.2-1.8c-0.4,0.7-0.9,1.1-1.5,1.5c-0.7,0.4-1.3,0.4-2.2,0.4c-1.3,0-2.4-0.4-3.3-1.5
			C100.2,243.9,100,242.4,100,240.6L100,240.6L100,240.6z M101.3,240.8c0,1.5,0.2,2.6,0.9,3.5c0.7,0.9,1.3,1.3,2.6,1.3
			c0.9,0,1.5-0.2,2.2-0.7c0.7-0.4,1.1-0.9,1.3-1.5v-6c-0.2-0.7-0.7-1.3-1.3-1.8c-0.7-0.4-1.3-0.7-2.2-0.7c-1.1,0-2,0.4-2.6,1.5
			c-0.7,0.9-0.9,2.2-0.9,3.7V240.8L101.3,240.8z"/>
		<path fill="#4D4D4D" d="M117.4,246.7c-1.5,0-2.9-0.7-3.7-1.8c-0.9-1.1-1.3-2.6-1.3-4.4v-0.7c0-1.8,0.4-3.3,1.5-4.4
			c0.9-1.1,2.2-1.8,3.5-1.8c1.3,0,2.6,0.4,3.3,1.3c0.9,0.9,1.1,2.2,1.1,3.7v1.1h-8.2v0.4c0,1.3,0.4,2.6,1.1,3.5s1.5,1.3,2.9,1.3
			c0.7,0,1.3-0.2,2-0.4c0.7-0.2,1.1-0.7,1.5-0.9l0.7,0.9c-0.4,0.4-0.9,0.9-1.5,1.1C119.1,246.5,118.3,246.7,117.4,246.7z
			 M117.2,235.3c-1.1,0-1.8,0.4-2.4,1.1c-0.7,0.7-1.1,1.8-1.1,2.9l0,0h6.8V239c0-1.1-0.2-2-0.9-2.6
			C118.9,235.5,118.3,235.3,117.2,235.3z"/>
		<path fill="#4D4D4D" d="M135.2,246.5h-1.3v-15.2l-3.7,0.4v-1.1l5.1-0.9v16.8H135.2z"/>
		<path fill="#4D4D4D" d="M151.5,240.8c0,2-0.4,3.3-1.3,4.4c-0.9,1.1-2,1.5-3.5,1.5s-2.6-0.4-3.5-1.5c-0.9-1.1-1.3-2.6-1.3-4.4v-4.9
			c0-1.8,0.4-3.3,1.3-4.4c0.9-1.1,2-1.5,3.5-1.5s2.6,0.4,3.5,1.5c0.9,1.1,1.3,2.6,1.3,4.4V240.8z M150.2,235.7
			c0-1.5-0.2-2.6-0.9-3.5c-0.7-0.9-1.5-1.3-2.6-1.3s-2,0.4-2.6,1.3c-0.6,0.9-0.9,2-0.9,3.3v5.3c0,1.3,0.2,2.6,0.9,3.5
			c0.7,0.9,1.5,1.3,2.6,1.3s2-0.4,2.6-1.3c0.6-0.9,0.9-2,0.9-3.5V235.7z"/>
		<path fill="#4D4D4D" d="M163.9,240.8c0,2-0.4,3.3-1.3,4.4c-0.9,1.1-2,1.5-3.5,1.5c-1.5,0-2.6-0.4-3.5-1.5
			c-0.9-1.1-1.3-2.6-1.3-4.4v-4.9c0-1.8,0.4-3.3,1.3-4.4c0.9-1.1,2-1.5,3.5-1.5c1.5,0,2.6,0.4,3.5,1.5c0.9,1.1,1.3,2.6,1.3,4.4
			V240.8z M162.6,235.7c0-1.5-0.2-2.6-0.9-3.5s-1.5-1.3-2.6-1.3c-1.1,0-2,0.4-2.6,1.3c-0.6,0.9-0.9,2-0.9,3.3v5.3
			c0,1.3,0.2,2.6,0.9,3.5c0.7,0.9,1.5,1.3,2.6,1.3c1.1,0,2-0.4,2.6-1.3s0.9-2,0.9-3.5V235.7L162.6,235.7z"/>
	</g>
</g>
<g>
	<g>
		<path fill="#4D4D4D" d="M64,314.4v-16.5h4.9c2,0,3.5,0.7,4.9,2c1.3,1.3,2,3.1,2,5.1v2.2c0,2.2-0.7,3.7-2,5.1c-1.3,1.3-2.9,2-4.9,2
			L64,314.4L64,314.4z M65.3,299.2v14.1h3.5c1.5,0,2.9-0.7,4-1.8c1.1-1.1,1.5-2.6,1.5-4.4v-2.2c0-1.8-0.4-3.1-1.5-4.2
			c-1.1-1.1-2.2-1.8-4-1.8L65.3,299.2L65.3,299.2z"/>
		<path fill="#4D4D4D" d="M83.2,314.6c-1.5,0-2.9-0.7-3.7-1.8c-0.9-1.1-1.3-2.6-1.3-4.4V308c0-1.8,0.4-3.3,1.5-4.4
			c0.9-1.1,2.2-1.8,3.5-1.8c1.3,0,2.6,0.4,3.3,1.3c0.9,0.9,1.1,2.2,1.1,3.7v1.1h-8.2v0.4c0,1.3,0.4,2.6,1.1,3.5
			c0.7,0.9,1.5,1.3,2.9,1.3c0.7,0,1.3-0.2,2-0.4c0.7-0.2,1.1-0.7,1.5-0.9l0.7,0.9c-0.4,0.4-0.9,0.9-1.5,1.1
			C85.4,314.2,84.1,314.6,83.2,314.6z M83.2,303.2c-1.1,0-1.8,0.4-2.4,1.1c-0.7,0.7-1.1,1.8-1.1,2.9l0,0h6.8V307
			c0-1.1-0.2-2-0.9-2.6C85,303.6,84.1,303.2,83.2,303.2z"/>
		<path fill="#4D4D4D" d="M105.2,314.4h-9.7v-1.1l5.3-6.4c0.9-1.1,1.5-2,2-2.9c0.4-0.7,0.4-1.5,0.4-2.2c0-1.1-0.2-1.8-0.9-2.4
			c-0.4-0.7-1.3-0.9-2.2-0.9c-1.1,0-2,0.4-2.6,1.1c-0.7,0.7-0.9,1.5-0.9,2.6h-1.3l0,0c0-1.3,0.4-2.4,1.3-3.3s2-1.3,3.5-1.3
			c1.3,0,2.4,0.4,3.3,1.1c0.9,0.9,1.1,1.8,1.1,3.3c0,0.9-0.2,1.8-0.9,2.6c-0.4,0.9-1.3,2-2.2,3.3l-4.2,5.3l0,0h7.9L105.2,314.4
			L105.2,314.4L105.2,314.4z"/>
		<path fill="#4D4D4D" d="M117.4,308.7c0,2-0.4,3.3-1.3,4.4s-2,1.5-3.5,1.5c-1.5,0-2.6-0.4-3.5-1.5s-1.3-2.6-1.3-4.4v-4.9
			c0-1.8,0.4-3.3,1.3-4.4s2-1.5,3.5-1.5c1.5,0,2.6,0.4,3.5,1.5s1.3,2.6,1.3,4.4C117.4,303.8,117.4,308.7,117.4,308.7z M116,303.6
			c0-1.5-0.2-2.6-0.9-3.5c-0.7-0.9-1.5-1.3-2.6-1.3s-2,0.4-2.6,1.3c-0.7,0.9-0.9,2-0.9,3.3v5.3c0,1.3,0.2,2.6,0.9,3.5
			s1.5,1.3,2.6,1.3s2-0.4,2.6-1.3c0.7-0.9,0.9-2,0.9-3.5C116,308.9,116,303.6,116,303.6z"/>
		<path fill="#4D4D4D" d="M133.2,314.4c0-0.4-0.2-0.9-0.2-1.1c0-0.2,0-0.7,0-0.9c-0.4,0.7-0.9,1.3-1.8,1.5c-0.7,0.4-1.5,0.7-2.4,0.7
			c-1.1,0-2-0.2-2.6-0.9c-0.7-0.7-0.9-1.5-0.9-2.6s0.4-2,1.3-2.6c0.9-0.7,2.2-1.1,3.5-1.1h2.9v-1.5c0-0.9-0.2-1.5-0.9-2
			c-0.7-0.4-1.3-0.7-2.2-0.7s-1.5,0.2-2.2,0.7c-0.4,0.4-0.9,1.1-0.9,1.8h-1.1l0,0c0-0.9,0.4-1.8,1.1-2.4c0.9-0.7,1.8-1.1,3.1-1.1
			s2.4,0.4,3.1,1.1c0.9,0.7,1.1,1.8,1.1,2.9v6c0,0.4,0,0.9,0,1.3c0,0.4,0.2,0.9,0.2,1.1L133.2,314.4L133.2,314.4z M128.8,313.5
			c1.1,0,1.8-0.2,2.6-0.7c0.7-0.4,1.3-1.1,1.5-2v-2.4H130c-1.1,0-2,0.2-2.6,0.9c-0.7,0.4-1.1,1.1-1.1,2c0,0.7,0.2,1.3,0.7,1.8
			C127.5,313.3,128.2,313.5,128.8,313.5z"/>
		<path fill="#4D4D4D" d="M147.1,313.5c1.1,0,2-0.4,2.9-1.1c0.7-0.9,1.1-2,1.1-3.3v-2.4c-0.4,0.7-0.9,1.1-1.5,1.5
			c-0.6,0.4-1.3,0.4-2.2,0.4c-1.5,0-2.6-0.4-3.5-1.5c-0.9-1.1-1.3-2.2-1.3-4c0-1.5,0.4-2.9,1.3-4c0.9-1.1,2-1.5,3.3-1.5
			c1.5,0,2.6,0.4,3.5,1.5s1.3,2.4,1.3,4.4v5.3c0,1.8-0.4,3.1-1.5,4.2c-1.1,1.1-2.2,1.5-3.7,1.5c-0.4,0-1.1,0-1.5-0.2
			c-0.7-0.2-1.1-0.2-1.5-0.4l0.2-1.1c0.4,0.2,0.9,0.4,1.3,0.4C146,313.5,146.5,313.5,147.1,313.5z M147.4,307.6
			c0.9,0,1.8-0.2,2.4-0.7c0.7-0.4,1.1-1.1,1.3-1.8v-1.5c0-1.5-0.2-2.6-0.9-3.3c-0.7-0.9-1.5-1.1-2.6-1.1s-1.8,0.4-2.4,1.3
			c-0.7,0.9-0.9,2-0.9,3.1s0.2,2.2,0.9,3.1C145.4,307.1,146.3,307.6,147.4,307.6z"/>
		<path fill="#4D4D4D" d="M159.5,313.5c1.1,0,2-0.4,2.9-1.1c0.7-0.9,1.1-2,1.1-3.3v-2.4c-0.4,0.7-0.9,1.1-1.5,1.5
			c-0.6,0.4-1.3,0.4-2.2,0.4c-1.5,0-2.6-0.4-3.5-1.5c-0.9-1.1-1.3-2.2-1.3-4c0-1.5,0.4-2.9,1.3-4c0.9-1.1,2-1.5,3.3-1.5
			c1.5,0,2.6,0.4,3.5,1.5s1.3,2.4,1.3,4.4v5.3c0,1.8-0.4,3.1-1.5,4.2c-1.1,1.1-2.2,1.5-3.7,1.5c-0.4,0-1.1,0-1.5-0.2
			c-0.7-0.2-1.1-0.2-1.5-0.4l0.2-1.1c0.4,0.2,0.9,0.4,1.3,0.4C158.4,313.5,158.8,313.5,159.5,313.5z M159.7,307.6
			c0.9,0,1.8-0.2,2.4-0.7c0.7-0.4,1.1-1.1,1.3-1.8v-1.5c0-1.5-0.2-2.6-0.9-3.3c-0.7-0.9-1.5-1.1-2.6-1.1s-1.8,0.4-2.4,1.3
			c-0.7,0.9-0.9,2-0.9,3.1s0.2,2.2,0.9,3.1C157.7,307.1,158.6,307.6,159.7,307.6z"/>
	</g>
</g>
<g>
	<g>
		<path fill="#4D4D4D" d="M76.8,382.5V366h4.9c2,0,3.5,0.7,4.9,2c1.3,1.3,2,3.1,2,5.1v2.2c0,2.2-0.7,3.7-2,5.1c-1.3,1.3-2.9,2-4.9,2
			L76.8,382.5L76.8,382.5z M78.1,367.3v14.1h3.5c1.5,0,2.9-0.7,4-1.8c1.1-1.1,1.5-2.6,1.5-4.4V373c0-1.8-0.4-3.1-1.5-4.2
			c-1.1-1.1-2.2-1.8-4-1.8L78.1,367.3L78.1,367.3z"/>
		<path fill="#4D4D4D" d="M96,382.8c-1.5,0-2.9-0.7-3.7-1.8c-0.9-1.1-1.3-2.6-1.3-4.4v-0.7c0-1.8,0.4-3.3,1.5-4.4
			c0.9-1.1,2.2-1.8,3.5-1.8c1.3,0,2.6,0.4,3.3,1.3c0.9,0.9,1.1,2.2,1.1,3.7v1.1h-8.2v0.4c0,1.3,0.4,2.6,1.1,3.5s1.5,1.3,2.9,1.3
			c0.7,0,1.3-0.2,2-0.4s1.1-0.7,1.5-0.9l0.7,0.9c-0.4,0.4-0.9,0.9-1.5,1.1C97.7,382.5,97.1,382.8,96,382.8z M96,371.3
			c-1.1,0-1.8,0.4-2.4,1.1c-0.7,0.7-1.1,1.8-1.1,2.9l0,0h6.8V375c0-1.1-0.2-2-0.9-2.6C97.7,371.5,96.9,371.3,96,371.3z"/>
		<path fill="#4D4D4D" d="M108.8,375l0.9-9h7.7v1.3h-6.6l-0.7,6c0.4-0.4,0.9-0.7,1.3-0.9s1.1-0.2,2-0.4c1.3,0,2.4,0.4,3.3,1.3
			s1.3,2.2,1.3,4s-0.4,3.1-1.1,4c-0.9,1.1-2,1.5-3.5,1.5c-1.3,0-2.4-0.4-3.3-1.1c-0.9-0.7-1.3-2-1.3-3.3l0,0h1.1
			c0,1.1,0.2,2,0.9,2.6c0.7,0.7,1.3,0.9,2.4,0.9s2-0.4,2.6-1.1c0.7-0.7,0.9-1.8,0.9-3.3c0-1.3-0.2-2.2-0.9-2.9s-1.3-1.1-2.4-1.1
			s-1.8,0.2-2.2,0.4c-0.4,0.4-0.9,0.9-1.1,1.5L108.8,375z"/>
		<path fill="#4D4D4D" d="M133.7,382.5c0-0.4-0.2-0.9-0.2-1.1s0-0.7,0-0.9c-0.4,0.7-0.9,1.1-1.8,1.5c-0.7,0.4-1.5,0.7-2.4,0.7
			c-1.1,0-2-0.2-2.6-0.9c-0.7-0.7-0.9-1.5-0.9-2.6s0.4-2,1.3-2.6c0.9-0.7,2.2-1.1,3.5-1.1h2.9V374c0-0.9-0.2-1.5-0.9-2
			c-0.4-0.4-1.3-0.7-2.2-0.7s-1.5,0.2-2.2,0.7c-0.4,0.4-0.9,1.1-0.9,1.8h-1.1l0,0c0-0.9,0.4-1.8,1.1-2.4c0.9-0.7,1.8-1.1,3.1-1.1
			s2.4,0.4,3.1,1.1c0.9,0.7,1.1,1.8,1.1,2.9v6c0,0.4,0,0.9,0,1.3c0,0.4,0.2,0.9,0.2,1.1L133.7,382.5L133.7,382.5z M129.5,381.7
			c1.1,0,1.8-0.2,2.6-0.7c0.7-0.4,1.3-1.1,1.5-2v-2.4h-2.9c-1.1,0-2,0.2-2.6,0.9c-0.7,0.4-1.1,1.1-1.1,2c0,0.7,0.2,1.3,0.7,1.8
			C128,381.4,128.6,381.7,129.5,381.7z"/>
		<path fill="#4D4D4D" d="M149.1,382.5h-1.3v-15.2l-3.7,0.4v-1.1l5.1-0.9L149.1,382.5L149.1,382.5z"/>
		<path fill="#4D4D4D" d="M159.9,381.7c1.1,0,2-0.4,2.9-1.1c0.7-0.9,1.1-2,1.1-3.3v-2.4c-0.4,0.7-0.9,1.1-1.5,1.5
			c-0.7,0.4-1.3,0.4-2.2,0.4c-1.5,0-2.6-0.4-3.5-1.5c-0.9-0.9-1.3-2.2-1.3-4c0-1.5,0.4-2.9,1.3-4c0.9-1.1,2-1.5,3.3-1.5
			c1.5,0,2.6,0.4,3.5,1.5c0.9,1.1,1.3,2.4,1.3,4.4v5.3c0,1.8-0.4,3.1-1.5,4.2c-0.9,1.1-2.2,1.5-3.7,1.5c-0.4,0-1.1,0-1.5-0.2
			c-0.7-0.2-1.1-0.2-1.5-0.4l0.2-1.1c0.4,0.2,0.9,0.4,1.3,0.4C158.8,381.7,159.3,381.7,159.9,381.7z M160.1,375.7
			c0.9,0,1.8-0.2,2.4-0.7c0.7-0.4,1.1-1.1,1.3-1.8v-1.5c0-1.5-0.2-2.6-0.9-3.3c-0.7-0.9-1.5-1.1-2.6-1.1c-1.1,0-1.8,0.4-2.4,1.3
			c-0.7,0.9-0.9,2-0.9,3.1c0,1.1,0.2,2.2,0.9,3.1C158.2,375.3,159,375.7,160.1,375.7z"/>
	</g>
</g>
<g>
	<g>
		<path fill="#4D4D4D" d="M128.6,446h-7.1l-1.5,4.6h-1.3l5.7-16.5h1.3l5.7,16.5h-1.3L128.6,446z M122.2,444.7h6.2l-3.1-8.8l0,0
			L122.2,444.7z"/>
		<path fill="#4D4D4D" d="M135.7,435.2v3.1h2.6v1.1h-2.6v7.9c0,0.9,0.2,1.3,0.4,1.8c0.2,0.4,0.7,0.4,1.1,0.4c0.2,0,0.2,0,0.4,0
			c0.2,0,0.2,0,0.4,0l0.2,1.1c-0.2,0-0.4,0.2-0.7,0.2c-0.2,0-0.4,0-0.7,0c-0.9,0-1.5-0.2-2-0.9c-0.4-0.4-0.7-1.3-0.7-2.6v-7.9h-2
			v-1.1h2v-3.1C134.3,435.2,135.7,435.2,135.7,435.2z"/>
		<path fill="#4D4D4D" d="M145.2,450.9c-1.5,0-2.9-0.7-3.7-1.8c-0.9-1.1-1.3-2.6-1.3-4.4V444c0-1.8,0.4-3.3,1.5-4.4
			c0.9-1.1,2.2-1.8,3.5-1.8s2.6,0.4,3.3,1.3c0.9,0.9,1.1,2.2,1.1,3.7v1.1h-8.2v0.4c0,1.3,0.4,2.6,1.1,3.5s1.5,1.3,2.9,1.3
			c0.7,0,1.3-0.2,2-0.4c0.7-0.2,1.1-0.7,1.5-0.9l0.7,0.9c-0.4,0.4-0.9,0.9-1.5,1.1C146.9,450.7,146.3,450.9,145.2,450.9z
			 M145.2,439.2c-1.1,0-1.8,0.4-2.4,1.1c-0.7,0.7-1.1,1.8-1.1,2.9l0,0h6.8V443c0-1.1-0.2-2-0.9-2.6
			C146.9,439.6,146,439.2,145.2,439.2z M146.5,433h1.5l0,0l-2.6,2.9h-1.1L146.5,433z"/>
		<path fill="#4D4D4D" d="M165.2,445.2h2.4v1.1h-2.4v4.2h-1.3v-4.2h-7.3v-0.9l7.1-11.5h1.3L165.2,445.2L165.2,445.2z M158.2,445.2
			h5.7v-9.3l0,0l-0.7,1.3L158.2,445.2z"/>
	</g>
</g>
<g>
	<g>
		<path fill="#4D4D4D" d="M168.5,512.8c0,2-0.4,3.3-1.3,4.4c-0.9,1.1-2,1.5-3.5,1.5c-1.5,0-2.6-0.4-3.5-1.5
			c-0.9-1.1-1.3-2.6-1.3-4.4V508c0-1.8,0.4-3.3,1.3-4.4c0.9-1.1,2-1.5,3.5-1.5c1.5,0,2.6,0.4,3.5,1.5s1.3,2.6,1.3,4.4V512.8z
			 M167.2,507.8c0-1.5-0.2-2.6-0.9-3.5c-0.7-0.9-1.5-1.3-2.6-1.3c-1.1,0-2,0.4-2.6,1.3c-0.7,0.9-0.9,2-0.9,3.3v5.3
			c0,1.3,0.2,2.6,0.9,3.5c0.7,0.9,1.5,1.3,2.6,1.3c1.1,0,2-0.4,2.6-1.3c0.7-0.9,0.9-2,0.9-3.5V507.8L167.2,507.8z"/>
	</g>
</g>
<g enable-background="new    ">
	<path fill="#F6D448" d="M283.4,246.7H279v-16.8l-5.2,1.6V228l9.1-3.3h0.5V246.7z"/>
	<path fill="#F6D448" d="M290.9,244.6c0-0.7,0.2-1.3,0.7-1.7c0.5-0.4,1.1-0.6,1.8-0.6c0.7,0,1.3,0.2,1.8,0.6s0.7,1,0.7,1.7
		s-0.2,1.2-0.7,1.7c-0.5,0.4-1.1,0.6-1.8,0.6c-0.7,0-1.3-0.2-1.8-0.6C291.2,245.8,290.9,245.3,290.9,244.6z"/>
	<path fill="#F6D448" d="M310.1,246.7h-4.4v-16.8l-5.2,1.6V228l9.1-3.3h0.5V246.7z"/>
	<path fill="#F6D448" d="M332.3,246.7h-15v-3l7.1-7.6c1-1.1,1.7-2,2.2-2.8c0.5-0.8,0.7-1.5,0.7-2.3c0-1-0.2-1.7-0.7-2.3
		c-0.5-0.6-1.2-0.8-2.1-0.8c-1,0-1.8,0.3-2.3,1c-0.6,0.7-0.9,1.6-0.9,2.7h-4.4c0-1.3,0.3-2.6,1-3.7c0.6-1.1,1.5-2,2.7-2.6
		c1.2-0.6,2.5-0.9,4-0.9c2.3,0,4,0.5,5.3,1.6c1.3,1.1,1.9,2.6,1.9,4.6c0,1.1-0.3,2.2-0.8,3.3c-0.5,1.1-1.5,2.4-2.9,3.9l-5,5.3h9.4
		v3.6H332.3z"/>
	<path fill="#F6D448" d="M334.9,229c0-1.3,0.4-2.4,1.3-3.3c0.9-0.8,2-1.3,3.4-1.3c1.4,0,2.6,0.4,3.5,1.2c0.9,0.8,1.3,2,1.3,3.4v1.1
		c0,1.4-0.4,2.4-1.3,3.3s-2,1.2-3.4,1.2c-1.4,0-2.6-0.4-3.5-1.2c-0.9-0.8-1.3-1.9-1.3-3.4V229z M337.8,230.2c0,0.6,0.2,1.1,0.5,1.5
		c0.3,0.4,0.8,0.6,1.4,0.6s1-0.2,1.3-0.6c0.3-0.4,0.5-0.9,0.5-1.5V229c0-0.6-0.2-1.1-0.5-1.5c-0.3-0.4-0.8-0.6-1.4-0.6
		c-0.6,0-1,0.2-1.3,0.6c-0.3,0.4-0.5,0.9-0.5,1.5V230.2z M340.5,245.1l-2.1-1.1l10.7-17.2l2.1,1.1L340.5,245.1z M345.4,241.3
		c0-1.4,0.4-2.4,1.3-3.3c0.9-0.8,2-1.2,3.4-1.2c1.4,0,2.6,0.4,3.5,1.2c0.9,0.8,1.3,1.9,1.3,3.4v1.1c0,1.3-0.4,2.4-1.3,3.3
		c-0.9,0.8-2,1.2-3.5,1.2c-1.4,0-2.6-0.4-3.5-1.3s-1.3-1.9-1.3-3.3v-1.1H345.4z M348.3,242.5c0,0.6,0.2,1,0.5,1.4
		c0.4,0.4,0.8,0.6,1.4,0.6c1.2,0,1.8-0.7,1.8-2v-1.2c0-0.6-0.2-1.1-0.5-1.5c-0.3-0.4-0.8-0.6-1.4-0.6c-0.6,0-1,0.2-1.4,0.6
		c-0.3,0.4-0.5,0.9-0.5,1.5v1.2H348.3z"/>
	<path fill="#F6D448" d="M365.8,237.8c0-2.3,0.3-4.5,0.9-6.6c0.6-2.1,1.5-3.9,2.7-5.5c1.2-1.6,2.5-2.7,3.9-3.3l0.8,2.4
		c-1.5,1.1-2.6,2.8-3.4,5c-0.8,2.3-1.2,4.9-1.2,8v0.5c0,3,0.4,5.7,1.2,8c0.8,2.3,2,4,3.5,5.1l-0.8,2.3c-1.4-0.6-2.6-1.7-3.8-3.2
		c-1.2-1.6-2.1-3.3-2.7-5.4c-0.6-2.1-1-4.1-1-6.4v-0.9H365.8z"/>
	<path fill="#F6D448" d="M380.7,233.8h2.3c1.1,0,1.9-0.3,2.5-0.8c0.5-0.6,0.8-1.3,0.8-2.2s-0.3-1.6-0.8-2.1
		c-0.5-0.5-1.3-0.7-2.2-0.7c-0.8,0-1.5,0.2-2.1,0.7c-0.6,0.5-0.8,1.1-0.8,1.8H376c0-1.1,0.3-2.2,0.9-3.1c0.6-0.9,1.5-1.6,2.6-2.1
		c1.1-0.5,2.3-0.8,3.7-0.8c2.3,0,4.1,0.6,5.5,1.7c1.4,1.1,2,2.6,2,4.6c0,1-0.3,1.9-0.9,2.8c-0.6,0.8-1.4,1.5-2.4,1.9
		c1.2,0.4,2.2,1.1,2.8,2s0.9,1.9,0.9,3.1c0,1.9-0.7,3.5-2.1,4.7c-1.4,1.2-3.3,1.8-5.6,1.8c-2.2,0-4-0.6-5.4-1.7
		c-1.4-1.1-2.1-2.7-2.1-4.6h4.4c0,0.8,0.3,1.5,0.9,2c0.6,0.5,1.4,0.8,2.3,0.8c1,0,1.8-0.3,2.4-0.8c0.6-0.5,0.9-1.3,0.9-2.2
		c0-2.2-1.2-3.3-3.6-3.3h-2.3v-3.5H380.7z"/>
	<path fill="#F6D448" d="M394.4,244.6c0-0.7,0.2-1.3,0.7-1.7c0.5-0.4,1.1-0.6,1.8-0.6c0.7,0,1.3,0.2,1.8,0.6c0.5,0.4,0.7,1,0.7,1.7
		s-0.2,1.2-0.7,1.7c-0.5,0.5-1.1,0.6-1.8,0.6s-1.3-0.2-1.8-0.6C394.6,245.8,394.4,245.3,394.4,244.6z"/>
	<path fill="#F6D448" d="M414.7,224.6v3.6h-0.4c-2,0-3.6,0.5-4.8,1.5c-1.2,1-1.9,2.4-2.2,4.1c1.2-1.2,2.6-1.8,4.4-1.8
		c1.9,0,3.4,0.7,4.6,2s1.7,3.2,1.7,5.4c0,1.4-0.3,2.7-0.9,3.9c-0.6,1.2-1.5,2.1-2.6,2.7c-1.1,0.6-2.4,1-3.8,1
		c-2.3,0-4.2-0.8-5.6-2.4c-1.4-1.6-2.1-3.8-2.1-6.4v-1.6c0-2.4,0.5-4.5,1.3-6.3c0.9-1.8,2.2-3.2,3.9-4.2c1.7-1,3.6-1.5,5.9-1.5
		H414.7z M410.5,235.6c-0.7,0-1.3,0.2-1.9,0.5c-0.6,0.4-1,0.9-1.3,1.5v1.3c0,1.5,0.3,2.6,0.9,3.4c0.6,0.8,1.4,1.2,2.4,1.2
		c0.9,0,1.7-0.4,2.3-1.1s0.9-1.7,0.9-2.9c0-1.2-0.3-2.2-0.9-2.9C412.2,235.9,411.5,235.6,410.5,235.6z"/>
	<path fill="#F6D448" d="M431.2,246.7h-4.4v-16.8l-5.2,1.6V228l9.1-3.3h0.5V246.7z"/>
	<path fill="#F6D448" d="M442.8,233.8h2.3c1.1,0,1.9-0.3,2.5-0.8c0.5-0.6,0.8-1.3,0.8-2.2s-0.3-1.6-0.8-2.1
		c-0.5-0.5-1.3-0.7-2.2-0.7c-0.8,0-1.5,0.2-2.1,0.7c-0.6,0.5-0.8,1.1-0.8,1.8h-4.4c0-1.1,0.3-2.2,0.9-3.1c0.6-0.9,1.5-1.6,2.6-2.1
		s2.3-0.8,3.7-0.8c2.3,0,4.1,0.6,5.5,1.7c1.4,1.1,2,2.6,2,4.6c0,1-0.3,1.9-0.9,2.8c-0.6,0.8-1.4,1.5-2.4,1.9c1.2,0.4,2.2,1.1,2.8,2
		s0.9,1.9,0.9,3.1c0,1.9-0.7,3.5-2.1,4.7c-1.4,1.2-3.3,1.8-5.6,1.8c-2.2,0-4-0.6-5.4-1.7c-1.4-1.1-2.1-2.7-2.1-4.6h4.4
		c0,0.8,0.3,1.5,0.9,2c0.6,0.5,1.4,0.8,2.3,0.8c1,0,1.8-0.3,2.4-0.8c0.6-0.5,0.9-1.3,0.9-2.2c0-2.2-1.2-3.3-3.6-3.3H443v-3.5H442.8z
		"/>
	<path fill="#F6D448" d="M463.7,238.1c0,2.3-0.3,4.5-1,6.6c-0.7,2.1-1.6,4-2.8,5.6c-1.2,1.6-2.5,2.7-3.9,3.3l-0.8-2.3
		c1.4-1.1,2.6-2.7,3.4-5c0.8-2.2,1.3-4.8,1.3-7.7v-0.8c0-3-0.4-5.7-1.2-7.9c-0.8-2.3-2-4-3.4-5.2l0.8-2.3c1.4,0.6,2.7,1.7,3.9,3.2
		c1.2,1.5,2.2,3.4,2.8,5.4c0.7,2.1,1,4.2,1,6.4L463.7,238.1L463.7,238.1z"/>
</g>
<g enable-background="new    ">
	<path fill="#A1C8E7" d="M277.3,301.8h2.3c1.1,0,1.9-0.3,2.5-0.8c0.5-0.6,0.8-1.3,0.8-2.2c0-0.9-0.3-1.6-0.8-2.1
		c-0.5-0.5-1.3-0.7-2.2-0.7c-0.8,0-1.5,0.2-2.1,0.7c-0.6,0.5-0.8,1.1-0.8,1.8h-4.4c0-1.1,0.3-2.2,0.9-3.1c0.6-0.9,1.5-1.6,2.6-2.1
		c1.1-0.5,2.3-0.8,3.7-0.8c2.3,0,4.1,0.6,5.5,1.7c1.3,1.1,2,2.6,2,4.6c0,1-0.3,1.9-0.9,2.8c-0.6,0.8-1.4,1.5-2.4,1.9
		c1.2,0.4,2.2,1.1,2.8,2c0.6,0.9,0.9,1.9,0.9,3.1c0,1.9-0.7,3.5-2.1,4.7c-1.4,1.2-3.3,1.8-5.6,1.8c-2.2,0-4-0.6-5.4-1.7
		c-1.4-1.1-2.1-2.7-2.1-4.6h4.4c0,0.8,0.3,1.5,0.9,2c0.6,0.5,1.4,0.8,2.3,0.8c1,0,1.8-0.3,2.4-0.8c0.6-0.5,0.9-1.3,0.9-2.2
		c0-2.2-1.2-3.3-3.6-3.3h-2.3v-3.5H277.3z"/>
	<path fill="#A1C8E7" d="M290.9,312.6c0-0.7,0.2-1.3,0.7-1.7c0.5-0.4,1.1-0.6,1.8-0.6c0.7,0,1.3,0.2,1.8,0.6c0.5,0.4,0.7,1,0.7,1.7
		c0,0.7-0.2,1.2-0.7,1.7c-0.5,0.4-1.1,0.6-1.8,0.6c-0.7,0-1.3-0.2-1.8-0.6C291.2,313.8,290.9,313.3,290.9,312.6z"/>
	<path fill="#A1C8E7" d="M312.4,306.5h2.5v3.5h-2.5v4.7H308V310h-9l-0.2-2.7l9.1-14.5h4.4v13.7H312.4z M303.2,306.5h4.9v-7.7
		l-0.3,0.5L303.2,306.5z"/>
	<path fill="#A1C8E7" d="M317.9,303.9l1.3-11.2h12.3v3.6h-8.7l-0.5,4.7c1-0.6,2.1-0.8,3.3-0.8c2.1,0,3.7,0.6,4.9,1.9
		c1.2,1.3,1.8,3.1,1.8,5.4c0,1.4-0.3,2.7-0.9,3.8c-0.6,1.1-1.5,2-2.6,2.6s-2.4,0.9-3.9,0.9c-1.3,0-2.6-0.3-3.7-0.8
		c-1.1-0.5-2-1.3-2.7-2.3c-0.7-1-1-2.1-1-3.3h4.3c0.1,0.9,0.4,1.6,1,2.1c0.5,0.5,1.3,0.8,2.1,0.8c1,0,1.7-0.4,2.3-1.1
		c0.5-0.7,0.8-1.7,0.8-3c0-1.2-0.3-2.2-0.9-2.9s-1.5-1-2.6-1c-1,0-1.9,0.3-2.5,0.8l-0.4,0.4L317.9,303.9z"/>
	<path fill="#A1C8E7" d="M334.9,297c0-1.3,0.4-2.4,1.3-3.3c0.9-0.8,2-1.3,3.4-1.3c1.4,0,2.6,0.4,3.5,1.2c0.9,0.8,1.3,2,1.3,3.4v1.1
		c0,1.4-0.4,2.4-1.3,3.3s-2,1.2-3.4,1.2c-1.4,0-2.6-0.4-3.5-1.2s-1.3-1.9-1.3-3.4V297z M337.8,298.2c0,0.6,0.2,1.1,0.5,1.5
		c0.3,0.4,0.8,0.6,1.4,0.6s1-0.2,1.3-0.6c0.3-0.4,0.5-0.9,0.5-1.5V297c0-0.6-0.2-1.1-0.5-1.5c-0.3-0.4-0.8-0.6-1.4-0.6
		c-0.6,0-1,0.2-1.3,0.6c-0.3,0.4-0.5,0.9-0.5,1.5V298.2z M340.5,313.1l-2.1-1.1l10.7-17.2l2.1,1.1L340.5,313.1z M345.4,309.4
		c0-1.4,0.4-2.4,1.3-3.3c0.9-0.8,2-1.2,3.4-1.2c1.4,0,2.6,0.4,3.5,1.2c0.9,0.8,1.3,1.9,1.3,3.4v1.1c0,1.3-0.4,2.4-1.3,3.3
		c-0.9,0.8-2,1.2-3.5,1.2c-1.4,0-2.6-0.4-3.5-1.3s-1.3-1.9-1.3-3.3v-1.1H345.4z M348.3,310.6c0,0.6,0.2,1,0.5,1.4
		c0.4,0.4,0.8,0.6,1.4,0.6c1.2,0,1.8-0.7,1.8-2v-1.2c0-0.6-0.2-1.1-0.5-1.5c-0.3-0.4-0.8-0.6-1.4-0.6c-0.6,0-1,0.2-1.4,0.6
		c-0.3,0.4-0.5,0.9-0.5,1.5v1.2H348.3z"/>
	<path fill="#A1C8E7" d="M365.8,305.8c0-2.3,0.3-4.5,0.9-6.6c0.6-2.1,1.5-3.9,2.7-5.5c1.2-1.6,2.5-2.7,3.9-3.3l0.8,2.4
		c-1.5,1.1-2.6,2.8-3.4,5c-0.8,2.3-1.2,4.9-1.2,8v0.5c0,3,0.4,5.7,1.2,8c0.8,2.3,2,4,3.5,5.1l-0.8,2.3c-1.4-0.6-2.6-1.7-3.8-3.2
		c-1.2-1.6-2.1-3.3-2.7-5.4c-0.6-2.1-1-4.1-1-6.4v-0.9H365.8z"/>
	<path fill="#A1C8E7" d="M386.8,314.7h-4.4v-16.8l-5.2,1.6V296l9.1-3.3h0.5V314.7z"/>
	<path fill="#A1C8E7" d="M404.5,314.7h-4.4v-16.8l-5.2,1.6V296l9.1-3.3h0.5V314.7z"/>
	<path fill="#A1C8E7" d="M412.1,312.6c0-0.7,0.2-1.3,0.7-1.7c0.5-0.4,1.1-0.6,1.8-0.6c0.7,0,1.3,0.2,1.8,0.6c0.5,0.4,0.7,1,0.7,1.7
		c0,0.7-0.2,1.2-0.7,1.7c-0.5,0.5-1.1,0.6-1.8,0.6c-0.7,0-1.3-0.2-1.8-0.6C412.3,313.8,412.1,313.3,412.1,312.6z"/>
	<path fill="#A1C8E7" d="M431.2,314.7h-4.4v-16.8l-5.2,1.6V296l9.1-3.3h0.5V314.7z"/>
	<path fill="#A1C8E7" d="M453.4,314.7h-15v-3l7.1-7.6c1-1.1,1.7-2,2.2-2.8c0.5-0.8,0.7-1.5,0.7-2.3c0-1-0.2-1.7-0.7-2.3
		c-0.5-0.6-1.2-0.8-2.1-0.8c-1,0-1.8,0.3-2.3,1c-0.6,0.7-0.9,1.6-0.9,2.7H438c0-1.3,0.3-2.6,1-3.7c0.6-1.1,1.5-2,2.7-2.6
		c1.2-0.6,2.5-0.9,4-0.9c2.3,0,4,0.5,5.3,1.6s1.9,2.6,1.9,4.6c0,1.1-0.3,2.2-0.8,3.3c-0.6,1.1-1.5,2.4-2.9,3.9l-5,5.3h9.4v3.6H453.4
		z"/>
	<path fill="#A1C8E7" d="M466.6,314.7h-4.4v-16.8l-5.2,1.6V296l9.1-3.3h0.5V314.7z"/>
	<path fill="#A1C8E7" d="M481.4,306.2c0,2.3-0.3,4.5-1,6.6c-0.7,2.1-1.6,4-2.8,5.6c-1.2,1.6-2.5,2.7-3.9,3.3l-0.8-2.3
		c1.4-1.1,2.6-2.7,3.4-5c0.8-2.2,1.3-4.8,1.3-7.7v-0.8c0-3-0.4-5.7-1.2-7.9c-0.8-2.3-2-4-3.4-5.2l0.8-2.3c1.4,0.6,2.7,1.7,3.9,3.2
		c1.2,1.5,2.2,3.4,2.8,5.4c0.7,2.1,1,4.2,1,6.4L481.4,306.2L481.4,306.2z"/>
</g>
<g enable-background="new    ">
	<path fill="#DC9928" d="M284.6,360.6v3.6h-0.4c-2,0-3.6,0.5-4.8,1.5c-1.2,1-1.9,2.4-2.2,4.1c1.2-1.2,2.6-1.8,4.4-1.8
		c1.9,0,3.4,0.7,4.6,2c1.1,1.4,1.7,3.2,1.7,5.4c0,1.4-0.3,2.7-0.9,3.9c-0.6,1.2-1.5,2.1-2.6,2.7c-1.1,0.6-2.4,1-3.8,1
		c-2.3,0-4.2-0.8-5.6-2.4c-1.4-1.6-2.1-3.8-2.1-6.4v-1.6c0-2.4,0.4-4.5,1.3-6.3s2.2-3.2,3.9-4.2c1.7-1,3.6-1.5,5.9-1.5L284.6,360.6
		L284.6,360.6z M280.4,371.6c-0.7,0-1.3,0.2-1.9,0.5c-0.6,0.4-1,0.9-1.3,1.5v1.3c0,1.5,0.3,2.6,0.9,3.4c0.6,0.8,1.4,1.2,2.4,1.2
		c0.9,0,1.7-0.4,2.3-1.1s0.9-1.7,0.9-2.9s-0.3-2.2-0.9-2.9C282.2,372,281.4,371.6,280.4,371.6z"/>
	<path fill="#DC9928" d="M290.9,380.6c0-0.7,0.2-1.3,0.7-1.7c0.5-0.4,1.1-0.6,1.8-0.6c0.7,0,1.3,0.2,1.8,0.6c0.5,0.4,0.7,1,0.7,1.7
		s-0.2,1.2-0.7,1.7c-0.5,0.4-1.1,0.6-1.8,0.6c-0.7,0-1.3-0.2-1.8-0.6C291.2,381.9,290.9,381.3,290.9,380.6z"/>
	<path fill="#DC9928" d="M313.8,366.7c0,1.1-0.3,2-0.8,2.8c-0.5,0.8-1.3,1.5-2.2,2c1.1,0.5,1.9,1.2,2.5,2.1s0.9,2,0.9,3.2
		c0,1.9-0.7,3.5-2,4.6c-1.3,1.1-3.1,1.7-5.4,1.7c-2.3,0-4.1-0.6-5.4-1.7c-1.3-1.1-2-2.7-2-4.6c0-1.2,0.3-2.3,0.9-3.2
		c0.6-0.9,1.5-1.6,2.5-2.1c-0.9-0.5-1.7-1.2-2.2-2s-0.8-1.8-0.8-2.8c0-1.9,0.6-3.4,1.9-4.5c1.3-1.1,2.9-1.7,5.1-1.7
		c2.1,0,3.8,0.5,5.1,1.7C313.2,363.3,313.8,364.8,313.8,366.7z M309.9,376.4c0-1-0.3-1.7-0.8-2.3c-0.6-0.6-1.3-0.9-2.2-0.9
		c-0.9,0-1.7,0.3-2.2,0.9c-0.6,0.6-0.8,1.3-0.8,2.3c0,0.9,0.3,1.7,0.8,2.3c0.5,0.6,1.3,0.9,2.3,0.9c0.9,0,1.7-0.3,2.2-0.8
		C309.6,378.2,309.9,377.4,309.9,376.4z M309.5,366.9c0-0.9-0.2-1.5-0.7-2.1c-0.5-0.5-1.1-0.8-1.9-0.8s-1.4,0.3-1.9,0.8
		c-0.5,0.5-0.7,1.2-0.7,2.1s0.2,1.6,0.7,2.1c0.5,0.5,1.1,0.8,1.9,0.8s1.5-0.3,1.9-0.8C309.2,368.4,309.5,367.7,309.5,366.9z"/>
	<path fill="#DC9928" d="M332,373.7c0,3-0.6,5.4-1.9,7c-1.3,1.6-3.1,2.4-5.5,2.4c-2.4,0-4.2-0.8-5.5-2.4c-1.3-1.6-1.9-3.8-1.9-6.8
		v-4c0-3.1,0.6-5.4,1.9-7c1.3-1.6,3.1-2.4,5.5-2.4c2.4,0,4.2,0.8,5.5,2.4c1.3,1.6,1.9,3.8,1.9,6.8V373.7z M327.6,369.3
		c0-1.8-0.2-3.1-0.7-4c-0.5-0.9-1.3-1.2-2.3-1.2s-1.8,0.4-2.3,1.2c-0.5,0.8-0.7,2-0.8,3.7v5.3c0,1.8,0.2,3.1,0.7,4
		c0.5,0.9,1.3,1.3,2.3,1.3c1.1,0,1.8-0.4,2.3-1.3c0.5-0.8,0.7-2.1,0.7-3.8L327.6,369.3L327.6,369.3z"/>
	<path fill="#DC9928" d="M334.9,365c0-1.3,0.4-2.4,1.3-3.3c0.9-0.8,2-1.3,3.4-1.3c1.4,0,2.6,0.4,3.5,1.2c0.9,0.8,1.3,2,1.3,3.4v1.1
		c0,1.4-0.4,2.4-1.3,3.3s-2,1.2-3.4,1.2c-1.4,0-2.6-0.4-3.5-1.2s-1.3-1.9-1.3-3.4V365z M337.8,366.2c0,0.6,0.2,1.1,0.5,1.5
		c0.3,0.4,0.8,0.6,1.4,0.6s1-0.2,1.3-0.6c0.3-0.4,0.5-0.9,0.5-1.5v-1.1c0-0.6-0.2-1.1-0.5-1.5c-0.3-0.4-0.8-0.6-1.4-0.6
		c-0.6,0-1,0.2-1.3,0.6c-0.3,0.4-0.5,0.9-0.5,1.5V366.2z M340.5,381.1l-2.1-1.1l10.7-17.2l2.1,1.1L340.5,381.1z M345.4,377.4
		c0-1.4,0.4-2.4,1.3-3.3c0.9-0.8,2-1.2,3.4-1.2c1.4,0,2.6,0.4,3.5,1.2c0.9,0.8,1.3,1.9,1.3,3.4v1.1c0,1.3-0.4,2.4-1.3,3.3
		c-0.9,0.8-2,1.2-3.5,1.2c-1.4,0-2.6-0.4-3.5-1.3s-1.3-1.9-1.3-3.3v-1.1H345.4z M348.3,378.6c0,0.6,0.2,1,0.5,1.4
		c0.4,0.4,0.8,0.6,1.4,0.6c1.2,0,1.8-0.7,1.8-2v-1.2c0-0.6-0.2-1.1-0.5-1.5c-0.3-0.4-0.8-0.6-1.4-0.6c-0.6,0-1,0.2-1.4,0.6
		c-0.3,0.4-0.5,0.9-0.5,1.5v1.2H348.3z"/>
	<path fill="#DC9928" d="M365.8,373.8c0-2.3,0.3-4.5,0.9-6.6c0.6-2.1,1.5-3.9,2.7-5.5c1.2-1.6,2.5-2.7,3.9-3.3l0.8,2.4
		c-1.5,1.1-2.6,2.8-3.4,5c-0.8,2.3-1.2,4.9-1.2,8v0.5c0,3,0.4,5.7,1.2,8c0.8,2.3,2,4,3.5,5.1l-0.8,2.3c-1.4-0.6-2.6-1.7-3.8-3.2
		c-1.2-1.6-2.1-3.3-2.7-5.4c-0.6-2.1-1-4.1-1-6.4v-0.9H365.8z"/>
	<path fill="#DC9928" d="M391.3,382.8h-15v-3l7.1-7.6c1-1.1,1.7-2,2.2-2.8c0.5-0.8,0.7-1.5,0.7-2.3c0-1-0.2-1.7-0.7-2.3
		c-0.5-0.6-1.2-0.8-2.1-0.8c-1,0-1.8,0.3-2.3,1c-0.6,0.7-0.9,1.6-0.9,2.7h-4.4c0-1.3,0.3-2.6,1-3.7c0.6-1.1,1.5-2,2.7-2.6
		c1.2-0.6,2.5-0.9,4-0.9c2.3,0,4,0.5,5.3,1.6c1.3,1.1,1.9,2.6,1.9,4.6c0,1.1-0.3,2.2-0.8,3.3c-0.5,1.1-1.5,2.4-2.9,3.9l-5,5.3h9.4
		v3.6H391.3z"/>
	<path fill="#DC9928" d="M404.5,382.8h-4.4V366l-5.2,1.6v-3.5l9.1-3.3h0.5V382.8z"/>
	<path fill="#DC9928" d="M412.1,380.6c0-0.7,0.2-1.3,0.7-1.7c0.5-0.4,1.1-0.6,1.8-0.6c0.7,0,1.3,0.2,1.8,0.6c0.5,0.4,0.7,1,0.7,1.7
		s-0.2,1.2-0.7,1.7c-0.5,0.5-1.1,0.6-1.8,0.6c-0.7,0-1.3-0.2-1.8-0.6C412.3,381.9,412.1,381.3,412.1,380.6z"/>
	<path fill="#DC9928" d="M430.8,374c-1.1,1.1-2.5,1.7-4,1.7c-1.9,0-3.5-0.7-4.7-2c-1.2-1.3-1.7-3.1-1.7-5.4c0-1.4,0.3-2.8,0.9-4
		c0.6-1.2,1.5-2.1,2.6-2.8c1.1-0.7,2.4-1,3.8-1c1.4,0,2.7,0.4,3.9,1.1c1.2,0.7,2,1.8,2.6,3.1c0.6,1.3,0.9,2.9,1,4.7v1.6
		c0,3.7-0.9,6.5-2.7,8.6c-1.8,2.1-4.4,3.2-7.7,3.3h-1.1v-3.6h1C428.5,379.2,430.5,377.4,430.8,374z M427.9,372.3
		c0.7,0,1.3-0.2,1.8-0.5c0.5-0.4,0.9-0.8,1.2-1.3v-1.8c0-1.5-0.3-2.6-0.8-3.4c-0.6-0.8-1.3-1.2-2.3-1.2c-0.9,0-1.6,0.4-2.2,1.2
		c-0.6,0.8-0.8,1.8-0.8,3c0,1.2,0.3,2.2,0.8,2.9C426.1,371.9,426.9,372.3,427.9,372.3z"/>
	<path fill="#DC9928" d="M451.2,374.5h2.5v3.5h-2.5v4.7h-4.4V378h-9l-0.2-2.7l9.1-14.5h4.4v13.7H451.2z M442,374.5h4.9v-7.7
		l-0.3,0.5L442,374.5z"/>
	<path fill="#DC9928" d="M471.1,382.8h-15v-3l7.1-7.6c1-1.1,1.7-2,2.2-2.8c0.5-0.8,0.7-1.5,0.7-2.3c0-1-0.2-1.7-0.7-2.3
		c-0.5-0.6-1.2-0.8-2.1-0.8c-1,0-1.8,0.3-2.3,1c-0.6,0.7-0.9,1.6-0.9,2.7h-4.4c0-1.3,0.3-2.6,1-3.7c0.6-1.1,1.5-2,2.7-2.6
		c1.2-0.6,2.5-0.9,4-0.9c2.3,0,4,0.5,5.3,1.6c1.3,1.1,1.9,2.6,1.9,4.6c0,1.1-0.3,2.2-0.8,3.3c-0.6,1.1-1.5,2.4-2.9,3.9l-5,5.3h9.4
		v3.6H471.1z"/>
	<path fill="#DC9928" d="M481.4,374.2c0,2.3-0.3,4.5-1,6.6c-0.7,2.1-1.6,4-2.8,5.6c-1.2,1.6-2.5,2.7-3.9,3.3l-0.8-2.3
		c1.4-1.1,2.6-2.7,3.4-5c0.8-2.2,1.3-4.8,1.3-7.7v-0.8c0-3-0.4-5.7-1.2-7.9c-0.8-2.3-2-4-3.4-5.2l0.8-2.3c1.4,0.6,2.7,1.7,3.9,3.2
		c1.2,1.5,2.2,3.4,2.8,5.4c0.7,2.1,1,4.2,1,6.4L481.4,374.2L481.4,374.2z"/>
</g>
<g enable-background="new    ">
	<path fill="#D5001E" d="M283.4,450.6H279v-16.8l-5.2,1.6v-3.5l9.1-3.3h0.5V450.6z"/>
	<path fill="#D5001E" d="M295,437.7h2.3c1.1,0,1.9-0.3,2.5-0.8c0.5-0.6,0.8-1.3,0.8-2.2c0-0.9-0.3-1.6-0.8-2.1
		c-0.5-0.5-1.3-0.7-2.2-0.7c-0.8,0-1.5,0.2-2.1,0.7c-0.6,0.5-0.8,1.1-0.8,1.8h-4.4c0-1.1,0.3-2.2,0.9-3.1c0.6-0.9,1.5-1.6,2.6-2.1
		c1.1-0.5,2.3-0.8,3.7-0.8c2.3,0,4.1,0.6,5.5,1.7c1.4,1.1,2,2.6,2,4.6c0,1-0.3,1.9-0.9,2.8c-0.6,0.8-1.4,1.5-2.4,1.9
		c1.2,0.4,2.2,1.1,2.8,2s0.9,1.9,0.9,3.1c0,1.9-0.7,3.5-2.1,4.7c-1.4,1.2-3.3,1.8-5.6,1.8c-2.2,0-4-0.6-5.4-1.7
		c-1.4-1.1-2.1-2.7-2.1-4.6h4.4c0,0.8,0.3,1.5,0.9,2c0.6,0.5,1.4,0.8,2.3,0.8c1,0,1.8-0.3,2.4-0.8c0.6-0.5,0.9-1.3,0.9-2.2
		c0-2.2-1.2-3.3-3.6-3.3H295V437.7z"/>
	<path fill="#D5001E" d="M308.7,448.4c0-0.7,0.2-1.3,0.7-1.7c0.5-0.4,1.1-0.6,1.8-0.6c0.7,0,1.3,0.2,1.8,0.6c0.5,0.4,0.7,1,0.7,1.7
		c0,0.7-0.2,1.2-0.7,1.7c-0.5,0.4-1.1,0.6-1.8,0.6s-1.3-0.2-1.8-0.6C308.9,449.7,308.7,449.1,308.7,448.4z"/>
	<path fill="#D5001E" d="M327.4,441.8c-1.1,1.1-2.5,1.7-4,1.7c-1.9,0-3.5-0.7-4.7-2c-1.2-1.3-1.7-3.1-1.7-5.4c0-1.4,0.3-2.8,0.9-4
		c0.6-1.2,1.5-2.1,2.6-2.8s2.4-1,3.8-1s2.7,0.4,3.9,1.1c1.1,0.7,2,1.8,2.6,3.1c0.6,1.3,0.9,2.9,0.9,4.7v1.6c0,3.7-0.9,6.5-2.7,8.6
		c-1.8,2.1-4.4,3.2-7.7,3.3h-1.1v-3.6h1C325,446.9,327.1,445.2,327.4,441.8z M324.5,440.1c0.7,0,1.3-0.2,1.8-0.5
		c0.5-0.4,0.9-0.8,1.2-1.3v-1.8c0-1.5-0.3-2.6-0.8-3.4c-0.6-0.8-1.3-1.2-2.3-1.2c-0.9,0-1.6,0.4-2.2,1.2c-0.6,0.8-0.8,1.8-0.8,3
		c0,1.2,0.3,2.2,0.8,2.9C322.7,439.7,323.5,440.1,324.5,440.1z"/>
	<path fill="#D5001E" d="M349.2,434.4c0,1.1-0.3,2-0.8,2.8c-0.5,0.8-1.3,1.5-2.2,2c1.1,0.5,1.9,1.2,2.5,2.1c0.6,0.9,0.9,2,0.9,3.2
		c0,1.9-0.7,3.5-2,4.6c-1.3,1.1-3.1,1.7-5.4,1.7c-2.3,0-4.1-0.6-5.4-1.7c-1.3-1.1-2-2.7-2-4.6c0-1.2,0.3-2.3,0.9-3.2
		c0.6-0.9,1.5-1.6,2.5-2.1c-0.9-0.5-1.7-1.2-2.2-2c-0.5-0.8-0.8-1.8-0.8-2.8c0-1.9,0.6-3.4,1.9-4.5c1.3-1.1,2.9-1.7,5.1-1.7
		c2.1,0,3.8,0.5,5.1,1.7C348.6,431.1,349.2,432.6,349.2,434.4z M345.3,444.2c0-1-0.3-1.7-0.8-2.3c-0.6-0.6-1.3-0.9-2.2-0.9
		c-0.9,0-1.7,0.3-2.2,0.9c-0.6,0.6-0.8,1.3-0.8,2.3c0,0.9,0.3,1.7,0.8,2.3c0.5,0.6,1.3,0.9,2.3,0.9c0.9,0,1.7-0.3,2.2-0.8
		C345.1,446,345.3,445.2,345.3,444.2z M344.9,434.7c0-0.9-0.2-1.5-0.7-2.1c-0.5-0.5-1.1-0.8-1.9-0.8s-1.4,0.3-1.9,0.8
		c-0.5,0.5-0.7,1.2-0.7,2.1s0.2,1.6,0.7,2.1c0.5,0.5,1.1,0.8,1.9,0.8s1.5-0.3,1.9-0.8C344.7,436.2,344.9,435.5,344.9,434.7z"/>
	<path fill="#D5001E" d="M352.6,432.8c0-1.3,0.4-2.4,1.3-3.3c0.9-0.8,2-1.3,3.4-1.3c1.4,0,2.6,0.4,3.5,1.2c0.9,0.8,1.3,2,1.3,3.4
		v1.1c0,1.4-0.4,2.4-1.3,3.3s-2,1.2-3.4,1.2c-1.4,0-2.6-0.4-3.5-1.2c-0.9-0.8-1.3-1.9-1.3-3.4V432.8z M355.5,434
		c0,0.6,0.2,1.1,0.5,1.5c0.3,0.4,0.8,0.6,1.4,0.6c0.6,0,1-0.2,1.3-0.6c0.3-0.4,0.5-0.9,0.5-1.5v-1.1c0-0.6-0.2-1.1-0.5-1.5
		c-0.3-0.4-0.8-0.6-1.4-0.6c-0.6,0-1,0.2-1.3,0.6c-0.3,0.4-0.5,0.9-0.5,1.5V434z M358.2,448.9l-2.1-1.1l10.7-17.2l2.1,1.1
		L358.2,448.9z M363.1,445.2c0-1.4,0.4-2.4,1.3-3.3c0.9-0.8,2-1.2,3.4-1.2c1.4,0,2.6,0.4,3.5,1.2s1.3,1.9,1.3,3.4v1.1
		c0,1.3-0.4,2.4-1.3,3.3c-0.9,0.8-2,1.2-3.5,1.2c-1.4,0-2.6-0.4-3.5-1.3s-1.3-1.9-1.3-3.3L363.1,445.2L363.1,445.2z M366,446.4
		c0,0.6,0.2,1,0.5,1.4c0.4,0.4,0.8,0.6,1.4,0.6c1.2,0,1.8-0.7,1.8-2v-1.2c0-0.6-0.2-1.1-0.5-1.5c-0.3-0.4-0.8-0.6-1.4-0.6
		c-0.6,0-1,0.2-1.4,0.6c-0.3,0.4-0.5,0.9-0.5,1.5v1.2H366z"/>
	<path fill="#D5001E" d="M383.5,441.6c0-2.3,0.3-4.5,0.9-6.6s1.5-3.9,2.7-5.5s2.5-2.7,3.9-3.3l0.8,2.4c-1.5,1.1-2.6,2.8-3.4,5
		c-0.8,2.3-1.2,4.9-1.2,8v0.5c0,3,0.4,5.7,1.2,8c0.8,2.3,2,4,3.5,5.1l-0.8,2.3c-1.4-0.6-2.6-1.7-3.8-3.2c-1.2-1.6-2.1-3.3-2.7-5.4
		c-0.6-2.1-1-4.1-1-6.4v-0.9H383.5z"/>
	<path fill="#D5001E" d="M406.8,442.3h2.5v3.5h-2.5v4.7h-4.4v-4.7h-9l-0.2-2.7l9.1-14.5h4.4L406.8,442.3L406.8,442.3z M397.6,442.3
		h4.9v-7.7l-0.3,0.5L397.6,442.3z"/>
	<path fill="#D5001E" d="M412.3,439.8l1.3-11.2h12.3v3.6h-8.7l-0.5,4.7c1-0.6,2.1-0.8,3.3-0.8c2.1,0,3.7,0.6,4.9,1.9
		c1.2,1.3,1.8,3.1,1.8,5.4c0,1.4-0.3,2.7-0.9,3.8c-0.6,1.1-1.5,2-2.6,2.6c-1.1,0.6-2.4,0.9-3.9,0.9c-1.3,0-2.6-0.3-3.7-0.8
		c-1.1-0.5-2-1.3-2.7-2.3s-1-2.1-1-3.3h4.3c0.1,0.9,0.4,1.6,1,2.1c0.5,0.5,1.3,0.8,2.1,0.8c1,0,1.7-0.4,2.3-1.1
		c0.5-0.7,0.8-1.7,0.8-3c0-1.2-0.3-2.2-0.9-2.9c-0.6-0.7-1.5-1-2.6-1c-1,0-1.9,0.3-2.5,0.8l-0.4,0.4L412.3,439.8z"/>
	<path fill="#D5001E" d="M429.8,448.4c0-0.7,0.2-1.3,0.7-1.7c0.5-0.4,1.1-0.6,1.8-0.6c0.7,0,1.3,0.2,1.8,0.6c0.5,0.4,0.7,1,0.7,1.7
		c0,0.7-0.2,1.2-0.7,1.7c-0.5,0.5-1.1,0.6-1.8,0.6s-1.3-0.2-1.8-0.6C430,449.7,429.8,449.1,429.8,448.4z"/>
	<path fill="#D5001E" d="M448.9,450.6h-4.4v-16.8l-5.2,1.6v-3.5l9.1-3.3h0.5V450.6z"/>
	<path fill="#D5001E" d="M466.6,450.6h-4.4v-16.8l-5.2,1.6v-3.5l9.1-3.3h0.5V450.6z"/>
	<path fill="#D5001E" d="M485.6,428.4v3.6h-0.4c-2,0-3.6,0.5-4.8,1.5c-1.2,1-1.9,2.4-2.2,4.1c1.2-1.2,2.6-1.8,4.4-1.8
		c1.9,0,3.4,0.7,4.6,2c1.2,1.3,1.7,3.2,1.7,5.4c0,1.4-0.3,2.7-0.9,3.9c-0.6,1.2-1.5,2.1-2.6,2.7c-1.1,0.6-2.4,1-3.8,1
		c-2.3,0-4.2-0.8-5.6-2.4c-1.4-1.6-2.1-3.8-2.1-6.4v-1.6c0-2.4,0.5-4.5,1.3-6.3c0.9-1.8,2.2-3.2,3.9-4.2c1.7-1,3.6-1.5,5.9-1.5
		L485.6,428.4L485.6,428.4z M481.3,439.4c-0.7,0-1.3,0.2-1.9,0.5c-0.6,0.4-1,0.9-1.3,1.5v1.3c0,1.5,0.3,2.6,0.9,3.4
		c0.6,0.8,1.4,1.2,2.4,1.2c0.9,0,1.7-0.4,2.3-1.1c0.6-0.7,0.9-1.7,0.9-2.9c0-1.2-0.3-2.2-0.9-2.9
		C483.1,439.8,482.3,439.4,481.3,439.4z"/>
	<path fill="#D5001E" d="M499.1,442c0,2.3-0.3,4.5-1,6.6s-1.6,4-2.8,5.6s-2.5,2.7-3.9,3.3l-0.8-2.3c1.4-1.1,2.6-2.7,3.4-5
		c0.8-2.2,1.3-4.8,1.3-7.7v-0.8c0-3-0.4-5.7-1.2-7.9c-0.8-2.3-2-4-3.4-5.2l0.8-2.3c1.4,0.6,2.7,1.7,3.9,3.2c1.2,1.5,2.2,3.4,2.8,5.4
		c0.7,2.1,1,4.2,1,6.4L499.1,442L499.1,442z"/>
</g>
<g enable-background="new    ">
	<path fill="#FFFFFF" d="M287.8,499.3l-8.5,19.5h-4.6l8.5-18.4h-10.9v-3.5h15.5V499.3z"/>
	<path fill="#FFFFFF" d="M303.4,510.6h2.5v3.5h-2.5v4.7H299v-4.7h-9l-0.2-2.7l9.1-14.5h4.4v13.7H303.4z M294.2,510.6h4.9v-7.7
		l-0.3,0.5L294.2,510.6z"/>
	<path fill="#FFFFFF" d="M308.7,516.7c0-0.7,0.2-1.3,0.7-1.7c0.5-0.4,1.1-0.6,1.8-0.6c0.7,0,1.3,0.2,1.8,0.6c0.5,0.4,0.7,1,0.7,1.7
		c0,0.7-0.2,1.2-0.7,1.7c-0.5,0.4-1.1,0.6-1.8,0.6s-1.3-0.2-1.8-0.6C308.9,517.9,308.7,517.4,308.7,516.7z"/>
	<path fill="#FFFFFF" d="M329,496.6v3.6h-0.4c-2,0-3.6,0.5-4.8,1.5c-1.2,1-1.9,2.4-2.2,4.1c1.2-1.2,2.6-1.8,4.4-1.8
		c1.9,0,3.4,0.7,4.6,2.1c1.1,1.4,1.7,3.2,1.7,5.4c0,1.4-0.3,2.7-0.9,3.9c-0.6,1.2-1.5,2.1-2.6,2.7s-2.4,1-3.8,1
		c-2.3,0-4.2-0.8-5.6-2.4c-1.4-1.6-2.1-3.8-2.1-6.4v-1.6c0-2.4,0.4-4.5,1.3-6.3s2.2-3.2,3.9-4.2c1.7-1,3.6-1.5,5.9-1.5h0.6V496.6z
		 M324.8,507.6c-0.7,0-1.3,0.2-1.9,0.5c-0.6,0.4-1,0.9-1.3,1.5v1.3c0,1.5,0.3,2.6,0.9,3.4c0.6,0.8,1.4,1.2,2.4,1.2
		c0.9,0,1.7-0.4,2.3-1.1c0.6-0.7,0.9-1.7,0.9-2.9c0-1.2-0.3-2.2-0.9-2.9C326.6,508,325.8,507.6,324.8,507.6z"/>
	<path fill="#FFFFFF" d="M335.6,508l1.3-11.2h12.3v3.6h-8.7l-0.5,4.7c1-0.6,2.1-0.8,3.3-0.8c2.1,0,3.7,0.6,4.9,1.9
		c1.2,1.3,1.8,3.1,1.8,5.4c0,1.4-0.3,2.7-0.9,3.8c-0.6,1.1-1.5,2-2.6,2.6c-1.1,0.6-2.4,0.9-3.9,0.9c-1.3,0-2.6-0.3-3.7-0.8
		c-1.1-0.5-2-1.3-2.7-2.3c-0.7-1-1-2.1-1-3.3h4.3c0.1,0.9,0.4,1.6,1,2.1c0.6,0.5,1.3,0.8,2.1,0.8c1,0,1.7-0.4,2.3-1.1
		c0.5-0.7,0.8-1.7,0.8-3c0-1.2-0.3-2.2-0.9-2.9c-0.6-0.7-1.5-1-2.6-1c-1,0-1.9,0.3-2.5,0.8l-0.4,0.4L335.6,508z"/>
	<path fill="#FFFFFF" d="M352.6,501.1c0-1.3,0.4-2.4,1.3-3.3c0.9-0.8,2-1.3,3.4-1.3c1.4,0,2.6,0.4,3.5,1.2c0.9,0.8,1.3,2,1.3,3.4
		v1.1c0,1.4-0.4,2.4-1.3,3.3s-2,1.2-3.4,1.2c-1.4,0-2.6-0.4-3.5-1.2c-0.9-0.8-1.3-1.9-1.3-3.4V501.1z M355.5,502.3
		c0,0.6,0.2,1.1,0.5,1.5c0.3,0.4,0.8,0.6,1.4,0.6c0.6,0,1-0.2,1.3-0.6c0.3-0.4,0.5-0.9,0.5-1.5v-1.1c0-0.6-0.2-1.1-0.5-1.5
		c-0.3-0.4-0.8-0.6-1.4-0.6c-0.6,0-1,0.2-1.3,0.6c-0.3,0.4-0.5,0.9-0.5,1.5V502.3z M358.2,517.2l-2.1-1.1l10.7-17.2l2.1,1.1
		L358.2,517.2z M363.1,513.4c0-1.4,0.4-2.4,1.3-3.3c0.9-0.8,2-1.2,3.4-1.2c1.4,0,2.6,0.4,3.5,1.2c0.9,0.8,1.3,1.9,1.3,3.4v1.1
		c0,1.3-0.4,2.4-1.3,3.3c-0.9,0.9-2,1.2-3.5,1.2c-1.4,0-2.6-0.4-3.5-1.3c-0.9-0.9-1.3-1.9-1.3-3.3L363.1,513.4L363.1,513.4z
		 M366,514.6c0,0.6,0.2,1,0.5,1.4c0.4,0.4,0.8,0.6,1.4,0.6c1.2,0,1.8-0.7,1.8-2v-1.2c0-0.6-0.2-1.1-0.5-1.5
		c-0.3-0.4-0.8-0.6-1.4-0.6c-0.6,0-1,0.2-1.4,0.6c-0.3,0.4-0.5,0.9-0.5,1.5v1.2H366z"/>
	<path fill="#FFFFFF" d="M383.5,509.9c0-2.3,0.3-4.5,0.9-6.6s1.5-3.9,2.7-5.5s2.5-2.7,3.9-3.3l0.8,2.4c-1.5,1.1-2.6,2.8-3.4,5
		c-0.8,2.3-1.2,4.9-1.2,8v0.5c0,3,0.4,5.7,1.2,8c0.8,2.3,2,4,3.5,5.1l-0.8,2.3c-1.4-0.6-2.6-1.7-3.8-3.2c-1.2-1.6-2.1-3.3-2.7-5.4
		c-0.6-2.1-1-4.1-1-6.4v-0.9H383.5z"/>
	<path fill="#FFFFFF" d="M409,518.8h-15v-3l7.1-7.6c1-1.1,1.7-2,2.2-2.8c0.5-0.8,0.7-1.5,0.7-2.3c0-1-0.2-1.7-0.7-2.3
		c-0.5-0.6-1.2-0.8-2.1-0.8c-1,0-1.8,0.3-2.3,1c-0.6,0.7-0.9,1.6-0.9,2.7h-4.4c0-1.3,0.3-2.6,1-3.7c0.6-1.1,1.5-2,2.7-2.6
		c1.2-0.6,2.5-0.9,4-0.9c2.3,0,4,0.5,5.3,1.6c1.3,1.1,1.9,2.6,1.9,4.6c0,1.1-0.3,2.2-0.8,3.3c-0.6,1.1-1.5,2.4-2.9,3.9l-5,5.3h9.4
		v3.6H409z"/>
	<path fill="#FFFFFF" d="M424.5,510.6h2.5v3.5h-2.5v4.7h-4.4v-4.7h-9l-0.2-2.7l9.1-14.5h4.4v13.7H424.5z M415.3,510.6h4.9v-7.7
		l-0.3,0.5L415.3,510.6z"/>
	<path fill="#FFFFFF" d="M444.1,509.7c0,3-0.6,5.4-1.9,7c-1.3,1.6-3.1,2.4-5.5,2.4c-2.4,0-4.2-0.8-5.5-2.4c-1.3-1.6-1.9-3.8-1.9-6.8
		v-4c0-3.1,0.6-5.4,1.9-7c1.3-1.6,3.1-2.4,5.5-2.4c2.4,0,4.2,0.8,5.5,2.4c1.3,1.6,1.9,3.8,1.9,6.8V509.7z M439.8,505.3
		c0-1.8-0.2-3.1-0.7-4c-0.5-0.8-1.3-1.2-2.3-1.2c-1,0-1.8,0.4-2.3,1.2c-0.5,0.8-0.7,2-0.8,3.7v5.3c0,1.8,0.2,3.1,0.7,4
		c0.5,0.9,1.3,1.3,2.3,1.3c1.1,0,1.8-0.4,2.3-1.3c0.5-0.8,0.7-2.1,0.7-3.8L439.8,505.3L439.8,505.3z"/>
	<path fill="#FFFFFF" d="M447.5,516.7c0-0.7,0.2-1.3,0.7-1.7s1.1-0.6,1.8-0.6c0.7,0,1.3,0.2,1.8,0.6c0.5,0.4,0.7,1,0.7,1.7
		c0,0.7-0.2,1.2-0.7,1.7c-0.5,0.4-1.1,0.6-1.8,0.6c-0.7,0-1.3-0.2-1.8-0.6C447.7,517.9,447.5,517.4,447.5,516.7z"/>
	<path fill="#FFFFFF" d="M470.3,502.7c0,1.1-0.3,2-0.8,2.8c-0.5,0.8-1.3,1.5-2.2,2c1.1,0.5,1.9,1.2,2.5,2.1c0.6,0.9,0.9,2,0.9,3.2
		c0,1.9-0.7,3.5-2,4.6c-1.3,1.1-3.1,1.7-5.4,1.7c-2.3,0-4.1-0.6-5.4-1.7c-1.3-1.1-2-2.7-2-4.6c0-1.2,0.3-2.3,0.9-3.2
		c0.6-0.9,1.5-1.6,2.5-2.1c-0.9-0.5-1.7-1.2-2.2-2c-0.5-0.8-0.8-1.8-0.8-2.8c0-1.9,0.6-3.4,1.9-4.5c1.2-1.1,2.9-1.7,5.1-1.7
		c2.1,0,3.8,0.5,5.1,1.7C469.7,499.3,470.3,500.8,470.3,502.7z M466.4,512.5c0-1-0.3-1.7-0.8-2.3c-0.6-0.6-1.3-0.9-2.2-0.9
		c-0.9,0-1.7,0.3-2.2,0.9c-0.6,0.6-0.8,1.3-0.8,2.3c0,0.9,0.3,1.7,0.8,2.3c0.5,0.6,1.3,0.9,2.3,0.9c0.9,0,1.7-0.3,2.2-0.8
		C466.2,514.4,466.4,513.5,466.4,512.5z M466,502.9c0-0.9-0.2-1.5-0.7-2.1c-0.5-0.6-1.1-0.8-1.9-0.8s-1.4,0.3-1.9,0.8
		c-0.5,0.5-0.7,1.2-0.7,2.1c0,0.9,0.2,1.6,0.7,2.1c0.5,0.5,1.1,0.8,1.9,0.8s1.5-0.3,1.9-0.8C465.8,504.5,466,503.8,466,502.9z"/>
	<path fill="#FFFFFF" d="M484.3,518.8H480V502l-5.2,1.6v-3.5l9.1-3.3h0.5v22H484.3z"/>
	<path fill="#FFFFFF" d="M504.3,510.6h2.5v3.5h-2.5v4.7H500v-4.7h-9l-0.2-2.7l9.1-14.5h4.4V510.6z M495.1,510.6h4.9v-7.7l-0.3,0.5
		L495.1,510.6z"/>
	<path fill="#FFFFFF" d="M516.9,510.2c0,2.3-0.3,4.5-1,6.6c-0.7,2.1-1.6,4-2.8,5.6c-1.2,1.6-2.5,2.7-3.9,3.3l-0.8-2.3
		c1.4-1.1,2.6-2.7,3.4-5c0.8-2.2,1.3-4.8,1.3-7.7v-0.8c0-3-0.4-5.7-1.2-7.9c-0.8-2.3-2-4-3.4-5.2l0.8-2.3c1.4,0.6,2.7,1.7,3.9,3.2
		c1.2,1.6,2.2,3.4,2.8,5.4c0.7,2.1,1,4.2,1,6.4L516.9,510.2L516.9,510.2z"/>
</g>
</svg>
