<?xml version="1.0" encoding="utf-8"?>
<!-- Generator: Adobe Illustrator 18.1.1, SVG Export Plug-In . SVG Version: 6.00 Build 0)  -->
<svg version="1.1" id="Camada_1" xmlns="http://www.w3.org/2000/svg" xmlns:xlink="http://www.w3.org/1999/xlink" x="0px" y="0px"
	 viewBox="0 571.9 595.3 270" enable-background="new 0 571.9 595.3 270" xml:space="preserve">
<line fill="none" stroke="#F6D448" stroke-width="0.25" x1="83.6" y1="603.2" x2="268.4" y2="603.2"/>
<path opacity="0.7" fill="#F6D448" enable-background="new    " d="M268.4,616.7c-7.4,0-13.5-6.1-13.5-13.5
	c0-7.4,6.1-13.5,13.5-13.5c7.4,0,13.5,6.1,13.5,13.5C281.9,610.6,275.8,616.7,268.4,616.7L268.4,616.7z"/>
<rect x="268.4" y="584.9" opacity="0.8" fill="#FFFFFF" enable-background="new    " width="24" height="33.8"/>
<path opacity="0.7" fill="#F6D448" enable-background="new    " d="M232.6,616.7c-7.4,0-13.5-6.1-13.5-13.5
	c0-7.4,6.1-13.5,13.5-13.5c7.4,0,13.5,6.1,13.5,13.5C246.1,610.6,240,616.7,232.6,616.7L232.6,616.7z"/>
<path opacity="0.7" fill="#F6D448" enable-background="new    " d="M196.7,616.7c-7.4,0-13.5-6.1-13.5-13.5
	c0-7.4,6.1-13.5,13.5-13.5s13.5,6.1,13.5,13.5C210.2,610.6,204.3,616.7,196.7,616.7L196.7,616.7z"/>
<path opacity="0.7" fill="#F6D448" enable-background="new    " d="M160.8,616.7c-7.4,0-13.5-6.1-13.5-13.5
	c0-7.4,6.1-13.5,13.5-13.5s13.5,6.1,13.5,13.5C174.3,610.6,168.4,616.7,160.8,616.7L160.8,616.7z"/>
<path opacity="0.7" fill="#F6D448" enable-background="new    " d="M125,616.9c-7.4,0-13.5-6.1-13.5-13.7c0-7.6,6.1-13.7,13.5-13.7
	c7.4,0,13.5,6.1,13.5,13.7C138.5,610.8,132.6,616.9,125,616.9L125,616.9z"/>
<line fill="none" stroke="#D5001E" stroke-width="0.25" x1="357.9" y1="602.7" x2="542.8" y2="602.7"/>
<path opacity="0.7" fill="#D5001E" enable-background="new    " d="M542.8,616.2c-7.4,0-13.5-6.1-13.5-13.5
	c0-7.4,6.1-13.5,13.5-13.5s13.5,6.1,13.5,13.5C556.3,610.3,550.2,616.2,542.8,616.2L542.8,616.2z"/>
<path opacity="0.7" fill="#D5001E" enable-background="new    " d="M506.9,616.2c-7.4,0-13.5-6.1-13.5-13.5
	c0-7.4,6.1-13.5,13.5-13.5s13.5,6.1,13.5,13.5C520.4,610.3,514.3,616.2,506.9,616.2L506.9,616.2z"/>
<path opacity="0.7" fill="#D5001E" enable-background="new    " d="M471.1,616.2c-7.4,0-13.5-6.1-13.5-13.5
	c0-7.4,6.1-13.5,13.5-13.5s13.5,6.1,13.5,13.5C484.5,610.3,478.4,616.2,471.1,616.2L471.1,616.2z"/>
<path opacity="0.7" fill="#D5001E" enable-background="new    " d="M435.2,616.2c-7.4,0-13.5-6.1-13.5-13.5
	c0-7.4,6.1-13.5,13.5-13.5s13.5,6.1,13.5,13.5C448.7,610.3,442.8,616.2,435.2,616.2L435.2,616.2z"/>
<path opacity="0.7" fill="#D5001E" enable-background="new    " d="M399.3,616.4c-7.4,0-13.5-6.1-13.5-13.7s6.1-13.7,13.5-13.7
	s13.5,6.1,13.5,13.7S406.9,616.4,399.3,616.4L399.3,616.4z"/>
<rect x="398.2" y="584.7" opacity="0.8" fill="#FFFFFF" enable-background="new    " width="167.5" height="33.8"/>
<line fill="none" stroke="#043988" stroke-width="0.25" x1="84.7" y1="704.4" x2="269.5" y2="704.4"/>
<path opacity="0.7" fill="#043988" enable-background="new    " d="M269.5,717.9c-7.4,0-13.5-6.1-13.5-13.5s6.1-13.5,13.5-13.5
	S283,697,283,704.4C283,711.7,276.9,717.9,269.5,717.9L269.5,717.9z"/>
<path opacity="0.7" fill="#043988" enable-background="new    " d="M233.7,717.9c-7.4,0-13.5-6.1-13.5-13.5s6.1-13.5,13.5-13.5
	s13.5,6.1,13.5,13.5C247.2,711.7,241.1,717.9,233.7,717.9L233.7,717.9z"/>
<path opacity="0.7" fill="#043988" enable-background="new    " d="M197.8,717.9c-7.4,0-13.5-6.1-13.5-13.5s6.1-13.5,13.5-13.5
	s13.5,6.1,13.5,13.5C211.3,711.7,205.2,717.9,197.8,717.9L197.8,717.9z"/>
<path opacity="0.7" fill="#043988" enable-background="new    " d="M161.9,717.9c-7.4,0-13.5-6.1-13.5-13.5s6.1-13.5,13.5-13.5
	c7.4,0,13.5,6.1,13.5,13.5C175.4,711.7,169.3,717.9,161.9,717.9L161.9,717.9z"/>
<path opacity="0.7" fill="#043988" enable-background="new    " d="M126.1,717.9c-7.4,0-13.5-6.1-13.5-13.7s6.1-13.7,13.5-13.7
	c7.4,0,13.5,6.1,13.5,13.7S133.7,717.9,126.1,717.9L126.1,717.9z"/>
<rect x="112.6" y="687.3" opacity="0.8" fill="#FFFFFF" enable-background="new    " width="178" height="33.8"/>
<path opacity="0.7" fill="#043988" enable-background="new    " d="M113.5,699.4c0.7-2,2.4-4.1,2.4-4.1l10.2,9.1h-13.5
	C112.6,704.4,112.6,702,113.5,699.4z"/>
<line fill="none" stroke="#587BB7" stroke-width="0.25" x1="358.1" y1="706.2" x2="543" y2="706.2"/>
<path opacity="0.7" fill="#587BB7" enable-background="new    " d="M543,719.7c-7.4,0-13.5-6.1-13.5-13.5s6.1-13.5,13.5-13.5
	s13.5,6.1,13.5,13.5S550.4,719.7,543,719.7L543,719.7z"/>
<path opacity="0.7" fill="#587BB7" enable-background="new    " d="M507.1,719.7c-7.4,0-13.5-6.1-13.5-13.5s6.1-13.5,13.5-13.5
	c7.4,0,13.5,6.1,13.5,13.5S514.5,719.7,507.1,719.7L507.1,719.7z"/>
<path opacity="0.7" fill="#587BB7" enable-background="new    " d="M471.2,719.7c-7.4,0-13.5-6.1-13.5-13.5s6.1-13.5,13.5-13.5
	s13.5,6.1,13.5,13.5S478.6,719.7,471.2,719.7L471.2,719.7z"/>
<path opacity="0.7" fill="#587BB7" enable-background="new    " d="M435.4,719.7c-7.4,0-13.5-6.1-13.5-13.5s6.1-13.5,13.5-13.5
	s13.5,6.1,13.5,13.5S442.8,719.7,435.4,719.7L435.4,719.7z"/>
<path opacity="0.7" fill="#587BB7" enable-background="new    " d="M399.5,719.7c-7.4,0-13.5-6.1-13.5-13.7s6.1-13.7,13.5-13.7
	c7.4,0,13.5,6.1,13.5,13.7C413,713.8,406.9,719.7,399.5,719.7L399.5,719.7z"/>
<rect x="386" y="689.2" opacity="0.8" fill="#FFFFFF" enable-background="new    " width="178" height="33.8"/>
<path opacity="0.7" fill="#587BB7" enable-background="new    " d="M386,704.9C386.2,703.8,386,704.9,386,704.9l13.5,1.7H386
	C386,706.4,385.8,705.8,386,704.9z"/>
<g enable-background="new    ">
	<path fill="#F6D448" d="M30.6,600.5c0,0.6-0.2,1.2-0.5,1.6c-0.3,0.5-0.7,0.8-1.3,1.1c0.6,0.3,1.1,0.7,1.4,1.2
		c0.4,0.5,0.5,1.1,0.5,1.8c0,1.1-0.4,2-1.1,2.6c-0.8,0.6-1.8,1-3.1,1s-2.3-0.3-3.1-1c-0.8-0.6-1.1-1.5-1.1-2.6
		c0-0.7,0.2-1.3,0.5-1.8c0.4-0.5,0.8-0.9,1.4-1.2c-0.5-0.3-1-0.7-1.3-1.1c-0.3-0.5-0.5-1-0.5-1.6c0-1.1,0.4-1.9,1.1-2.6
		c0.7-0.7,1.7-1,2.9-1c1.2,0,2.2,0.3,2.9,0.9C30,598.4,30.6,599.4,30.6,600.5z M28.4,606.1c0-0.5-0.2-1-0.5-1.3s-0.7-0.5-1.3-0.5
		c-0.5,0-1,0.2-1.3,0.5c-0.3,0.3-0.5,0.8-0.5,1.3s0.2,1,0.5,1.3c0.3,0.3,0.7,0.5,1.3,0.5c0.5,0,1-0.2,1.3-0.5
		C28.2,607.1,28.4,606.6,28.4,606.1z M28.1,600.6c0-0.5-0.1-0.9-0.4-1.2c-0.3-0.3-0.6-0.4-1.1-0.4s-0.8,0.1-1.1,0.4
		c-0.3,0.3-0.4,0.7-0.4,1.2s0.1,0.9,0.4,1.2c0.3,0.3,0.6,0.5,1.1,0.5s0.8-0.2,1.1-0.5C28,601.5,28.1,601.1,28.1,600.6z"/>
	<path fill="#F6D448" d="M40.8,600.5c0,0.6-0.2,1.2-0.5,1.6c-0.3,0.5-0.7,0.8-1.3,1.1c0.6,0.3,1.1,0.7,1.4,1.2
		c0.4,0.5,0.5,1.1,0.5,1.8c0,1.1-0.4,2-1.1,2.6c-0.8,0.6-1.8,1-3.1,1c-1.3,0-2.3-0.3-3.1-1c-0.8-0.6-1.1-1.5-1.1-2.6
		c0-0.7,0.2-1.3,0.5-1.8c0.4-0.5,0.8-0.9,1.4-1.2c-0.5-0.3-1-0.7-1.3-1.1c-0.3-0.5-0.5-1-0.5-1.6c0-1.1,0.4-1.9,1.1-2.6
		c0.7-0.7,1.7-1,2.9-1c1.2,0,2.2,0.3,2.9,0.9S40.8,599.4,40.8,600.5z M38.5,606.1c0-0.5-0.2-1-0.5-1.3c-0.3-0.3-0.7-0.5-1.3-0.5
		c-0.5,0-1,0.2-1.3,0.5c-0.3,0.3-0.5,0.8-0.5,1.3s0.2,1,0.5,1.3c0.3,0.3,0.7,0.5,1.3,0.5c0.5,0,1-0.2,1.3-0.5
		C38.4,607.1,38.5,606.6,38.5,606.1z M38.3,600.6c0-0.5-0.1-0.9-0.4-1.2c-0.3-0.3-0.6-0.4-1.1-0.4c-0.5,0-0.8,0.1-1.1,0.4
		c-0.3,0.3-0.4,0.7-0.4,1.2s0.1,0.9,0.4,1.2c0.3,0.3,0.6,0.5,1.1,0.5c0.5,0,0.8-0.2,1.1-0.5C38.2,601.5,38.3,601.1,38.3,600.6z"/>
	<path fill="#F6D448" d="M43.5,612.9l-1.3-0.7l0.3-0.6c0.4-0.7,0.6-1.4,0.6-2.1v-1.9h2.1v1.7c0,0.6-0.2,1.3-0.5,1.9
		C44.4,611.9,43.9,612.4,43.5,612.9z"/>
	<path fill="#F6D448" d="M54.4,605h1.4v2h-1.4v2.7h-2.5V607h-5.2l-0.1-1.6l5.2-8.3h2.5L54.4,605L54.4,605z M49.1,605h2.8v-4.4
		l-0.2,0.3L49.1,605z"/>
	<path fill="#F6D448" d="M59.7,602.3H61c0.6,0,1.1-0.2,1.4-0.5c0.3-0.3,0.5-0.7,0.5-1.3c0-0.5-0.2-0.9-0.5-1.2
		c-0.3-0.3-0.7-0.4-1.2-0.4c-0.5,0-0.9,0.1-1.2,0.4s-0.5,0.6-0.5,1H57c0-0.7,0.2-1.2,0.5-1.8c0.4-0.5,0.8-0.9,1.5-1.2
		c0.6-0.3,1.3-0.4,2.1-0.4c1.3,0,2.4,0.3,3.1,1c0.8,0.6,1.1,1.5,1.1,2.6c0,0.6-0.2,1.1-0.5,1.6c-0.4,0.5-0.8,0.9-1.4,1.1
		c0.7,0.3,1.2,0.6,1.6,1.1c0.3,0.5,0.5,1.1,0.5,1.8c0,1.1-0.4,2-1.2,2.7c-0.8,0.7-1.9,1-3.2,1c-1.3,0-2.3-0.3-3.1-1
		c-0.8-0.7-1.2-1.5-1.2-2.6h2.5c0,0.5,0.2,0.9,0.5,1.2c0.4,0.3,0.8,0.4,1.3,0.4c0.6,0,1.1-0.2,1.4-0.5c0.3-0.3,0.5-0.7,0.5-1.2
		c0-1.3-0.7-1.9-2.1-1.9h-1.3L59.7,602.3L59.7,602.3z"/>
	<path fill="#F6D448" d="M67.3,599.6c0-0.8,0.3-1.4,0.8-1.9s1.2-0.7,2-0.7c0.8,0,1.5,0.2,2,0.7c0.5,0.5,0.8,1.1,0.8,1.9v0.6
		c0,0.8-0.3,1.4-0.8,1.9c-0.5,0.5-1.2,0.7-2,0.7c-0.8,0-1.5-0.2-2-0.7s-0.8-1.1-0.8-1.9V599.6z M68.9,600.2c0,0.3,0.1,0.6,0.3,0.8
		c0.2,0.2,0.5,0.3,0.8,0.3c0.3,0,0.6-0.1,0.8-0.3c0.2-0.2,0.3-0.5,0.3-0.9v-0.6c0-0.3-0.1-0.6-0.3-0.8c-0.2-0.2-0.5-0.3-0.8-0.3
		c-0.3,0-0.6,0.1-0.8,0.3c-0.2,0.2-0.3,0.5-0.3,0.9C68.9,599.6,68.9,600.2,68.9,600.2z M70.5,608.8l-1.2-0.7l6.1-9.8l1.2,0.7
		L70.5,608.8z M73.3,606.6c0-0.8,0.3-1.4,0.8-1.9c0.5-0.5,1.2-0.7,2-0.7c0.8,0,1.5,0.2,2,0.7c0.5,0.5,0.8,1.1,0.8,1.9v0.6
		c0,0.8-0.2,1.4-0.7,1.9c-0.5,0.5-1.2,0.7-2,0.7c-0.8,0-1.5-0.2-2-0.7c-0.5-0.5-0.8-1.1-0.8-1.9v-0.6H73.3z M74.9,607.3
		c0,0.3,0.1,0.6,0.3,0.8c0.2,0.2,0.5,0.3,0.8,0.3c0.7,0,1.1-0.4,1.1-1.2v-0.7c0-0.3-0.1-0.6-0.3-0.8c-0.2-0.2-0.5-0.3-0.8-0.3
		c-0.3,0-0.6,0.1-0.8,0.3c-0.2,0.2-0.3,0.5-0.3,0.9C74.9,606.6,74.9,607.3,74.9,607.3z"/>
</g>
<g opacity="0.7" enable-background="new    ">
	<path fill="#043988" d="M28.5,711.4H26v-9.6l-3,0.9v-2l5.2-1.9h0.3V711.4z"/>
	<path fill="#043988" d="M33.3,714.5l-1.3-0.7l0.3-0.6c0.4-0.7,0.6-1.4,0.6-2.1v-1.9H35v1.7c0,0.6-0.2,1.3-0.5,1.9
		C34.2,713.6,33.8,714.1,33.3,714.5z"/>
	<path fill="#043988" d="M42.7,706.4c-0.7,0.6-1.4,1-2.3,1c-1.1,0-2-0.4-2.7-1.1c-0.7-0.8-1-1.8-1-3.1c0-0.8,0.2-1.6,0.5-2.3
		c0.4-0.7,0.9-1.2,1.5-1.6c0.6-0.4,1.4-0.6,2.2-0.6s1.6,0.2,2.2,0.6c0.6,0.4,1.1,1,1.5,1.8c0.4,0.8,0.5,1.7,0.5,2.7v0.9
		c0,2.1-0.5,3.7-1.6,4.9c-1,1.2-2.5,1.8-4.4,1.9h-0.6v-2.1h0.6C41.4,709.3,42.5,708.3,42.7,706.4z M41,705.4c0.4,0,0.7-0.1,1-0.3
		c0.3-0.2,0.5-0.5,0.7-0.8v-1c0-0.8-0.2-1.5-0.5-2c-0.3-0.5-0.8-0.7-1.3-0.7c-0.5,0-0.9,0.2-1.2,0.7c-0.3,0.5-0.5,1-0.5,1.7
		c0,0.7,0.2,1.2,0.5,1.7C40,705.2,40.5,705.4,41,705.4z"/>
	<path fill="#043988" d="M49.6,704h1.3c0.6,0,1.1-0.2,1.4-0.5c0.3-0.3,0.5-0.7,0.5-1.3c0-0.5-0.2-0.9-0.5-1.2
		c-0.3-0.3-0.7-0.4-1.2-0.4c-0.5,0-0.9,0.1-1.2,0.4c-0.3,0.3-0.5,0.6-0.5,1h-2.5c0-0.7,0.2-1.2,0.5-1.8c0.4-0.5,0.8-0.9,1.5-1.2
		c0.6-0.3,1.3-0.4,2.1-0.4c1.3,0,2.4,0.3,3.1,1c0.8,0.6,1.1,1.5,1.1,2.6c0,0.6-0.2,1.1-0.5,1.6c-0.4,0.5-0.8,0.9-1.4,1.1
		c0.7,0.3,1.2,0.6,1.6,1.1c0.3,0.5,0.5,1.1,0.5,1.8c0,1.1-0.4,2-1.2,2.7c-0.8,0.7-1.9,1-3.2,1c-1.3,0-2.3-0.3-3.1-1
		c-0.8-0.7-1.2-1.5-1.2-2.6h2.5c0,0.5,0.2,0.9,0.5,1.2c0.4,0.3,0.8,0.4,1.3,0.4c0.6,0,1.1-0.2,1.4-0.5c0.3-0.3,0.5-0.7,0.5-1.2
		c0-1.3-0.7-1.9-2.1-1.9h-1.3V704H49.6L49.6,704z"/>
	<path fill="#043988" d="M57.1,701.2c0-0.8,0.3-1.4,0.8-1.9c0.5-0.5,1.2-0.7,2-0.7s1.5,0.2,2,0.7c0.5,0.5,0.8,1.1,0.8,1.9v0.6
		c0,0.8-0.3,1.4-0.8,1.9c-0.5,0.5-1.2,0.7-2,0.7s-1.5-0.2-2-0.7c-0.5-0.5-0.8-1.1-0.8-1.9V701.2z M58.8,701.9c0,0.3,0.1,0.6,0.3,0.8
		s0.5,0.3,0.8,0.3s0.6-0.1,0.8-0.3s0.3-0.5,0.3-0.9v-0.6c0-0.3-0.1-0.6-0.3-0.8c-0.2-0.2-0.5-0.3-0.8-0.3s-0.6,0.1-0.8,0.3
		c-0.2,0.2-0.3,0.5-0.3,0.9V701.9z M60.3,710.4l-1.2-0.7l6.1-9.8l1.2,0.7L60.3,710.4z M63.1,708.3c0-0.8,0.3-1.4,0.8-1.9
		c0.5-0.5,1.2-0.7,2-0.7s1.5,0.2,2,0.7s0.8,1.1,0.8,1.9v0.6c0,0.8-0.2,1.4-0.7,1.9c-0.5,0.5-1.2,0.7-2,0.7c-0.8,0-1.5-0.2-2-0.7
		s-0.8-1.1-0.8-1.9L63.1,708.3L63.1,708.3z M64.8,709c0,0.3,0.1,0.6,0.3,0.8c0.2,0.2,0.5,0.3,0.8,0.3c0.7,0,1.1-0.4,1.1-1.2v-0.7
		c0-0.3-0.1-0.6-0.3-0.8c-0.2-0.2-0.5-0.3-0.8-0.3c-0.3,0-0.6,0.1-0.8,0.3c-0.2,0.2-0.3,0.5-0.3,0.9C64.8,708.3,64.8,709,64.8,709z"
		/>
</g>
<g opacity="0.7" enable-background="new    ">
	<path fill="#587BB7" d="M306.3,706.2c0,1.7-0.4,3.1-1.1,4s-1.8,1.4-3.2,1.4s-2.4-0.5-3.1-1.4s-1.1-2.2-1.1-3.9V704
		c0-1.8,0.4-3.1,1.1-4s1.8-1.4,3.1-1.4c1.4,0,2.4,0.5,3.1,1.4s1.1,2.2,1.1,3.9v2.3H306.3z M303.8,703.6c0-1-0.1-1.8-0.4-2.3
		c-0.3-0.5-0.7-0.7-1.3-0.7s-1,0.2-1.3,0.7c-0.3,0.5-0.4,1.2-0.4,2.1v3.1c0,1,0.1,1.8,0.4,2.3c0.3,0.5,0.7,0.7,1.3,0.7
		c0.6,0,1-0.2,1.3-0.7c0.3-0.5,0.4-1.2,0.4-2.2V703.6z"/>
	<path fill="#587BB7" d="M308.8,714.5l-1.3-0.7l0.3-0.6c0.4-0.7,0.6-1.4,0.6-2.1v-1.9h2.1v1.7c0,0.6-0.2,1.3-0.5,1.9
		C309.7,713.6,309.3,714.1,308.8,714.5z"/>
	<path fill="#587BB7" d="M318.4,711.4h-2.5v-9.6l-3,0.9v-2l5.2-1.9h0.3V711.4z"/>
	<path fill="#587BB7" d="M325,704h1.3c0.6,0,1.1-0.2,1.4-0.5c0.3-0.3,0.5-0.7,0.5-1.3c0-0.5-0.2-0.9-0.5-1.2
		c-0.3-0.3-0.7-0.4-1.2-0.4c-0.5,0-0.9,0.1-1.2,0.4c-0.3,0.3-0.5,0.6-0.5,1h-2.5c0-0.7,0.2-1.2,0.5-1.8c0.4-0.5,0.8-0.9,1.5-1.2
		c0.6-0.3,1.3-0.4,2.1-0.4c1.3,0,2.4,0.3,3.1,1c0.8,0.6,1.1,1.5,1.1,2.6c0,0.6-0.2,1.1-0.5,1.6c-0.3,0.5-0.8,0.9-1.4,1.1
		c0.7,0.3,1.2,0.6,1.6,1.1c0.3,0.5,0.5,1.1,0.5,1.8c0,1.1-0.4,2-1.2,2.7c-0.8,0.7-1.9,1-3.2,1s-2.3-0.3-3.1-1
		c-0.8-0.7-1.2-1.5-1.2-2.6h2.5c0,0.5,0.2,0.9,0.5,1.2c0.4,0.3,0.8,0.4,1.3,0.4c0.6,0,1.1-0.2,1.4-0.5c0.3-0.3,0.5-0.7,0.5-1.2
		c0-1.3-0.7-1.9-2.1-1.9H325V704z"/>
	<path fill="#587BB7" d="M332.6,701.2c0-0.8,0.3-1.4,0.8-1.9c0.5-0.5,1.2-0.7,2-0.7s1.5,0.2,2,0.7c0.5,0.5,0.8,1.1,0.8,1.9v0.6
		c0,0.8-0.3,1.4-0.8,1.9c-0.5,0.5-1.2,0.7-2,0.7s-1.5-0.2-2-0.7c-0.5-0.5-0.8-1.1-0.8-1.9V701.2z M334.2,701.9
		c0,0.3,0.1,0.6,0.3,0.8c0.2,0.2,0.5,0.3,0.8,0.3s0.6-0.1,0.8-0.3c0.2-0.2,0.3-0.5,0.3-0.9v-0.6c0-0.3-0.1-0.6-0.3-0.8
		c-0.2-0.2-0.5-0.3-0.8-0.3s-0.6,0.1-0.8,0.3c-0.2,0.2-0.3,0.5-0.3,0.9V701.9z M335.8,710.4l-1.2-0.7l6.1-9.8l1.2,0.7L335.8,710.4z
		 M338.6,708.3c0-0.8,0.3-1.4,0.8-1.9c0.5-0.5,1.2-0.7,2-0.7s1.5,0.2,2,0.7c0.5,0.5,0.8,1.1,0.8,1.9v0.6c0,0.8-0.2,1.4-0.7,1.9
		s-1.2,0.7-2,0.7s-1.5-0.2-2-0.7c-0.5-0.5-0.8-1.1-0.8-1.9L338.6,708.3L338.6,708.3z M340.2,709c0,0.3,0.1,0.6,0.3,0.8
		c0.2,0.2,0.5,0.3,0.8,0.3c0.7,0,1.1-0.4,1.1-1.2v-0.7c0-0.3-0.1-0.6-0.3-0.8c-0.2-0.2-0.5-0.3-0.8-0.3c-0.3,0-0.6,0.1-0.8,0.3
		c-0.2,0.2-0.3,0.5-0.3,0.9L340.2,709L340.2,709z"/>
</g>
<g opacity="0.7" enable-background="new    ">
	<path fill="#D5001E" d="M303.7,604.7c-0.7,0.6-1.4,1-2.3,1c-1.1,0-2-0.4-2.7-1.1c-0.7-0.8-1-1.8-1-3.1c0-0.8,0.2-1.6,0.5-2.3
		c0.4-0.7,0.9-1.2,1.5-1.6s1.4-0.6,2.2-0.6c0.8,0,1.6,0.2,2.2,0.6c0.6,0.4,1.1,1,1.5,1.8c0.4,0.8,0.5,1.7,0.5,2.7v0.9
		c0,2.1-0.5,3.7-1.6,4.9c-1,1.2-2.5,1.8-4.4,1.9h-0.6v-2.1h0.6C302.4,607.6,303.5,606.6,303.7,604.7z M302,603.7
		c0.4,0,0.7-0.1,1-0.3c0.3-0.2,0.5-0.5,0.7-0.8v-1c0-0.8-0.2-1.5-0.5-2c-0.3-0.5-0.8-0.7-1.3-0.7c-0.5,0-0.9,0.2-1.2,0.7
		c-0.3,0.5-0.5,1-0.5,1.7c0,0.7,0.2,1.2,0.5,1.7C301,603.5,301.5,603.7,302,603.7z"/>
	<path fill="#D5001E" d="M308.8,612.9l-1.3-0.7l0.3-0.6c0.4-0.7,0.6-1.4,0.6-2.1v-1.9h2.1v1.7c0,0.6-0.2,1.3-0.5,1.9
		C309.7,611.9,309.3,612.4,308.8,612.9z"/>
	<path fill="#D5001E" d="M319.7,605h1.4v2h-1.4v2.7h-2.5V607H312v-1.6l5.2-8.3h2.5V605z M314.4,605h2.8v-4.4l-0.2,0.3L314.4,605z"/>
	<path fill="#D5001E" d="M328.3,604.7c-0.7,0.6-1.4,1-2.3,1c-1.1,0-2-0.4-2.7-1.1c-0.7-0.8-1-1.8-1-3.1c0-0.8,0.2-1.6,0.5-2.3
		c0.4-0.7,0.9-1.2,1.5-1.6s1.4-0.6,2.2-0.6c0.8,0,1.6,0.2,2.2,0.6c0.6,0.4,1.1,1,1.5,1.8c0.4,0.8,0.5,1.7,0.5,2.7v0.9
		c0,2.1-0.5,3.7-1.6,4.9c-1,1.2-2.5,1.8-4.4,1.9h-0.6v-2.1h0.6C327,607.6,328.1,606.6,328.3,604.7z M326.6,603.7
		c0.4,0,0.7-0.1,1-0.3c0.3-0.2,0.5-0.5,0.7-0.8v-1c0-0.8-0.2-1.5-0.5-2c-0.3-0.5-0.8-0.7-1.3-0.7c-0.5,0-0.9,0.2-1.2,0.7
		c-0.3,0.5-0.5,1-0.5,1.7c0,0.7,0.2,1.2,0.5,1.7C325.6,603.5,326.1,603.7,326.6,603.7z"/>
	<path fill="#D5001E" d="M332.6,599.6c0-0.8,0.3-1.4,0.8-1.9s1.2-0.7,2-0.7s1.5,0.2,2,0.7c0.5,0.5,0.8,1.1,0.8,1.9v0.6
		c0,0.8-0.3,1.4-0.8,1.9c-0.5,0.5-1.2,0.7-2,0.7s-1.5-0.2-2-0.7s-0.8-1.1-0.8-1.9V599.6z M334.2,600.2c0,0.3,0.1,0.6,0.3,0.8
		c0.2,0.2,0.5,0.3,0.8,0.3s0.6-0.1,0.8-0.3c0.2-0.2,0.3-0.5,0.3-0.9v-0.6c0-0.3-0.1-0.6-0.3-0.8c-0.2-0.2-0.5-0.3-0.8-0.3
		s-0.6,0.1-0.8,0.3c-0.2,0.2-0.3,0.5-0.3,0.9V600.2z M335.8,608.8l-1.2-0.7l6.1-9.8l1.2,0.7L335.8,608.8z M338.6,606.6
		c0-0.8,0.3-1.4,0.8-1.9c0.5-0.5,1.2-0.7,2-0.7s1.5,0.2,2,0.7c0.5,0.5,0.8,1.1,0.8,1.9v0.6c0,0.8-0.2,1.4-0.7,1.9
		c-0.5,0.5-1.2,0.7-2,0.7s-1.5-0.2-2-0.7c-0.5-0.5-0.8-1.1-0.8-1.9L338.6,606.6L338.6,606.6z M340.2,607.3c0,0.3,0.1,0.6,0.3,0.8
		c0.2,0.2,0.5,0.3,0.8,0.3c0.7,0,1.1-0.4,1.1-1.2v-0.7c0-0.3-0.1-0.6-0.3-0.8c-0.2-0.2-0.5-0.3-0.8-0.3c-0.3,0-0.6,0.1-0.8,0.3
		c-0.2,0.2-0.3,0.5-0.3,0.9L340.2,607.3L340.2,607.3z"/>
</g>
<g>
	<path d="M397.3,743.7c0,1.3-0.2,2.2-0.6,3.1c-0.4,0.9-0.9,1.7-1.8,2s-1.7,0.7-2.8,0.7c-1.5,0-2.8-0.6-3.7-1.7
		c-0.9-1.1-1.5-2.6-1.5-4.4v-1.3c0-1.1,0.2-2.2,0.6-3.1c0.4-0.9,1.1-1.7,1.8-2.2c0.7-0.6,1.7-0.7,2.8-0.7s1.8,0.2,2.6,0.7
		c0.7,0.6,1.3,1.1,1.8,2c0.4,0.9,0.6,1.8,0.7,3.1v1.8L397.3,743.7L397.3,743.7z M396.2,742.4c0-1.7-0.4-2.8-1.1-3.7
		c-0.7-0.9-1.7-1.3-3-1.3c-1.3,0-2.2,0.4-3,1.3c-0.8,0.9-1.1,2.2-1.1,3.7v1.3c0,1.5,0.4,2.8,1.1,3.7c0.7,0.9,1.7,1.3,3,1.3
		c1.3,0,2.2-0.4,3-1.3c0.7-0.9,1.1-2.2,1.1-3.7V742.4z"/>
	<path d="M406.2,748.4c-0.7,0.9-1.7,1.5-3.1,1.5c-1.1,0-1.8-0.4-2.4-0.9c-0.6-0.6-0.7-1.5-0.7-2.8v-6.3h1.1v6.3
		c0,1.8,0.7,2.8,2.2,2.8c1.5,0,2.6-0.6,3-1.8v-7h1.1v9.8h-1.1v-1.6H406.2z"/>
	<path d="M411.7,737.4v2.6h2v0.9h-2v6.5c0,0.6,0.2,0.9,0.4,1.3c0.2,0.2,0.6,0.4,0.9,0.4c0.2,0,0.6,0,0.9,0v0.9
		c-0.4,0.2-0.7,0.2-1.1,0.2c-0.7,0-1.3-0.2-1.7-0.6c-0.4-0.4-0.6-1.1-0.6-1.8v-6.5h-1.8v-0.9h1.8v-2.6h1.1v-0.4L411.7,737.4
		L411.7,737.4z"/>
	<path d="M420.4,740.8c-0.2,0-0.6,0-0.7,0c-0.7,0-1.3,0.2-1.7,0.6c-0.6,0.4-0.7,0.9-0.9,1.7v6.7H416V740h1.1v1.5
		c0.6-1.1,1.5-1.7,2.8-1.7c0.4,0,0.6,0,0.7,0.2L420.4,740.8z"/>
	<path d="M421.3,744.7c0-0.9,0.2-1.8,0.6-2.6c0.4-0.7,0.9-1.3,1.5-1.7c0.7-0.4,1.5-0.6,2.2-0.6c1.3,0,2.4,0.4,3.1,1.3
		c0.7,0.9,1.3,2,1.3,3.7v0.2c0,0.9-0.2,1.8-0.6,2.6c-0.4,0.7-0.9,1.3-1.5,1.7c-0.6,0.4-1.5,0.6-2.2,0.6c-1.3,0-2.4-0.4-3.1-1.3
		c-0.7-0.9-1.3-2-1.3-3.7V744.7z M422.4,745c0,1.1,0.4,2.2,0.9,3c0.6,0.7,1.5,1.1,2.4,1.1s1.8-0.4,2.4-1.1c0.6-0.7,0.9-1.7,0.9-3
		v-0.2c0-0.7-0.2-1.5-0.4-2c-0.2-0.6-0.7-1.1-1.1-1.5c-0.6-0.4-1.1-0.6-1.7-0.6c-0.9,0-1.7,0.4-2.4,1.1c-0.6,0.7-0.9,1.7-0.9,3
		L422.4,745L422.4,745z"/>
	<path d="M438.1,747.2c0-0.6-0.2-0.9-0.6-1.3c-0.4-0.4-1.1-0.6-2-0.7s-1.5-0.4-2-0.6c-0.6-0.2-0.9-0.6-1.1-0.9
		c-0.2-0.4-0.4-0.7-0.4-1.3c0-0.7,0.4-1.5,0.9-1.8c0.6-0.6,1.5-0.7,2.4-0.7c1.1,0,2,0.2,2.6,0.7c0.7,0.6,0.9,1.3,0.9,2h-0.7
		c0-0.6-0.2-1.1-0.7-1.5c-0.6-0.4-1.1-0.6-1.8-0.6c-0.7,0-1.3,0.2-1.7,0.6c-0.4,0.4-0.6,0.7-0.6,1.3c0,0.6,0.2,0.9,0.6,1.1
		c0.4,0.2,0.9,0.6,2,0.7c0.9,0.2,1.7,0.4,2.2,0.7c0.6,0.2,0.7,0.6,1.1,0.9c0.4,0.4,0.4,0.7,0.4,1.3c0,0.7-0.4,1.5-0.9,2
		c-0.7,0.6-1.5,0.7-2.6,0.7c-1.1,0-2-0.2-2.8-0.7c-0.7-0.6-1.1-1.3-1.1-2h1.1c0,0.6,0.4,1.1,0.7,1.5c0.6,0.4,1.1,0.6,2,0.6
		c0.7,0,1.3-0.2,1.8-0.6C438.5,748.4,438.1,747.6,438.1,747.2z"/>
</g>
<g>
	<path d="M397.3,639.1c0,1.3-0.2,2.2-0.6,3.1c-0.4,0.9-0.9,1.7-1.8,2c-0.9,0.3-1.7,0.7-2.8,0.7c-1.5,0-2.8-0.6-3.7-1.7
		s-1.5-2.6-1.5-4.4v-1.3c0-1.1,0.2-2.2,0.6-3.1c0.4-0.9,1.1-1.7,1.8-2.2c0.7-0.6,1.7-0.7,2.8-0.7s1.8,0.2,2.6,0.7
		c0.7,0.6,1.3,1.1,1.8,2c0.4,0.9,0.6,1.8,0.7,3.1v1.8H397.3z M396.2,637.6c0-1.7-0.4-2.8-1.1-3.7c-0.7-0.9-1.7-1.3-3-1.3
		c-1.3,0-2.2,0.4-3,1.3s-1.1,2.2-1.1,3.7v1.3c0,1.5,0.4,2.8,1.1,3.7c0.7,0.9,1.7,1.3,3,1.3c1.3,0,2.2-0.4,3-1.3
		c0.7-0.9,1.1-2.2,1.1-3.7V637.6z"/>
	<path d="M404.3,636.1c-0.2,0-0.6,0-0.7,0c-0.7,0-1.3,0.2-1.7,0.6c-0.6,0.4-0.7,0.9-0.9,1.7v6.7h-1.1v-9.8h1.1v1.5
		c0.6-1.1,1.5-1.7,2.8-1.7c0.4,0,0.6,0,0.7,0.2L404.3,636.1z"/>
	<path d="M405.4,640c0-1.5,0.4-2.8,0.9-3.7c0.7-0.9,1.7-1.3,2.8-1.3c1.3,0,2.4,0.6,3,1.7v-1.5h0.9v9.6c0,1.3-0.4,2.2-1.1,3
		c-0.7,0.7-1.7,1.1-2.8,1.1c-0.7,0-1.3-0.2-2-0.4c-0.6-0.4-1.1-0.7-1.5-1.3l0.6-0.7c0.7,0.9,1.7,1.5,2.8,1.5c0.9,0,1.7-0.2,2-0.7
		c0.6-0.6,0.7-1.3,0.7-2.2v-1.3c-0.7,0.9-1.7,1.5-3,1.5c-1.1,0-2-0.4-2.8-1.3C405.2,643,405.4,641.7,405.4,640L405.4,640z
		 M406.5,640.2c0,1.3,0.2,2.2,0.7,3c0.6,0.7,1.3,1.1,2,1.1c1.3,0,2.2-0.6,2.8-1.8v-4.6c-0.2-0.6-0.6-1.1-1.1-1.5
		c-0.6-0.4-1.1-0.6-1.7-0.6c-0.9,0-1.7,0.4-2,1.1C406.7,637.6,406.5,638.7,406.5,640.2z"/>
	<path d="M422.2,644.8c-0.2-0.4-0.2-0.7-0.2-1.3c-0.4,0.6-0.9,0.9-1.5,1.1c-0.6,0.2-1.3,0.4-1.8,0.4c-0.9,0-1.7-0.2-2.2-0.7
		c-0.6-0.6-0.9-1.1-0.9-2s0.4-1.7,1.1-2.2c0.7-0.6,1.8-0.7,3.3-0.7h2v-1.1c0-0.7-0.2-1.3-0.6-1.7c-0.4-0.4-1.1-0.6-1.8-0.6
		s-1.3,0.2-1.8,0.6c-0.6,0.4-0.7,0.9-0.7,1.5H416c0-0.7,0.4-1.5,1.1-2c0.7-0.6,1.7-0.9,2.6-0.9c1.1,0,2,0.2,2.6,0.7
		c0.6,0.6,0.9,1.3,0.9,2.2v4.6c0,0.9,0.2,1.7,0.4,2v0.2L422.2,644.8L422.2,644.8z M418.9,644.1c0.7,0,1.3-0.2,1.8-0.6
		c0.6-0.4,0.9-0.7,1.3-1.5v-2.2h-1.8c-1.1,0-1.8,0.2-2.6,0.6c-0.6,0.4-0.9,0.9-0.9,1.7c0,0.6,0.2,0.9,0.6,1.3
		C417.6,643.9,418.2,644.1,418.9,644.1z"/>
	<path d="M427.1,635.2v1.7c0.4-0.6,0.7-1.1,1.3-1.3c0.6-0.4,1.1-0.6,1.8-0.6c1.1,0,1.8,0.4,2.4,0.9c0.6,0.5,0.7,1.5,0.7,2.6v6.5
		h-1.1v-6.5c0-0.9-0.2-1.5-0.6-2c-0.4-0.4-0.9-0.6-1.7-0.6c-0.7,0-1.3,0.2-1.8,0.6c-0.6,0.4-0.9,0.9-1.1,1.7v6.7h-1.1v-9.8h1.1v0.1
		L427.1,635.2L427.1,635.2z"/>
	<path d="M436.1,632.3c0-0.2,0-0.4,0.2-0.6s0.4-0.2,0.6-0.2c0.2,0,0.4,0,0.6,0.2s0.2,0.4,0.2,0.6s0,0.4-0.2,0.6s-0.4,0.2-0.6,0.2
		c-0.2,0-0.4,0-0.6-0.2S436.1,632.4,436.1,632.3z M437.4,644.8h-1.1V635h1.1V644.8z"/>
	<path d="M440.9,644.1h6.3v0.9h-7.8v-0.9l5.9-7.9h-5.7v-0.9h7v0.7L440.9,644.1z"/>
	<path d="M455.5,644.8c-0.2-0.4-0.2-0.7-0.2-1.3c-0.4,0.6-0.9,0.9-1.5,1.1s-1.3,0.4-1.8,0.4c-0.9,0-1.7-0.2-2.2-0.7
		c-0.6-0.6-0.9-1.1-0.9-2s0.4-1.7,1.1-2.2c0.7-0.6,1.8-0.7,3.3-0.7h2v-1.1c0-0.7-0.2-1.3-0.6-1.7c-0.4-0.4-1.1-0.6-1.8-0.6
		c-0.7,0-1.3,0.2-1.8,0.6c-0.6,0.4-0.7,0.9-0.7,1.5h-1.1c0-0.7,0.4-1.5,1.1-2c0.7-0.6,1.7-0.9,2.6-0.9c1.1,0,2,0.2,2.6,0.7
		s0.9,1.3,0.9,2.2v4.6c0,0.9,0.2,1.7,0.4,2v0.2L455.5,644.8L455.5,644.8z M452,644.1c0.7,0,1.3-0.2,1.8-0.6c0.6-0.4,0.9-0.7,1.3-1.5
		v-2.2h-1.8c-1.1,0-1.8,0.2-2.6,0.6c-0.6,0.4-0.9,0.9-0.9,1.7c0,0.6,0.2,0.9,0.6,1.3C450.9,643.9,451.5,644.1,452,644.1z"/>
	<path d="M462.7,644.3c0.7,0,1.3-0.2,1.8-0.6c0.6-0.4,0.7-0.9,0.7-1.7h1.1c0,0.6-0.2,1.1-0.6,1.7c-0.4,0.6-0.7,0.9-1.3,1.1
		s-1.1,0.4-1.8,0.4c-1.3,0-2.2-0.4-3-1.3c-0.7-0.9-1.1-2-1.1-3.5V640c0-0.9,0.2-1.8,0.6-2.6c0.4-0.7,0.7-1.3,1.5-1.7
		c0.6-0.4,1.3-0.6,2.2-0.6c1.1,0,2,0.4,2.6,0.9c0.7,0.6,1.1,1.5,1.1,2.6h-1.1c0-0.7-0.4-1.3-0.7-1.8c-0.6-0.6-1.1-0.7-1.8-0.7
		c-0.9,0-1.7,0.4-2.2,1.1c-0.6,0.7-0.7,1.7-0.7,3v0.4c0,1.3,0.2,2.2,0.7,3C461.1,643.9,461.8,644.3,462.7,644.3z M463.1,645
		l-0.2,0.6c0.9,0.2,1.5,0.6,1.5,1.5c0,0.6-0.2,0.9-0.7,1.3c-0.6,0.4-1.1,0.6-1.8,0.6v-0.7c0.6,0,0.9-0.2,1.3-0.4
		c0.4-0.2,0.6-0.4,0.6-0.7c0-0.4-0.2-0.6-0.4-0.7c-0.2-0.2-0.7-0.2-1.1-0.2l0.2-1.1L463.1,645L463.1,645z"/>
	<path d="M474.9,644.8c-0.2-0.4-0.2-0.7-0.2-1.3c-0.4,0.6-0.9,0.9-1.5,1.1c-0.6,0.2-1.3,0.4-1.8,0.4c-0.9,0-1.7-0.2-2.2-0.7
		c-0.6-0.6-0.9-1.1-0.9-2s0.4-1.7,1.1-2.2c0.7-0.6,1.8-0.7,3.3-0.7h2v-1.1c0-0.7-0.2-1.3-0.6-1.7c-0.4-0.4-1.1-0.6-1.8-0.6
		c-0.7,0-1.3,0.2-1.8,0.6c-0.6,0.4-0.7,0.9-0.7,1.5h-1.1c0-0.7,0.4-1.5,1.1-2c0.7-0.6,1.7-0.9,2.6-0.9c1.1,0,2,0.2,2.6,0.7
		c0.6,0.6,0.9,1.3,0.9,2.2v4.6c0,0.9,0.2,1.7,0.4,2v0.2L474.9,644.8L474.9,644.8z M471.4,644.1c0.7,0,1.3-0.2,1.8-0.6
		c0.6-0.4,0.9-0.7,1.3-1.5v-2.2h-1.8c-1.1,0-1.8,0.2-2.6,0.6c-0.6,0.4-0.9,0.9-0.9,1.7c0,0.6,0.2,0.9,0.6,1.3
		C470.3,643.9,470.9,644.1,471.4,644.1z M475.7,631.5c0,0.6-0.2,1.1-0.6,1.5c-0.4,0.4-0.7,0.6-1.3,0.6c-0.4,0-0.9-0.2-1.3-0.6
		c-0.4-0.4-0.7-0.6-1.1-0.6c-0.4,0-0.6,0.2-0.7,0.4c-0.2,0.2-0.4,0.4-0.4,0.7h-0.7c0-0.6,0.2-0.9,0.6-1.3c0.4-0.4,0.7-0.6,1.3-0.6
		c0.4,0,0.6,0,0.7,0.2c0.2,0.2,0.4,0.2,0.6,0.4c0.2,0.2,0.4,0.2,0.6,0.4c0.2,0.2,0.4,0.2,0.6,0.2c0.2,0,0.6-0.2,0.7-0.4
		c0.2-0.2,0.4-0.6,0.4-0.7L475.7,631.5z"/>
	<path d="M478.1,639.8c0-0.9,0.2-1.8,0.6-2.6c0.4-0.7,0.9-1.3,1.5-1.7c0.7-0.4,1.5-0.6,2.2-0.6c1.3,0,2.4,0.4,3.1,1.3s1.3,2,1.3,3.7
		v0.2c0,0.9-0.2,1.8-0.6,2.6c-0.4,0.7-0.9,1.3-1.5,1.7c-0.6,0.4-1.5,0.6-2.2,0.6c-1.3,0-2.4-0.4-3.1-1.3s-1.3-2-1.3-3.7V639.8z
		 M479.2,640.2c0,1.1,0.4,2.2,0.9,3c0.6,0.7,1.5,1.1,2.4,1.1s1.8-0.4,2.4-1.1c0.6-0.7,0.9-1.7,0.9-3V640c0-0.7-0.2-1.5-0.4-2
		c-0.2-0.6-0.7-1.1-1.1-1.5c-0.6-0.4-1.1-0.6-1.7-0.6c-0.9,0-1.7,0.4-2.4,1.1c-0.6,0.7-0.9,1.7-0.9,3L479.2,640.2L479.2,640.2z"/>
	<path d="M498.6,639.5h-3.9v5.5h-1.1v-13.1h4.3c1.5,0,2.6,0.4,3.3,1.1c0.7,0.7,1.1,1.7,1.1,2.8c0,0.9-0.2,1.7-0.7,2.2
		c-0.6,0.6-1.1,1.1-2,1.3l3.3,5.5v0.2h-1.1L498.6,639.5z M494.9,638.5h3.3c0.9,0,1.7-0.2,2.2-0.7c0.6-0.6,0.9-1.3,0.9-2
		c0-0.9-0.4-1.7-0.9-2.2c-0.6-0.6-1.5-0.7-2.4-0.7h-3.1V638.5z"/>
	<path d="M508.9,645c-0.7,0-1.7-0.2-2.2-0.6c-0.7-0.4-1.1-0.9-1.5-1.7c-0.4-0.7-0.6-1.5-0.6-2.4v-0.4c0-0.9,0.2-1.8,0.6-2.6
		c0.4-0.7,0.9-1.3,1.5-1.8c0.7-0.4,1.3-0.6,2-0.6c1.1,0,2,0.4,2.8,1.3c0.7,0.7,1.1,1.8,1.1,3.3v0.6h-7v0.2c0,1.1,0.4,2,0.9,2.8
		c0.6,0.7,1.5,1.1,2.4,1.1c0.6,0,1.1-0.2,1.5-0.4c0.4-0.2,0.9-0.6,1.3-0.9l0.7,0.6C511.7,644.5,510.4,645,508.9,645z M508.8,636
		c-0.7,0-1.5,0.4-2,0.9c-0.6,0.6-0.9,1.5-0.9,2.4h5.9v-0.2c0-0.9-0.4-1.7-0.7-2.2C510.6,636.3,509.7,636,508.8,636z"/>
	<path d="M516,644.8h-1.1v-13.9h1.1V644.8z"/>
	<path d="M518.7,632.3c0-0.2,0-0.4,0.2-0.6s0.4-0.2,0.6-0.2s0.4,0,0.6,0.2s0.2,0.4,0.2,0.6s0,0.4-0.2,0.6c-0.2,0.2-0.4,0.2-0.6,0.2
		s-0.4,0-0.6-0.2S518.7,632.4,518.7,632.3z M520,644.8h-1.1V635h1.1V644.8z"/>
	<path d="M522.6,640c0-1.5,0.4-2.8,0.9-3.7c0.7-0.9,1.7-1.3,2.8-1.3c1.3,0,2.4,0.6,3,1.7v-1.5h0.9v9.6c0,1.3-0.4,2.2-1.1,3
		c-0.7,0.7-1.7,1.1-2.8,1.1c-0.7,0-1.3-0.2-2-0.4c-0.6-0.4-1.1-0.7-1.5-1.3l0.6-0.7c0.7,0.9,1.7,1.5,2.8,1.5c0.9,0,1.7-0.2,2-0.7
		c0.6-0.6,0.7-1.3,0.7-2.2v-1.3c-0.7,0.9-1.7,1.5-3,1.5c-1.1,0-2-0.4-2.8-1.3C522.3,643.1,522.6,641.7,522.6,640L522.6,640z
		 M523.7,640.2c0,1.3,0.2,2.2,0.7,3c0.6,0.7,1.3,1.1,2,1.1c1.3,0,2.2-0.6,2.8-1.8v-4.6c-0.2-0.6-0.6-1.1-1.1-1.5
		c-0.6-0.4-1.1-0.6-1.7-0.6c-0.9,0-1.7,0.4-2,1.1C523.9,637.6,523.7,638.7,523.7,640.2z"/>
	<path d="M533.2,632.3c0-0.2,0-0.4,0.2-0.6s0.4-0.2,0.6-0.2s0.4,0,0.6,0.2s0.2,0.4,0.2,0.6s0,0.4-0.2,0.6c-0.2,0.2-0.4,0.2-0.6,0.2
		s-0.4,0-0.6-0.2S533.2,632.4,533.2,632.3z M534.5,644.8h-1.1V635h1.1V644.8z"/>
	<path d="M536.9,639.8c0-0.9,0.2-1.8,0.6-2.6c0.4-0.7,0.9-1.3,1.5-1.7c0.7-0.4,1.5-0.6,2.2-0.6c1.3,0,2.4,0.4,3.1,1.3
		c0.7,0.9,1.3,2,1.3,3.7v0.2c0,0.9-0.2,1.8-0.6,2.6c-0.4,0.7-0.9,1.3-1.5,1.7c-0.6,0.4-1.5,0.6-2.2,0.6c-1.3,0-2.4-0.4-3.1-1.3
		c-0.7-0.9-1.3-2-1.3-3.7V639.8z M538,640.2c0,1.1,0.4,2.2,0.9,3c0.6,0.7,1.5,1.1,2.4,1.1c0.9,0,1.8-0.4,2.4-1.1
		c0.6-0.7,0.9-1.7,0.9-3V640c0-0.7-0.2-1.5-0.4-2c-0.2-0.6-0.7-1.1-1.1-1.5c-0.6-0.4-1.1-0.6-1.7-0.6c-0.9,0-1.7,0.4-2.4,1.1
		c-0.6,0.7-0.9,1.7-0.9,3v0.2H538z"/>
	<path d="M553.7,642.4c0-0.6-0.2-0.9-0.6-1.3s-1.1-0.6-2-0.7c-0.9-0.2-1.5-0.4-2-0.6c-0.6-0.2-0.9-0.6-1.1-0.9
		c-0.2-0.3-0.4-0.7-0.4-1.3c0-0.7,0.4-1.5,0.9-1.8c0.6-0.6,1.5-0.7,2.4-0.7c1.1,0,2,0.2,2.6,0.7c0.7,0.6,0.9,1.3,0.9,2h-1.1
		c0-0.6-0.2-1.1-0.7-1.5c-0.6-0.4-1.1-0.6-1.8-0.6c-0.7,0-1.3,0.2-1.7,0.6c-0.4,0.4-0.6,0.7-0.6,1.3s0.2,0.9,0.6,1.1
		c0.4,0.2,0.9,0.6,2,0.7c0.9,0.2,1.7,0.4,2.2,0.7c0.6,0.2,0.7,0.6,1.1,0.9c0.4,0.4,0.4,0.7,0.4,1.3c0,0.7-0.4,1.5-0.9,2
		c-0.7,0.6-1.5,0.7-2.6,0.7c-1.1,0-2-0.2-2.8-0.7c-0.7-0.6-1.1-1.3-1.1-2h1.1c0,0.6,0.4,1.1,0.7,1.5c0.6,0.4,1.1,0.6,2,0.6
		c0.7,0,1.3-0.2,1.8-0.6C553.5,643.4,553.7,643,553.7,642.4z"/>
	<path d="M563.3,644.8c-0.2-0.4-0.2-0.7-0.2-1.3c-0.4,0.6-0.9,0.9-1.5,1.1c-0.6,0.2-1.3,0.4-1.8,0.4c-0.9,0-1.7-0.2-2.2-0.7
		c-0.5-0.5-0.9-1.1-0.9-2s0.4-1.7,1.1-2.2c0.7-0.6,1.8-0.7,3.3-0.7h2v-1.1c0-0.7-0.2-1.3-0.6-1.7c-0.4-0.4-1.1-0.6-1.8-0.6
		c-0.7,0-1.3,0.2-1.8,0.6c-0.5,0.4-0.7,0.9-0.7,1.5H557c0-0.7,0.4-1.5,1.1-2c0.7-0.6,1.7-0.9,2.6-0.9c1.1,0,2,0.2,2.6,0.7
		c0.6,0.6,0.9,1.3,0.9,2.2v4.6c0,0.9,0.2,1.7,0.4,2v0.2L563.3,644.8L563.3,644.8z M560,644.1c0.7,0,1.3-0.2,1.8-0.6
		c0.6-0.4,0.9-0.7,1.3-1.5v-2.2h-1.8c-1.1,0-1.8,0.2-2.6,0.6c-0.6,0.4-0.9,0.9-0.9,1.7c0,0.6,0.2,0.9,0.6,1.3
		C558.7,643.9,559.2,644.1,560,644.1z"/>
</g>
<g>
	<path d="M120.4,743.5h-6.1v6.1h-1.1v-13.1h8.1v0.9h-7v5.2h6.1V743.5z"/>
	<path d="M129.4,748.4c-0.7,0.9-1.7,1.5-3.1,1.5c-1.1,0-1.8-0.4-2.4-0.9c-0.6-0.6-0.7-1.5-0.7-2.8v-6.3h1.1v6.3
		c0,1.8,0.7,2.8,2.2,2.8c1.5,0,2.6-0.6,3-1.8v-7h1.1v9.8h-1.1v-1.6H129.4z"/>
	<path d="M134.4,739.8v1.7c0.4-0.6,0.7-1.1,1.3-1.3c0.6-0.4,1.1-0.6,1.8-0.6c1.1,0,1.8,0.4,2.4,0.9c0.6,0.6,0.7,1.5,0.7,2.6v6.5
		h-1.1v-6.5c0-0.9-0.2-1.5-0.6-2c-0.4-0.4-0.9-0.6-1.7-0.6c-0.7,0-1.3,0.2-1.8,0.6c-0.6,0.4-0.9,0.9-1.1,1.7v6.7h-1.1v-9.8h1.1v0.1
		L134.4,739.8L134.4,739.8z"/>
	<path d="M143.1,744.7c0-1.5,0.4-2.8,0.9-3.7c0.7-0.9,1.7-1.3,2.8-1.3c1.3,0,2.4,0.6,3,1.5v-5.5h1.1v13.9H150v-1.3
		c-0.7,0.9-1.7,1.5-3.1,1.5c-1.1,0-2-0.4-2.8-1.3C143.5,747.6,143.1,746.3,143.1,744.7L143.1,744.7z M144.2,744.8
		c0,1.3,0.2,2.2,0.7,3c0.6,0.7,1.3,1.1,2,1.1c1.3,0,2.2-0.6,2.8-1.8v-4.7c-0.6-1.3-1.5-1.8-2.8-1.8c-0.9,0-1.7,0.4-2,1.1
		C144.4,742.4,144.2,743.5,144.2,744.8z"/>
	<path d="M159.9,749.6c-0.2-0.4-0.2-0.7-0.2-1.3c-0.4,0.6-0.9,0.9-1.5,1.1c-0.6,0.2-1.3,0.4-1.8,0.4c-0.9,0-1.7-0.2-2.2-0.7
		c-0.6-0.6-0.9-1.1-0.9-2c0-0.9,0.4-1.7,1.1-2.2c0.7-0.6,1.8-0.7,3.3-0.7h2v-1.1c0-0.7-0.2-1.3-0.6-1.7c-0.4-0.4-1.1-0.6-1.8-0.6
		c-0.7,0-1.3,0.2-1.8,0.6c-0.6,0.4-0.7,0.9-0.7,1.5h-1.1c0-0.7,0.4-1.5,1.1-2c0.7-0.6,1.7-0.9,2.6-0.9c1.1,0,2,0.2,2.6,0.7
		c0.6,0.6,0.9,1.3,0.9,2.2v4.6c0,0.9,0.2,1.7,0.4,2v0.2L159.9,749.6L159.9,749.6L159.9,749.6z M156.6,748.9c0.7,0,1.3-0.2,1.8-0.6
		c0.6-0.4,0.9-0.7,1.3-1.5v-2.2h-1.8c-1.1,0-1.8,0.2-2.6,0.6c-0.6,0.4-0.9,0.9-0.9,1.7c0,0.6,0.2,0.9,0.6,1.3
		C155.3,748.7,155.8,748.9,156.6,748.9z"/>
	<path d="M167.3,748.9c0.7,0,1.3-0.2,1.8-0.6c0.6-0.4,0.7-0.9,0.7-1.7h1.1c0,0.6-0.2,1.1-0.6,1.7c-0.4,0.6-0.7,0.9-1.3,1.1
		c-0.6,0.2-1.1,0.4-1.8,0.4c-1.3,0-2.2-0.4-3-1.3c-0.8-0.9-1.1-2-1.1-3.5v-0.4c0-0.9,0.2-1.8,0.6-2.6c0.4-0.7,0.7-1.3,1.5-1.7
		c0.6-0.4,1.3-0.6,2.2-0.6c1.1,0,2,0.4,2.6,0.9c0.7,0.6,1.1,1.5,1.1,2.6H170c0-0.7-0.4-1.3-0.7-1.8c-0.6-0.6-1.1-0.7-1.8-0.7
		c-0.9,0-1.7,0.4-2.2,1.1c-0.6,0.7-0.7,1.7-0.7,3v0.4c0,1.3,0.2,2.2,0.7,3C165.5,748.5,166.2,748.9,167.3,748.9z M167.5,749.8
		l-0.2,0.6c0.9,0.2,1.5,0.6,1.5,1.5c0,0.6-0.2,0.9-0.7,1.3c-0.6,0.4-1.1,0.6-1.8,0.6v-0.7c0.6,0,0.9-0.2,1.3-0.4
		c0.4-0.2,0.6-0.4,0.6-0.7c0-0.4-0.2-0.6-0.4-0.7c-0.2-0.1-0.7-0.2-1.1-0.2l0.2-1.1L167.5,749.8L167.5,749.8z"/>
	<path d="M179.3,749.6c-0.2-0.4-0.2-0.7-0.2-1.3c-0.4,0.6-0.9,0.9-1.5,1.1c-0.6,0.2-1.3,0.4-1.8,0.4c-0.9,0-1.7-0.2-2.2-0.7
		c-0.6-0.6-0.9-1.1-0.9-2c0-0.9,0.4-1.7,1.1-2.2c0.7-0.6,1.8-0.7,3.3-0.7h2v-1.1c0-0.7-0.2-1.3-0.6-1.7c-0.4-0.4-1.1-0.6-1.8-0.6
		c-0.7,0-1.3,0.2-1.8,0.6s-0.7,0.9-0.7,1.5H173c0-0.7,0.4-1.5,1.1-2c0.7-0.6,1.7-0.9,2.6-0.9c1.1,0,2,0.2,2.6,0.7
		c0.6,0.6,0.9,1.3,0.9,2.2v4.6c0,0.9,0.2,1.7,0.4,2v0.2L179.3,749.6L179.3,749.6z M176,748.9c0.7,0,1.3-0.2,1.8-0.6
		c0.6-0.4,0.9-0.7,1.3-1.5v-2.2h-1.8c-1.1,0-1.8,0.2-2.6,0.6c-0.6,0.4-0.9,0.9-0.9,1.7c0,0.6,0.2,0.9,0.6,1.3
		C174.7,748.7,175.3,748.9,176,748.9z M180.1,736.2c0,0.6-0.2,1.1-0.6,1.5c-0.4,0.4-0.7,0.6-1.3,0.6c-0.4,0-0.9-0.2-1.3-0.6
		c-0.4-0.4-0.7-0.6-1.1-0.6s-0.6,0.2-0.7,0.4c-0.2,0.2-0.4,0.4-0.4,0.7H174c0-0.6,0.2-0.9,0.6-1.3c0.4-0.4,0.7-0.6,1.3-0.6
		c0.4,0,0.6,0,0.7,0.2c0.2,0.2,0.4,0.2,0.6,0.4c0.2,0.2,0.4,0.2,0.6,0.4c0.2,0.2,0.4,0.2,0.6,0.2s0.6-0.2,0.7-0.4
		c0.2-0.2,0.4-0.6,0.4-0.7L180.1,736.2z"/>
	<path d="M182.5,744.7c0-0.9,0.2-1.8,0.6-2.6c0.4-0.8,0.9-1.3,1.5-1.7c0.7-0.4,1.5-0.6,2.2-0.6c1.3,0,2.4,0.4,3.1,1.3
		c0.7,0.9,1.3,2,1.3,3.7v0.2c0,0.9-0.2,1.8-0.6,2.6c-0.4,0.7-0.9,1.3-1.5,1.7c-0.6,0.4-1.5,0.6-2.2,0.6c-1.3,0-2.4-0.4-3.1-1.3
		c-0.7-0.9-1.3-2-1.3-3.7V744.7z M183.6,745c0,1.1,0.4,2.2,0.9,3c0.5,0.8,1.5,1.1,2.4,1.1s1.8-0.4,2.4-1.1c0.6-0.7,0.9-1.7,0.9-3
		v-0.2c0-0.7-0.2-1.5-0.4-2c-0.2-0.6-0.7-1.1-1.1-1.5c-0.6-0.4-1.1-0.6-1.7-0.6c-0.9,0-1.7,0.4-2.4,1.1c-0.6,0.7-0.9,1.7-0.9,3
		L183.6,745L183.6,745z"/>
	<path d="M199.3,744.3v5.4h-1.1v-13.1h4.4c1.3,0,2.4,0.4,3.3,1.1c0.7,0.7,1.1,1.7,1.1,3s-0.4,2.2-1.1,2.8c-0.7,0.7-1.8,0.9-3.3,0.9
		L199.3,744.3L199.3,744.3z M199.3,743.4h3.3c1.1,0,1.8-0.2,2.4-0.7c0.6-0.6,0.9-1.3,0.9-2.2c0-0.9-0.4-1.7-0.9-2.2
		c-0.6-0.6-1.3-0.7-2.4-0.7h-3.5v5.9L199.3,743.4L199.3,743.4z"/>
	<path d="M213.9,740.8c-0.2,0-0.6,0-0.7,0c-0.7,0-1.3,0.2-1.7,0.6c-0.6,0.4-0.7,0.9-0.9,1.7v6.7h-1.1V740h1.1v1.5
		c0.6-1.1,1.5-1.7,2.8-1.7c0.4,0,0.6,0,0.7,0.2L213.9,740.8z"/>
	<path d="M215.4,737.1c0-0.2,0-0.4,0.2-0.6c0.2-0.2,0.4-0.2,0.6-0.2s0.4,0,0.6,0.2c0.2,0.2,0.2,0.4,0.2,0.6s0,0.4-0.2,0.6
		s-0.4,0.2-0.6,0.2c-0.2,0-0.4,0-0.6-0.2C215.4,737.4,215.4,737.3,215.4,737.1z M216.7,749.6h-1.1v-9.8h1.1V749.6z"/>
	<path d="M222.8,748.2l3-8.3h1.1l-3.7,9.8h-0.9l-3.7-9.8h1.1L222.8,748.2z"/>
	<path d="M234.6,749.6c-0.2-0.4-0.2-0.7-0.2-1.3c-0.4,0.6-0.9,0.9-1.5,1.1c-0.6,0.2-1.3,0.4-1.8,0.4c-0.9,0-1.7-0.2-2.2-0.7
		c-0.6-0.6-0.9-1.1-0.9-2c0-0.9,0.4-1.7,1.1-2.2c0.7-0.6,1.8-0.7,3.3-0.7h2v-1.1c0-0.7-0.2-1.3-0.6-1.7c-0.4-0.4-1.1-0.6-1.8-0.6
		c-0.7,0-1.3,0.2-1.8,0.6s-0.7,0.9-0.7,1.5h-1.1c0-0.7,0.4-1.5,1.1-2c0.7-0.6,1.7-0.9,2.6-0.9c1.1,0,2,0.2,2.6,0.7
		c0.6,0.6,0.9,1.3,0.9,2.2v4.6c0,0.9,0.2,1.7,0.4,2v0.2L234.6,749.6L234.6,749.6L234.6,749.6z M231.3,748.9c0.7,0,1.3-0.2,1.8-0.6
		c0.6-0.4,0.9-0.7,1.3-1.5v-2.2h-1.8c-1.1,0-1.8,0.2-2.6,0.6c-0.6,0.4-0.9,0.9-0.9,1.7c0,0.6,0.2,0.9,0.6,1.3
		C230,748.7,230.5,748.9,231.3,748.9z"/>
	<path d="M237.9,744.7c0-1.5,0.4-2.8,0.9-3.7c0.7-0.9,1.7-1.3,2.8-1.3c1.3,0,2.4,0.6,3,1.5v-5.5h1.1v13.9h-0.9v-1.3
		c-0.7,0.9-1.7,1.5-3.1,1.5c-1.1,0-2-0.4-2.8-1.3C238.3,747.6,237.9,746.3,237.9,744.7L237.9,744.7z M239,744.8c0,1.3,0.2,2.2,0.7,3
		c0.6,0.7,1.3,1.1,2,1.1c1.3,0,2.2-0.6,2.8-1.8v-4.7c-0.6-1.3-1.5-1.8-2.8-1.8c-0.9,0-1.7,0.4-2,1.1
		C239.2,742.4,239,743.5,239,744.8z"/>
	<path d="M254.8,749.6c-0.2-0.4-0.2-0.7-0.2-1.3c-0.4,0.6-0.9,0.9-1.5,1.1c-0.6,0.2-1.3,0.4-1.8,0.4c-0.9,0-1.7-0.2-2.2-0.7
		c-0.6-0.6-0.9-1.1-0.9-2c0-0.9,0.4-1.7,1.1-2.2c0.7-0.6,1.8-0.7,3.3-0.7h2v-1.1c0-0.7-0.2-1.3-0.6-1.7c-0.4-0.4-1.1-0.6-1.8-0.6
		c-0.7,0-1.3,0.2-1.8,0.6s-0.7,0.9-0.7,1.5h-1.1c0-0.7,0.4-1.5,1.1-2c0.7-0.6,1.7-0.9,2.6-0.9c1.1,0,2,0.2,2.6,0.7
		c0.6,0.6,0.9,1.3,0.9,2.2v4.6c0,0.9,0.2,1.7,0.4,2v0.2L254.8,749.6L254.8,749.6L254.8,749.6z M251.4,748.9c0.7,0,1.3-0.2,1.8-0.6
		c0.6-0.4,0.9-0.7,1.3-1.5v-2.2h-1.8c-1.1,0-1.8,0.2-2.6,0.6c-0.6,0.4-0.9,0.9-0.9,1.7c0,0.6,0.2,0.9,0.6,1.3
		C250.1,748.7,250.7,748.9,251.4,748.9z"/>
</g>
<g>
	<path d="M120.4,641.3h-5.9l-1.3,3.7H112l5-13.1h1.1l5,13.1H122L120.4,641.3z M114.6,640.2h5.4l-2.6-7.2L114.6,640.2z"/>
	<path d="M130.3,642.4c0-0.6-0.2-0.9-0.6-1.3c-0.4-0.4-1.1-0.6-2-0.7c-0.9-0.2-1.5-0.4-2-0.6c-0.6-0.2-0.9-0.6-1.1-0.9
		s-0.4-0.7-0.4-1.3c0-0.7,0.4-1.5,0.9-1.8c0.6-0.6,1.5-0.7,2.4-0.7c1.1,0,2,0.2,2.6,0.7c0.7,0.6,0.9,1.3,0.9,2h-1
		c0-0.6-0.2-1.1-0.7-1.5c-0.6-0.4-1.1-0.6-1.8-0.6c-0.7,0-1.3,0.2-1.7,0.6c-0.4,0.4-0.6,0.7-0.6,1.3s0.2,0.9,0.6,1.1
		c0.4,0.2,0.9,0.6,2,0.7c0.9,0.2,1.7,0.4,2.2,0.7c0.6,0.4,0.7,0.6,1.1,0.9c0.2,0.4,0.4,0.7,0.4,1.3c0,0.7-0.4,1.5-0.9,2
		s-1.5,0.7-2.6,0.7c-1.1,0-2-0.2-2.8-0.7c-0.8-0.5-1.1-1.3-1.1-2h1.1c0,0.6,0.4,1.1,0.7,1.5c0.6,0.4,1.1,0.6,2,0.6
		c0.7,0,1.3-0.2,1.8-0.6C130.2,643.3,130.3,643,130.3,642.4z"/>
	<path d="M139.8,642.4c0-0.6-0.2-0.9-0.6-1.3c-0.4-0.4-1.1-0.6-2-0.7c-0.9-0.1-1.5-0.4-2-0.6c-0.6-0.2-0.9-0.6-1.1-0.9
		c-0.2-0.4-0.4-0.7-0.4-1.3c0-0.7,0.4-1.5,0.9-1.8c0.6-0.6,1.5-0.7,2.4-0.7c1.1,0,2,0.2,2.6,0.7c0.7,0.6,0.9,1.3,0.9,2h-1.1
		c0-0.6-0.2-1.1-0.7-1.5c-0.6-0.4-1.1-0.6-1.8-0.6c-0.7,0-1.3,0.2-1.7,0.6c-0.4,0.4-0.6,0.7-0.6,1.3s0.2,0.9,0.6,1.1
		c0.4,0.2,0.9,0.6,2,0.7c0.9,0.2,1.7,0.4,2.2,0.7c0.6,0.2,0.7,0.6,1.1,0.9c0.4,0.4,0.4,0.7,0.4,1.3c0,0.7-0.4,1.5-0.9,2
		c-0.7,0.6-1.5,0.7-2.6,0.7c-1.1,0-2-0.2-2.8-0.7c-0.8-0.5-1.1-1.3-1.1-2h1.1c0,0.6,0.4,1.1,0.7,1.5c0.6,0.4,1.1,0.6,2,0.6
		c0.7,0,1.3-0.2,1.8-0.6C139.6,643.4,139.8,643,139.8,642.4z"/>
	<path d="M142.5,639.8c0-0.9,0.2-1.8,0.6-2.6c0.4-0.7,0.9-1.3,1.5-1.7c0.7-0.4,1.5-0.6,2.2-0.6c1.3,0,2.4,0.4,3.1,1.3
		c0.7,0.9,1.3,2,1.3,3.7v0.2c0,0.9-0.2,1.8-0.6,2.6c-0.4,0.7-0.9,1.3-1.5,1.7c-0.6,0.4-1.5,0.6-2.2,0.6c-1.3,0-2.4-0.4-3.1-1.3
		c-0.7-0.9-1.3-2-1.3-3.7V639.8z M143.6,640.2c0,1.1,0.4,2.2,0.9,3c0.6,0.7,1.5,1.1,2.4,1.1c0.9,0,1.8-0.4,2.4-1.1
		c0.6-0.7,0.9-1.7,0.9-3V640c0-0.7-0.2-1.5-0.4-2c-0.2-0.6-0.7-1.1-1.1-1.5c-0.6-0.4-1.1-0.6-1.7-0.6c-0.9,0-1.7,0.4-2.4,1.1
		c-0.6,0.7-0.9,1.7-0.9,3L143.6,640.2L143.6,640.2z"/>
	<path d="M157.1,644.3c0.7,0,1.3-0.2,1.8-0.6c0.6-0.4,0.7-0.9,0.7-1.7h1.1c0,0.6-0.2,1.1-0.6,1.7c-0.4,0.6-0.7,0.9-1.3,1.1
		c-0.6,0.2-1.1,0.4-1.8,0.4c-1.3,0-2.2-0.4-3-1.3c-0.7-0.9-1.1-2-1.1-3.5V640c0-0.9,0.2-1.8,0.6-2.6c0.4-0.7,0.7-1.3,1.5-1.7
		c0.6-0.4,1.3-0.6,2.2-0.6c1.1,0,2,0.4,2.6,0.9c0.7,0.6,1.1,1.5,1.1,2.6h-1.1c0-0.7-0.4-1.3-0.7-1.8c-0.6-0.6-1.1-0.7-1.8-0.7
		c-0.9,0-1.7,0.4-2.2,1.1c-0.6,0.7-0.7,1.7-0.7,3v0.4c0,1.3,0.2,2.2,0.7,3C155.5,643.9,156.2,644.3,157.1,644.3z"/>
	<path d="M163.1,632.3c0-0.2,0-0.4,0.2-0.6c0.2-0.2,0.4-0.2,0.6-0.2s0.4,0,0.6,0.2c0.2,0.2,0.2,0.4,0.2,0.6s0,0.4-0.2,0.6
		c-0.2,0.2-0.4,0.2-0.6,0.2c-0.2,0-0.4,0-0.6-0.2C163.1,632.6,163.1,632.4,163.1,632.3z M164.4,644.8h-1.1V635h1.1V644.8z"/>
	<path d="M173.4,644.8c-0.2-0.4-0.2-0.7-0.2-1.3c-0.4,0.6-0.9,0.9-1.5,1.1s-1.3,0.4-1.8,0.4c-0.9,0-1.7-0.2-2.2-0.7
		c-0.6-0.6-0.9-1.1-0.9-2s0.4-1.7,1.1-2.2c0.7-0.6,1.8-0.7,3.3-0.7h2v-1.1c0-0.7-0.2-1.3-0.6-1.7c-0.4-0.4-1.1-0.6-1.8-0.6
		c-0.7,0-1.3,0.2-1.8,0.6c-0.5,0.4-0.7,0.9-0.7,1.5h-1.1c0-0.7,0.4-1.5,1.1-2c0.7-0.6,1.7-0.9,2.6-0.9c1.1,0,2,0.2,2.6,0.7
		s0.9,1.3,0.9,2.2v4.6c0,0.9,0.2,1.7,0.4,2v0.2L173.4,644.8L173.4,644.8z M170.1,644.1c0.7,0,1.3-0.2,1.8-0.6
		c0.6-0.4,0.9-0.7,1.3-1.5v-2.2h-1.8c-1.1,0-1.8,0.2-2.6,0.6c-0.6,0.4-0.9,0.9-0.9,1.7c0,0.6,0.2,0.9,0.6,1.3
		C168.8,643.9,169.3,644.1,170.1,644.1z"/>
	<path d="M180.8,644.3c0.7,0,1.3-0.2,1.8-0.6c0.6-0.4,0.7-0.9,0.7-1.7h1.1c0,0.6-0.2,1.1-0.6,1.7c-0.4,0.6-0.7,0.9-1.3,1.1
		c-0.6,0.2-1.1,0.4-1.8,0.4c-1.3,0-2.2-0.4-3-1.3c-0.7-0.9-1.1-2-1.1-3.5V640c0-0.9,0.2-1.8,0.6-2.6c0.4-0.7,0.7-1.3,1.5-1.7
		c0.6-0.4,1.3-0.6,2.2-0.6c1.1,0,2,0.4,2.6,0.9c0.7,0.6,1.1,1.5,1.1,2.6h-1.1c0-0.7-0.4-1.3-0.7-1.8c-0.6-0.6-1.1-0.7-1.8-0.7
		c-0.9,0-1.7,0.4-2.2,1.1c-0.6,0.7-0.7,1.7-0.7,3v0.4c0,1.3,0.2,2.2,0.7,3C179,643.9,179.7,644.3,180.8,644.3z M181,645l-0.2,0.6
		c0.9,0.2,1.5,0.6,1.5,1.5c0,0.6-0.2,0.9-0.7,1.3c-0.6,0.4-1.1,0.6-1.8,0.6v-0.7c0.6,0,0.9-0.2,1.3-0.4c0.4-0.2,0.6-0.4,0.6-0.7
		c0-0.4-0.2-0.6-0.4-0.7c-0.2-0.2-0.7-0.2-1.1-0.2l0.2-1.1L181,645L181,645z"/>
	<path d="M192.8,644.8c-0.2-0.4-0.2-0.7-0.2-1.3c-0.4,0.6-0.9,0.9-1.5,1.1c-0.6,0.2-1.3,0.4-1.8,0.4c-0.9,0-1.7-0.2-2.2-0.7
		c-0.6-0.6-0.9-1.1-0.9-2s0.4-1.7,1.1-2.2c0.7-0.6,1.8-0.7,3.3-0.7h2v-1.1c0-0.7-0.2-1.3-0.6-1.7c-0.4-0.4-1.1-0.6-1.8-0.6
		c-0.7,0-1.3,0.2-1.8,0.6c-0.6,0.4-0.7,0.9-0.7,1.5h-1.1c0-0.7,0.4-1.5,1.1-2c0.7-0.6,1.7-0.9,2.6-0.9c1.1,0,2,0.2,2.6,0.7
		c0.6,0.5,0.9,1.3,0.9,2.2v4.6c0,0.9,0.2,1.7,0.4,2v0.2L192.8,644.8L192.8,644.8z M189.5,644.1c0.7,0,1.3-0.2,1.8-0.6
		c0.6-0.4,0.9-0.7,1.3-1.5v-2.2h-1.8c-1.1,0-1.8,0.2-2.6,0.6c-0.6,0.4-0.9,0.9-0.9,1.7c0,0.6,0.2,0.9,0.6,1.3
		C188.2,643.9,188.8,644.1,189.5,644.1z M193.6,631.5c0,0.6-0.2,1.1-0.6,1.5c-0.4,0.4-0.7,0.6-1.3,0.6c-0.4,0-0.9-0.2-1.3-0.6
		c-0.4-0.4-0.7-0.6-1.1-0.6c-0.4,0-0.6,0.2-0.7,0.4c-0.2,0.2-0.4,0.4-0.4,0.7h-0.7c0-0.6,0.2-0.9,0.6-1.3c0.4-0.4,0.7-0.6,1.3-0.6
		c0.4,0,0.6,0,0.7,0.2c0.2,0.2,0.4,0.2,0.6,0.4c0.2,0.2,0.4,0.2,0.6,0.4c0.2,0.2,0.4,0.2,0.6,0.2c0.2,0,0.6-0.2,0.7-0.4
		c0.2-0.2,0.4-0.6,0.4-0.7L193.6,631.5z"/>
	<path d="M196,639.8c0-0.9,0.2-1.8,0.6-2.6c0.4-0.7,0.9-1.3,1.5-1.7c0.7-0.4,1.5-0.6,2.2-0.6c1.3,0,2.4,0.4,3.1,1.3
		c0.7,0.9,1.3,2,1.3,3.7v0.2c0,0.9-0.2,1.8-0.6,2.6c-0.4,0.7-0.9,1.3-1.5,1.7c-0.6,0.4-1.5,0.6-2.2,0.6c-1.3,0-2.4-0.4-3.1-1.3
		s-1.3-2-1.3-3.7V639.8z M197.1,640.2c0,1.1,0.4,2.2,0.9,3c0.6,0.7,1.5,1.1,2.4,1.1s1.8-0.4,2.4-1.1c0.6-0.7,0.9-1.7,0.9-3V640
		c0-0.7-0.2-1.5-0.4-2c-0.2-0.6-0.7-1.1-1.1-1.5c-0.6-0.4-1.1-0.6-1.7-0.6c-0.9,0-1.7,0.4-2.4,1.1c-0.6,0.7-0.9,1.7-0.9,3
		L197.1,640.2L197.1,640.2z"/>
	<path d="M212.8,639.7v5.4h-1.1V632h4.4c1.3,0,2.4,0.4,3.3,1.1c0.7,0.7,1.1,1.7,1.1,3s-0.4,2.2-1.1,2.8c-0.7,0.7-1.8,0.9-3.3,0.9
		L212.8,639.7L212.8,639.7L212.8,639.7z M212.8,638.5h3.3c1.1,0,1.8-0.2,2.4-0.7c0.6-0.6,0.9-1.3,0.9-2.2c0-0.9-0.4-1.7-0.9-2.2
		c-0.6-0.6-1.3-0.7-2.4-0.7h-3.5v5.9L212.8,638.5L212.8,638.5z"/>
	<path d="M227.4,636.1c-0.2,0-0.6,0-0.7,0c-0.7,0-1.3,0.2-1.7,0.6c-0.6,0.4-0.7,0.9-0.9,1.7v6.7H223v-9.8h1.1v1.5
		c0.6-1.1,1.5-1.7,2.8-1.7c0.4,0,0.6,0,0.7,0.2L227.4,636.1z"/>
	<path d="M228.9,632.3c0-0.2,0-0.4,0.2-0.6s0.4-0.2,0.6-0.2c0.2,0,0.4,0,0.6,0.2s0.2,0.4,0.2,0.6s0,0.4-0.2,0.6
		c-0.2,0.2-0.4,0.2-0.6,0.2s-0.4,0-0.6-0.2C228.9,632.6,228.9,632.4,228.9,632.3z M230.2,644.8h-1.1V635h1.1V644.8z"/>
	<path d="M236.3,643.3l3-8.3h1.1l-3.7,9.8h-0.9l-3.7-9.8h1.1L236.3,643.3z"/>
	<path d="M248.1,644.8c-0.2-0.4-0.2-0.7-0.2-1.3c-0.4,0.6-0.9,0.9-1.5,1.1s-1.3,0.4-1.8,0.4c-0.9,0-1.7-0.2-2.2-0.7
		c-0.6-0.6-0.9-1.1-0.9-2s0.4-1.7,1.1-2.2c0.7-0.6,1.8-0.7,3.3-0.7h2v-1.1c0-0.7-0.2-1.3-0.6-1.7c-0.4-0.4-1.1-0.6-1.8-0.6
		c-0.7,0-1.3,0.2-1.8,0.6c-0.5,0.4-0.7,0.9-0.7,1.5h-1.1c0-0.7,0.4-1.5,1.1-2c0.7-0.6,1.7-0.9,2.6-0.9c1.1,0,2,0.2,2.6,0.7
		c0.6,0.6,0.9,1.3,0.9,2.2v4.6c0,0.9,0.2,1.7,0.4,2v0.2L248.1,644.8L248.1,644.8z M244.8,644.1c0.7,0,1.3-0.2,1.8-0.6
		c0.6-0.4,0.9-0.7,1.3-1.5v-2.2h-1.8c-1.1,0-1.8,0.2-2.6,0.6c-0.6,0.4-0.9,0.9-0.9,1.7c0,0.6,0.2,0.9,0.6,1.3
		C243.5,643.9,244,644.1,244.8,644.1z"/>
	<path d="M251.4,640c0-1.5,0.4-2.8,0.9-3.7c0.7-0.9,1.7-1.3,2.8-1.3c1.3,0,2.4,0.6,3,1.5V631h1.1v13.9h-0.9v-1.3
		c-0.7,0.9-1.7,1.5-3.1,1.5c-1.1,0-2-0.4-2.8-1.3C251.8,642.8,251.4,641.7,251.4,640L251.4,640z M252.5,640.2c0,1.3,0.2,2.2,0.7,3
		c0.6,0.7,1.3,1.1,2,1.1c1.3,0,2.2-0.6,2.8-1.8v-4.6c-0.6-1.3-1.5-1.8-2.8-1.8c-0.9,0-1.7,0.4-2,1.1
		C252.7,637.6,252.5,638.7,252.5,640.2z"/>
	<path d="M268.2,644.8c-0.2-0.2-0.2-0.7-0.2-1.3c-0.4,0.6-0.9,0.9-1.5,1.1c-0.6,0.2-1.3,0.4-1.8,0.4c-0.9,0-1.7-0.2-2.2-0.7
		c-0.6-0.6-0.9-1.1-0.9-2s0.4-1.7,1.1-2.2c0.7-0.6,1.8-0.7,3.3-0.7h2v-1.1c0-0.7-0.2-1.3-0.6-1.7c-0.4-0.4-1.1-0.6-1.8-0.6
		c-0.7,0-1.3,0.2-1.8,0.6c-0.6,0.4-0.7,0.9-0.7,1.5H262c0-0.7,0.4-1.5,1.1-2c0.7-0.6,1.7-0.9,2.6-0.9c1.1,0,2,0.2,2.6,0.7
		c0.6,0.6,0.9,1.3,0.9,2.2v4.6c0,0.9,0.2,1.7,0.4,2v0.2L268.2,644.8L268.2,644.8z M264.9,644.1c0.7,0,1.3-0.2,1.8-0.6
		c0.6-0.4,0.9-0.7,1.3-1.5v-2.2h-1.8c-1.1,0-1.8,0.2-2.6,0.6c-0.6,0.4-0.9,0.9-0.9,1.7c0,0.6,0.2,0.9,0.6,1.3
		C263.6,643.9,264.2,644.1,264.9,644.1z"/>
</g>
<text transform="matrix(1 0 0 1 442.3203 745.9339)" font-family="'MyriadPro-Regular'" font-size="11.9996">*</text>
<g>
	<g>
		<path d="M229.9,768.1l-1.4,2l0,0l2.4-0.4v1.1l-2.5-0.2l0,0l1.6,1.9l-1,0.6l-1-2.2l0,0l-0.9,2.2l-1-0.6l1.4-1.9l0,0l-2.4,0.4v-1.1
			l2.4,0.4l0,0l-1.4-1.9l1-0.5l1,2.2l0,0l1-2.2L229.9,768.1z"/>
		<path d="M233.7,767.8v10.5h-1.4v-10.5H233.7z"/>
		<path d="M236.2,772.8c0-0.7,0-1.4,0-2h1.2v1.2l0,0c0.4-0.7,1.2-1.4,2.5-1.4c1.1,0,2.6,0.6,2.6,3.2v4.5h-1.4V774
			c0-1.2-0.5-2.2-1.7-2.2c-1,0-1.6,0.6-1.9,1.4c0,0.1-0.1,0.5-0.1,0.6v4.5h-1.4v-5.6h0.1V772.8z"/>
		<path d="M250.3,777.9c-0.4,0.1-1.1,0.5-2.2,0.5c-2.4,0-3.7-1.6-3.7-3.9c0-2.2,1.6-4.1,4.1-4.1c0.7,0,1.6,0.1,1.9,0.5l-0.4,1.1
			c-0.4-0.1-0.7-0.4-1.6-0.4c-1.7,0-2.6,1.2-2.6,2.9c0,1.7,1.1,2.9,2.6,2.9c0.7,0,1.2-0.1,1.7-0.4L250.3,777.9z"/>
		<path d="M251.8,767.2h1.4v11.1h-1.4V767.2z"/>
		<path d="M261.7,776.2c0,0.7,0,1.4,0,2h-1.2v-1.2l0,0c-0.4,0.6-1.1,1.4-2.5,1.4c-1.2,0-2.6-0.6-2.6-3.2v-4.4h1.4v4.2
			c0,1.4,0.5,2.4,1.7,2.4c1,0,1.6-0.6,1.9-1.2c0-0.1,0.1-0.5,0.1-0.7v-4.7h1.4v5.6H261.7z"/>
		<path d="M265.5,768.6c0,0.5-0.4,0.7-1,0.7c-0.5,0-0.7-0.4-0.7-0.7c0-0.5,0.4-0.7,0.7-0.7C265.2,767.6,265.5,768.1,265.5,768.6z
			 M264.1,778.1v-7.5h1.4v7.5H264.1z"/>
		<path d="M267.3,771.9c0-0.6,0.5-1,1-1c0.5,0,1,0.5,1,1c0,0.6-0.4,1-1,1C267.7,772.9,267.3,772.4,267.3,771.9z M267.3,777.4
			c0-0.6,0.5-1,1-1c0.5,0,1,0.5,1,1c0,0.5-0.4,1-1,1C267.7,778.4,267.3,777.9,267.3,777.4z"/>
	</g>
	<path d="M275.2,767.8h5.6v1.1h-4.4v3.5h3.9v1.1h-3.9v4.7H275v-10.3h0.1V767.8z"/>
	<path d="M288.6,776.2c0,0.7,0,1.4,0,2h-1.2v-1.2l0,0c-0.4,0.6-1.1,1.4-2.5,1.4c-1.2,0-2.6-0.6-2.6-3.2v-4.4h1.4v4.2
		c0,1.4,0.5,2.4,1.7,2.4c1,0,1.6-0.6,1.9-1.2c0-0.1,0.1-0.5,0.1-0.7v-4.7h1.2V776.2z"/>
	<path d="M290.7,772.8c0-0.7,0-1.4,0-2h1.2v1.2l0,0c0.4-0.7,1.2-1.4,2.5-1.4c1.1,0,2.6,0.6,2.6,3.2v4.5h-1.4V774
		c0-1.2-0.5-2.2-1.7-2.2c-1,0-1.6,0.6-1.9,1.4c0,0.1-0.1,0.5-0.1,0.6v4.5h-1.4v-5.6h0.1V772.8z"/>
	<path d="M306,767.2v9.1c0,0.6,0,1.4,0,1.9h-1.2v-1.2l0,0c-0.5,0.7-1.4,1.6-2.5,1.6c-1.9,0-3.2-1.6-3.2-3.9c0-2.5,1.6-4.1,3.5-4.1
		c1.1,0,1.9,0.5,2.4,1.1l0,0v-4.5h1.2v0H306z M304.7,773.7c0-0.1,0-0.5,0-0.6c-0.1-1-1-1.6-2-1.6c-1.4,0-2.2,1.2-2.2,3
		c0,1.6,0.7,2.9,2.2,2.9c1,0,1.7-0.6,2-1.6c0-0.1,0-0.4,0-0.6V773.7z"/>
	<path d="M312.4,778.1l-0.1-1l0,0c-0.5,0.6-1.2,1.1-2.4,1.1c-1.6,0-2.4-1.1-2.4-2.2c0-1.9,1.6-2.9,4.5-2.9V773
		c0-0.6-0.1-1.7-1.7-1.7c-0.6,0-1.4,0.1-2,0.6l-0.4-1c0.6-0.5,1.6-0.6,2.5-0.6c2.4,0,2.9,1.6,2.9,3.1v2.9c0,0.6,0,1.2,0.1,1.9h-1.1
		v0H312.4z M312.3,774.3c-1.6,0-3.1,0.4-3.1,1.7c0,1,0.6,1.2,1.2,1.2c1,0,1.6-0.6,1.9-1.2c0-0.1,0.1-0.4,0.1-0.5v-1.2H312.3z"/>
	<path d="M321.1,777.9c-0.4,0.1-1.1,0.5-1.9,0.5l-0.5,0.6c0.6,0,1.1,0.5,1.1,1.1c0,1-0.7,1.2-1.6,1.2c-0.5,0-0.7-0.1-1.1-0.4
		l0.1-0.6c0.4,0.1,0.6,0.1,0.7,0.1c0.4,0,0.6-0.1,0.6-0.5c0-0.5-0.5-0.6-1.2-0.6l0.6-1.1c-1.9-0.4-3.1-1.7-3.1-3.7
		c0-2.4,1.6-4.1,4.1-4.1c0.7,0,1.6,0.1,1.9,0.5l-0.4,1.1c-0.4-0.1-0.7-0.4-1.6-0.4c-1.7,0-2.6,1.2-2.6,2.9c0,1.7,1.1,2.9,2.6,2.9
		c0.7,0,1.2-0.1,1.7-0.4L321.1,777.9z"/>
	<path d="M327,778.1l-0.1-1l0,0c-0.5,0.6-1.2,1.1-2.4,1.1c-1.6,0-2.4-1.1-2.4-2.2c0-1.9,1.6-2.9,4.5-2.9V773c0-0.6-0.1-1.7-1.7-1.7
		c-0.6,0-1.4,0.1-2,0.6l-0.4-1c0.6-0.5,1.6-0.6,2.5-0.6c2.4,0,2.9,1.6,2.9,3.1v2.9c0,0.6,0,1.2,0.1,1.9h-1.1v0H327z M323.4,769.3
		c0-1,0.5-1.6,1.1-1.6c0.4,0,0.6,0.1,1,0.4c0.4,0.1,0.5,0.4,0.6,0.4c0.4,0,0.4-0.1,0.5-0.6h0.7c0,1.1-0.4,1.6-1.1,1.6
		c-0.4,0-0.6-0.1-1-0.4c-0.4-0.1-0.5-0.4-0.6-0.4c-0.4,0-0.4,0.4-0.5,0.6H323.4z M326.7,774.3c-1.6,0-3.1,0.4-3.1,1.7
		c0,1,0.6,1.2,1.2,1.2c1,0,1.6-0.6,1.9-1.2c0-0.1,0.1-0.4,0.1-0.5v-1.2H326.7z"/>
	<path d="M337,774.3c0,2.9-1.9,4.1-3.7,4.1c-2,0-3.6-1.6-3.6-3.9c0-2.5,1.7-4.1,3.7-4.1C335.7,770.4,337,772.2,337,774.3z
		 M331.1,774.4c0,1.7,1,3,2.4,3c1.2,0,2.4-1.2,2.4-3c0-1.2-0.6-3-2.2-3C331.7,771.5,331.1,773,331.1,774.4z"/>
	<path d="M348.9,774.3c0,2.9-1.9,4.1-3.7,4.1c-2,0-3.6-1.6-3.6-3.9c0-2.5,1.7-4.1,3.7-4.1C347.5,770.4,348.9,772.2,348.9,774.3z
		 M343,774.4c0,1.7,1,3,2.4,3c1.2,0,2.4-1.2,2.4-3c0-1.2-0.6-3-2.2-3C343.6,771.5,343,773,343,774.4z"/>
	<path d="M357,776.2c0,0.7,0,1.4,0,2h-1.2v-1.2l0,0c-0.4,0.6-1.1,1.4-2.5,1.4c-1.2,0-2.6-0.6-2.6-3.2v-4.4h1.4v4.2
		c0,1.4,0.5,2.4,1.7,2.4c1,0,1.6-0.6,1.9-1.2c0-0.1,0.1-0.5,0.1-0.7v-4.7h1.4v5.6H357z"/>
	<path d="M364.3,774.9l-1.1,3.2h-1.4l3.6-10.5h1.6l3.6,10.5h-1.4l-1.1-3.2H364.3z M367.8,773.8l-1.1-3c-0.1-0.6-0.4-1.2-0.5-1.9l0,0
		c-0.1,0.6-0.4,1.2-0.5,1.9l-1.1,3H367.8z"/>
	<path d="M371.8,776.8c0.5,0.4,1.1,0.5,1.9,0.5c1,0,1.4-0.5,1.4-1.1c0-0.6-0.5-1-1.4-1.4c-1.4-0.5-2-1.2-2-2.2c0-1.2,1-2.2,2.6-2.2
		c0.7,0,1.4,0.1,1.9,0.5l-0.4,1c-0.4-0.1-0.7-0.5-1.6-0.5c-0.9,0-1.2,0.5-1.2,1.1s0.5,1,1.4,1.2c1.2,0.5,2,1.1,2,2.4
		c0,1.2-1.1,2.2-2.9,2.2c-0.7,0-1.6-0.1-2.2-0.5L371.8,776.8z"/>
	<path d="M378,776.8c0.5,0.4,1.1,0.5,1.9,0.5c1,0,1.4-0.5,1.4-1.1c0-0.6-0.5-1-1.4-1.4c-1.4-0.5-2-1.2-2-2.2c0-1.2,1-2.2,2.6-2.2
		c0.7,0,1.4,0.1,1.9,0.5l-0.4,1c-0.4-0.1-0.7-0.5-1.6-0.5c-0.9,0-1.2,0.5-1.2,1.1s0.5,1,1.4,1.2c1.2,0.5,2,1.1,2,2.4
		c0,1.2-1.1,2.2-2.9,2.2c-0.7,0-1.6-0.1-2.2-0.5L378,776.8z"/>
	<path d="M391.1,774.3c0,2.9-1.9,4.1-3.7,4.1c-2,0-3.6-1.6-3.6-3.9c0-2.5,1.7-4.1,3.7-4.1C389.7,770.4,391.1,772.2,391.1,774.3z
		 M385.2,774.4c0,1.7,1,3,2.4,3c1.2,0,2.4-1.2,2.4-3c0-1.2-0.6-3-2.2-3C385.8,771.5,385.2,773,385.2,774.4z"/>
	<path d="M398.3,777.9c-0.4,0.1-1.1,0.5-2.2,0.5c-2.4,0-3.7-1.6-3.7-3.9c0-2.2,1.6-4.1,4.1-4.1c0.7,0,1.6,0.1,1.9,0.5l-0.4,1.1
		c-0.4-0.1-0.7-0.4-1.6-0.4c-1.7,0-2.6,1.2-2.6,2.9c0,1.7,1.1,2.9,2.6,2.9c0.7,0,1.2-0.1,1.7-0.4L398.3,777.9z"/>
	<path d="M401.4,768.6c0,0.5-0.4,0.7-1,0.7c-0.5,0-0.7-0.4-0.7-0.7c0-0.5,0.4-0.7,0.7-0.7C401.2,767.6,401.4,768.1,401.4,768.6z
		 M399.9,778.1v-7.5h1.4v7.5H399.9z"/>
	<path d="M407.6,778.1l-0.1-1l0,0c-0.5,0.6-1.2,1.1-2.4,1.1c-1.6,0-2.4-1.1-2.4-2.2c0-1.9,1.6-2.9,4.5-2.9V773
		c0-0.6-0.1-1.7-1.7-1.7c-0.6,0-1.4,0.1-2,0.6l-0.4-1c0.6-0.5,1.6-0.6,2.5-0.6c2.4,0,2.9,1.6,2.9,3.1v2.9c0,0.6,0,1.2,0.1,1.9
		L407.6,778.1L407.6,778.1z M407.5,774.3c-1.6,0-3.1,0.4-3.1,1.7c0,1,0.6,1.2,1.2,1.2c1,0,1.6-0.6,1.9-1.2c0-0.1,0.1-0.4,0.1-0.5
		v-1.2H407.5z"/>
	<path d="M416.3,777.9c-0.4,0.1-1.1,0.5-1.9,0.5L414,779c0.6,0,1.1,0.5,1.1,1.1c0,1-0.7,1.2-1.6,1.2c-0.4,0-0.7-0.1-1.1-0.4l0.1-0.6
		c0.4,0.1,0.6,0.1,0.7,0.1c0.4,0,0.6-0.1,0.6-0.5c0-0.5-0.5-0.6-1.2-0.6l0.6-1.1c-1.9-0.4-3.1-1.7-3.1-3.7c0-2.4,1.6-4.1,4.1-4.1
		c0.7,0,1.6,0.1,1.9,0.5l-0.4,1.1c-0.4-0.1-0.7-0.4-1.6-0.4c-1.7,0-2.6,1.2-2.6,2.9c0,1.7,1.1,2.9,2.6,2.9c0.7,0,1.2-0.1,1.7-0.4
		L416.3,777.9z"/>
	<path d="M422.2,778.1l-0.1-1l0,0c-0.5,0.6-1.2,1.1-2.4,1.1c-1.6,0-2.4-1.1-2.4-2.2c0-1.9,1.6-2.9,4.5-2.9V773
		c0-0.6-0.1-1.7-1.7-1.7c-0.6,0-1.4,0.1-2,0.6l-0.4-1c0.6-0.5,1.6-0.6,2.5-0.6c2.4,0,2.9,1.6,2.9,3.1v2.9c0,0.6,0,1.2,0.1,1.9h-1.1
		v0H422.2z M418.7,769.3c0-1,0.5-1.6,1.1-1.6c0.4,0,0.6,0.1,1,0.4c0.4,0.1,0.5,0.4,0.6,0.4c0.4,0,0.4-0.1,0.5-0.6h0.7
		c0,1.1-0.4,1.6-1.1,1.6c-0.4,0-0.6-0.1-1-0.4c-0.4-0.2-0.5-0.4-0.6-0.4c-0.4,0-0.4,0.4-0.5,0.6H418.7z M422,774.3
		c-1.6,0-3.1,0.4-3.1,1.7c0,1,0.6,1.2,1.2,1.2c1,0,1.6-0.6,1.9-1.2c0-0.1,0.1-0.4,0.1-0.5v-1.2H422z"/>
	<path d="M432.4,774.3c0,2.9-1.9,4.1-3.7,4.1c-2,0-3.6-1.6-3.6-3.9c0-2.5,1.7-4.1,3.7-4.1C430.8,770.4,432.4,772.2,432.4,774.3z
		 M426.3,774.4c0,1.7,1,3,2.4,3c1.2,0,2.4-1.2,2.4-3c0-1.2-0.6-3-2.2-3C427.2,771.5,426.3,773,426.3,774.4z"/>
	<path d="M442.9,773.2h-4.1v3.7h4.5v1.1h-6v-10.5h5.6v1.1h-4.4v3.2h4.1v1.2H442.9z"/>
	<path d="M444.9,776.8c0.5,0.4,1.1,0.5,1.9,0.5c1,0,1.4-0.5,1.4-1.1c0-0.6-0.5-1-1.4-1.4c-1.4-0.5-2-1.2-2-2.2c0-1.2,1-2.2,2.6-2.2
		c0.7,0,1.4,0.1,1.9,0.5l-0.4,1c-0.4-0.1-0.7-0.5-1.6-0.5c-0.9,0-1.2,0.5-1.2,1.1s0.5,1,1.4,1.2c1.2,0.5,2,1.1,2,2.4
		c0,1.2-1.1,2.2-2.9,2.2c-0.7,0-1.6-0.1-2.2-0.5L444.9,776.8z"/>
	<path d="M452.8,768.6v2.2h2v1.1h-2v4.1c0,1,0.4,1.4,1.1,1.4c0.4,0,0.6,0,0.7-0.1v1.1c-0.4,0.1-0.6,0.1-1.2,0.1
		c-0.6,0-1.1-0.1-1.4-0.6c-0.5-0.5-0.5-1.1-0.5-2v-4.1h-1.2v-1.2h1.2v-1.9L452.8,768.6z"/>
	<path d="M456.4,773c0-1,0-1.7,0-2.4h1.2v1.4l0,0c0.4-1,1.1-1.7,2-1.7c0.1,0,0.4,0,0.4,0v1.2c-0.1,0-0.4,0-0.5,0
		c-1,0-1.7,0.7-1.9,1.7c0,0.1,0,0.5,0,0.6v4.1h-1.4v-5L456.4,773L456.4,773z"/>
	<path d="M465.6,778.1l-0.1-1l0,0c-0.5,0.6-1.2,1.1-2.4,1.1c-1.6,0-2.4-1.1-2.4-2.2c0-1.9,1.6-2.9,4.5-2.9V773
		c0-0.6-0.1-1.7-1.7-1.7c-0.6,0-1.4,0.1-2,0.6l-0.4-1c0.6-0.5,1.6-0.6,2.5-0.6c2.4,0,2.9,1.6,2.9,3.1v2.9c0,0.6,0,1.2,0.1,1.9h-1.1
		v0H465.6z M465.3,774.3c-1.6,0-3.1,0.4-3.1,1.7c0,1,0.6,1.2,1.2,1.2c1,0,1.6-0.6,1.9-1.2c0-0.1,0.1-0.4,0.1-0.5v-1.2H465.3z"/>
	<path d="M468.9,772.8c0-0.7,0-1.4,0-2h1.2v1.2l0,0c0.4-0.7,1.2-1.4,2.5-1.4c1.1,0,2.6,0.6,2.6,3.2v4.5H474V774
		c0-1.2-0.5-2.2-1.7-2.2c-1,0-1.6,0.6-1.9,1.4c0,0.1-0.1,0.5-0.1,0.6v4.5h-1.4V772.8z"/>
	<path d="M484.1,770.7c0,0.5,0,1.1,0,2v4.4c0,1.7-0.4,2.9-1.1,3.5s-1.7,1-2.9,1c-1,0-1.9-0.1-2.5-0.6l0.4-1.1
		c0.5,0.4,1.2,0.6,2.2,0.6c1.4,0,2.5-0.7,2.5-2.6V777l0,0c-0.5,0.6-1.2,1.2-2.4,1.2c-1.9,0-3.2-1.6-3.2-3.7c0-2.5,1.7-4.1,3.5-4.1
		c1.2,0,2,0.6,2.4,1.2l0,0v-1.1h1.2v0.1H484.1z M482.6,773.7c0-0.1,0-0.5,0-0.6c-0.4-0.7-1-1.4-1.9-1.4c-1.2,0-2.2,1.1-2.2,2.9
		c0,1.4,0.7,2.6,2.2,2.6c0.7,0,1.6-0.5,1.9-1.4c0-0.4,0.1-0.5,0.1-0.7v-1.2h-0.1V773.7z"/>
	<path d="M486.9,774.7c0,1.9,1.2,2.6,2.6,2.6c1,0,1.6-0.1,2-0.4l0.1,1c-0.5,0.1-1.2,0.5-2.5,0.5c-2.4,0-3.7-1.6-3.7-3.7
		c0-2.1,1.4-4.1,3.6-4.1c2.5,0,3.1,2.2,3.1,3.6c0,0.4,0,0.5,0,0.6h-5.4v-0.1H486.9z M491,773.7c0-1-0.4-2.2-1.9-2.2
		c-1.4,0-2,1.2-2,2.2H491z"/>
	<path d="M495.5,768.6c0,0.5-0.4,0.7-1,0.7c-0.5,0-0.7-0.4-0.7-0.7c0-0.5,0.4-0.7,0.7-0.7C495.3,767.6,495.5,768.1,495.5,768.6z
		 M494.2,778.1v-7.5h1.4v7.5H494.2z"/>
	<path d="M497.8,773c0-1,0-1.7,0-2.4h1.2v1.4l0,0c0.4-1,1.1-1.7,2-1.7c0.1,0,0.4,0,0.4,0v1.2c-0.1,0-0.4,0-0.5,0
		c-1,0-1.7,0.7-1.9,1.7c0,0.1,0,0.5,0,0.6v4.1h-1.4v-5L497.8,773L497.8,773z"/>
	<path d="M507,778.1l-0.1-1l0,0c-0.5,0.6-1.2,1.1-2.4,1.1c-1.6,0-2.4-1.1-2.4-2.2c0-1.9,1.6-2.9,4.5-2.9V773c0-0.6-0.1-1.7-1.7-1.7
		c-0.6,0-1.4,0.1-2,0.6l-0.4-1c0.6-0.5,1.6-0.6,2.5-0.6c2.4,0,2.9,1.6,2.9,3.1v2.9c0,0.6,0,1.2,0.1,1.9h-1.1v0H507z M506.7,774.3
		c-1.6,0-3.1,0.4-3.1,1.7c0,1,0.6,1.2,1.2,1.2c1,0,1.6-0.6,1.9-1.2c0-0.1,0.1-0.4,0.1-0.5v-1.2H506.7z"/>
	<path d="M509.5,780c0.4-1,0.7-2.6,1-3.7l1.6-0.1c-0.4,1.2-1.1,3.1-1.4,3.7L509.5,780z"/>
	<path d="M274.7,785.4h5.6v1.1h-4.4v3.5h3.9v1.1h-3.9v4.7h-1.5v-10.3h0.2V785.4z"/>
	<path d="M287.9,793.8c0,0.7,0,1.4,0,2h-1.2v-1.2l0,0c-0.4,0.6-1.1,1.4-2.5,1.4c-1.2,0-2.6-0.6-2.6-3.2v-4.4h1.4v4.2
		c0,1.4,0.5,2.4,1.7,2.4c1,0,1.6-0.6,1.9-1.2c0-0.1,0.1-0.5,0.1-0.7v-4.7h1.4v5.6L287.9,793.8L287.9,793.8z"/>
	<path d="M290.2,790.3c0-0.7,0-1.4,0-2h1.2v1.2l0,0c0.4-0.7,1.2-1.4,2.5-1.4c1.1,0,2.6,0.6,2.6,3.2v4.5h-1.4v-4.4
		c0-1.2-0.5-2.2-1.7-2.2c-1,0-1.6,0.6-1.9,1.4c0,0.1-0.1,0.5-0.1,0.6v4.5h-1.4v-5.6h0.1V790.3z"/>
	<path d="M305.3,784.7v9.1c0,0.6,0,1.4,0,1.9h-1.2v-1.2l0,0c-0.5,0.7-1.4,1.6-2.5,1.6c-1.9,0-3.2-1.6-3.2-3.9c0-2.5,1.6-4.1,3.5-4.1
		c1.1,0,1.9,0.5,2.4,1.1l0,0v-4.5h1.2v0H305.3z M303.9,791.3c0-0.1,0-0.5,0-0.6c-0.1-1-1-1.6-2-1.6c-1.4,0-2.2,1.2-2.2,3
		c0,1.6,0.7,2.9,2.2,2.9c1,0,1.7-0.6,2-1.6c0-0.1,0-0.4,0-0.6V791.3z"/>
	<path d="M311.8,795.8l-0.1-1l0,0c-0.5,0.6-1.2,1.1-2.4,1.1c-1.6,0-2.4-1.1-2.4-2.2c0-1.9,1.6-2.9,4.5-2.9v-0.1
		c0-0.6-0.1-1.7-1.7-1.7c-0.6,0-1.4,0.1-2,0.6l-0.4-1c0.6-0.5,1.6-0.6,2.5-0.6c2.4,0,2.9,1.6,2.9,3.1v2.9c0,0.6,0,1.2,0.1,1.9
		L311.8,795.8L311.8,795.8z M311.5,792c-1.6,0-3.1,0.4-3.1,1.7c0,1,0.6,1.2,1.2,1.2c1,0,1.6-0.6,1.9-1.2c0-0.1,0.1-0.4,0.1-0.5V792
		H311.5z"/>
	<path d="M320.5,795.5c-0.4,0.1-1.1,0.5-1.9,0.5l-0.5,0.6c0.6,0,1.1,0.5,1.1,1.1c0,1-0.7,1.2-1.6,1.2c-0.5,0-0.7-0.1-1.1-0.4
		l0.1-0.6c0.4,0.1,0.6,0.1,0.7,0.1c0.4,0,0.6-0.1,0.6-0.5c0-0.5-0.5-0.6-1.2-0.6l0.6-1.1c-1.9-0.4-3.1-1.7-3.1-3.7
		c0-2.4,1.6-4.1,4.1-4.1c0.7,0,1.6,0.1,1.9,0.5l-0.4,1.1c-0.4-0.1-0.7-0.4-1.6-0.4c-1.7,0-2.6,1.2-2.6,2.9c0,1.7,1.1,2.9,2.6,2.9
		c0.7,0,1.2-0.1,1.7-0.4L320.5,795.5z"/>
	<path d="M326.2,795.8l-0.1-1l0,0c-0.5,0.6-1.2,1.1-2.4,1.1c-1.6,0-2.4-1.1-2.4-2.2c0-1.9,1.6-2.9,4.5-2.9v-0.1
		c0-0.6-0.1-1.7-1.7-1.7c-0.6,0-1.4,0.1-2,0.6l-0.4-1c0.6-0.5,1.6-0.6,2.5-0.6c2.4,0,2.9,1.6,2.9,3.1v2.9c0,0.6,0,1.2,0.1,1.9h-1.1
		v0H326.2z M322.7,787c0-1,0.5-1.6,1.1-1.6c0.4,0,0.6,0.1,1,0.4c0.4,0.1,0.5,0.4,0.6,0.4c0.4,0,0.4-0.1,0.5-0.6h0.7
		c0,1.1-0.4,1.6-1.1,1.6c-0.4,0-0.6-0.1-1-0.4c-0.4-0.1-0.5-0.4-0.6-0.4c-0.4,0-0.4,0.4-0.5,0.6H322.7z M326.1,792
		c-1.6,0-3.1,0.4-3.1,1.7c0,1,0.6,1.2,1.2,1.2c1,0,1.6-0.6,1.9-1.2c0-0.1,0.1-0.4,0.1-0.5V792H326.1z"/>
	<path d="M336.5,792c0,2.9-1.9,4.1-3.7,4.1c-2,0-3.6-1.6-3.6-3.9c0-2.5,1.7-4.1,3.7-4.1C334.9,788,336.5,789.7,336.5,792z
		 M330.4,792.1c0,1.7,1,3,2.4,3c1.2,0,2.4-1.2,2.4-3c0-1.2-0.6-3-2.2-3C331.2,789.1,330.4,790.7,330.4,792.1z"/>
	<path d="M348.4,792c0,2.9-1.9,4.1-3.7,4.1c-2,0-3.6-1.6-3.6-3.9c0-2.5,1.7-4.1,3.7-4.1C346.8,788,348.4,789.7,348.4,792z
		 M342.3,792.1c0,1.7,1,3,2.4,3c1.2,0,2.4-1.2,2.4-3c0-1.2-0.6-3-2.2-3C343,789.1,342.3,790.7,342.3,792.1z"/>
	<path d="M356.3,793.8c0,0.7,0,1.4,0,2h-1.2v-1.2l0,0c-0.4,0.6-1.1,1.4-2.5,1.4c-1.2,0-2.6-0.6-2.6-3.2v-4.4h1.4v4.2
		c0,1.4,0.5,2.4,1.7,2.4c1,0,1.6-0.6,1.9-1.2c0-0.1,0.1-0.5,0.1-0.7v-4.7h1.4v5.6L356.3,793.8L356.3,793.8z"/>
	<path d="M363.7,792.6l-1.1,3.2h-1.4l3.6-10.5h1.6l3.6,10.5h-1.4l-1.1-3.2H363.7z M367,791.5l-1.1-3c-0.4-0.6-0.5-1.2-0.6-1.9l0,0
		c-0.1,0.6-0.4,1.2-0.5,1.9l-1.1,3H367z"/>
	<path d="M371.2,794.5c0.5,0.4,1.1,0.5,1.9,0.5c1,0,1.4-0.5,1.4-1.1s-0.5-1-1.4-1.4c-1.4-0.5-2-1.2-2-2.2c0-1.2,1-2.2,2.6-2.2
		c0.7,0,1.4,0.1,1.9,0.5l-0.4,1c-0.4-0.1-0.7-0.5-1.6-0.5c-0.9,0-1.2,0.5-1.2,1.1s0.5,1,1.4,1.2c1.2,0.5,2,1.1,2,2.4
		s-1.1,2.2-2.9,2.2c-0.7,0-1.6-0.1-2.2-0.5L371.2,794.5z"/>
	<path d="M377.4,794.5c0.5,0.4,1.1,0.5,1.9,0.5c1,0,1.4-0.5,1.4-1.1s-0.5-1-1.4-1.4c-1.4-0.5-2-1.2-2-2.2c0-1.2,1-2.2,2.6-2.2
		c0.7,0,1.4,0.1,1.9,0.5l-0.4,1c-0.4-0.1-0.7-0.5-1.6-0.5c-0.9,0-1.2,0.5-1.2,1.1s0.5,1,1.4,1.2c1.2,0.5,2,1.1,2,2.4
		s-1.1,2.2-2.9,2.2c-0.7,0-1.6-0.1-2.2-0.5L377.4,794.5z"/>
	<path d="M390.6,792c0,2.9-1.9,4.1-3.7,4.1c-2,0-3.6-1.6-3.6-3.9c0-2.5,1.7-4.1,3.7-4.1C389.1,788,390.6,789.7,390.6,792z
		 M384.5,792.1c0,1.7,1,3,2.4,3c1.2,0,2.4-1.2,2.4-3c0-1.2-0.6-3-2.2-3C385.3,789.1,384.5,790.7,384.5,792.1z"/>
	<path d="M397.5,795.5c-0.4,0.1-1.1,0.5-2.2,0.5c-2.4,0-3.7-1.6-3.7-3.9s1.6-4.1,4.1-4.1c0.7,0,1.6,0.1,1.9,0.5l-0.4,1.1
		c-0.4-0.1-0.7-0.4-1.6-0.4c-1.7,0-2.6,1.2-2.6,2.9c0,1.7,1.1,2.9,2.6,2.9c0.7,0,1.2-0.1,1.7-0.4L397.5,795.5z"/>
	<path d="M400.7,786.1c0,0.5-0.4,0.7-1,0.7c-0.5,0-0.7-0.4-0.7-0.7c0-0.5,0.4-0.7,0.7-0.7C400.4,785.2,400.7,785.6,400.7,786.1z
		 M399.3,795.8v-7.5h1.4v7.5H399.3z"/>
	<path d="M407.1,795.8l-0.1-1l0,0c-0.5,0.6-1.2,1.1-2.4,1.1c-1.6,0-2.4-1.1-2.4-2.2c0-1.9,1.6-2.9,4.5-2.9v-0.1
		c0-0.6-0.1-1.7-1.7-1.7c-0.7,0-1.4,0.1-2,0.6l-0.4-1c0.6-0.5,1.6-0.6,2.5-0.6c2.4,0,2.9,1.6,2.9,3.1v2.9c0,0.6,0,1.2,0.1,1.9H407v0
		H407.1z M406.8,792c-1.6,0-3.1,0.4-3.1,1.7c0,1,0.6,1.2,1.2,1.2c1,0,1.6-0.6,1.9-1.2c0-0.1,0-0.4,0-0.5V792z"/>
	<path d="M415.9,795.5c-0.4,0.1-1.1,0.5-1.9,0.5l-0.5,0.6c0.6,0,1.1,0.5,1.1,1.1c0,1-0.7,1.2-1.6,1.2c-0.5,0-0.7-0.1-1.1-0.4
		l0.1-0.6c0.4,0.1,0.6,0.1,0.7,0.1c0.4,0,0.6-0.1,0.6-0.5c0-0.5-0.5-0.6-1.2-0.6l0.6-1.1c-1.9-0.4-3.1-1.7-3.1-3.7
		c0-2.4,1.6-4.1,4.1-4.1c0.7,0,1.6,0.1,1.9,0.5l-0.4,1.1c-0.4-0.1-0.7-0.4-1.6-0.4c-1.7,0-2.6,1.2-2.6,2.9c0,1.7,1.1,2.9,2.6,2.9
		c0.7,0,1.2-0.1,1.7-0.4L415.9,795.5z"/>
	<path d="M421.6,795.8l-0.1-1l0,0c-0.5,0.6-1.2,1.1-2.4,1.1c-1.6,0-2.4-1.1-2.4-2.2c0-1.9,1.6-2.9,4.5-2.9v-0.1
		c0-0.6-0.1-1.7-1.7-1.7c-0.7,0-1.4,0.1-2,0.6l-0.4-1c0.6-0.5,1.6-0.6,2.5-0.6c2.4,0,2.9,1.6,2.9,3.1v2.9c0,0.6,0,1.2,0.1,1.9h-1.1
		v0H421.6z M418,787c0-1,0.5-1.6,1.1-1.6c0.4,0,0.6,0.1,1,0.4c0.4,0.1,0.5,0.4,0.6,0.4c0.4,0,0.5-0.1,0.5-0.6h0.7
		c0,1.1-0.4,1.6-1.1,1.6c-0.4,0-0.6-0.1-1-0.4c-0.4-0.1-0.5-0.4-0.6-0.4c-0.4,0-0.4,0.4-0.5,0.6H418z M421.3,792
		c-1.6,0-3.1,0.4-3.1,1.7c0,1,0.6,1.2,1.2,1.2c1,0,1.6-0.6,1.9-1.2c0-0.1,0-0.4,0-0.5V792z"/>
	<path d="M431.8,792c0,2.9-1.9,4.1-3.7,4.1c-2,0-3.6-1.6-3.6-3.9c0-2.5,1.7-4.1,3.7-4.1C430.3,788,431.8,789.7,431.8,792z
		 M425.8,792.1c0,1.7,1,3,2.4,3c1.2,0,2.4-1.2,2.4-3c0-1.2-0.6-3-2.2-3C426.4,789.1,425.8,790.7,425.8,792.1z"/>
	<path d="M436.9,785.4c0.7-0.1,1.9-0.1,2.9-0.1c1.9,0,3.2,0.5,4.2,1.2s1.4,2,1.4,3.7c0,1.7-0.5,3.1-1.6,4.1c-1,1-2.6,1.6-4.7,1.6
		c-1,0-1.7,0-2.5-0.1v-10.3h0.4V785.4z M438.1,794.7c0.4,0,0.7,0,1.4,0c3,0,4.5-1.6,4.5-4.5c0-2.5-1.4-4.1-4.2-4.1
		c-0.6,0-1.2,0-1.6,0.1L438.1,794.7L438.1,794.7z"/>
	<path d="M454.1,792c0,2.9-1.9,4.1-3.7,4.1c-2,0-3.6-1.6-3.6-3.9c0-2.5,1.7-4.1,3.7-4.1C452.6,788,454.1,789.7,454.1,792z
		 M448.1,792.1c0,1.7,1,3,2.4,3c1.2,0,2.4-1.2,2.4-3c0-1.2-0.6-3-2.2-3C448.7,789.1,448.1,790.7,448.1,792.1z"/>
	<path d="M455.7,790.3c0-0.7,0-1.4,0-2h1.2v1.2l0,0c0.5-0.7,1.1-1.4,2.4-1.4c1.1,0,1.9,0.6,2.2,1.6l0,0c0.4-0.5,0.5-0.7,0.7-1
		c0.5-0.4,1-0.5,1.7-0.5c1,0,2.5,0.6,2.5,3.2v4.4h-1.4v-4.2c0-1.4-0.5-2.4-1.6-2.4c-0.7,0-1.4,0.6-1.6,1.2c0,0.1-0.1,0.5-0.1,0.6
		v4.7h-1.4v-4.7c0-1.2-0.5-2-1.6-2c-0.7,0-1.4,0.6-1.7,1.4c0,0.1-0.1,0.5-0.1,0.6v4.5h-1.4v-5.5h0.1V790.3z"/>
	<path d="M470.3,786.1c0,0.5-0.4,0.7-1,0.7c-0.5,0-0.7-0.4-0.7-0.7c0-0.5,0.4-0.7,0.7-0.7C469.9,785.2,470.3,785.6,470.3,786.1z
		 M468.9,795.8v-7.5h1.4v7.5H468.9z"/>
	<path d="M477.7,795.5c-0.4,0.1-1.1,0.5-2.2,0.5c-2.4,0-3.7-1.6-3.7-3.9s1.6-4.1,4.1-4.1c0.7,0,1.6,0.1,1.9,0.5l-0.4,1.1
		c-0.4-0.1-0.7-0.4-1.6-0.4c-1.7,0-2.6,1.2-2.6,2.9c0,1.7,1.1,2.9,2.6,2.9c0.7,0,1.2-0.1,1.7-0.4L477.7,795.5z"/>
	<path d="M481,786.1c0,0.5-0.4,0.7-1,0.7c-0.5,0-0.7-0.4-0.7-0.7c0-0.5,0.4-0.7,0.7-0.7C480.5,785.2,481,785.6,481,786.1z
		 M479.5,795.8v-7.5h1.4v7.5H479.5z"/>
	<path d="M483,784.7h1.4v11.1H483V784.7z"/>
	<path d="M488.3,786.1c0,0.5-0.4,0.7-1,0.7c-0.5,0-0.7-0.4-0.7-0.7c0-0.5,0.4-0.7,0.7-0.7C487.8,785.2,488.3,785.6,488.3,786.1z
		 M486.8,795.8v-7.5h1.4v7.5H486.8z"/>
	<path d="M494.5,795.8l-0.1-1l0,0c-0.5,0.6-1.2,1.1-2.4,1.1c-1.6,0-2.4-1.1-2.4-2.2c0-1.9,1.6-2.9,4.5-2.9v-0.1
		c0-0.6-0.1-1.7-1.7-1.7c-0.7,0-1.4,0.1-2,0.6l-0.4-1c0.6-0.5,1.6-0.6,2.5-0.6c2.4,0,2.9,1.6,2.9,3.1v2.9c0,0.6,0,1.2,0.1,1.9h-1.1
		v0H494.5z M494.4,792c-1.6,0-3.1,0.4-3.1,1.7c0,1,0.6,1.2,1.2,1.2c1,0,1.6-0.6,1.9-1.2c0-0.1,0-0.4,0-0.5V792z"/>
	<path d="M504.4,784.7v9.1c0,0.6,0,1.4,0,1.9h-1.2v-1.2l0,0c-0.5,0.7-1.4,1.6-2.5,1.6c-1.9,0-3.2-1.6-3.2-3.9c0-2.5,1.6-4.1,3.5-4.1
		c1.1,0,1.9,0.5,2.4,1.1l0,0v-4.5h1.2v0H504.4z M503,791.3c0-0.1,0-0.5,0-0.6c-0.1-1-1-1.6-2-1.6c-1.4,0-2.2,1.2-2.2,3
		c0,1.6,0.7,2.9,2.2,2.9c1,0,1.7-0.6,2-1.6c0-0.1,0-0.4,0-0.6V791.3z"/>
	<path d="M511,795.8l-0.1-1l0,0c-0.5,0.6-1.2,1.1-2.4,1.1c-1.6,0-2.4-1.1-2.4-2.2c0-1.9,1.6-2.9,4.5-2.9v-0.1c0-0.6-0.1-1.7-1.7-1.7
		c-0.7,0-1.4,0.1-2,0.6l-0.4-1c0.6-0.5,1.6-0.6,2.5-0.6c2.4,0,2.9,1.6,2.9,3.1v2.9c0,0.6,0,1.2,0.1,1.9L511,795.8L511,795.8z
		 M510.6,792c-1.6,0-3.1,0.4-3.1,1.7c0,1,0.6,1.2,1.2,1.2c1,0,1.6-0.6,1.9-1.2c0-0.1,0-0.4,0-0.5V792z"/>
	<path d="M517.4,790.3c0-0.7,0-1.4,0-2h1.2l0.1,1.2l0,0c0.4-0.7,1.2-1.4,2.5-1.4c1.1,0,2.6,0.6,2.6,3.2v4.5h-1.4v-4.4
		c0-1.2-0.5-2.2-1.7-2.2c-1,0-1.6,0.6-1.9,1.4c0,0.1-0.1,0.5-0.1,0.6v4.5h-1.4V790.3z"/>
	<path d="M532.9,792c0,2.9-1.9,4.1-3.7,4.1c-2,0-3.6-1.6-3.6-3.9c0-2.5,1.7-4.1,3.7-4.1C531.5,788,532.9,789.7,532.9,792z
		 M527,792.1c0,1.7,1,3,2.4,3c1.2,0,2.4-1.2,2.4-3c0-1.2-0.6-3-2.2-3C527.8,789.1,527,790.7,527,792.1z"/>
	<path d="M543.5,790.8h-4.1v3.7h4.5v1.1h-6v-10.5h5.6v1.1h-4.4v3.2h4.1v1.2H543.5z"/>
	<path d="M546.3,788.4l1.1,1.6c0.4,0.5,0.5,0.7,0.7,1.2l0,0c0.4-0.5,0.5-0.7,0.7-1.2l1.1-1.6h1.6l-2.5,3.6l2.6,3.9h-1.6l-1.1-1.7
		c-0.4-0.5-0.6-0.7-0.7-1.2l0,0c-0.4,0.5-0.5,0.7-0.7,1.2l-1.1,1.7h-1.6l2.6-3.9l-2.5-3.7h1.2v0.1H546.3z"/>
	<path d="M554.7,786.1v2.2h2v1.1h-2v4.1c0,1,0.4,1.4,1.1,1.4c0.4,0,0.6,0,0.7-0.1v1.1c-0.4,0.1-0.6,0.1-1.2,0.1s-1.1-0.1-1.4-0.6
		c-0.5-0.5-0.5-1.1-0.5-2v-4.2h-1.2v-1.1h1.2v-1.9L554.7,786.1z"/>
	<path d="M558.9,792.2c0,1.9,1.2,2.6,2.6,2.6c1,0,1.6-0.1,2-0.4l0.1,1c-0.5,0.1-1.2,0.5-2.5,0.5c-2.4,0-3.7-1.6-3.7-3.7
		c0-2.1,1.4-4.1,3.6-4.1c2.5,0,3.1,2.2,3.1,3.6c0,0.4,0,0.5,0,0.6h-5.4v-0.1H558.9z M563,791.3c0-1-0.4-2.2-1.9-2.2
		c-1.4,0-2,1.2-2,2.2H563z"/>
	<path d="M566,790.7c0-1,0-1.7,0-2.4h1.2v1.4l0,0c0.4-1,1.1-1.7,2-1.7c0.1,0,0.4,0,0.5,0v1.2c-0.1,0-0.4,0-0.5,0
		c-1,0-1.7,0.7-1.9,1.7c0,0.1,0,0.5,0,0.6v4.1H566V790.7L566,790.7z"/>
	<path d="M572.6,786.1c0,0.5-0.4,0.7-1,0.7c-0.5,0-0.7-0.4-0.7-0.7c0-0.5,0.4-0.7,0.7-0.7C572.3,785.2,572.6,785.6,572.6,786.1z
		 M571.1,795.8v-7.5h1.4v7.5H571.1z"/>
	<path d="M581.6,792c0,2.9-1.9,4.1-3.7,4.1c-2,0-3.6-1.6-3.6-3.9c0-2.5,1.7-4.1,3.7-4.1C580.1,788,581.6,789.7,581.6,792z
		 M575.6,792.1c0,1.7,1,3,2.4,3c1.2,0,2.4-1.2,2.4-3c0-1.2-0.6-3-2.2-3C576.3,789.1,575.6,790.7,575.6,792.1z"/>
	<path d="M583.4,790.7c0-1,0-1.7,0-2.4h1.2v1.4l0,0c0.4-1,1.1-1.7,2-1.7c0.1,0,0.4,0,0.5,0v1.2c-0.1,0-0.4,0-0.5,0
		c-1,0-1.7,0.7-1.9,1.7c0,0.1,0,0.5,0,0.6v4.1h-1.4V790.7L583.4,790.7z"/>
	<path d="M274.8,810.9c0,1.9,1.2,2.6,2.6,2.6c1,0,1.6-0.1,2-0.4l0.1,1c-0.5,0.1-1.2,0.5-2.5,0.5c-2.4,0-3.7-1.6-3.7-3.7
		c0-2.1,1.4-4.1,3.6-4.1c2.5,0,3.1,2.2,3.1,3.6c0,0.4,0,0.5,0,0.6h-5.4v-0.1H274.8z M278.8,810c0-1-0.4-2.2-1.9-2.2
		c-1.4,0-2,1.2-2,2.2H278.8z"/>
	<path d="M292.6,814.3c-0.5,0.4-1.6,0.5-2.9,0.5c-3,0-5.1-1.9-5.1-5.4c0-3.2,2.2-5.5,5.5-5.5c1.2,0,2.2,0.4,2.5,0.5l-0.4,1.1
		c-0.5-0.4-1.2-0.5-2.2-0.5c-2.5,0-4.1,1.6-4.1,4.4c0,2.5,1.4,4.2,4.1,4.2c0.7,0,1.7-0.1,2.2-0.5L292.6,814.3z"/>
	<path d="M300.8,810.6c0,2.9-1.9,4.1-3.7,4.1c-2,0-3.6-1.6-3.6-3.9c0-2.5,1.7-4.1,3.7-4.1C299.4,806.8,300.8,808.4,300.8,810.6z
		 M294.8,810.8c0,1.7,1,3,2.4,3c1.2,0,2.4-1.2,2.4-3c0-1.2-0.6-3-2.2-3C295.7,807.8,294.8,809.4,294.8,810.8z"/>
	<path d="M302.7,809c0-0.7,0-1.4,0-2h1.2v1.2l0,0c0.5-0.7,1.1-1.4,2.4-1.4c1.1,0,1.9,0.6,2.2,1.6l0,0c0.4-0.5,0.5-0.7,0.7-1
		c0.5-0.4,1-0.5,1.7-0.5c1,0,2.5,0.6,2.5,3.2v4.4h-1.4v-4.2c0-1.4-0.5-2.4-1.6-2.4c-0.7,0-1.4,0.6-1.6,1.2c0,0.1-0.1,0.5-0.1,0.6
		v4.7h-1.4v-4.7c0-1.2-0.5-2-1.6-2c-0.7,0-1.4,0.6-1.7,1.4c0,0.1-0.1,0.5-0.1,0.6v4.5h-1.4v-5.5h0.1V809z"/>
	<path d="M321.9,812.5c0,0.7,0,1.4,0,2h-1.2v-1.2l0,0c-0.4,0.6-1.1,1.4-2.5,1.4c-1.2,0-2.6-0.6-2.6-3.2V807h1.4v4.2
		c0,1.4,0.5,2.4,1.7,2.4c1,0,1.6-0.6,1.9-1.2c0-0.1,0.1-0.5,0.1-0.7v-4.7h1.4v5.6L321.9,812.5L321.9,812.5z"/>
	<path d="M324.2,809c0-0.7,0-1.4,0-2h1.2l0.1,1.2l0,0c0.4-0.7,1.2-1.4,2.5-1.4c1.1,0,2.6,0.6,2.6,3.2v4.5h-1.4v-4.4
		c0-1.2-0.5-2.2-1.7-2.2c-1,0-1.6,0.6-1.9,1.4c0,0.1-0.1,0.5-0.1,0.6v4.5h-1.4V809z"/>
	<path d="M334.3,804.8c0,0.5-0.4,0.7-1,0.7c-0.5,0-0.7-0.4-0.7-0.7c0-0.5,0.4-0.7,0.7-0.7C334.1,803.9,334.3,804.4,334.3,804.8z
		 M332.9,814.5V807h1.4v7.5H332.9z"/>
	<path d="M343,803.4v9.1c0,0.6,0,1.4,0,1.9h-1.2v-1.2l0,0c-0.5,0.7-1.4,1.6-2.5,1.6c-1.9,0-3.2-1.6-3.2-3.9c0-2.5,1.6-4.1,3.5-4.1
		c1.1,0,1.9,0.5,2.4,1.1l0,0v-4.5h1.2v0H343z M341.7,810c0-0.1,0-0.5,0-0.6c-0.1-1-1-1.6-2-1.6c-1.4,0-2.2,1.2-2.2,3
		c0,1.6,0.7,2.9,2.2,2.9c1,0,1.7-0.6,2-1.6c0-0.1,0-0.4,0-0.6V810z"/>
	<path d="M349.5,814.5l-0.1-1l0,0c-0.5,0.6-1.2,1.1-2.4,1.1c-1.6,0-2.4-1.1-2.4-2.2c0-1.9,1.6-2.9,4.5-2.9v-0.1
		c0-0.6-0.1-1.7-1.7-1.7c-0.7,0-1.4,0.1-2,0.6l-0.4-1c0.6-0.5,1.6-0.6,2.5-0.6c2.4,0,2.9,1.6,2.9,3.1v2.9c0,0.6,0,1.2,0.1,1.9h-1.1
		v0H349.5z M349.2,810.6c-1.6,0-3.1,0.4-3.1,1.7c0,1,0.6,1.2,1.2,1.2c1,0,1.6-0.6,1.9-1.2c0-0.1,0-0.4,0-0.5V810.6z"/>
	<path d="M359.2,803.4v9.1c0,0.6,0,1.4,0,1.9H358v-1.2l0,0c-0.5,0.7-1.4,1.6-2.5,1.6c-1.9,0-3.2-1.6-3.2-3.9c0-2.5,1.6-4.1,3.5-4.1
		c1.1,0,1.9,0.5,2.4,1.1l0,0v-4.5h1.2v0H359.2z M357.8,810c0-0.1,0-0.5,0-0.6c-0.1-1-1-1.6-2-1.6c-1.4,0-2.2,1.2-2.2,3
		c0,1.6,0.7,2.9,2.2,2.9c1,0,1.7-0.6,2-1.6c0-0.1,0-0.4,0-0.6V810z"/>
	<path d="M362.3,810.9c0,1.9,1.2,2.6,2.6,2.6c1,0,1.6-0.1,2-0.4l0.1,1c-0.5,0.1-1.2,0.5-2.5,0.5c-2.4,0-3.7-1.6-3.7-3.7
		c0-2.1,1.4-4.1,3.6-4.1c2.5,0,3.1,2.2,3.1,3.6c0,0.4,0,0.5,0,0.6h-5.4v-0.1H362.3z M366.4,810c0-1-0.4-2.2-1.9-2.2
		c-1.4,0-2,1.2-2,2.2H366.4z"/>
	<path d="M374,804v10.5h-1.4V804H374z"/>
	<path d="M376.5,809c0-0.7,0-1.4,0-2h1.2l0.1,1.2l0,0c0.4-0.7,1.2-1.4,2.5-1.4c1.1,0,2.6,0.6,2.6,3.2v4.5h-1.4v-4.4
		c0-1.2-0.5-2.2-1.7-2.2c-1,0-1.6,0.6-1.9,1.4c0,0.1-0.1,0.5-0.1,0.6v4.5h-1.4V809L376.5,809z"/>
	<path d="M391.7,803.4v9.1c0,0.6,0,1.4,0,1.9h-1.2v-1.2l0,0c-0.5,0.7-1.4,1.6-2.5,1.6c-1.9,0-3.2-1.6-3.2-3.9c0-2.5,1.6-4.1,3.5-4.1
		c1.1,0,1.9,0.5,2.4,1.1l0,0v-4.5h1.2v0H391.7z M390.5,810c0-0.1,0-0.5,0-0.6c-0.1-1-1-1.6-2-1.6c-1.4,0-2.2,1.2-2.2,3
		c0,1.6,0.7,2.9,2.2,2.9c1,0,1.7-0.6,2-1.6c0-0.1,0-0.4,0-0.6V810z"/>
	<path d="M396.8,803.8l-1.9,2.2h-1l1.4-2.2H396.8z M394.1,814.5V807h1.4v7.5H394.1z"/>
	<path d="M404.1,807c0,0.5,0,1.1,0,2v4.4c0,1.7-0.4,2.9-1.1,3.5s-1.7,1-2.9,1c-1,0-1.9-0.1-2.5-0.6l0.4-1.1c0.5,0.4,1.2,0.6,2.2,0.6
		c1.4,0,2.5-0.7,2.5-2.6v-0.7l0,0c-0.5,0.6-1.2,1.2-2.4,1.2c-1.9,0-3.2-1.6-3.2-3.7c0-2.5,1.7-4.1,3.5-4.1c1.2,0,2,0.6,2.4,1.2l0,0
		v-1.1h1.2v0.1H404.1z M402.8,810c0-0.1,0-0.5-0.1-0.6c-0.4-0.7-1-1.4-1.9-1.4c-1.2,0-2.2,1.1-2.2,2.9c0,1.4,0.7,2.6,2.2,2.6
		c0.7,0,1.6-0.5,1.9-1.4c0-0.4,0.1-0.5,0.1-0.7V810z"/>
	<path d="M407.1,810.9c0,1.9,1.2,2.6,2.6,2.6c1,0,1.6-0.1,2-0.4l0.1,1c-0.5,0.1-1.2,0.5-2.5,0.5c-2.4,0-3.7-1.6-3.7-3.7
		c0-2.1,1.4-4.1,3.6-4.1c2.5,0,3.1,2.2,3.1,3.6c0,0.4,0,0.5,0,0.6H407v-0.1H407.1z M411.1,810c0-1-0.4-2.2-1.9-2.2
		c-1.4,0-2,1.2-2,2.2H411.1z"/>
	<path d="M414.1,809c0-0.7,0-1.4,0-2h1.2l0.1,1.2l0,0c0.4-0.7,1.2-1.4,2.5-1.4c1.1,0,2.6,0.6,2.6,3.2v4.5h-1.4v-4.4
		c0-1.2-0.5-2.2-1.7-2.2c-1,0-1.6,0.6-1.9,1.4c0,0.1-0.1,0.5-0.1,0.6v4.5h-1.4V809L414.1,809z"/>
	<path d="M427.1,814.5l-0.1-1l0,0c-0.5,0.6-1.2,1.1-2.4,1.1c-1.6,0-2.4-1.1-2.4-2.2c0-1.9,1.6-2.9,4.5-2.9v-0.1
		c0-0.6-0.1-1.7-1.7-1.7c-0.7,0-1.4,0.1-2,0.6l-0.4-1c0.6-0.5,1.6-0.6,2.5-0.6c2.4,0,2.9,1.6,2.9,3.1v2.9c0,0.6,0,1.2,0.1,1.9h-1.1
		v0H427.1z M426.8,810.6c-1.6,0-3.1,0.4-3.1,1.7c0,1,0.6,1.2,1.2,1.2c1,0,1.6-0.6,1.9-1.2c0-0.1,0-0.4,0-0.5V810.6z"/>
	<path d="M274,780v-0.7h235v0.7H274z"/>
	<path d="M273.4,797.7v-0.7h313.9v0.7H273.4z"/>
	<path d="M284,816.4v-0.7h145.2v0.7H284z"/>
</g>
</svg>
