<?xml version="1.0" encoding="utf-8"?>
<!-- Generator: Adobe Illustrator 18.1.1, SVG Export Plug-In . SVG Version: 6.00 Build 0)  -->
<svg version="1.1" id="Camada_1" xmlns="http://www.w3.org/2000/svg" xmlns:xlink="http://www.w3.org/1999/xlink" x="0px" y="0px"
	 viewBox="22 180.9 640 480" enable-background="new 22 180.9 640 480" xml:space="preserve">
<g>
	<g>
		<g>
			<polygon fill="#274391" points="159.9,561.1 123.8,610.3 144.8,606.3 156.1,621.3 178,566.5 			"/>
			<polygon fill="#274391" points="184.9,561.1 220.7,610.3 200,606.3 188.4,621.3 166.6,566.5 			"/>
			<g>
				<g>
					<path fill="#FFFFFF" stroke="#DD9A28" stroke-width="2" d="M212.7,549.3c-0.9,21.8-19.4,38.8-41.2,37.9
						c-21.8-0.9-38.8-19.4-37.9-41.2s19.4-38.8,41.2-37.9C196.7,509.2,213.6,527.5,212.7,549.3z"/>
				</g>
			</g>
		</g>
	</g>
</g>
<g>
	<g>
		<path fill="#4D4D4D" d="M311.6,481.6c0,2.2-0.7,3.8-1.8,5.1c-1.1,1.3-2.7,2-4.5,2c-1.8,0-3.3-0.7-4.5-2c-1.1-1.3-1.8-3.1-1.8-5.1
			v-2.7c0-2.2,0.7-3.8,1.8-5.1s2.7-2,4.5-2c2,0,3.3,0.7,4.7,2c1.1,1.3,1.8,3.1,1.8,5.1C311.6,478.9,311.6,481.6,311.6,481.6z
			 M310.3,478.9c0-1.8-0.4-3.3-1.3-4.2s-2-1.6-3.6-1.6c-1.6,0-2.7,0.4-3.6,1.6c-0.9,1.1-1.3,2.5-1.3,4.2v2.7c0,1.8,0.4,3.3,1.3,4.5
			c0.9,1.1,2,1.6,3.6,1.6c1.6,0,2.7-0.4,3.6-1.6c0.9-1.1,1.3-2.5,1.3-4.5V478.9z"/>
		<path fill="#4D4D4D" d="M324.1,484.5c0-0.9-0.2-1.6-0.9-2s-1.8-1.1-3.3-1.6c-1.8-0.4-3.1-1.1-4-1.8s-1.3-1.8-1.3-2.9
			c0-1.3,0.4-2.2,1.6-3.1c1.1-0.9,2.2-1.3,3.8-1.3c1.6,0,2.9,0.4,4,1.3c0.9,0.9,1.6,2,1.3,3.6l0,0h-1.3c0-1.1-0.4-2-1.1-2.7
			s-1.8-1.1-2.9-1.1c-1.3,0-2.2,0.2-2.9,0.9c-0.7,0.7-1.1,1.3-1.1,2.2s0.2,1.6,0.9,2s1.8,1.1,3.3,1.6c1.8,0.4,2.9,1.1,3.8,1.8
			c0.9,0.7,1.3,1.8,1.3,2.9c0,1.3-0.4,2.2-1.6,3.1s-2.5,1.1-4,1.1s-2.9-0.4-4.2-1.3c-1.1-0.9-1.8-2-1.8-3.6l0,0h1.1
			c0,1.3,0.4,2.2,1.3,2.9c0.9,0.7,2,0.9,3.1,0.9c1.3,0,2.2-0.2,2.9-0.9C323.6,486,324.1,485.4,324.1,484.5z"/>
		<path fill="#4D4D4D" d="M339.7,483.4L339.7,483.4c0,1.8-0.4,2.9-1.6,4c-1.1,0.9-2.5,1.6-4.2,1.6s-3.1-0.7-4.2-2s-1.6-3.1-1.6-5.1
			v-2.7c0-2.2,0.4-3.8,1.6-5.1c1.1-1.3,2.5-2,4.2-2s3.1,0.4,4.2,1.3s1.6,2.2,1.6,4l0,0h-1.3c0-1.3-0.4-2.5-1.1-3.1
			c-0.9-0.7-1.8-1.1-3.3-1.1c-1.3,0-2.5,0.7-3.3,1.8c-0.9,1.1-1.3,2.7-1.3,4.2v2.7c0,1.8,0.4,3.3,1.3,4.5c0.9,1.1,2,1.8,3.3,1.8
			s2.5-0.4,3.3-1.1s1.1-1.8,1.1-3.1L339.7,483.4L339.7,483.4z"/>
		<path fill="#4D4D4D" d="M344.6,488.5h-1.3v-16.7h1.3V488.5z"/>
		<path fill="#4D4D4D" d="M350.4,481.6v6.9H349v-16.7h5.6c1.8,0,2.9,0.4,4,1.3c0.9,0.9,1.3,2,1.3,3.6s-0.4,2.7-1.3,3.6
			c-0.9,0.9-2.2,1.3-4,1.3L350.4,481.6L350.4,481.6z M350.4,480.5h4.2c1.3,0,2.2-0.4,2.9-1.1s0.9-1.6,0.9-2.7c0-1.1-0.2-2-0.9-2.7
			c-0.7-0.7-1.6-1.1-2.9-1.1h-4.2V480.5z"/>
		<path fill="#4D4D4D" d="M369.7,485.4c0-0.7-0.2-1.1-0.7-1.6s-1.3-0.9-2.5-1.1c-1.3-0.2-2.5-0.7-3.1-1.3c-0.7-0.4-1.1-1.3-1.1-2.2
			s0.4-1.8,1.1-2.5s1.8-0.9,3.1-0.9s2.5,0.4,3.1,1.1c0.9,0.7,1.1,1.6,1.1,2.7l0,0h-1.1c0-0.7-0.2-1.3-0.9-1.8
			c-0.7-0.4-1.3-0.7-2.2-0.7c-0.9,0-1.8,0.2-2.2,0.7c-0.4,0.4-0.7,0.9-0.7,1.6s0.2,1.1,0.7,1.3c0.4,0.4,1.3,0.7,2.5,0.9
			c1.3,0.2,2.5,0.7,3.1,1.3c0.7,0.7,1.1,1.3,1.1,2.2c0,1.1-0.4,1.8-1.1,2.5c-0.9,0.7-1.8,0.9-3.1,0.9s-2.7-0.4-3.3-1.1
			c-0.9-0.7-1.1-1.6-1.1-2.5l0,0h1.1c0,0.9,0.4,1.6,1.1,2s1.3,0.7,2.2,0.7c0.9,0,1.8-0.2,2.2-0.7S369.7,486,369.7,485.4z"/>
	</g>
	<g>
		<g>
			<polygon fill="#F6D448" points="322.5,561.1 286.7,610.3 307.4,606.3 319,621.3 340.8,566.5 			"/>
			<polygon fill="#F6D448" points="347.5,561.1 383.5,610.3 362.6,606.3 351.3,621.3 329.4,566.5 			"/>
			<g>
				<g>
					<path fill="#FFFFFF" stroke="#DD9A28" stroke-width="2" d="M375.5,549.3c-0.9,21.8-19.4,38.8-41.2,37.9
						c-21.8-0.9-38.8-19.4-37.9-41.2s19.4-38.8,41.2-37.9C359.5,509.2,376.4,527.5,375.5,549.3z"/>
				</g>
			</g>
		</g>
	</g>
</g>
<g>
	<g>
		<g>
			<g>
				<polygon fill="#89181B" points="471.5,328.8 436.1,377.4 456.6,373.3 468,388 489.3,334.1 				"/>
			</g>
			<g>
				<polygon fill="#89181B" points="496,328.8 531.4,377.4 511,373.3 499.8,388 478.2,334.1 				"/>
			</g>
			<g>
				<g>
					<path fill="#DA1F27" d="M532.3,325.5c0.2,0,0.2-0.2,0.2-0.2c0.4-0.4,0.9-0.7,0.9-0.7h-0.2c1.3-1.6,2.2-3.8,2.2-6
						c0-3.1-1.3-5.8-3.6-7.6l0,0c0,0-1.1-1.1-1.3-2.2c0-0.2,0-0.4,0-0.7c0.4-0.7,0.7-1.1,0.9-1.8c0.2-0.2,0.2-0.4,0.2-0.4h-0.2
						c0.9-2.2,0.9-4.7-0.2-6.9c-1.1-2.4-2.9-4-4.9-5.1h0.2c0,0-2-0.9-2.4-2c-0.4-1.1,0.2-2.7,0.2-2.7l-0.2,0.2
						c0.4-2.9-0.4-5.8-2.7-8c-2.2-2.2-5.3-3.1-8.5-2.7c-0.4,0-0.9,0-1.3-0.2c-0.7-0.2-0.9-1.1-1.3-1.6c-0.7-2.9-2.7-5.3-5.8-6.5
						c-2.4-1.1-5.3-0.9-7.6,0.2l0,0c0,0-0.2,0.2-0.4,0.2h-0.2c-0.7,0.2-1.6,0.7-2.2,0.4c-0.7-0.2-1.1-0.7-1.6-1.1
						c-1.8-2.5-4.7-4.2-8-4.2c-2.9,0-5.6,1.3-7.4,3.3v-0.2c0,0-0.9,1.3-2,1.8c-1.1,0.2-3.1-0.9-3.1-0.9v0.2
						c-2.2-0.7-4.7-0.9-6.9,0.2c-2.5,0.9-4.2,2.9-5.1,5.1v-0.2c0,0,0,0.4-0.2,0.9c0,0.2-0.2,0.2-0.2,0.4c-0.2,0.7-0.4,1.1-0.9,1.6
						c-1.1,0.7-2.7,0.4-2.7,0.4l0,0c-2.7-0.2-5.6,0.7-7.6,2.9c-2,2-2.9,4.7-2.9,7.4l0,0c0,0,0.4,1.6-0.2,2.7
						c-0.2,0.4-0.7,0.9-1.1,1.1c-2.9,0.7-5.6,2.7-6.7,5.8c-1.1,2.9-0.9,6.2,0.7,8.7l-0.2-0.2c0,0,0.9,1.3,0.7,2.7
						c-0.2,1.1-2,2.4-2,2.4l0,0c-2,1.8-3.1,4.5-3.1,7.1c0,3.1,1.6,5.8,3.8,7.6c0.4,0.4,0.9,0.9,1.1,1.6c0.2,1.1-0.9,3.1-0.9,3.1l0,0
						c-0.9,2.2-1.1,4.9,0,7.4c1.3,3.3,4.5,5.3,7.6,5.8c0.2,0.2,0.7,0.2,0.9,0.7c0.2,0.2,0.4,0.7,0.4,0.9c0,2.7,0.9,5.3,2.9,7.4
						s4.5,2.9,6.9,2.9l0,0l0,0c0.2,0,0.7,0,0.9,0c0.7,0,1.6,0,2,0.4c0.7,0.4,0.9,1.1,1.1,1.6c0,0.2,0,0.2,0.2,0.4c0,0.2,0,0.2,0,0.2
						l0,0c0.9,2.4,2.9,4.5,5.3,5.6c2,0.9,4.2,0.9,6.2,0.4l0,0c0,0,0,0,0.2,0c0.4-0.2,0.9-0.2,1.3-0.4c0.7-0.2,1.3-0.2,1.8,0
						c0.2,0,0.4,0.2,0.7,0.4c1.8,2.7,4.7,4.5,8,4.5c2.9,0,5.3-1.1,7.1-3.1l0,0c0,0,0-0.2,0.2-0.4c0.2-0.2,0.4-0.4,0.4-0.7
						c0.2-0.4,0.7-0.7,1.1-0.9c1.1-0.4,3.1,0.7,3.1,0.7l-0.2-0.2c2.2,0.9,4.7,0.9,7.1,0c2.5-1.1,4.5-2.9,5.3-5.3v0.2
						c0,0,0.4-2.2,1.6-2.7c1.1-0.7,2.7-0.2,2.7-0.2l-0.2-0.2c2.7,0,5.3-0.9,7.3-2.9c2-2,2.9-4.5,2.9-6.9l0,0c0,0,0-0.2,0-0.4
						c0-0.2,0-0.4,0-0.7c0-0.4,0-1.1,0.2-1.6c0.4-1.1,2.7-1.8,2.7-1.8h-0.2c2.4-0.9,4.7-2.9,5.8-5.6c1.1-2.7,0.9-5.3-0.2-7.8
						c-0.2-0.7-0.2-1.3,0-1.8C531.9,325.9,532.1,325.7,532.3,325.5z M506.9,338.8c-2,2-2.9,4.5-2.9,6.9c-2.2-0.9-4.9-1.1-7.6,0
						c-2.7,1.1-4.5,3.1-5.3,5.6c-1.8-1.6-4-2.4-6.5-2.4c-2.2,0-4,0.7-5.6,1.8c-0.9-2.2-2.7-4-5.1-4.9c-2.7-1.1-5.3-0.9-7.6,0.2
						c0-2.5-0.9-5.1-2.9-6.9c-2-2-4.5-2.9-7.1-2.9c0.2-1.8,0.2-3.8-0.7-5.6c-1.1-2.4-3.1-4.2-5.3-5.3c1.8-1.8,2.9-4.2,2.9-6.9
						c0-3.1-1.6-6-3.8-7.8c2.9-0.7,5.3-2.9,6.5-5.8c1.1-2.4,0.9-5.1,0-7.6c2.5,0,4.9-0.9,6.7-2.9c2-2,2.9-4.5,2.9-6.9
						c2.2,0.9,4.9,1.1,7.6,0c2.5-1.1,4.5-3.1,5.3-5.3c1.8,1.6,4,2.5,6.5,2.5c2.9,0,5.6-1.3,7.4-3.3c0.9,2.7,2.9,5.1,5.6,6.2
						c2.5,1.1,5.1,0.9,7.6,0c0,2.5,0.9,5.1,2.9,6.9c1.8,1.8,4,2.7,6.2,2.9c-1.6,2.5-2,5.8-0.7,8.9c1.1,2.5,3.1,4.2,5.3,5.1
						c-1.8,1.8-2.9,4.2-2.9,6.9c0,2,0.7,4,1.8,5.6c-1.8,1.1-3.1,2.7-3.8,4.7c-1.1,2.4-0.9,5.1,0,7.6
						C511.6,335.9,508.9,336.8,506.9,338.8z"/>
				</g>
				<g>
					<g>
						<g>
							<path fill="#FFFFFF" d="M517.9,318.1c-0.7,17.8-16,31.6-33.9,31c-18-0.7-32.1-15.8-31.2-33.6c0.7-17.8,16-31.6,33.9-31
								C504.7,285.4,518.8,300.3,517.9,318.1z"/>
							<path fill="#B52125" d="M485.3,351.3c-0.4,0-0.9,0-1.6,0c-9.4-0.4-18-4.2-24.3-11.1s-9.6-15.6-9.1-24.7
								c0.9-18.9,16.9-33.9,36.3-33c19.2,0.9,34.3,16.9,33.4,35.9C519.4,336.8,504.3,351.3,485.3,351.3L485.3,351.3z M485.3,286.9
								c-16.3,0-29.6,12.7-30.3,28.7c-0.4,8,2.5,15.6,8,21.6c5.6,5.8,12.9,9.4,20.9,9.6c16.9,0.7,31-12.3,31.6-28.7
								c0.7-16.5-12.2-30.5-29-31.2C486.2,286.9,485.8,286.9,485.3,286.9L485.3,286.9z"/>
						</g>
					</g>
				</g>
			</g>
		</g>
	</g>
	<g>
		<path fill="#4D4D4D" d="M469.7,210.5c-0.2,1.8-0.8,3.1-1.9,4s-2.5,1.4-4.3,1.4c-1.2,0-2.3-0.3-3.3-0.9c-1-0.6-1.7-1.5-2.2-2.6
			s-0.8-2.4-0.8-3.9v-2.2c0-1.5,0.3-2.8,0.8-3.9s1.3-2,2.2-2.7c1-0.6,2.1-0.9,3.4-0.9c1.8,0,3.2,0.5,4.2,1.4s1.6,2.3,1.8,4h-1.4
			c-0.4-2.8-1.9-4.3-4.6-4.3c-1.5,0-2.7,0.6-3.6,1.7s-1.3,2.7-1.3,4.7v2c0,1.9,0.4,3.5,1.3,4.6c0.9,1.1,2.1,1.7,3.6,1.7
			c1.5,0,2.6-0.4,3.3-1.1c0.8-0.7,1.2-1.8,1.4-3.2H469.7z"/>
		<path fill="#4D4D4D" d="M482.4,207.7h-7.8v6.8h9v1.2h-10.4V199h10.3v1.2h-8.9v6.3h7.8V207.7z"/>
		<path fill="#4D4D4D" d="M486.5,215.7V199h4.9c1.8,0,3.1,0.4,4.1,1.1c0.9,0.7,1.4,1.8,1.4,3.3c0,0.9-0.2,1.6-0.7,2.3
			c-0.5,0.6-1.1,1.1-1.9,1.4c1,0.2,1.8,0.7,2.3,1.4c0.6,0.7,0.9,1.6,0.9,2.6c0,1.5-0.5,2.6-1.4,3.5c-1,0.8-2.3,1.2-4,1.2H486.5z
			 M487.9,206.5h3.9c1.2,0,2.1-0.3,2.7-0.8c0.6-0.5,1-1.3,1-2.3c0-1.1-0.3-1.9-1-2.4c-0.7-0.5-1.7-0.8-3-0.8h-3.5V206.5z
			 M487.9,207.7v6.8h4.2c1.2,0,2.2-0.3,2.9-0.9c0.7-0.6,1.1-1.5,1.1-2.6c0-1-0.3-1.8-1-2.4c-0.7-0.6-1.6-0.9-2.8-0.9H487.9z"/>
		<path fill="#4D4D4D" d="M509.9,211h-7.6l-1.7,4.7h-1.5l6.3-16.7h1.3l6.3,16.7h-1.5L509.9,211z M502.8,209.9h6.7l-3.4-9.1
			L502.8,209.9z"/>
		<path fill="#4D4D4D" d="M525.1,211.6c0-0.9-0.3-1.7-1-2.2c-0.7-0.5-1.8-1.1-3.6-1.5c-1.7-0.5-3-1-3.8-1.6
			c-1.1-0.8-1.7-1.9-1.7-3.2c0-1.3,0.5-2.3,1.6-3.1c1.1-0.8,2.4-1.2,4-1.2c1.1,0,2.1,0.2,3,0.6c0.9,0.4,1.6,1,2,1.8
			c0.5,0.8,0.7,1.6,0.7,2.6H525c0-1.1-0.4-2.1-1.2-2.8c-0.8-0.7-1.8-1-3.1-1c-1.3,0-2.3,0.3-3.1,0.9s-1.1,1.3-1.1,2.2
			c0,0.9,0.3,1.5,1,2.1c0.7,0.5,1.8,1,3.3,1.4c1.5,0.4,2.6,0.8,3.4,1.3c0.8,0.4,1.4,1,1.7,1.6s0.6,1.3,0.6,2.2
			c0,1.3-0.5,2.4-1.6,3.2s-2.4,1.2-4.2,1.2c-1.2,0-2.3-0.2-3.2-0.6c-1-0.4-1.7-1-2.2-1.8c-0.5-0.8-0.8-1.6-0.8-2.6h1.4
			c0,1.2,0.4,2.1,1.3,2.8c0.9,0.7,2.1,1,3.5,1c1.3,0,2.3-0.3,3.1-0.9C524.7,213.3,525.1,212.6,525.1,211.6z"/>
		<path fill="#4D4D4D" d="M409.6,239.3H402l-1.7,4.7h-1.5l6.3-16.7h1.3l6.3,16.7h-1.5L409.6,239.3z M402.4,238.1h6.7l-3.4-9.1
			L402.4,238.1z"/>
		<path fill="#4D4D4D" d="M422.3,240.8c0-0.7-0.3-1.2-0.8-1.6c-0.5-0.4-1.4-0.7-2.5-1c-1.1-0.2-2-0.5-2.6-0.8s-1.1-0.7-1.4-1.1
			c-0.3-0.4-0.4-1-0.4-1.6c0-1,0.4-1.8,1.2-2.4s1.9-1,3.1-1c1.4,0,2.5,0.3,3.3,1s1.3,1.6,1.3,2.7h-1.4c0-0.7-0.3-1.3-0.9-1.8
			c-0.6-0.5-1.4-0.7-2.3-0.7c-0.9,0-1.6,0.2-2.2,0.6c-0.5,0.4-0.8,0.9-0.8,1.6c0,0.6,0.2,1.1,0.7,1.4c0.5,0.3,1.3,0.7,2.5,0.9
			c1.2,0.3,2.1,0.6,2.7,0.9c0.6,0.3,1,0.7,1.3,1.2s0.4,1,0.4,1.6c0,1-0.4,1.9-1.3,2.5c-0.8,0.6-2,0.9-3.3,0.9
			c-1.4,0-2.6-0.4-3.5-1.1s-1.3-1.6-1.3-2.7h1.4c0.1,0.8,0.4,1.4,1,1.9s1.4,0.7,2.5,0.7c1,0,1.7-0.2,2.3-0.6
			C422,242,422.3,241.4,422.3,240.8z"/>
		<path fill="#4D4D4D" d="M434.2,240.8c0-0.7-0.3-1.2-0.8-1.6c-0.5-0.4-1.4-0.7-2.5-1c-1.1-0.2-2-0.5-2.6-0.8s-1.1-0.7-1.4-1.1
			c-0.3-0.4-0.4-1-0.4-1.6c0-1,0.4-1.8,1.2-2.4c0.8-0.6,1.9-1,3.1-1c1.4,0,2.5,0.3,3.3,1s1.3,1.6,1.3,2.7h-1.4
			c0-0.7-0.3-1.3-0.9-1.8c-0.6-0.5-1.4-0.7-2.3-0.7c-0.9,0-1.6,0.2-2.2,0.6s-0.8,0.9-0.8,1.6c0,0.6,0.2,1.1,0.7,1.4
			c0.5,0.3,1.3,0.7,2.5,0.9s2.1,0.6,2.7,0.9c0.6,0.3,1,0.7,1.3,1.2s0.4,1,0.4,1.6c0,1-0.4,1.9-1.3,2.5c-0.8,0.6-2,0.9-3.3,0.9
			c-1.4,0-2.6-0.4-3.5-1.1s-1.3-1.6-1.3-2.7h1.4c0.1,0.8,0.4,1.4,1,1.9c0.6,0.4,1.4,0.7,2.5,0.7c1,0,1.7-0.2,2.3-0.6
			C433.9,242,434.2,241.4,434.2,240.8z"/>
		<path fill="#4D4D4D" d="M438.6,227.9c0-0.3,0.1-0.5,0.3-0.7c0.2-0.2,0.4-0.3,0.7-0.3s0.5,0.1,0.7,0.3s0.3,0.4,0.3,0.7
			c0,0.3-0.1,0.5-0.3,0.7c-0.2,0.2-0.4,0.3-0.7,0.3s-0.5-0.1-0.7-0.3C438.7,228.4,438.6,228.2,438.6,227.9z M440.2,244h-1.4v-12.4
			h1.4V244z"/>
		<path fill="#4D4D4D" d="M451.4,240.8c0-0.7-0.3-1.2-0.8-1.6c-0.5-0.4-1.4-0.7-2.5-1c-1.1-0.2-2-0.5-2.6-0.8s-1.1-0.7-1.4-1.1
			c-0.3-0.4-0.4-1-0.4-1.6c0-1,0.4-1.8,1.2-2.4c0.8-0.6,1.9-1,3.1-1c1.4,0,2.5,0.3,3.3,1s1.3,1.6,1.3,2.7h-1.4
			c0-0.7-0.3-1.3-0.9-1.8c-0.6-0.5-1.4-0.7-2.3-0.7c-0.9,0-1.6,0.2-2.2,0.6s-0.8,0.9-0.8,1.6c0,0.6,0.2,1.1,0.7,1.4
			c0.5,0.3,1.3,0.7,2.5,0.9s2.1,0.6,2.7,0.9c0.6,0.3,1,0.7,1.3,1.2s0.4,1,0.4,1.6c0,1-0.4,1.9-1.3,2.5c-0.8,0.6-2,0.9-3.3,0.9
			c-1.4,0-2.6-0.4-3.5-1.1s-1.3-1.6-1.3-2.7h1.4c0.1,0.8,0.4,1.4,1,1.9c0.6,0.4,1.4,0.7,2.5,0.7c1,0,1.7-0.2,2.3-0.6
			C451.1,242,451.4,241.4,451.4,240.8z"/>
		<path fill="#4D4D4D" d="M458,228.4v3.2h2.6v1.1H458v8.3c0,0.7,0.1,1.2,0.4,1.5c0.2,0.3,0.7,0.5,1.2,0.5c0.2,0,0.6,0,1.1-0.1
			l0.1,1.1c-0.4,0.1-0.8,0.2-1.5,0.2c-0.9,0-1.6-0.3-2.1-0.8c-0.4-0.5-0.6-1.4-0.6-2.4v-8.3h-2.3v-1.1h2.3v-3.2H458z"/>
		<path fill="#4D4D4D" d="M468.2,244.2c-1.1,0-2-0.3-2.9-0.8c-0.9-0.5-1.5-1.2-2-2.2c-0.5-0.9-0.7-2-0.7-3.1v-0.5
			c0-1.2,0.2-2.3,0.7-3.2c0.5-1,1.1-1.7,1.9-2.3c0.8-0.5,1.7-0.8,2.7-0.8c1.5,0,2.7,0.5,3.6,1.5c0.9,1,1.3,2.4,1.3,4.2v0.8H464v0.3
			c0,1.4,0.4,2.6,1.2,3.5c0.8,0.9,1.8,1.4,3,1.4c0.7,0,1.4-0.1,1.9-0.4s1.1-0.7,1.5-1.3l0.9,0.7
			C471.6,243.5,470.2,244.2,468.2,244.2z M468,232.5c-1,0-1.9,0.4-2.6,1.1s-1.1,1.8-1.3,3.1h7.5v-0.1c0-1.2-0.4-2.2-1-2.9
			S469,232.5,468,232.5z M471.3,229.4v0.1h-1.3l-1.9-2.1l-1.9,2.1H465v-0.1l2.7-2.9h0.9L471.3,229.4z"/>
		<path fill="#4D4D4D" d="M476.9,231.5l0,2.1c0.5-0.8,1-1.3,1.7-1.8s1.5-0.6,2.3-0.6c1.3,0,2.3,0.4,3,1.1s1,1.9,1,3.4v8.2h-1.4v-8.2
			c0-1.1-0.2-1.9-0.7-2.5s-1.2-0.8-2.2-0.8c-0.8,0-1.6,0.3-2.3,0.8c-0.7,0.5-1.1,1.2-1.5,2.2v8.5h-1.4v-12.4H476.9z"/>
		<path fill="#4D4D4D" d="M493.1,243c1,0,1.8-0.3,2.4-0.8c0.6-0.5,1-1.2,1-2.1h1.3c0,0.8-0.3,1.4-0.7,2.1c-0.4,0.6-1,1.1-1.7,1.5
			c-0.7,0.4-1.5,0.5-2.3,0.5c-1.6,0-2.9-0.6-3.9-1.7c-1-1.1-1.4-2.7-1.4-4.6v-0.4c0-1.2,0.2-2.3,0.6-3.2s1-1.7,1.8-2.2
			s1.7-0.8,2.8-0.8c1.4,0,2.5,0.4,3.4,1.2c0.9,0.8,1.4,1.9,1.4,3.2h-1.3c-0.1-1-0.4-1.8-1-2.4c-0.6-0.6-1.4-0.9-2.4-0.9
			c-1.2,0-2.2,0.4-2.9,1.3c-0.7,0.9-1,2.2-1,3.8v0.4c0,1.6,0.3,2.8,1,3.7C490.9,242.6,491.8,243,493.1,243z"/>
		<path fill="#4D4D4D" d="M500.5,227.9c0-0.3,0.1-0.5,0.3-0.7s0.4-0.3,0.7-0.3c0.3,0,0.5,0.1,0.7,0.3s0.3,0.4,0.3,0.7
			c0,0.3-0.1,0.5-0.3,0.7c-0.2,0.2-0.4,0.3-0.7,0.3c-0.3,0-0.5-0.1-0.7-0.3C500.6,228.4,500.5,228.2,500.5,227.9z M502.1,244h-1.4
			v-12.4h1.4V244z"/>
		<path fill="#4D4D4D" d="M513.7,244c-0.1-0.4-0.2-1-0.3-1.7c-0.5,0.6-1.1,1.1-1.8,1.5s-1.5,0.5-2.4,0.5c-1.2,0-2.2-0.3-2.9-1
			c-0.7-0.7-1.1-1.5-1.1-2.5c0-1.2,0.5-2.2,1.5-2.9c1-0.7,2.4-1.1,4.2-1.1h2.5v-1.4c0-0.9-0.3-1.6-0.8-2.1c-0.5-0.5-1.3-0.8-2.4-0.8
			c-1,0-1.7,0.2-2.4,0.7c-0.6,0.5-0.9,1.1-0.9,1.8l-1.4,0c0-1,0.5-1.8,1.4-2.6c0.9-0.7,2-1.1,3.4-1.1c1.4,0,2.5,0.3,3.3,1
			c0.8,0.7,1.2,1.7,1.2,2.9v5.9c0,1.2,0.1,2.1,0.4,2.7v0.1H513.7z M509.4,243c0.9,0,1.7-0.2,2.5-0.7c0.7-0.4,1.2-1,1.6-1.8v-2.7H511
			c-1.4,0-2.4,0.3-3.2,0.8c-0.8,0.5-1.2,1.2-1.2,2c0,0.7,0.3,1.3,0.8,1.7C507.9,242.7,508.6,243,509.4,243z"/>
		<path fill="#4D4D4D" d="M534,239.8c0-0.9-0.3-1.7-1-2.2c-0.7-0.5-1.8-1.1-3.6-1.5c-1.7-0.5-3-1-3.8-1.6c-1.1-0.8-1.7-1.9-1.7-3.2
			c0-1.3,0.5-2.3,1.6-3.1c1.1-0.8,2.4-1.2,4-1.2c1.1,0,2.1,0.2,3,0.6c0.9,0.4,1.6,1,2,1.8c0.5,0.8,0.7,1.6,0.7,2.6h-1.4
			c0-1.1-0.4-2.1-1.2-2.8c-0.8-0.7-1.8-1-3.1-1c-1.3,0-2.3,0.3-3.1,0.9s-1.1,1.3-1.1,2.2c0,0.9,0.3,1.5,1,2.1c0.7,0.5,1.8,1,3.3,1.4
			c1.5,0.4,2.6,0.8,3.4,1.3c0.8,0.4,1.4,1,1.7,1.6s0.6,1.3,0.6,2.2c0,1.3-0.5,2.4-1.6,3.2s-2.4,1.2-4.2,1.2c-1.2,0-2.3-0.2-3.2-0.6
			c-1-0.4-1.7-1-2.2-1.8c-0.5-0.8-0.8-1.6-0.8-2.6h1.4c0,1.2,0.4,2.1,1.3,2.8c0.9,0.7,2.1,1,3.5,1c1.3,0,2.3-0.3,3.1-0.9
			C533.6,241.6,534,240.8,534,239.8z"/>
		<path fill="#4D4D4D" d="M537.4,237.6c0-1.2,0.2-2.3,0.7-3.2c0.5-1,1.1-1.7,2-2.2c0.8-0.5,1.8-0.8,2.9-0.8c1.7,0,3,0.6,4,1.7
			c1,1.2,1.5,2.7,1.5,4.6v0.3c0,1.2-0.2,2.3-0.7,3.2s-1.1,1.7-2,2.2c-0.8,0.5-1.8,0.8-2.9,0.8c-1.6,0-3-0.6-4-1.7
			c-1-1.2-1.5-2.7-1.5-4.6V237.6z M538.7,237.9c0,1.5,0.4,2.7,1.2,3.7c0.8,1,1.8,1.4,3,1.4c1.2,0,2.2-0.5,3-1.4
			c0.8-1,1.2-2.2,1.2-3.8v-0.3c0-0.9-0.2-1.8-0.5-2.6c-0.4-0.8-0.8-1.4-1.5-1.8c-0.6-0.4-1.4-0.6-2.2-0.6c-1.2,0-2.2,0.5-3,1.4
			s-1.2,2.2-1.2,3.8V237.9z"/>
		<path fill="#4D4D4D" d="M555.9,243c1,0,1.8-0.3,2.4-0.8s1-1.2,1.1-2.1h1.3c0,0.8-0.3,1.4-0.7,2.1c-0.4,0.6-1,1.1-1.7,1.5
			c-0.7,0.4-1.5,0.5-2.3,0.5c-1.6,0-2.9-0.6-3.9-1.7c-1-1.1-1.4-2.7-1.4-4.6v-0.4c0-1.2,0.2-2.3,0.6-3.2s1-1.7,1.8-2.2
			s1.7-0.8,2.8-0.8c1.4,0,2.5,0.4,3.4,1.2c0.9,0.8,1.4,1.9,1.4,3.2h-1.3c-0.1-1-0.4-1.8-1.1-2.4c-0.6-0.6-1.4-0.9-2.4-0.9
			c-1.2,0-2.2,0.4-2.9,1.3c-0.7,0.9-1,2.2-1,3.8v0.4c0,1.6,0.3,2.8,1,3.7C553.7,242.6,554.6,243,555.9,243z"/>
		<path fill="#4D4D4D" d="M563.3,227.9c0-0.3,0.1-0.5,0.3-0.7c0.2-0.2,0.4-0.3,0.7-0.3c0.3,0,0.5,0.1,0.7,0.3
			c0.2,0.2,0.3,0.4,0.3,0.7c0,0.3-0.1,0.5-0.3,0.7c-0.2,0.2-0.4,0.3-0.7,0.3c-0.3,0-0.5-0.1-0.7-0.3
			C563.4,228.4,563.3,228.2,563.3,227.9z M564.9,244h-1.4v-12.4h1.4V244z"/>
		<path fill="#4D4D4D" d="M576.5,244c-0.1-0.4-0.2-1-0.3-1.7c-0.5,0.6-1.1,1.1-1.8,1.5s-1.5,0.5-2.4,0.5c-1.2,0-2.2-0.3-2.9-1
			c-0.7-0.7-1.1-1.5-1.1-2.5c0-1.2,0.5-2.2,1.5-2.9c1-0.7,2.4-1.1,4.2-1.1h2.5v-1.4c0-0.9-0.3-1.6-0.8-2.1c-0.5-0.5-1.3-0.8-2.4-0.8
			c-1,0-1.7,0.2-2.4,0.7c-0.6,0.5-0.9,1.1-0.9,1.8l-1.4,0c0-1,0.5-1.8,1.4-2.6c0.9-0.7,2-1.1,3.4-1.1c1.4,0,2.5,0.3,3.3,1
			c0.8,0.7,1.2,1.7,1.2,2.9v5.9c0,1.2,0.1,2.1,0.4,2.7v0.1H576.5z M572.2,243c0.9,0,1.7-0.2,2.5-0.7c0.7-0.4,1.2-1,1.6-1.8v-2.7
			h-2.5c-1.4,0-2.4,0.3-3.2,0.8c-0.8,0.5-1.2,1.2-1.2,2c0,0.7,0.3,1.3,0.8,1.7C570.7,242.7,571.4,243,572.2,243z"/>
		<path fill="#4D4D4D" d="M582.8,244h-1.4v-17.6h1.4V244z"/>
	</g>
</g>
<g>
	<g>
		<g>
			<path fill="#4D4D4D" d="M314.1,210.5L314.1,210.5c0,1.8-0.4,2.9-1.6,4c-1.1,0.9-2.5,1.6-4.2,1.6c-1.8,0-3.1-0.7-4.2-2
				c-1.1-1.3-1.6-3.1-1.6-5.1v-2.7c0-2,0.4-3.8,1.6-5.1c1.1-1.3,2.5-2,4.2-2c1.8,0,3.1,0.4,4.2,1.3c1.1,0.9,1.6,2.2,1.6,4l0,0h-1.3
				c0-1.3-0.4-2.4-1.1-3.1c-0.9-0.7-1.8-1.1-3.3-1.1c-1.3,0-2.5,0.7-3.3,1.8c-0.9,1.1-1.3,2.7-1.3,4.2v2.7c0,1.8,0.4,3.3,1.3,4.5
				c0.9,1.1,2,1.8,3.3,1.8s2.5-0.4,3.3-1.1c0.9-0.7,1.1-1.8,1.1-3.1L314.1,210.5L314.1,210.5z"/>
			<path fill="#4D4D4D" d="M325.9,207.6h-7.1v6.9h8.2v1.1h-9.6v-16.7h9.6v1.1h-8.2v6.2h7.1C325.9,206.5,325.9,207.6,325.9,207.6z"/>
			<path fill="#4D4D4D" d="M329.9,215.9v-16.7h4.7c1.6,0,2.9,0.4,3.8,1.1c0.9,0.7,1.3,1.8,1.3,3.3c0,0.9-0.2,1.6-0.7,2.2
				c-0.4,0.7-1.1,1.1-1.8,1.3c1.1,0.2,1.8,0.7,2.5,1.3c0.7,0.9,0.9,1.8,0.9,2.7c0,1.6-0.4,2.7-1.3,3.3c-0.9,0.9-2.2,1.1-3.8,1.1
				C335.7,215.9,329.9,215.9,329.9,215.9z M331.2,206.5h3.8c1.1,0,2-0.2,2.7-0.9c0.7-0.4,0.9-1.3,0.9-2.2c0-1.1-0.4-1.8-1.1-2.4
				c-0.7-0.4-1.6-0.9-2.9-0.9h-3.3C331.2,200.3,331.2,206.5,331.2,206.5z M331.2,207.8v6.9h4.5c1.1,0,2-0.2,2.9-0.9
				c0.7-0.7,1.1-1.6,1.1-2.5c0-0.9-0.2-1.8-0.9-2.4c-0.7-0.7-1.6-0.9-2.7-0.9h-0.2C335.7,207.8,331.2,207.8,331.2,207.8z"/>
			<path fill="#4D4D4D" d="M352.1,211.2H345l-1.6,4.7h-1.3l5.8-16.7h1.3l5.8,16.7h-1.3L352.1,211.2z M345.5,209.9h6.2l-3.1-8.9l0,0
				L345.5,209.9z"/>
			<path fill="#4D4D4D" d="M366.6,211.6c0-0.9-0.2-1.6-0.9-2c-0.7-0.4-1.8-1.1-3.3-1.6c-1.8-0.4-3.1-1.1-4-1.8s-1.3-1.8-1.3-2.9
				c0-1.3,0.4-2.2,1.6-3.1c1.1-0.9,2.2-1.3,3.8-1.3s2.9,0.4,4,1.3c0.9,0.9,1.6,2,1.3,3.6l0,0h-1.1c0-1.1-0.4-2-1.1-2.7
				s-1.8-1.1-2.9-1.1c-1.3,0-2.2,0.2-2.9,0.9s-1.1,1.3-1.1,2.2c0,0.9,0.2,1.6,0.9,2c0.7,0.4,1.8,1.1,3.3,1.6
				c1.8,0.4,2.9,1.1,3.8,1.8c0.9,0.7,1.3,1.8,1.3,2.9c0,1.3-0.4,2.2-1.6,3.1c-1.1,0.9-2.4,1.1-4,1.1s-2.9-0.4-4.2-1.3
				c-1.1-0.9-1.8-2-1.8-3.6l0,0h1.1c0,1.3,0.4,2.2,1.3,2.9c0.9,0.7,2,0.9,3.1,0.9c1.3,0,2.2-0.2,2.9-0.9
				C366.2,213.4,366.6,212.8,366.6,211.6z"/>
			<path fill="#4D4D4D" d="M314.9,239.7c0-0.9-0.2-1.6-0.9-2c-0.7-0.4-1.8-1.1-3.3-1.6c-1.8-0.4-3.1-1.1-4-1.8
				c-0.9-0.7-1.3-1.8-1.3-2.9c0-1.3,0.4-2.2,1.6-3.1s2.2-1.3,3.8-1.3c1.6,0,2.9,0.4,4,1.3c0.9,0.9,1.6,2,1.3,3.6l0,0h-1.3
				c0-1.1-0.4-2-1.1-2.7c-0.7-0.7-1.8-1.1-2.9-1.1c-1.3,0-2.2,0.2-2.9,0.9s-1.1,1.3-1.1,2.2c0,0.9,0.2,1.6,0.9,2
				c0.7,0.4,1.8,1.1,3.3,1.6c1.8,0.4,2.9,1.1,3.8,1.8s1.3,1.8,1.3,2.9c0,1.3-0.4,2.2-1.6,3.1c-1.1,0.9-2.5,1.1-4,1.1
				s-2.9-0.4-4.2-1.3c-1.1-0.9-1.8-2-1.8-3.6l0,0h1.1c0,1.3,0.4,2.2,1.3,2.9s2,0.9,3.1,0.9c1.3,0,2.2-0.2,2.9-0.9
				C314.5,241.5,314.9,240.8,314.9,239.7z"/>
			<path fill="#4D4D4D" d="M326.8,243.9c0-0.4-0.2-0.9-0.2-1.1c0-0.2,0-0.7,0-0.9c-0.4,0.7-0.9,1.1-1.8,1.6
				c-0.7,0.4-1.6,0.7-2.5,0.7c-1.1,0-2-0.2-2.7-0.9c-0.7-0.7-0.9-1.6-0.9-2.7c0-1.1,0.4-2,1.3-2.7c0.9-0.7,2.2-1.1,3.6-1.1h2.9v-1.6
				c0-0.9-0.2-1.6-0.9-2c-0.7-0.4-1.3-0.7-2.2-0.7s-1.6,0.2-2.2,0.7c-0.4,0.4-0.9,1.1-0.9,1.8h-1.1l0,0c0-0.9,0.4-1.8,1.1-2.4
				c0.9-0.7,1.8-1.1,3.1-1.1s2.5,0.4,3.1,1.1c0.9,0.7,1.1,1.8,1.1,2.9v6c0,0.4,0,0.9,0,1.3c0,0.4,0.2,0.9,0.2,1.1H326.8L326.8,243.9
				z M322.3,242.8c1.1,0,1.8-0.2,2.7-0.7c0.7-0.4,1.3-1.1,1.6-2v-2.4h-2.9c-1.1,0-2,0.2-2.7,0.9c-0.7,0.4-1.1,1.1-1.1,2
				c0,0.7,0.2,1.3,0.7,1.8C321,242.6,321.6,242.8,322.3,242.8z"/>
			<path fill="#4D4D4D" d="M339,241.9c-0.4,0.7-0.9,1.3-1.6,1.6c-0.7,0.4-1.3,0.7-2.2,0.7c-1.3,0-2.2-0.4-2.9-1.3
				c-0.7-0.9-1.1-2.2-1.1-4v-7.3h1.3v7.1c0,1.6,0.2,2.7,0.7,3.3s1.1,0.9,2,0.9s1.8-0.2,2.5-0.7c0.7-0.4,1.1-1.1,1.3-1.8v-8.9h1.3
				v12.3h-1.1L339,241.9z M337.4,226.6h1.6l0,0l-2.7,2.9h-1.1L337.4,226.6z"/>
			<path fill="#4D4D4D" d="M343.2,237.7c0-2,0.4-3.6,1.1-4.7c0.9-1.1,2-1.8,3.3-1.8c0.9,0,1.6,0.2,2.2,0.4c0.7,0.4,1.1,0.9,1.6,1.6
				v-7.4h1.3v17.8h-1.1l-0.2-1.8c-0.4,0.7-0.9,1.1-1.6,1.6c-0.7,0.4-1.3,0.4-2.2,0.4c-1.3,0-2.5-0.4-3.3-1.6
				c-0.9-1.1-1.1-2.7-1.1-4.5V237.7L343.2,237.7z M344.6,237.9c0,1.6,0.2,2.7,0.9,3.6c0.7,0.9,1.3,1.3,2.7,1.3
				c0.9,0,1.6-0.2,2.2-0.7c0.7-0.4,1.1-0.9,1.3-1.6v-5.8c-0.2-0.7-0.7-1.3-1.3-1.8c-0.4-0.4-1.3-0.7-2.2-0.7c-1.1,0-2,0.4-2.7,1.6
				c-0.7,0.9-0.9,2.2-0.9,3.8V237.9L344.6,237.9z"/>
			<path fill="#4D4D4D" d="M360.8,244.2c-1.6,0-2.9-0.7-3.8-1.8c-0.9-1.1-1.3-2.7-1.3-4.5v-0.7c0-1.8,0.4-3.3,1.6-4.5
				c0.9-1.1,2.2-1.8,3.6-1.8c1.3,0,2.7,0.4,3.3,1.3c0.9,0.9,1.1,2.2,1.1,3.8v1.1H357v0.4c0,1.3,0.4,2.7,1.1,3.6s1.6,1.3,2.9,1.3
				c0.7,0,1.3-0.2,2-0.4c0.7-0.2,1.1-0.7,1.6-0.9l0.7,0.9c-0.4,0.4-0.9,0.9-1.6,1.1C362.6,243.9,361.9,244.2,360.8,244.2z
				 M360.8,232.4c-1.1,0-1.8,0.4-2.4,1.1s-1.1,1.8-1.1,2.9l0,0h6.9v-0.2c0-1.1-0.2-2-0.9-2.7S361.9,232.4,360.8,232.4z"/>
		</g>
	</g>
	<g>
		<g>
			<g>
				<polygon fill="#DC9928" points="321.9,328.8 286.2,377.6 306.9,373.6 318.3,388.3 339.7,334.1 				"/>
			</g>
			<g>
				<polygon fill="#DC9928" points="346.4,328.8 382,377.6 361.3,373.6 350.1,388.3 328.5,334.1 				"/>
			</g>
			<g>
				<g>
					<path fill="#F4D256" d="M382.9,325.5l0.2-0.2c0.4-0.4,0.9-0.7,0.9-0.7h-0.2c1.3-1.6,2.2-3.8,2.2-6.2c0-3.1-1.3-5.8-3.6-7.6l0,0
						c0,0-1.1-1.1-1.3-2.5c0-0.2,0-0.4,0-0.7c0.4-0.7,0.7-1.1,0.9-1.8c0.2-0.2,0.4-0.4,0.4-0.4h-0.2c0.7-2.2,0.7-4.7-0.2-6.9
						c-0.9-2.5-2.9-4.2-4.9-5.1h0.2c0,0-2-0.9-2.5-2c-0.4-1.1,0.2-2.7,0.2-2.7l-0.2,0.2c0.4-2.9-0.4-6-2.7-8.2s-5.6-3.1-8.5-2.7
						c-0.4,0-0.9,0-1.3-0.2c-0.7-0.2-0.9-1.1-1.3-1.6c-0.9-2.9-2.9-5.3-5.8-6.5c-2.4-1.1-5.3-0.9-7.6,0.2l0,0c0,0-0.2,0.2-0.4,0.2
						H347c-0.7,0.2-1.6,0.7-2.5,0.4c-0.7-0.2-1.3-0.7-1.6-1.1c-1.8-2.5-4.7-4.2-8-4.2c-2.9,0-5.6,1.3-7.4,3.3v-0.2
						c0,0-0.9,1.3-2,1.8c-1.1,0.2-3.1-0.9-3.1-0.9v0.2c-2.2-0.7-4.7-0.7-6.9,0.2c-2.5,1.1-4.2,2.9-5.1,5.1v-0.2c0,0,0,0.4-0.2,0.9
						c0,0.2-0.2,0.4-0.2,0.4c-0.2,0.7-0.4,1.1-0.9,1.6c-1.1,0.7-2.7,0.4-2.7,0.4l0,0c-2.7-0.2-5.3,0.7-7.6,2.9c-2,2-2.9,4.7-2.9,7.4
						l0,0c0,0,0.4,1.6-0.2,2.7c-0.2,0.4-0.7,0.7-1.1,1.1c-2.9,0.7-5.6,2.7-6.7,5.8c-1.1,2.9-0.9,6.2,0.7,8.7l-0.2-0.2
						c0,0,0.9,1.3,0.7,2.7c-0.2,1.1-2,2.4-2,2.4l0,0c-2,1.8-3.1,4.5-3.1,7.1c0,3.1,1.6,5.8,3.8,7.6c0.4,0.4,0.9,0.9,1.1,1.6
						c0.2,1.1-0.9,3.1-0.9,3.1l0,0c-0.9,2.2-0.9,5.1,0,7.6c1.3,3.3,4.5,5.3,7.8,5.8c0.2,0.2,0.7,0.2,0.9,0.4
						c0.2,0.2,0.4,0.7,0.4,0.9c0,2.7,0.9,5.3,2.9,7.4c2,2,4.5,2.9,7.1,2.9l0,0l0,0c0.2,0,0.7,0,0.9,0c0.7,0,1.6,0,2,0.4
						c0.7,0.4,0.9,1.1,1.1,1.8c0,0.2,0,0.2,0.2,0.4c0,0.2,0,0.2,0,0.2l0,0c0.9,2.4,2.9,4.5,5.3,5.6c2,0.9,4.2,0.9,6.2,0.4l0,0
						c0,0,0,0,0.2,0c0.4-0.2,0.9-0.2,1.3-0.4c0.7-0.2,1.3-0.2,1.8,0c0.2,0,0.4,0.2,0.7,0.4c1.8,2.7,4.7,4.5,8.2,4.5
						c2.9,0,5.3-1.1,7.1-3.1l0,0c0,0,0-0.2,0.2-0.4c0.2-0.2,0.4-0.4,0.4-0.7c0.2-0.4,0.7-0.7,1.1-0.9c1.1-0.4,3.1,0.7,3.1,0.7
						l-0.2-0.2c2.2,0.9,4.9,0.9,7.1,0c2.5-1.1,4.5-2.9,5.3-5.3v0.2c0,0,0.4-2.2,1.6-2.7c1.1-0.7,2.7-0.2,2.7-0.2l-0.2-0.2
						c2.7,0,5.3-0.9,7.4-2.9c2-2,2.9-4.5,2.9-6.9l0,0c0,0,0-0.2,0-0.4c0-0.2,0-0.4,0-0.7c0-0.4,0-1.1,0.2-1.6
						c0.4-1.1,2.7-1.8,2.7-1.8h-0.2c2.5-0.9,4.7-2.9,5.8-5.6c1.1-2.7,0.9-5.3-0.2-7.8c-0.2-0.7-0.2-1.3,0-1.8
						C382.4,325.9,382.7,325.7,382.9,325.5z M357.3,338.8c-2,2-2.9,4.5-2.9,6.9c-2.2-0.9-4.9-1.1-7.6,0c-2.7,1.1-4.5,3.1-5.3,5.6
						c-1.8-1.6-4-2.4-6.5-2.4c-2.2,0-4,0.7-5.8,1.8c-0.9-2.2-2.7-4-5.1-4.9c-2.7-1.1-5.3-0.9-7.8,0.2c0-2.5-0.9-5.1-2.9-7.1
						c-2-2-4.5-2.9-7.1-2.9c0.4-1.8,0.2-3.8-0.7-5.6c-1.1-2.4-3.1-4.5-5.3-5.3c1.8-1.8,2.9-4.2,2.9-6.9c0-3.1-1.6-6-4-7.8
						c2.9-0.7,5.3-2.9,6.5-5.8c1.1-2.4,0.9-5.1,0-7.6c2.5,0,4.9-0.9,6.7-2.9c2-2,2.9-4.5,2.9-6.9c2.2,0.9,5.1,1.1,7.6,0
						s4.5-3.1,5.3-5.3c1.8,1.6,4,2.5,6.5,2.5c2.9,0,5.6-1.3,7.4-3.3c0.9,2.7,2.9,5.1,5.6,6.2c2.4,1.1,5.1,0.9,7.6,0
						c0,2.5,0.9,5.1,2.9,6.9c1.8,1.8,4,2.7,6.5,2.9c-1.6,2.7-2,5.8-0.7,8.9c1.1,2.5,3.1,4.2,5.3,5.3c-1.8,1.8-2.9,4.2-2.9,6.9
						c0,2.2,0.7,4,1.8,5.6c-1.8,1.1-3.1,2.7-4,4.7c-1.1,2.4-0.9,5.1,0,7.6C361.9,335.9,359.3,336.8,357.3,338.8z"/>
				</g>
				<g>
					<g>
						<g>
							<path fill="#FFFFFF" d="M367.7,318.1c-0.7,17.8-15.8,31.9-33.6,31c-17.8-0.7-31.9-15.8-31-33.6c0.7-17.8,15.8-31.9,33.6-31
								C354.6,285.1,368.4,300.3,367.7,318.1z"/>
							<path fill="#DD9A28" d="M335.4,351.5c-0.4,0-0.9,0-1.6,0c-9.4-0.4-17.8-4.5-24.1-11.1c-6.2-6.9-9.6-15.6-9.1-24.9
								c0.9-19.2,16.7-34.1,36.1-33.2c19.2,0.9,34.1,16.9,33.2,36.1C369.1,336.8,353.9,351.5,335.4,351.5L335.4,351.5z M335.2,286.7
								c-16.3,0-29.4,12.7-30.1,29c-0.2,8,2.5,15.8,8,21.6c5.3,6,12.9,9.4,20.9,9.8c16.7,0.7,30.7-12.3,31.4-28.7
								s-12.3-30.7-28.7-31.4C336.1,286.7,335.7,286.7,335.2,286.7L335.2,286.7z"/>
						</g>
					</g>
				</g>
			</g>
		</g>
	</g>
</g>
<g>
	<g>
		<g>
			<path fill="#4D4D4D" d="M151.2,210.5L151.2,210.5c0,1.8-0.4,2.9-1.6,4c-1.1,0.9-2.5,1.6-4.2,1.6s-3.1-0.7-4.2-2
				c-1.1-1.3-1.6-3.1-1.6-5.1v-2.7c0-2,0.4-3.8,1.6-5.1c1.1-1.3,2.5-2,4.2-2s3.1,0.4,4.2,1.3c1.1,0.9,1.6,2.2,1.6,4l0,0h-1.3
				c0-1.3-0.4-2.4-1.1-3.1c-0.9-0.7-1.8-1.1-3.3-1.1c-1.3,0-2.4,0.7-3.3,1.8c-0.9,1.1-1.3,2.7-1.3,4.2v2.7c0,1.8,0.4,3.3,1.3,4.5
				c0.9,1.1,2,1.8,3.3,1.8s2.4-0.4,3.3-1.1c0.9-0.7,1.1-1.8,1.1-3.1L151.2,210.5L151.2,210.5z"/>
			<path fill="#4D4D4D" d="M163.3,207.6h-7.1v6.9h8.2v1.1h-9.6v-16.7h9.6v1.1h-8.2v6.2h7.1V207.6L163.3,207.6z"/>
			<path fill="#4D4D4D" d="M167.3,215.9v-16.7h4.7c1.6,0,2.9,0.4,3.8,1.1c0.9,0.7,1.3,1.8,1.3,3.3c0,0.9-0.2,1.6-0.7,2.2
				c-0.4,0.7-1.1,1.1-1.8,1.3c1.1,0.2,1.8,0.7,2.4,1.3c0.7,0.9,0.9,1.8,0.9,2.7c0,1.6-0.4,2.7-1.3,3.3c-0.9,0.9-2.2,1.1-3.8,1.1
				C173.1,215.9,167.3,215.9,167.3,215.9z M168.4,206.5h3.8c1.1,0,2-0.2,2.7-0.9c0.7-0.4,0.9-1.3,0.9-2.2c0-1.1-0.4-1.8-1.1-2.4
				c-0.7-0.4-1.6-0.9-2.9-0.9h-3.3C168.4,200.3,168.4,206.5,168.4,206.5z M168.4,207.8v6.9h4.5c1.1,0,2-0.2,2.9-0.9
				c0.7-0.7,1.1-1.6,1.1-2.5c0-0.9-0.2-1.8-0.9-2.4c-0.7-0.7-1.6-0.9-2.7-0.9h-0.2C172.8,207.8,168.4,207.8,168.4,207.8z"/>
			<path fill="#4D4D4D" d="M189.5,211.2h-7.1l-1.6,4.7h-1.3l5.8-16.7h1.3l5.8,16.7h-1.3L189.5,211.2z M182.9,209.9h6.2l-3.1-8.9l0,0
				L182.9,209.9z"/>
			<path fill="#4D4D4D" d="M204,211.6c0-0.9-0.2-1.6-0.9-2c-0.7-0.4-1.8-1.1-3.3-1.6c-1.8-0.4-3.1-1.1-4-1.8
				c-0.9-0.7-1.3-1.8-1.3-2.9c0-1.3,0.4-2.2,1.6-3.1c0.9-0.9,2.2-1.3,3.8-1.3c1.6,0,2.9,0.4,4,1.3c0.9,0.9,1.6,2,1.3,3.6l0,0h-1.3
				c0-1.1-0.4-2-1.1-2.7s-1.8-1.1-2.9-1.1c-1.3,0-2.2,0.2-2.9,0.9c-0.7,0.7-1.1,1.3-1.1,2.2c0,0.9,0.2,1.6,0.9,2
				c0.7,0.4,1.8,1.1,3.3,1.6c1.8,0.4,2.9,1.1,3.8,1.8c0.9,0.7,1.3,1.8,1.3,2.9c0,1.3-0.4,2.2-1.6,3.1c-1.1,0.9-2.4,1.1-4,1.1
				s-2.9-0.4-4.2-1.3c-1.1-0.9-1.8-2-1.8-3.6l0,0h1.1c0,1.3,0.4,2.2,1.3,2.9c0.9,0.7,2,0.9,3.1,0.9s2.2-0.2,2.9-0.9
				C203.6,213.4,204,212.8,204,211.6z"/>
			<path fill="#4D4D4D" d="M134.3,235.7h-7.1v6.9h8.2v1.1h-9.6V227h9.6v1.1h-8.2v6.2h7.1C134.3,234.6,134.3,235.7,134.3,235.7z"/>
			<path fill="#4D4D4D" d="M137.2,237.7c0-2,0.4-3.6,1.1-4.7c0.9-1.1,2-1.8,3.3-1.8c0.9,0,1.6,0.2,2.2,0.4c0.7,0.4,1.1,0.9,1.6,1.6
				v-7.4h1.3v17.8h-1.1l-0.2-1.8c-0.4,0.7-0.9,1.1-1.6,1.6c-0.7,0.4-1.3,0.4-2.2,0.4c-1.3,0-2.4-0.4-3.3-1.6
				c-0.9-1.1-1.1-2.7-1.1-4.5L137.2,237.7L137.2,237.7z M138.5,237.9c0,1.6,0.2,2.7,0.9,3.6c0.7,0.9,1.3,1.3,2.7,1.3
				c0.9,0,1.6-0.2,2.2-0.7c0.7-0.4,1.1-0.9,1.3-1.6v-5.8c-0.2-0.7-0.7-1.3-1.3-1.8c-0.4-0.4-1.3-0.7-2.2-0.7c-1.1,0-2,0.4-2.7,1.6
				c-0.7,0.9-0.9,2.2-0.9,3.8V237.9z"/>
			<path fill="#4D4D4D" d="M157.9,241.9c-0.4,0.7-0.9,1.3-1.6,1.6c-0.7,0.4-1.3,0.7-2.2,0.7c-1.3,0-2.2-0.4-2.9-1.3
				c-0.7-0.9-1.1-2.2-1.1-4v-7.3h1.3v7.1c0,1.6,0.2,2.7,0.7,3.3c0.4,0.7,1.1,0.9,2,0.9c0.9,0,1.8-0.2,2.4-0.7
				c0.7-0.4,1.1-1.1,1.3-1.8v-8.9h1.3v12.3h-1.1L157.9,241.9z"/>
			<path fill="#4D4D4D" d="M167,243c0.9,0,1.6-0.2,2.2-0.7c0.7-0.4,0.9-1.3,0.9-2.2h1.1l0,0c0,1.1-0.4,2-1.3,2.9
				c-0.9,0.7-2,1.1-3.1,1.1c-1.6,0-2.9-0.7-3.8-1.8c-0.9-1.1-1.3-2.7-1.3-4.5v-0.4c0-1.8,0.4-3.3,1.3-4.5c0.9-1.1,2-1.8,3.8-1.8
				c1.3,0,2.4,0.4,3.1,1.1c0.9,0.9,1.3,1.8,1.3,3.1l0,0h-1.1c0-0.9-0.2-1.8-0.9-2.4s-1.3-0.9-2.2-0.9c-1.3,0-2.2,0.4-2.9,1.3
				c-0.7,0.9-0.9,2.2-0.9,3.6v0.4c0,1.6,0.2,2.7,0.9,3.6C164.8,242.4,165.9,243,167,243z"/>
			<path fill="#4D4D4D" d="M182,243.9c0-0.4-0.2-0.9-0.2-1.1c0-0.2,0-0.7,0-0.9c-0.4,0.7-0.9,1.1-1.8,1.6c-0.7,0.4-1.6,0.7-2.4,0.7
				c-1.1,0-2-0.2-2.7-0.9c-0.7-0.7-0.9-1.6-0.9-2.7c0-1.1,0.4-2,1.3-2.7c0.9-0.7,2.2-1.1,3.6-1.1h2.9v-1.6c0-0.9-0.2-1.6-0.9-2
				c-0.7-0.4-1.3-0.7-2.2-0.7s-1.6,0.2-2.2,0.7c-0.4,0.4-0.9,1.1-0.9,1.8h-1.1l0,0c0-0.9,0.4-1.8,1.1-2.4c0.9-0.7,1.8-1.1,3.1-1.1
				s2.4,0.4,3.1,1.1c0.9,0.7,1.1,1.8,1.1,2.9v6c0,0.4,0,0.9,0,1.3c0,0.4,0.2,0.9,0.2,1.1H182L182,243.9z M177.5,242.8
				c1.1,0,1.8-0.2,2.7-0.7c0.7-0.4,1.3-1.1,1.6-2v-2.4h-2.9c-1.1,0-2,0.2-2.7,0.9c-0.7,0.4-1.1,1.1-1.1,2c0,0.7,0.2,1.3,0.7,1.8
				C176.2,242.6,176.6,242.8,177.5,242.8z"/>
			<path fill="#4D4D4D" d="M190.9,243c0.9,0,1.6-0.2,2.2-0.7c0.7-0.4,0.9-1.3,0.9-2.2h1.1l0,0c0,1.1-0.4,2-1.3,2.9
				c-0.9,0.7-2,1.1-3.1,1.1c-1.6,0-2.9-0.7-3.8-1.8c-0.9-1.1-1.3-2.7-1.3-4.5v-0.4c0-1.8,0.4-3.3,1.3-4.5c0.9-1.1,2-1.8,3.8-1.8
				c1.3,0,2.4,0.4,3.1,1.1c0.9,0.9,1.3,1.8,1.3,3.1l0,0H194c0-0.9-0.2-1.8-0.9-2.4s-1.3-0.9-2.2-0.9c-1.3,0-2.2,0.4-2.9,1.3
				c-0.7,0.9-0.9,2.2-0.9,3.6v0.4c0,1.6,0.2,2.7,0.9,3.6C188.7,242.4,189.5,243,190.9,243z M191.1,243.9l-0.2,0.7
				c0.7,0,1.1,0.2,1.3,0.4c0.4,0.2,0.4,0.7,0.4,1.3c0,0.7-0.2,1.3-0.9,1.6c-0.7,0.4-1.3,0.7-2.4,0.7v-0.9c0.7,0,1.1-0.2,1.6-0.4
				c0.4-0.2,0.7-0.7,0.7-1.1c0-0.4-0.2-0.7-0.4-0.9c-0.2-0.2-0.9-0.2-1.6-0.4l0.2-1.6L191.1,243.9L191.1,243.9z"/>
			<path fill="#4D4D4D" d="M205.6,243.9c0-0.4-0.2-0.9-0.2-1.1c0-0.2,0-0.7,0-0.9c-0.4,0.7-0.9,1.1-1.8,1.6
				c-0.7,0.4-1.6,0.7-2.4,0.7c-1.1,0-2-0.2-2.7-0.9c-0.7-0.7-0.9-1.6-0.9-2.7c0-1.1,0.4-2,1.3-2.7c0.9-0.7,2.2-1.1,3.6-1.1h2.9v-1.6
				c0-0.9-0.2-1.6-0.9-2c-0.7-0.4-1.3-0.7-2.2-0.7c-0.9,0-1.6,0.2-2.2,0.7c-0.4,0.4-0.9,1.1-0.9,1.8H198l0,0c0-0.9,0.4-1.8,1.1-2.4
				c0.9-0.7,1.8-1.1,3.1-1.1s2.4,0.4,3.1,1.1c0.9,0.7,1.1,1.8,1.1,2.9v6c0,0.4,0,0.9,0,1.3c0,0.4,0.2,0.9,0.2,1.1H205.6L205.6,243.9
				z M205.8,226.8c0,0.7-0.2,1.3-0.7,1.6c-0.4,0.4-0.9,0.7-1.6,0.7c-0.4,0-1.1-0.2-1.6-0.7c-0.7-0.4-1.1-0.7-1.3-0.7
				c-0.4,0-0.7,0.2-0.9,0.4c-0.2,0.2-0.4,0.7-0.4,1.1l-0.9-0.2c0-0.7,0.2-1.1,0.7-1.6s0.9-0.7,1.6-0.7c0.4,0,1.1,0.2,1.6,0.7
				c0.7,0.4,1.1,0.7,1.6,0.7c0.4,0,0.7-0.2,0.9-0.4s0.4-0.7,0.4-1.1L205.8,226.8z M201.1,242.8c1.1,0,1.8-0.2,2.7-0.7
				c0.7-0.4,1.3-1.1,1.6-2v-2.4h-2.9c-1.1,0-2,0.2-2.7,0.9c-0.7,0.4-1.1,1.1-1.1,2c0,0.7,0.2,1.3,0.7,1.8
				C199.8,242.6,200.5,242.8,201.1,242.8z"/>
			<path fill="#4D4D4D" d="M209.4,237.5c0-1.8,0.4-3.3,1.3-4.5c0.9-1.1,2.2-1.8,3.8-1.8c1.6,0,2.9,0.7,3.8,1.8
				c0.9,1.1,1.3,2.7,1.3,4.5v0.4c0,1.8-0.4,3.3-1.3,4.5c-0.9,1.1-2.2,1.8-3.8,1.8c-1.6,0-2.9-0.7-3.8-1.8c-0.9-1.1-1.3-2.7-1.3-4.5
				V237.5L209.4,237.5z M210.7,237.9c0,1.3,0.4,2.7,1.1,3.6c0.7,0.9,1.6,1.6,2.9,1.6s2.2-0.4,2.9-1.6c0.7-1.1,1.1-2.2,1.1-3.6v-0.4
				c0-1.3-0.4-2.7-1.1-3.6c-0.7-0.9-1.8-1.6-2.9-1.6c-1.3,0-2.2,0.4-2.9,1.6c-0.7,0.9-1.1,2.2-1.1,3.6V237.9z"/>
		</g>
	</g>
	<g>
		<g>
			<g>
				<polygon fill="#274391" points="159.3,328.8 123.8,377.1 144.3,373.3 155.7,387.8 177.1,334.1 				"/>
			</g>
			<g>
				<polygon fill="#274391" points="183.8,328.8 218.9,377.1 198.5,373.3 187.3,387.8 165.9,334.1 				"/>
			</g>
			<g>
				<g>
					<path fill="#91C1E4" d="M219.8,325.5l0.2-0.2c0.4-0.4,0.9-0.7,0.9-0.7h-0.2c1.3-1.6,2.2-3.8,2.2-6c0-3.1-1.3-5.8-3.6-7.6l0,0
						c0,0-1.1-1.1-1.3-2.2c0-0.2,0-0.4,0-0.7c0.4-0.7,0.7-1.1,0.9-1.8c0.2-0.2,0.4-0.4,0.4-0.4h-0.2c0.9-2.2,0.9-4.7-0.2-6.9
						c-1.1-2.4-2.9-4-4.9-5.1h0.2c0,0-2-0.9-2.4-2c-0.4-1.1,0.2-2.7,0.2-2.7l-0.2,0.2c0.4-2.9-0.4-5.8-2.7-8
						c-2.2-2.2-5.3-3.1-8.5-2.7c-0.4,0-0.9,0-1.3-0.2c-0.7-0.2-0.9-1.1-1.3-1.6c-0.7-2.9-2.7-5.3-5.6-6.5c-2.4-1.1-5.3-0.9-7.6,0.2
						l0,0c0,0-0.2,0.2-0.4,0.2h-0.2c-0.7,0.2-1.6,0.7-2.2,0.4c-0.7-0.2-1.1-0.7-1.6-1.1c-1.8-2.5-4.7-4.2-8-4.2
						c-2.9,0-5.6,1.3-7.4,3.3v-0.2c0,0-0.9,1.3-2,1.6c-1.1,0.2-3.1-0.9-3.1-0.9v0.2c-2.2-0.7-4.5-0.7-6.9,0.2
						c-2.4,0.9-4.2,2.9-5.1,5.1v-0.2c0,0,0,0.4-0.2,0.9c0,0.2-0.2,0.2-0.2,0.4c-0.2,0.7-0.4,1.1-0.9,1.6c-1.1,0.7-2.7,0.4-2.7,0.4
						l0,0c-2.7-0.2-5.3,0.7-7.6,2.9c-2,2-2.9,4.7-2.9,7.4l0,0c0,0,0.4,1.6,0,2.7c-0.2,0.4-0.7,0.7-1.1,1.1c-2.9,0.7-5.6,2.7-6.7,5.8
						c-1.1,2.9-0.9,6.2,0.7,8.7l-0.2-0.2c0,0,0.9,1.3,0.7,2.7c-0.2,1.1-2,2.5-2,2.5l0,0c-2,1.8-3.1,4.2-3.1,7.1
						c0,3.1,1.6,5.8,3.8,7.6c0.4,0.4,0.9,0.9,1.1,1.6c0.2,1.1-0.9,3.1-0.9,3.1l0,0c-0.9,2.2-0.9,4.9,0,7.4c1.3,3.3,4.5,5.3,7.6,5.8
						c0.2,0.2,0.7,0.2,0.9,0.7c0.2,0.2,0.4,0.7,0.4,0.9c0,2.7,0.9,5.3,2.9,7.1c2,2,4.5,2.9,7.1,2.9l0,0l0,0c0.2,0,0.7,0,0.9,0
						c0.7,0,1.6,0,2,0.4c0.7,0.4,0.9,1.1,1.1,1.6c0,0.2,0,0.2,0.2,0.4c0,0.2,0,0.2,0,0.2l0,0c0.9,2.5,2.9,4.5,5.3,5.6
						c2,0.9,4.2,0.9,6.2,0.4l0,0l0,0c0.4-0.2,0.9-0.2,1.3-0.4c0.7-0.2,1.3-0.2,1.8,0c0.2,0,0.4,0.2,0.7,0.4c1.8,2.7,4.7,4.2,8,4.2
						c2.9,0,5.3-1.1,7.1-3.1l0,0c0,0,0-0.2,0.2-0.4c0.2-0.2,0.4-0.4,0.4-0.7c0.2-0.4,0.7-0.7,1.1-0.9c1.1-0.4,3.1,0.4,3.1,0.4
						L184,364c2.2,0.9,4.7,0.9,7.1,0c2.4-1.1,4.5-2.9,5.3-5.3v0.2c0,0,0.4-2.2,1.6-2.7c1.1-0.7,2.7-0.2,2.7-0.2h-0.2
						c2.7,0,5.3-0.9,7.4-2.9c2-2,2.9-4.5,2.9-6.9l0,0c0,0,0-0.2,0-0.4c0-0.2,0-0.4,0-0.9c0-0.4,0-1.1,0.2-1.6
						c0.7-1.1,2.7-1.8,2.7-1.8l0,0c2.4-0.9,4.7-2.9,5.8-5.3c1.1-2.7,0.9-5.3-0.2-7.8c-0.2-0.7-0.2-1.3,0-1.8
						C219.4,325.9,219.6,325.7,219.8,325.5z M194.4,338.8c-2,2-2.9,4.5-2.9,6.9c-2.2-0.9-4.9-1.1-7.6,0s-4.5,3.1-5.3,5.6
						c-1.8-1.6-4-2.4-6.5-2.4c-2,0-4,0.7-5.6,1.8c-0.9-2.2-2.7-4-5.1-4.9c-2.4-1.1-5.3-0.9-7.6,0.2c0-2.5-0.9-5.1-2.9-6.9
						c-2-2-4.5-2.9-7.1-2.9c0.4-1.8,0.2-3.8-0.7-5.6c-1.1-2.4-2.9-4.2-5.3-5.3c1.8-1.8,2.9-4.2,2.9-6.9c0-3.1-1.6-6-3.8-7.8
						c2.9-0.7,5.3-2.7,6.5-5.8c1.1-2.4,0.9-5.1,0-7.6c2.4,0,4.9-0.9,6.7-2.9s2.9-4.5,2.9-6.9c2.2,0.9,4.9,1.1,7.6,0
						c2.4-1.1,4.5-3.1,5.3-5.3c1.8,1.6,4,2.5,6.5,2.5c2.9,0,5.6-1.3,7.4-3.3c0.9,2.7,2.9,4.9,5.6,6.2c2.4,1.1,5.1,0.9,7.6,0
						c0,2.5,0.9,4.9,2.9,6.9c1.8,1.8,4,2.7,6.2,2.9c-1.6,2.7-2,5.8-0.7,8.7c1.1,2.4,2.9,4.2,5.3,5.3c-1.8,1.8-2.9,4.2-2.9,6.9
						c0,2,0.7,4,1.8,5.6c-1.8,1.1-3.1,2.7-3.8,4.7c-1.1,2.4-0.9,5.1,0,7.6C199.1,335.9,196.4,336.8,194.4,338.8z"/>
				</g>
				<g>
					<g>
						<g>
							<path fill="#FFFFFF" d="M204.7,318.1c-0.7,17.8-15.8,31.6-33.4,30.7c-17.8-0.7-31.6-15.8-30.7-33.4
								c0.7-17.8,15.8-31.6,33.4-30.7C191.8,285.4,205.6,300.5,204.7,318.1z"/>
							<path fill="#274391" d="M172.6,351.3c-0.4,0-0.9,0-1.6,0c-9.1-0.4-17.6-4.2-23.8-11.1c-6.2-6.7-9.4-15.6-9.1-24.7
								c0.9-18.9,16.7-33.9,35.9-33c18.9,0.9,33.9,16.9,33,35.9C206.2,336.8,191.1,351.3,172.6,351.3L172.6,351.3z M172.6,286.9
								c-16,0-29.2,12.7-29.8,28.7c-0.4,8,2.4,15.6,7.8,21.4c5.3,5.8,12.7,9.4,20.7,9.6c16.7,0.7,30.5-12,31.2-28.7
								c0.7-16.5-12.3-30.5-28.7-31.2C173.5,286.9,173.1,286.9,172.6,286.9L172.6,286.9z"/>
						</g>
					</g>
				</g>
			</g>
		</g>
	</g>
</g>
<g>
	<path fill="#274391" d="M151.2,547.1h1.6c0.7,0,1.3-0.2,1.6-0.4c0.2-0.2,0.4-0.9,0.4-1.3c0-0.7-0.2-1.1-0.4-1.3
		c-0.4-0.2-0.9-0.4-1.3-0.4c-0.4,0-0.9,0.2-1.3,0.4c-0.4,0.2-0.4,0.7-0.4,1.1h-2.9c0-0.7,0.2-1.3,0.7-2c0.4-0.7,0.9-1.1,1.8-1.3
		c0.7-0.2,1.6-0.4,2.4-0.4c1.6,0,2.7,0.4,3.6,1.1c0.9,0.7,1.3,1.8,1.3,2.9c0,0.7-0.2,1.3-0.7,1.8c-0.4,0.4-0.9,0.9-1.6,1.3
		c0.9,0.2,1.3,0.7,1.8,1.3c0.4,0.7,0.7,1.3,0.7,2c0,1.3-0.4,2.2-1.3,3.1c-0.9,0.7-2.2,1.1-3.6,1.1s-2.7-0.4-3.6-1.1
		c-0.9-0.7-1.3-1.8-1.3-2.9h2.9c0,0.4,0.2,0.9,0.7,1.3c0.4,0.4,0.9,0.4,1.6,0.4s1.1-0.2,1.6-0.4c0.4-0.4,0.7-0.9,0.7-1.3
		c0-1.3-0.9-2.2-2.4-2.2h-1.6v-2.7L151.2,547.1L151.2,547.1z"/>
	<path fill="#274391" d="M160.8,558.9l-1.6-0.7l0.4-0.7c0.4-0.9,0.7-1.6,0.7-2.5v-2.2h2.4v2c0,0.7-0.2,1.6-0.4,2.2
		C161.7,557.8,161.3,558.4,160.8,558.9z"/>
	<path fill="#274391" d="M174.4,542.6l-5.6,12.7h-2.9l5.6-12h-7.1v-2.2h10V542.6z"/>
	<path fill="#274391" d="M176.6,548.4l0.9-7.4h8v2.5H180l-0.4,3.1c0.7-0.4,1.3-0.4,2.2-0.4c1.3,0,2.4,0.4,3.1,1.3
		c0.7,0.9,1.1,2,1.1,3.6c0,0.9-0.2,1.8-0.7,2.5c-0.4,0.7-0.9,1.3-1.6,1.8c-0.7,0.4-1.6,0.7-2.7,0.7c-0.9,0-1.6-0.2-2.4-0.4
		c-0.7-0.4-1.3-0.9-1.8-1.6c-0.4-0.7-0.7-1.3-0.7-2.2h2.9c0,0.7,0.2,1.1,0.7,1.3c0.4,0.2,0.9,0.4,1.3,0.4c0.7,0,1.1-0.2,1.6-0.7
		c0.4-0.4,0.4-1.1,0.4-2s-0.2-1.3-0.7-1.8c-0.4-0.4-0.9-0.7-1.8-0.7c-0.7,0-1.1,0.2-1.6,0.4l-0.2,0.2L176.6,548.4z"/>
	<path fill="#274391" d="M187.8,544c0-0.9,0.2-1.6,0.9-2.2c0.7-0.4,1.3-0.9,2.2-0.9c0.9,0,1.8,0.2,2.2,0.9c0.7,0.4,0.9,1.3,0.9,2.2
		v0.7c0,0.9-0.2,1.6-0.9,2.2c-0.7,0.7-1.3,0.9-2.2,0.9s-1.8-0.2-2.2-0.9c-0.7-0.4-0.9-1.3-0.9-2.2V544z M189.5,544.6
		c0,0.4,0,0.7,0.4,0.9c0.2,0.2,0.4,0.4,0.9,0.4c0.4,0,0.7-0.2,0.9-0.4c0.2-0.2,0.2-0.7,0.2-0.9V544c0-0.4,0-0.7-0.2-0.9
		c-0.2-0.2-0.4-0.4-0.9-0.4s-0.7,0.2-0.9,0.4c-0.2,0.2-0.2,0.7-0.2,0.9v0.7H189.5z M191.3,554.2l-1.3-0.7l6.9-11.1l1.3,0.7
		L191.3,554.2z M194.7,552c0-0.9,0.2-1.6,0.9-2.2c0.7-0.4,1.3-0.9,2.2-0.9s1.8,0.2,2.2,0.9c0.7,0.4,0.9,1.3,0.9,2.2v0.7
		c0,0.9-0.2,1.6-0.9,2.2c-0.7,0.4-1.3,0.9-2.2,0.9s-1.8-0.2-2.2-0.9c-0.4-0.7-0.9-1.3-0.9-2.2V552z M196.4,552.6
		c0,0.4,0.2,0.7,0.4,0.9c0.2,0.2,0.4,0.4,0.9,0.4c0.9,0,1.1-0.4,1.1-1.3V552c0-0.4-0.2-0.7-0.4-0.9c-0.2-0.2-0.4-0.4-0.9-0.4
		s-0.7,0.2-0.9,0.4c-0.2,0.2-0.2,0.7-0.2,0.9L196.4,552.6L196.4,552.6z"/>
</g>
<g>
	<path fill="#F6D448" d="M317.2,555.3h-2.9v-10.9l-3.3,1.1v-2.2l5.8-2h0.2v14L317.2,555.3L317.2,555.3z"/>
	<path fill="#F6D448" d="M322.5,558.9l-1.6-0.7l0.4-0.7c0.4-0.9,0.7-1.6,0.7-2.5v-2.2h2.5v2c0,0.7-0.2,1.6-0.4,2.2
		C323.6,557.8,323.2,558.4,322.5,558.9z"/>
	<path fill="#F6D448" d="M336.3,549.5c0,2-0.4,3.6-1.1,4.5s-2,1.6-3.6,1.6c-1.6,0-2.7-0.4-3.6-1.6c-0.9-1.1-1.3-2.5-1.3-4.5v-2.7
		c0-2,0.4-3.6,1.3-4.5c0.9-1.1,2-1.6,3.6-1.6c1.6,0,2.7,0.4,3.6,1.6c0.9,1.1,1.3,2.5,1.3,4.5v2.7H336.3z M333.4,546.6
		c0-1.1-0.2-2-0.4-2.7c-0.2-0.4-0.9-0.9-1.6-0.9s-1.1,0.2-1.6,0.7c-0.2,0.4-0.4,1.3-0.4,2.5v3.6c0,1.1,0.2,2,0.4,2.7
		c0.2,0.7,0.9,0.9,1.6,0.9s1.1-0.2,1.6-0.9c0.2-0.4,0.4-1.3,0.4-2.5V546.6z"/>
	<path fill="#F6D448" d="M345.9,541.1v2.2h-0.2c-1.3,0-2.2,0.4-3.1,0.9c-0.9,0.7-1.3,1.6-1.3,2.7c0.7-0.7,1.8-1.1,2.9-1.1
		c1.3,0,2.2,0.4,2.9,1.3c0.7,0.9,1.1,2,1.1,3.6c0,0.9-0.2,1.8-0.7,2.5c-0.4,0.7-0.9,1.3-1.8,1.8c-0.7,0.4-1.6,0.7-2.5,0.7
		c-1.6,0-2.7-0.4-3.6-1.6c-0.9-1.1-1.3-2.5-1.3-4.2v-1.1c0-1.6,0.2-2.9,0.9-4c0.7-1.1,1.3-2,2.5-2.7c1.1-0.7,2.5-0.9,3.8-0.9H345.9z
		 M343,548.2c-0.4,0-0.9,0.2-1.3,0.4c-0.4,0.2-0.7,0.4-0.9,0.9v0.9c0,0.9,0.2,1.8,0.7,2.2c0.4,0.4,0.9,0.9,1.6,0.9s1.1-0.2,1.6-0.7
		s0.7-1.1,0.7-1.8c0-0.7-0.2-1.3-0.7-1.8C344.1,548.9,343.7,548.2,343,548.2z"/>
	<path fill="#F6D448" d="M349.7,544c0-0.9,0.2-1.6,0.9-2.2c0.7-0.4,1.3-0.9,2.2-0.9s1.8,0.2,2.2,0.9c0.7,0.4,0.9,1.3,0.9,2.2v0.7
		c0,0.9-0.2,1.6-0.9,2.2c-0.7,0.7-1.3,0.9-2.2,0.9s-1.8-0.2-2.2-0.9c-0.7-0.4-0.9-1.3-0.9-2.2V544z M351.5,544.6
		c0,0.4,0,0.7,0.4,0.9c0.2,0.2,0.4,0.4,0.9,0.4s0.7-0.2,0.9-0.4c0.2-0.2,0.2-0.7,0.2-0.9V544c0-0.4,0-0.7-0.2-0.9
		c-0.2-0.2-0.4-0.4-0.9-0.4s-0.7,0.2-0.9,0.4c-0.2,0.2-0.2,0.7-0.2,0.9v0.7H351.5z M353.3,554.2l-1.3-0.7l6.9-11.1l1.3,0.7
		L353.3,554.2z M356.4,552c0-0.9,0.2-1.6,0.9-2.2c0.7-0.4,1.3-0.9,2.2-0.9s1.8,0.2,2.2,0.9c0.7,0.4,0.9,1.3,0.9,2.2v0.7
		c0,0.9-0.2,1.6-0.9,2.2c-0.7,0.4-1.3,0.9-2.2,0.9s-1.8-0.2-2.2-0.9c-0.4-0.7-0.9-1.3-0.9-2.2V552z M358.4,552.6
		c0,0.4,0.2,0.7,0.4,0.9c0.2,0.2,0.4,0.4,0.9,0.4c0.9,0,1.1-0.4,1.1-1.3V552c0-0.4-0.2-0.7-0.4-0.9c-0.2-0.2-0.4-0.4-0.9-0.4
		s-0.7,0.2-0.9,0.4c-0.2,0.2-0.2,0.7-0.2,0.9L358.4,552.6L358.4,552.6z"/>
</g>
<g>
	<path fill="#274391" d="M155.7,318.3c0,2-0.4,3.6-1.1,4.5c-0.7,0.9-2,1.6-3.6,1.6s-2.7-0.4-3.6-1.6c-0.9-1.1-1.3-2.5-1.3-4.5v-2.7
		c0-2,0.4-3.6,1.3-4.5c0.9-1.1,2-1.6,3.6-1.6s2.7,0.4,3.6,1.6c0.9,1.1,1.3,2.4,1.3,4.5v2.7H155.7z M153,315.4c0-1.1-0.2-2-0.4-2.7
		c-0.2-0.4-0.9-0.9-1.6-0.9s-1.1,0.2-1.6,0.7c-0.2,0.4-0.4,1.3-0.4,2.4v3.6c0,1.1,0.2,2,0.4,2.7c0.2,0.7,0.9,0.9,1.6,0.9
		s1.1-0.2,1.6-0.9c0.2-0.4,0.4-1.3,0.4-2.4V315.4z"/>
	<path fill="#274391" d="M158.6,327.9l-1.6-0.7l0.4-0.7c0.4-0.9,0.7-1.6,0.7-2.4v-2.2h2.4v2c0,0.7-0.2,1.6-0.4,2.2
		C159.5,326.8,159,327.5,158.6,327.9z"/>
	<path fill="#274391" d="M172.4,324.3h-9.8v-2l4.7-4.9c0.7-0.7,1.1-1.3,1.3-1.8s0.4-1.1,0.4-1.6c0-0.7-0.2-1.1-0.4-1.6
		c-0.2-0.4-0.7-0.4-1.3-0.4s-1.1,0.2-1.6,0.7c-0.4,0.4-0.4,1.1-0.4,1.8h-2.9c0-0.9,0.2-1.6,0.7-2.4c0.4-0.7,0.9-1.3,1.8-1.8
		c0.7-0.4,1.6-0.7,2.7-0.7c1.6,0,2.7,0.4,3.3,1.1c0.9,0.7,1.1,1.8,1.1,2.9c0,0.7-0.2,1.3-0.4,2.2c-0.2,0.9-0.9,1.6-1.8,2.5l-3.3,3.3
		h6.2v2.7L172.4,324.3L172.4,324.3z"/>
	<path fill="#274391" d="M183.3,313.9c0,0.7-0.2,1.3-0.4,1.8c-0.4,0.4-0.9,0.9-1.3,1.3c0.7,0.2,1.3,0.9,1.6,1.3
		c0.4,0.7,0.7,1.3,0.7,2c0,1.3-0.4,2.2-1.3,2.9c-0.9,0.7-2,1.1-3.6,1.1c-1.6,0-2.7-0.4-3.6-1.1c-0.9-0.7-1.3-1.8-1.3-2.9
		c0-0.9,0.2-1.6,0.7-2c0.4-0.4,0.9-1.1,1.6-1.3c-0.7-0.2-1.1-0.7-1.3-1.3c-0.4-0.4-0.4-1.1-0.4-1.8c0-1.1,0.4-2.2,1.1-2.9
		c0.9-0.7,2-1.1,3.3-1.1s2.4,0.4,3.3,1.1C182.9,311.6,183.3,312.5,183.3,313.9z M180.9,320.1c0-0.7-0.2-1.1-0.4-1.6
		c-0.2-0.4-0.9-0.7-1.6-0.7s-1.1,0.2-1.3,0.4c-0.4,0.4-0.4,0.9-0.4,1.6c0,0.7,0.2,1.1,0.4,1.6c0.2,0.4,0.9,0.7,1.6,0.7
		s1.1-0.2,1.3-0.4C180.6,321.2,180.9,320.8,180.9,320.1z M180.4,313.9c0-0.4-0.2-0.9-0.4-1.3c-0.2-0.4-0.7-0.4-1.3-0.4
		c-0.4,0-0.9,0.2-1.3,0.4c-0.2,0.2-0.4,0.7-0.4,1.3s0.2,1.1,0.4,1.3c0.2,0.4,0.7,0.4,1.3,0.4c0.7,0,0.9-0.2,1.3-0.4
		C180.4,315,180.4,314.5,180.4,313.9z"/>
	<path fill="#274391" d="M185.5,312.8c0-0.9,0.2-1.6,0.9-2.2c0.7-0.4,1.3-0.9,2.2-0.9s1.8,0.2,2.2,0.9c0.7,0.4,0.9,1.3,0.9,2.2v0.7
		c0,0.9-0.2,1.6-0.9,2.2c-0.7,0.7-1.3,0.9-2.2,0.9s-1.8-0.2-2.2-0.9c-0.7-0.4-0.9-1.3-0.9-2.2V312.8z M187.3,313.6
		c0,0.4,0,0.7,0.4,0.9c0.2,0.2,0.4,0.4,0.9,0.4s0.7-0.2,0.9-0.4c0.2-0.2,0.2-0.7,0.2-0.9V313c0-0.4,0-0.7-0.2-0.9
		c-0.2-0.2-0.4-0.4-0.9-0.4s-0.7,0.2-0.9,0.4c-0.2,0.2-0.2,0.7-0.2,0.9v0.7H187.3z M189.1,323.2l-1.3-0.7l6.9-11.1l1.3,0.7
		L189.1,323.2z M192.4,320.8c0-0.9,0.2-1.6,0.9-2.2c0.7-0.4,1.3-0.9,2.2-0.9s1.8,0.2,2.2,0.9c0.7,0.4,0.9,1.3,0.9,2.2v0.7
		c0,0.9-0.2,1.6-0.9,2.2c-0.7,0.4-1.3,0.9-2.2,0.9c-0.9,0-1.8-0.2-2.2-0.9c-0.7-0.4-0.9-1.3-0.9-2.2V320.8z M194.2,321.7
		c0,0.4,0.2,0.7,0.4,0.9c0.2,0.2,0.4,0.4,0.9,0.4c0.9,0,1.1-0.4,1.1-1.3V321c0-0.4-0.2-0.7-0.4-0.9c-0.2-0.2-0.4-0.4-0.9-0.4
		s-0.7,0.2-0.9,0.4c-0.2,0.2-0.2,0.7-0.2,0.9L194.2,321.7L194.2,321.7z"/>
</g>
<g>
	<path fill="#DC9928" d="M319.8,318.3c0,2-0.4,3.6-1.1,4.5c-0.7,0.9-2,1.6-3.6,1.6s-2.7-0.4-3.6-1.6c-0.9-1.1-1.3-2.5-1.3-4.5v-2.7
		c0-2,0.4-3.6,1.3-4.5c0.9-1.1,2-1.6,3.6-1.6s2.7,0.4,3.6,1.6c0.9,1.1,1.3,2.4,1.3,4.5v2.7H319.8z M316.9,315.4c0-1.1-0.2-2-0.4-2.7
		c-0.2-0.4-0.9-0.9-1.6-0.9s-1.1,0.2-1.6,0.7c-0.2,0.4-0.4,1.3-0.4,2.4v3.6c0,1.1,0.2,2,0.4,2.7c0.2,0.7,0.9,0.9,1.6,0.9
		s1.1-0.2,1.6-0.9c0.2-0.4,0.4-1.3,0.4-2.4V315.4z"/>
	<path fill="#DC9928" d="M322.5,327.9l-1.6-0.7l0.4-0.7c0.4-0.9,0.7-1.6,0.7-2.4v-2.2h2.5v2c0,0.7-0.2,1.6-0.4,2.2
		C323.6,326.8,323.2,327.5,322.5,327.9z"/>
	<path fill="#DC9928" d="M329.6,315.9h1.6c0.7,0,1.3-0.2,1.6-0.4c0.4-0.4,0.4-0.9,0.4-1.3c0-0.7-0.2-1.1-0.4-1.3
		c-0.4-0.2-0.9-0.4-1.3-0.4s-0.9,0.2-1.3,0.4c-0.4,0.2-0.4,0.7-0.4,1.1h-3.1c0-0.7,0.2-1.3,0.7-2c0.4-0.7,0.9-1.1,1.8-1.3
		c0.7-0.4,1.6-0.4,2.5-0.4c1.6,0,2.7,0.4,3.6,1.1s1.3,1.8,1.3,2.9c0,0.7-0.2,1.3-0.7,1.8c-0.4,0.4-0.9,0.9-1.6,1.3
		c0.9,0.2,1.3,0.7,1.8,1.3c0.4,0.7,0.7,1.3,0.7,2c0,1.3-0.4,2.2-1.3,3.1c-0.9,0.7-2.2,1.1-3.6,1.1s-2.7-0.4-3.6-1.1
		c-0.9-0.7-1.3-1.8-1.3-2.9h2.9c0,0.4,0.2,0.9,0.7,1.3c0.4,0.4,0.9,0.4,1.6,0.4c0.7,0,1.1-0.2,1.6-0.4c0.4-0.4,0.7-0.9,0.7-1.3
		c0-1.3-0.9-2.2-2.5-2.2h-1.6v-2.7L329.6,315.9L329.6,315.9z"/>
	<path fill="#DC9928" d="M344.8,318.6c-0.7,0.7-1.6,1.1-2.7,1.1c-1.3,0-2.2-0.4-3.1-1.3c-0.7-0.9-1.1-2-1.1-3.6
		c0-0.9,0.2-1.8,0.7-2.7c0.4-0.7,0.9-1.3,1.8-1.8c0.7-0.4,1.6-0.7,2.5-0.7c0.9,0,1.8,0.2,2.5,0.7c0.7,0.4,1.3,1.1,1.8,2
		c0.4,0.9,0.7,1.8,0.7,3.1v1.1c0,2.5-0.7,4.2-1.8,5.6c-1.1,1.3-2.9,2-5.1,2.2h-0.7v-2.4h0.7C343.2,321.9,344.6,320.8,344.8,318.6z
		 M342.8,317.4c0.4,0,0.9-0.2,1.1-0.4c0.2-0.2,0.7-0.4,0.7-0.9V315c0-0.9-0.2-1.8-0.4-2.2c-0.4-0.4-0.9-0.9-1.6-0.9
		s-1.1,0.2-1.3,0.7c-0.4,0.4-0.4,1.1-0.4,2c0,0.7,0.2,1.3,0.4,2C341.7,317.2,342.3,317.4,342.8,317.4z"/>
	<path fill="#DC9928" d="M349.7,312.8c0-0.9,0.2-1.6,0.9-2.2c0.7-0.4,1.3-0.9,2.2-0.9s1.8,0.2,2.2,0.9c0.7,0.4,0.9,1.3,0.9,2.2v0.7
		c0,0.9-0.2,1.6-0.9,2.2c-0.7,0.7-1.3,0.9-2.2,0.9s-1.8-0.2-2.2-0.9c-0.7-0.4-0.9-1.3-0.9-2.2V312.8z M351.5,313.6
		c0,0.4,0,0.7,0.4,0.9c0.2,0.2,0.4,0.4,0.9,0.4s0.7-0.2,0.9-0.4c0.2-0.2,0.2-0.7,0.2-0.9V313c0-0.4,0-0.7-0.2-0.9
		c-0.2-0.2-0.4-0.4-0.9-0.4s-0.7,0.2-0.9,0.4c-0.2,0.2-0.2,0.7-0.2,0.9v0.7H351.5z M353.3,323.2l-1.3-0.7l6.9-11.1l1.3,0.7
		L353.3,323.2z M356.4,320.8c0-0.9,0.2-1.6,0.9-2.2c0.7-0.4,1.3-0.9,2.2-0.9s1.8,0.2,2.2,0.9c0.7,0.4,0.9,1.3,0.9,2.2v0.7
		c0,0.9-0.2,1.6-0.9,2.2c-0.7,0.4-1.3,0.9-2.2,0.9s-1.8-0.2-2.2-0.9c-0.7-0.4-0.9-1.3-0.9-2.2V320.8z M358.4,321.7
		c0,0.4,0.2,0.7,0.4,0.9c0.2,0.2,0.4,0.4,0.9,0.4c0.9,0,1.1-0.4,1.1-1.3V321c0-0.4-0.2-0.7-0.4-0.9c-0.2-0.2-0.4-0.4-0.9-0.4
		s-0.7,0.2-0.9,0.4c-0.2,0.2-0.2,0.7-0.2,0.9L358.4,321.7L358.4,321.7z"/>
</g>
<g>
	<path fill="#89181B" d="M465.7,324.3h-2.9v-10.9l-3.3,1.1v-2.2l5.8-2h0.2v14L465.7,324.3L465.7,324.3z"/>
	<path fill="#89181B" d="M471.3,327.9l-1.6-0.7l0.4-0.7c0.4-0.9,0.7-1.6,0.7-2.4v-2.2h2.5v2c0,0.7-0.2,1.6-0.4,2.2
		C472.2,326.8,471.8,327.5,471.3,327.9z"/>
	<path fill="#89181B" d="M482.9,309.9v2.2h-0.2c-1.3,0-2.2,0.4-3.1,0.9c-0.9,0.7-1.3,1.6-1.3,2.7c0.7-0.7,1.8-1.1,2.9-1.1
		c1.3,0,2.2,0.4,2.9,1.3c0.7,0.9,1.1,2,1.1,3.6c0,0.9-0.2,1.8-0.7,2.5s-0.9,1.3-1.8,1.8c-0.7,0.4-1.6,0.7-2.4,0.7
		c-1.6,0-2.7-0.4-3.6-1.6c-0.9-1.1-1.3-2.4-1.3-4.2v-1.1c0-1.6,0.2-2.9,0.9-4s1.3-2,2.5-2.7c1.1-0.7,2.5-0.9,3.8-0.9H482.9z
		 M480.2,317c-0.4,0-0.9,0.2-1.3,0.4c-0.4,0.2-0.7,0.4-0.9,0.9v0.9c0,0.9,0.2,1.8,0.7,2.2c0.4,0.4,0.9,0.9,1.6,0.9
		c0.7,0,1.1-0.2,1.6-0.7c0.4-0.4,0.7-1.1,0.7-1.8c0-0.7-0.2-1.3-0.7-1.8C481.3,317.2,480.9,317,480.2,317z"/>
	<path fill="#89181B" d="M487.1,317.2l0.9-7.4h8v2.4h-5.6l-0.4,3.1c0.7-0.4,1.3-0.4,2.2-0.4c1.3,0,2.5,0.4,3.1,1.3
		c0.7,0.9,1.1,2,1.1,3.6c0,0.9-0.2,1.8-0.7,2.4c-0.4,0.7-0.9,1.3-1.6,1.8c-0.7,0.4-1.6,0.7-2.7,0.7c-0.9,0-1.6-0.2-2.5-0.4
		c-0.7-0.4-1.3-0.9-1.8-1.6c-0.4-0.7-0.7-1.3-0.7-2.2h2.9c0,0.7,0.2,1.1,0.7,1.3c0.4,0.2,0.9,0.4,1.3,0.4c0.7,0,1.1-0.2,1.6-0.7
		c0.4-0.4,0.4-1.1,0.4-2c0-0.9-0.2-1.3-0.7-1.8s-0.9-0.7-1.8-0.7c-0.7,0-1.1,0.2-1.6,0.4l-0.2,0.2L487.1,317.2z"/>
	<path fill="#89181B" d="M498.3,312.8c0-0.9,0.2-1.6,0.9-2.2c0.7-0.4,1.3-0.9,2.2-0.9c0.9,0,1.8,0.2,2.2,0.9
		c0.7,0.4,0.9,1.3,0.9,2.2v0.7c0,0.9-0.2,1.6-0.9,2.2c-0.7,0.7-1.3,0.9-2.2,0.9c-0.9,0-1.8-0.2-2.2-0.9c-0.7-0.4-0.9-1.3-0.9-2.2
		V312.8z M500,313.6c0,0.4,0,0.7,0.4,0.9c0.2,0.2,0.4,0.4,0.9,0.4c0.4,0,0.7-0.2,0.9-0.4c0.2-0.2,0.2-0.7,0.2-0.9V313
		c0-0.4,0-0.7-0.2-0.9c-0.2-0.2-0.4-0.4-0.9-0.4c-0.4,0-0.7,0.2-0.9,0.4c-0.2,0.2-0.2,0.7-0.2,0.9v0.7H500z M501.8,323.2l-1.3-0.7
		l6.9-11.1l1.3,0.7L501.8,323.2z M505.2,320.8c0-0.9,0.2-1.6,0.9-2.2c0.7-0.4,1.3-0.9,2.2-0.9s1.8,0.2,2.2,0.9
		c0.7,0.4,0.9,1.3,0.9,2.2v0.7c0,0.9-0.2,1.6-0.9,2.2c-0.7,0.4-1.3,0.9-2.2,0.9s-1.8-0.2-2.2-0.9c-0.7-0.4-0.9-1.3-0.9-2.2V320.8z
		 M506.9,321.7c0,0.4,0.2,0.7,0.4,0.9c0.2,0.2,0.4,0.4,0.9,0.4c0.9,0,1.1-0.4,1.1-1.3V321c0-0.4-0.2-0.7-0.4-0.9
		c-0.2-0.2-0.4-0.4-0.9-0.4s-0.7,0.2-0.9,0.4c-0.2,0.2-0.2,0.7-0.2,0.9L506.9,321.7L506.9,321.7z"/>
</g>
<g>
	<path fill="#4D4D4D" d="M135.6,436.1v13.3c0,1.3-0.3,2.5-0.9,3.4c-0.6,1-1.4,1.7-2.4,2.2c-1,0.5-2.2,0.8-3.6,0.8
		c-2.1,0-3.7-0.6-4.9-1.7c-1.2-1.1-1.9-2.7-1.9-4.6v-13.4h1.6v13.2c0,1.6,0.5,2.9,1.4,3.8s2.2,1.4,3.8,1.4c1.6,0,2.9-0.5,3.8-1.4
		c0.9-0.9,1.4-2.2,1.4-3.8v-13.2L135.6,436.1L135.6,436.1z"/>
	<path fill="#4D4D4D" d="M142.3,437.4v3.7h3v1.3h-3v9.7c0,0.8,0.1,1.4,0.4,1.8c0.3,0.4,0.8,0.6,1.5,0.6c0.3,0,0.7,0,1.3-0.1l0.1,1.3
		c-0.4,0.1-1,0.2-1.7,0.2c-1.1,0-1.9-0.3-2.4-1c-0.5-0.6-0.8-1.6-0.8-2.8v-9.7H138v-1.3h2.7v-3.7L142.3,437.4L142.3,437.4z"/>
	<path fill="#4D4D4D" d="M148.5,436.9c0-0.3,0.1-0.6,0.3-0.8c0.2-0.2,0.5-0.3,0.8-0.3c0.3,0,0.6,0.1,0.8,0.3
		c0.2,0.2,0.3,0.5,0.3,0.8s-0.1,0.6-0.3,0.8c-0.2,0.2-0.5,0.3-0.8,0.3s-0.6-0.1-0.8-0.3C148.6,437.5,148.5,437.2,148.5,436.9z
		 M150.4,455.6h-1.6v-14.5h1.6V455.6z"/>
	<path fill="#4D4D4D" d="M156.6,455.6H155V435h1.6V455.6z"/>
	<path fill="#4D4D4D" d="M160.8,436.9c0-0.3,0.1-0.6,0.3-0.8c0.2-0.2,0.5-0.3,0.8-0.3c0.3,0,0.6,0.1,0.8,0.3
		c0.2,0.2,0.3,0.5,0.3,0.8s-0.1,0.6-0.3,0.8c-0.2,0.2-0.5,0.3-0.8,0.3s-0.6-0.1-0.8-0.3C160.9,437.5,160.8,437.2,160.8,436.9z
		 M162.7,455.6h-1.6v-14.5h1.6V455.6z"/>
	<path fill="#4D4D4D" d="M166.4,448.2c0-2.2,0.5-4,1.5-5.4c1-1.3,2.4-2,4.1-2c2,0,3.4,0.8,4.5,2.3V435h1.6v20.6h-1.5l-0.1-1.9
		c-1,1.5-2.5,2.2-4.5,2.2c-1.7,0-3-0.7-4-2s-1.5-3.2-1.5-5.4L166.4,448.2L166.4,448.2z M168,448.5c0,1.8,0.4,3.3,1.1,4.4
		c0.7,1.1,1.8,1.6,3.1,1.6c2,0,3.4-0.9,4.2-2.6V445c-0.8-1.9-2.2-2.8-4.2-2.8c-1.3,0-2.4,0.5-3.1,1.6
		C168.4,444.9,168,446.4,168,448.5z"/>
	<path fill="#4D4D4D" d="M191.4,455.6c-0.2-0.5-0.3-1.1-0.3-2c-0.6,0.7-1.3,1.3-2.1,1.7c-0.9,0.4-1.8,0.6-2.8,0.6
		c-1.4,0-2.5-0.4-3.4-1.2s-1.3-1.8-1.3-2.9c0-1.4,0.6-2.5,1.8-3.3c1.2-0.8,2.8-1.2,4.9-1.2h2.9v-1.6c0-1-0.3-1.8-1-2.4
		s-1.6-0.9-2.8-0.9c-1.1,0-2,0.3-2.8,0.9c-0.7,0.6-1.1,1.3-1.1,2.1l-1.6,0c0-1.1,0.5-2.1,1.6-3c1.1-0.8,2.4-1.3,3.9-1.3
		c1.6,0,2.9,0.4,3.8,1.2s1.4,1.9,1.4,3.4v6.9c0,1.4,0.1,2.4,0.4,3.1v0.2L191.4,455.6L191.4,455.6z M186.4,454.4c1.1,0,2-0.3,2.9-0.8
		c0.8-0.5,1.5-1.2,1.8-2.1v-3.2h-2.9c-1.6,0-2.8,0.3-3.7,0.9s-1.4,1.3-1.4,2.3c0,0.8,0.3,1.5,0.9,2
		C184.7,454.2,185.4,454.4,186.4,454.4z"/>
	<path fill="#4D4D4D" d="M196.3,448.2c0-2.2,0.5-4,1.5-5.4c1-1.3,2.4-2,4.1-2c2,0,3.4,0.8,4.5,2.3V435h1.6v20.6h-1.5l-0.1-1.9
		c-1,1.5-2.5,2.2-4.5,2.2c-1.7,0-3-0.7-4-2s-1.5-3.2-1.5-5.4L196.3,448.2L196.3,448.2z M197.9,448.5c0,1.8,0.4,3.3,1.1,4.4
		c0.7,1.1,1.8,1.6,3.1,1.6c2,0,3.4-0.9,4.2-2.6V445c-0.8-1.9-2.2-2.8-4.2-2.8c-1.3,0-2.4,0.5-3.1,1.6
		C198.3,444.9,197.9,446.4,197.9,448.5z"/>
	<path fill="#4D4D4D" d="M217.8,455.8c-1.2,0-2.3-0.3-3.3-0.9c-1-0.6-1.8-1.5-2.3-2.5s-0.8-2.3-0.8-3.6v-0.6c0-1.4,0.3-2.6,0.8-3.8
		s1.3-2,2.3-2.6c1-0.6,2-1,3.1-1c1.8,0,3.2,0.6,4.2,1.8s1.5,2.8,1.5,4.9v0.9h-10.3v0.3c0,1.6,0.5,3,1.4,4.1c0.9,1.1,2.1,1.6,3.6,1.6
		c0.9,0,1.6-0.2,2.3-0.5c0.7-0.3,1.3-0.8,1.8-1.5l1,0.8C221.8,455,220,455.8,217.8,455.8z M217.5,442.2c-1.2,0-2.2,0.4-3,1.3
		s-1.3,2.1-1.5,3.6h8.7v-0.2c0-1.4-0.4-2.5-1.2-3.4C219.7,442.6,218.7,442.2,217.5,442.2z"/>
	<path fill="#4D4D4D" d="M84.6,480.5v7.9h-1.6V469h6.6c2,0,3.6,0.5,4.8,1.6s1.8,2.5,1.8,4.3c0,1.8-0.6,3.2-1.7,4.2s-2.8,1.5-4.9,1.5
		L84.6,480.5L84.6,480.5z M84.6,479.1h5c1.6,0,2.8-0.4,3.7-1.1s1.3-1.8,1.3-3.2c0-1.3-0.4-2.4-1.3-3.2c-0.8-0.8-2-1.2-3.6-1.2h-5.1
		C84.6,470.4,84.6,479.1,84.6,479.1z"/>
	<path fill="#4D4D4D" d="M108.7,486.6c-1,1.4-2.5,2.1-4.6,2.1c-1.5,0-2.7-0.4-3.5-1.3c-0.8-0.9-1.2-2.2-1.2-4V474h1.6v9.2
		c0,2.8,1.1,4.1,3.3,4.1c2.3,0,3.8-1,4.4-2.9V474h1.6v14.5h-1.6L108.7,486.6z M106.6,468.1h1.9l-3.1,3.7l-1.4,0L106.6,468.1z"/>
	<path fill="#4D4D4D" d="M126.1,481.4c0,2.3-0.5,4-1.5,5.4c-1,1.3-2.3,2-4,2c-2,0-3.5-0.7-4.6-2.2l-0.1,2h-1.5v-20.6h1.6v8.2
		c1-1.6,2.5-2.4,4.5-2.4c1.7,0,3.1,0.7,4.1,2c1,1.3,1.5,3.1,1.5,5.5C126.1,481.1,126.1,481.4,126.1,481.4z M124.5,481.1
		c0-1.9-0.4-3.4-1.1-4.4c-0.7-1-1.8-1.6-3.1-1.6c-1,0-1.9,0.3-2.6,0.8c-0.7,0.5-1.3,1.2-1.6,2.2v6.5c0.8,1.8,2.2,2.7,4.3,2.7
		c1.3,0,2.4-0.5,3.1-1.6C124.2,484.7,124.5,483.2,124.5,481.1z"/>
	<path fill="#4D4D4D" d="M131.5,488.5h-1.6v-20.6h1.6V488.5z"/>
	<path fill="#4D4D4D" d="M135.7,469.8c0-0.3,0.1-0.6,0.3-0.8c0.2-0.2,0.5-0.3,0.8-0.3c0.3,0,0.6,0.1,0.8,0.3s0.3,0.5,0.3,0.8
		s-0.1,0.6-0.3,0.8c-0.2,0.2-0.5,0.3-0.8,0.3s-0.6-0.1-0.8-0.3C135.8,470.4,135.7,470.1,135.7,469.8z M137.6,488.5H136V474h1.6
		V488.5z"/>
	<path fill="#4D4D4D" d="M147.3,487.4c1.1,0,2.1-0.3,2.8-0.9s1.2-1.4,1.2-2.4h1.5c0,0.9-0.3,1.7-0.8,2.4c-0.5,0.7-1.2,1.3-2,1.7
		s-1.7,0.6-2.7,0.6c-1.9,0-3.4-0.7-4.5-2c-1.1-1.3-1.7-3.1-1.7-5.3v-0.5c0-1.4,0.3-2.7,0.8-3.8c0.5-1.1,1.2-1.9,2.1-2.5
		c0.9-0.6,2-0.9,3.3-0.9c1.6,0,2.9,0.5,3.9,1.4c1,0.9,1.6,2.2,1.7,3.7h-1.5c-0.1-1.1-0.5-2-1.2-2.7c-0.7-0.7-1.7-1-2.8-1
		c-1.4,0-2.6,0.5-3.4,1.6s-1.2,2.5-1.2,4.4v0.5c0,1.8,0.4,3.3,1.2,4.3C144.7,486.9,145.9,487.4,147.3,487.4z"/>
	<path fill="#4D4D4D" d="M165.2,488.5c-0.2-0.5-0.3-1.1-0.3-2c-0.6,0.7-1.3,1.3-2.1,1.7c-0.9,0.4-1.8,0.6-2.8,0.6
		c-1.4,0-2.5-0.4-3.4-1.2s-1.3-1.8-1.3-2.9c0-1.4,0.6-2.5,1.8-3.3c1.2-0.8,2.8-1.2,4.9-1.2h2.9v-1.6c0-1-0.3-1.8-1-2.4
		s-1.6-0.9-2.8-0.9c-1.1,0-2,0.3-2.8,0.9c-0.7,0.6-1.1,1.3-1.1,2.1l-1.6,0c0-1.1,0.5-2.1,1.6-3c1.1-0.8,2.4-1.3,3.9-1.3
		c1.6,0,2.9,0.4,3.8,1.2s1.4,1.9,1.4,3.4v6.9c0,1.4,0.1,2.4,0.4,3.1v0.2L165.2,488.5L165.2,488.5z M160.2,487.3c1.1,0,2-0.3,2.9-0.8
		c0.8-0.5,1.5-1.2,1.8-2.1v-3.2H162c-1.6,0-2.8,0.3-3.7,0.9s-1.4,1.3-1.4,2.3c0,0.8,0.3,1.5,0.9,2
		C158.4,487,159.2,487.3,160.2,487.3z"/>
	<path fill="#4D4D4D" d="M188.5,479.3h-9.1v9.1h-1.6V469h12.1v1.4h-10.4v7.6h9.1V479.3z"/>
	<path fill="#4D4D4D" d="M198.2,488.7c-1.2,0-2.3-0.3-3.3-0.9c-1-0.6-1.8-1.5-2.3-2.5s-0.8-2.3-0.8-3.6v-0.6c0-1.4,0.3-2.6,0.8-3.8
		s1.3-2,2.3-2.6c1-0.6,2-1,3.1-1c1.8,0,3.2,0.6,4.2,1.8s1.5,2.8,1.5,4.9v0.9h-10.3v0.3c0,1.6,0.5,3,1.4,4.1c0.9,1.1,2.1,1.6,3.6,1.6
		c0.9,0,1.6-0.2,2.3-0.5c0.7-0.3,1.3-0.8,1.8-1.5l1,0.8C202.1,487.9,200.4,488.7,198.2,488.7z M197.9,475.1c-1.2,0-2.2,0.4-3,1.3
		s-1.3,2.1-1.5,3.6h8.7v-0.2c0-1.4-0.4-2.5-1.2-3.4C200.1,475.5,199.1,475.1,197.9,475.1z"/>
	<path fill="#4D4D4D" d="M206.1,481.1c0-2.2,0.5-4,1.5-5.4c1-1.3,2.4-2,4.1-2c2,0,3.4,0.8,4.5,2.3v-8.1h1.6v20.6h-1.5l-0.1-1.9
		c-1,1.5-2.5,2.2-4.5,2.2c-1.7,0-3-0.7-4-2s-1.5-3.2-1.5-5.4L206.1,481.1L206.1,481.1z M207.7,481.4c0,1.8,0.4,3.3,1.1,4.4
		c0.7,1.1,1.8,1.6,3.1,1.6c2,0,3.4-0.9,4.2-2.6v-6.8c-0.8-1.9-2.2-2.8-4.2-2.8c-1.3,0-2.4,0.5-3.1,1.6
		C208.1,477.7,207.7,479.3,207.7,481.4z"/>
	<path fill="#4D4D4D" d="M227.6,488.7c-1.2,0-2.3-0.3-3.3-0.9c-1-0.6-1.8-1.5-2.3-2.5s-0.8-2.3-0.8-3.6v-0.6c0-1.4,0.3-2.6,0.8-3.8
		s1.3-2,2.3-2.6c1-0.6,2-1,3.1-1c1.8,0,3.2,0.6,4.2,1.8s1.5,2.8,1.5,4.9v0.9h-10.3v0.3c0,1.6,0.5,3,1.4,4.1c0.9,1.1,2.1,1.6,3.6,1.6
		c0.9,0,1.6-0.2,2.3-0.5c0.7-0.3,1.3-0.8,1.8-1.5l1,0.8C231.5,487.9,229.8,488.7,227.6,488.7z M227.3,475.1c-1.2,0-2.2,0.4-3,1.3
		s-1.3,2.1-1.5,3.6h8.7v-0.2c0-1.4-0.4-2.5-1.2-3.4C229.5,475.5,228.5,475.1,227.3,475.1z"/>
	<path fill="#4D4D4D" d="M242.8,475.3c-0.3-0.1-0.7-0.1-1.1-0.1c-1,0-1.8,0.3-2.5,0.8c-0.7,0.6-1.2,1.4-1.5,2.4v9.9h-1.6V474h1.6
		l0,2.3c0.8-1.7,2.2-2.6,4.1-2.6c0.4,0,0.8,0.1,1.1,0.2L242.8,475.3z"/>
	<path fill="#4D4D4D" d="M253.9,488.5c-0.2-0.5-0.3-1.1-0.3-2c-0.6,0.7-1.3,1.3-2.1,1.7c-0.9,0.4-1.8,0.6-2.8,0.6
		c-1.4,0-2.5-0.4-3.4-1.2s-1.3-1.8-1.3-2.9c0-1.4,0.6-2.5,1.8-3.3c1.2-0.8,2.8-1.2,4.9-1.2h2.9v-1.6c0-1-0.3-1.8-1-2.4
		s-1.6-0.9-2.8-0.9c-1.1,0-2,0.3-2.8,0.9c-0.7,0.6-1.1,1.3-1.1,2.1l-1.6,0c0-1.1,0.5-2.1,1.6-3c1.1-0.8,2.4-1.3,3.9-1.3
		c1.6,0,2.9,0.4,3.8,1.2s1.4,1.9,1.4,3.4v6.9c0,1.4,0.1,2.4,0.4,3.1v0.2L253.9,488.5L253.9,488.5z M248.9,487.3c1.1,0,2-0.3,2.9-0.8
		c0.8-0.5,1.5-1.2,1.8-2.1v-3.2h-2.9c-1.6,0-2.8,0.3-3.7,0.9s-1.4,1.3-1.4,2.3c0,0.8,0.3,1.5,0.9,2
		C247.2,487,247.9,487.3,248.9,487.3z"/>
	<path fill="#4D4D4D" d="M261.3,488.5h-1.6v-20.6h1.6V488.5z"/>
</g>
</svg>
