<?xml version="1.0" encoding="utf-8"?>
<!-- Generator: Adobe Illustrator 16.0.0, SVG Export Plug-In . SVG Version: 6.00 Build 0)  -->
<!DOCTYPE svg PUBLIC "-//W3C//DTD SVG 1.1//EN" "http://www.w3.org/Graphics/SVG/1.1/DTD/svg11.dtd">
<svg version="1.1" id="Camada_1" xmlns="http://www.w3.org/2000/svg" xmlns:xlink="http://www.w3.org/1999/xlink" x="0px" y="0px"
	 width="640px" height="480px" viewBox="0 0 640 480" enable-background="new 0 0 640 480" xml:space="preserve">
<g>
	<g>
		<g>
			<polygon fill="#274391" points="137.919,380.222 101.835,429.447 122.773,425.438 134.133,440.361 155.961,385.568 			"/>
			<polygon fill="#274391" points="162.866,380.222 198.727,429.447 178.012,425.438 166.43,440.361 144.602,385.568 			"/>
			<g>
				<g>
					<path fill="#FFFFFF" stroke="#DD9A28" stroke-width="2" d="M190.708,368.416c-0.891,21.828-19.378,38.757-41.207,37.866
						c-21.828-0.892-38.756-19.379-37.865-41.207c0.891-21.828,19.378-38.756,41.207-37.865
						C174.671,328.323,191.599,346.588,190.708,368.416z"/>
				</g>
			</g>
		</g>
	</g>
</g>
<g>
	<g>
		<path fill="#4D4D4D" d="M289.604,300.704c0,2.228-0.668,3.786-1.782,5.123c-1.114,1.336-2.673,2.005-4.455,2.005
			c-1.782,0-3.341-0.669-4.455-2.005c-1.114-1.337-1.782-3.118-1.782-5.123v-2.673c0-2.228,0.668-3.787,1.782-5.123
			s2.673-2.005,4.455-2.005c2.004,0,3.341,0.669,4.677,2.005c1.114,1.336,1.782,3.118,1.782,5.123
			C289.604,298.031,289.604,300.704,289.604,300.704z M288.267,298.031c0-1.782-0.445-3.341-1.336-4.232
			c-0.891-0.891-2.004-1.559-3.563-1.559c-1.56,0-2.673,0.445-3.564,1.559c-0.891,1.114-1.336,2.45-1.336,4.232v2.673
			c0,1.782,0.445,3.341,1.336,4.455c0.891,1.113,2.004,1.559,3.564,1.559c1.559,0,2.673-0.445,3.563-1.559
			c0.891-1.114,1.336-2.45,1.336-4.455V298.031z"/>
		<path fill="#4D4D4D" d="M302.077,303.6c0-0.891-0.223-1.56-0.891-2.005c-0.668-0.445-1.782-1.113-3.341-1.559
			c-1.782-0.446-3.118-1.114-4.009-1.782c-0.891-0.668-1.336-1.782-1.336-2.896c0-1.337,0.446-2.228,1.56-3.118
			c1.113-0.891,2.227-1.337,3.786-1.337c1.56,0,2.896,0.446,4.009,1.337c0.891,0.891,1.56,2.005,1.336,3.563l0,0h-1.336
			c0-1.113-0.445-2.005-1.113-2.673c-0.668-0.668-1.782-1.113-2.896-1.113c-1.336,0-2.227,0.223-2.896,0.891
			c-0.668,0.668-1.114,1.337-1.114,2.228s0.223,1.56,0.891,2.005c0.668,0.445,1.782,1.113,3.341,1.559
			c1.782,0.445,2.896,1.114,3.786,1.782c0.891,0.668,1.336,1.782,1.336,2.896c0,1.336-0.445,2.228-1.559,3.118
			s-2.45,1.114-4.009,1.114s-2.896-0.446-4.232-1.337c-1.114-0.891-1.782-2.005-1.782-3.563l0,0h1.114
			c0,1.336,0.445,2.227,1.336,2.896c0.891,0.668,2.004,0.891,3.118,0.891c1.336,0,2.228-0.223,2.896-0.891
			C301.631,305.159,302.077,304.49,302.077,303.6z"/>
		<path fill="#4D4D4D" d="M317.668,302.487L317.668,302.487c0,1.781-0.445,2.896-1.559,4.009c-1.114,0.891-2.45,1.56-4.232,1.56
			s-3.118-0.668-4.232-2.005s-1.559-3.118-1.559-5.123v-2.673c0-2.228,0.445-3.786,1.559-5.123c1.114-1.336,2.45-2.005,4.232-2.005
			s3.118,0.446,4.232,1.337s1.559,2.228,1.559,4.009l0,0h-1.336c0-1.336-0.445-2.45-1.113-3.118
			c-0.891-0.668-1.782-1.113-3.341-1.113c-1.336,0-2.45,0.668-3.341,1.781c-0.891,1.114-1.336,2.674-1.336,4.232v2.673
			c0,1.782,0.445,3.341,1.336,4.455c0.891,1.113,2.004,1.781,3.341,1.781s2.45-0.445,3.341-1.113
			c0.891-0.668,1.113-1.782,1.113-3.118L317.668,302.487L317.668,302.487z"/>
		<path fill="#4D4D4D" d="M322.568,307.61h-1.336v-16.706h1.336V307.61z"/>
		<path fill="#4D4D4D" d="M328.359,300.704v6.905h-1.336v-16.706h5.568c1.782,0,2.896,0.445,4.01,1.337
			c0.891,0.891,1.336,2.004,1.336,3.563s-0.445,2.673-1.336,3.563c-0.891,0.892-2.228,1.337-4.01,1.337H328.359L328.359,300.704z
			 M328.359,299.59h4.232c1.337,0,2.228-0.445,2.896-1.113c0.668-0.668,0.891-1.559,0.891-2.673c0-1.113-0.223-2.005-0.891-2.673
			c-0.669-0.668-1.56-1.113-2.896-1.113h-4.232V299.59z"/>
		<path fill="#4D4D4D" d="M347.738,304.49c0-0.668-0.223-1.113-0.668-1.559s-1.337-0.892-2.45-1.114
			c-1.337-0.223-2.45-0.668-3.118-1.336c-0.668-0.445-1.114-1.337-1.114-2.228s0.446-1.782,1.114-2.45s1.781-0.891,3.118-0.891
			s2.45,0.445,3.118,1.113c0.891,0.668,1.113,1.56,1.113,2.673l0,0h-1.113c0-0.668-0.223-1.336-0.891-1.781
			c-0.668-0.446-1.337-0.669-2.228-0.669c-0.892,0-1.782,0.223-2.228,0.669c-0.445,0.445-0.668,0.891-0.668,1.559
			s0.223,1.114,0.668,1.337c0.445,0.445,1.336,0.668,2.45,0.891c1.337,0.223,2.45,0.668,3.118,1.337
			c0.668,0.668,1.113,1.336,1.113,2.227c0,1.114-0.445,1.782-1.113,2.45c-0.891,0.669-1.781,0.892-3.118,0.892
			s-2.673-0.446-3.341-1.114c-0.891-0.668-1.114-1.559-1.114-2.45l0,0h1.114c0,0.892,0.445,1.56,1.113,2.005
			s1.336,0.668,2.228,0.668c0.891,0,1.782-0.223,2.228-0.668S347.738,305.159,347.738,304.49z"/>
	</g>
	<g>
		<g>
			<polygon fill="#F6D448" points="300.518,380.222 264.657,429.447 285.372,425.438 296.954,440.361 318.782,385.568 			"/>
			<polygon fill="#F6D448" points="325.465,380.222 361.548,429.447 340.611,425.438 329.251,440.361 307.423,385.568 			"/>
			<g>
				<g>
					<path fill="#FFFFFF" stroke="#DD9A28" stroke-width="2" d="M353.529,368.416c-0.891,21.828-19.378,38.757-41.207,37.866
						c-21.828-0.892-38.756-19.379-37.865-41.207s19.378-38.756,41.207-37.865C337.492,328.323,354.42,346.588,353.529,368.416z"/>
				</g>
			</g>
		</g>
	</g>
</g>
<g>
	<g>
		<g>
			<path fill="#4D4D4D" d="M441.733,29.632L441.733,29.632c0,1.782-0.445,2.896-1.56,4.01c-1.113,0.891-2.449,1.559-4.231,1.559
				s-3.118-0.668-4.231-2.004c-1.114-1.337-1.56-3.118-1.56-5.123v-2.673c0-2.005,0.445-3.787,1.56-5.123
				c1.113-1.337,2.449-2.005,4.231-2.005s3.118,0.445,4.231,1.337c1.114,0.891,1.56,2.227,1.56,4.009l0,0h-1.337
				c0-1.336-0.445-2.45-1.113-3.118c-0.891-0.668-1.781-1.113-3.341-1.113c-1.337,0-2.45,0.668-3.341,1.781
				c-0.891,1.114-1.336,2.673-1.336,4.232v2.673c0,1.781,0.445,3.341,1.336,4.454c0.891,1.114,2.004,1.782,3.341,1.782
				s2.45-0.445,3.341-1.113c0.891-0.669,1.113-1.782,1.113-3.118L441.733,29.632L441.733,29.632z"/>
			<path fill="#4D4D4D" d="M453.762,26.737h-7.128v6.905h8.241v1.113h-9.578V18.05h9.578v1.113h-8.241v6.237h7.128V26.737z"/>
			<path fill="#4D4D4D" d="M457.548,34.978V18.273h4.678c1.56,0,2.896,0.445,3.786,1.114c0.891,0.668,1.337,1.781,1.337,3.341
				c0,0.891-0.224,1.559-0.669,2.228c-0.445,0.668-1.113,1.113-1.781,1.336c1.113,0.223,1.781,0.668,2.45,1.337
				c0.668,0.891,0.891,1.781,0.891,2.673c0,1.559-0.445,2.673-1.337,3.341c-0.891,0.891-2.227,1.113-3.786,1.113
				C463.34,34.978,457.548,34.978,457.548,34.978z M458.885,25.623h3.786c1.114,0,2.005-0.223,2.673-0.892
				c0.668-0.445,0.891-1.336,0.891-2.227c0-1.114-0.445-1.782-1.113-2.45c-0.668-0.445-1.559-0.892-2.896-0.892h-3.341V25.623
				L458.885,25.623z M458.885,26.959v6.905h4.455c1.113,0,2.004-0.223,2.895-0.891c0.668-0.669,1.114-1.56,1.114-2.45
				c0-0.892-0.224-1.782-0.892-2.45c-0.668-0.669-1.559-0.892-2.672-0.892h-0.223C463.34,26.959,458.885,26.959,458.885,26.959z"/>
			<path fill="#4D4D4D" d="M479.822,30.301h-7.128l-1.56,4.677h-1.336l5.791-16.705h1.336l5.791,16.705h-1.336L479.822,30.301z
				 M473.14,28.964h6.237l-3.119-8.909l0,0L473.14,28.964z"/>
			<path fill="#4D4D4D" d="M494.3,30.746c0-0.892-0.223-1.56-0.892-2.005c-0.668-0.445-1.781-1.113-3.34-1.56
				c-1.783-0.445-3.119-1.113-4.01-1.781s-1.336-1.782-1.336-2.896c0-1.337,0.445-2.228,1.559-3.118
				c1.113-0.892,2.227-1.337,3.787-1.337c1.559,0,2.895,0.445,4.009,1.337c0.891,0.891,1.56,2.004,1.337,3.563l0,0h-1.337
				c0-1.114-0.446-2.005-1.114-2.673s-1.781-1.114-2.895-1.114c-1.337,0-2.229,0.224-2.896,0.892s-1.113,1.336-1.113,2.228
				c0,0.891,0.223,1.559,0.891,2.004s1.782,1.114,3.342,1.56c1.781,0.445,2.895,1.113,3.786,1.782
				c0.891,0.668,1.337,1.781,1.337,2.896c0,1.336-0.446,2.227-1.561,3.118c-1.113,0.891-2.449,1.113-4.009,1.113
				s-2.896-0.445-4.231-1.336c-1.114-0.892-1.782-2.005-1.782-3.564l0,0h1.114c0,1.337,0.445,2.228,1.336,2.896
				c0.891,0.669,2.004,0.892,3.118,0.892c1.337,0,2.228-0.223,2.896-0.892C493.854,32.528,494.3,31.86,494.3,30.746z"/>
			<path fill="#4D4D4D" d="M448.416,61.038L448.416,61.038l6.014-14.7h1.559v16.705h-1.336V49.011l0,0l-5.791,14.032h-0.891
				l-5.791-14.256l0,0v14.256h-1.337V46.338h1.782L448.416,61.038z"/>
			<path fill="#4D4D4D" d="M460.221,63.043V46.338h4.9c2.004,0,3.564,0.668,4.9,2.004c1.336,1.337,2.004,3.119,2.004,5.123v2.228
				c0,2.228-0.668,3.786-2.004,5.123s-2.896,2.005-4.9,2.005h-4.9V63.043z M461.557,47.451v14.255h3.564
				c1.559,0,2.896-0.668,4.01-1.781c1.113-1.114,1.559-2.673,1.559-4.455v-2.228c0-1.781-0.445-3.118-1.559-4.231
				c-1.114-1.114-2.229-1.782-4.01-1.782L461.557,47.451L461.557,47.451z"/>
			<path fill="#4D4D4D" d="M484.276,58.811c0-0.891-0.223-1.559-0.891-2.004c-0.669-0.446-1.782-1.114-3.341-1.56
				c-1.782-0.445-3.119-1.114-4.01-1.782s-1.336-1.781-1.336-2.896c0-1.336,0.445-2.228,1.559-3.118s2.228-1.336,3.787-1.336
				c1.559,0,2.895,0.445,4.009,1.336c0.892,0.891,1.56,2.005,1.337,3.563l0,0h-1.337c0-1.113-0.445-2.004-1.114-2.673
				c-0.668-0.668-1.781-1.113-2.895-1.113c-1.337,0-2.229,0.223-2.896,0.891s-1.113,1.337-1.113,2.228s0.223,1.56,0.891,2.005
				s1.782,1.113,3.342,1.559c1.781,0.446,2.895,1.114,3.786,1.782s1.337,1.782,1.337,2.896c0,1.337-0.445,2.228-1.56,3.118
				c-1.114,0.892-2.45,1.114-4.009,1.114c-1.56,0-2.896-0.445-4.232-1.337c-1.113-0.891-1.782-2.005-1.782-3.563l0,0h1.114
				c0,1.336,0.445,2.228,1.336,2.896s2.005,0.891,3.119,0.891c1.336,0,2.227-0.223,2.895-0.891
				C483.831,60.593,484.276,59.925,484.276,58.811z"/>
		</g>
	</g>
	<g>
		<g>
			<g>
				<polygon fill="#89181B" points="449.529,147.906 414.114,196.463 434.605,192.453 445.966,207.155 467.349,153.252 				"/>
			</g>
			<g>
				<polygon fill="#89181B" points="474.031,147.906 509.445,196.463 488.954,192.453 477.816,207.155 456.211,153.252 				"/>
			</g>
			<g>
				<g>
					<path fill="#DA1F27" d="M510.336,144.565c0.223,0,0.223-0.223,0.223-0.223c0.445-0.445,0.893-0.668,0.893-0.668h-0.223
						c1.336-1.559,2.227-3.786,2.227-6.014c0-3.118-1.336-5.791-3.564-7.573l0,0c0,0-1.113-1.113-1.336-2.228
						c0-0.223,0-0.445,0-0.668c0.445-0.668,0.668-1.113,0.891-1.782c0.223-0.223,0.223-0.445,0.223-0.445h-0.223
						c0.891-2.228,0.891-4.678-0.223-6.905c-1.113-2.449-2.895-4.009-4.9-5.122h0.223c0,0-2.004-0.892-2.449-2.005
						c-0.445-1.114,0.223-2.673,0.223-2.673l-0.223,0.223c0.445-2.896-0.445-5.791-2.674-8.019
						c-2.227-2.228-5.345-3.118-8.463-2.673c-0.445,0-0.891,0-1.337-0.223c-0.668-0.223-0.891-1.114-1.337-1.56
						c-0.668-2.896-2.672-5.346-5.791-6.459c-2.449-1.114-5.346-0.892-7.572,0.223l0,0c0,0-0.223,0.223-0.445,0.223h-0.223
						c-0.669,0.223-1.56,0.668-2.229,0.445c-0.668-0.223-1.113-0.668-1.559-1.113c-1.781-2.45-4.678-4.232-8.019-4.232
						c-2.896,0-5.568,1.337-7.351,3.341v-0.223c0,0-0.891,1.337-2.004,1.782c-1.114,0.223-3.119-0.891-3.119-0.891v0.223
						c-2.227-0.668-4.678-0.892-6.904,0.223c-2.45,0.891-4.232,2.896-5.123,5.123v-0.223c0,0,0,0.445-0.223,0.891
						c0,0.223-0.223,0.223-0.223,0.445c-0.223,0.668-0.445,1.114-0.891,1.56c-1.114,0.668-2.674,0.445-2.674,0.445l0,0
						c-2.672-0.223-5.568,0.668-7.572,2.896c-2.006,2.005-2.896,4.678-2.896,7.351l0,0c0,0,0.445,1.559-0.223,2.673
						c-0.223,0.445-0.668,0.891-1.113,1.113c-2.896,0.668-5.568,2.673-6.682,5.791c-1.114,2.896-0.892,6.237,0.668,8.688
						l-0.223-0.223c0,0,0.891,1.336,0.668,2.673c-0.223,1.113-2.005,2.45-2.005,2.45l0,0c-2.005,1.781-3.118,4.454-3.118,7.127
						c0,3.118,1.559,5.791,3.787,7.573c0.445,0.445,0.891,0.891,1.113,1.56c0.223,1.113-0.891,3.118-0.891,3.118l0,0
						c-0.892,2.228-1.114,4.9,0,7.351c1.336,3.341,4.454,5.346,7.572,5.791c0.223,0.223,0.668,0.223,0.891,0.668
						c0.223,0.223,0.445,0.668,0.445,0.891c0,2.673,0.892,5.346,2.896,7.351c2.004,2.005,4.455,2.896,6.904,2.896l0,0l0,0
						c0.223,0,0.668,0,0.891,0c0.669,0,1.561,0,2.006,0.445c0.668,0.445,0.891,1.114,1.113,1.56c0,0.223,0,0.223,0.223,0.445
						c0,0.223,0,0.223,0,0.223l0,0c0.891,2.45,2.896,4.455,5.346,5.568c2.004,0.892,4.232,0.892,6.236,0.445l0,0c0,0,0,0,0.223,0
						c0.445-0.223,0.891-0.223,1.337-0.445c0.668-0.223,1.337-0.223,1.782,0c0.223,0,0.445,0.223,0.668,0.445
						c1.781,2.673,4.678,4.455,8.019,4.455c2.896,0,5.346-1.113,7.128-3.118l0,0c0,0,0-0.223,0.223-0.445s0.445-0.445,0.445-0.668
						c0.223-0.446,0.668-0.669,1.113-0.892c1.113-0.445,3.119,0.668,3.119,0.668l-0.224-0.223c2.228,0.892,4.678,0.892,7.128,0
						c2.45-1.113,4.455-2.896,5.346-5.346v0.223c0,0,0.445-2.227,1.559-2.673c1.114-0.668,2.674-0.223,2.674-0.223l-0.223-0.223
						c2.672,0,5.346-0.891,7.35-2.896s2.896-4.454,2.896-6.904l0,0c0,0,0-0.224,0-0.446s0-0.445,0-0.668
						c0-0.445,0-1.113,0.223-1.559c0.445-1.114,2.672-1.782,2.672-1.782h-0.223c2.449-0.891,4.678-2.896,5.791-5.568
						s0.891-5.346-0.223-7.796c-0.223-0.668-0.223-1.337,0-1.782C509.891,145.011,510.113,144.787,510.336,144.565z
						 M484.945,157.929c-2.006,2.005-2.896,4.455-2.896,6.905c-2.227-0.891-4.9-1.113-7.572,0c-2.674,1.113-4.455,3.118-5.346,5.568
						c-1.782-1.559-4.01-2.45-6.46-2.45c-2.228,0-4.009,0.668-5.568,1.782c-0.892-2.228-2.673-4.01-5.123-4.9
						c-2.673-1.113-5.346-0.891-7.573,0.223c0-2.45-0.891-5.123-2.896-6.904c-2.005-2.005-4.454-2.896-7.128-2.896
						c0.223-1.781,0.223-3.786-0.668-5.568c-1.113-2.45-3.118-4.231-5.346-5.346c1.782-1.781,2.896-4.231,2.896-6.904
						c0-3.118-1.561-6.015-3.787-7.796c2.896-0.668,5.346-2.896,6.459-5.791c1.113-2.45,0.891-5.123,0-7.573
						c2.45,0,4.9-0.891,6.683-2.896c2.005-2.005,2.896-4.455,2.896-6.905c2.227,0.891,4.9,1.114,7.572,0
						c2.451-1.113,4.455-3.118,5.346-5.346c1.783,1.56,4.01,2.45,6.46,2.45c2.896,0,5.568-1.336,7.351-3.341
						c0.891,2.673,2.896,5.123,5.568,6.236c2.45,1.114,5.123,0.891,7.573,0c0,2.45,0.891,5.123,2.896,6.905
						c1.781,1.781,4.01,2.673,6.236,2.896c-1.559,2.45-2.004,5.791-0.668,8.909c1.113,2.45,3.118,4.232,5.346,5.123
						c-1.781,1.782-2.896,4.232-2.896,6.905c0,2.004,0.668,4.009,1.782,5.568c-1.782,1.113-3.119,2.673-3.787,4.678
						c-1.113,2.449-0.891,5.122,0,7.572C489.622,155.033,486.949,155.925,484.945,157.929z"/>
				</g>
				<g>
					<g>
						<g>
							<path fill="#FFFFFF" d="M495.859,137.215c-0.669,17.818-16.037,31.629-33.856,30.96
								c-18.042-0.668-32.074-15.814-31.184-33.633c0.669-17.819,16.037-31.629,33.856-30.961
								C482.717,104.472,496.75,119.396,495.859,137.215z"/>
							<path fill="#B52125" d="M463.34,170.403c-0.446,0-0.892,0-1.561,0c-9.354-0.445-18.041-4.232-24.277-11.137
								c-6.236-6.905-9.578-15.592-9.133-24.724c0.891-18.933,16.928-33.856,36.307-32.966c19.155,0.892,34.301,16.929,33.41,35.861
								C497.418,155.925,482.271,170.403,463.34,170.403L463.34,170.403z M463.34,106.031c-16.261,0-29.625,12.696-30.293,28.733
								c-0.445,8.019,2.45,15.592,8.019,21.605c5.568,5.791,12.919,9.354,20.938,9.577c16.928,0.669,30.96-12.25,31.628-28.732
								c0.669-16.482-12.25-30.516-28.955-31.184C464.23,106.031,463.785,106.031,463.34,106.031L463.34,106.031z"/>
						</g>
					</g>
				</g>
			</g>
		</g>
	</g>
</g>
<g>
	<g>
		<g>
			<path fill="#4D4D4D" d="M292.054,29.632L292.054,29.632c0,1.782-0.445,2.896-1.559,4.01c-1.114,0.891-2.45,1.559-4.232,1.559
				c-1.782,0-3.119-0.668-4.232-2.004c-1.114-1.337-1.56-3.118-1.56-5.123v-2.673c0-2.005,0.446-3.787,1.56-5.123
				c1.113-1.337,2.45-2.005,4.232-2.005c1.782,0,3.118,0.445,4.232,1.337c1.114,0.891,1.559,2.227,1.559,4.009l0,0h-1.336
				c0-1.336-0.445-2.45-1.114-3.118c-0.891-0.668-1.782-1.113-3.341-1.113c-1.336,0-2.45,0.668-3.341,1.781
				c-0.891,1.114-1.336,2.673-1.336,4.232v2.673c0,1.781,0.446,3.341,1.336,4.454c0.891,1.114,2.005,1.782,3.341,1.782
				s2.45-0.445,3.341-1.113c0.891-0.669,1.114-1.782,1.114-3.118L292.054,29.632L292.054,29.632z"/>
			<path fill="#4D4D4D" d="M303.859,26.737h-7.127v6.905h8.241v1.113h-9.578V18.05h9.578v1.113h-8.241v6.237h7.127
				C303.859,25.623,303.859,26.737,303.859,26.737z"/>
			<path fill="#4D4D4D" d="M307.868,34.978V18.273h4.677c1.56,0,2.896,0.445,3.787,1.114c0.891,0.668,1.336,1.781,1.336,3.341
				c0,0.891-0.223,1.559-0.668,2.228c-0.445,0.668-1.114,1.113-1.782,1.336c1.114,0.223,1.782,0.668,2.45,1.337
				c0.668,0.891,0.891,1.781,0.891,2.673c0,1.559-0.445,2.673-1.336,3.341c-0.891,0.891-2.228,1.113-3.787,1.113
				C313.659,34.978,307.868,34.978,307.868,34.978z M309.205,25.623h3.787c1.114,0,2.004-0.223,2.673-0.892
				c0.668-0.445,0.891-1.336,0.891-2.227c0-1.114-0.446-1.782-1.114-2.45c-0.668-0.445-1.559-0.892-2.896-0.892h-3.341
				C309.205,19.387,309.205,25.623,309.205,25.623z M309.205,26.959v6.905h4.455c1.114,0,2.005-0.223,2.896-0.891
				c0.668-0.669,1.113-1.56,1.113-2.45c0-0.892-0.223-1.782-0.891-2.45c-0.668-0.669-1.559-0.892-2.673-0.892h-0.223
				C313.659,26.959,309.205,26.959,309.205,26.959z"/>
			<path fill="#4D4D4D" d="M330.143,30.301h-7.129l-1.559,4.677h-1.336l5.792-16.705h1.336l5.791,16.705h-1.336L330.143,30.301z
				 M323.46,28.964h6.236l-3.118-8.909l0,0L323.46,28.964z"/>
			<path fill="#4D4D4D" d="M344.62,30.746c0-0.892-0.224-1.56-0.892-2.005s-1.781-1.113-3.341-1.56
				c-1.782-0.445-3.118-1.113-4.009-1.781s-1.337-1.782-1.337-2.896c0-1.337,0.446-2.228,1.56-3.118
				c1.113-0.892,2.227-1.337,3.786-1.337s2.896,0.445,4.009,1.337c0.892,0.891,1.561,2.004,1.337,3.563l0,0h-1.113
				c0-1.114-0.446-2.005-1.114-2.673s-1.781-1.114-2.895-1.114c-1.337,0-2.229,0.224-2.896,0.892s-1.113,1.336-1.113,2.228
				c0,0.891,0.223,1.559,0.891,2.004s1.782,1.114,3.342,1.56c1.781,0.445,2.895,1.113,3.786,1.782
				c0.891,0.668,1.337,1.781,1.337,2.896c0,1.336-0.446,2.227-1.561,3.118c-1.113,0.891-2.449,1.113-4.009,1.113
				s-2.896-0.445-4.231-1.336c-1.114-0.892-1.782-2.005-1.782-3.564l0,0h1.114c0,1.337,0.445,2.228,1.336,2.896
				c0.891,0.669,2.004,0.892,3.118,0.892c1.337,0,2.228-0.223,2.896-0.892C344.174,32.528,344.62,31.86,344.62,30.746z"/>
			<path fill="#4D4D4D" d="M292.945,58.811c0-0.891-0.223-1.559-0.891-2.004c-0.668-0.446-1.782-1.114-3.341-1.56
				c-1.782-0.445-3.119-1.114-4.009-1.782c-0.891-0.668-1.336-1.781-1.336-2.896c0-1.336,0.445-2.228,1.559-3.118
				s2.227-1.336,3.787-1.336c1.559,0,2.896,0.445,4.009,1.336c0.891,0.891,1.559,2.005,1.336,3.563l0,0h-1.336
				c0-1.113-0.446-2.004-1.114-2.673c-0.668-0.668-1.782-1.113-2.896-1.113c-1.336,0-2.228,0.223-2.896,0.891
				c-0.668,0.668-1.113,1.337-1.113,2.228s0.223,1.56,0.891,2.005c0.668,0.445,1.782,1.113,3.341,1.559
				c1.782,0.446,2.896,1.114,3.787,1.782c0.891,0.668,1.336,1.782,1.336,2.896c0,1.337-0.446,2.228-1.56,3.118
				c-1.113,0.892-2.45,1.114-4.009,1.114c-1.559,0-2.896-0.445-4.232-1.337c-1.114-0.891-1.782-2.005-1.782-3.563l0,0h1.114
				c0,1.336,0.445,2.228,1.336,2.896c0.891,0.668,2.004,0.891,3.118,0.891c1.336,0,2.228-0.223,2.896-0.891
				C292.499,60.593,292.945,59.925,292.945,58.811z"/>
			<path fill="#4D4D4D" d="M304.75,63.043c0-0.445-0.223-0.891-0.223-1.114c0-0.223,0-0.668,0-0.891
				c-0.445,0.668-0.891,1.114-1.782,1.56c-0.668,0.445-1.559,0.668-2.45,0.668c-1.114,0-2.004-0.223-2.673-0.891
				c-0.668-0.669-0.891-1.56-0.891-2.673c0-1.114,0.445-2.005,1.336-2.673c0.891-0.669,2.227-1.114,3.563-1.114h2.896v-1.559
				c0-0.892-0.223-1.56-0.891-2.005c-0.668-0.445-1.336-0.668-2.228-0.668s-1.559,0.223-2.228,0.668
				c-0.445,0.445-0.891,1.113-0.891,1.781h-1.114l0,0c0-0.891,0.445-1.781,1.114-2.449c0.891-0.669,1.782-1.114,3.118-1.114
				s2.45,0.445,3.118,1.114c0.891,0.668,1.114,1.781,1.114,2.896v6.014c0,0.445,0,0.891,0,1.336c0,0.446,0.223,0.892,0.223,1.114
				H304.75L304.75,63.043z M300.295,61.929c1.114,0,1.782-0.223,2.673-0.668c0.668-0.445,1.336-1.113,1.559-2.005v-2.449h-2.896
				c-1.114,0-2.004,0.223-2.673,0.891c-0.668,0.445-1.114,1.113-1.114,2.005c0,0.668,0.223,1.336,0.668,1.781
				C298.958,61.706,299.627,61.929,300.295,61.929z"/>
			<path fill="#4D4D4D" d="M317,61.038c-0.445,0.668-0.891,1.337-1.559,1.56c-0.668,0.445-1.336,0.668-2.228,0.668
				c-1.336,0-2.228-0.445-2.896-1.337c-0.668-0.891-1.114-2.227-1.114-4.009V50.57h1.336v7.128c0,1.559,0.223,2.673,0.668,3.341
				c0.445,0.668,1.113,0.891,2.004,0.891s1.782-0.223,2.45-0.668c0.668-0.445,1.114-1.113,1.336-1.781v-8.91h1.336v12.251h-1.114
				L317,61.038z M315.441,45.669H317l0,0l-2.673,2.896h-1.114L315.441,45.669z"/>
			<path fill="#4D4D4D" d="M321.232,56.807c0-2.005,0.445-3.564,1.113-4.678c0.892-1.114,2.005-1.782,3.342-1.782
				c0.891,0,1.559,0.223,2.227,0.445c0.669,0.445,1.114,0.892,1.56,1.56v-7.351h1.337v17.819h-1.114l-0.223-1.782
				c-0.445,0.668-0.892,1.114-1.56,1.56s-1.336,0.445-2.227,0.445c-1.337,0-2.45-0.445-3.342-1.56
				c-0.891-1.113-1.113-2.673-1.113-4.454V56.807L321.232,56.807z M322.568,57.03c0,1.559,0.223,2.673,0.892,3.563
				c0.668,0.891,1.337,1.336,2.673,1.336c0.891,0,1.559-0.223,2.227-0.668c0.669-0.445,1.114-0.891,1.337-1.559V53.91
				c-0.223-0.668-0.668-1.336-1.337-1.781c-0.445-0.445-1.336-0.668-2.227-0.668c-1.113,0-2.005,0.445-2.673,1.559
				c-0.669,0.891-0.892,2.228-0.892,3.787V57.03L322.568,57.03z"/>
			<path fill="#4D4D4D" d="M338.828,63.266c-1.559,0-2.895-0.668-3.786-1.782c-0.891-1.113-1.337-2.673-1.337-4.454v-0.669
				c0-1.781,0.446-3.341,1.561-4.454c0.891-1.114,2.227-1.782,3.563-1.782c1.337,0,2.674,0.445,3.342,1.337
				c0.891,0.891,1.113,2.227,1.113,3.786v1.114h-8.241v0.445c0,1.336,0.446,2.673,1.114,3.563s1.559,1.337,2.895,1.337
				c0.669,0,1.337-0.224,2.006-0.446c0.668-0.223,1.113-0.668,1.559-0.891l0.668,0.891c-0.445,0.446-0.891,0.892-1.559,1.114
				C340.611,63.043,339.942,63.266,338.828,63.266z M338.828,51.461c-1.113,0-1.781,0.445-2.449,1.113s-1.113,1.782-1.113,2.896l0,0
				h6.904v-0.223c0-1.114-0.223-2.005-0.891-2.673S339.942,51.461,338.828,51.461z"/>
		</g>
	</g>
	<g>
		<g>
			<g>
				<polygon fill="#DC9928" points="299.85,147.906 264.211,196.686 284.926,192.676 296.286,207.377 317.668,153.252 				"/>
			</g>
			<g>
				<polygon fill="#DC9928" points="324.351,147.906 359.988,196.686 339.274,192.676 328.137,207.377 306.532,153.252 				"/>
			</g>
			<g>
				<g>
					<path fill="#F4D256" d="M360.88,144.565l0.223-0.223c0.445-0.445,0.892-0.668,0.892-0.668h-0.224
						c1.337-1.559,2.228-3.786,2.228-6.236c0-3.118-1.336-5.791-3.564-7.573l0,0c0,0-1.113-1.113-1.336-2.45
						c0-0.223,0-0.445,0-0.668c0.445-0.668,0.668-1.114,0.891-1.782c0.223-0.223,0.445-0.445,0.445-0.445h-0.223
						c0.669-2.228,0.669-4.678-0.223-6.905c-0.891-2.45-2.895-4.231-4.9-5.123h0.224c0,0-2.005-0.891-2.45-2.004
						c-0.445-1.114,0.223-2.673,0.223-2.673l-0.223,0.223c0.445-2.896-0.445-6.014-2.673-8.241s-5.568-3.118-8.464-2.673
						c-0.445,0-0.891,0-1.337-0.223c-0.668-0.224-0.891-1.114-1.337-1.56c-0.891-2.896-2.895-5.346-5.791-6.459
						c-2.449-1.114-5.346-0.892-7.572,0.223l0,0c0,0-0.223,0.223-0.445,0.223h-0.223c-0.669,0.223-1.56,0.668-2.451,0.445
						c-0.668-0.223-1.336-0.668-1.559-1.113c-1.782-2.45-4.678-4.232-8.019-4.232c-2.896,0-5.568,1.336-7.351,3.341v-0.223
						c0,0-0.891,1.337-2.004,1.782c-1.114,0.223-3.118-0.892-3.118-0.892v0.224c-2.228-0.669-4.678-0.669-6.905,0.223
						c-2.45,1.113-4.232,2.896-5.123,5.123v-0.224c0,0,0,0.446-0.223,0.892c0,0.223-0.223,0.445-0.223,0.445
						c-0.223,0.668-0.445,1.113-0.891,1.56c-1.114,0.668-2.673,0.445-2.673,0.445l0,0c-2.673-0.223-5.346,0.668-7.573,2.896
						c-2.005,2.005-2.896,4.678-2.896,7.351l0,0c0,0,0.445,1.559-0.223,2.673c-0.223,0.445-0.668,0.668-1.114,1.113
						c-2.896,0.668-5.568,2.673-6.682,5.791c-1.114,2.896-0.891,6.236,0.668,8.687l-0.223-0.223c0,0,0.891,1.337,0.668,2.673
						c-0.223,1.114-2.005,2.45-2.005,2.45l0,0c-2.004,1.782-3.118,4.455-3.118,7.128c0,3.118,1.559,5.791,3.787,7.573
						c0.445,0.445,0.891,0.891,1.113,1.559c0.223,1.114-0.891,3.119-0.891,3.119l0,0c-0.891,2.227-0.891,5.122,0,7.572
						c1.336,3.342,4.455,5.346,7.796,5.792c0.223,0.223,0.668,0.223,0.891,0.445s0.446,0.668,0.446,0.891
						c0,2.673,0.891,5.346,2.896,7.351c2.004,2.005,4.455,2.896,7.127,2.896l0,0l0,0c0.223,0,0.668,0,0.891,0
						c0.668,0,1.559,0,2.004,0.445c0.668,0.445,0.891,1.113,1.114,1.782c0,0.223,0,0.223,0.223,0.445c0,0.223,0,0.223,0,0.223l0,0
						c0.891,2.45,2.896,4.455,5.346,5.568c2.005,0.891,4.232,0.891,6.237,0.445l0,0c0,0,0,0,0.223,0
						c0.445-0.223,0.891-0.223,1.336-0.445c0.668-0.223,1.336-0.223,1.782,0c0.223,0,0.446,0.223,0.668,0.445
						c1.782,2.673,4.677,4.455,8.241,4.455c2.896,0,5.346-1.113,7.127-3.118l0,0c0,0,0-0.223,0.223-0.445
						c0.223-0.223,0.445-0.446,0.445-0.669c0.223-0.445,0.668-0.668,1.113-0.891c1.114-0.445,3.119,0.668,3.119,0.668l-0.223-0.223
						c2.227,0.892,4.9,0.892,7.127,0c2.45-1.113,4.455-2.896,5.346-5.346v0.223c0,0,0.445-2.228,1.559-2.673
						c1.114-0.668,2.674-0.223,2.674-0.223l-0.223-0.223c2.672,0,5.346-0.891,7.35-2.896c2.005-2.005,2.896-4.455,2.896-6.905l0,0
						c0,0,0-0.223,0-0.445s0-0.445,0-0.668c0-0.445,0-1.113,0.223-1.56c0.445-1.113,2.672-1.781,2.672-1.781h-0.223
						c2.451-0.892,4.678-2.896,5.791-5.568c1.114-2.673,0.892-5.346-0.223-7.796c-0.223-0.668-0.223-1.337,0-1.782
						C360.434,145.011,360.657,144.787,360.88,144.565z M335.266,157.929c-2.006,2.005-2.896,4.455-2.896,6.905
						c-2.227-0.891-4.9-1.113-7.572,0c-2.674,1.113-4.456,3.118-5.346,5.568c-1.782-1.559-4.009-2.45-6.459-2.45
						c-2.228,0-4.009,0.668-5.792,1.782c-0.891-2.228-2.673-4.01-5.123-4.9c-2.673-1.113-5.346-0.891-7.796,0.223
						c0-2.45-0.891-5.123-2.896-7.128c-2.005-2.004-4.455-2.896-7.128-2.896c0.446-1.781,0.223-3.786-0.668-5.568
						c-1.114-2.45-3.119-4.454-5.346-5.346c1.782-1.781,2.896-4.231,2.896-6.904c0-3.119-1.559-6.015-4.009-7.796
						c2.896-0.669,5.346-2.896,6.459-5.791c1.114-2.45,0.891-5.123,0-7.573c2.45,0,4.9-0.892,6.682-2.896
						c2.004-2.005,2.896-4.455,2.896-6.905c2.228,0.891,5.123,1.113,7.573,0c2.45-1.113,4.455-3.118,5.346-5.346
						c1.782,1.56,4.009,2.45,6.459,2.45c2.896,0,5.569-1.337,7.351-3.341c0.891,2.673,2.895,5.123,5.569,6.236
						c2.449,1.113,5.123,0.891,7.572,0c0,2.45,0.892,5.123,2.896,6.905c1.781,1.781,4.009,2.673,6.459,2.896
						c-1.559,2.673-2.005,5.791-0.668,8.909c1.113,2.45,3.118,4.232,5.346,5.346c-1.782,1.782-2.896,4.232-2.896,6.905
						c0,2.227,0.669,4.009,1.783,5.568c-1.783,1.113-3.119,2.673-4.01,4.678c-1.113,2.449-0.891,5.122,0,7.572
						C339.942,155.033,337.27,155.925,335.266,157.929z"/>
				</g>
				<g>
					<g>
						<g>
							<path fill="#FFFFFF" d="M345.733,137.215c-0.668,17.818-15.813,31.852-33.633,30.96
								c-17.819-0.668-31.852-15.814-30.96-33.633c0.668-17.819,15.814-31.852,33.633-30.961
								C332.592,104.249,346.402,119.396,345.733,137.215z"/>
							<path fill="#DD9A28" d="M313.437,170.625c-0.445,0-0.891,0-1.559,0c-9.355-0.445-17.819-4.455-24.056-11.137
								c-6.237-6.905-9.578-15.592-9.132-24.946c0.891-19.156,16.706-34.079,36.083-33.188
								c19.156,0.891,34.079,16.929,33.188,36.084C347.07,155.925,331.924,170.625,313.437,170.625L313.437,170.625z
								 M313.214,105.809c-16.26,0-29.401,12.696-30.07,28.956c-0.223,8.019,2.45,15.814,8.019,21.605
								c5.346,6.014,12.919,9.354,20.938,9.8c16.706,0.669,30.738-12.25,31.406-28.732s-12.25-30.738-28.733-31.406
								C314.105,105.809,313.659,105.809,313.214,105.809L313.214,105.809z"/>
						</g>
					</g>
				</g>
			</g>
		</g>
	</g>
</g>
<g>
	<g>
		<g>
			<path fill="#4D4D4D" d="M129.232,29.632L129.232,29.632c0,1.782-0.445,2.896-1.559,4.01c-1.114,0.891-2.45,1.559-4.232,1.559
				c-1.782,0-3.119-0.668-4.232-2.004c-1.114-1.337-1.56-3.118-1.56-5.123v-2.673c0-2.005,0.446-3.787,1.56-5.123
				c1.113-1.337,2.45-2.005,4.232-2.005c1.782,0,3.118,0.445,4.232,1.337c1.114,0.891,1.559,2.227,1.559,4.009l0,0h-1.336
				c0-1.336-0.445-2.45-1.114-3.118c-0.891-0.668-1.782-1.113-3.341-1.113c-1.336,0-2.45,0.668-3.341,1.781
				c-0.891,1.114-1.336,2.673-1.336,4.232v2.673c0,1.781,0.445,3.341,1.336,4.454c0.891,1.114,2.005,1.782,3.341,1.782
				s2.45-0.445,3.341-1.113c0.891-0.669,1.114-1.782,1.114-3.118L129.232,29.632L129.232,29.632z"/>
			<path fill="#4D4D4D" d="M141.26,26.737h-7.127v6.905h8.241v1.113h-9.578V18.05h9.578v1.113h-8.241v6.237h7.127V26.737
				L141.26,26.737z"/>
			<path fill="#4D4D4D" d="M145.27,34.978V18.273h4.678c1.559,0,2.896,0.445,3.786,1.114c0.891,0.668,1.336,1.781,1.336,3.341
				c0,0.891-0.223,1.559-0.668,2.228c-0.445,0.668-1.114,1.113-1.782,1.336c1.113,0.223,1.782,0.668,2.45,1.337
				c0.668,0.891,0.891,1.781,0.891,2.673c0,1.559-0.445,2.673-1.336,3.341c-0.891,0.891-2.228,1.113-3.787,1.113
				C151.061,34.978,145.27,34.978,145.27,34.978z M146.383,25.623h3.787c1.114,0,2.004-0.223,2.673-0.892
				c0.668-0.445,0.891-1.336,0.891-2.227c0-1.114-0.445-1.782-1.114-2.45c-0.668-0.445-1.559-0.892-2.896-0.892h-3.341
				C146.383,19.387,146.383,25.623,146.383,25.623z M146.383,26.959v6.905h4.455c1.114,0,2.005-0.223,2.896-0.891
				c0.668-0.669,1.114-1.56,1.114-2.45c0-0.892-0.223-1.782-0.891-2.45c-0.668-0.669-1.56-0.892-2.673-0.892h-0.223
				C150.838,26.959,146.383,26.959,146.383,26.959z"/>
			<path fill="#4D4D4D" d="M167.543,30.301h-7.128l-1.559,4.677h-1.336l5.792-16.705h1.336l5.791,16.705h-1.336L167.543,30.301z
				 M160.861,28.964h6.236l-3.118-8.909l0,0L160.861,28.964z"/>
			<path fill="#4D4D4D" d="M182.021,30.746c0-0.892-0.223-1.56-0.891-2.005c-0.668-0.445-1.782-1.113-3.341-1.56
				c-1.782-0.445-3.119-1.113-4.01-1.781c-0.891-0.668-1.336-1.782-1.336-2.896c0-1.337,0.446-2.228,1.56-3.118
				c0.891-0.892,2.227-1.337,3.786-1.337c1.56,0,2.896,0.445,4.009,1.337c0.891,0.891,1.56,2.004,1.336,3.563l0,0h-1.336
				c0-1.114-0.445-2.005-1.113-2.673c-0.668-0.668-1.782-1.114-2.896-1.114c-1.336,0-2.227,0.224-2.896,0.892
				c-0.668,0.668-1.114,1.336-1.114,2.228c0,0.891,0.223,1.559,0.891,2.004c0.668,0.446,1.782,1.114,3.341,1.56
				c1.782,0.445,2.896,1.113,3.786,1.782c0.891,0.668,1.336,1.781,1.336,2.896c0,1.336-0.445,2.227-1.559,3.118
				c-1.114,0.891-2.45,1.113-4.009,1.113s-2.896-0.445-4.232-1.336c-1.114-0.892-1.782-2.005-1.782-3.564l0,0h1.114
				c0,1.337,0.445,2.228,1.336,2.896c0.891,0.669,2.004,0.892,3.118,0.892s2.228-0.223,2.896-0.892
				C181.576,32.528,182.021,31.86,182.021,30.746z"/>
			<path fill="#4D4D4D" d="M112.304,54.802h-7.127v6.904h8.241v1.114h-9.578V46.115h9.578v1.113h-8.241v6.236h7.127
				C112.304,53.688,112.304,54.802,112.304,54.802z"/>
			<path fill="#4D4D4D" d="M115.2,56.807c0-2.005,0.446-3.564,1.114-4.678c0.891-1.114,2.005-1.782,3.341-1.782
				c0.891,0,1.559,0.223,2.228,0.445c0.668,0.445,1.113,0.892,1.559,1.56v-7.351h1.336v17.819h-1.114l-0.223-1.782
				c-0.446,0.668-0.891,1.114-1.559,1.56c-0.668,0.445-1.337,0.445-2.228,0.445c-1.336,0-2.45-0.445-3.341-1.56
				c-0.891-1.113-1.114-2.673-1.114-4.454V56.807z M116.537,57.03c0,1.559,0.223,2.673,0.891,3.563
				c0.668,0.891,1.336,1.336,2.673,1.336c0.891,0,1.559-0.223,2.228-0.668c0.668-0.445,1.114-0.891,1.336-1.559V53.91
				c-0.223-0.668-0.668-1.336-1.336-1.781c-0.445-0.445-1.336-0.668-2.228-0.668c-1.114,0-2.004,0.445-2.673,1.559
				c-0.668,0.891-0.891,2.228-0.891,3.787V57.03z"/>
			<path fill="#4D4D4D" d="M135.915,61.038c-0.445,0.668-0.891,1.337-1.559,1.56c-0.668,0.445-1.336,0.668-2.228,0.668
				c-1.336,0-2.227-0.445-2.896-1.337c-0.668-0.891-1.114-2.227-1.114-4.009V50.57h1.336v7.128c0,1.559,0.223,2.673,0.668,3.341
				c0.445,0.668,1.114,0.891,2.004,0.891c0.891,0,1.782-0.223,2.45-0.668c0.668-0.445,1.114-1.113,1.336-1.781v-8.91h1.336v12.251
				h-1.114L135.915,61.038z"/>
			<path fill="#4D4D4D" d="M145.047,62.153c0.891,0,1.559-0.224,2.228-0.669c0.668-0.445,0.891-1.336,0.891-2.228h1.114l0,0
				c0,1.114-0.445,2.005-1.336,2.896c-0.891,0.668-2.004,1.113-3.118,1.113c-1.559,0-2.896-0.668-3.787-1.782
				c-0.891-1.113-1.336-2.673-1.336-4.454v-0.446c0-1.781,0.445-3.341,1.336-4.454c0.891-1.114,2.004-1.782,3.787-1.782
				c1.336,0,2.45,0.445,3.118,1.114c0.891,0.891,1.336,1.781,1.336,3.118l0,0h-1.114c0-0.892-0.223-1.782-0.891-2.45
				c-0.668-0.668-1.336-0.892-2.228-0.892c-1.336,0-2.228,0.446-2.896,1.337c-0.668,0.891-0.891,2.228-0.891,3.563v0.446
				c0,1.559,0.223,2.673,0.891,3.563C142.819,61.484,143.933,62.153,145.047,62.153z"/>
			<path fill="#4D4D4D" d="M159.97,63.043c0-0.445-0.223-0.891-0.223-1.114c0-0.223,0-0.668,0-0.891
				c-0.445,0.668-0.891,1.114-1.782,1.56c-0.668,0.445-1.56,0.668-2.45,0.668c-1.114,0-2.005-0.223-2.673-0.891
				c-0.668-0.669-0.891-1.56-0.891-2.673c0-1.114,0.445-2.005,1.336-2.673c0.891-0.669,2.228-1.114,3.564-1.114h2.896v-1.559
				c0-0.892-0.223-1.56-0.891-2.005c-0.668-0.445-1.336-0.668-2.227-0.668c-0.891,0-1.56,0.223-2.228,0.668
				c-0.445,0.445-0.891,1.113-0.891,1.781h-1.114l0,0c0-0.891,0.446-1.781,1.114-2.449c0.891-0.669,1.782-1.114,3.119-1.114
				s2.45,0.445,3.118,1.114c0.891,0.668,1.114,1.781,1.114,2.896v6.014c0,0.445,0,0.891,0,1.336c0,0.446,0.223,0.892,0.223,1.114
				H159.97L159.97,63.043z M155.516,61.929c1.114,0,1.782-0.223,2.673-0.668c0.668-0.445,1.336-1.113,1.559-2.005v-2.449h-2.896
				c-1.114,0-2.005,0.223-2.673,0.891c-0.668,0.445-1.114,1.113-1.114,2.005c0,0.668,0.223,1.336,0.668,1.781
				C154.179,61.706,154.625,61.929,155.516,61.929z"/>
			<path fill="#4D4D4D" d="M168.88,62.153c0.891,0,1.559-0.224,2.227-0.669c0.668-0.445,0.891-1.336,0.891-2.228h1.114l0,0
				c0,1.114-0.445,2.005-1.336,2.896c-0.891,0.668-2.005,1.113-3.118,1.113c-1.56,0-2.896-0.668-3.787-1.782
				c-0.891-1.113-1.336-2.673-1.336-4.454v-0.446c0-1.781,0.445-3.341,1.336-4.454c0.891-1.114,2.004-1.782,3.787-1.782
				c1.336,0,2.45,0.445,3.118,1.114c0.891,0.891,1.336,1.781,1.336,3.118l0,0h-1.114c0-0.892-0.223-1.782-0.891-2.45
				c-0.668-0.668-1.336-0.892-2.227-0.892c-1.336,0-2.228,0.446-2.896,1.337c-0.668,0.891-0.891,2.228-0.891,3.563v0.446
				c0,1.559,0.223,2.673,0.891,3.563C166.652,61.484,167.543,62.153,168.88,62.153z M169.103,63.043l-0.223,0.668
				c0.668,0,1.114,0.223,1.336,0.445c0.445,0.223,0.445,0.668,0.445,1.337c0,0.668-0.223,1.336-0.891,1.559
				c-0.668,0.446-1.336,0.669-2.45,0.669v-0.892c0.668,0,1.113-0.223,1.559-0.445c0.445-0.223,0.668-0.668,0.668-1.113
				c0-0.446-0.223-0.669-0.445-0.892s-0.891-0.223-1.559-0.445l0.223-1.559L169.103,63.043L169.103,63.043z"/>
			<path fill="#4D4D4D" d="M183.581,63.043c0-0.445-0.223-0.891-0.223-1.114c0-0.223,0-0.668,0-0.891
				c-0.446,0.668-0.891,1.114-1.782,1.56c-0.668,0.445-1.559,0.668-2.45,0.668c-1.113,0-2.004-0.223-2.673-0.891
				c-0.668-0.669-0.891-1.56-0.891-2.673c0-1.114,0.445-2.005,1.336-2.673c0.891-0.669,2.227-1.114,3.563-1.114h2.896v-1.559
				c0-0.892-0.223-1.56-0.891-2.005s-1.336-0.668-2.228-0.668c-0.891,0-1.559,0.223-2.227,0.668
				c-0.446,0.445-0.891,1.113-0.891,1.781h-1.114l0,0c0-0.891,0.445-1.781,1.114-2.449c0.891-0.669,1.782-1.114,3.118-1.114
				s2.45,0.445,3.119,1.114c0.891,0.668,1.113,1.781,1.113,2.896v6.014c0,0.445,0,0.891,0,1.336c0,0.446,0.223,0.892,0.223,1.114
				H183.581L183.581,63.043z M183.803,45.892c0,0.669-0.223,1.337-0.668,1.56c-0.445,0.445-0.891,0.668-1.559,0.668
				c-0.445,0-1.114-0.223-1.559-0.668c-0.668-0.445-1.114-0.668-1.336-0.668c-0.445,0-0.668,0.223-0.891,0.445
				c-0.223,0.223-0.446,0.668-0.446,1.113l-0.891-0.223c0-0.668,0.223-1.113,0.668-1.559s0.891-0.668,1.559-0.668
				c0.445,0,1.114,0.223,1.559,0.668c0.668,0.445,1.114,0.668,1.559,0.668c0.446,0,0.668-0.223,0.891-0.445s0.445-0.668,0.445-1.114
				L183.803,45.892z M179.125,61.929c1.114,0,1.782-0.223,2.673-0.668c0.668-0.445,1.336-1.113,1.56-2.005v-2.449h-2.896
				c-1.113,0-2.004,0.223-2.673,0.891c-0.668,0.445-1.113,1.113-1.113,2.005c0,0.668,0.223,1.336,0.668,1.781
				C177.79,61.706,178.458,61.929,179.125,61.929z"/>
			<path fill="#4D4D4D" d="M187.367,56.583c0-1.781,0.445-3.341,1.336-4.454c0.891-1.114,2.227-1.782,3.786-1.782
				c1.56,0,2.896,0.668,3.787,1.782c0.891,1.113,1.336,2.673,1.336,4.454v0.446c0,1.781-0.445,3.341-1.336,4.454
				c-0.891,1.114-2.227,1.782-3.787,1.782c-1.559,0-2.896-0.668-3.786-1.782c-0.891-1.113-1.336-2.673-1.336-4.454V56.583
				L187.367,56.583z M188.704,57.03c0,1.336,0.445,2.673,1.113,3.563c0.668,0.891,1.56,1.56,2.896,1.56s2.227-0.446,2.896-1.56
				c0.668-1.114,1.114-2.228,1.114-3.563v-0.446c0-1.336-0.446-2.673-1.114-3.563c-0.668-0.891-1.782-1.56-2.896-1.56
				c-1.336,0-2.228,0.446-2.896,1.56c-0.668,0.891-1.113,2.228-1.113,3.563V57.03z"/>
		</g>
	</g>
	<g>
		<g>
			<g>
				<polygon fill="#274391" points="137.251,147.906 101.835,196.24 122.328,192.453 133.687,206.932 155.07,153.252 				"/>
			</g>
			<g>
				<polygon fill="#274391" points="161.752,147.906 196.945,196.24 176.453,192.453 165.316,206.932 143.933,153.252 				"/>
			</g>
			<g>
				<g>
					<path fill="#91C1E4" d="M197.835,144.565l0.223-0.223c0.445-0.445,0.891-0.668,0.891-0.668h-0.223
						c1.336-1.559,2.228-3.786,2.228-6.014c0-3.118-1.336-5.791-3.564-7.573l0,0c0,0-1.114-1.113-1.336-2.228
						c0-0.223,0-0.445,0-0.668c0.445-0.668,0.668-1.113,0.891-1.782c0.223-0.223,0.445-0.445,0.445-0.445h-0.223
						c0.891-2.228,0.891-4.678-0.223-6.905c-1.114-2.449-2.896-4.009-4.9-5.122h0.223c0,0-2.004-0.892-2.45-2.005
						c-0.445-1.114,0.223-2.673,0.223-2.673l-0.223,0.223c0.446-2.896-0.445-5.791-2.673-8.019
						c-2.227-2.228-5.346-3.118-8.464-2.673c-0.445,0-0.891,0-1.336-0.223c-0.668-0.223-0.891-1.114-1.336-1.56
						c-0.668-2.896-2.673-5.346-5.568-6.459c-2.45-1.114-5.346-0.892-7.573,0.223l0,0c0,0-0.223,0.223-0.445,0.223h-0.223
						c-0.668,0.223-1.56,0.668-2.228,0.445c-0.668-0.223-1.114-0.668-1.559-1.113c-1.782-2.45-4.678-4.232-8.019-4.232
						c-2.896,0-5.569,1.337-7.351,3.341v-0.223c0,0-0.891,1.337-2.004,1.56s-3.119-0.891-3.119-0.891v0.223
						c-2.227-0.668-4.455-0.668-6.905,0.223s-4.232,2.896-5.123,5.123v-0.223c0,0,0,0.445-0.223,0.891
						c0,0.223-0.223,0.223-0.223,0.445c-0.223,0.668-0.445,1.114-0.891,1.56c-1.114,0.668-2.673,0.445-2.673,0.445l0,0
						c-2.673-0.223-5.346,0.668-7.573,2.896c-2.005,2.005-2.896,4.678-2.896,7.351l0,0c0,0,0.445,1.559,0,2.673
						c-0.223,0.445-0.668,0.668-1.114,1.113c-2.896,0.668-5.569,2.673-6.682,5.791c-1.114,2.896-0.891,6.237,0.668,8.688
						l-0.223-0.223c0,0,0.891,1.336,0.668,2.673c-0.223,1.113-2.004,2.45-2.004,2.45l0,0c-2.004,1.781-3.118,4.231-3.118,7.127
						c0,3.118,1.559,5.791,3.787,7.573c0.445,0.445,0.891,0.891,1.113,1.56c0.223,1.113-0.891,3.118-0.891,3.118l0,0
						c-0.891,2.228-0.891,4.9,0,7.351c1.336,3.341,4.455,5.346,7.573,5.791c0.223,0.223,0.668,0.223,0.891,0.668
						c0.223,0.223,0.445,0.668,0.445,0.891c0,2.673,0.891,5.346,2.896,7.128c2.005,2.005,4.455,2.896,7.128,2.896l0,0l0,0
						c0.223,0,0.668,0,0.891,0c0.668,0,1.56,0,2.005,0.445c0.668,0.445,0.891,1.114,1.114,1.56c0,0.223,0,0.223,0.223,0.445
						c0,0.223,0,0.223,0,0.223l0,0c0.891,2.45,2.896,4.455,5.346,5.568c2.004,0.892,4.232,0.892,6.237,0.445l0,0l0,0
						c0.445-0.223,0.891-0.223,1.336-0.445c0.668-0.223,1.336-0.223,1.782,0c0.223,0,0.445,0.223,0.668,0.445
						c1.782,2.673,4.677,4.232,8.019,4.232c2.896,0,5.346-1.114,7.127-3.118l0,0c0,0,0-0.223,0.223-0.445s0.445-0.446,0.445-0.669
						c0.223-0.445,0.668-0.668,1.114-0.891c1.114-0.445,3.119,0.445,3.119,0.445l-0.223-0.223c2.228,0.891,4.678,0.891,7.128,0
						c2.45-1.113,4.455-2.896,5.346-5.346v0.223c0,0,0.445-2.228,1.559-2.673c1.114-0.668,2.673-0.223,2.673-0.223h-0.223
						c2.673,0,5.346-0.891,7.35-2.896c2.005-2.005,2.896-4.455,2.896-6.905l0,0c0,0,0-0.223,0-0.445s0-0.445,0-0.891
						s0-1.113,0.223-1.56c0.668-1.113,2.673-1.781,2.673-1.781l0,0c2.45-0.892,4.677-2.896,5.791-5.346
						c1.114-2.673,0.891-5.346-0.223-7.796c-0.223-0.668-0.223-1.337,0-1.782C197.39,145.011,197.613,144.787,197.835,144.565z
						 M172.443,157.929c-2.004,2.005-2.896,4.455-2.896,6.905c-2.227-0.891-4.9-1.113-7.573,0s-4.455,3.118-5.346,5.568
						c-1.782-1.559-4.009-2.45-6.459-2.45c-2.005,0-4.009,0.668-5.568,1.782c-0.891-2.228-2.673-4.01-5.123-4.9
						c-2.45-1.113-5.346-0.891-7.573,0.223c0-2.45-0.891-5.123-2.896-6.904c-2.005-2.005-4.455-2.896-7.127-2.896
						c0.445-1.781,0.223-3.786-0.668-5.568c-1.114-2.45-2.896-4.231-5.346-5.346c1.782-1.781,2.896-4.231,2.896-6.904
						c0-3.118-1.559-6.015-3.787-7.796c2.896-0.668,5.346-2.673,6.459-5.791c1.114-2.45,0.891-5.123,0-7.573
						c2.45,0,4.9-0.891,6.682-2.896c1.782-2.005,2.896-4.455,2.896-6.905c2.228,0.891,4.9,1.114,7.573,0
						c2.45-1.113,4.455-3.118,5.346-5.346c1.782,1.56,4.009,2.45,6.459,2.45c2.896,0,5.568-1.336,7.35-3.341
						c0.891,2.673,2.896,4.9,5.569,6.236c2.45,1.114,5.123,0.891,7.573,0c0,2.45,0.891,4.9,2.896,6.905
						c1.782,1.781,4.01,2.673,6.237,2.896c-1.559,2.673-2.004,5.791-0.668,8.687c1.113,2.45,2.896,4.232,5.346,5.346
						c-1.782,1.782-2.896,4.232-2.896,6.905c0,2.004,0.668,4.009,1.782,5.568c-1.782,1.113-3.119,2.673-3.787,4.678
						c-1.114,2.449-0.891,5.122,0,7.572C177.121,155.033,174.448,155.925,172.443,157.929z"/>
				</g>
				<g>
					<g>
						<g>
							<path fill="#FFFFFF" d="M182.689,137.215c-0.668,17.818-15.814,31.629-33.411,30.737
								c-17.819-0.668-31.629-15.814-30.738-33.41c0.668-17.819,15.814-31.629,33.411-30.738
								C169.771,104.472,183.581,119.618,182.689,137.215z"/>
							<path fill="#274391" d="M150.615,170.403c-0.445,0-0.891,0-1.559,0c-9.132-0.445-17.596-4.232-23.833-11.137
								c-6.237-6.683-9.355-15.592-9.132-24.724c0.891-18.933,16.706-33.856,35.861-32.966
								c18.933,0.892,33.856,16.929,32.965,35.861C184.249,155.925,169.103,170.403,150.615,170.403L150.615,170.403z
								 M150.615,106.031c-16.037,0-29.179,12.696-29.847,28.733c-0.446,8.019,2.45,15.592,7.795,21.383
								c5.346,5.791,12.696,9.354,20.715,9.577c16.706,0.668,30.515-12.027,31.183-28.732c0.668-16.483-12.25-30.516-28.733-31.184
								C151.506,106.031,151.061,106.031,150.615,106.031L150.615,106.031z"/>
						</g>
					</g>
				</g>
			</g>
		</g>
	</g>
</g>
<g>
	<path fill="#274391" d="M129.232,366.19h1.559c0.668,0,1.336-0.223,1.559-0.446c0.223-0.223,0.446-0.891,0.446-1.336
		c0-0.668-0.223-1.114-0.446-1.337c-0.445-0.223-0.891-0.445-1.336-0.445c-0.445,0-0.891,0.223-1.336,0.445
		c-0.445,0.223-0.445,0.668-0.445,1.114h-2.896c0-0.669,0.223-1.337,0.668-2.005c0.446-0.668,0.891-1.113,1.782-1.336
		c0.668-0.224,1.559-0.446,2.45-0.446c1.56,0,2.673,0.446,3.564,1.114s1.336,1.781,1.336,2.896c0,0.668-0.223,1.336-0.668,1.781
		c-0.446,0.446-0.891,0.892-1.559,1.337c0.891,0.223,1.336,0.668,1.782,1.336c0.445,0.669,0.668,1.337,0.668,2.005
		c0,1.337-0.445,2.228-1.336,3.118c-0.891,0.668-2.227,1.114-3.563,1.114s-2.673-0.446-3.564-1.114s-1.336-1.781-1.336-2.896h2.896
		c0,0.446,0.223,0.892,0.668,1.337c0.445,0.445,0.891,0.445,1.559,0.445c0.668,0,1.114-0.223,1.559-0.445
		c0.445-0.445,0.668-0.891,0.668-1.337c0-1.336-0.891-2.228-2.45-2.228h-1.559v-2.672H129.232z"/>
	<path fill="#274391" d="M138.81,377.994l-1.559-0.668l0.445-0.668c0.446-0.892,0.668-1.56,0.668-2.45v-2.228h2.45v2.004
		c0,0.669-0.223,1.56-0.446,2.228C139.701,376.881,139.256,377.549,138.81,377.994z"/>
	<path fill="#274391" d="M152.397,361.735l-5.568,12.696h-2.896l5.568-12.028h-7.127v-2.228h10.023V361.735z"/>
	<path fill="#274391" d="M154.625,367.526l0.891-7.351h8.019v2.45h-5.568l-0.446,3.118c0.668-0.445,1.336-0.445,2.228-0.445
		c1.336,0,2.45,0.445,3.118,1.337c0.668,0.891,1.114,2.004,1.114,3.563c0,0.891-0.223,1.782-0.668,2.45
		c-0.446,0.668-0.891,1.336-1.56,1.782c-0.668,0.445-1.559,0.668-2.673,0.668c-0.891,0-1.559-0.223-2.45-0.445
		c-0.668-0.446-1.337-0.892-1.782-1.56s-0.668-1.336-0.668-2.228h2.896c0,0.668,0.223,1.114,0.668,1.337
		c0.446,0.223,0.891,0.445,1.336,0.445c0.668,0,1.114-0.223,1.56-0.668c0.445-0.445,0.445-1.114,0.445-2.005
		s-0.223-1.337-0.668-1.782c-0.445-0.445-0.891-0.668-1.782-0.668c-0.668,0-1.114,0.223-1.559,0.445l-0.223,0.223L154.625,367.526z"
		/>
	<path fill="#274391" d="M165.761,363.071c0-0.891,0.223-1.559,0.891-2.227c0.668-0.446,1.336-0.892,2.228-0.892
		c0.891,0,1.782,0.223,2.227,0.892c0.668,0.445,0.891,1.336,0.891,2.227v0.668c0,0.892-0.223,1.56-0.891,2.228
		c-0.668,0.669-1.336,0.892-2.227,0.892c-0.891,0-1.782-0.223-2.228-0.892c-0.668-0.445-0.891-1.336-0.891-2.228V363.071z
		 M167.543,363.74c0,0.445,0,0.668,0.445,0.891c0.223,0.223,0.445,0.445,0.891,0.445c0.445,0,0.668-0.223,0.891-0.445
		c0.223-0.223,0.223-0.668,0.223-0.891v-0.669c0-0.445,0-0.668-0.223-0.891c-0.223-0.223-0.445-0.445-0.891-0.445
		c-0.446,0-0.668,0.223-0.891,0.445s-0.223,0.668-0.223,0.891v0.669H167.543z M169.325,373.317l-1.336-0.668l6.905-11.137
		l1.336,0.668L169.325,373.317z M172.667,371.089c0-0.891,0.223-1.559,0.891-2.228c0.668-0.445,1.336-0.891,2.228-0.891
		s1.782,0.223,2.228,0.891c0.668,0.446,0.891,1.337,0.891,2.228v0.669c0,0.891-0.223,1.559-0.891,2.227
		c-0.668,0.446-1.336,0.892-2.228,0.892s-1.782-0.223-2.228-0.892c-0.445-0.668-0.891-1.336-0.891-2.227V371.089z M174.448,371.758
		c0,0.445,0.223,0.668,0.445,0.891s0.446,0.445,0.891,0.445c0.891,0,1.114-0.445,1.114-1.336v-0.669
		c0-0.445-0.223-0.668-0.446-0.891c-0.223-0.223-0.445-0.445-0.891-0.445s-0.668,0.223-0.891,0.445s-0.223,0.668-0.223,0.891
		V371.758z"/>
</g>
<g>
	<path fill="#F6D448" d="M295.172,374.431h-2.896v-10.915l-3.341,1.114v-2.228l5.791-2.005h0.223v14.033H295.172z"/>
	<path fill="#F6D448" d="M300.518,377.994l-1.559-0.668l0.446-0.668c0.445-0.892,0.668-1.56,0.668-2.45v-2.228h2.45v2.004
		c0,0.669-0.223,1.56-0.445,2.228C301.631,376.881,301.186,377.549,300.518,377.994z"/>
	<path fill="#F6D448" d="M314.328,368.639c0,2.005-0.445,3.564-1.114,4.455s-2.004,1.56-3.564,1.56c-1.559,0-2.673-0.446-3.563-1.56
		c-0.891-1.113-1.336-2.45-1.336-4.455v-2.673c0-2.004,0.445-3.563,1.336-4.454c0.891-1.114,2.004-1.56,3.563-1.56
		c1.56,0,2.673,0.445,3.564,1.56c0.891,1.113,1.336,2.45,1.336,4.454v2.673H314.328z M311.432,365.743
		c0-1.113-0.223-2.004-0.446-2.673c-0.223-0.445-0.891-0.891-1.559-0.891c-0.668,0-1.114,0.223-1.559,0.668
		c-0.223,0.445-0.445,1.337-0.445,2.45v3.563c0,1.114,0.223,2.005,0.445,2.674c0.223,0.668,0.891,0.891,1.559,0.891
		c0.668,0,1.114-0.223,1.559-0.891c0.223-0.446,0.446-1.337,0.446-2.45V365.743z"/>
	<path fill="#F6D448" d="M323.905,360.175v2.228h-0.223c-1.337,0-2.228,0.445-3.118,0.891c-0.891,0.669-1.336,1.56-1.336,2.674
		c0.668-0.669,1.782-1.114,2.895-1.114c1.337,0,2.228,0.445,2.896,1.337c0.668,0.891,1.113,2.004,1.113,3.563
		c0,0.891-0.223,1.782-0.668,2.45s-0.891,1.336-1.782,1.781c-0.669,0.446-1.56,0.669-2.45,0.669c-1.559,0-2.673-0.446-3.564-1.56
		c-0.891-1.113-1.336-2.45-1.336-4.232v-1.113c0-1.559,0.223-2.896,0.891-4.009c0.668-1.114,1.336-2.005,2.45-2.673
		c1.114-0.669,2.45-0.892,3.787-0.892H323.905z M321.01,367.303c-0.445,0-0.891,0.223-1.336,0.445s-0.668,0.445-0.891,0.891v0.892
		c0,0.891,0.223,1.782,0.668,2.228c0.445,0.445,0.891,0.891,1.559,0.891c0.668,0,1.113-0.223,1.559-0.668s0.669-1.114,0.669-1.782
		s-0.224-1.336-0.669-1.782C322.123,367.971,321.678,367.303,321.01,367.303z"/>
	<path fill="#F6D448" d="M327.691,363.071c0-0.891,0.223-1.559,0.892-2.227c0.668-0.446,1.337-0.892,2.228-0.892
		s1.781,0.223,2.227,0.892c0.668,0.445,0.892,1.336,0.892,2.227v0.668c0,0.892-0.224,1.56-0.892,2.228
		c-0.668,0.669-1.336,0.892-2.227,0.892s-1.782-0.223-2.228-0.892c-0.669-0.445-0.892-1.336-0.892-2.228V363.071z M329.474,363.74
		c0,0.445,0,0.668,0.446,0.891c0.223,0.223,0.445,0.445,0.891,0.445s0.668-0.223,0.891-0.445s0.223-0.668,0.223-0.891v-0.669
		c0-0.445,0-0.668-0.223-0.891s-0.445-0.445-0.891-0.445s-0.668,0.223-0.891,0.445c-0.224,0.223-0.224,0.668-0.224,0.891v0.669
		H329.474z M331.256,373.317l-1.336-0.668l6.904-11.137l1.336,0.668L331.256,373.317z M334.374,371.089
		c0-0.891,0.223-1.559,0.892-2.228c0.668-0.445,1.336-0.891,2.227-0.891s1.782,0.223,2.228,0.891
		c0.668,0.446,0.892,1.337,0.892,2.228v0.669c0,0.891-0.224,1.559-0.892,2.227c-0.669,0.446-1.337,0.892-2.228,0.892
		s-1.781-0.223-2.227-0.892c-0.446-0.668-0.892-1.336-0.892-2.227V371.089z M336.379,371.758c0,0.445,0.223,0.668,0.445,0.891
		s0.445,0.445,0.891,0.445c0.891,0,1.113-0.445,1.113-1.336v-0.669c0-0.445-0.223-0.668-0.445-0.891s-0.445-0.445-0.891-0.445
		s-0.668,0.223-0.891,0.445s-0.223,0.668-0.223,0.891V371.758z"/>
</g>
<g>
	<path fill="#274391" d="M133.687,137.438c0,2.004-0.445,3.563-1.113,4.454c-0.668,0.892-2.005,1.56-3.564,1.56
		s-2.673-0.445-3.564-1.56c-0.891-1.113-1.336-2.45-1.336-4.454v-2.673c0-2.005,0.445-3.564,1.336-4.455
		c0.891-1.113,2.005-1.56,3.564-1.56s2.673,0.446,3.564,1.56c0.891,1.113,1.336,2.45,1.336,4.455v2.673H133.687z M131.014,134.542
		c0-1.114-0.223-2.005-0.445-2.673c-0.223-0.446-0.891-0.892-1.559-0.892c-0.668,0-1.114,0.223-1.559,0.669
		c-0.223,0.445-0.446,1.336-0.446,2.449v3.564c0,1.113,0.223,2.005,0.446,2.673s0.891,0.891,1.559,0.891
		c0.668,0,1.114-0.223,1.559-0.891c0.223-0.445,0.445-1.337,0.445-2.45V134.542z"/>
	<path fill="#274391" d="M136.583,147.015l-1.56-0.668l0.446-0.668c0.445-0.891,0.668-1.56,0.668-2.45v-2.228h2.45v2.005
		c0,0.668-0.223,1.559-0.445,2.228C137.474,145.902,137.028,146.57,136.583,147.015z"/>
	<path fill="#274391" d="M150.393,143.451h-9.8v-2.005l4.677-4.9c0.668-0.668,1.114-1.336,1.336-1.781s0.445-1.114,0.445-1.56
		c0-0.668-0.223-1.113-0.445-1.559c-0.223-0.446-0.668-0.446-1.336-0.446c-0.668,0-1.114,0.223-1.559,0.669
		c-0.445,0.445-0.445,1.113-0.445,1.781h-2.896c0-0.891,0.223-1.559,0.668-2.45c0.445-0.668,0.891-1.336,1.782-1.781
		c0.668-0.446,1.559-0.669,2.673-0.669c1.559,0,2.673,0.446,3.341,1.114c0.891,0.668,1.114,1.782,1.114,2.896
		c0,0.668-0.223,1.336-0.446,2.228c-0.223,0.891-0.891,1.559-1.782,2.45l-3.341,3.341h6.237v2.673H150.393z"/>
	<path fill="#274391" d="M161.307,132.983c0,0.668-0.223,1.337-0.445,1.782c-0.446,0.445-0.891,0.891-1.336,1.336
		c0.668,0.223,1.336,0.892,1.559,1.337c0.445,0.668,0.668,1.336,0.668,2.004c0,1.337-0.445,2.228-1.336,2.896
		c-0.891,0.668-2.004,1.113-3.563,1.113c-1.56,0-2.673-0.445-3.564-1.113c-0.891-0.669-1.336-1.782-1.336-2.896
		c0-0.891,0.223-1.559,0.668-2.004c0.446-0.445,0.891-1.114,1.56-1.337c-0.668-0.223-1.114-0.668-1.336-1.336
		c-0.446-0.446-0.446-1.114-0.446-1.782c0-1.113,0.446-2.228,1.114-2.896c0.891-0.668,2.005-1.113,3.341-1.113
		s2.45,0.445,3.341,1.113C160.861,130.755,161.307,131.647,161.307,132.983z M158.856,139.219c0-0.668-0.223-1.113-0.445-1.559
		s-0.891-0.668-1.559-0.668c-0.668,0-1.114,0.223-1.336,0.445c-0.446,0.445-0.446,0.891-0.446,1.559c0,0.669,0.223,1.114,0.446,1.56
		s0.891,0.668,1.559,0.668c0.668,0,1.114-0.223,1.336-0.445C158.634,140.333,158.856,139.888,158.856,139.219z M158.411,132.983
		c0-0.445-0.223-0.891-0.445-1.336c-0.223-0.446-0.668-0.446-1.336-0.446c-0.446,0-0.891,0.223-1.337,0.446
		c-0.223,0.223-0.445,0.668-0.445,1.336s0.223,1.113,0.445,1.337c0.223,0.445,0.668,0.445,1.337,0.445
		c0.668,0,0.891-0.223,1.336-0.445C158.411,134.096,158.411,133.651,158.411,132.983z"/>
	<path fill="#274391" d="M163.534,131.869c0-0.892,0.223-1.56,0.891-2.228c0.668-0.445,1.336-0.892,2.228-0.892
		s1.782,0.224,2.228,0.892c0.668,0.445,0.891,1.336,0.891,2.228v0.668c0,0.891-0.223,1.559-0.891,2.228
		c-0.668,0.668-1.336,0.891-2.228,0.891s-1.782-0.223-2.228-0.891c-0.668-0.446-0.891-1.337-0.891-2.228V131.869z M165.316,132.76
		c0,0.445,0,0.668,0.445,0.891c0.223,0.223,0.446,0.445,0.891,0.445s0.668-0.223,0.891-0.445s0.223-0.668,0.223-0.891v-0.668
		c0-0.445,0-0.668-0.223-0.892c-0.223-0.223-0.446-0.445-0.891-0.445s-0.668,0.223-0.891,0.445
		c-0.223,0.224-0.223,0.669-0.223,0.892v0.668H165.316z M167.098,142.338l-1.336-0.669l6.905-11.137l1.336,0.668L167.098,142.338z
		 M170.439,139.888c0-0.892,0.223-1.56,0.891-2.228c0.668-0.445,1.336-0.891,2.227-0.891c0.891,0,1.782,0.223,2.228,0.891
		c0.668,0.445,0.891,1.336,0.891,2.228v0.668c0,0.891-0.223,1.56-0.891,2.228c-0.668,0.445-1.336,0.891-2.228,0.891
		c-0.891,0-1.782-0.223-2.227-0.891c-0.668-0.445-0.891-1.337-0.891-2.228V139.888z M172.221,140.779
		c0,0.445,0.223,0.668,0.446,0.891s0.445,0.446,0.891,0.446c0.891,0,1.114-0.446,1.114-1.337v-0.668
		c0-0.445-0.223-0.668-0.445-0.892c-0.223-0.223-0.446-0.445-0.891-0.445s-0.668,0.223-0.891,0.445
		c-0.223,0.224-0.223,0.669-0.223,0.892V140.779z"/>
</g>
<g>
	<path fill="#DC9928" d="M297.845,137.438c0,2.004-0.445,3.563-1.113,4.454c-0.668,0.892-2.005,1.56-3.564,1.56
		s-2.673-0.445-3.564-1.56c-0.891-1.113-1.336-2.45-1.336-4.454v-2.673c0-2.005,0.446-3.564,1.336-4.455
		c0.891-1.113,2.005-1.56,3.564-1.56s2.673,0.446,3.564,1.56c0.891,1.113,1.336,2.45,1.336,4.455v2.673H297.845z M294.949,134.542
		c0-1.114-0.223-2.005-0.445-2.673c-0.223-0.446-0.891-0.892-1.559-0.892c-0.668,0-1.114,0.223-1.559,0.669
		c-0.223,0.445-0.446,1.336-0.446,2.449v3.564c0,1.113,0.223,2.005,0.446,2.673c0.223,0.668,0.891,0.891,1.559,0.891
		c0.668,0,1.114-0.223,1.559-0.891c0.223-0.445,0.445-1.337,0.445-2.45V134.542z"/>
	<path fill="#DC9928" d="M300.518,147.015l-1.559-0.668l0.446-0.668c0.445-0.891,0.668-1.56,0.668-2.45v-2.228h2.45v2.005
		c0,0.668-0.223,1.559-0.445,2.228C301.631,145.902,301.186,146.57,300.518,147.015z"/>
	<path fill="#DC9928" d="M307.646,134.988h1.559c0.668,0,1.336-0.223,1.559-0.445c0.445-0.446,0.445-0.892,0.445-1.337
		c0-0.668-0.223-1.113-0.445-1.336c-0.445-0.223-0.891-0.446-1.336-0.446s-0.891,0.224-1.336,0.446s-0.445,0.668-0.445,1.113h-3.119
		c0-0.668,0.223-1.336,0.668-2.005c0.445-0.668,0.891-1.113,1.782-1.336c0.668-0.445,1.56-0.445,2.45-0.445
		c1.559,0,2.673,0.445,3.564,1.113s1.336,1.782,1.336,2.896c0,0.668-0.223,1.337-0.668,1.782c-0.445,0.445-0.891,0.891-1.559,1.336
		c0.891,0.223,1.336,0.668,1.782,1.337c0.445,0.668,0.668,1.336,0.668,2.004c0,1.337-0.445,2.228-1.336,3.119
		c-0.891,0.668-2.228,1.113-3.564,1.113s-2.673-0.445-3.563-1.113c-0.891-0.669-1.336-1.782-1.336-2.896h2.896
		c0,0.445,0.223,0.891,0.668,1.336c0.446,0.445,0.891,0.445,1.56,0.445c0.668,0,1.113-0.223,1.559-0.445
		c0.445-0.445,0.668-0.891,0.668-1.336c0-1.337-0.891-2.228-2.45-2.228h-1.559v-2.673H307.646z"/>
	<path fill="#DC9928" d="M322.791,137.66c-0.668,0.668-1.559,1.113-2.672,1.113c-1.336,0-2.228-0.445-3.118-1.336
		c-0.668-0.892-1.114-2.005-1.114-3.564c0-0.891,0.223-1.781,0.668-2.673c0.445-0.668,0.891-1.336,1.782-1.781
		c0.668-0.446,1.559-0.669,2.45-0.669c0.891,0,1.781,0.224,2.45,0.669c0.668,0.445,1.337,1.113,1.782,2.004
		c0.445,0.892,0.668,1.782,0.668,3.119v1.113c0,2.45-0.668,4.232-1.782,5.568c-1.114,1.337-2.896,2.005-5.123,2.228h-0.668v-2.45
		h0.668C321.232,141.001,322.568,139.888,322.791,137.66z M320.787,136.546c0.445,0,0.891-0.223,1.113-0.445
		s0.668-0.445,0.668-0.891v-1.114c0-0.891-0.223-1.781-0.445-2.227c-0.445-0.446-0.891-0.892-1.559-0.892
		c-0.668,0-1.114,0.223-1.336,0.669c-0.446,0.445-0.446,1.113-0.446,2.004c0,0.668,0.223,1.337,0.446,2.005
		C319.673,136.323,320.341,136.546,320.787,136.546z"/>
	<path fill="#DC9928" d="M327.691,131.869c0-0.892,0.223-1.56,0.892-2.228c0.668-0.445,1.337-0.892,2.228-0.892
		s1.781,0.224,2.227,0.892c0.668,0.445,0.892,1.336,0.892,2.228v0.668c0,0.891-0.224,1.559-0.892,2.228
		c-0.668,0.668-1.336,0.891-2.227,0.891s-1.782-0.223-2.228-0.891c-0.669-0.446-0.892-1.337-0.892-2.228V131.869z M329.474,132.76
		c0,0.445,0,0.668,0.446,0.891c0.223,0.223,0.445,0.445,0.891,0.445s0.668-0.223,0.891-0.445s0.223-0.668,0.223-0.891v-0.668
		c0-0.445,0-0.668-0.223-0.892c-0.223-0.223-0.445-0.445-0.891-0.445s-0.668,0.223-0.891,0.445
		c-0.224,0.224-0.224,0.669-0.224,0.892v0.668H329.474z M331.256,142.338l-1.336-0.669l6.904-11.137l1.336,0.668L331.256,142.338z
		 M334.374,139.888c0-0.892,0.223-1.56,0.892-2.228c0.668-0.445,1.336-0.891,2.227-0.891s1.782,0.223,2.228,0.891
		c0.668,0.445,0.892,1.336,0.892,2.228v0.668c0,0.891-0.224,1.56-0.892,2.228c-0.669,0.445-1.337,0.891-2.228,0.891
		s-1.781-0.223-2.227-0.891c-0.669-0.445-0.892-1.337-0.892-2.228V139.888z M336.379,140.779c0,0.445,0.223,0.668,0.445,0.891
		s0.445,0.446,0.891,0.446c0.891,0,1.113-0.446,1.113-1.337v-0.668c0-0.445-0.223-0.668-0.445-0.892
		c-0.223-0.223-0.445-0.445-0.891-0.445s-0.668,0.223-0.891,0.445c-0.223,0.224-0.223,0.669-0.223,0.892V140.779z"/>
</g>
<g>
	<path fill="#89181B" d="M443.738,143.451h-2.896v-10.914l-3.341,1.113v-2.227l5.791-2.005h0.223v14.032H443.738z"/>
	<path fill="#89181B" d="M449.307,147.015l-1.559-0.668l0.445-0.668c0.445-0.891,0.668-1.56,0.668-2.45v-2.228h2.45v2.005
		c0,0.668-0.224,1.559-0.446,2.228C450.197,145.902,449.752,146.57,449.307,147.015z"/>
	<path fill="#89181B" d="M460.889,128.974v2.227h-0.223c-1.336,0-2.227,0.446-3.118,0.892c-0.891,0.668-1.337,1.559-1.337,2.673
		c0.669-0.668,1.783-1.114,2.896-1.114c1.336,0,2.227,0.446,2.896,1.337c0.668,0.891,1.113,2.005,1.113,3.563
		c0,0.892-0.223,1.782-0.668,2.45s-0.892,1.337-1.782,1.782c-0.668,0.445-1.559,0.668-2.449,0.668c-1.56,0-2.674-0.445-3.564-1.56
		c-0.891-1.113-1.336-2.45-1.336-4.231v-1.114c0-1.559,0.223-2.896,0.891-4.009s1.336-2.005,2.45-2.673
		c1.113-0.668,2.45-0.891,3.786-0.891H460.889z M458.217,136.101c-0.446,0-0.892,0.223-1.337,0.445
		c-0.446,0.224-0.669,0.446-0.892,0.892v0.891c0,0.891,0.223,1.782,0.669,2.228c0.445,0.445,0.891,0.891,1.56,0.891
		c0.668,0,1.113-0.223,1.559-0.668s0.668-1.113,0.668-1.782c0-0.668-0.223-1.336-0.668-1.781
		C459.33,136.323,458.885,136.101,458.217,136.101z"/>
	<path fill="#89181B" d="M465.121,136.323l0.891-7.35h8.02v2.45h-5.569l-0.445,3.118c0.669-0.446,1.337-0.446,2.228-0.446
		c1.336,0,2.45,0.446,3.118,1.337c0.669,0.891,1.114,2.005,1.114,3.563c0,0.892-0.223,1.782-0.669,2.45
		c-0.445,0.669-0.891,1.337-1.56,1.782c-0.668,0.445-1.559,0.668-2.672,0.668c-0.891,0-1.56-0.223-2.451-0.445
		c-0.668-0.445-1.336-0.891-1.781-1.56c-0.445-0.668-0.668-1.336-0.668-2.228h2.896c0,0.669,0.223,1.114,0.668,1.337
		c0.446,0.223,0.892,0.445,1.337,0.445c0.668,0,1.113-0.223,1.559-0.668s0.445-1.113,0.445-2.005c0-0.891-0.223-1.336-0.668-1.781
		s-0.891-0.669-1.781-0.669c-0.669,0-1.114,0.224-1.56,0.446l-0.223,0.223L465.121,136.323z"/>
	<path fill="#89181B" d="M476.258,131.869c0-0.892,0.223-1.56,0.891-2.228c0.668-0.445,1.337-0.892,2.229-0.892
		c0.891,0,1.781,0.224,2.227,0.892c0.668,0.445,0.891,1.336,0.891,2.228v0.668c0,0.891-0.223,1.559-0.891,2.228
		c-0.668,0.668-1.336,0.891-2.227,0.891c-0.892,0-1.783-0.223-2.229-0.891c-0.668-0.446-0.891-1.337-0.891-2.228V131.869z
		 M478.04,132.76c0,0.445,0,0.668,0.445,0.891c0.223,0.223,0.445,0.445,0.892,0.445c0.445,0,0.668-0.223,0.891-0.445
		s0.223-0.668,0.223-0.891v-0.668c0-0.445,0-0.668-0.223-0.892c-0.223-0.223-0.445-0.445-0.891-0.445
		c-0.446,0-0.669,0.223-0.892,0.445c-0.223,0.224-0.223,0.669-0.223,0.892v0.668H478.04z M479.822,142.338l-1.337-0.669
		l6.905-11.137l1.336,0.668L479.822,142.338z M483.162,139.888c0-0.892,0.224-1.56,0.892-2.228c0.669-0.445,1.337-0.891,2.228-0.891
		s1.781,0.223,2.227,0.891c0.669,0.445,0.892,1.336,0.892,2.228v0.668c0,0.891-0.223,1.56-0.892,2.228
		c-0.668,0.445-1.336,0.891-2.227,0.891s-1.782-0.223-2.228-0.891c-0.668-0.445-0.892-1.337-0.892-2.228V139.888z M484.945,140.779
		c0,0.445,0.223,0.668,0.445,0.891s0.445,0.446,0.891,0.446c0.891,0,1.113-0.446,1.113-1.337v-0.668
		c0-0.445-0.223-0.668-0.445-0.892c-0.223-0.223-0.445-0.445-0.891-0.445s-0.668,0.223-0.891,0.445
		c-0.223,0.224-0.223,0.669-0.223,0.892V140.779z"/>
</g>
<g>
	<path fill="#4D4D4D" d="M113.612,255.197v13.303c-0.009,1.312-0.299,2.453-0.87,3.426c-0.571,0.973-1.376,1.72-2.416,2.241
		c-1.04,0.522-2.233,0.783-3.58,0.783c-2.052,0-3.696-0.56-4.932-1.68c-1.236-1.119-1.876-2.67-1.92-4.65v-13.423h1.633v13.183
		c0,1.642,0.468,2.915,1.405,3.82c0.937,0.905,2.208,1.358,3.814,1.358c1.605,0,2.875-0.455,3.807-1.365
		c0.932-0.91,1.398-2.177,1.398-3.801v-13.195H113.612z"/>
	<path fill="#4D4D4D" d="M120.316,256.495v3.707h2.998v1.312h-2.998v9.659c0,0.804,0.145,1.402,0.435,1.795
		c0.29,0.394,0.774,0.59,1.452,0.59c0.268,0,0.7-0.045,1.298-0.134l0.067,1.3c-0.419,0.15-0.99,0.226-1.713,0.226
		c-1.097,0-1.896-0.318-2.396-0.957c-0.5-0.638-0.75-1.576-0.75-2.816v-9.662h-2.663v-1.312h2.663v-3.707H120.316z"/>
	<path fill="#4D4D4D" d="M126.54,256.02c0-0.302,0.098-0.557,0.294-0.765c0.196-0.208,0.463-0.313,0.803-0.313
		c0.339,0,0.609,0.104,0.81,0.313s0.301,0.463,0.301,0.765s-0.101,0.555-0.301,0.758c-0.201,0.204-0.471,0.307-0.81,0.307
		c-0.339,0-0.607-0.103-0.803-0.307C126.638,256.574,126.54,256.322,126.54,256.02z M128.426,274.682h-1.606v-14.479h1.606V274.682z
		"/>
	<path fill="#4D4D4D" d="M134.569,274.682h-1.606v-20.556h1.606V274.682z"/>
	<path fill="#4D4D4D" d="M138.825,256.02c0-0.302,0.098-0.557,0.294-0.765c0.196-0.208,0.463-0.313,0.803-0.313
		c0.339,0,0.609,0.104,0.81,0.313s0.301,0.463,0.301,0.765s-0.101,0.555-0.301,0.758c-0.201,0.204-0.471,0.307-0.81,0.307
		c-0.339,0-0.607-0.103-0.803-0.307C138.923,256.574,138.825,256.322,138.825,256.02z M140.711,274.682h-1.606v-14.479h1.606
		V274.682z"/>
	<path fill="#4D4D4D" d="M144.418,267.308c0-2.248,0.502-4.039,1.505-5.373c1.004-1.333,2.367-2,4.088-2
		c1.954,0,3.444,0.771,4.47,2.314v-8.123h1.593v20.556h-1.499l-0.067-1.927c-1.026,1.463-2.534,2.194-4.523,2.194
		c-1.668,0-3.013-0.671-4.035-2.014s-1.532-3.156-1.532-5.44V267.308z M146.038,267.589c0,1.847,0.37,3.304,1.111,4.369
		c0.74,1.066,1.784,1.6,3.131,1.6c1.972,0,3.373-0.87,4.202-2.609v-6.799c-0.83-1.882-2.221-2.823-4.175-2.823
		c-1.347,0-2.396,0.528-3.145,1.586C146.413,263.969,146.038,265.529,146.038,267.589z"/>
	<path fill="#4D4D4D" d="M169.431,274.682c-0.161-0.455-0.263-1.129-0.308-2.021c-0.562,0.731-1.278,1.296-2.147,1.692
		c-0.87,0.397-1.792,0.596-2.764,0.596c-1.392,0-2.518-0.388-3.379-1.164c-0.861-0.776-1.292-1.758-1.292-2.944
		c0-1.409,0.586-2.524,1.76-3.346c1.173-0.82,2.808-1.231,4.905-1.231h2.904v-1.646c0-1.035-0.319-1.849-0.957-2.442
		s-1.568-0.89-2.79-0.89c-1.115,0-2.039,0.285-2.77,0.856c-0.732,0.57-1.098,1.258-1.098,2.061l-1.606-0.014
		c0-1.15,0.536-2.147,1.606-2.99c1.071-0.844,2.387-1.265,3.948-1.265c1.615,0,2.889,0.403,3.821,1.211s1.412,1.934,1.438,3.379
		v6.852c0,1.401,0.147,2.449,0.442,3.146v0.16H169.431z M164.399,273.531c1.07,0,2.027-0.258,2.87-0.775
		c0.843-0.518,1.457-1.209,1.84-2.074v-3.186h-2.864c-1.597,0.019-2.846,0.311-3.747,0.877c-0.901,0.566-1.352,1.345-1.352,2.335
		c0,0.812,0.301,1.485,0.903,2.021C162.652,273.263,163.435,273.531,164.399,273.531z"/>
	<path fill="#4D4D4D" d="M174.328,267.308c0-2.248,0.502-4.039,1.505-5.373c1.004-1.333,2.367-2,4.088-2
		c1.954,0,3.444,0.771,4.47,2.314v-8.123h1.593v20.556h-1.499l-0.067-1.927c-1.026,1.463-2.534,2.194-4.523,2.194
		c-1.668,0-3.013-0.671-4.035-2.014s-1.532-3.156-1.532-5.44V267.308z M175.947,267.589c0,1.847,0.37,3.304,1.111,4.369
		c0.74,1.066,1.784,1.6,3.131,1.6c1.972,0,3.373-0.87,4.202-2.609v-6.799c-0.83-1.882-2.221-2.823-4.175-2.823
		c-1.347,0-2.396,0.528-3.145,1.586C176.322,263.969,175.947,265.529,175.947,267.589z"/>
	<path fill="#4D4D4D" d="M195.807,274.949c-1.231,0-2.344-0.303-3.339-0.91c-0.995-0.606-1.769-1.452-2.322-2.536
		s-0.83-2.299-0.83-3.646v-0.575c0-1.392,0.27-2.646,0.81-3.761c0.54-1.115,1.292-1.991,2.255-2.63
		c0.963-0.638,2.007-0.956,3.131-0.956c1.758,0,3.152,0.6,4.182,1.8s1.546,2.839,1.546,4.918v0.896h-10.332v0.308
		c0,1.642,0.471,3.009,1.412,4.102c0.941,1.094,2.125,1.64,3.553,1.64c0.856,0,1.613-0.156,2.269-0.469
		c0.656-0.312,1.251-0.812,1.787-1.498l1.003,0.763C199.755,274.098,198.046,274.949,195.807,274.949z M195.513,261.299
		c-1.204,0-2.219,0.442-3.044,1.325s-1.327,2.07-1.505,3.56h8.685v-0.174c-0.045-1.392-0.441-2.524-1.191-3.399
		C197.708,261.737,196.726,261.299,195.513,261.299z"/>
	<path fill="#4D4D4D" d="M62.578,299.635v7.936h-1.646v-19.485h6.638c2.025,0,3.625,0.518,4.798,1.553
		c1.173,1.035,1.76,2.458,1.76,4.27c0,1.828-0.564,3.24-1.693,4.235c-1.129,0.995-2.764,1.492-4.905,1.492H62.578z M62.578,298.243
		h4.992c1.597,0,2.815-0.38,3.653-1.14s1.258-1.818,1.258-3.177c0-1.349-0.417-2.424-1.251-3.224
		c-0.834-0.799-2.019-1.208-3.553-1.226h-5.099V298.243z"/>
	<path fill="#4D4D4D" d="M86.747,305.738c-0.963,1.4-2.502,2.101-4.617,2.101c-1.544,0-2.717-0.448-3.52-1.345
		c-0.803-0.896-1.213-2.224-1.231-3.981v-9.421h1.592v9.22c0,2.757,1.115,4.136,3.346,4.136c2.32,0,3.787-0.959,4.403-2.877v-10.479
		h1.606v14.479h-1.552L86.747,305.738z M84.619,287.176h1.94l-3.091,3.733l-1.405-0.007L84.619,287.176z"/>
	<path fill="#4D4D4D" d="M104.144,300.478c0,2.257-0.5,4.048-1.499,5.373c-1,1.325-2.342,1.987-4.028,1.987
		c-2.016,0-3.542-0.749-4.577-2.248l-0.067,1.98h-1.499v-20.556h1.593v8.177c1.017-1.579,2.524-2.368,4.523-2.368
		c1.713,0,3.067,0.653,4.062,1.96c0.995,1.308,1.492,3.125,1.492,5.453V300.478z M102.538,300.197c0-1.909-0.37-3.383-1.11-4.423
		c-0.741-1.039-1.785-1.559-3.132-1.559c-1.026,0-1.896,0.252-2.609,0.756c-0.714,0.504-1.253,1.242-1.619,2.215v6.53
		c0.803,1.82,2.221,2.73,4.255,2.73c1.32,0,2.353-0.522,3.098-1.565C102.166,303.837,102.538,302.276,102.538,300.197z"/>
	<path fill="#4D4D4D" d="M109.47,307.571h-1.606v-20.556h1.606V307.571z"/>
	<path fill="#4D4D4D" d="M113.726,288.908c0-0.302,0.098-0.557,0.294-0.765c0.196-0.208,0.463-0.313,0.803-0.313
		c0.339,0,0.609,0.104,0.81,0.313s0.301,0.463,0.301,0.765s-0.101,0.555-0.301,0.758c-0.201,0.204-0.471,0.307-0.81,0.307
		c-0.339,0-0.607-0.103-0.803-0.307C113.824,289.463,113.726,289.21,113.726,288.908z M115.613,307.571h-1.606v-14.479h1.606
		V307.571z"/>
	<path fill="#4D4D4D" d="M125.315,306.487c1.115,0,2.05-0.314,2.804-0.943s1.162-1.443,1.225-2.442h1.539
		c-0.045,0.883-0.321,1.688-0.83,2.415c-0.509,0.728-1.185,1.297-2.028,1.707c-0.843,0.41-1.746,0.615-2.71,0.615
		c-1.9,0-3.406-0.66-4.517-1.98c-1.11-1.32-1.666-3.096-1.666-5.326v-0.481c0-1.428,0.25-2.69,0.75-3.788
		c0.5-1.097,1.215-1.944,2.148-2.542c0.932-0.598,2.023-0.896,3.272-0.896c1.588,0,2.897,0.473,3.928,1.418
		c1.03,0.946,1.581,2.19,1.653,3.733h-1.539c-0.071-1.133-0.479-2.047-1.225-2.743c-0.745-0.695-1.684-1.044-2.817-1.044
		c-1.445,0-2.567,0.522-3.366,1.566s-1.198,2.507-1.198,4.389v0.469c0,1.847,0.399,3.288,1.198,4.322
		C122.734,305.969,123.861,306.487,125.315,306.487z"/>
	<path fill="#4D4D4D" d="M143.221,307.571c-0.161-0.455-0.263-1.129-0.308-2.021c-0.562,0.731-1.278,1.296-2.147,1.692
		c-0.87,0.397-1.792,0.596-2.764,0.596c-1.392,0-2.518-0.388-3.379-1.164c-0.861-0.776-1.292-1.758-1.292-2.944
		c0-1.409,0.586-2.524,1.76-3.346c1.173-0.82,2.808-1.231,4.905-1.231h2.904v-1.646c0-1.035-0.319-1.849-0.957-2.442
		s-1.568-0.89-2.79-0.89c-1.115,0-2.039,0.285-2.77,0.856c-0.732,0.57-1.098,1.258-1.098,2.061l-1.606-0.014
		c0-1.15,0.536-2.147,1.606-2.99c1.071-0.844,2.387-1.265,3.948-1.265c1.615,0,2.889,0.403,3.821,1.211s1.412,1.934,1.438,3.379
		v6.852c0,1.401,0.147,2.449,0.442,3.146v0.16H143.221z M138.189,306.419c1.07,0,2.027-0.258,2.87-0.775
		c0.843-0.518,1.457-1.209,1.84-2.074v-3.186h-2.864c-1.597,0.019-2.846,0.311-3.747,0.877c-0.901,0.566-1.352,1.345-1.352,2.335
		c0,0.812,0.301,1.485,0.903,2.021C136.443,306.152,137.226,306.419,138.189,306.419z"/>
	<path fill="#4D4D4D" d="M166.533,298.457h-9.087v9.113H155.8v-19.485h12.071v1.393h-10.425v7.588h9.087V298.457z"/>
	<path fill="#4D4D4D" d="M176.168,307.838c-1.231,0-2.344-0.303-3.339-0.91c-0.995-0.606-1.769-1.452-2.322-2.536
		s-0.83-2.299-0.83-3.646v-0.575c0-1.392,0.27-2.646,0.81-3.761c0.54-1.115,1.292-1.991,2.255-2.63
		c0.963-0.638,2.007-0.956,3.131-0.956c1.758,0,3.152,0.6,4.182,1.8s1.546,2.839,1.546,4.918v0.896h-10.332v0.308
		c0,1.642,0.471,3.009,1.412,4.102c0.941,1.094,2.125,1.64,3.553,1.64c0.856,0,1.613-0.156,2.269-0.469
		c0.656-0.312,1.251-0.812,1.787-1.498l1.003,0.763C180.116,306.987,178.408,307.838,176.168,307.838z M175.874,294.188
		c-1.204,0-2.219,0.442-3.044,1.325s-1.327,2.07-1.505,3.56h8.685v-0.174c-0.045-1.392-0.441-2.524-1.191-3.399
		C178.069,294.625,177.087,294.188,175.874,294.188z"/>
	<path fill="#4D4D4D" d="M184.078,300.197c0-2.248,0.502-4.039,1.505-5.373c1.004-1.333,2.367-2,4.088-2
		c1.954,0,3.444,0.771,4.47,2.314v-8.123h1.593v20.556h-1.499l-0.067-1.927c-1.026,1.463-2.534,2.194-4.523,2.194
		c-1.668,0-3.013-0.671-4.035-2.014s-1.532-3.156-1.532-5.44V300.197z M185.697,300.478c0,1.847,0.37,3.304,1.111,4.369
		c0.74,1.066,1.784,1.6,3.131,1.6c1.972,0,3.373-0.87,4.202-2.609v-6.799c-0.83-1.882-2.221-2.823-4.175-2.823
		c-1.347,0-2.396,0.528-3.145,1.586C186.072,296.858,185.697,298.417,185.697,300.478z"/>
	<path fill="#4D4D4D" d="M205.556,307.838c-1.231,0-2.344-0.303-3.339-0.91c-0.995-0.606-1.769-1.452-2.322-2.536
		s-0.83-2.299-0.83-3.646v-0.575c0-1.392,0.27-2.646,0.81-3.761c0.54-1.115,1.292-1.991,2.255-2.63
		c0.963-0.638,2.007-0.956,3.131-0.956c1.758,0,3.152,0.6,4.182,1.8s1.546,2.839,1.546,4.918v0.896h-10.332v0.308
		c0,1.642,0.471,3.009,1.412,4.102c0.941,1.094,2.125,1.64,3.553,1.64c0.856,0,1.613-0.156,2.269-0.469
		c0.656-0.312,1.251-0.812,1.787-1.498l1.003,0.763C209.504,306.987,207.795,307.838,205.556,307.838z M205.262,294.188
		c-1.204,0-2.219,0.442-3.044,1.325s-1.327,2.07-1.505,3.56h8.685v-0.174c-0.045-1.392-0.441-2.524-1.191-3.399
		C207.457,294.625,206.475,294.188,205.262,294.188z"/>
	<path fill="#4D4D4D" d="M220.799,294.455c-0.339-0.062-0.7-0.094-1.084-0.094c-0.999,0-1.845,0.279-2.536,0.837
		c-0.692,0.558-1.185,1.367-1.479,2.429v9.943h-1.592v-14.479h1.565l0.027,2.302c0.848-1.713,2.208-2.569,4.082-2.569
		c0.446,0,0.798,0.058,1.057,0.174L220.799,294.455z"/>
	<path fill="#4D4D4D" d="M231.934,307.571c-0.161-0.455-0.263-1.129-0.308-2.021c-0.562,0.731-1.278,1.296-2.147,1.692
		c-0.87,0.397-1.792,0.596-2.764,0.596c-1.392,0-2.518-0.388-3.379-1.164c-0.861-0.776-1.292-1.758-1.292-2.944
		c0-1.409,0.586-2.524,1.76-3.346c1.173-0.82,2.808-1.231,4.905-1.231h2.904v-1.646c0-1.035-0.319-1.849-0.957-2.442
		s-1.568-0.89-2.79-0.89c-1.115,0-2.039,0.285-2.77,0.856c-0.732,0.57-1.098,1.258-1.098,2.061l-1.606-0.014
		c0-1.15,0.536-2.147,1.606-2.99c1.071-0.844,2.387-1.265,3.948-1.265c1.615,0,2.889,0.403,3.821,1.211s1.412,1.934,1.438,3.379
		v6.852c0,1.401,0.147,2.449,0.442,3.146v0.16H231.934z M226.902,306.419c1.07,0,2.027-0.258,2.87-0.775
		c0.843-0.518,1.457-1.209,1.84-2.074v-3.186h-2.864c-1.597,0.019-2.846,0.311-3.747,0.877c-0.901,0.566-1.352,1.345-1.352,2.335
		c0,0.812,0.301,1.485,0.903,2.021C225.155,306.152,225.938,306.419,226.902,306.419z"/>
	<path fill="#4D4D4D" d="M239.267,307.571h-1.606v-20.556h1.606V307.571z"/>
</g>
</svg>
