<?xml version="1.0" encoding="utf-8"?>
<!-- Generator: Adobe Illustrator 18.1.1, SVG Export Plug-In . SVG Version: 6.00 Build 0)  -->
<svg version="1.1" id="Camada_1" xmlns="http://www.w3.org/2000/svg" xmlns:xlink="http://www.w3.org/1999/xlink" x="0px" y="0px"
	 viewBox="-177 361.9 239.1 118" enable-background="new -177 361.9 239.1 118" xml:space="preserve">
<g>
	<g>
		<path fill="#F4D256" d="M-155.4,442.8v-3.1h23.9v3.1c0,0-2.7,2.2-12,2.2C-152.7,445-155.4,442.8-155.4,442.8z"/>
		<path fill="#DC9928" d="M-131.5,439.7c0,1.3-5.4,2.3-12,2.3s-12-1-12-2.3c0-1.3,5.4-2.3,12-2.3
			C-136.8,437.4-131.5,438.4-131.5,439.7z"/>
	</g>
	<g>
		<g>
			<path fill="#F4D256" d="M-141.9,439.2c-0.2,0-0.4,0-0.5,0.1c-0.1,0.1-0.3,0.2-0.4,0.4c-0.2,0.4-0.5,0.6-0.8,0.8
				c-0.3,0.2-0.8,0.3-1.3,0.3c-0.5,0-0.9-0.1-1.2-0.3c-0.3-0.2-0.4-0.4-0.4-0.7l-0.9,0l0.1-0.4l0.9,0c0.2-0.3,0.4-0.5,0.7-0.7
				c0.3-0.2,0.7-0.2,1.2-0.2l0,0l-0.1,0.7c-0.3,0-0.5,0-0.7,0.1c-0.2,0.1-0.3,0.2-0.3,0.3c0,0.2,0,0.3,0.1,0.3
				c0.1,0.1,0.3,0.1,0.6,0.1c0.2,0,0.4,0,0.5-0.1c0.1-0.1,0.3-0.2,0.5-0.4c0.2-0.4,0.5-0.6,0.7-0.8c0.3-0.2,0.6-0.3,1.1-0.3
				c0.4,0,0.8,0.1,1.1,0.3c0.3,0.2,0.5,0.4,0.7,0.7l0.8,0l0.1,0.4l-0.8,0c0,0.3-0.1,0.6-0.4,0.8c-0.3,0.2-0.8,0.3-1.5,0.3l0,0
				l-0.1-0.7c0.4,0,0.6-0.1,0.8-0.2c0.1-0.1,0.2-0.2,0.2-0.4c0-0.2-0.1-0.3-0.3-0.4C-141.5,439.2-141.7,439.2-141.9,439.2z"/>
		</g>
	</g>
</g>
<g>
	<g>
		<g>
			<path fill="#F4D256" d="M-100.5,443.1V440h23.9v3.1c0,0-2.7,2.2-12,2.2S-100.5,443.1-100.5,443.1z"/>
			<path fill="#DC9928" d="M-76.6,440c0,1.3-5.4,2.3-12,2.3c-6.6,0-12-1-12-2.3c0-1.3,5.4-2.3,12-2.3C-82,437.7-76.6,438.7-76.6,440
				z"/>
		</g>
		<g>
			<g>
				<path fill="#F4D256" d="M-87,439.5c-0.2,0-0.4,0-0.5,0.1c-0.1,0.1-0.3,0.2-0.4,0.4c-0.2,0.4-0.5,0.6-0.8,0.8
					c-0.3,0.2-0.8,0.3-1.3,0.3c-0.5,0-0.9-0.1-1.2-0.3c-0.3-0.2-0.4-0.4-0.4-0.7l-0.9,0l0.1-0.4l0.9,0c0.2-0.3,0.4-0.5,0.7-0.7
					c0.3-0.2,0.7-0.2,1.2-0.2l0,0l-0.1,0.7c-0.3,0-0.5,0-0.7,0.1c-0.2,0.1-0.3,0.2-0.3,0.3c0,0.2,0,0.3,0.1,0.3
					c0.1,0.1,0.3,0.1,0.6,0.1c0.2,0,0.4,0,0.5-0.1c0.1-0.1,0.3-0.2,0.5-0.4c0.2-0.4,0.5-0.6,0.7-0.8c0.3-0.2,0.6-0.3,1.1-0.3
					c0.4,0,0.8,0.1,1.1,0.3c0.3,0.2,0.5,0.4,0.7,0.7l0.8,0l0.1,0.4l-0.8,0c0,0.3-0.1,0.6-0.4,0.8c-0.3,0.2-0.8,0.3-1.5,0.3l0,0
					l-0.1-0.7c0.4,0,0.6-0.1,0.8-0.2c0.1-0.1,0.2-0.2,0.2-0.4c0-0.2-0.1-0.3-0.3-0.4C-86.6,439.5-86.8,439.5-87,439.5z"/>
			</g>
		</g>
	</g>
	<g>
		<g>
			<path fill="#F4D256" d="M-100.5,439.4v-3.1h23.9v3.1c0,0-2.7,2.2-12,2.2S-100.5,439.4-100.5,439.4z"/>
			<ellipse fill="#DC9928" cx="-88.6" cy="436.3" rx="12" ry="2.3"/>
		</g>
		<g>
			<g>
				<path fill="#F4D256" d="M-87,435.8c-0.2,0-0.4,0-0.5,0.1c-0.1,0.1-0.3,0.2-0.4,0.4c-0.2,0.4-0.5,0.6-0.8,0.8
					c-0.3,0.2-0.8,0.3-1.3,0.3c-0.5,0-0.9-0.1-1.2-0.3c-0.3-0.2-0.4-0.4-0.4-0.7l-0.9,0l0.1-0.4l0.9,0c0.2-0.3,0.4-0.5,0.7-0.7
					c0.3-0.2,0.7-0.2,1.2-0.2l0,0l-0.1,0.7c-0.3,0-0.5,0-0.7,0.1c-0.2,0.1-0.3,0.2-0.3,0.3c0,0.2,0,0.3,0.1,0.3
					c0.1,0.1,0.3,0.1,0.6,0.1c0.2,0,0.4,0,0.5-0.1c0.1-0.1,0.3-0.2,0.5-0.4c0.2-0.4,0.5-0.6,0.7-0.8c0.3-0.2,0.6-0.3,1.1-0.3
					c0.4,0,0.8,0.1,1.1,0.3c0.3,0.2,0.5,0.4,0.7,0.7l0.8,0l0.1,0.4l-0.8,0c0,0.3-0.1,0.6-0.4,0.8c-0.3,0.2-0.8,0.3-1.5,0.3l0,0
					l-0.1-0.7c0.4,0,0.6-0.1,0.8-0.2c0.1-0.1,0.2-0.2,0.2-0.4c0-0.2-0.1-0.3-0.3-0.4C-86.6,435.8-86.8,435.8-87,435.8z"/>
			</g>
		</g>
	</g>
	<g>
		<g>
			<path fill="#F4D256" d="M-100.5,435.7v-3.1h23.9v3.1c0,0-2.7,2.2-12,2.2S-100.5,435.7-100.5,435.7z"/>
			<ellipse fill="#DC9928" cx="-88.6" cy="432.6" rx="12" ry="2.3"/>
		</g>
		<g>
			<g>
				<path fill="#F4D256" d="M-87,432.1c-0.2,0-0.4,0-0.5,0.1c-0.1,0.1-0.3,0.2-0.4,0.4c-0.2,0.4-0.5,0.6-0.8,0.8
					c-0.3,0.2-0.8,0.3-1.3,0.3c-0.5,0-0.9-0.1-1.2-0.3c-0.3-0.2-0.4-0.4-0.4-0.7l-0.9,0l0.1-0.4l0.9,0c0.2-0.3,0.4-0.5,0.7-0.7
					c0.3-0.2,0.7-0.2,1.2-0.2l0,0l-0.1,0.7c-0.3,0-0.5,0-0.7,0.1c-0.2,0.1-0.3,0.2-0.3,0.3c0,0.2,0,0.3,0.1,0.3
					c0.1,0.1,0.3,0.1,0.6,0.1c0.2,0,0.4,0,0.5-0.1c0.1-0.1,0.3-0.2,0.5-0.4c0.2-0.4,0.5-0.6,0.7-0.8c0.3-0.2,0.6-0.3,1.1-0.3
					c0.4,0,0.8,0.1,1.1,0.3c0.3,0.2,0.5,0.4,0.7,0.7l0.8,0l0.1,0.4l-0.8,0c0,0.3-0.1,0.6-0.4,0.8c-0.3,0.2-0.8,0.3-1.5,0.3l0,0
					l-0.1-0.7c0.4,0,0.6-0.1,0.8-0.2c0.1-0.1,0.2-0.2,0.2-0.4c0-0.2-0.1-0.3-0.3-0.4C-86.6,432.2-86.8,432.1-87,432.1z"/>
			</g>
		</g>
	</g>
</g>
<g>
	<g>
		<g>
			<path fill="#F4D256" d="M-45.5,443.5v-3.1h23.9v3.1c0,0-2.7,2.2-12,2.2C-42.8,445.7-45.5,443.5-45.5,443.5z"/>
			<ellipse fill="#DC9928" cx="-33.5" cy="440.4" rx="12" ry="2.3"/>
		</g>
		<g>
			<g>
				<path fill="#F4D256" d="M-32,439.9c-0.2,0-0.4,0-0.5,0.1c-0.1,0.1-0.3,0.2-0.4,0.4c-0.2,0.4-0.5,0.6-0.8,0.8
					c-0.3,0.2-0.8,0.3-1.3,0.3c-0.5,0-0.9-0.1-1.2-0.3c-0.3-0.2-0.4-0.4-0.4-0.7l-0.9,0l0.1-0.4l0.9,0c0.1-0.3,0.4-0.5,0.7-0.7
					c0.3-0.2,0.7-0.2,1.2-0.2l0,0l-0.1,0.7c-0.3,0-0.5,0-0.7,0.1c-0.2,0.1-0.3,0.2-0.3,0.3c0,0.2,0,0.3,0.1,0.3
					c0.1,0.1,0.3,0.1,0.6,0.1c0.2,0,0.4,0,0.5-0.1c0.1-0.1,0.3-0.2,0.5-0.4c0.2-0.4,0.5-0.6,0.7-0.8c0.3-0.2,0.6-0.3,1.1-0.3
					c0.4,0,0.8,0.1,1.1,0.3c0.3,0.2,0.5,0.4,0.7,0.7l0.8,0l0.1,0.4l-0.8,0c0,0.3-0.1,0.6-0.4,0.8c-0.3,0.2-0.8,0.3-1.5,0.3l0,0
					l-0.1-0.7c0.4,0,0.6,0,0.8-0.1c0.1-0.1,0.2-0.2,0.2-0.4c0-0.2-0.1-0.3-0.3-0.4C-31.6,440-31.8,439.9-32,439.9z"/>
			</g>
		</g>
	</g>
	<g>
		<g>
			<path fill="#F4D256" d="M-45.5,439.7l0-3.1l23.9,0.2l0,3.1c0,0-2.7,2.2-12,2.1C-42.8,441.9-45.5,439.7-45.5,439.7z"/>
			
				<ellipse transform="matrix(-7.999736e-003 1 -1 -7.999736e-003 402.8788 473.6933)" fill="#DC9928" cx="-33.5" cy="436.7" rx="2.3" ry="12"/>
		</g>
		<g>
			<g>
				<path fill="#F4D256" d="M-32,436.2c-0.2,0-0.4,0-0.5,0.1c-0.1,0.1-0.3,0.2-0.4,0.4c-0.2,0.4-0.5,0.6-0.8,0.8
					c-0.3,0.2-0.8,0.3-1.3,0.3c-0.5,0-0.9-0.1-1.2-0.3c-0.3-0.2-0.4-0.4-0.4-0.7l-0.9,0l0.1-0.4l0.9,0c0.2-0.3,0.4-0.5,0.8-0.7
					c0.3-0.2,0.7-0.2,1.2-0.2l0,0l-0.1,0.7c-0.3,0-0.5,0-0.7,0.1c-0.2,0.1-0.3,0.2-0.3,0.3c0,0.2,0,0.3,0.1,0.3
					c0.1,0.1,0.3,0.1,0.6,0.1c0.2,0,0.4,0,0.5-0.1c0.1-0.1,0.3-0.2,0.5-0.4c0.2-0.4,0.5-0.6,0.8-0.8c0.3-0.2,0.6-0.3,1.1-0.3
					c0.4,0,0.8,0.1,1.1,0.3c0.3,0.2,0.5,0.4,0.6,0.7l0.8,0l0.1,0.4l-0.8,0c0,0.3-0.1,0.6-0.4,0.8c-0.3,0.2-0.8,0.3-1.5,0.3l0,0
					l0-0.7c0.4,0,0.6,0,0.8-0.1c0.1-0.1,0.2-0.2,0.2-0.4c0-0.2-0.1-0.3-0.2-0.4C-31.6,436.2-31.7,436.2-32,436.2z"/>
			</g>
		</g>
	</g>
	<g>
		<g>
			<path fill="#F4D256" d="M-45.5,436v-3.1h23.9v3.1c0,0-2.7,2.2-12,2.2C-42.8,438.2-45.5,436-45.5,436z"/>
			<ellipse fill="#DC9928" cx="-33.5" cy="432.9" rx="12" ry="2.3"/>
		</g>
		<g>
			<g>
				<path fill="#F4D256" d="M-32,432.4c-0.2,0-0.4,0-0.5,0.1c-0.1,0.1-0.3,0.2-0.4,0.4c-0.2,0.4-0.5,0.7-0.8,0.8
					C-34,434-34.4,434-35,434c-0.5,0-0.9-0.1-1.2-0.3c-0.3-0.2-0.4-0.4-0.4-0.7l-0.9,0l0.1-0.4l0.9,0c0.1-0.3,0.4-0.5,0.7-0.7
					c0.3-0.2,0.7-0.2,1.2-0.2l0,0l-0.1,0.7c-0.3,0-0.5,0-0.7,0.1c-0.2,0.1-0.3,0.2-0.3,0.3c0,0.2,0,0.3,0.1,0.3
					c0.1,0.1,0.3,0.1,0.6,0.1c0.2,0,0.4,0,0.5-0.1c0.1-0.1,0.3-0.2,0.5-0.4c0.2-0.4,0.5-0.6,0.7-0.8c0.3-0.2,0.6-0.3,1.1-0.3
					c0.4,0,0.8,0.1,1.1,0.3c0.3,0.2,0.5,0.4,0.7,0.7l0.8,0l0.1,0.4l-0.8,0c0,0.3-0.1,0.6-0.4,0.8c-0.3,0.2-0.8,0.3-1.5,0.3l0,0
					l-0.1-0.7c0.4,0,0.6-0.1,0.8-0.2c0.1-0.1,0.2-0.2,0.2-0.4c0-0.2-0.1-0.3-0.3-0.4C-31.6,432.5-31.8,432.4-32,432.4z"/>
			</g>
		</g>
	</g>
	<g>
		<g>
			<path fill="#F4D256" d="M-45.5,432.3v-3.1h23.9v3.1c0,0-2.7,2.2-12,2.2C-42.8,434.5-45.5,432.3-45.5,432.3z"/>
			<path fill="#DC9928" d="M-21.6,429.2c0,1.3-5.4,2.3-12,2.3s-12-1-12-2.3c0-1.3,5.4-2.3,12-2.3S-21.6,427.9-21.6,429.2z"/>
		</g>
		<g>
			<g>
				<path fill="#F4D256" d="M-32,428.7c-0.2,0-0.4,0-0.5,0.1c-0.1,0.1-0.3,0.2-0.4,0.4c-0.2,0.4-0.5,0.6-0.8,0.8
					c-0.3,0.2-0.8,0.3-1.3,0.3c-0.5,0-0.9-0.1-1.2-0.3c-0.3-0.2-0.4-0.4-0.4-0.7l-0.9,0l0.1-0.4l0.9,0c0.1-0.3,0.4-0.5,0.7-0.7
					c0.3-0.2,0.7-0.2,1.2-0.2l0,0l-0.1,0.7c-0.3,0-0.5,0-0.7,0.1c-0.2,0.1-0.3,0.2-0.3,0.3c0,0.2,0,0.3,0.1,0.3
					c0.1,0.1,0.3,0.1,0.6,0.1c0.2,0,0.4,0,0.5-0.1c0.1-0.1,0.3-0.2,0.5-0.4c0.2-0.4,0.5-0.6,0.7-0.8c0.3-0.2,0.6-0.3,1.1-0.3
					c0.4,0,0.8,0.1,1.1,0.3c0.3,0.2,0.5,0.4,0.7,0.7l0.8,0l0.1,0.4l-0.8,0c0,0.3-0.1,0.6-0.4,0.8c-0.3,0.2-0.8,0.3-1.5,0.3l0,0
					l-0.1-0.7c0.4,0,0.6-0.1,0.8-0.2c0.1-0.1,0.2-0.2,0.2-0.4c0-0.2-0.1-0.3-0.3-0.4C-31.6,428.7-31.8,428.7-32,428.7z"/>
			</g>
		</g>
	</g>
</g>
<g>
	<g>
		<g>
			<path fill="#F4D256" d="M10.1,443.6v-3.1H34v3.1c0,0-2.7,2.2-12,2.2C12.8,445.8,10.1,443.6,10.1,443.6z"/>
			<ellipse fill="#DC9928" cx="22" cy="440.5" rx="12" ry="2.3"/>
		</g>
		<g>
			<g>
				<path fill="#F4D256" d="M23.6,440c-0.2,0-0.4,0-0.5,0.1c-0.1,0.1-0.3,0.2-0.4,0.4c-0.2,0.4-0.5,0.6-0.8,0.8
					c-0.3,0.2-0.8,0.3-1.3,0.3c-0.5,0-0.9-0.1-1.2-0.3c-0.3-0.2-0.4-0.4-0.4-0.7l-0.9,0l0.1-0.4l0.9,0c0.2-0.3,0.4-0.5,0.7-0.7
					c0.3-0.2,0.7-0.2,1.2-0.2l0,0L21,440c-0.3,0-0.5,0-0.7,0.1c-0.2,0.1-0.3,0.2-0.3,0.3c0,0.2,0,0.3,0.1,0.3
					c0.1,0.1,0.3,0.1,0.6,0.1c0.2,0,0.4,0,0.5-0.1c0.1-0.1,0.3-0.2,0.5-0.4c0.2-0.4,0.5-0.6,0.7-0.8c0.3-0.2,0.6-0.3,1.1-0.3
					c0.4,0,0.8,0.1,1.1,0.3c0.3,0.2,0.5,0.4,0.7,0.7l0.8,0l0.1,0.4l-0.8,0c0,0.3-0.1,0.6-0.4,0.8c-0.3,0.2-0.8,0.3-1.5,0.3l0,0
					l-0.1-0.7c0.4,0,0.6,0,0.8-0.2c0.1-0.1,0.2-0.2,0.2-0.4c0-0.2-0.1-0.3-0.3-0.4C24,440,23.8,440,23.6,440z"/>
			</g>
		</g>
	</g>
	<g>
		<g>
			<path fill="#F4D256" d="M10.1,439.8v-3.1H34v3.1c0,0-2.7,2.2-12,2.2C12.8,442.1,10.1,439.8,10.1,439.8z"/>
			<ellipse fill="#DC9928" cx="22" cy="436.8" rx="12" ry="2.3"/>
		</g>
		<g>
			<g>
				<path fill="#F4D256" d="M23.6,436.2c-0.2,0-0.4,0-0.5,0.1c-0.1,0.1-0.3,0.2-0.4,0.4c-0.2,0.4-0.5,0.6-0.8,0.8
					c-0.3,0.2-0.8,0.3-1.3,0.3c-0.5,0-0.9-0.1-1.2-0.3c-0.3-0.2-0.4-0.4-0.4-0.7l-0.9,0l0.1-0.4l0.9,0c0.2-0.3,0.4-0.5,0.7-0.7
					c0.3-0.2,0.7-0.2,1.2-0.2l0,0l-0.1,0.7c-0.3,0-0.5,0-0.7,0.1c-0.2,0.1-0.3,0.2-0.3,0.3c0,0.2,0,0.3,0.1,0.3
					c0.1,0.1,0.3,0.1,0.6,0.1c0.2,0,0.4,0,0.5-0.1c0.1-0.1,0.3-0.2,0.5-0.4c0.2-0.4,0.5-0.6,0.7-0.8c0.3-0.2,0.6-0.3,1.1-0.3
					c0.4,0,0.8,0.1,1.1,0.3c0.3,0.2,0.5,0.4,0.7,0.7l0.8,0l0.1,0.4l-0.8,0c0,0.3-0.1,0.6-0.4,0.8c-0.3,0.2-0.8,0.3-1.5,0.3l0,0
					l-0.1-0.7c0.4,0,0.6,0,0.8-0.2c0.1-0.1,0.2-0.2,0.2-0.4c0-0.2-0.1-0.3-0.3-0.4C24,436.3,23.8,436.2,23.6,436.2z"/>
			</g>
		</g>
	</g>
	<g>
		<g>
			<path fill="#F4D256" d="M10.1,436.1V433H34v3.1c0,0-2.7,2.2-12,2.2C12.8,438.3,10.1,436.1,10.1,436.1z"/>
			<ellipse fill="#DC9928" cx="22" cy="433" rx="12" ry="2.3"/>
		</g>
		<g>
			<g>
				<path fill="#F4D256" d="M23.6,432.5c-0.2,0-0.4,0-0.5,0.1c-0.1,0.1-0.3,0.2-0.4,0.4c-0.2,0.4-0.5,0.6-0.8,0.8
					c-0.3,0.2-0.8,0.3-1.3,0.3c-0.5,0-0.9-0.1-1.2-0.3c-0.3-0.2-0.4-0.4-0.4-0.7l-0.9,0l0.1-0.4l0.9,0c0.1-0.3,0.4-0.5,0.7-0.7
					c0.3-0.2,0.7-0.2,1.2-0.2l0,0l-0.1,0.7c-0.3,0-0.5,0-0.7,0.1c-0.2,0.1-0.3,0.2-0.3,0.3c0,0.2,0,0.3,0.1,0.3
					c0.1,0.1,0.3,0.1,0.6,0.1c0.2,0,0.4,0,0.5-0.1c0.1-0.1,0.3-0.2,0.5-0.4c0.2-0.4,0.5-0.6,0.7-0.8c0.3-0.2,0.6-0.3,1.1-0.3
					c0.4,0,0.8,0.1,1.1,0.3c0.3,0.2,0.5,0.4,0.7,0.7l0.8,0l0.1,0.4l-0.8,0c0,0.3-0.1,0.6-0.4,0.8c-0.3,0.2-0.8,0.3-1.5,0.3l0,0
					l-0.1-0.7c0.4,0,0.6-0.1,0.8-0.2c0.1-0.1,0.2-0.2,0.2-0.4c0-0.2-0.1-0.3-0.3-0.4C24,432.5,23.8,432.5,23.6,432.5z"/>
			</g>
		</g>
	</g>
	<g>
		<g>
			<path fill="#F4D256" d="M10.1,432.4v-3.1H34v3.1c0,0-2.7,2.2-12,2.2C12.8,434.6,10.1,432.4,10.1,432.4z"/>
			<ellipse fill="#DC9928" cx="22" cy="429.3" rx="12" ry="2.3"/>
		</g>
		<g>
			<g>
				<path fill="#F4D256" d="M23.6,428.7c-0.2,0-0.4,0-0.5,0.1c-0.1,0.1-0.3,0.2-0.4,0.4c-0.2,0.4-0.5,0.6-0.8,0.8
					c-0.3,0.2-0.8,0.3-1.3,0.3c-0.5,0-0.9-0.1-1.2-0.3c-0.3-0.2-0.4-0.4-0.4-0.7l-0.9,0l0.1-0.4l0.9,0c0.1-0.3,0.4-0.5,0.7-0.7
					c0.3-0.2,0.7-0.2,1.2-0.2l0,0l-0.1,0.7c-0.3,0-0.5,0-0.7,0.1c-0.2,0.1-0.3,0.2-0.3,0.3c0,0.2,0,0.3,0.1,0.3
					c0.1,0.1,0.3,0.1,0.6,0.1c0.2,0,0.4,0,0.5-0.1c0.1-0.1,0.3-0.2,0.5-0.4c0.2-0.4,0.5-0.6,0.7-0.8c0.3-0.2,0.6-0.3,1.1-0.3
					c0.4,0,0.8,0.1,1.1,0.3c0.3,0.2,0.5,0.4,0.7,0.7l0.8,0l0.1,0.4l-0.8,0c0,0.3-0.1,0.6-0.4,0.8c-0.3,0.2-0.8,0.3-1.5,0.3l0,0
					l-0.1-0.7c0.4,0,0.6-0.1,0.8-0.2c0.1-0.1,0.2-0.2,0.2-0.4c0-0.2-0.1-0.3-0.3-0.4C24,428.8,23.8,428.7,23.6,428.7z"/>
			</g>
		</g>
	</g>
	<g>
		<g>
			<path fill="#F4D256" d="M10.1,428.6v-3.1H34v3.1c0,0-2.7,2.2-12,2.2C12.8,430.8,10.1,428.6,10.1,428.6z"/>
			<ellipse fill="#DC9928" cx="22" cy="425.5" rx="12" ry="2.3"/>
		</g>
		<g>
			<g>
				<path fill="#F4D256" d="M23.6,425c-0.2,0-0.4,0-0.5,0.1c-0.1,0.1-0.3,0.2-0.4,0.4c-0.2,0.4-0.5,0.6-0.8,0.8
					c-0.3,0.2-0.8,0.3-1.3,0.3c-0.5,0-0.9-0.1-1.2-0.3c-0.3-0.2-0.4-0.4-0.4-0.7l-0.9,0l0.1-0.4l0.9,0c0.2-0.3,0.4-0.5,0.7-0.7
					c0.3-0.2,0.7-0.2,1.2-0.2l0,0L21,425c-0.3,0-0.5,0-0.7,0.1c-0.2,0.1-0.3,0.2-0.3,0.3c0,0.2,0,0.3,0.1,0.3
					c0.1,0.1,0.3,0.1,0.6,0.1c0.2,0,0.4,0,0.5-0.1c0.1-0.1,0.3-0.2,0.5-0.4c0.2-0.4,0.5-0.6,0.7-0.8c0.3-0.2,0.6-0.3,1.1-0.3
					c0.4,0,0.8,0.1,1.1,0.3c0.3,0.2,0.5,0.4,0.7,0.7l0.8,0l0.1,0.4l-0.8,0c0,0.3-0.1,0.6-0.4,0.8c-0.3,0.2-0.8,0.3-1.5,0.3l0,0
					l-0.1-0.7c0.4,0,0.6-0.1,0.8-0.2c0.1-0.1,0.2-0.2,0.2-0.4c0-0.2-0.1-0.3-0.3-0.4C24,425,23.8,425,23.6,425z"/>
			</g>
		</g>
	</g>
	<g>
		<g>
			<path fill="#F4D256" d="M10.1,424.9v-3.1H34v3.1c0,0-2.7,2.2-12,2.2C12.8,427.1,10.1,424.9,10.1,424.9z"/>
			<ellipse fill="#DC9928" cx="22" cy="421.8" rx="12" ry="2.3"/>
		</g>
		<g>
			<g>
				<path fill="#F4D256" d="M23.6,421.3c-0.2,0-0.4,0-0.5,0.1c-0.1,0.1-0.3,0.2-0.4,0.4c-0.2,0.4-0.5,0.6-0.8,0.8
					c-0.3,0.2-0.8,0.3-1.3,0.3c-0.5,0-0.9-0.1-1.2-0.3c-0.3-0.2-0.4-0.4-0.4-0.7l-0.9,0l0.1-0.4l0.9,0c0.1-0.3,0.4-0.5,0.7-0.7
					c0.3-0.2,0.7-0.2,1.2-0.2l0,0l-0.1,0.7c-0.3,0-0.5,0-0.7,0.1c-0.2,0.1-0.3,0.2-0.3,0.3c0,0.2,0,0.3,0.1,0.3
					c0.1,0.1,0.3,0.1,0.6,0.1c0.2,0,0.4,0,0.5-0.1c0.1-0.1,0.3-0.2,0.5-0.4c0.2-0.4,0.5-0.6,0.7-0.8c0.3-0.2,0.6-0.3,1.1-0.3
					c0.4,0,0.8,0.1,1.1,0.3c0.3,0.2,0.5,0.4,0.7,0.7l0.8,0l0.1,0.4l-0.8,0c0,0.3-0.1,0.6-0.4,0.8c-0.3,0.2-0.8,0.3-1.5,0.3l0,0
					l-0.1-0.7c0.4,0,0.6-0.1,0.8-0.2s0.2-0.2,0.2-0.4c0-0.2-0.1-0.3-0.3-0.4C24,421.3,23.8,421.3,23.6,421.3z"/>
			</g>
		</g>
	</g>
	<g>
		<g>
			<path fill="#F4D256" d="M10.1,421.1V418H34v3.1c0,0-2.7,2.2-12,2.2C12.8,423.3,10.1,421.1,10.1,421.1z"/>
			<ellipse fill="#DC9928" cx="22" cy="418" rx="12" ry="2.3"/>
		</g>
		<g>
			<g>
				<path fill="#F4D256" d="M23.6,417.5c-0.2,0-0.4,0-0.5,0.1c-0.1,0.1-0.3,0.2-0.4,0.4c-0.2,0.4-0.5,0.6-0.8,0.8
					c-0.3,0.2-0.8,0.3-1.3,0.3c-0.5,0-0.9-0.1-1.2-0.3c-0.3-0.2-0.4-0.4-0.4-0.7l-0.9,0l0.1-0.4l0.9,0c0.2-0.3,0.4-0.5,0.7-0.7
					c0.3-0.2,0.7-0.2,1.2-0.2l0,0l-0.1,0.7c-0.3,0-0.5,0-0.7,0.1c-0.2,0.1-0.3,0.2-0.3,0.3c0,0.2,0,0.3,0.1,0.3
					c0.1,0.1,0.3,0.1,0.6,0.1c0.2,0,0.4,0,0.5-0.1c0.1-0.1,0.3-0.2,0.5-0.4c0.2-0.4,0.5-0.6,0.7-0.8c0.3-0.2,0.6-0.3,1.1-0.3
					c0.4,0,0.8,0.1,1.1,0.3c0.3,0.2,0.5,0.4,0.7,0.7l0.8,0l0.1,0.4l-0.8,0c0,0.3-0.1,0.6-0.4,0.8c-0.3,0.2-0.8,0.3-1.5,0.3l0,0
					l-0.1-0.7c0.4,0,0.6-0.1,0.8-0.2c0.1-0.1,0.2-0.2,0.2-0.4c0-0.2-0.1-0.3-0.3-0.4C24,417.5,23.8,417.5,23.6,417.5z"/>
			</g>
		</g>
	</g>
	<g>
		<g>
			<path fill="#F4D256" d="M10.1,417.4v-3.1H34v3.1c0,0-2.7,2.2-12,2.2C12.8,419.6,10.1,417.4,10.1,417.4z"/>
			<ellipse fill="#DC9928" cx="22" cy="414.3" rx="12" ry="2.3"/>
		</g>
		<g>
			<g>
				<path fill="#F4D256" d="M23.6,413.8c-0.2,0-0.4,0-0.5,0.1c-0.1,0.1-0.3,0.2-0.4,0.4c-0.2,0.4-0.5,0.6-0.8,0.8
					c-0.3,0.2-0.8,0.3-1.3,0.3c-0.5,0-0.9-0.1-1.2-0.3c-0.3-0.2-0.4-0.4-0.4-0.7l-0.9,0l0.1-0.4l0.9,0c0.2-0.3,0.4-0.5,0.7-0.7
					c0.3-0.2,0.7-0.2,1.2-0.2l0,0l-0.1,0.7c-0.3,0-0.5,0-0.7,0.1c-0.2,0.1-0.3,0.2-0.3,0.3c0,0.2,0,0.3,0.1,0.3
					c0.1,0.1,0.3,0.1,0.6,0.1c0.2,0,0.4,0,0.5-0.1c0.1-0.1,0.3-0.2,0.5-0.4c0.2-0.4,0.5-0.6,0.7-0.8c0.3-0.2,0.6-0.3,1.1-0.3
					c0.4,0,0.8,0.1,1.1,0.3c0.3,0.2,0.5,0.4,0.7,0.7l0.8,0l0.1,0.4l-0.8,0c0,0.3-0.1,0.6-0.4,0.8c-0.3,0.2-0.8,0.3-1.5,0.3l0,0
					l-0.1-0.7c0.4,0,0.6-0.1,0.8-0.2c0.1-0.1,0.2-0.2,0.2-0.4c0-0.2-0.1-0.3-0.3-0.4C24,413.8,23.8,413.8,23.6,413.8z"/>
			</g>
		</g>
	</g>
	<g>
		<g>
			<path fill="#F4D256" d="M10.1,413.6v-3.1H34v3.1c0,0-2.7,2.2-12,2.2C12.8,415.8,10.1,413.6,10.1,413.6z"/>
			<ellipse fill="#DC9928" cx="22" cy="410.5" rx="12" ry="2.3"/>
		</g>
		<g>
			<g>
				<path fill="#F4D256" d="M23.6,410c-0.2,0-0.4,0-0.5,0.1c-0.1,0.1-0.3,0.2-0.4,0.4c-0.2,0.4-0.5,0.6-0.8,0.8
					c-0.3,0.2-0.8,0.3-1.3,0.3c-0.5,0-0.9-0.1-1.2-0.3c-0.3-0.2-0.4-0.4-0.4-0.7l-0.9,0l0.1-0.4l0.9,0c0.2-0.3,0.4-0.5,0.7-0.7
					c0.3-0.2,0.7-0.2,1.2-0.2l0,0L21,410c-0.3,0-0.5,0-0.7,0.1c-0.2,0.1-0.3,0.2-0.3,0.3c0,0.2,0,0.3,0.1,0.3
					c0.1,0.1,0.3,0.1,0.6,0.1c0.2,0,0.4,0,0.5-0.1c0.1-0.1,0.3-0.2,0.5-0.4c0.2-0.4,0.5-0.6,0.7-0.8c0.3-0.2,0.6-0.3,1.1-0.3
					c0.4,0,0.8,0.1,1.1,0.3c0.3,0.2,0.5,0.4,0.7,0.7l0.8,0l0.1,0.4l-0.8,0c0,0.3-0.1,0.6-0.4,0.8c-0.3,0.2-0.8,0.3-1.5,0.3l0,0
					l-0.1-0.7c0.4,0,0.6,0,0.8-0.2c0.1-0.1,0.2-0.2,0.2-0.4c0-0.2-0.1-0.3-0.3-0.4C24,410.1,23.8,410,23.6,410z"/>
			</g>
		</g>
	</g>
	<g>
		<g>
			<path fill="#F4D256" d="M10.1,409.9v-3.1H34v3.1c0,0-2.7,2.2-12,2.2C12.8,412.1,10.1,409.9,10.1,409.9z"/>
			<ellipse fill="#DC9928" cx="22" cy="406.8" rx="12" ry="2.3"/>
		</g>
		<g>
			<g>
				<path fill="#F4D256" d="M23.6,406.3c-0.2,0-0.4,0-0.5,0.1c-0.1,0.1-0.3,0.2-0.4,0.4c-0.2,0.4-0.5,0.6-0.8,0.8
					c-0.3,0.2-0.8,0.3-1.3,0.3c-0.5,0-0.9-0.1-1.2-0.3c-0.3-0.2-0.4-0.4-0.4-0.7l-0.9,0l0.1-0.4l0.9,0c0.2-0.3,0.4-0.5,0.7-0.7
					c0.3-0.2,0.7-0.2,1.2-0.2l0,0l-0.1,0.7c-0.3,0-0.5,0-0.7,0.1c-0.2,0.1-0.3,0.2-0.3,0.3c0,0.2,0,0.3,0.1,0.3
					c0.1,0.1,0.3,0.1,0.6,0.1c0.2,0,0.4,0,0.5-0.1c0.1-0.1,0.3-0.2,0.5-0.4c0.2-0.4,0.5-0.6,0.7-0.8c0.3-0.2,0.6-0.3,1.1-0.3
					c0.4,0,0.8,0.1,1.1,0.3c0.3,0.2,0.5,0.4,0.7,0.7l0.8,0l0.1,0.4l-0.8,0c0,0.3-0.1,0.6-0.4,0.8c-0.3,0.2-0.8,0.3-1.5,0.3l0,0
					l-0.1-0.7c0.4,0,0.6,0,0.8-0.2c0.1-0.1,0.2-0.2,0.2-0.4c0-0.2-0.1-0.3-0.3-0.4C24,406.3,23.8,406.3,23.6,406.3z"/>
			</g>
		</g>
	</g>
	<g>
		<g>
			<path fill="#F4D256" d="M10.1,406.1V403H34v3.1c0,0-2.7,2.2-12,2.2C12.8,408.3,10.1,406.1,10.1,406.1z"/>
			<ellipse fill="#DC9928" cx="22" cy="403" rx="12" ry="2.3"/>
		</g>
		<g>
			<g>
				<path fill="#F4D256" d="M23.6,402.5c-0.2,0-0.4,0-0.5,0.1c-0.1,0.1-0.3,0.2-0.4,0.4c-0.2,0.4-0.5,0.6-0.8,0.8
					c-0.3,0.2-0.8,0.3-1.3,0.3c-0.5,0-0.9-0.1-1.2-0.3c-0.3-0.2-0.4-0.4-0.4-0.7l-0.9,0l0.1-0.4l0.9,0c0.2-0.3,0.4-0.5,0.7-0.7
					c0.3-0.2,0.7-0.2,1.2-0.2l0,0l-0.1,0.7c-0.3,0-0.5,0-0.7,0.1c-0.2,0.1-0.3,0.2-0.3,0.3c0,0.2,0,0.3,0.1,0.3
					c0.1,0.1,0.3,0.1,0.6,0.1c0.2,0,0.4,0,0.5-0.1c0.1-0.1,0.3-0.2,0.5-0.4c0.2-0.4,0.5-0.6,0.7-0.8c0.3-0.2,0.6-0.3,1.1-0.3
					c0.4,0,0.8,0.1,1.1,0.3c0.3,0.2,0.5,0.4,0.7,0.7l0.8,0l0.1,0.4l-0.8,0c0,0.3-0.1,0.6-0.4,0.8c-0.3,0.2-0.8,0.3-1.5,0.3l0,0
					l-0.1-0.7c0.4,0,0.6-0.1,0.8-0.2c0.1-0.1,0.2-0.2,0.2-0.4c0-0.2-0.1-0.3-0.3-0.4C24,402.6,23.8,402.5,23.6,402.5z"/>
			</g>
		</g>
	</g>
	<g>
		<g>
			<path fill="#F4D256" d="M10.1,402.4v-3.1H34v3.1c0,0-2.7,2.2-12,2.2C12.8,404.6,10.1,402.4,10.1,402.4z"/>
			<ellipse fill="#DC9928" cx="22" cy="399.3" rx="12" ry="2.3"/>
		</g>
		<g>
			<g>
				<path fill="#F4D256" d="M23.6,398.8c-0.2,0-0.4,0-0.5,0.1c-0.1,0.1-0.3,0.2-0.4,0.4c-0.2,0.4-0.5,0.6-0.8,0.8
					c-0.3,0.2-0.8,0.3-1.3,0.3c-0.5,0-0.9-0.1-1.2-0.3c-0.3-0.2-0.4-0.4-0.4-0.7l-0.9,0l0.1-0.4l0.9,0c0.2-0.3,0.4-0.5,0.7-0.7
					c0.3-0.2,0.7-0.2,1.2-0.2l0,0l-0.1,0.7c-0.3,0-0.5,0-0.7,0.1c-0.2,0.1-0.3,0.2-0.3,0.3c0,0.2,0,0.3,0.1,0.3
					c0.1,0.1,0.3,0.1,0.6,0.1c0.2,0,0.4,0,0.5-0.1c0.1-0.1,0.3-0.2,0.5-0.4c0.2-0.4,0.5-0.6,0.7-0.8c0.3-0.2,0.6-0.3,1.1-0.3
					c0.4,0,0.8,0.1,1.1,0.3c0.3,0.2,0.5,0.4,0.7,0.7l0.8,0l0.1,0.4l-0.8,0c0,0.3-0.1,0.6-0.4,0.8c-0.3,0.2-0.8,0.3-1.5,0.3l0,0
					l-0.1-0.7c0.4,0,0.6-0.1,0.8-0.2c0.1-0.1,0.2-0.2,0.2-0.4s-0.1-0.3-0.3-0.4C24,398.8,23.8,398.8,23.6,398.8z"/>
			</g>
		</g>
	</g>
	<g>
		<g>
			<path fill="#F4D256" d="M10.1,398.6v-3.1H34v3.1c0,0-2.7,2.2-12,2.2C12.8,400.9,10.1,398.6,10.1,398.6z"/>
			<ellipse fill="#DC9928" cx="22" cy="395.6" rx="12" ry="2.3"/>
		</g>
		<g>
			<g>
				<path fill="#F4D256" d="M23.6,395c-0.2,0-0.4,0-0.5,0.1c-0.1,0.1-0.3,0.2-0.4,0.4c-0.2,0.4-0.5,0.6-0.8,0.8
					c-0.3,0.2-0.8,0.3-1.3,0.3c-0.5,0-0.9-0.1-1.2-0.3c-0.3-0.2-0.4-0.4-0.4-0.7l-0.9,0l0.1-0.4l0.9,0c0.2-0.3,0.4-0.5,0.7-0.7
					c0.3-0.2,0.7-0.2,1.2-0.2l0,0L21,395c-0.3,0-0.5,0-0.7,0.1c-0.2,0.1-0.3,0.2-0.3,0.3c0,0.2,0,0.3,0.1,0.3
					c0.1,0.1,0.3,0.1,0.6,0.1c0.2,0,0.4,0,0.5-0.1c0.1-0.1,0.3-0.2,0.5-0.4c0.2-0.4,0.5-0.6,0.7-0.8c0.3-0.2,0.6-0.3,1.1-0.3
					c0.4,0,0.8,0.1,1.1,0.3c0.3,0.2,0.5,0.4,0.7,0.7l0.8,0l0.1,0.4l-0.8,0c0,0.3-0.1,0.6-0.4,0.8c-0.3,0.2-0.8,0.3-1.5,0.3l0,0
					l-0.1-0.7c0.4,0,0.6-0.1,0.8-0.2c0.1-0.1,0.2-0.2,0.2-0.4c0-0.2-0.1-0.3-0.3-0.4C24,395.1,23.8,395,23.6,395z"/>
			</g>
		</g>
	</g>
	<g>
		<g>
			<path fill="#F4D256" d="M10.1,394.9v-3.1H34v3.1c0,0-2.7,2.2-12,2.2C12.8,397.1,10.1,394.9,10.1,394.9z"/>
			<path fill="#DC9928" d="M34,391.8c0,1.3-5.4,2.3-12,2.3c-6.6,0-12-1-12-2.3c0-1.3,5.4-2.3,12-2.3C28.6,389.5,34,390.5,34,391.8z"
				/>
		</g>
		<g>
			<g>
				<path fill="#F4D256" d="M23.6,391.3c-0.2,0-0.4,0-0.5,0.1c-0.1,0.1-0.3,0.2-0.4,0.4c-0.2,0.4-0.5,0.7-0.8,0.8
					c-0.3,0.2-0.8,0.3-1.3,0.3c-0.5,0-0.9-0.1-1.2-0.3c-0.3-0.2-0.4-0.4-0.4-0.7l-0.9,0l0.1-0.4l0.9,0c0.1-0.3,0.4-0.5,0.7-0.7
					c0.3-0.2,0.7-0.2,1.2-0.2l0,0l-0.1,0.7c-0.3,0-0.5,0-0.7,0.1c-0.2,0.1-0.3,0.2-0.3,0.3c0,0.2,0,0.3,0.1,0.3
					c0.1,0.1,0.3,0.1,0.6,0.1c0.2,0,0.4,0,0.5-0.1c0.1-0.1,0.3-0.2,0.5-0.4c0.2-0.4,0.5-0.6,0.7-0.8c0.3-0.2,0.6-0.3,1.1-0.3
					c0.4,0,0.8,0.1,1.1,0.3c0.3,0.2,0.5,0.4,0.7,0.7l0.8,0l0.1,0.4l-0.8,0c0,0.3-0.1,0.6-0.4,0.8c-0.3,0.2-0.8,0.3-1.5,0.3l0,0
					l-0.1-0.7c0.4,0,0.6,0,0.8-0.2c0.1-0.1,0.2-0.2,0.2-0.4c0-0.2-0.1-0.3-0.3-0.4C24,391.3,23.8,391.3,23.6,391.3z"/>
			</g>
		</g>
	</g>
	<g>
		<g>
			<path fill="#F4D256" d="M10.1,391.2v-3.1H34v3.1c0,0-2.7,2.2-12,2.2C12.8,393.4,10.1,391.2,10.1,391.2z"/>
			<ellipse fill="#DC9928" cx="22" cy="388.1" rx="12" ry="2.3"/>
		</g>
		<g>
			<g>
				<path fill="#F4D256" d="M23.6,387.5c-0.2,0-0.4,0-0.5,0.1c-0.1,0.1-0.3,0.2-0.4,0.4c-0.2,0.4-0.5,0.7-0.8,0.8
					c-0.3,0.2-0.8,0.3-1.3,0.3c-0.5,0-0.9-0.1-1.2-0.3c-0.3-0.2-0.4-0.4-0.4-0.7l-0.9,0l0.1-0.4l0.9,0c0.1-0.3,0.4-0.5,0.7-0.7
					c0.3-0.2,0.7-0.2,1.2-0.2l0,0l-0.1,0.7c-0.3,0-0.5,0-0.7,0.1c-0.2,0.1-0.3,0.2-0.3,0.3c0,0.2,0,0.3,0.1,0.3
					c0.1,0.1,0.3,0.1,0.6,0.1c0.2,0,0.4,0,0.5-0.1c0.1-0.1,0.3-0.2,0.5-0.4c0.2-0.4,0.5-0.6,0.7-0.8c0.3-0.2,0.6-0.3,1.1-0.3
					c0.4,0,0.8,0.1,1.1,0.3c0.3,0.2,0.5,0.4,0.7,0.7l0.8,0l0.1,0.4l-0.8,0c0,0.3-0.1,0.6-0.4,0.8c-0.3,0.2-0.8,0.3-1.5,0.3l0,0
					l-0.1-0.7c0.4,0,0.6-0.1,0.8-0.2c0.1-0.1,0.2-0.2,0.2-0.4c0-0.2-0.1-0.3-0.3-0.4C24,387.6,23.8,387.5,23.6,387.5z"/>
			</g>
		</g>
	</g>
	<g>
		<g>
			<path fill="#F4D256" d="M10.1,387.4v-3.1H34v3.1c0,0-2.7,2.2-12,2.2C12.8,389.6,10.1,387.4,10.1,387.4z"/>
			<ellipse fill="#DC9928" cx="22" cy="384.3" rx="12" ry="2.3"/>
		</g>
		<g>
			<g>
				<path fill="#F4D256" d="M23.6,383.8c-0.2,0-0.4,0-0.5,0.1c-0.1,0.1-0.3,0.2-0.4,0.4c-0.2,0.4-0.5,0.6-0.8,0.8
					c-0.3,0.2-0.8,0.3-1.3,0.3c-0.5,0-0.9-0.1-1.2-0.3c-0.3-0.2-0.4-0.4-0.4-0.7l-0.9,0l0.1-0.4l0.9,0c0.1-0.3,0.4-0.5,0.7-0.7
					c0.3-0.2,0.7-0.2,1.2-0.2l0,0l-0.1,0.7c-0.3,0-0.5,0-0.7,0.1c-0.2,0.1-0.3,0.2-0.3,0.3c0,0.2,0,0.3,0.1,0.3
					c0.1,0.1,0.3,0.1,0.6,0.1c0.2,0,0.4,0,0.5-0.1c0.1-0.1,0.3-0.2,0.5-0.4c0.2-0.4,0.5-0.6,0.7-0.8c0.3-0.2,0.6-0.3,1.1-0.3
					c0.4,0,0.8,0.1,1.1,0.3c0.3,0.2,0.5,0.4,0.7,0.7l0.8,0l0.1,0.4l-0.8,0c0,0.3-0.1,0.6-0.4,0.8c-0.3,0.2-0.8,0.3-1.5,0.3l0,0
					l-0.1-0.7c0.4,0,0.6,0,0.8-0.2c0.1-0.1,0.2-0.2,0.2-0.4c0-0.2-0.1-0.3-0.3-0.4C24,383.8,23.8,383.8,23.6,383.8z"/>
			</g>
		</g>
	</g>
	<g>
		<g>
			<path fill="#F4D256" d="M10.1,383.7v-3.1H34v3.1c0,0-2.7,2.2-12,2.2C12.8,385.9,10.1,383.7,10.1,383.7z"/>
			<ellipse fill="#DC9928" cx="22" cy="380.6" rx="12" ry="2.3"/>
		</g>
		<g>
			<g>
				<path fill="#F4D256" d="M23.6,380.1c-0.2,0-0.4,0-0.5,0.1c-0.1,0.1-0.3,0.2-0.4,0.4c-0.2,0.4-0.5,0.7-0.8,0.8
					c-0.3,0.2-0.8,0.3-1.3,0.3c-0.5,0-0.9-0.1-1.2-0.3c-0.3-0.2-0.4-0.4-0.4-0.7l-0.9,0l0.1-0.4l0.9,0c0.2-0.3,0.4-0.5,0.7-0.7
					c0.3-0.2,0.7-0.2,1.2-0.2l0,0L21,380c-0.3,0-0.5,0-0.7,0.1c-0.2,0.1-0.3,0.2-0.3,0.3c0,0.2,0,0.3,0.1,0.3
					c0.1,0.1,0.3,0.1,0.6,0.1c0.2,0,0.4,0,0.5-0.1c0.1-0.1,0.3-0.2,0.5-0.4c0.2-0.4,0.5-0.6,0.7-0.8c0.3-0.2,0.6-0.3,1.1-0.3
					c0.4,0,0.8,0.1,1.1,0.3c0.3,0.2,0.5,0.4,0.7,0.7l0.8,0l0.1,0.4l-0.8,0c0,0.3-0.1,0.6-0.4,0.8c-0.3,0.2-0.8,0.3-1.5,0.3l0,0
					l-0.1-0.7c0.4,0,0.6-0.1,0.8-0.2c0.1-0.1,0.2-0.2,0.2-0.4c0-0.2-0.1-0.3-0.3-0.4C24,380.1,23.8,380.1,23.6,380.1z"/>
			</g>
		</g>
	</g>
	<g>
		<g>
			<path fill="#F4D256" d="M10.1,379.9v-3.1H34v3.1c0,0-2.7,2.2-12,2.2C12.8,382.1,10.1,379.9,10.1,379.9z"/>
			<path fill="#DC9928" d="M34,376.8c0,1.3-5.4,2.3-12,2.3c-6.6,0-12-1-12-2.3c0-1.3,5.4-2.3,12-2.3C28.6,374.5,34,375.5,34,376.8z"
				/>
		</g>
		<g>
			<g>
				<path fill="#F4D256" d="M23.6,376.3c-0.2,0-0.4,0-0.5,0.1c-0.1,0.1-0.3,0.2-0.4,0.4c-0.2,0.4-0.5,0.6-0.8,0.8
					c-0.3,0.2-0.8,0.3-1.3,0.3c-0.5,0-0.9-0.1-1.2-0.3c-0.3-0.2-0.4-0.4-0.4-0.7l-0.9,0l0.1-0.4l0.9,0c0.1-0.3,0.4-0.5,0.7-0.7
					c0.3-0.2,0.7-0.2,1.2-0.2l0,0l-0.1,0.7c-0.3,0-0.5,0-0.7,0.1c-0.2,0.1-0.3,0.2-0.3,0.3c0,0.2,0,0.3,0.1,0.3
					c0.1,0.1,0.3,0.1,0.6,0.1c0.2,0,0.4,0,0.5-0.1c0.1-0.1,0.3-0.2,0.5-0.4c0.2-0.4,0.5-0.6,0.7-0.8c0.3-0.2,0.6-0.3,1.1-0.3
					c0.4,0,0.8,0.1,1.1,0.3c0.3,0.2,0.5,0.4,0.7,0.7l0.8,0l0.1,0.4l-0.8,0c0,0.3-0.1,0.6-0.4,0.8c-0.3,0.2-0.8,0.3-1.5,0.3l0,0
					l-0.1-0.7c0.4,0,0.6,0,0.8-0.2c0.1-0.1,0.2-0.2,0.2-0.4c0-0.2-0.1-0.3-0.3-0.4C24,376.4,23.8,376.3,23.6,376.3z"/>
			</g>
		</g>
	</g>
	<g>
		<g>
			<path fill="#F4D256" d="M10.1,376.2v-3.1H34v3.1c0,0-2.7,2.2-12,2.2C12.8,378.4,10.1,376.2,10.1,376.2z"/>
			<ellipse fill="#DC9928" cx="22" cy="373.1" rx="12" ry="2.3"/>
		</g>
		<g>
			<g>
				<path fill="#F4D256" d="M23.6,372.6c-0.2,0-0.4,0-0.5,0.1c-0.1,0.1-0.3,0.2-0.4,0.4c-0.2,0.4-0.5,0.7-0.8,0.8
					c-0.3,0.2-0.8,0.3-1.3,0.3c-0.5,0-0.9-0.1-1.2-0.3c-0.3-0.2-0.4-0.4-0.4-0.7l-0.9,0l0.1-0.4l0.9,0c0.2-0.3,0.4-0.5,0.7-0.7
					c0.3-0.2,0.7-0.2,1.2-0.2l0,0l-0.1,0.7c-0.3,0-0.5,0-0.7,0.1c-0.2,0.1-0.3,0.2-0.3,0.3c0,0.2,0,0.3,0.1,0.3
					c0.1,0.1,0.3,0.1,0.6,0.1c0.2,0,0.4,0,0.5-0.1c0.1-0.1,0.3-0.2,0.5-0.4c0.2-0.4,0.5-0.6,0.7-0.8c0.3-0.2,0.6-0.3,1.1-0.3
					c0.4,0,0.8,0.1,1.1,0.3c0.3,0.2,0.5,0.4,0.7,0.7l0.8,0l0.1,0.4l-0.8,0c0,0.3-0.1,0.6-0.4,0.8c-0.3,0.2-0.8,0.3-1.5,0.3l0,0
					l-0.1-0.7c0.4,0,0.6-0.1,0.8-0.2s0.2-0.2,0.2-0.4c0-0.2-0.1-0.3-0.3-0.4C24,372.6,23.8,372.6,23.6,372.6z"/>
			</g>
		</g>
	</g>
	<g>
		<g>
			<path fill="#F4D256" d="M10.1,372.4v-3.1H34v3.1c0,0-2.7,2.2-12,2.2C12.8,374.6,10.1,372.4,10.1,372.4z"/>
			<ellipse fill="#DC9928" cx="22" cy="369.3" rx="12" ry="2.3"/>
		</g>
		<g>
			<g>
				<path fill="#F4D256" d="M23.6,368.8c-0.2,0-0.4,0-0.5,0.1c-0.1,0.1-0.3,0.2-0.4,0.4c-0.2,0.4-0.5,0.6-0.8,0.8
					c-0.3,0.2-0.8,0.3-1.3,0.3c-0.5,0-0.9-0.1-1.2-0.3c-0.3-0.2-0.4-0.4-0.4-0.7l-0.9,0l0.1-0.4l0.9,0c0.1-0.3,0.4-0.5,0.7-0.7
					c0.3-0.2,0.7-0.2,1.2-0.2l0,0l-0.1,0.7c-0.3,0-0.5,0-0.7,0.1c-0.2,0.1-0.3,0.2-0.3,0.3c0,0.2,0,0.3,0.1,0.3
					c0.1,0.1,0.3,0.1,0.6,0.1c0.2,0,0.4,0,0.5-0.1c0.1-0.1,0.3-0.2,0.5-0.4c0.2-0.4,0.5-0.6,0.7-0.8c0.3-0.2,0.6-0.3,1.1-0.3
					c0.4,0,0.8,0.1,1.1,0.3c0.3,0.2,0.5,0.4,0.7,0.7l0.8,0l0.1,0.4l-0.8,0c0,0.3-0.1,0.6-0.4,0.8c-0.3,0.2-0.8,0.3-1.5,0.3l0,0
					l-0.1-0.7c0.4,0,0.6,0,0.8-0.2s0.2-0.2,0.2-0.4c0-0.2-0.1-0.3-0.3-0.4C24,368.9,23.8,368.8,23.6,368.8z"/>
			</g>
		</g>
	</g>
</g>
<g>
	<path d="M-152.9,454.1c-0.5-0.1-0.9-0.3-1.1-0.5s-0.3-0.5-0.3-0.8c0-0.3,0.1-0.6,0.4-0.9c0.3-0.2,0.6-0.3,1.1-0.3
		c0.3,0,0.6,0.1,0.8,0.2c0.2,0.1,0.4,0.3,0.5,0.5c0.1,0.2,0.2,0.4,0.2,0.7h-0.6c0-0.3-0.1-0.5-0.3-0.6c-0.2-0.1-0.4-0.2-0.7-0.2
		c-0.3,0-0.5,0.1-0.7,0.2s-0.2,0.3-0.2,0.5c0,0.2,0.1,0.3,0.2,0.5c0.2,0.1,0.4,0.2,0.8,0.3c0.4,0.1,0.6,0.2,0.9,0.3
		c0.2,0.1,0.4,0.3,0.5,0.4c0.1,0.2,0.1,0.4,0.1,0.6c0,0.4-0.1,0.6-0.4,0.9c-0.3,0.2-0.6,0.3-1.1,0.3c-0.3,0-0.6-0.1-0.8-0.2
		c-0.3-0.1-0.5-0.3-0.6-0.5c-0.1-0.2-0.2-0.4-0.2-0.7h0.6c0,0.3,0.1,0.5,0.3,0.6c0.2,0.2,0.5,0.2,0.8,0.2c0.3,0,0.5-0.1,0.7-0.2
		c0.2-0.1,0.2-0.3,0.2-0.5c0-0.2-0.1-0.4-0.2-0.5C-152.3,454.3-152.5,454.2-152.9,454.1z"/>
	<path d="M-148.7,456c0-0.1-0.1-0.2-0.1-0.3c-0.3,0.3-0.6,0.4-0.9,0.4c-0.3,0-0.6-0.1-0.8-0.3s-0.3-0.4-0.3-0.7
		c0-0.3,0.1-0.6,0.4-0.8c0.3-0.2,0.6-0.3,1.1-0.3h0.5v-0.3c0-0.2-0.1-0.3-0.2-0.5s-0.3-0.2-0.5-0.2c-0.2,0-0.4,0.1-0.5,0.1
		c-0.1,0.1-0.2,0.2-0.2,0.4h-0.6c0-0.2,0.1-0.3,0.2-0.5c0.1-0.2,0.3-0.3,0.5-0.4c0.2-0.1,0.4-0.1,0.6-0.1c0.4,0,0.7,0.1,0.9,0.3
		c0.2,0.2,0.3,0.4,0.3,0.8v1.5c0,0.3,0,0.5,0.1,0.7v0L-148.7,456C-148.7,456-148.7,456-148.7,456z M-149.6,455.6
		c0.2,0,0.3,0,0.5-0.1c0.2-0.1,0.3-0.2,0.3-0.4v-0.7h-0.4c-0.7,0-1,0.2-1,0.6c0,0.2,0.1,0.3,0.2,0.4
		C-149.9,455.6-149.8,455.6-149.6,455.6z"/>
	<path d="M-146.7,456h-0.6v-4.6h0.6V456z"/>
	<path d="M-145.8,451.9c0-0.1,0-0.2,0.1-0.2c0.1-0.1,0.1-0.1,0.2-0.1s0.2,0,0.2,0.1c0.1,0.1,0.1,0.1,0.1,0.2c0,0.1,0,0.2-0.1,0.2
		c-0.1,0.1-0.1,0.1-0.2,0.1s-0.2,0-0.2-0.1C-145.8,452.1-145.8,452-145.8,451.9z M-145.2,456h-0.6v-3.2h0.6V456z"/>
	<path d="M-143,455.7c0.2,0,0.4-0.1,0.5-0.2c0.1-0.1,0.2-0.3,0.2-0.5h0.5c0,0.2-0.1,0.4-0.2,0.5c-0.1,0.2-0.3,0.3-0.5,0.4
		s-0.4,0.1-0.6,0.1c-0.4,0-0.8-0.1-1.1-0.4c-0.3-0.3-0.4-0.7-0.4-1.2v-0.1c0-0.3,0.1-0.6,0.2-0.8s0.3-0.4,0.5-0.6
		c0.2-0.1,0.5-0.2,0.8-0.2c0.4,0,0.7,0.1,0.9,0.3c0.2,0.2,0.4,0.5,0.4,0.8h-0.5c0-0.2-0.1-0.4-0.2-0.5c-0.1-0.1-0.3-0.2-0.5-0.2
		c-0.3,0-0.5,0.1-0.7,0.3c-0.2,0.2-0.2,0.5-0.2,0.9v0.1c0,0.4,0.1,0.7,0.2,0.9C-143.5,455.6-143.3,455.7-143,455.7z"/>
	<path d="M-140.1,454.7l0.1,0.6l0.1-0.5l0.9-3h0.5l0.8,3l0.1,0.5l0.1-0.6l0.7-3h0.6l-1.1,4.4h-0.5l-0.9-3.2l-0.1-0.3l-0.1,0.3
		l-0.9,3.2h-0.5l-1.1-4.4h0.6L-140.1,454.7z"/>
	<path d="M-134.4,456.1c-0.4,0-0.8-0.1-1.1-0.4s-0.4-0.7-0.4-1.2v-0.1c0-0.3,0.1-0.6,0.2-0.9c0.1-0.3,0.3-0.5,0.5-0.6
		c0.2-0.1,0.5-0.2,0.7-0.2c0.4,0,0.8,0.1,1,0.4c0.2,0.3,0.4,0.7,0.4,1.2v0.2h-2.2c0,0.3,0.1,0.6,0.3,0.8c0.2,0.2,0.4,0.3,0.7,0.3
		c0.2,0,0.4,0,0.5-0.1c0.1-0.1,0.3-0.2,0.4-0.3l0.3,0.3C-133.5,455.9-133.9,456.1-134.4,456.1z M-134.5,453.2
		c-0.2,0-0.4,0.1-0.6,0.2c-0.2,0.2-0.2,0.4-0.3,0.7h1.6v0c0-0.3-0.1-0.5-0.2-0.7C-134.1,453.3-134.3,453.2-134.5,453.2z"/>
	<path d="M-129.8,454.5c0,0.5-0.1,0.9-0.3,1.2c-0.2,0.3-0.5,0.5-0.9,0.5c-0.4,0-0.7-0.1-0.9-0.4l0,0.4h-0.5v-4.6h0.6v1.7
		c0.2-0.3,0.5-0.4,0.9-0.4s0.7,0.1,0.9,0.4C-129.9,453.5-129.8,453.9-129.8,454.5L-129.8,454.5L-129.8,454.5z M-130.3,454.4
		c0-0.4-0.1-0.7-0.2-0.9c-0.1-0.2-0.4-0.3-0.6-0.3c-0.4,0-0.6,0.2-0.8,0.5v1.4c0.2,0.3,0.4,0.5,0.8,0.5c0.3,0,0.5-0.1,0.6-0.3
		C-130.4,455.1-130.3,454.8-130.3,454.4z"/>
	<path d="M-157.7,469c0-0.5,0.1-0.9,0.2-1.3c0.1-0.4,0.3-0.8,0.5-1.1c0.2-0.3,0.5-0.6,0.7-0.7l0.1,0.4c-0.3,0.2-0.5,0.6-0.7,1
		c-0.2,0.5-0.3,1-0.3,1.5l0,0.3c0,0.8,0.1,1.4,0.4,2c0.2,0.3,0.4,0.6,0.6,0.8l-0.1,0.3c-0.3-0.1-0.5-0.4-0.8-0.7
		C-157.5,470.8-157.7,470-157.7,469z"/>
	<path d="M-153.8,470.8h-0.6v-3.7l-1.1,0.4V467l1.6-0.6h0.1V470.8z"/>
	<path d="M-150.1,468.9c-0.1,0.1-0.3,0.3-0.4,0.3c-0.2,0.1-0.3,0.1-0.5,0.1c-0.3,0-0.5-0.1-0.7-0.2c-0.2-0.1-0.3-0.3-0.4-0.5
		c-0.1-0.2-0.2-0.5-0.2-0.7c0-0.3,0.1-0.6,0.2-0.8c0.1-0.2,0.3-0.4,0.5-0.5c0.2-0.1,0.4-0.2,0.7-0.2c0.4,0,0.8,0.2,1,0.5
		c0.2,0.3,0.4,0.8,0.4,1.3v0.2c0,0.8-0.2,1.5-0.5,1.9c-0.3,0.4-0.8,0.6-1.5,0.6h-0.1v-0.5h0.1c0.5,0,0.8-0.1,1.1-0.4
		C-150.2,469.7-150.1,469.4-150.1,468.9z M-150.9,468.9c0.2,0,0.4-0.1,0.5-0.2c0.2-0.1,0.3-0.3,0.3-0.4V468c0-0.4-0.1-0.7-0.2-0.9
		c-0.2-0.2-0.4-0.3-0.6-0.3c-0.2,0-0.4,0.1-0.6,0.3s-0.2,0.4-0.2,0.7c0,0.3,0.1,0.5,0.2,0.7C-151.3,468.8-151.2,468.9-150.9,468.9z"
		/>
	<path d="M-146.6,468.9c-0.1,0.1-0.3,0.3-0.4,0.3c-0.2,0.1-0.3,0.1-0.5,0.1c-0.3,0-0.5-0.1-0.7-0.2s-0.3-0.3-0.4-0.5
		c-0.1-0.2-0.2-0.5-0.2-0.7c0-0.3,0.1-0.6,0.2-0.8c0.1-0.2,0.3-0.4,0.5-0.5c0.2-0.1,0.4-0.2,0.7-0.2c0.4,0,0.8,0.2,1,0.5
		c0.2,0.3,0.4,0.8,0.4,1.3v0.2c0,0.8-0.2,1.5-0.5,1.9c-0.3,0.4-0.8,0.6-1.5,0.6h-0.1v-0.5h0.1c0.5,0,0.8-0.1,1.1-0.4
		C-146.8,469.7-146.6,469.4-146.6,468.9z M-147.5,468.9c0.2,0,0.4-0.1,0.5-0.2c0.2-0.1,0.3-0.3,0.3-0.4V468c0-0.4-0.1-0.7-0.2-0.9
		c-0.2-0.2-0.4-0.3-0.6-0.3c-0.2,0-0.4,0.1-0.6,0.3c-0.1,0.2-0.2,0.4-0.2,0.7c0,0.3,0.1,0.5,0.2,0.7
		C-147.9,468.8-147.7,468.9-147.5,468.9z"/>
	<path d="M-140.6,469.2h-1.5v-0.5h1.5V469.2z"/>
	<path d="M-137.3,470.8h-2.9v-0.4l1.5-1.7c0.2-0.3,0.4-0.5,0.5-0.6c0.1-0.2,0.1-0.3,0.1-0.5c0-0.2-0.1-0.4-0.2-0.6s-0.3-0.2-0.6-0.2
		c-0.3,0-0.5,0.1-0.6,0.2c-0.2,0.2-0.2,0.4-0.2,0.7h-0.6c0-0.4,0.1-0.7,0.4-1c0.3-0.2,0.6-0.4,1-0.4c0.4,0,0.7,0.1,1,0.3
		c0.2,0.2,0.4,0.5,0.4,0.9c0,0.4-0.3,0.9-0.8,1.5l-1.2,1.3h2.2L-137.3,470.8L-137.3,470.8z"/>
	<path d="M-142.4,470.8h-2.9v-0.4l1.5-1.7c0.2-0.3,0.4-0.5,0.5-0.6c0.1-0.2,0.1-0.3,0.1-0.5c0-0.2-0.1-0.4-0.2-0.6s-0.3-0.2-0.6-0.2
		c-0.3,0-0.5,0.1-0.6,0.2c-0.2,0.2-0.2,0.4-0.2,0.7h-0.6c0-0.4,0.1-0.7,0.4-1c0.3-0.2,0.6-0.4,1-0.4c0.4,0,0.7,0.1,1,0.3
		c0.2,0.2,0.4,0.5,0.4,0.9c0,0.4-0.3,0.9-0.8,1.5l-1.2,1.3h2.2L-142.4,470.8L-142.4,470.8z"/>
	<path d="M-134,468.9c0,0.7-0.1,1.1-0.3,1.4c-0.2,0.3-0.6,0.5-1,0.5c-0.5,0-0.8-0.2-1-0.5s-0.3-0.8-0.3-1.4v-0.7
		c0-0.6,0.1-1.1,0.3-1.4c0.2-0.3,0.6-0.5,1-0.5c0.5,0,0.8,0.1,1,0.5c0.2,0.3,0.3,0.8,0.3,1.4L-134,468.9
		C-134,468.9-134,468.9-134,468.9z M-134.5,468.2c0-0.5-0.1-0.8-0.2-1c-0.1-0.2-0.3-0.3-0.6-0.3c-0.3,0-0.5,0.1-0.6,0.3
		c-0.1,0.2-0.2,0.5-0.2,1v0.9c0,0.5,0.1,0.8,0.2,1c0.1,0.2,0.3,0.3,0.6,0.3c0.3,0,0.5-0.1,0.6-0.3c0.1-0.2,0.2-0.5,0.2-1
		L-134.5,468.2L-134.5,468.2z"/>
	<path d="M-131.4,470.8h-0.6v-3.7l-1.1,0.4V467l1.6-0.6h0.1C-131.4,466.4-131.4,470.8-131.4,470.8z"/>
	<path d="M-128.1,470.8h-0.6v-3.7l-1.1,0.4V467l1.6-0.6h0.1C-128.1,466.4-128.1,470.8-128.1,470.8z"/>
	<path d="M-125,469c0,0.4-0.1,0.9-0.2,1.3c-0.1,0.4-0.3,0.8-0.5,1.1c-0.2,0.3-0.5,0.6-0.8,0.7l-0.1-0.3c0.3-0.2,0.6-0.6,0.7-1.1
		c0.2-0.5,0.3-1,0.3-1.7V469c0-0.4,0-0.8-0.1-1.2c-0.1-0.4-0.2-0.7-0.4-1c-0.2-0.3-0.3-0.5-0.5-0.7l0.1-0.3c0.3,0.1,0.5,0.4,0.8,0.7
		c0.2,0.3,0.4,0.7,0.5,1.1C-125.1,468.1-125,468.6-125,469z"/>
</g>
<g>
	<path d="M-94,454.1h-1.8v1.9h-0.6v-4.4h2.7v0.5h-2.1v1.5h1.8L-94,454.1L-94,454.1z"/>
	<path d="M-92.4,456h-0.6v-4.4h0.6V456z"/>
	<path d="M-87.9,456h-0.6l-2.2-3.4v3.4h-0.6v-4.4h0.6l2.2,3.4v-3.4h0.6V456z"/>
	<path d="M-84.5,454h-1.9v1.5h2.2v0.5h-2.8v-4.4h2.7v0.5h-2.2v1.4h1.9V454z"/>
	<path d="M-82.9,454.3v1.7h-0.6v-4.4h1.6c0.5,0,0.9,0.1,1.1,0.4c0.3,0.2,0.4,0.6,0.4,1c0,0.4-0.1,0.8-0.4,1
		c-0.3,0.2-0.6,0.3-1.1,0.3L-82.9,454.3L-82.9,454.3z M-82.9,453.9h1c0.3,0,0.5-0.1,0.7-0.2s0.2-0.4,0.2-0.6c0-0.3-0.1-0.5-0.2-0.6
		c-0.2-0.2-0.4-0.2-0.7-0.2h-1.1V453.9z"/>
	<path d="M-104.8,469c0-0.5,0.1-0.9,0.2-1.3c0.1-0.4,0.3-0.8,0.5-1.1c0.2-0.3,0.5-0.6,0.7-0.7l0.1,0.4c-0.3,0.2-0.5,0.6-0.7,1
		c-0.2,0.5-0.3,1-0.3,1.5l0,0.3c0,0.8,0.1,1.4,0.4,2c0.2,0.3,0.4,0.6,0.6,0.8l-0.1,0.3c-0.3-0.1-0.5-0.4-0.8-0.7
		C-104.6,470.8-104.8,470-104.8,469z"/>
	<path d="M-99.9,470.8h-2.9v-0.4l1.5-1.7c0.2-0.3,0.4-0.5,0.5-0.6c0.1-0.2,0.1-0.3,0.1-0.5c0-0.2-0.1-0.4-0.2-0.6s-0.3-0.2-0.6-0.2
		c-0.3,0-0.5,0.1-0.6,0.2c-0.2,0.2-0.2,0.4-0.2,0.7h-0.6c0-0.4,0.1-0.7,0.4-1c0.3-0.2,0.6-0.4,1-0.4c0.4,0,0.7,0.1,1,0.3
		c0.2,0.2,0.4,0.5,0.4,0.9c0,0.4-0.3,0.9-0.8,1.5l-1.2,1.3h2.2L-99.9,470.8L-99.9,470.8z"/>
	<path d="M-96.6,468.9c0,0.7-0.1,1.1-0.3,1.4c-0.2,0.3-0.6,0.5-1,0.5c-0.5,0-0.8-0.2-1-0.5s-0.3-0.8-0.3-1.4v-0.7
		c0-0.6,0.1-1.1,0.3-1.4c0.2-0.3,0.6-0.5,1-0.5c0.5,0,0.8,0.1,1,0.5c0.2,0.3,0.3,0.8,0.3,1.4L-96.6,468.9L-96.6,468.9z M-97.1,468.2
		c0-0.5-0.1-0.8-0.2-1c-0.1-0.2-0.3-0.3-0.6-0.3c-0.3,0-0.5,0.1-0.6,0.3c-0.1,0.2-0.2,0.5-0.2,1v0.9c0,0.5,0.1,0.8,0.2,1
		c0.1,0.2,0.3,0.3,0.6,0.3c0.3,0,0.5-0.1,0.6-0.3c0.1-0.2,0.2-0.5,0.2-1L-97.1,468.2L-97.1,468.2z"/>
	<path d="M-93.1,468.9c0,0.7-0.1,1.1-0.3,1.4c-0.2,0.3-0.6,0.5-1,0.5c-0.5,0-0.8-0.2-1-0.5s-0.3-0.8-0.3-1.4v-0.7
		c0-0.6,0.1-1.1,0.3-1.4c0.2-0.3,0.6-0.5,1-0.5c0.5,0,0.8,0.1,1,0.5c0.2,0.3,0.3,0.8,0.3,1.4C-93.1,468.2-93.1,468.9-93.1,468.9z
		 M-93.7,468.2c0-0.5-0.1-0.8-0.2-1c-0.1-0.2-0.3-0.3-0.6-0.3c-0.3,0-0.5,0.1-0.6,0.3c-0.1,0.2-0.2,0.5-0.2,1v0.9
		c0,0.5,0.1,0.8,0.2,1c0.1,0.2,0.3,0.3,0.6,0.3c0.3,0,0.5-0.1,0.6-0.3c0.1-0.2,0.2-0.5,0.2-1L-93.7,468.2L-93.7,468.2z"/>
	<path d="M-90.3,468.9c-0.1,0.1-0.3,0.3-0.4,0.3c-0.2,0.1-0.3,0.1-0.5,0.1c-0.3,0-0.5-0.1-0.7-0.2c-0.2-0.1-0.3-0.3-0.4-0.5
		s-0.2-0.5-0.2-0.7c0-0.3,0.1-0.6,0.2-0.8s0.3-0.4,0.5-0.5c0.2-0.1,0.4-0.2,0.7-0.2c0.4,0,0.8,0.2,1,0.5c0.2,0.3,0.4,0.8,0.4,1.3
		v0.2c0,0.8-0.2,1.5-0.5,1.9c-0.3,0.4-0.8,0.6-1.5,0.6h-0.1v-0.5h0.1c0.5,0,0.8-0.1,1.1-0.4C-90.4,469.7-90.3,469.4-90.3,468.9z
		 M-91.1,468.9c0.2,0,0.4-0.1,0.5-0.2c0.2-0.1,0.3-0.3,0.3-0.4V468c0-0.4-0.1-0.7-0.2-0.9s-0.4-0.3-0.6-0.3c-0.2,0-0.4,0.1-0.6,0.3
		c-0.1,0.2-0.2,0.4-0.2,0.7c0,0.3,0.1,0.5,0.2,0.7C-91.6,468.8-91.4,468.9-91.1,468.9z"/>
	<path d="M-87.8,469.2h-1.5v-0.5h1.5V469.2z"/>
	<path d="M-84.4,470.8h-2.9v-0.4l1.5-1.7c0.2-0.3,0.4-0.5,0.5-0.6c0.1-0.2,0.1-0.3,0.1-0.5c0-0.2-0.1-0.4-0.2-0.6
		c-0.1-0.1-0.3-0.2-0.6-0.2c-0.3,0-0.5,0.1-0.6,0.2c-0.2,0.2-0.2,0.4-0.2,0.7h-0.6c0-0.4,0.1-0.7,0.4-1c0.3-0.2,0.6-0.4,1-0.4
		c0.4,0,0.7,0.1,1,0.3c0.2,0.2,0.4,0.5,0.4,0.9c0,0.4-0.3,0.9-0.8,1.5l-1.2,1.3h2.2V470.8z"/>
	<path d="M-81.1,468.9c0,0.7-0.1,1.1-0.3,1.4c-0.2,0.3-0.6,0.5-1,0.5c-0.5,0-0.8-0.2-1-0.5c-0.2-0.3-0.3-0.8-0.3-1.4v-0.7
		c0-0.6,0.1-1.1,0.3-1.4c0.2-0.3,0.6-0.5,1-0.5c0.5,0,0.8,0.1,1,0.5c0.2,0.3,0.3,0.8,0.3,1.4C-81.1,468.2-81.1,468.9-81.1,468.9z
		 M-81.6,468.2c0-0.5-0.1-0.8-0.2-1c-0.1-0.2-0.3-0.3-0.6-0.3c-0.3,0-0.5,0.1-0.6,0.3c-0.1,0.2-0.2,0.5-0.2,1v0.9
		c0,0.5,0.1,0.8,0.2,1c0.1,0.2,0.3,0.3,0.6,0.3c0.3,0,0.5-0.1,0.6-0.3c0.1-0.2,0.2-0.5,0.2-1C-81.6,469.1-81.6,468.2-81.6,468.2z"/>
	<path d="M-78.6,470.8h-0.6v-3.7l-1.1,0.4V467l1.6-0.6h0.1V470.8z"/>
	<path d="M-76.7,468.6l0.2-2.2h2.2v0.5H-76l-0.1,1.2c0.2-0.1,0.5-0.2,0.7-0.2c0.4,0,0.7,0.1,0.9,0.4c0.2,0.3,0.3,0.6,0.3,1.1
		s-0.1,0.8-0.4,1.1c-0.2,0.3-0.6,0.4-1,0.4c-0.4,0-0.7-0.1-0.9-0.3c-0.2-0.2-0.4-0.5-0.4-0.9h0.5c0,0.3,0.1,0.4,0.3,0.6
		c0.1,0.1,0.3,0.2,0.6,0.2c0.3,0,0.5-0.1,0.6-0.3c0.1-0.2,0.2-0.4,0.2-0.7c0-0.3-0.1-0.5-0.2-0.7c-0.2-0.2-0.4-0.3-0.6-0.3
		c-0.2,0-0.4,0.1-0.6,0.2l-0.1,0.1L-76.7,468.6z"/>
	<path d="M-72.2,469c0,0.4-0.1,0.9-0.2,1.3c-0.1,0.4-0.3,0.8-0.5,1.1c-0.2,0.3-0.5,0.6-0.8,0.7l-0.1-0.3c0.3-0.2,0.6-0.6,0.7-1.1
		c0.2-0.5,0.3-1,0.3-1.7V469c0-0.4,0-0.8-0.1-1.2c-0.1-0.4-0.2-0.7-0.4-1c-0.2-0.3-0.3-0.5-0.5-0.7l0.1-0.3c0.3,0.1,0.5,0.4,0.8,0.7
		s0.4,0.7,0.5,1.1C-72.2,468.1-72.2,468.6-72.2,469z"/>
</g>
<g>
	<path d="M-42.5,454.1c-0.5-0.1-0.9-0.3-1.1-0.5s-0.3-0.5-0.3-0.8c0-0.3,0.1-0.6,0.4-0.9c0.3-0.2,0.6-0.3,1.1-0.3
		c0.3,0,0.6,0.1,0.8,0.2c0.2,0.1,0.4,0.3,0.5,0.5c0.1,0.2,0.2,0.4,0.2,0.7h-0.6c0-0.3-0.1-0.5-0.3-0.6c-0.2-0.1-0.4-0.2-0.7-0.2
		c-0.3,0-0.5,0.1-0.7,0.2s-0.2,0.3-0.2,0.5c0,0.2,0.1,0.3,0.2,0.5c0.1,0.1,0.4,0.2,0.8,0.3c0.4,0.1,0.6,0.2,0.9,0.3
		c0.2,0.1,0.4,0.3,0.5,0.4c0.1,0.2,0.1,0.4,0.1,0.6c0,0.4-0.1,0.6-0.4,0.9c-0.3,0.2-0.6,0.3-1.1,0.3c-0.3,0-0.6-0.1-0.8-0.2
		c-0.3-0.1-0.5-0.3-0.6-0.5c-0.1-0.2-0.2-0.4-0.2-0.7h0.6c0,0.3,0.1,0.5,0.3,0.6c0.2,0.2,0.5,0.2,0.8,0.2c0.3,0,0.5-0.1,0.7-0.2
		c0.2-0.1,0.2-0.3,0.2-0.5c0-0.2-0.1-0.4-0.2-0.5C-41.9,454.3-42.1,454.2-42.5,454.1z"/>
	<path d="M-39.6,456h-0.6v-4.4h0.6V456z"/>
	<path d="M-35.3,454.7c-0.1,0.5-0.2,0.8-0.5,1.1c-0.3,0.3-0.7,0.4-1.1,0.4c-0.5,0-0.9-0.2-1.2-0.6c-0.3-0.4-0.5-0.9-0.5-1.5v-0.4
		c0-0.4,0.1-0.8,0.2-1.1c0.1-0.3,0.4-0.5,0.6-0.7c0.3-0.2,0.6-0.2,0.9-0.2c0.5,0,0.8,0.1,1.1,0.4c0.3,0.3,0.4,0.6,0.5,1.1h-0.6
		c-0.1-0.3-0.2-0.6-0.3-0.8c-0.2-0.2-0.4-0.2-0.7-0.2c-0.4,0-0.7,0.1-0.9,0.4c-0.2,0.3-0.3,0.7-0.3,1.2v0.4c0,0.5,0.1,0.9,0.3,1.1
		s0.5,0.4,0.8,0.4c0.3,0,0.6-0.1,0.7-0.2c0.2-0.1,0.3-0.4,0.3-0.8L-35.3,454.7L-35.3,454.7z"/>
	<path d="M-31.1,454c0,0.4-0.1,0.8-0.2,1.1c-0.1,0.3-0.3,0.6-0.6,0.7c-0.3,0.2-0.6,0.3-0.9,0.3c-0.3,0-0.6-0.1-0.9-0.3
		s-0.5-0.4-0.6-0.7c-0.1-0.3-0.2-0.7-0.2-1.1v-0.3c0-0.4,0.1-0.8,0.2-1.1c0.1-0.3,0.4-0.6,0.6-0.7c0.3-0.2,0.6-0.3,0.9-0.3
		c0.4,0,0.7,0.1,0.9,0.3c0.3,0.2,0.5,0.4,0.6,0.7c0.1,0.3,0.2,0.7,0.2,1.1V454z M-31.7,453.7c0-0.5-0.1-0.9-0.3-1.2
		c-0.2-0.3-0.5-0.4-0.9-0.4c-0.4,0-0.6,0.1-0.9,0.4c-0.2,0.3-0.3,0.7-0.3,1.2v0.3c0,0.5,0.1,0.9,0.3,1.2s0.5,0.4,0.9,0.4
		c0.4,0,0.7-0.1,0.9-0.4c0.2-0.3,0.3-0.7,0.3-1.2L-31.7,453.7L-31.7,453.7z"/>
	<path d="M-26.9,456h-0.6l-2.2-3.4v3.4h-0.6v-4.4h0.6l2.2,3.4v-3.4h0.6V456z"/>
	<path d="M-24.5,455.3l1.2-3.6h0.6l-1.6,4.4h-0.5l-1.6-4.4h0.6L-24.5,455.3z"/>
	<path d="M-49.8,469c0-0.5,0.1-0.9,0.2-1.3c0.1-0.4,0.3-0.8,0.5-1.1c0.2-0.3,0.5-0.6,0.7-0.7l0.1,0.4c-0.3,0.2-0.5,0.6-0.7,1
		c-0.2,0.5-0.3,1-0.3,1.5l0,0.3c0,0.8,0.1,1.4,0.4,2c0.2,0.3,0.4,0.6,0.6,0.8l-0.1,0.3c-0.3-0.1-0.5-0.4-0.8-0.7
		C-49.5,470.8-49.8,470-49.8,469z"/>
	<path d="M-44.8,470.8h-2.9v-0.4l1.5-1.7c0.2-0.3,0.4-0.5,0.5-0.6c0.1-0.2,0.1-0.3,0.1-0.5c0-0.2-0.1-0.4-0.2-0.6
		c-0.1-0.1-0.3-0.2-0.6-0.2c-0.3,0-0.5,0.1-0.6,0.2c-0.2,0.2-0.2,0.4-0.2,0.7h-0.6c0-0.4,0.1-0.7,0.4-1c0.3-0.2,0.6-0.4,1-0.4
		c0.4,0,0.7,0.1,1,0.3c0.2,0.2,0.4,0.5,0.4,0.9c0,0.4-0.3,0.9-0.8,1.5l-1.2,1.3h2.2L-44.8,470.8L-44.8,470.8z"/>
	<path d="M-41.5,468.9c0,0.7-0.1,1.1-0.3,1.4c-0.2,0.3-0.6,0.5-1,0.5c-0.5,0-0.8-0.2-1-0.5c-0.2-0.3-0.3-0.8-0.3-1.4v-0.7
		c0-0.6,0.1-1.1,0.3-1.4c0.2-0.3,0.6-0.5,1-0.5c0.5,0,0.8,0.1,1,0.5c0.2,0.3,0.3,0.8,0.3,1.4V468.9L-41.5,468.9z M-42.1,468.2
		c0-0.5-0.1-0.8-0.2-1c-0.1-0.2-0.3-0.3-0.6-0.3c-0.3,0-0.5,0.1-0.6,0.3c-0.1,0.2-0.2,0.5-0.2,1v0.9c0,0.5,0.1,0.8,0.2,1
		c0.1,0.2,0.3,0.3,0.6,0.3c0.3,0,0.5-0.1,0.6-0.3c0.1-0.2,0.2-0.5,0.2-1L-42.1,468.2L-42.1,468.2z"/>
	<path d="M-38.1,468.9c0,0.7-0.1,1.1-0.3,1.4c-0.2,0.3-0.6,0.5-1,0.5c-0.5,0-0.8-0.2-1-0.5s-0.3-0.8-0.3-1.4v-0.7
		c0-0.6,0.1-1.1,0.3-1.4c0.2-0.3,0.6-0.5,1-0.5c0.5,0,0.8,0.1,1,0.5c0.2,0.3,0.3,0.8,0.3,1.4L-38.1,468.9L-38.1,468.9z M-38.6,468.2
		c0-0.5-0.1-0.8-0.2-1c-0.1-0.2-0.3-0.3-0.6-0.3c-0.3,0-0.5,0.1-0.6,0.3c-0.1,0.2-0.2,0.5-0.2,1v0.9c0,0.5,0.1,0.8,0.2,1
		c0.1,0.2,0.3,0.3,0.6,0.3c0.3,0,0.5-0.1,0.6-0.3c0.1-0.2,0.2-0.5,0.2-1L-38.6,468.2L-38.6,468.2z"/>
	<path d="M-35.2,468.9c-0.1,0.1-0.3,0.3-0.4,0.3c-0.2,0.1-0.3,0.1-0.5,0.1c-0.3,0-0.5-0.1-0.7-0.2s-0.3-0.3-0.4-0.5
		s-0.2-0.5-0.2-0.7c0-0.3,0.1-0.6,0.2-0.8c0.1-0.2,0.3-0.4,0.5-0.5c0.2-0.1,0.4-0.2,0.7-0.2c0.4,0,0.8,0.2,1,0.5
		c0.3,0.3,0.4,0.8,0.4,1.3v0.2c0,0.8-0.2,1.5-0.5,1.9c-0.3,0.4-0.8,0.6-1.5,0.6h-0.1v-0.5h0.1c0.5,0,0.8-0.1,1.1-0.4
		C-35.4,469.7-35.3,469.4-35.2,468.9z M-36.1,468.9c0.2,0,0.4-0.1,0.5-0.2c0.2-0.1,0.3-0.3,0.3-0.4V468c0-0.4-0.1-0.7-0.2-0.9
		c-0.2-0.2-0.4-0.3-0.6-0.3s-0.4,0.1-0.6,0.3c-0.1,0.2-0.2,0.4-0.2,0.7c0,0.3,0.1,0.5,0.2,0.7C-36.5,468.8-36.3,468.9-36.1,468.9z"
		/>
	<path d="M-32.7,469.2h-1.5v-0.5h1.5V469.2z"/>
	<path d="M-29.4,470.8h-2.9v-0.4l1.5-1.7c0.2-0.3,0.4-0.5,0.5-0.6c0.1-0.2,0.1-0.3,0.1-0.5c0-0.2-0.1-0.4-0.2-0.6
		c-0.1-0.1-0.3-0.2-0.6-0.2c-0.3,0-0.5,0.1-0.6,0.2c-0.2,0.2-0.2,0.4-0.2,0.7h-0.6c0-0.4,0.1-0.7,0.4-1c0.3-0.2,0.6-0.4,1-0.4
		c0.4,0,0.7,0.1,1,0.3c0.2,0.2,0.4,0.5,0.4,0.9c0,0.4-0.3,0.9-0.8,1.5l-1.2,1.3h2.2L-29.4,470.8L-29.4,470.8z"/>
	<path d="M-26,468.9c0,0.7-0.1,1.1-0.3,1.4c-0.2,0.3-0.6,0.5-1,0.5c-0.5,0-0.8-0.2-1-0.5c-0.2-0.3-0.3-0.8-0.3-1.4v-0.7
		c0-0.6,0.1-1.1,0.3-1.4c0.2-0.3,0.6-0.5,1-0.5c0.5,0,0.8,0.1,1,0.5c0.2,0.3,0.3,0.8,0.3,1.4V468.9L-26,468.9z M-26.6,468.2
		c0-0.5-0.1-0.8-0.2-1c-0.1-0.2-0.3-0.3-0.6-0.3c-0.3,0-0.5,0.1-0.6,0.3c-0.1,0.2-0.2,0.5-0.2,1v0.9c0,0.5,0.1,0.8,0.2,1
		c0.1,0.2,0.3,0.3,0.6,0.3c0.3,0,0.5-0.1,0.6-0.3c0.1-0.2,0.2-0.5,0.2-1L-26.6,468.2L-26.6,468.2z"/>
	<path d="M-23.5,470.8h-0.6v-3.7l-1.1,0.4V467l1.6-0.6h0.1V470.8L-23.5,470.8z"/>
	<path d="M-21.6,468.6l0.2-2.2h2.2v0.5h-1.8l-0.1,1.2c0.2-0.1,0.5-0.2,0.7-0.2c0.4,0,0.7,0.1,0.9,0.4c0.2,0.3,0.4,0.6,0.4,1.1
		s-0.1,0.8-0.4,1.1c-0.2,0.3-0.6,0.4-1,0.4c-0.4,0-0.7-0.1-0.9-0.3c-0.2-0.2-0.4-0.5-0.4-0.9h0.5c0,0.3,0.1,0.4,0.3,0.6
		c0.1,0.1,0.3,0.2,0.6,0.2c0.3,0,0.5-0.1,0.6-0.3c0.1-0.2,0.2-0.4,0.2-0.7c0-0.3-0.1-0.5-0.2-0.7c-0.2-0.2-0.4-0.3-0.6-0.3
		c-0.2,0-0.4,0.1-0.6,0.2l-0.1,0.1L-21.6,468.6z"/>
	<path d="M-17.1,469c0,0.4-0.1,0.9-0.2,1.3c-0.1,0.4-0.3,0.8-0.5,1.1c-0.2,0.3-0.5,0.6-0.8,0.7l-0.1-0.3c0.3-0.2,0.6-0.6,0.7-1.1
		s0.3-1,0.3-1.7V469c0-0.4,0-0.8-0.1-1.2c-0.1-0.4-0.2-0.7-0.4-1c-0.2-0.3-0.3-0.5-0.5-0.7l0.1-0.3c0.3,0.1,0.5,0.4,0.8,0.7
		c0.2,0.3,0.4,0.7,0.5,1.1S-17.1,468.6-17.1,469z"/>
</g>
<g>
	<path d="M18.2,454.1c-0.5-0.1-0.9-0.3-1.1-0.5c-0.2-0.2-0.3-0.5-0.3-0.8c0-0.3,0.1-0.6,0.4-0.9c0.3-0.2,0.6-0.3,1.1-0.3
		c0.3,0,0.6,0.1,0.8,0.2c0.2,0.1,0.4,0.3,0.5,0.5c0.1,0.2,0.2,0.4,0.2,0.7h-0.6c0-0.3-0.1-0.5-0.3-0.6c-0.2-0.1-0.4-0.2-0.7-0.2
		c-0.3,0-0.5,0.1-0.7,0.2c-0.2,0.1-0.2,0.3-0.2,0.5c0,0.2,0.1,0.3,0.2,0.5c0.1,0.1,0.4,0.2,0.8,0.3c0.4,0.1,0.6,0.2,0.9,0.3
		c0.2,0.1,0.4,0.3,0.5,0.4c0.1,0.2,0.1,0.4,0.1,0.6c0,0.4-0.1,0.6-0.4,0.9c-0.3,0.2-0.6,0.3-1.1,0.3c-0.3,0-0.6-0.1-0.8-0.2
		c-0.3-0.1-0.5-0.3-0.6-0.5c-0.1-0.2-0.2-0.4-0.2-0.7h0.6c0,0.3,0.1,0.5,0.3,0.6c0.2,0.2,0.5,0.2,0.8,0.2c0.3,0,0.5-0.1,0.7-0.2
		c0.2-0.1,0.2-0.3,0.2-0.5c0-0.2-0.1-0.4-0.2-0.5C18.8,454.3,18.6,454.2,18.2,454.1z"/>
	<path d="M21.1,456h-0.6v-4.4h0.6V456z"/>
	<path d="M24.7,454.9h-1.8l-0.4,1.1h-0.6l1.7-4.4H24l1.7,4.4h-0.6L24.7,454.9z M23,454.4h1.5l-0.7-2L23,454.4z"/>
	<path d="M28.7,454.1h-1.8v1.9h-0.6v-4.4H29v0.5h-2.1v1.5h1.8V454.1z"/>
	<path d="M30.3,456h-0.6v-4.4h0.6V456z"/>
	<path d="M7.2,469c0-0.5,0.1-0.9,0.2-1.3c0.1-0.4,0.3-0.8,0.5-1.1c0.2-0.3,0.5-0.6,0.7-0.7l0.1,0.4c-0.3,0.2-0.5,0.6-0.7,1
		c-0.2,0.5-0.3,1-0.3,1.5l0,0.3c0,0.8,0.1,1.4,0.4,2c0.2,0.3,0.4,0.6,0.6,0.8l-0.1,0.3c-0.3-0.1-0.5-0.4-0.8-0.7
		C7.5,470.8,7.2,470,7.2,469z"/>
	<path d="M12.2,470.8H9.3v-0.4l1.5-1.7c0.2-0.3,0.4-0.5,0.5-0.6c0.1-0.2,0.1-0.3,0.1-0.5c0-0.2-0.1-0.4-0.2-0.6
		c-0.1-0.1-0.3-0.2-0.6-0.2c-0.3,0-0.5,0.1-0.6,0.2c-0.2,0.2-0.2,0.4-0.2,0.7H9.2c0-0.4,0.1-0.7,0.4-1c0.3-0.2,0.6-0.4,1-0.4
		c0.4,0,0.7,0.1,1,0.3c0.2,0.2,0.4,0.5,0.4,0.9c0,0.4-0.3,0.9-0.8,1.5l-1.2,1.3h2.2L12.2,470.8L12.2,470.8z"/>
	<path d="M15.5,468.9c0,0.7-0.1,1.1-0.3,1.4c-0.2,0.3-0.6,0.5-1,0.5c-0.5,0-0.8-0.2-1-0.5c-0.2-0.3-0.3-0.8-0.3-1.4v-0.7
		c0-0.6,0.1-1.1,0.3-1.4c0.2-0.3,0.6-0.5,1-0.5c0.5,0,0.8,0.1,1,0.5c0.2,0.3,0.3,0.8,0.3,1.4V468.9L15.5,468.9z M14.9,468.2
		c0-0.5-0.1-0.8-0.2-1c-0.1-0.2-0.3-0.3-0.6-0.3c-0.3,0-0.5,0.1-0.6,0.3c-0.1,0.2-0.2,0.5-0.2,1v0.9c0,0.5,0.1,0.8,0.2,1
		c0.1,0.2,0.3,0.3,0.6,0.3c0.3,0,0.5-0.1,0.6-0.3c0.1-0.2,0.2-0.5,0.2-1L14.9,468.2L14.9,468.2z"/>
	<path d="M24.3,469.2h-1.5v-0.5h1.5V469.2z"/>
	<path d="M27.6,470.8h-2.9v-0.4l1.5-1.7c0.2-0.3,0.4-0.5,0.5-0.6c0.1-0.2,0.1-0.3,0.1-0.5c0-0.2-0.1-0.4-0.2-0.6
		c-0.1-0.1-0.3-0.2-0.6-0.2c-0.3,0-0.5,0.1-0.6,0.2c-0.2,0.2-0.2,0.4-0.2,0.7h-0.6c0-0.4,0.1-0.7,0.4-1c0.3-0.2,0.6-0.4,1-0.4
		c0.4,0,0.7,0.1,1,0.3c0.2,0.2,0.4,0.5,0.4,0.9c0,0.4-0.3,0.9-0.8,1.5l-1.2,1.3h2.2L27.6,470.8L27.6,470.8z"/>
	<path d="M31,468.9c0,0.7-0.1,1.1-0.3,1.4c-0.2,0.3-0.6,0.5-1,0.5c-0.5,0-0.8-0.2-1-0.5c-0.2-0.3-0.3-0.8-0.3-1.4v-0.7
		c0-0.6,0.1-1.1,0.3-1.4c0.2-0.3,0.6-0.5,1-0.5c0.5,0,0.8,0.1,1,0.5c0.2,0.3,0.3,0.8,0.3,1.4V468.9L31,468.9z M30.4,468.2
		c0-0.5-0.1-0.8-0.2-1c-0.1-0.2-0.3-0.3-0.6-0.3c-0.3,0-0.5,0.1-0.6,0.3c-0.1,0.2-0.2,0.5-0.2,1v0.9c0,0.5,0.1,0.8,0.2,1
		c0.1,0.2,0.3,0.3,0.6,0.3c0.3,0,0.5-0.1,0.6-0.3c0.1-0.2,0.2-0.5,0.2-1L30.4,468.2L30.4,468.2z"/>
	<path d="M33.5,470.8h-0.6v-3.7l-1.1,0.4V467l1.6-0.6h0.1V470.8L33.5,470.8z"/>
	<path d="M18,470.8h-0.6v-3.7l-1.1,0.4V467l1.6-0.6H18V470.8L18,470.8z"/>
	<path d="M21.1,470.8h-0.6v-3.7l-1.1,0.4V467l1.6-0.6h0.1V470.8L21.1,470.8z"/>
	<path d="M35.4,468.6l0.2-2.2h2.2v0.5h-1.8l-0.1,1.2c0.2-0.1,0.5-0.2,0.7-0.2c0.4,0,0.7,0.1,0.9,0.4c0.2,0.3,0.4,0.6,0.4,1.1
		s-0.1,0.8-0.4,1.1c-0.2,0.3-0.6,0.4-1,0.4c-0.4,0-0.7-0.1-0.9-0.3c-0.2-0.2-0.4-0.5-0.4-0.9h0.5c0,0.3,0.1,0.4,0.3,0.6
		c0.1,0.1,0.3,0.2,0.6,0.2c0.3,0,0.5-0.1,0.6-0.3c0.1-0.2,0.2-0.4,0.2-0.7c0-0.3-0.1-0.5-0.2-0.7c-0.2-0.2-0.4-0.3-0.6-0.3
		c-0.2,0-0.4,0.1-0.6,0.2l-0.1,0.1L35.4,468.6z"/>
	<path d="M39.9,469c0,0.4-0.1,0.9-0.2,1.3c-0.1,0.4-0.3,0.8-0.5,1.1c-0.2,0.3-0.5,0.6-0.8,0.7l-0.1-0.3c0.3-0.2,0.6-0.6,0.7-1.1
		s0.3-1,0.3-1.7V469c0-0.4,0-0.8-0.1-1.2c-0.1-0.4-0.2-0.7-0.4-1c-0.2-0.3-0.3-0.5-0.5-0.7l0.1-0.3c0.3,0.1,0.5,0.4,0.8,0.7
		c0.2,0.3,0.4,0.7,0.5,1.1S39.9,468.6,39.9,469z"/>
</g>
<g>
	<path d="M-162.7,461.5h-1v1.7h-0.6V459h1.4c0.5,0,0.8,0.1,1.1,0.3c0.3,0.2,0.4,0.5,0.4,1c0,0.3-0.1,0.5-0.2,0.7
		c-0.1,0.2-0.3,0.3-0.6,0.4l1,1.8v0h-0.6L-162.7,461.5z M-163.7,461.1h0.9c0.3,0,0.5-0.1,0.7-0.2c0.2-0.1,0.2-0.3,0.2-0.6
		c0-0.3-0.1-0.5-0.2-0.6c-0.2-0.1-0.4-0.2-0.7-0.2h-0.9L-163.7,461.1L-163.7,461.1z"/>
	<path d="M-158.5,462.1c0-0.2-0.1-0.3-0.2-0.5c-0.1-0.1-0.3-0.2-0.6-0.3c-0.4-0.1-0.7-0.3-0.9-0.5c-0.2-0.2-0.3-0.5-0.3-0.8
		c0-0.3,0.1-0.6,0.3-0.8c0.2-0.2,0.4-0.3,0.8-0.4v-0.6h0.4v0.6c0.3,0,0.6,0.2,0.8,0.4c0.2,0.2,0.3,0.5,0.3,0.9h-0.5
		c0-0.3-0.1-0.5-0.2-0.7c-0.1-0.2-0.3-0.2-0.5-0.2c-0.2,0-0.4,0.1-0.5,0.2c-0.1,0.1-0.2,0.3-0.2,0.5c0,0.2,0.1,0.4,0.2,0.5
		c0.1,0.1,0.3,0.2,0.6,0.3c0.3,0.1,0.5,0.2,0.7,0.3c0.2,0.1,0.3,0.3,0.4,0.4c0.1,0.2,0.1,0.3,0.1,0.5c0,0.3-0.1,0.6-0.3,0.8
		c-0.2,0.2-0.5,0.3-0.8,0.4v0.6h-0.4v-0.6c-0.4,0-0.6-0.2-0.9-0.4c-0.2-0.2-0.3-0.5-0.3-0.9h0.5c0,0.3,0.1,0.5,0.2,0.6
		c0.1,0.1,0.3,0.2,0.6,0.2c0.3,0,0.5-0.1,0.6-0.2C-158.6,462.5-158.5,462.4-158.5,462.1z"/>
	<path d="M-155.5,463.2h-0.5v-3.6l-1.1,0.4v-0.5l1.5-0.6h0.1V463.2z"/>
	<path d="M-153.9,463c0-0.1,0-0.2,0.1-0.2c0.1-0.1,0.1-0.1,0.3-0.1c0.1,0,0.2,0,0.3,0.1c0.1,0.1,0.1,0.1,0.1,0.2
		c0,0.1,0,0.2-0.1,0.2c-0.1,0.1-0.1,0.1-0.3,0.1s-0.2,0-0.3-0.1C-153.9,463.1-153.9,463-153.9,463z"/>
	<path d="M-149.6,459.3l-1.8,3.9h-0.6l1.8-3.8h-2.3V459h2.9L-149.6,459.3L-149.6,459.3z"/>
	<path d="M-146.4,461.4c0,0.6-0.1,1.1-0.3,1.4c-0.2,0.3-0.6,0.5-1,0.5c-0.5,0-0.8-0.2-1-0.5c-0.2-0.3-0.3-0.8-0.3-1.3v-0.7
		c0-0.6,0.1-1.1,0.3-1.4c0.2-0.3,0.6-0.5,1-0.5c0.5,0,0.8,0.1,1,0.4c0.2,0.3,0.3,0.7,0.3,1.4C-146.4,460.7-146.4,461.4-146.4,461.4z
		 M-146.9,460.7c0-0.5-0.1-0.8-0.2-1c-0.1-0.2-0.3-0.3-0.6-0.3c-0.3,0-0.5,0.1-0.6,0.3c-0.1,0.2-0.2,0.5-0.2,1v0.9
		c0,0.5,0.1,0.8,0.2,1c0.1,0.2,0.3,0.3,0.6,0.3c0.3,0,0.5-0.1,0.6-0.3c0.1-0.2,0.2-0.5,0.2-1L-146.9,460.7L-146.9,460.7z"/>
	<path d="M-143.5,459v0.5h-0.1c-0.4,0-0.8,0.1-1,0.4c-0.3,0.2-0.4,0.6-0.4,1c0.2-0.3,0.5-0.4,0.9-0.4c0.4,0,0.7,0.1,0.9,0.4
		c0.2,0.3,0.3,0.6,0.3,1c0,0.4-0.1,0.8-0.4,1.1c-0.2,0.3-0.6,0.4-1,0.4c-0.4,0-0.7-0.2-1-0.5c-0.3-0.3-0.4-0.7-0.4-1.2v-0.2
		c0-0.8,0.2-1.4,0.5-1.8C-144.8,459.2-144.3,459-143.5,459L-143.5,459L-143.5,459z M-144.3,460.9c-0.2,0-0.4,0.1-0.5,0.2
		c-0.2,0.1-0.3,0.3-0.3,0.4v0.2c0,0.4,0.1,0.6,0.2,0.8c0.2,0.2,0.4,0.3,0.6,0.3c0.2,0,0.4-0.1,0.6-0.3c0.1-0.2,0.2-0.4,0.2-0.7
		c0-0.3-0.1-0.5-0.2-0.7C-143.8,461-144,460.9-144.3,460.9z"/>
	<path d="M-142.2,463c0-0.1,0-0.2,0.1-0.2c0.1-0.1,0.1-0.1,0.3-0.1c0.1,0,0.2,0,0.3,0.1c0.1,0.1,0.1,0.1,0.1,0.2
		c0,0.1,0,0.2-0.1,0.2c-0.1,0.1-0.1,0.1-0.3,0.1s-0.2,0-0.3-0.1C-142.2,463.1-142.2,463-142.2,463z"/>
	<path d="M-139,463.2h-0.5v-3.6l-1.1,0.4v-0.5l1.5-0.6h0.1V463.2z"/>
	<path d="M-134.6,459.3l-1.8,3.9h-0.6l1.8-3.8h-2.3V459h2.9L-134.6,459.3L-134.6,459.3z"/>
	<path d="M-131.4,460.1c0,0.2-0.1,0.4-0.2,0.6c-0.1,0.2-0.3,0.3-0.5,0.4c0.2,0.1,0.4,0.2,0.5,0.4c0.1,0.2,0.2,0.4,0.2,0.6
		c0,0.4-0.1,0.7-0.4,0.9c-0.2,0.2-0.6,0.3-1,0.3c-0.4,0-0.7-0.1-1-0.3c-0.2-0.2-0.4-0.5-0.4-0.9c0-0.2,0.1-0.4,0.2-0.6
		c0.1-0.2,0.3-0.3,0.5-0.4c-0.2-0.1-0.3-0.2-0.4-0.4c-0.1-0.2-0.2-0.4-0.2-0.6c0-0.4,0.1-0.6,0.3-0.9c0.2-0.2,0.5-0.3,0.9-0.3
		c0.4,0,0.7,0.1,0.9,0.3C-131.6,459.5-131.4,459.7-131.4,460.1z M-131.9,462.1c0-0.2-0.1-0.4-0.2-0.6c-0.2-0.1-0.3-0.2-0.6-0.2
		c-0.2,0-0.4,0.1-0.6,0.2c-0.1,0.1-0.2,0.3-0.2,0.6s0.1,0.4,0.2,0.6c0.1,0.1,0.3,0.2,0.6,0.2c0.3,0,0.5-0.1,0.6-0.2
		C-132,462.5-131.9,462.3-131.9,462.1z M-132.7,459.4c-0.2,0-0.4,0.1-0.5,0.2c-0.1,0.1-0.2,0.3-0.2,0.5c0,0.2,0.1,0.4,0.2,0.5
		c0.1,0.1,0.3,0.2,0.5,0.2c0.2,0,0.4-0.1,0.5-0.2c0.1-0.1,0.2-0.3,0.2-0.5c0-0.2-0.1-0.4-0.2-0.5
		C-132.3,459.4-132.5,459.4-132.7,459.4z"/>
	<path d="M-130.6,463c0-0.1,0-0.2,0.1-0.2c0.1-0.1,0.1-0.1,0.3-0.1s0.2,0,0.3,0.1c0.1,0.1,0.1,0.1,0.1,0.2c0,0.1,0,0.2-0.1,0.2
		s-0.1,0.1-0.3,0.1s-0.2,0-0.3-0.1C-130.6,463.1-130.6,463-130.6,463z"/>
	<path d="M-127,461.4c-0.1,0.1-0.2,0.2-0.4,0.3s-0.3,0.1-0.5,0.1c-0.2,0-0.5-0.1-0.6-0.2c-0.2-0.1-0.3-0.3-0.4-0.5
		c-0.1-0.2-0.1-0.5-0.1-0.7c0-0.3,0.1-0.5,0.2-0.8s0.3-0.4,0.5-0.5c0.2-0.1,0.4-0.2,0.7-0.2c0.4,0,0.8,0.2,1,0.5
		c0.2,0.3,0.4,0.7,0.4,1.3v0.2c0,0.8-0.2,1.4-0.5,1.8c-0.3,0.4-0.8,0.6-1.5,0.6h-0.1v-0.5h0.1c0.4,0,0.8-0.1,1-0.3
		C-127.2,462.2-127,461.9-127,461.4z M-127.9,461.4c0.2,0,0.3-0.1,0.5-0.2c0.2-0.1,0.3-0.2,0.3-0.4v-0.2c0-0.4-0.1-0.6-0.2-0.9
		s-0.3-0.3-0.6-0.3c-0.2,0-0.4,0.1-0.6,0.3s-0.2,0.4-0.2,0.7c0,0.3,0.1,0.5,0.2,0.7C-128.3,461.3-128.1,461.4-127.9,461.4z"/>
	<path d="M-123.1,461.4c0,0.6-0.1,1.1-0.3,1.4c-0.2,0.3-0.6,0.5-1,0.5c-0.5,0-0.8-0.2-1-0.5c-0.2-0.3-0.3-0.8-0.3-1.3v-0.7
		c0-0.6,0.1-1.1,0.3-1.4c0.2-0.3,0.6-0.5,1-0.5c0.5,0,0.8,0.1,1,0.4c0.2,0.3,0.3,0.7,0.3,1.4C-123.1,460.7-123.1,461.4-123.1,461.4z
		 M-123.6,460.7c0-0.5-0.1-0.8-0.2-1c-0.1-0.2-0.3-0.3-0.6-0.3c-0.3,0-0.5,0.1-0.6,0.3c-0.1,0.2-0.2,0.5-0.2,1v0.9
		c0,0.5,0.1,0.8,0.2,1c0.1,0.2,0.3,0.3,0.6,0.3c0.3,0,0.5-0.1,0.6-0.3c0.1-0.2,0.2-0.5,0.2-1L-123.6,460.7L-123.6,460.7z"/>
	<path d="M-120.3,461.4c-0.1,0.1-0.2,0.2-0.4,0.3s-0.3,0.1-0.5,0.1c-0.2,0-0.5-0.1-0.6-0.2c-0.2-0.1-0.3-0.3-0.4-0.5
		c-0.1-0.2-0.1-0.5-0.1-0.7c0-0.3,0.1-0.5,0.2-0.8s0.3-0.4,0.5-0.5c0.2-0.1,0.4-0.2,0.7-0.2c0.4,0,0.8,0.2,1,0.5
		c0.2,0.3,0.4,0.7,0.4,1.3v0.2c0,0.8-0.2,1.4-0.5,1.8c-0.3,0.4-0.8,0.6-1.5,0.6h-0.1v-0.5h0.1c0.4,0,0.8-0.1,1-0.3
		C-120.5,462.2-120.3,461.9-120.3,461.4z M-121.1,461.4c0.2,0,0.3-0.1,0.5-0.2c0.2-0.1,0.3-0.2,0.3-0.4v-0.2c0-0.4-0.1-0.6-0.2-0.9
		s-0.3-0.3-0.6-0.3c-0.2,0-0.4,0.1-0.6,0.3s-0.2,0.4-0.2,0.7c0,0.3,0.1,0.5,0.2,0.7C-121.6,461.3-121.4,461.4-121.1,461.4z"/>
</g>
<g>
	<path d="M-109,461.5h-1v1.7h-0.6V459h1.4c0.5,0,0.8,0.1,1.1,0.3c0.3,0.2,0.4,0.5,0.4,1c0,0.3-0.1,0.5-0.2,0.7
		c-0.1,0.2-0.3,0.3-0.6,0.4l1,1.8v0h-0.6L-109,461.5z M-110,461.1h0.9c0.3,0,0.5-0.1,0.7-0.2c0.2-0.1,0.2-0.3,0.2-0.6
		c0-0.3-0.1-0.5-0.2-0.6c-0.2-0.1-0.4-0.2-0.7-0.2h-0.9L-110,461.1L-110,461.1z"/>
	<path d="M-104.9,462.1c0-0.2-0.1-0.3-0.2-0.5c-0.1-0.1-0.3-0.2-0.6-0.3c-0.4-0.1-0.7-0.3-0.9-0.5c-0.2-0.2-0.3-0.5-0.3-0.8
		c0-0.3,0.1-0.6,0.3-0.8c0.2-0.2,0.4-0.3,0.8-0.4v-0.6h0.4v0.6c0.3,0,0.6,0.2,0.8,0.4s0.3,0.5,0.3,0.9h-0.5c0-0.3-0.1-0.5-0.2-0.7
		s-0.3-0.2-0.5-0.2c-0.2,0-0.4,0.1-0.5,0.2c-0.1,0.1-0.2,0.3-0.2,0.5c0,0.2,0.1,0.4,0.2,0.5c0.1,0.1,0.3,0.2,0.6,0.3
		c0.3,0.1,0.5,0.2,0.7,0.3c0.2,0.1,0.3,0.3,0.4,0.4c0.1,0.2,0.1,0.3,0.1,0.5c0,0.3-0.1,0.6-0.3,0.8c-0.2,0.2-0.5,0.3-0.8,0.4v0.6
		h-0.4v-0.6c-0.4,0-0.6-0.2-0.9-0.4c-0.2-0.2-0.3-0.5-0.3-0.9h0.5c0,0.3,0.1,0.5,0.2,0.6c0.1,0.1,0.3,0.2,0.6,0.2
		c0.3,0,0.5-0.1,0.6-0.2C-105,462.5-104.9,462.4-104.9,462.1z"/>
	<path d="M-100.9,463.2h-2.8v-0.4l1.5-1.6c0.2-0.2,0.4-0.4,0.5-0.6c0.1-0.2,0.1-0.3,0.1-0.5c0-0.2-0.1-0.4-0.2-0.5
		c-0.1-0.1-0.3-0.2-0.5-0.2c-0.3,0-0.5,0.1-0.6,0.2c-0.1,0.2-0.2,0.4-0.2,0.6h-0.5c0-0.4,0.1-0.7,0.4-0.9s0.6-0.4,1-0.4
		c0.4,0,0.7,0.1,0.9,0.3c0.2,0.2,0.3,0.5,0.3,0.8c0,0.4-0.3,0.9-0.8,1.5l-1.1,1.2h2.1C-100.9,462.8-100.9,463.2-100.9,463.2z"/>
	<path d="M-100.3,463c0-0.1,0-0.2,0.1-0.2c0.1-0.1,0.1-0.1,0.3-0.1s0.2,0,0.3,0.1c0.1,0.1,0.1,0.1,0.1,0.2c0,0.1,0,0.2-0.1,0.2
		s-0.1,0.1-0.3,0.1s-0.2,0-0.3-0.1C-100.2,463.1-100.3,463-100.3,463z"/>
	<path d="M-96.2,460.1c0,0.2-0.1,0.4-0.2,0.6c-0.1,0.2-0.3,0.3-0.5,0.4c0.2,0.1,0.4,0.2,0.5,0.4c0.1,0.2,0.2,0.4,0.2,0.6
		c0,0.4-0.1,0.7-0.4,0.9c-0.2,0.2-0.6,0.3-1,0.3c-0.4,0-0.7-0.1-1-0.3c-0.2-0.2-0.4-0.5-0.4-0.9c0-0.2,0.1-0.4,0.2-0.6
		c0.1-0.2,0.3-0.3,0.5-0.4c-0.2-0.1-0.3-0.2-0.4-0.4c-0.1-0.2-0.2-0.4-0.2-0.6c0-0.4,0.1-0.6,0.3-0.9c0.2-0.2,0.5-0.3,0.9-0.3
		c0.4,0,0.7,0.1,0.9,0.3C-96.3,459.5-96.2,459.7-96.2,460.1z M-96.6,462.1c0-0.2-0.1-0.4-0.2-0.6c-0.2-0.1-0.3-0.2-0.6-0.2
		c-0.2,0-0.4,0.1-0.6,0.2c-0.1,0.1-0.2,0.3-0.2,0.6s0.1,0.4,0.2,0.6s0.3,0.2,0.6,0.2c0.3,0,0.5-0.1,0.6-0.2
		C-96.7,462.5-96.6,462.3-96.6,462.1z M-97.4,459.4c-0.2,0-0.4,0.1-0.5,0.2c-0.1,0.1-0.2,0.3-0.2,0.5c0,0.2,0.1,0.4,0.2,0.5
		c0.1,0.1,0.3,0.2,0.5,0.2c0.2,0,0.4-0.1,0.5-0.2c0.1-0.1,0.2-0.3,0.2-0.5c0-0.2-0.1-0.4-0.2-0.5C-97.1,459.4-97.2,459.4-97.4,459.4
		z"/>
	<path d="M-92.7,461.4c0,0.6-0.1,1.1-0.3,1.4c-0.2,0.3-0.6,0.5-1,0.5c-0.5,0-0.8-0.2-1-0.5s-0.3-0.8-0.3-1.3v-0.7
		c0-0.6,0.1-1.1,0.3-1.4c0.2-0.3,0.6-0.5,1-0.5c0.5,0,0.8,0.1,1,0.4c0.2,0.3,0.3,0.7,0.3,1.4V461.4z M-93.3,460.7
		c0-0.5-0.1-0.8-0.2-1c-0.1-0.2-0.3-0.3-0.6-0.3c-0.3,0-0.5,0.1-0.6,0.3c-0.1,0.2-0.2,0.5-0.2,1v0.9c0,0.5,0.1,0.8,0.2,1
		s0.3,0.3,0.6,0.3c0.3,0,0.5-0.1,0.6-0.3c0.1-0.2,0.2-0.5,0.2-1L-93.3,460.7L-93.3,460.7z"/>
	<path d="M-89.4,461.4c0,0.6-0.1,1.1-0.3,1.4c-0.2,0.3-0.6,0.5-1,0.5c-0.5,0-0.8-0.2-1-0.5s-0.3-0.8-0.3-1.3v-0.7
		c0-0.6,0.1-1.1,0.3-1.4c0.2-0.3,0.6-0.5,1-0.5c0.5,0,0.8,0.1,1,0.4c0.2,0.3,0.3,0.7,0.3,1.4V461.4z M-89.9,460.7
		c0-0.5-0.1-0.8-0.2-1c-0.1-0.2-0.3-0.3-0.6-0.3c-0.3,0-0.5,0.1-0.6,0.3c-0.1,0.2-0.2,0.5-0.2,1v0.9c0,0.5,0.1,0.8,0.2,1
		s0.3,0.3,0.6,0.3c0.3,0,0.5-0.1,0.6-0.3c0.1-0.2,0.2-0.5,0.2-1L-89.9,460.7L-89.9,460.7z"/>
	<path d="M-88.6,463c0-0.1,0-0.2,0.1-0.2c0.1-0.1,0.1-0.1,0.3-0.1s0.2,0,0.3,0.1c0.1,0.1,0.1,0.1,0.1,0.2c0,0.1,0,0.2-0.1,0.2
		s-0.1,0.1-0.3,0.1s-0.2,0-0.3-0.1C-88.6,463.1-88.6,463-88.6,463z"/>
	<path d="M-84.4,461.4c0,0.6-0.1,1.1-0.3,1.4c-0.2,0.3-0.6,0.5-1,0.5c-0.5,0-0.8-0.2-1-0.5s-0.3-0.8-0.3-1.3v-0.7
		c0-0.6,0.1-1.1,0.3-1.4c0.2-0.3,0.6-0.5,1-0.5c0.5,0,0.8,0.1,1,0.4c0.2,0.3,0.3,0.7,0.3,1.4V461.4z M-85,460.7c0-0.5-0.1-0.8-0.2-1
		c-0.1-0.2-0.3-0.3-0.6-0.3c-0.3,0-0.5,0.1-0.6,0.3c-0.1,0.2-0.2,0.5-0.2,1v0.9c0,0.5,0.1,0.8,0.2,1s0.3,0.3,0.6,0.3
		c0.3,0,0.5-0.1,0.6-0.3c0.1-0.2,0.2-0.5,0.2-1L-85,460.7L-85,460.7z"/>
	<path d="M-81,463.2h-2.8v-0.4l1.5-1.6c0.2-0.2,0.4-0.4,0.5-0.6c0.1-0.2,0.1-0.3,0.1-0.5c0-0.2-0.1-0.4-0.2-0.5
		c-0.1-0.1-0.3-0.2-0.5-0.2c-0.3,0-0.5,0.1-0.6,0.2c-0.1,0.2-0.2,0.4-0.2,0.6h-0.5c0-0.4,0.1-0.7,0.4-0.9s0.6-0.4,1-0.4
		c0.4,0,0.7,0.1,0.9,0.3c0.2,0.2,0.3,0.5,0.3,0.8c0,0.4-0.3,0.9-0.8,1.5l-1.1,1.2h2.1C-81,462.8-81,463.2-81,463.2z"/>
	<path d="M-77.6,463.2h-2.8v-0.4l1.5-1.6c0.2-0.2,0.4-0.4,0.5-0.6c0.1-0.2,0.1-0.3,0.1-0.5c0-0.2-0.1-0.4-0.2-0.5
		c-0.1-0.1-0.3-0.2-0.5-0.2c-0.3,0-0.5,0.1-0.6,0.2c-0.1,0.2-0.2,0.4-0.2,0.6h-0.5c0-0.4,0.1-0.7,0.4-0.9s0.6-0.4,1-0.4
		c0.4,0,0.7,0.1,0.9,0.3c0.2,0.2,0.3,0.5,0.3,0.8c0,0.4-0.3,0.9-0.8,1.5l-1.1,1.2h2.1C-77.6,462.8-77.6,463.2-77.6,463.2z"/>
	<path d="M-77,463c0-0.1,0-0.2,0.1-0.2c0.1-0.1,0.1-0.1,0.3-0.1s0.2,0,0.3,0.1c0.1,0.1,0.1,0.1,0.1,0.2c0,0.1,0,0.2-0.1,0.2
		s-0.1,0.1-0.3,0.1s-0.2,0-0.3-0.1C-76.9,463.1-77,463-77,463z"/>
	<path d="M-72.7,459.3l-1.8,3.9H-75l1.8-3.8h-2.3V459h2.9L-72.7,459.3L-72.7,459.3z"/>
	<path d="M-69.8,461.8h0.6v0.4h-0.6v1h-0.5v-1h-1.9v-0.3l1.9-2.9h0.6V461.8z M-71.7,461.8h1.3v-2.1l-0.1,0.1L-71.7,461.8z"/>
	<path d="M-66.7,461.4c-0.1,0.1-0.2,0.2-0.4,0.3s-0.3,0.1-0.5,0.1c-0.2,0-0.5-0.1-0.6-0.2c-0.2-0.1-0.3-0.3-0.4-0.5
		c-0.1-0.2-0.1-0.5-0.1-0.7c0-0.3,0.1-0.5,0.2-0.8s0.3-0.4,0.5-0.5c0.2-0.1,0.4-0.2,0.7-0.2c0.4,0,0.8,0.2,1,0.5
		c0.2,0.3,0.4,0.7,0.4,1.3v0.2c0,0.8-0.2,1.4-0.5,1.8c-0.3,0.4-0.8,0.6-1.5,0.6h-0.1v-0.5h0.1c0.4,0,0.8-0.1,1-0.3
		C-66.8,462.2-66.7,461.9-66.7,461.4z M-67.5,461.4c0.2,0,0.3-0.1,0.5-0.2c0.2-0.1,0.3-0.2,0.3-0.4v-0.2c0-0.4-0.1-0.6-0.2-0.9
		s-0.3-0.3-0.6-0.3c-0.2,0-0.4,0.1-0.6,0.3s-0.2,0.4-0.2,0.7c0,0.3,0.1,0.5,0.2,0.7C-67.9,461.3-67.7,461.4-67.5,461.4z"/>
</g>
<g>
	<path d="M-54.4,461.5h-1v1.7H-56V459h1.4c0.5,0,0.8,0.1,1.1,0.3c0.3,0.2,0.4,0.5,0.4,1c0,0.3-0.1,0.5-0.2,0.7
		c-0.1,0.2-0.3,0.3-0.6,0.4l1,1.8v0h-0.6L-54.4,461.5z M-55.4,461.1h0.9c0.3,0,0.5-0.1,0.7-0.2c0.2-0.1,0.2-0.3,0.2-0.6
		c0-0.3-0.1-0.5-0.2-0.6c-0.2-0.1-0.4-0.2-0.7-0.2h-0.9V461.1z"/>
	<path d="M-50.3,462.1c0-0.2-0.1-0.3-0.2-0.5c-0.1-0.1-0.3-0.2-0.6-0.3c-0.4-0.1-0.7-0.3-0.9-0.5c-0.2-0.2-0.3-0.5-0.3-0.8
		c0-0.3,0.1-0.6,0.3-0.8c0.2-0.2,0.4-0.3,0.8-0.4v-0.6h0.4v0.6c0.3,0,0.6,0.2,0.8,0.4c0.2,0.2,0.3,0.5,0.3,0.9h-0.5
		c0-0.3-0.1-0.5-0.2-0.7c-0.1-0.2-0.3-0.2-0.5-0.2c-0.2,0-0.4,0.1-0.5,0.2c-0.1,0.1-0.2,0.3-0.2,0.5c0,0.2,0.1,0.4,0.2,0.5
		c0.1,0.1,0.3,0.2,0.6,0.3c0.3,0.1,0.5,0.2,0.7,0.3c0.2,0.1,0.3,0.3,0.4,0.4c0.1,0.2,0.1,0.3,0.1,0.5c0,0.3-0.1,0.6-0.3,0.8
		c-0.2,0.2-0.5,0.3-0.8,0.4v0.6h-0.4v-0.6c-0.4,0-0.6-0.2-0.9-0.4c-0.2-0.2-0.3-0.5-0.3-0.9h0.5c0,0.3,0.1,0.5,0.2,0.6
		c0.1,0.1,0.3,0.2,0.6,0.2c0.3,0,0.5-0.1,0.6-0.2C-50.3,462.5-50.3,462.4-50.3,462.1z"/>
	<path d="M-46.8,461.8h0.6v0.4h-0.6v1h-0.5v-1h-1.9v-0.3l1.9-2.9h0.6L-46.8,461.8L-46.8,461.8z M-48.6,461.8h1.3v-2.1l-0.1,0.1
		L-48.6,461.8z"/>
	<path d="M-45.6,463c0-0.1,0-0.2,0.1-0.2c0.1-0.1,0.1-0.1,0.2-0.1c0.1,0,0.2,0,0.3,0.1c0.1,0.1,0.1,0.1,0.1,0.2c0,0.1,0,0.2-0.1,0.2
		s-0.1,0.1-0.3,0.1c-0.1,0-0.2,0-0.2-0.1C-45.6,463.1-45.6,463-45.6,463z"/>
	<path d="M-43.3,460.8h0.4c0.3,0,0.5-0.1,0.6-0.2c0.1-0.1,0.2-0.3,0.2-0.5c0-0.5-0.2-0.7-0.7-0.7c-0.2,0-0.4,0.1-0.6,0.2
		c-0.1,0.1-0.2,0.3-0.2,0.5h-0.5c0-0.3,0.1-0.6,0.4-0.8c0.2-0.2,0.6-0.3,0.9-0.3c0.4,0,0.7,0.1,0.9,0.3c0.2,0.2,0.3,0.5,0.3,0.9
		c0,0.2-0.1,0.4-0.2,0.5c-0.1,0.2-0.3,0.3-0.5,0.4c0.2,0.1,0.4,0.2,0.5,0.4c0.1,0.2,0.2,0.4,0.2,0.6c0,0.4-0.1,0.7-0.4,0.9
		c-0.2,0.2-0.6,0.3-1,0.3c-0.4,0-0.7-0.1-1-0.3s-0.4-0.5-0.4-0.9h0.5c0,0.2,0.1,0.4,0.2,0.5c0.1,0.1,0.3,0.2,0.6,0.2
		c0.3,0,0.5-0.1,0.6-0.2c0.1-0.1,0.2-0.3,0.2-0.6c0-0.2-0.1-0.4-0.2-0.6c-0.2-0.1-0.4-0.2-0.7-0.2h-0.4L-43.3,460.8L-43.3,460.8z"/>
	<path d="M-38.2,460.1c0,0.2-0.1,0.4-0.2,0.6c-0.1,0.2-0.3,0.3-0.5,0.4c0.2,0.1,0.4,0.2,0.5,0.4c0.1,0.2,0.2,0.4,0.2,0.6
		c0,0.4-0.1,0.7-0.4,0.9c-0.2,0.2-0.6,0.3-1,0.3c-0.4,0-0.7-0.1-1-0.3c-0.2-0.2-0.4-0.5-0.4-0.9c0-0.2,0.1-0.4,0.2-0.6
		s0.3-0.3,0.5-0.4c-0.2-0.1-0.3-0.2-0.4-0.4c-0.1-0.2-0.2-0.4-0.2-0.6c0-0.4,0.1-0.6,0.3-0.9c0.2-0.2,0.5-0.3,0.9-0.3
		c0.4,0,0.7,0.1,0.9,0.3C-38.3,459.5-38.2,459.7-38.2,460.1z M-38.6,462.1c0-0.2-0.1-0.4-0.2-0.6c-0.1-0.1-0.3-0.2-0.6-0.2
		c-0.2,0-0.4,0.1-0.6,0.2c-0.1,0.1-0.2,0.3-0.2,0.6s0.1,0.4,0.2,0.6c0.1,0.1,0.3,0.2,0.6,0.2c0.3,0,0.5-0.1,0.6-0.2
		C-38.7,462.5-38.6,462.3-38.6,462.1z M-39.4,459.4c-0.2,0-0.4,0.1-0.5,0.2c-0.1,0.1-0.2,0.3-0.2,0.5c0,0.2,0.1,0.4,0.2,0.5
		c0.1,0.1,0.3,0.2,0.5,0.2c0.2,0,0.4-0.1,0.5-0.2c0.1-0.1,0.2-0.3,0.2-0.5c0-0.2-0.1-0.4-0.2-0.5C-39.1,459.4-39.2,459.4-39.4,459.4
		z"/>
	<path d="M-35.3,459v0.5h-0.1c-0.4,0-0.8,0.1-1,0.4c-0.3,0.2-0.4,0.6-0.4,1c0.2-0.3,0.5-0.4,0.9-0.4c0.4,0,0.7,0.1,0.9,0.4
		c0.2,0.3,0.3,0.6,0.3,1c0,0.4-0.1,0.8-0.4,1.1c-0.2,0.3-0.6,0.4-1,0.4c-0.4,0-0.7-0.2-1-0.5c-0.3-0.3-0.4-0.7-0.4-1.2v-0.2
		c0-0.8,0.2-1.4,0.5-1.8C-36.5,459.2-36.1,459-35.3,459L-35.3,459L-35.3,459z M-36,460.9c-0.2,0-0.4,0.1-0.5,0.2
		c-0.2,0.1-0.3,0.3-0.3,0.4v0.2c0,0.4,0.1,0.6,0.2,0.8c0.2,0.2,0.4,0.3,0.6,0.3c0.2,0,0.4-0.1,0.6-0.3c0.1-0.2,0.2-0.4,0.2-0.7
		c0-0.3-0.1-0.5-0.2-0.7C-35.6,461-35.8,460.9-36,460.9z"/>
	<path d="M-34,463c0-0.1,0-0.2,0.1-0.2c0.1-0.1,0.1-0.1,0.2-0.1c0.1,0,0.2,0,0.3,0.1c0.1,0.1,0.1,0.1,0.1,0.2c0,0.1,0,0.2-0.1,0.2
		s-0.1,0.1-0.3,0.1c-0.1,0-0.2,0-0.2-0.1C-34,463.1-34,463-34,463z"/>
	<path d="M-29.7,459.3l-1.8,3.9h-0.6l1.8-3.8h-2.3V459h2.9L-29.7,459.3L-29.7,459.3z"/>
	<path d="M-26.5,460.1c0,0.2-0.1,0.4-0.2,0.6c-0.1,0.2-0.3,0.3-0.5,0.4c0.2,0.1,0.4,0.2,0.5,0.4c0.1,0.2,0.2,0.4,0.2,0.6
		c0,0.4-0.1,0.7-0.4,0.9c-0.2,0.2-0.6,0.3-1,0.3c-0.4,0-0.7-0.1-1-0.3c-0.2-0.2-0.4-0.5-0.4-0.9c0-0.2,0.1-0.4,0.2-0.6
		s0.3-0.3,0.5-0.4c-0.2-0.1-0.3-0.2-0.4-0.4c-0.1-0.2-0.2-0.4-0.2-0.6c0-0.4,0.1-0.6,0.3-0.9c0.2-0.2,0.5-0.3,0.9-0.3
		c0.4,0,0.7,0.1,0.9,0.3C-26.7,459.5-26.5,459.7-26.5,460.1z M-27,462.1c0-0.2-0.1-0.4-0.2-0.6c-0.1-0.1-0.3-0.2-0.6-0.2
		c-0.2,0-0.4,0.1-0.6,0.2c-0.1,0.1-0.2,0.3-0.2,0.6s0.1,0.4,0.2,0.6c0.1,0.1,0.3,0.2,0.6,0.2c0.3,0,0.5-0.1,0.6-0.2
		C-27.1,462.5-27,462.3-27,462.1z M-27.8,459.4c-0.2,0-0.4,0.1-0.5,0.2c-0.1,0.1-0.2,0.3-0.2,0.5c0,0.2,0.1,0.4,0.2,0.5
		c0.1,0.1,0.3,0.2,0.5,0.2c0.2,0,0.4-0.1,0.5-0.2c0.1-0.1,0.2-0.3,0.2-0.5c0-0.2-0.1-0.4-0.2-0.5C-27.4,459.4-27.6,459.4-27.8,459.4
		z"/>
	<path d="M-23.2,460.1c0,0.2-0.1,0.4-0.2,0.6c-0.1,0.2-0.3,0.3-0.5,0.4c0.2,0.1,0.4,0.2,0.5,0.4c0.1,0.2,0.2,0.4,0.2,0.6
		c0,0.4-0.1,0.7-0.4,0.9c-0.2,0.2-0.6,0.3-1,0.3c-0.4,0-0.7-0.1-1-0.3c-0.2-0.2-0.4-0.5-0.4-0.9c0-0.2,0.1-0.4,0.2-0.6
		c0.1-0.2,0.3-0.3,0.5-0.4c-0.2-0.1-0.3-0.2-0.4-0.4c-0.1-0.2-0.2-0.4-0.2-0.6c0-0.4,0.1-0.6,0.3-0.9c0.2-0.2,0.5-0.3,0.9-0.3
		c0.4,0,0.7,0.1,0.9,0.3C-23.3,459.5-23.2,459.7-23.2,460.1z M-23.6,462.1c0-0.2-0.1-0.4-0.2-0.6c-0.2-0.1-0.3-0.2-0.6-0.2
		s-0.4,0.1-0.6,0.2c-0.1,0.1-0.2,0.3-0.2,0.6s0.1,0.4,0.2,0.6c0.1,0.1,0.3,0.2,0.6,0.2c0.3,0,0.5-0.1,0.6-0.2
		C-23.7,462.5-23.6,462.3-23.6,462.1z M-24.4,459.4c-0.2,0-0.4,0.1-0.5,0.2c-0.1,0.1-0.2,0.3-0.2,0.5c0,0.2,0.1,0.4,0.2,0.5
		c0.1,0.1,0.3,0.2,0.5,0.2s0.4-0.1,0.5-0.2c0.1-0.1,0.2-0.3,0.2-0.5c0-0.2-0.1-0.4-0.2-0.5C-24.1,459.4-24.2,459.4-24.4,459.4z"/>
	<path d="M-22.3,463c0-0.1,0-0.2,0.1-0.2c0.1-0.1,0.1-0.1,0.2-0.1c0.1,0,0.2,0,0.3,0.1c0.1,0.1,0.1,0.1,0.1,0.2c0,0.1,0,0.2-0.1,0.2
		s-0.1,0.1-0.3,0.1c-0.1,0-0.2,0-0.2-0.1C-22.3,463.1-22.3,463-22.3,463z"/>
	<path d="M-20.1,460.8h0.4c0.3,0,0.5-0.1,0.6-0.2c0.1-0.1,0.2-0.3,0.2-0.5c0-0.5-0.2-0.7-0.7-0.7c-0.2,0-0.4,0.1-0.6,0.2
		c-0.1,0.1-0.2,0.3-0.2,0.5h-0.5c0-0.3,0.1-0.6,0.4-0.8c0.2-0.2,0.6-0.3,0.9-0.3c0.4,0,0.7,0.1,0.9,0.3c0.2,0.2,0.3,0.5,0.3,0.9
		c0,0.2-0.1,0.4-0.2,0.5c-0.1,0.2-0.3,0.3-0.5,0.4c0.2,0.1,0.4,0.2,0.5,0.4c0.1,0.2,0.2,0.4,0.2,0.6c0,0.4-0.1,0.7-0.4,0.9
		c-0.3,0.2-0.6,0.3-1,0.3s-0.7-0.1-1-0.3c-0.3-0.2-0.4-0.5-0.4-0.9h0.5c0,0.2,0.1,0.4,0.2,0.5c0.1,0.1,0.3,0.2,0.6,0.2
		c0.3,0,0.5-0.1,0.6-0.2c0.1-0.1,0.2-0.3,0.2-0.6c0-0.2-0.1-0.4-0.2-0.6c-0.2-0.1-0.4-0.2-0.7-0.2h-0.4L-20.1,460.8L-20.1,460.8z"/>
	<path d="M-17.2,461.1l0.2-2.1h2.2v0.5h-1.7l-0.1,1.2c0.2-0.1,0.4-0.2,0.7-0.2c0.4,0,0.7,0.1,0.9,0.4c0.2,0.3,0.3,0.6,0.3,1
		c0,0.4-0.1,0.8-0.4,1c-0.2,0.3-0.6,0.4-1,0.4c-0.4,0-0.7-0.1-0.9-0.3c-0.2-0.2-0.4-0.5-0.4-0.9h0.5c0,0.2,0.1,0.4,0.3,0.5
		c0.1,0.1,0.3,0.2,0.6,0.2c0.3,0,0.4-0.1,0.6-0.3c0.1-0.2,0.2-0.4,0.2-0.7c0-0.3-0.1-0.5-0.2-0.7c-0.2-0.2-0.4-0.3-0.6-0.3
		c-0.2,0-0.4,0.1-0.6,0.2l-0.1,0.1L-17.2,461.1z"/>
	<path d="M-11.8,461.8h0.6v0.4h-0.6v1h-0.5v-1h-1.9v-0.3l1.9-2.9h0.6L-11.8,461.8L-11.8,461.8z M-13.7,461.8h1.3v-2.1l-0.1,0.1
		L-13.7,461.8z"/>
</g>
<g>
	<path d="M-0.1,461.5h-1v1.7h-0.6V459h1.4c0.5,0,0.8,0.1,1.1,0.3c0.3,0.2,0.4,0.5,0.4,1c0,0.3-0.1,0.5-0.2,0.7
		c-0.1,0.2-0.3,0.3-0.6,0.4l1,1.8v0H0.9L-0.1,461.5z M-1.1,461.1h0.9c0.3,0,0.5-0.1,0.7-0.2c0.2-0.1,0.2-0.3,0.2-0.6
		c0-0.3-0.1-0.5-0.2-0.6c-0.2-0.1-0.4-0.2-0.7-0.2h-0.9V461.1z"/>
	<path d="M4.1,462.1c0-0.2-0.1-0.3-0.2-0.5c-0.1-0.1-0.3-0.2-0.6-0.3c-0.4-0.1-0.7-0.3-0.9-0.5c-0.2-0.2-0.3-0.5-0.3-0.8
		c0-0.3,0.1-0.6,0.3-0.8c0.2-0.2,0.4-0.3,0.8-0.4v-0.6h0.4v0.6c0.3,0,0.6,0.2,0.8,0.4c0.2,0.2,0.3,0.5,0.3,0.9H4
		c0-0.3-0.1-0.5-0.2-0.7c-0.1-0.2-0.3-0.2-0.5-0.2c-0.2,0-0.4,0.1-0.5,0.2c-0.1,0.1-0.2,0.3-0.2,0.5c0,0.2,0.1,0.4,0.2,0.5
		c0.1,0.1,0.3,0.2,0.6,0.3c0.3,0.1,0.5,0.2,0.7,0.3c0.2,0.1,0.3,0.3,0.4,0.4c0.1,0.2,0.1,0.3,0.1,0.5c0,0.3-0.1,0.6-0.3,0.8
		c-0.2,0.2-0.5,0.3-0.8,0.4v0.6H3v-0.6c-0.4,0-0.6-0.2-0.9-0.4c-0.2-0.2-0.3-0.5-0.3-0.9h0.5c0,0.3,0.1,0.5,0.2,0.6
		c0.1,0.1,0.3,0.2,0.6,0.2c0.3,0,0.5-0.1,0.6-0.2C4,462.5,4.1,462.4,4.1,462.1z"/>
	<path d="M6.1,460.8h0.4c0.3,0,0.5-0.1,0.6-0.2c0.1-0.1,0.2-0.3,0.2-0.5c0-0.5-0.2-0.7-0.7-0.7c-0.2,0-0.4,0.1-0.6,0.2
		c-0.1,0.1-0.2,0.3-0.2,0.5H5.2c0-0.3,0.1-0.6,0.4-0.8c0.2-0.2,0.6-0.3,0.9-0.3c0.4,0,0.7,0.1,0.9,0.3c0.2,0.2,0.3,0.5,0.3,0.9
		c0,0.2-0.1,0.4-0.2,0.5c-0.1,0.2-0.3,0.3-0.5,0.4c0.2,0.1,0.4,0.2,0.5,0.4c0.1,0.2,0.2,0.4,0.2,0.6c0,0.4-0.1,0.7-0.4,0.9
		c-0.3,0.2-0.6,0.3-1,0.3s-0.7-0.1-1-0.3c-0.3-0.2-0.4-0.5-0.4-0.9h0.5c0,0.2,0.1,0.4,0.2,0.5c0.1,0.1,0.3,0.2,0.6,0.2
		c0.3,0,0.5-0.1,0.6-0.2c0.1-0.1,0.2-0.3,0.2-0.6c0-0.2-0.1-0.4-0.2-0.6c-0.2-0.1-0.4-0.2-0.7-0.2H6.1L6.1,460.8L6.1,460.8z"/>
	<path d="M11.4,463.2H8.6v-0.4l1.5-1.6c0.2-0.2,0.4-0.4,0.5-0.6c0.1-0.2,0.1-0.3,0.1-0.5c0-0.2-0.1-0.4-0.2-0.5
		c-0.1-0.1-0.3-0.2-0.5-0.2c-0.3,0-0.5,0.1-0.6,0.2c-0.1,0.2-0.2,0.4-0.2,0.6H8.5c0-0.4,0.1-0.7,0.4-0.9s0.6-0.4,1-0.4
		c0.4,0,0.7,0.1,0.9,0.3s0.3,0.5,0.3,0.8c0,0.4-0.3,0.9-0.8,1.5l-1.1,1.2h2.1L11.4,463.2L11.4,463.2z"/>
	<path d="M12.1,463c0-0.1,0-0.2,0.1-0.2c0.1-0.1,0.1-0.1,0.2-0.1c0.1,0,0.2,0,0.3,0.1c0.1,0.1,0.1,0.1,0.1,0.2c0,0.1,0,0.2-0.1,0.2
		s-0.1,0.1-0.3,0.1c-0.1,0-0.2,0-0.2-0.1C12.1,463.1,12.1,463,12.1,463z"/>
	<path d="M13.8,461.1L14,459h2.2v0.5h-1.7l-0.1,1.2c0.2-0.1,0.4-0.2,0.7-0.2c0.4,0,0.7,0.1,0.9,0.4c0.2,0.3,0.3,0.6,0.3,1
		c0,0.4-0.1,0.8-0.4,1c-0.2,0.3-0.6,0.4-1,0.4c-0.4,0-0.7-0.1-0.9-0.3c-0.2-0.2-0.4-0.5-0.4-0.9h0.5c0,0.2,0.1,0.4,0.3,0.5
		c0.1,0.1,0.3,0.2,0.6,0.2c0.3,0,0.4-0.1,0.6-0.3c0.1-0.2,0.2-0.4,0.2-0.7c0-0.3-0.1-0.5-0.2-0.7c-0.2-0.2-0.4-0.3-0.6-0.3
		c-0.2,0-0.4,0.1-0.6,0.2l-0.1,0.1L13.8,461.1z"/>
	<path d="M19.5,460.1c0,0.2-0.1,0.4-0.2,0.6c-0.1,0.2-0.3,0.3-0.5,0.4c0.2,0.1,0.4,0.2,0.5,0.4c0.1,0.2,0.2,0.4,0.2,0.6
		c0,0.4-0.1,0.7-0.4,0.9c-0.2,0.2-0.6,0.3-1,0.3c-0.4,0-0.7-0.1-1-0.3c-0.2-0.2-0.4-0.5-0.4-0.9c0-0.2,0.1-0.4,0.2-0.6
		s0.3-0.3,0.5-0.4c-0.2-0.1-0.3-0.2-0.4-0.4c-0.1-0.2-0.2-0.4-0.2-0.6c0-0.4,0.1-0.6,0.3-0.9c0.2-0.2,0.5-0.3,0.9-0.3
		c0.4,0,0.7,0.1,0.9,0.3C19.4,459.5,19.5,459.7,19.5,460.1z M19.1,462.1c0-0.2-0.1-0.4-0.2-0.6c-0.1-0.1-0.3-0.2-0.6-0.2
		c-0.2,0-0.4,0.1-0.6,0.2c-0.1,0.1-0.2,0.3-0.2,0.6s0.1,0.4,0.2,0.6c0.1,0.1,0.3,0.2,0.6,0.2c0.3,0,0.5-0.1,0.6-0.2
		C19,462.5,19.1,462.3,19.1,462.1z M18.2,459.4c-0.2,0-0.4,0.1-0.5,0.2c-0.1,0.1-0.2,0.3-0.2,0.5c0,0.2,0.1,0.4,0.2,0.5
		c0.1,0.1,0.3,0.2,0.5,0.2c0.2,0,0.4-0.1,0.5-0.2c0.1-0.1,0.2-0.3,0.2-0.5c0-0.2-0.1-0.4-0.2-0.5C18.6,459.4,18.5,459.4,18.2,459.4z
		"/>
	<path d="M22.4,459v0.5h-0.1c-0.4,0-0.8,0.1-1,0.4c-0.2,0.2-0.4,0.6-0.4,1c0.2-0.3,0.5-0.4,0.9-0.4c0.4,0,0.7,0.1,0.9,0.4
		c0.2,0.3,0.3,0.6,0.3,1c0,0.4-0.1,0.8-0.4,1.1s-0.6,0.4-1,0.4c-0.4,0-0.7-0.2-1-0.5c-0.3-0.3-0.4-0.7-0.4-1.2v-0.2
		c0-0.8,0.2-1.4,0.5-1.8C21.1,459.2,21.6,459,22.4,459L22.4,459L22.4,459z M21.7,460.9c-0.2,0-0.4,0.1-0.5,0.2
		c-0.2,0.1-0.3,0.3-0.3,0.4v0.2c0,0.4,0.1,0.6,0.2,0.8c0.2,0.2,0.4,0.3,0.6,0.3c0.2,0,0.4-0.1,0.6-0.3c0.1-0.2,0.2-0.4,0.2-0.7
		c0-0.3-0.1-0.5-0.2-0.7C22.1,461,21.9,460.9,21.7,460.9z"/>
	<path d="M23.7,463c0-0.1,0-0.2,0.1-0.2c0.1-0.1,0.1-0.1,0.2-0.1c0.1,0,0.2,0,0.3,0.1c0.1,0.1,0.1,0.1,0.1,0.2c0,0.1,0,0.2-0.1,0.2
		s-0.1,0.1-0.3,0.1c-0.1,0-0.2,0-0.2-0.1C23.7,463.1,23.7,463,23.7,463z"/>
	<path d="M27.9,461.4c0,0.6-0.1,1.1-0.3,1.4s-0.6,0.5-1,0.5c-0.5,0-0.8-0.2-1-0.5s-0.3-0.8-0.3-1.3v-0.7c0-0.6,0.1-1.1,0.3-1.4
		c0.2-0.3,0.6-0.5,1-0.5c0.5,0,0.8,0.1,1,0.4c0.2,0.3,0.3,0.7,0.3,1.4L27.9,461.4L27.9,461.4z M27.3,460.7c0-0.5-0.1-0.8-0.2-1
		c-0.1-0.2-0.3-0.3-0.6-0.3c-0.3,0-0.5,0.1-0.6,0.3c-0.1,0.2-0.2,0.5-0.2,1v0.9c0,0.5,0.1,0.8,0.2,1c0.1,0.2,0.3,0.3,0.6,0.3
		c0.3,0,0.5-0.1,0.6-0.3c0.1-0.2,0.2-0.5,0.2-1L27.3,460.7L27.3,460.7z"/>
	<path d="M30.6,461.4c-0.1,0.1-0.2,0.2-0.4,0.3c-0.2,0.1-0.3,0.1-0.5,0.1c-0.2,0-0.5-0.1-0.6-0.2c-0.2-0.1-0.3-0.3-0.4-0.5
		c-0.1-0.2-0.1-0.5-0.1-0.7c0-0.3,0.1-0.5,0.2-0.8c0.1-0.2,0.3-0.4,0.5-0.5c0.2-0.1,0.4-0.2,0.7-0.2c0.4,0,0.8,0.2,1,0.5
		c0.2,0.3,0.4,0.7,0.4,1.3v0.2c0,0.8-0.2,1.4-0.5,1.8c-0.3,0.4-0.8,0.6-1.5,0.6h-0.1v-0.5h0.1c0.4,0,0.8-0.1,1-0.3
		C30.5,462.2,30.6,461.9,30.6,461.4z M29.8,461.4c0.2,0,0.3-0.1,0.5-0.2c0.2-0.1,0.3-0.2,0.3-0.4v-0.2c0-0.4-0.1-0.6-0.2-0.9
		c-0.2-0.2-0.3-0.3-0.6-0.3c-0.2,0-0.4,0.1-0.6,0.3c-0.1,0.2-0.2,0.4-0.2,0.7c0,0.3,0.1,0.5,0.2,0.7
		C29.4,461.3,29.6,461.4,29.8,461.4z"/>
	<path d="M34,459v0.5h-0.1c-0.4,0-0.8,0.1-1,0.4c-0.2,0.2-0.4,0.6-0.4,1c0.2-0.3,0.5-0.4,0.9-0.4c0.4,0,0.7,0.1,0.9,0.4
		c0.2,0.3,0.3,0.6,0.3,1c0,0.4-0.1,0.8-0.4,1.1s-0.6,0.4-1,0.4c-0.4,0-0.7-0.2-1-0.5c-0.3-0.3-0.4-0.7-0.4-1.2v-0.2
		c0-0.8,0.2-1.4,0.5-1.8C32.8,459.2,33.3,459,34,459L34,459L34,459z M33.3,460.9c-0.2,0-0.4,0.1-0.5,0.2c-0.2,0.1-0.3,0.3-0.3,0.4
		v0.2c0,0.4,0.1,0.6,0.2,0.8c0.2,0.2,0.4,0.3,0.6,0.3c0.2,0,0.4-0.1,0.6-0.3c0.1-0.2,0.2-0.4,0.2-0.7c0-0.3-0.1-0.5-0.2-0.7
		C33.8,461,33.6,460.9,33.3,460.9z"/>
	<path d="M35.4,463c0-0.1,0-0.2,0.1-0.2s0.1-0.1,0.3-0.1c0.1,0,0.2,0,0.3,0.1c0.1,0.1,0.1,0.1,0.1,0.2c0,0.1,0,0.2-0.1,0.2
		c-0.1,0.1-0.1,0.1-0.3,0.1c-0.1,0-0.2,0-0.3-0.1S35.4,463,35.4,463z"/>
	<path d="M39.6,459.3l-1.8,3.9h-0.6l1.8-3.8h-2.3V459h2.9V459.3z"/>
	<path d="M42.3,459v0.5h-0.1c-0.4,0-0.8,0.1-1,0.4c-0.2,0.2-0.4,0.6-0.4,1c0.2-0.3,0.5-0.4,0.9-0.4c0.4,0,0.7,0.1,0.9,0.4
		c0.2,0.3,0.3,0.6,0.3,1c0,0.4-0.1,0.8-0.4,1.1s-0.6,0.4-1,0.4c-0.4,0-0.7-0.2-1-0.5c-0.3-0.3-0.4-0.7-0.4-1.2v-0.2
		c0-0.8,0.2-1.4,0.5-1.8C41.1,459.2,41.6,459,42.3,459L42.3,459L42.3,459z M41.6,460.9c-0.2,0-0.4,0.1-0.5,0.2
		c-0.2,0.1-0.3,0.3-0.3,0.4v0.2c0,0.4,0.1,0.6,0.2,0.8c0.2,0.2,0.4,0.3,0.6,0.3c0.2,0,0.4-0.1,0.6-0.3c0.1-0.2,0.2-0.4,0.2-0.7
		c0-0.3-0.1-0.5-0.2-0.7C42,461,41.9,460.9,41.6,460.9z"/>
	<path d="M44.4,460.8h0.4c0.3,0,0.5-0.1,0.6-0.2c0.1-0.1,0.2-0.3,0.2-0.5c0-0.5-0.2-0.7-0.7-0.7c-0.2,0-0.4,0.1-0.6,0.2
		c-0.1,0.1-0.2,0.3-0.2,0.5h-0.5c0-0.3,0.1-0.6,0.4-0.8c0.2-0.2,0.6-0.3,0.9-0.3c0.4,0,0.7,0.1,0.9,0.3c0.2,0.2,0.3,0.5,0.3,0.9
		c0,0.2-0.1,0.4-0.2,0.5c-0.1,0.2-0.3,0.3-0.5,0.4c0.2,0.1,0.4,0.2,0.5,0.4c0.1,0.2,0.2,0.4,0.2,0.6c0,0.4-0.1,0.7-0.4,0.9
		c-0.2,0.2-0.6,0.3-1,0.3c-0.4,0-0.7-0.1-1-0.3s-0.4-0.5-0.4-0.9H44c0,0.2,0.1,0.4,0.2,0.5c0.1,0.1,0.3,0.2,0.6,0.2
		c0.3,0,0.5-0.1,0.6-0.2c0.1-0.1,0.2-0.3,0.2-0.6c0-0.2-0.1-0.4-0.2-0.6c-0.2-0.1-0.4-0.2-0.7-0.2h-0.4L44.4,460.8L44.4,460.8z"/>
</g>
</svg>
