<?xml version="1.0" encoding="utf-8"?>
<!-- Generator: Adobe Illustrator 18.1.1, SVG Export Plug-In . SVG Version: 6.00 Build 0)  -->
<svg version="1.1" id="Camada_1" xmlns="http://www.w3.org/2000/svg" xmlns:xlink="http://www.w3.org/1999/xlink" x="0px" y="0px"
	 viewBox="-195 313.4 205 215.5" enable-background="new -195 313.4 205 215.5" xml:space="preserve">
<g>
	<g>
		<path fill="#4D4D4D" d="M-166.3,442.9v5c0,0.8-0.2,1.5-0.7,1.9c-0.5,0.5-1.1,0.7-1.9,0.7c-0.8,0-1.4-0.2-1.8-0.7
			c-0.5-0.5-0.7-1.1-0.7-1.9v-5h0.6v5c0,0.6,0.2,1.2,0.6,1.5c0.4,0.4,0.8,0.6,1.4,0.6c0.6,0,1.1-0.2,1.4-0.6
			c0.4-0.4,0.6-0.9,0.6-1.5v-5C-166.9,442.9-166.3,442.9-166.3,442.9z"/>
		<path fill="#4D4D4D" d="M-163.9,447.3v3.1h-0.6v-7.5h2.5c0.8,0,1.3,0.2,1.8,0.6c0.4,0.4,0.6,0.9,0.6,1.6c0,0.7-0.2,1.2-0.6,1.6
			c-0.4,0.4-1,0.6-1.8,0.6L-163.9,447.3L-163.9,447.3z M-163.9,446.8h1.9c0.6,0,1-0.2,1.3-0.5c0.3-0.3,0.4-0.7,0.4-1.2
			c0-0.5-0.1-0.9-0.4-1.2c-0.3-0.3-0.7-0.5-1.3-0.5h-1.9C-163.9,443.5-163.9,446.8-163.9,446.8z"/>
		<path fill="#4D4D4D" d="M-154.4,446.9h-3.3v3.5h-0.6v-7.5h4.4v0.5h-3.8v2.9h3.3L-154.4,446.9L-154.4,446.9z"/>
		<path fill="#4D4D4D" d="M-149.7,449c0-0.3-0.1-0.5-0.3-0.7c-0.2-0.2-0.6-0.4-1.1-0.5c-0.6-0.1-1.1-0.3-1.4-0.6
			c-0.3-0.2-0.5-0.6-0.5-1c0-0.4,0.2-0.8,0.5-1.1c0.3-0.3,0.8-0.4,1.4-0.4c0.6,0,1.1,0.2,1.4,0.5c0.4,0.3,0.5,0.7,0.5,1.2l0,0h-0.5
			c0-0.3-0.1-0.6-0.4-0.8c-0.3-0.2-0.6-0.3-1-0.3c-0.4,0-0.8,0.1-1,0.3c-0.2,0.2-0.3,0.4-0.3,0.7c0,0.3,0.1,0.5,0.3,0.6
			c0.2,0.2,0.6,0.3,1.1,0.4c0.6,0.1,1.1,0.3,1.4,0.6c0.3,0.3,0.5,0.6,0.5,1c0,0.5-0.2,0.8-0.5,1.1c-0.4,0.3-0.8,0.4-1.4,0.4
			c-0.6,0-1.2-0.2-1.5-0.5c-0.4-0.3-0.5-0.7-0.5-1.1l0,0h0.5c0,0.4,0.2,0.7,0.5,0.9c0.3,0.2,0.6,0.3,1,0.3c0.4,0,0.8-0.1,1-0.3
			C-149.8,449.5-149.7,449.3-149.7,449z"/>
	</g>
	<g>
		<g>
			<polygon fill="#274391" points="-165.8,483 -182,505.1 -172.6,503.3 -167.5,510 -157.7,485.4 			"/>
			<polygon fill="#274391" points="-154.6,483 -138.5,505.1 -147.8,503.3 -153,510 -162.8,485.4 			"/>
			<g>
				<g>
					<path fill="#FFFFFF" stroke="#DD9A28" stroke-width="2" d="M-142.1,477.7c-0.4,9.8-8.7,17.4-18.5,17c-9.8-0.4-17.4-8.7-17-18.5
						c0.4-9.8,8.7-17.4,18.5-17C-149.3,459.7-141.7,467.9-142.1,477.7z"/>
				</g>
			</g>
		</g>
	</g>
</g>
<g>
	<g>
		<path fill="#4D4D4D" d="M-97.7,447.3c0,1-0.3,1.7-0.8,2.3s-1.2,0.9-2,0.9c-0.8,0-1.5-0.3-2-0.9c-0.5-0.6-0.8-1.4-0.8-2.3v-1.2
			c0-1,0.3-1.7,0.8-2.3c0.5-0.6,1.2-0.9,2-0.9c0.9,0,1.5,0.3,2.1,0.9c0.5,0.6,0.8,1.4,0.8,2.3C-97.7,446.1-97.7,447.3-97.7,447.3z
			 M-98.3,446.1c0-0.8-0.2-1.5-0.6-1.9s-0.9-0.7-1.6-0.7c-0.7,0-1.2,0.2-1.6,0.7s-0.6,1.1-0.6,1.9v1.2c0,0.8,0.2,1.5,0.6,2
			c0.4,0.5,0.9,0.7,1.6,0.7c0.7,0,1.2-0.2,1.6-0.7c0.4-0.5,0.6-1.1,0.6-2C-98.3,447.3-98.3,446.1-98.3,446.1z"/>
		<path fill="#4D4D4D" d="M-92.1,448.6c0-0.4-0.1-0.7-0.4-0.9c-0.3-0.2-0.8-0.5-1.5-0.7c-0.8-0.2-1.4-0.5-1.8-0.8
			c-0.4-0.3-0.6-0.8-0.6-1.3c0-0.6,0.2-1,0.7-1.4s1-0.6,1.7-0.6c0.7,0,1.3,0.2,1.8,0.6c0.4,0.4,0.7,0.9,0.6,1.6l0,0h-0.6
			c0-0.5-0.2-0.9-0.5-1.2c-0.3-0.3-0.8-0.5-1.3-0.5c-0.6,0-1,0.1-1.3,0.4c-0.3,0.3-0.5,0.6-0.5,1c0,0.4,0.1,0.7,0.4,0.9
			s0.8,0.5,1.5,0.7c0.8,0.2,1.3,0.5,1.7,0.8c0.4,0.3,0.6,0.8,0.6,1.3c0,0.6-0.2,1-0.7,1.4s-1.1,0.5-1.8,0.5s-1.3-0.2-1.9-0.6
			c-0.5-0.4-0.8-0.9-0.8-1.6l0,0h0.5c0,0.6,0.2,1,0.6,1.3c0.4,0.3,0.9,0.4,1.4,0.4c0.6,0,1-0.1,1.3-0.4
			C-92.3,449.3-92.1,449-92.1,448.6z"/>
		<path fill="#4D4D4D" d="M-85.1,448.1L-85.1,448.1c0,0.8-0.2,1.3-0.7,1.8c-0.5,0.4-1.1,0.7-1.9,0.7c-0.8,0-1.4-0.3-1.9-0.9
			c-0.5-0.6-0.7-1.4-0.7-2.3v-1.2c0-1,0.2-1.7,0.7-2.3c0.5-0.6,1.1-0.9,1.9-0.9c0.8,0,1.4,0.2,1.9,0.6c0.5,0.4,0.7,1,0.7,1.8l0,0
			h-0.6c0-0.6-0.2-1.1-0.5-1.4c-0.4-0.3-0.8-0.5-1.5-0.5c-0.6,0-1.1,0.3-1.5,0.8c-0.4,0.5-0.6,1.2-0.6,1.9v1.2c0,0.8,0.2,1.5,0.6,2
			c0.4,0.5,0.9,0.8,1.5,0.8c0.6,0,1.1-0.2,1.5-0.5c0.4-0.3,0.5-0.8,0.5-1.4L-85.1,448.1L-85.1,448.1z"/>
		<path fill="#4D4D4D" d="M-82.9,450.4h-0.6v-7.5h0.6V450.4z"/>
		<path fill="#4D4D4D" d="M-80.3,447.3v3.1h-0.6v-7.5h2.5c0.8,0,1.3,0.2,1.8,0.6c0.4,0.4,0.6,0.9,0.6,1.6c0,0.7-0.2,1.2-0.6,1.6
			c-0.4,0.4-1,0.6-1.8,0.6L-80.3,447.3L-80.3,447.3z M-80.3,446.8h1.9c0.6,0,1-0.2,1.3-0.5c0.3-0.3,0.4-0.7,0.4-1.2
			c0-0.5-0.1-0.9-0.4-1.2c-0.3-0.3-0.7-0.5-1.3-0.5h-1.9V446.8z"/>
		<path fill="#4D4D4D" d="M-71.6,449c0-0.3-0.1-0.5-0.3-0.7c-0.2-0.2-0.6-0.4-1.1-0.5c-0.6-0.1-1.1-0.3-1.4-0.6
			c-0.3-0.2-0.5-0.6-0.5-1c0-0.4,0.2-0.8,0.5-1.1c0.3-0.3,0.8-0.4,1.4-0.4c0.6,0,1.1,0.2,1.4,0.5c0.4,0.3,0.5,0.7,0.5,1.2l0,0h-0.5
			c0-0.3-0.1-0.6-0.4-0.8c-0.3-0.2-0.6-0.3-1-0.3c-0.4,0-0.8,0.1-1,0.3c-0.2,0.2-0.3,0.4-0.3,0.7c0,0.3,0.1,0.5,0.3,0.6
			c0.2,0.2,0.6,0.3,1.1,0.4c0.6,0.1,1.1,0.3,1.4,0.6c0.3,0.3,0.5,0.6,0.5,1c0,0.5-0.2,0.8-0.5,1.1c-0.4,0.3-0.8,0.4-1.4,0.4
			c-0.6,0-1.2-0.2-1.5-0.5c-0.4-0.3-0.5-0.7-0.5-1.1l0,0h0.5c0,0.4,0.2,0.7,0.5,0.9c0.3,0.2,0.6,0.3,1,0.3c0.4,0,0.8-0.1,1-0.3
			C-71.7,449.5-71.6,449.3-71.6,449z"/>
	</g>
	<g>
		<g>
			<polygon fill="#F6D448" points="-92.8,483 -108.9,505.1 -99.6,503.3 -94.4,510 -84.6,485.4 			"/>
			<polygon fill="#F6D448" points="-81.6,483 -65.4,505.1 -74.8,503.3 -79.9,510 -89.7,485.4 			"/>
			<g>
				<g>
					<path fill="#FFFFFF" stroke="#DD9A28" stroke-width="2" d="M-69,477.7c-0.4,9.8-8.7,17.4-18.5,17c-9.8-0.4-17.4-8.7-17-18.5
						c0.4-9.8,8.7-17.4,18.5-17C-76.2,459.7-68.6,467.9-69,477.7z"/>
				</g>
			</g>
		</g>
	</g>
</g>
<g>
	<g>
		<g>
			<path fill="#4D4D4D" d="M-29.4,325.6L-29.4,325.6c0,0.8-0.2,1.3-0.7,1.8c-0.5,0.4-1.1,0.7-1.9,0.7c-0.8,0-1.4-0.3-1.9-0.9
				c-0.5-0.6-0.7-1.4-0.7-2.3v-1.2c0-0.9,0.2-1.7,0.7-2.3c0.5-0.6,1.1-0.9,1.9-0.9c0.8,0,1.4,0.2,1.9,0.6c0.5,0.4,0.7,1,0.7,1.8l0,0
				h-0.6c0-0.6-0.2-1.1-0.5-1.4c-0.4-0.3-0.8-0.5-1.5-0.5c-0.6,0-1.1,0.3-1.5,0.8c-0.4,0.5-0.6,1.2-0.6,1.9v1.2c0,0.8,0.2,1.5,0.6,2
				c0.4,0.5,0.9,0.8,1.5,0.8c0.6,0,1.1-0.2,1.5-0.5c0.4-0.3,0.5-0.8,0.5-1.4L-29.4,325.6L-29.4,325.6z"/>
			<path fill="#4D4D4D" d="M-24,324.3h-3.2v3.1h3.7v0.5h-4.3v-7.5h4.3v0.5h-3.7v2.8h3.2V324.3z"/>
			<path fill="#4D4D4D" d="M-22.3,328v-7.5h2.1c0.7,0,1.3,0.2,1.7,0.5c0.4,0.3,0.6,0.8,0.6,1.5c0,0.4-0.1,0.7-0.3,1
				c-0.2,0.3-0.5,0.5-0.8,0.6c0.5,0.1,0.8,0.3,1.1,0.6c0.3,0.4,0.4,0.8,0.4,1.2c0,0.7-0.2,1.2-0.6,1.5c-0.4,0.4-1,0.5-1.7,0.5
				C-19.7,328-22.3,328-22.3,328z M-21.7,323.8h1.7c0.5,0,0.9-0.1,1.2-0.4c0.3-0.2,0.4-0.6,0.4-1c0-0.5-0.2-0.8-0.5-1.1
				c-0.3-0.2-0.7-0.4-1.3-0.4h-1.5L-21.7,323.8L-21.7,323.8z M-21.7,324.4v3.1h2c0.5,0,0.9-0.1,1.3-0.4c0.3-0.3,0.5-0.7,0.5-1.1
				c0-0.4-0.1-0.8-0.4-1.1c-0.3-0.3-0.7-0.4-1.2-0.4h-0.1C-19.7,324.4-21.7,324.4-21.7,324.4z"/>
			<path fill="#4D4D4D" d="M-12.3,325.9h-3.2l-0.7,2.1h-0.6l2.6-7.5h0.6l2.6,7.5h-0.6L-12.3,325.9z M-15.3,325.3h2.8l-1.4-4h0
				L-15.3,325.3z"/>
			<path fill="#4D4D4D" d="M-5.8,326.1c0-0.4-0.1-0.7-0.4-0.9c-0.3-0.2-0.8-0.5-1.5-0.7c-0.8-0.2-1.4-0.5-1.8-0.8
				c-0.4-0.3-0.6-0.8-0.6-1.3c0-0.6,0.2-1,0.7-1.4s1-0.6,1.7-0.6c0.7,0,1.3,0.2,1.8,0.6c0.4,0.4,0.7,0.9,0.6,1.6l0,0h-0.6
				c0-0.5-0.2-0.9-0.5-1.2c-0.3-0.3-0.8-0.5-1.3-0.5c-0.6,0-1,0.1-1.3,0.4c-0.3,0.3-0.5,0.6-0.5,1c0,0.4,0.1,0.7,0.4,0.9
				s0.8,0.5,1.5,0.7c0.8,0.2,1.3,0.5,1.7,0.8c0.4,0.3,0.6,0.8,0.6,1.3c0,0.6-0.2,1-0.7,1.4s-1.1,0.5-1.8,0.5s-1.3-0.2-1.9-0.6
				c-0.5-0.4-0.8-0.9-0.8-1.6l0,0h0.5c0,0.6,0.2,1,0.6,1.3c0.4,0.3,0.9,0.4,1.4,0.4c0.6,0,1-0.1,1.3-0.4
				C-6,326.9-5.8,326.6-5.8,326.1z"/>
			<path fill="#4D4D4D" d="M-26.4,339.7L-26.4,339.7l2.7-6.6h0.7v7.5h-0.6v-6.3l0,0l-2.6,6.3h-0.4l-2.6-6.4l0,0v6.4h-0.6v-7.5h0.8
				L-26.4,339.7z"/>
			<path fill="#4D4D4D" d="M-21.1,340.6v-7.5h2.2c0.9,0,1.6,0.3,2.2,0.9c0.6,0.6,0.9,1.4,0.9,2.3v1c0,1-0.3,1.7-0.9,2.3
				c-0.6,0.6-1.3,0.9-2.2,0.9H-21.1z M-20.5,333.6v6.4h1.6c0.7,0,1.3-0.3,1.8-0.8c0.5-0.5,0.7-1.2,0.7-2v-1c0-0.8-0.2-1.4-0.7-1.9
				c-0.5-0.5-1-0.8-1.8-0.8L-20.5,333.6L-20.5,333.6z"/>
			<path fill="#4D4D4D" d="M-10.3,338.7c0-0.4-0.1-0.7-0.4-0.9c-0.3-0.2-0.8-0.5-1.5-0.7c-0.8-0.2-1.4-0.5-1.8-0.8
				c-0.4-0.3-0.6-0.8-0.6-1.3c0-0.6,0.2-1,0.7-1.4s1-0.6,1.7-0.6c0.7,0,1.3,0.2,1.8,0.6c0.4,0.4,0.7,0.9,0.6,1.6l0,0h-0.6
				c0-0.5-0.2-0.9-0.5-1.2c-0.3-0.3-0.8-0.5-1.3-0.5c-0.6,0-1,0.1-1.3,0.4c-0.3,0.3-0.5,0.6-0.5,1c0,0.4,0.1,0.7,0.4,0.9
				c0.3,0.2,0.8,0.5,1.5,0.7c0.8,0.2,1.3,0.5,1.7,0.8s0.6,0.8,0.6,1.3c0,0.6-0.2,1-0.7,1.4s-1.1,0.5-1.8,0.5s-1.3-0.2-1.9-0.6
				c-0.5-0.4-0.8-0.9-0.8-1.6l0,0h0.5c0,0.6,0.2,1,0.6,1.3c0.4,0.3,0.9,0.4,1.4,0.4c0.6,0,1-0.1,1.3-0.4
				C-10.5,339.5-10.3,339.2-10.3,338.7z"/>
		</g>
	</g>
	<g>
		<g>
			<g>
				<polygon fill="#89181B" points="-25.9,378.7 -41.8,400.5 -32.6,398.7 -27.5,405.3 -17.9,381.1 				"/>
			</g>
			<g>
				<polygon fill="#89181B" points="-14.9,378.7 1,400.5 -8.2,398.7 -13.2,405.3 -22.9,381.1 				"/>
			</g>
			<g>
				<g>
					<path fill="#DA1F27" d="M1.4,377.2c0.1,0,0.1-0.1,0.1-0.1c0.2-0.2,0.4-0.3,0.4-0.3l-0.1,0c0.6-0.7,1-1.7,1-2.7
						c0-1.4-0.6-2.6-1.6-3.4l0,0c0,0-0.5-0.5-0.6-1c0-0.1,0-0.2,0-0.3c0.2-0.3,0.3-0.5,0.4-0.8c0.1-0.1,0.1-0.2,0.1-0.2l-0.1,0
						c0.4-1,0.4-2.1-0.1-3.1c-0.5-1.1-1.3-1.8-2.2-2.3l0.1,0c0,0-0.9-0.4-1.1-0.9c-0.2-0.5,0.1-1.2,0.1-1.2l-0.1,0.1
						c0.2-1.3-0.2-2.6-1.2-3.6c-1-1-2.4-1.4-3.8-1.2c-0.2,0-0.4,0-0.6-0.1c-0.3-0.1-0.4-0.5-0.6-0.7c-0.3-1.3-1.2-2.4-2.6-2.9
						c-1.1-0.5-2.4-0.4-3.4,0.1l0,0c0,0-0.1,0.1-0.2,0.1c0,0-0.1,0-0.1,0c-0.3,0.1-0.7,0.3-1,0.2c-0.3-0.1-0.5-0.3-0.7-0.5
						c-0.8-1.1-2.1-1.9-3.6-1.9c-1.3,0-2.5,0.6-3.3,1.5v-0.1c0,0-0.4,0.6-0.9,0.8c-0.5,0.1-1.4-0.4-1.4-0.4l0,0.1
						c-1-0.3-2.1-0.4-3.1,0.1c-1.1,0.4-1.9,1.3-2.3,2.3l0-0.1c0,0,0,0.2-0.1,0.4c0,0.1-0.1,0.1-0.1,0.2c-0.1,0.3-0.2,0.5-0.4,0.7
						c-0.5,0.3-1.2,0.2-1.2,0.2l0,0c-1.2-0.1-2.5,0.3-3.4,1.3c-0.9,0.9-1.3,2.1-1.3,3.3l0,0c0,0,0.2,0.7-0.1,1.2
						c-0.1,0.2-0.3,0.4-0.5,0.5c-1.3,0.3-2.5,1.2-3,2.6c-0.5,1.3-0.4,2.8,0.3,3.9l-0.1-0.1c0,0,0.4,0.6,0.3,1.2
						c-0.1,0.5-0.9,1.1-0.9,1.1h0c-0.9,0.8-1.4,2-1.4,3.2c0,1.4,0.7,2.6,1.7,3.4c0.2,0.2,0.4,0.4,0.5,0.7c0.1,0.5-0.4,1.4-0.4,1.4
						l0,0c-0.4,1-0.5,2.2,0,3.3c0.6,1.5,2,2.4,3.4,2.6c0.1,0.1,0.3,0.1,0.4,0.3c0.1,0.1,0.2,0.3,0.2,0.4c0,1.2,0.4,2.4,1.3,3.3
						c0.9,0.9,2,1.3,3.1,1.3l0,0c0,0,0,0,0,0c0.1,0,0.3,0,0.4,0c0.3,0,0.7,0,0.9,0.2c0.3,0.2,0.4,0.5,0.5,0.7c0,0.1,0,0.1,0.1,0.2
						c0,0.1,0,0.1,0,0.1l0,0c0.4,1.1,1.3,2,2.4,2.5c0.9,0.4,1.9,0.4,2.8,0.2l0,0c0,0,0,0,0.1,0c0.2-0.1,0.4-0.1,0.6-0.2
						c0.3-0.1,0.6-0.1,0.8,0c0.1,0,0.2,0.1,0.3,0.2c0.8,1.2,2.1,2,3.6,2c1.3,0,2.4-0.5,3.2-1.4v0c0,0,0-0.1,0.1-0.2
						c0.1-0.1,0.2-0.2,0.2-0.3c0.1-0.2,0.3-0.3,0.5-0.4c0.5-0.2,1.4,0.3,1.4,0.3l-0.1-0.1c1,0.4,2.1,0.4,3.2,0
						c1.1-0.5,2-1.3,2.4-2.4l0,0.1c0,0,0.2-1,0.7-1.2c0.5-0.3,1.2-0.1,1.2-0.1l-0.1-0.1c1.2,0,2.4-0.4,3.3-1.3
						c0.9-0.9,1.3-2,1.3-3.1l0,0c0,0,0-0.1,0-0.2c0-0.1,0-0.2,0-0.3c0-0.2,0-0.5,0.1-0.7c0.2-0.5,1.2-0.8,1.2-0.8l-0.1,0
						c1.1-0.4,2.1-1.3,2.6-2.5c0.5-1.2,0.4-2.4-0.1-3.5c-0.1-0.3-0.1-0.6,0-0.8C1.2,377.4,1.3,377.3,1.4,377.2z M-10,383.2
						c-0.9,0.9-1.3,2-1.3,3.1c-1-0.4-2.2-0.5-3.4,0c-1.2,0.5-2,1.4-2.4,2.5c-0.8-0.7-1.8-1.1-2.9-1.1c-1,0-1.8,0.3-2.5,0.8
						c-0.4-1-1.2-1.8-2.3-2.2c-1.2-0.5-2.4-0.4-3.4,0.1c0-1.1-0.4-2.3-1.3-3.1c-0.9-0.9-2-1.3-3.2-1.3c0.1-0.8,0.1-1.7-0.3-2.5
						c-0.5-1.1-1.4-1.9-2.4-2.4c0.8-0.8,1.3-1.9,1.3-3.1c0-1.4-0.7-2.7-1.7-3.5c1.3-0.3,2.4-1.3,2.9-2.6c0.5-1.1,0.4-2.3,0-3.4
						c1.1,0,2.2-0.4,3-1.3c0.9-0.9,1.3-2,1.3-3.1c1,0.4,2.2,0.5,3.4,0c1.1-0.5,2-1.4,2.4-2.4c0.8,0.7,1.8,1.1,2.9,1.1
						c1.3,0,2.5-0.6,3.3-1.5c0.4,1.2,1.3,2.3,2.5,2.8c1.1,0.5,2.3,0.4,3.4,0c0,1.1,0.4,2.3,1.3,3.1c0.8,0.8,1.8,1.2,2.8,1.3
						c-0.7,1.1-0.9,2.6-0.3,4c0.5,1.1,1.4,1.9,2.4,2.3c-0.8,0.8-1.3,1.9-1.3,3.1c0,0.9,0.3,1.8,0.8,2.5c-0.8,0.5-1.4,1.2-1.7,2.1
						c-0.5,1.1-0.4,2.3,0,3.4C-7.9,381.9-9.1,382.3-10,383.2z"/>
				</g>
				<g>
					<g>
						<g>
							<path fill="#FFFFFF" d="M-5.1,373.9c-0.3,8-7.2,14.2-15.2,13.9c-8.1-0.3-14.4-7.1-14-15.1c0.3-8,7.2-14.2,15.2-13.9
								C-11,359.2-4.7,365.9-5.1,373.9z"/>
							<path fill="#B52125" d="M-19.7,388.8c-0.2,0-0.4,0-0.7,0c-4.2-0.2-8.1-1.9-10.9-5c-2.8-3.1-4.3-7-4.1-11.1
								c0.4-8.5,7.6-15.2,16.3-14.8c8.6,0.4,15.4,7.6,15,16.1C-4.4,382.3-11.2,388.8-19.7,388.8L-19.7,388.8z M-19.7,359.9
								c-7.3,0-13.3,5.7-13.6,12.9c-0.2,3.6,1.1,7,3.6,9.7c2.5,2.6,5.8,4.2,9.4,4.3c7.6,0.3,13.9-5.5,14.2-12.9
								c0.3-7.4-5.5-13.7-13-14C-19.3,359.9-19.5,359.9-19.7,359.9L-19.7,359.9z"/>
						</g>
					</g>
				</g>
			</g>
		</g>
	</g>
</g>
<g>
	<g>
		<g>
			<path fill="#4D4D4D" d="M-96.6,325.6L-96.6,325.6c0,0.8-0.2,1.3-0.7,1.8c-0.5,0.4-1.1,0.7-1.9,0.7c-0.8,0-1.4-0.3-1.9-0.9
				c-0.5-0.6-0.7-1.4-0.7-2.3v-1.2c0-0.9,0.2-1.7,0.7-2.3c0.5-0.6,1.1-0.9,1.9-0.9c0.8,0,1.4,0.2,1.9,0.6c0.5,0.4,0.7,1,0.7,1.8l0,0
				h-0.6c0-0.6-0.2-1.1-0.5-1.4c-0.4-0.3-0.8-0.5-1.5-0.5c-0.6,0-1.1,0.3-1.5,0.8c-0.4,0.5-0.6,1.2-0.6,1.9v1.2c0,0.8,0.2,1.5,0.6,2
				c0.4,0.5,0.9,0.8,1.5,0.8c0.6,0,1.1-0.2,1.5-0.5c0.4-0.3,0.5-0.8,0.5-1.4L-96.6,325.6L-96.6,325.6z"/>
			<path fill="#4D4D4D" d="M-91.3,324.3h-3.2v3.1h3.7v0.5h-4.3v-7.5h4.3v0.5h-3.7v2.8h3.2C-91.3,323.8-91.3,324.3-91.3,324.3z"/>
			<path fill="#4D4D4D" d="M-89.5,328v-7.5h2.1c0.7,0,1.3,0.2,1.7,0.5c0.4,0.3,0.6,0.8,0.6,1.5c0,0.4-0.1,0.7-0.3,1
				c-0.2,0.3-0.5,0.5-0.8,0.6c0.5,0.1,0.8,0.3,1.1,0.6c0.3,0.4,0.4,0.8,0.4,1.2c0,0.7-0.2,1.2-0.6,1.5c-0.4,0.4-1,0.5-1.7,0.5
				C-86.9,328-89.5,328-89.5,328z M-88.9,323.8h1.7c0.5,0,0.9-0.1,1.2-0.4c0.3-0.2,0.4-0.6,0.4-1c0-0.5-0.2-0.8-0.5-1.1
				c-0.3-0.2-0.7-0.4-1.3-0.4h-1.5C-88.9,321-88.9,323.8-88.9,323.8z M-88.9,324.4v3.1h2c0.5,0,0.9-0.1,1.3-0.4
				c0.3-0.3,0.5-0.7,0.5-1.1c0-0.4-0.1-0.8-0.4-1.1c-0.3-0.3-0.7-0.4-1.2-0.4h-0.1C-86.9,324.4-88.9,324.4-88.9,324.4z"/>
			<path fill="#4D4D4D" d="M-79.5,325.9h-3.2l-0.7,2.1H-84l2.6-7.5h0.6l2.6,7.5h-0.6L-79.5,325.9z M-82.5,325.3h2.8l-1.4-4h0
				L-82.5,325.3z"/>
			<path fill="#4D4D4D" d="M-73,326.1c0-0.4-0.1-0.7-0.4-0.9c-0.3-0.2-0.8-0.5-1.5-0.7c-0.8-0.2-1.4-0.5-1.8-0.8
				c-0.4-0.3-0.6-0.8-0.6-1.3c0-0.6,0.2-1,0.7-1.4s1-0.6,1.7-0.6c0.7,0,1.3,0.2,1.8,0.6c0.4,0.4,0.7,0.9,0.6,1.6l0,0H-73
				c0-0.5-0.2-0.9-0.5-1.2c-0.3-0.3-0.8-0.5-1.3-0.5c-0.6,0-1,0.1-1.3,0.4c-0.3,0.3-0.5,0.6-0.5,1c0,0.4,0.1,0.7,0.4,0.9
				s0.8,0.5,1.5,0.7c0.8,0.2,1.3,0.5,1.7,0.8c0.4,0.3,0.6,0.8,0.6,1.3c0,0.6-0.2,1-0.7,1.4s-1.1,0.5-1.8,0.5s-1.3-0.2-1.9-0.6
				c-0.5-0.4-0.8-0.9-0.8-1.6l0,0h0.5c0,0.6,0.2,1,0.6,1.3c0.4,0.3,0.9,0.4,1.4,0.4c0.6,0,1-0.1,1.3-0.4
				C-73.2,326.9-73,326.6-73,326.1z"/>
			<path fill="#4D4D4D" d="M-96.2,338.7c0-0.4-0.1-0.7-0.4-0.9c-0.3-0.2-0.8-0.5-1.5-0.7c-0.8-0.2-1.4-0.5-1.8-0.8
				c-0.4-0.3-0.6-0.8-0.6-1.3c0-0.6,0.2-1,0.7-1.4s1-0.6,1.7-0.6c0.7,0,1.3,0.2,1.8,0.6c0.4,0.4,0.7,0.9,0.6,1.6l0,0h-0.6
				c0-0.5-0.2-0.9-0.5-1.2c-0.3-0.3-0.8-0.5-1.3-0.5c-0.6,0-1,0.1-1.3,0.4c-0.3,0.3-0.5,0.6-0.5,1c0,0.4,0.1,0.7,0.4,0.9
				c0.3,0.2,0.8,0.5,1.5,0.7c0.8,0.2,1.3,0.5,1.7,0.8s0.6,0.8,0.6,1.3c0,0.6-0.2,1-0.7,1.4s-1.1,0.5-1.8,0.5s-1.3-0.2-1.9-0.6
				c-0.5-0.4-0.8-0.9-0.8-1.6l0,0h0.5c0,0.6,0.2,1,0.6,1.3c0.4,0.3,0.9,0.4,1.4,0.4c0.6,0,1-0.1,1.3-0.4
				C-96.4,339.5-96.2,339.2-96.2,338.7z"/>
			<path fill="#4D4D4D" d="M-90.9,340.6c0-0.2-0.1-0.4-0.1-0.5c0-0.1,0-0.3,0-0.4c-0.2,0.3-0.4,0.5-0.8,0.7
				c-0.3,0.2-0.7,0.3-1.1,0.3c-0.5,0-0.9-0.1-1.2-0.4c-0.3-0.3-0.4-0.7-0.4-1.2c0-0.5,0.2-0.9,0.6-1.2c0.4-0.3,1-0.5,1.6-0.5h1.3
				v-0.7c0-0.4-0.1-0.7-0.4-0.9s-0.6-0.3-1-0.3c-0.4,0-0.7,0.1-1,0.3c-0.2,0.2-0.4,0.5-0.4,0.8h-0.5l0,0c0-0.4,0.2-0.8,0.5-1.1
				c0.4-0.3,0.8-0.5,1.4-0.5c0.6,0,1.1,0.2,1.4,0.5c0.4,0.3,0.5,0.8,0.5,1.3v2.7c0,0.2,0,0.4,0,0.6c0,0.2,0.1,0.4,0.1,0.5
				L-90.9,340.6L-90.9,340.6z M-92.9,340.1c0.5,0,0.8-0.1,1.2-0.3c0.3-0.2,0.6-0.5,0.7-0.9v-1.1h-1.3c-0.5,0-0.9,0.1-1.2,0.4
				c-0.3,0.2-0.5,0.5-0.5,0.9c0,0.3,0.1,0.6,0.3,0.8C-93.5,340-93.2,340.1-92.9,340.1z"/>
			<path fill="#4D4D4D" d="M-85.4,339.7c-0.2,0.3-0.4,0.6-0.7,0.7c-0.3,0.2-0.6,0.3-1,0.3c-0.6,0-1-0.2-1.3-0.6
				c-0.3-0.4-0.5-1-0.5-1.8V335h0.6v3.2c0,0.7,0.1,1.2,0.3,1.5c0.2,0.3,0.5,0.4,0.9,0.4c0.4,0,0.8-0.1,1.1-0.3
				c0.3-0.2,0.5-0.5,0.6-0.8v-4h0.6v5.5h-0.5L-85.4,339.7z M-86.1,332.8h0.7l0,0l-1.2,1.3h-0.5L-86.1,332.8z"/>
			<path fill="#4D4D4D" d="M-83.5,337.8c0-0.9,0.2-1.6,0.5-2.1c0.4-0.5,0.9-0.8,1.5-0.8c0.4,0,0.7,0.1,1,0.2
				c0.3,0.2,0.5,0.4,0.7,0.7v-3.3h0.6v8h-0.5l-0.1-0.8c-0.2,0.3-0.4,0.5-0.7,0.7c-0.3,0.2-0.6,0.2-1,0.2c-0.6,0-1.1-0.2-1.5-0.7
				c-0.4-0.5-0.5-1.2-0.5-2L-83.5,337.8L-83.5,337.8z M-82.9,337.9c0,0.7,0.1,1.2,0.4,1.6c0.3,0.4,0.6,0.6,1.2,0.6
				c0.4,0,0.7-0.1,1-0.3c0.3-0.2,0.5-0.4,0.6-0.7v-2.6c-0.1-0.3-0.3-0.6-0.6-0.8c-0.2-0.2-0.6-0.3-1-0.3c-0.5,0-0.9,0.2-1.2,0.7
				c-0.3,0.4-0.4,1-0.4,1.7L-82.9,337.9L-82.9,337.9z"/>
			<path fill="#4D4D4D" d="M-75.6,340.7c-0.7,0-1.3-0.3-1.7-0.8c-0.4-0.5-0.6-1.2-0.6-2v-0.3c0-0.8,0.2-1.5,0.7-2
				c0.4-0.5,1-0.8,1.6-0.8c0.6,0,1.2,0.2,1.5,0.6c0.4,0.4,0.5,1,0.5,1.7v0.5h-3.7v0.2c0,0.6,0.2,1.2,0.5,1.6
				c0.3,0.4,0.7,0.6,1.3,0.6c0.3,0,0.6-0.1,0.9-0.2c0.3-0.1,0.5-0.3,0.7-0.4l0.3,0.4c-0.2,0.2-0.4,0.4-0.7,0.5
				C-74.8,340.6-75.1,340.7-75.6,340.7z M-75.6,335.4c-0.5,0-0.8,0.2-1.1,0.5c-0.3,0.3-0.5,0.8-0.5,1.3l0,0h3.1v-0.1
				c0-0.5-0.1-0.9-0.4-1.2C-74.8,335.6-75.1,335.4-75.6,335.4z"/>
		</g>
	</g>
	<g>
		<g>
			<g>
				<polygon fill="#DC9928" points="-93.1,378.7 -109.1,400.6 -99.8,398.8 -94.7,405.4 -85.1,381.1 				"/>
			</g>
			<g>
				<polygon fill="#DC9928" points="-82.1,378.7 -66.1,400.6 -75.4,398.8 -80.4,405.4 -90.1,381.1 				"/>
			</g>
			<g>
				<g>
					<path fill="#F4D256" d="M-65.7,377.2c0,0,0.1-0.1,0.1-0.1c0.2-0.2,0.4-0.3,0.4-0.3l-0.1,0c0.6-0.7,1-1.7,1-2.8
						c0-1.4-0.6-2.6-1.6-3.4l0,0c0,0-0.5-0.5-0.6-1.1c0-0.1,0-0.2,0-0.3c0.2-0.3,0.3-0.5,0.4-0.8c0.1-0.1,0.2-0.2,0.2-0.2l-0.1,0
						c0.3-1,0.3-2.1-0.1-3.1c-0.4-1.1-1.3-1.9-2.2-2.3l0.1,0c0,0-0.9-0.4-1.1-0.9c-0.2-0.5,0.1-1.2,0.1-1.2l-0.1,0.1
						c0.2-1.3-0.2-2.7-1.2-3.7c-1-1-2.5-1.4-3.8-1.2c-0.2,0-0.4,0-0.6-0.1c-0.3-0.1-0.4-0.5-0.6-0.7c-0.4-1.3-1.3-2.4-2.6-2.9
						c-1.1-0.5-2.4-0.4-3.4,0.1l0,0c0,0-0.1,0.1-0.2,0.1c0,0-0.1,0-0.1,0c-0.3,0.1-0.7,0.3-1.1,0.2c-0.3-0.1-0.6-0.3-0.7-0.5
						c-0.8-1.1-2.1-1.9-3.6-1.9c-1.3,0-2.5,0.6-3.3,1.5l0-0.1c0,0-0.4,0.6-0.9,0.8c-0.5,0.1-1.4-0.4-1.4-0.4l0,0.1
						c-1-0.3-2.1-0.3-3.1,0.1c-1.1,0.5-1.9,1.3-2.3,2.3l0-0.1c0,0,0,0.2-0.1,0.4c0,0.1-0.1,0.2-0.1,0.2c-0.1,0.3-0.2,0.5-0.4,0.7
						c-0.5,0.3-1.2,0.2-1.2,0.2l0,0c-1.2-0.1-2.4,0.3-3.4,1.3c-0.9,0.9-1.3,2.1-1.3,3.3l0,0c0,0,0.2,0.7-0.1,1.2
						c-0.1,0.2-0.3,0.3-0.5,0.5c-1.3,0.3-2.5,1.2-3,2.6c-0.5,1.3-0.4,2.8,0.3,3.9l-0.1-0.1c0,0,0.4,0.6,0.3,1.2
						c-0.1,0.5-0.9,1.1-0.9,1.1h0c-0.9,0.8-1.4,2-1.4,3.2c0,1.4,0.7,2.6,1.7,3.4c0.2,0.2,0.4,0.4,0.5,0.7c0.1,0.5-0.4,1.4-0.4,1.4
						l0,0c-0.4,1-0.4,2.3,0,3.4c0.6,1.5,2,2.4,3.5,2.6c0.1,0.1,0.3,0.1,0.4,0.2c0.1,0.1,0.2,0.3,0.2,0.4c0,1.2,0.4,2.4,1.3,3.3
						c0.9,0.9,2,1.3,3.2,1.3l0,0c0,0,0,0,0,0c0.1,0,0.3,0,0.4,0c0.3,0,0.7,0,0.9,0.2c0.3,0.2,0.4,0.5,0.5,0.8c0,0.1,0,0.1,0.1,0.2
						c0,0.1,0,0.1,0,0.1l0,0c0.4,1.1,1.3,2,2.4,2.5c0.9,0.4,1.9,0.4,2.8,0.2l0,0c0,0,0,0,0.1,0c0.2-0.1,0.4-0.1,0.6-0.2
						c0.3-0.1,0.6-0.1,0.8,0c0.1,0,0.2,0.1,0.3,0.2c0.8,1.2,2.1,2,3.7,2c1.3,0,2.4-0.5,3.2-1.4v0c0,0,0-0.1,0.1-0.2
						c0.1-0.1,0.2-0.2,0.2-0.3c0.1-0.2,0.3-0.3,0.5-0.4c0.5-0.2,1.4,0.3,1.4,0.3l-0.1-0.1c1,0.4,2.2,0.4,3.2,0
						c1.1-0.5,2-1.3,2.4-2.4l0,0.1c0,0,0.2-1,0.7-1.2c0.5-0.3,1.2-0.1,1.2-0.1l-0.1-0.1c1.2,0,2.4-0.4,3.3-1.3
						c0.9-0.9,1.3-2,1.3-3.1l0,0c0,0,0-0.1,0-0.2c0-0.1,0-0.2,0-0.3c0-0.2,0-0.5,0.1-0.7c0.2-0.5,1.2-0.8,1.2-0.8l-0.1,0
						c1.1-0.4,2.1-1.3,2.6-2.5c0.5-1.2,0.4-2.4-0.1-3.5c-0.1-0.3-0.1-0.6,0-0.8C-65.9,377.4-65.8,377.3-65.7,377.2z M-77.2,383.2
						c-0.9,0.9-1.3,2-1.3,3.1c-1-0.4-2.2-0.5-3.4,0c-1.2,0.5-2,1.4-2.4,2.5c-0.8-0.7-1.8-1.1-2.9-1.1c-1,0-1.8,0.3-2.6,0.8
						c-0.4-1-1.2-1.8-2.3-2.2c-1.2-0.5-2.4-0.4-3.5,0.1c0-1.1-0.4-2.3-1.3-3.2c-0.9-0.9-2-1.3-3.2-1.3c0.2-0.8,0.1-1.7-0.3-2.5
						c-0.5-1.1-1.4-2-2.4-2.4c0.8-0.8,1.3-1.9,1.3-3.1c0-1.4-0.7-2.7-1.8-3.5c1.3-0.3,2.4-1.3,2.9-2.6c0.5-1.1,0.4-2.3,0-3.4
						c1.1,0,2.2-0.4,3-1.3c0.9-0.9,1.3-2,1.3-3.1c1,0.4,2.3,0.5,3.4,0c1.1-0.5,2-1.4,2.4-2.4c0.8,0.7,1.8,1.1,2.9,1.1
						c1.3,0,2.5-0.6,3.3-1.5c0.4,1.2,1.3,2.3,2.5,2.8c1.1,0.5,2.3,0.4,3.4,0c0,1.1,0.4,2.3,1.3,3.1c0.8,0.8,1.8,1.2,2.9,1.3
						c-0.7,1.2-0.9,2.6-0.3,4c0.5,1.1,1.4,1.9,2.4,2.4c-0.8,0.8-1.3,1.9-1.3,3.1c0,1,0.3,1.8,0.8,2.5c-0.8,0.5-1.4,1.2-1.8,2.1
						c-0.5,1.1-0.4,2.3,0,3.4C-75.1,381.9-76.3,382.3-77.2,383.2z"/>
				</g>
				<g>
					<g>
						<g>
							<path fill="#FFFFFF" d="M-72.5,373.9c-0.3,8-7.1,14.3-15.1,13.9c-8-0.3-14.3-7.1-13.9-15.1c0.3-8,7.1-14.3,15.1-13.9
								C-78.4,359.1-72.2,365.9-72.5,373.9z"/>
							<path fill="#DD9A28" d="M-87,388.9c-0.2,0-0.4,0-0.7,0c-4.2-0.2-8-2-10.8-5c-2.8-3.1-4.3-7-4.1-11.2
								c0.4-8.6,7.5-15.3,16.2-14.9c8.6,0.4,15.3,7.6,14.9,16.2C-71.9,382.3-78.7,388.9-87,388.9L-87,388.9z M-87.1,359.8
								c-7.3,0-13.2,5.7-13.5,13c-0.1,3.6,1.1,7.1,3.6,9.7c2.4,2.7,5.8,4.2,9.4,4.4c7.5,0.3,13.8-5.5,14.1-12.9
								c0.3-7.4-5.5-13.8-12.9-14.1C-86.7,359.8-86.9,359.8-87.1,359.8L-87.1,359.8z"/>
						</g>
					</g>
				</g>
			</g>
		</g>
	</g>
</g>
<g>
	<g>
		<g>
			<path fill="#4D4D4D" d="M-169.7,325.6L-169.7,325.6c0,0.8-0.2,1.3-0.7,1.8c-0.5,0.4-1.1,0.7-1.9,0.7c-0.8,0-1.4-0.3-1.9-0.9
				c-0.5-0.6-0.7-1.4-0.7-2.3v-1.2c0-0.9,0.2-1.7,0.7-2.3c0.5-0.6,1.1-0.9,1.9-0.9c0.8,0,1.4,0.2,1.9,0.6c0.5,0.4,0.7,1,0.7,1.8l0,0
				h-0.6c0-0.6-0.2-1.1-0.5-1.4c-0.4-0.3-0.8-0.5-1.5-0.5c-0.6,0-1.1,0.3-1.5,0.8c-0.4,0.5-0.6,1.2-0.6,1.9v1.2c0,0.8,0.2,1.5,0.6,2
				c0.4,0.5,0.9,0.8,1.5,0.8c0.6,0,1.1-0.2,1.5-0.5c0.4-0.3,0.5-0.8,0.5-1.4L-169.7,325.6L-169.7,325.6z"/>
			<path fill="#4D4D4D" d="M-164.3,324.3h-3.2v3.1h3.7v0.5h-4.3v-7.5h4.3v0.5h-3.7v2.8h3.2L-164.3,324.3L-164.3,324.3z"/>
			<path fill="#4D4D4D" d="M-162.5,328v-7.5h2.1c0.7,0,1.3,0.2,1.7,0.5c0.4,0.3,0.6,0.8,0.6,1.5c0,0.4-0.1,0.7-0.3,1
				c-0.2,0.3-0.5,0.5-0.8,0.6c0.5,0.1,0.8,0.3,1.1,0.6c0.3,0.4,0.4,0.8,0.4,1.2c0,0.7-0.2,1.2-0.6,1.5c-0.4,0.4-1,0.5-1.7,0.5
				C-159.9,328-162.5,328-162.5,328z M-162,323.8h1.7c0.5,0,0.9-0.1,1.2-0.4c0.3-0.2,0.4-0.6,0.4-1c0-0.5-0.2-0.8-0.5-1.1
				c-0.3-0.2-0.7-0.4-1.3-0.4h-1.5C-162,321-162,323.8-162,323.8z M-162,324.4v3.1h2c0.5,0,0.9-0.1,1.3-0.4c0.3-0.3,0.5-0.7,0.5-1.1
				c0-0.4-0.1-0.8-0.4-1.1c-0.3-0.3-0.7-0.4-1.2-0.4h-0.1C-160,324.4-162,324.4-162,324.4z"/>
			<path fill="#4D4D4D" d="M-152.5,325.9h-3.2l-0.7,2.1h-0.6l2.6-7.5h0.6l2.6,7.5h-0.6L-152.5,325.9z M-155.5,325.3h2.8l-1.4-4h0
				L-155.5,325.3z"/>
			<path fill="#4D4D4D" d="M-146,326.1c0-0.4-0.1-0.7-0.4-0.9c-0.3-0.2-0.8-0.5-1.5-0.7c-0.8-0.2-1.4-0.5-1.8-0.8
				c-0.4-0.3-0.6-0.8-0.6-1.3c0-0.6,0.2-1,0.7-1.4c0.4-0.4,1-0.6,1.7-0.6c0.7,0,1.3,0.2,1.8,0.6c0.4,0.4,0.7,0.9,0.6,1.6l0,0h-0.6
				c0-0.5-0.2-0.9-0.5-1.2c-0.3-0.3-0.8-0.5-1.3-0.5c-0.6,0-1,0.1-1.3,0.4c-0.3,0.3-0.5,0.6-0.5,1c0,0.4,0.1,0.7,0.4,0.9
				c0.3,0.2,0.8,0.5,1.5,0.7c0.8,0.2,1.3,0.5,1.7,0.8c0.4,0.3,0.6,0.8,0.6,1.3c0,0.6-0.2,1-0.7,1.4s-1.1,0.5-1.8,0.5
				c-0.7,0-1.3-0.2-1.9-0.6c-0.5-0.4-0.8-0.9-0.8-1.6l0,0h0.5c0,0.6,0.2,1,0.6,1.3c0.4,0.3,0.9,0.4,1.4,0.4c0.5,0,1-0.1,1.3-0.4
				C-146.2,326.9-146,326.6-146,326.1z"/>
			<path fill="#4D4D4D" d="M-177.3,336.9h-3.2v3.1h3.7v0.5h-4.3v-7.5h4.3v0.5h-3.7v2.8h3.2C-177.3,336.4-177.3,336.9-177.3,336.9z"
				/>
			<path fill="#4D4D4D" d="M-176,337.8c0-0.9,0.2-1.6,0.5-2.1c0.4-0.5,0.9-0.8,1.5-0.8c0.4,0,0.7,0.1,1,0.2c0.3,0.2,0.5,0.4,0.7,0.7
				v-3.3h0.6v8h-0.5l-0.1-0.8c-0.2,0.3-0.4,0.5-0.7,0.7c-0.3,0.2-0.6,0.2-1,0.2c-0.6,0-1.1-0.2-1.5-0.7c-0.4-0.5-0.5-1.2-0.5-2
				V337.8z M-175.4,337.9c0,0.7,0.1,1.2,0.4,1.6c0.3,0.4,0.6,0.6,1.2,0.6c0.4,0,0.7-0.1,1-0.3c0.3-0.2,0.5-0.4,0.6-0.7v-2.6
				c-0.1-0.3-0.3-0.6-0.6-0.8c-0.2-0.2-0.6-0.3-1-0.3c-0.5,0-0.9,0.2-1.2,0.7c-0.3,0.4-0.4,1-0.4,1.7
				C-175.4,337.8-175.4,337.9-175.4,337.9z"/>
			<path fill="#4D4D4D" d="M-166.7,339.7c-0.2,0.3-0.4,0.6-0.7,0.7c-0.3,0.2-0.6,0.3-1,0.3c-0.6,0-1-0.2-1.3-0.6
				c-0.3-0.4-0.5-1-0.5-1.8V335h0.6v3.2c0,0.7,0.1,1.2,0.3,1.5c0.2,0.3,0.5,0.4,0.9,0.4c0.4,0,0.8-0.1,1.1-0.3
				c0.3-0.2,0.5-0.5,0.6-0.8v-4h0.6v5.5h-0.5L-166.7,339.7z"/>
			<path fill="#4D4D4D" d="M-162.6,340.2c0.4,0,0.7-0.1,1-0.3c0.3-0.2,0.4-0.6,0.4-1h0.5l0,0c0,0.5-0.2,0.9-0.6,1.3
				c-0.4,0.3-0.9,0.5-1.4,0.5c-0.7,0-1.3-0.3-1.7-0.8s-0.6-1.2-0.6-2v-0.2c0-0.8,0.2-1.5,0.6-2c0.4-0.5,0.9-0.8,1.7-0.8
				c0.6,0,1.1,0.2,1.4,0.5c0.4,0.4,0.6,0.8,0.6,1.4l0,0h-0.5c0-0.4-0.1-0.8-0.4-1.1c-0.3-0.3-0.6-0.4-1-0.4c-0.6,0-1,0.2-1.3,0.6
				c-0.3,0.4-0.4,1-0.4,1.6v0.2c0,0.7,0.1,1.2,0.4,1.6C-163.6,339.9-163.1,340.2-162.6,340.2z"/>
			<path fill="#4D4D4D" d="M-155.9,340.6c0-0.2-0.1-0.4-0.1-0.5c0-0.1,0-0.3,0-0.4c-0.2,0.3-0.4,0.5-0.8,0.7
				c-0.3,0.2-0.7,0.3-1.1,0.3c-0.5,0-0.9-0.1-1.2-0.4c-0.3-0.3-0.4-0.7-0.4-1.2c0-0.5,0.2-0.9,0.6-1.2c0.4-0.3,1-0.5,1.6-0.5h1.3
				v-0.7c0-0.4-0.1-0.7-0.4-0.9s-0.6-0.3-1-0.3c-0.4,0-0.7,0.1-1,0.3c-0.2,0.2-0.4,0.5-0.4,0.8h-0.5l0,0c0-0.4,0.2-0.8,0.5-1.1
				c0.4-0.3,0.8-0.5,1.4-0.5c0.6,0,1.1,0.2,1.4,0.5c0.4,0.3,0.5,0.8,0.5,1.3v2.7c0,0.2,0,0.4,0,0.6c0,0.2,0.1,0.4,0.1,0.5
				L-155.9,340.6L-155.9,340.6z M-157.9,340.1c0.5,0,0.8-0.1,1.2-0.3c0.3-0.2,0.6-0.5,0.7-0.9v-1.1h-1.3c-0.5,0-0.9,0.1-1.2,0.4
				c-0.3,0.2-0.5,0.5-0.5,0.9c0,0.3,0.1,0.6,0.3,0.8C-158.5,340-158.3,340.1-157.9,340.1z"/>
			<path fill="#4D4D4D" d="M-151.9,340.2c0.4,0,0.7-0.1,1-0.3c0.3-0.2,0.4-0.6,0.4-1h0.5l0,0c0,0.5-0.2,0.9-0.6,1.3
				c-0.4,0.3-0.9,0.5-1.4,0.5c-0.7,0-1.3-0.3-1.7-0.8c-0.4-0.5-0.6-1.2-0.6-2v-0.2c0-0.8,0.2-1.5,0.6-2c0.4-0.5,0.9-0.8,1.7-0.8
				c0.6,0,1.1,0.2,1.4,0.5c0.4,0.4,0.6,0.8,0.6,1.4l0,0h-0.5c0-0.4-0.1-0.8-0.4-1.1c-0.3-0.3-0.6-0.4-1-0.4c-0.6,0-1,0.2-1.3,0.6
				c-0.3,0.4-0.4,1-0.4,1.6v0.2c0,0.7,0.1,1.2,0.4,1.6C-152.9,339.9-152.5,340.2-151.9,340.2z M-151.8,340.6l-0.1,0.3
				c0.3,0,0.5,0.1,0.6,0.2c0.2,0.1,0.2,0.3,0.2,0.6c0,0.3-0.1,0.6-0.4,0.7c-0.3,0.2-0.6,0.3-1.1,0.3l0-0.4c0.3,0,0.5-0.1,0.7-0.2
				c0.2-0.1,0.3-0.3,0.3-0.5c0-0.2-0.1-0.3-0.2-0.4c-0.1-0.1-0.4-0.1-0.7-0.2l0.1-0.7L-151.8,340.6L-151.8,340.6z"/>
			<path fill="#4D4D4D" d="M-145.3,340.6c0-0.2-0.1-0.4-0.1-0.5c0-0.1,0-0.3,0-0.4c-0.2,0.3-0.4,0.5-0.8,0.7
				c-0.3,0.2-0.7,0.3-1.1,0.3c-0.5,0-0.9-0.1-1.2-0.4c-0.3-0.3-0.4-0.7-0.4-1.2c0-0.5,0.2-0.9,0.6-1.2c0.4-0.3,1-0.5,1.6-0.5h1.3
				v-0.7c0-0.4-0.1-0.7-0.4-0.9s-0.6-0.3-1-0.3c-0.4,0-0.7,0.1-1,0.3c-0.2,0.2-0.4,0.5-0.4,0.8h-0.5l0,0c0-0.4,0.2-0.8,0.5-1.1
				c0.4-0.3,0.8-0.5,1.4-0.5c0.6,0,1.1,0.2,1.4,0.5c0.4,0.3,0.5,0.8,0.5,1.3v2.7c0,0.2,0,0.4,0,0.6c0,0.2,0.1,0.4,0.1,0.5
				L-145.3,340.6L-145.3,340.6z M-145.2,332.9c0,0.3-0.1,0.6-0.3,0.7c-0.2,0.2-0.4,0.3-0.7,0.3c-0.2,0-0.5-0.1-0.7-0.3
				c-0.3-0.2-0.5-0.3-0.6-0.3c-0.2,0-0.3,0.1-0.4,0.2c-0.1,0.1-0.2,0.3-0.2,0.5l-0.4-0.1c0-0.3,0.1-0.5,0.3-0.7
				c0.2-0.2,0.4-0.3,0.7-0.3c0.2,0,0.5,0.1,0.7,0.3c0.3,0.2,0.5,0.3,0.7,0.3c0.2,0,0.3-0.1,0.4-0.2c0.1-0.1,0.2-0.3,0.2-0.5
				L-145.2,332.9z M-147.3,340.1c0.5,0,0.8-0.1,1.2-0.3c0.3-0.2,0.6-0.5,0.7-0.9v-1.1h-1.3c-0.5,0-0.9,0.1-1.2,0.4
				c-0.3,0.2-0.5,0.5-0.5,0.9c0,0.3,0.1,0.6,0.3,0.8C-147.9,340-147.6,340.1-147.3,340.1z"/>
			<path fill="#4D4D4D" d="M-143.6,337.7c0-0.8,0.2-1.5,0.6-2c0.4-0.5,1-0.8,1.7-0.8c0.7,0,1.3,0.3,1.7,0.8c0.4,0.5,0.6,1.2,0.6,2
				v0.2c0,0.8-0.2,1.5-0.6,2c-0.4,0.5-1,0.8-1.7,0.8c-0.7,0-1.3-0.3-1.7-0.8c-0.4-0.5-0.6-1.2-0.6-2L-143.6,337.7L-143.6,337.7z
				 M-143,337.9c0,0.6,0.2,1.2,0.5,1.6c0.3,0.4,0.7,0.7,1.3,0.7c0.6,0,1-0.2,1.3-0.7s0.5-1,0.5-1.6v-0.2c0-0.6-0.2-1.2-0.5-1.6
				c-0.3-0.4-0.8-0.7-1.3-0.7c-0.6,0-1,0.2-1.3,0.7c-0.3,0.4-0.5,1-0.5,1.6C-143,337.7-143,337.9-143,337.9z"/>
		</g>
	</g>
	<g>
		<g>
			<g>
				<polygon fill="#274391" points="-166.1,378.7 -182,400.4 -172.8,398.7 -167.7,405.2 -158.1,381.1 				"/>
			</g>
			<g>
				<polygon fill="#274391" points="-155.1,378.7 -139.3,400.4 -148.5,398.7 -153.5,405.2 -163.1,381.1 				"/>
			</g>
			<g>
				<g>
					<path fill="#91C1E4" d="M-138.9,377.2c0,0,0.1-0.1,0.1-0.1c0.2-0.2,0.4-0.3,0.4-0.3l-0.1,0c0.6-0.7,1-1.7,1-2.7
						c0-1.4-0.6-2.6-1.6-3.4l0,0c0,0-0.5-0.5-0.6-1c0-0.1,0-0.2,0-0.3c0.2-0.3,0.3-0.5,0.4-0.8c0.1-0.1,0.2-0.2,0.2-0.2l-0.1,0
						c0.4-1,0.4-2.1-0.1-3.1c-0.5-1.1-1.3-1.8-2.2-2.3l0.1,0c0,0-0.9-0.4-1.1-0.9c-0.2-0.5,0.1-1.2,0.1-1.2l-0.1,0.1
						c0.2-1.3-0.2-2.6-1.2-3.6c-1-1-2.4-1.4-3.8-1.2c-0.2,0-0.4,0-0.6-0.1c-0.3-0.1-0.4-0.5-0.6-0.7c-0.3-1.3-1.2-2.4-2.5-2.9
						c-1.1-0.5-2.4-0.4-3.4,0.1l0,0c0,0-0.1,0.1-0.2,0.1c0,0-0.1,0-0.1,0c-0.3,0.1-0.7,0.3-1,0.2c-0.3-0.1-0.5-0.3-0.7-0.5
						c-0.8-1.1-2.1-1.9-3.6-1.9c-1.3,0-2.5,0.6-3.3,1.5l0-0.1c0,0-0.4,0.6-0.9,0.7c-0.5,0.1-1.4-0.4-1.4-0.4l0,0.1
						c-1-0.3-2-0.3-3.1,0.1c-1.1,0.4-1.9,1.3-2.3,2.3l0-0.1c0,0,0,0.2-0.1,0.4c0,0.1-0.1,0.1-0.1,0.2c-0.1,0.3-0.2,0.5-0.4,0.7
						c-0.5,0.3-1.2,0.2-1.2,0.2l0,0c-1.2-0.1-2.4,0.3-3.4,1.3c-0.9,0.9-1.3,2.1-1.3,3.3l0,0c0,0,0.2,0.7,0,1.2
						c-0.1,0.2-0.3,0.3-0.5,0.5c-1.3,0.3-2.5,1.2-3,2.6c-0.5,1.3-0.4,2.8,0.3,3.9l-0.1-0.1c0,0,0.4,0.6,0.3,1.2
						c-0.1,0.5-0.9,1.1-0.9,1.1l0,0c-0.9,0.8-1.4,1.9-1.4,3.2c0,1.4,0.7,2.6,1.7,3.4c0.2,0.2,0.4,0.4,0.5,0.7
						c0.1,0.5-0.4,1.4-0.4,1.4l0,0c-0.4,1-0.4,2.2,0,3.3c0.6,1.5,2,2.4,3.4,2.6c0.1,0.1,0.3,0.1,0.4,0.3c0.1,0.1,0.2,0.3,0.2,0.4
						c0,1.2,0.4,2.4,1.3,3.2c0.9,0.9,2,1.3,3.2,1.3l0,0c0,0,0,0,0,0c0.1,0,0.3,0,0.4,0c0.3,0,0.7,0,0.9,0.2c0.3,0.2,0.4,0.5,0.5,0.7
						c0,0.1,0,0.1,0.1,0.2c0,0.1,0,0.1,0,0.1l0,0c0.4,1.1,1.3,2,2.4,2.5c0.9,0.4,1.9,0.4,2.8,0.2l0,0c0,0,0,0,0,0
						c0.2-0.1,0.4-0.1,0.6-0.2c0.3-0.1,0.6-0.1,0.8,0c0.1,0,0.2,0.1,0.3,0.2c0.8,1.2,2.1,1.9,3.6,1.9c1.3,0,2.4-0.5,3.2-1.4l0,0
						c0,0,0-0.1,0.1-0.2c0.1-0.1,0.2-0.2,0.2-0.3c0.1-0.2,0.3-0.3,0.5-0.4c0.5-0.2,1.4,0.2,1.4,0.2l-0.1-0.1c1,0.4,2.1,0.4,3.2,0
						c1.1-0.5,2-1.3,2.4-2.4l0,0.1c0,0,0.2-1,0.7-1.2c0.5-0.3,1.2-0.1,1.2-0.1l-0.1,0c1.2,0,2.4-0.4,3.3-1.3c0.9-0.9,1.3-2,1.3-3.1
						l0,0c0,0,0-0.1,0-0.2c0-0.1,0-0.2,0-0.4c0-0.2,0-0.5,0.1-0.7c0.3-0.5,1.2-0.8,1.2-0.8l0,0c1.1-0.4,2.1-1.3,2.6-2.4
						c0.5-1.2,0.4-2.4-0.1-3.5c-0.1-0.3-0.1-0.6,0-0.8C-139.1,377.4-139,377.3-138.9,377.2z M-150.3,383.2c-0.9,0.9-1.3,2-1.3,3.1
						c-1-0.4-2.2-0.5-3.4,0c-1.2,0.5-2,1.4-2.4,2.5c-0.8-0.7-1.8-1.1-2.9-1.1c-0.9,0-1.8,0.3-2.5,0.8c-0.4-1-1.2-1.8-2.3-2.2
						c-1.1-0.5-2.4-0.4-3.4,0.1c0-1.1-0.4-2.3-1.3-3.1c-0.9-0.9-2-1.3-3.2-1.3c0.2-0.8,0.1-1.7-0.3-2.5c-0.5-1.1-1.3-1.9-2.4-2.4
						c0.8-0.8,1.3-1.9,1.3-3.1c0-1.4-0.7-2.7-1.7-3.5c1.3-0.3,2.4-1.2,2.9-2.6c0.5-1.1,0.4-2.3,0-3.4c1.1,0,2.2-0.4,3-1.3
						c0.8-0.9,1.3-2,1.3-3.1c1,0.4,2.2,0.5,3.4,0c1.1-0.5,2-1.4,2.4-2.4c0.8,0.7,1.8,1.1,2.9,1.1c1.3,0,2.5-0.6,3.3-1.5
						c0.4,1.2,1.3,2.2,2.5,2.8c1.1,0.5,2.3,0.4,3.4,0c0,1.1,0.4,2.2,1.3,3.1c0.8,0.8,1.8,1.2,2.8,1.3c-0.7,1.2-0.9,2.6-0.3,3.9
						c0.5,1.1,1.3,1.9,2.4,2.4c-0.8,0.8-1.3,1.9-1.3,3.1c0,0.9,0.3,1.8,0.8,2.5c-0.8,0.5-1.4,1.2-1.7,2.1c-0.5,1.1-0.4,2.3,0,3.4
						C-148.2,381.9-149.4,382.3-150.3,383.2z"/>
				</g>
				<g>
					<g>
						<g>
							<path fill="#FFFFFF" d="M-145.7,373.9c-0.3,8-7.1,14.2-15,13.8c-8-0.3-14.2-7.1-13.8-15c0.3-8,7.1-14.2,15-13.8
								C-151.5,359.2-145.3,366-145.7,373.9z"/>
							<path fill="#274391" d="M-160.1,388.8c-0.2,0-0.4,0-0.7,0c-4.1-0.2-7.9-1.9-10.7-5c-2.8-3-4.2-7-4.1-11.1
								c0.4-8.5,7.5-15.2,16.1-14.8c8.5,0.4,15.2,7.6,14.8,16.1C-145,382.3-151.8,388.8-160.1,388.8L-160.1,388.8z M-160.1,359.9
								c-7.2,0-13.1,5.7-13.4,12.9c-0.2,3.6,1.1,7,3.5,9.6c2.4,2.6,5.7,4.2,9.3,4.3c7.5,0.3,13.7-5.4,14-12.9
								c0.3-7.4-5.5-13.7-12.9-14C-159.7,359.9-159.9,359.9-160.1,359.9L-160.1,359.9z"/>
						</g>
					</g>
				</g>
			</g>
		</g>
	</g>
</g>
<g>
	<path fill="#274391" d="M-169.7,476.7h0.7c0.3,0,0.6-0.1,0.7-0.2s0.2-0.4,0.2-0.6c0-0.3-0.1-0.5-0.2-0.6c-0.2-0.1-0.4-0.2-0.6-0.2
		c-0.2,0-0.4,0.1-0.6,0.2c-0.2,0.1-0.2,0.3-0.2,0.5h-1.3c0-0.3,0.1-0.6,0.3-0.9c0.2-0.3,0.4-0.5,0.8-0.6c0.3-0.1,0.7-0.2,1.1-0.2
		c0.7,0,1.2,0.2,1.6,0.5c0.4,0.3,0.6,0.8,0.6,1.3c0,0.3-0.1,0.6-0.3,0.8c-0.2,0.2-0.4,0.4-0.7,0.6c0.4,0.1,0.6,0.3,0.8,0.6
		c0.2,0.3,0.3,0.6,0.3,0.9c0,0.6-0.2,1-0.6,1.4c-0.4,0.3-1,0.5-1.6,0.5c-0.6,0-1.2-0.2-1.6-0.5c-0.4-0.3-0.6-0.8-0.6-1.3h1.3
		c0,0.2,0.1,0.4,0.3,0.6c0.2,0.2,0.4,0.2,0.7,0.2c0.3,0,0.5-0.1,0.7-0.2c0.2-0.2,0.3-0.4,0.3-0.6c0-0.6-0.4-1-1.1-1h-0.7V476.7z"/>
	<path fill="#274391" d="M-165.4,482l-0.7-0.3l0.2-0.3c0.2-0.4,0.3-0.7,0.3-1.1v-1h1.1l0,0.9c0,0.3-0.1,0.7-0.2,1
		C-165,481.5-165.2,481.8-165.4,482z"/>
	<path fill="#274391" d="M-159.3,474.7l-2.5,5.7h-1.3l2.5-5.4h-3.2v-1h4.5V474.7z"/>
	<path fill="#274391" d="M-158.3,477.3l0.4-3.3h3.6v1.1h-2.5l-0.2,1.4c0.3-0.2,0.6-0.2,1-0.2c0.6,0,1.1,0.2,1.4,0.6s0.5,0.9,0.5,1.6
		c0,0.4-0.1,0.8-0.3,1.1c-0.2,0.3-0.4,0.6-0.7,0.8c-0.3,0.2-0.7,0.3-1.2,0.3c-0.4,0-0.7-0.1-1.1-0.2c-0.3-0.2-0.6-0.4-0.8-0.7
		c-0.2-0.3-0.3-0.6-0.3-1h1.3c0,0.3,0.1,0.5,0.3,0.6c0.2,0.1,0.4,0.2,0.6,0.2c0.3,0,0.5-0.1,0.7-0.3c0.2-0.2,0.2-0.5,0.2-0.9
		c0-0.4-0.1-0.6-0.3-0.8s-0.4-0.3-0.8-0.3c-0.3,0-0.5,0.1-0.7,0.2l-0.1,0.1L-158.3,477.3z"/>
	<path fill="#274391" d="M-153.3,475.3c0-0.4,0.1-0.7,0.4-1c0.3-0.2,0.6-0.4,1-0.4c0.4,0,0.8,0.1,1,0.4c0.3,0.2,0.4,0.6,0.4,1v0.3
		c0,0.4-0.1,0.7-0.4,1s-0.6,0.4-1,0.4c-0.4,0-0.8-0.1-1-0.4c-0.3-0.2-0.4-0.6-0.4-1V475.3z M-152.5,475.6c0,0.2,0,0.3,0.2,0.4
		c0.1,0.1,0.2,0.2,0.4,0.2s0.3-0.1,0.4-0.2c0.1-0.1,0.1-0.3,0.1-0.4v-0.3c0-0.2,0-0.3-0.1-0.4c-0.1-0.1-0.2-0.2-0.4-0.2
		c-0.2,0-0.3,0.1-0.4,0.2c-0.1,0.1-0.1,0.3-0.1,0.4V475.6z M-151.7,479.9l-0.6-0.3l3.1-5l0.6,0.3L-151.7,479.9z M-150.2,478.9
		c0-0.4,0.1-0.7,0.4-1c0.3-0.2,0.6-0.4,1-0.4c0.4,0,0.8,0.1,1,0.4c0.3,0.2,0.4,0.6,0.4,1v0.3c0,0.4-0.1,0.7-0.4,1
		c-0.3,0.2-0.6,0.4-1,0.4c-0.4,0-0.8-0.1-1-0.4s-0.4-0.6-0.4-1V478.9z M-149.4,479.2c0,0.2,0.1,0.3,0.2,0.4s0.2,0.2,0.4,0.2
		c0.4,0,0.5-0.2,0.5-0.6v-0.3c0-0.2-0.1-0.3-0.2-0.4c-0.1-0.1-0.2-0.2-0.4-0.2c-0.2,0-0.3,0.1-0.4,0.2c-0.1,0.1-0.1,0.3-0.1,0.4
		V479.2z"/>
</g>
<g>
	<path fill="#F6D448" d="M-95.2,480.4h-1.3v-4.9L-98,476v-1l2.6-0.9h0.1V480.4z"/>
	<path fill="#F6D448" d="M-92.8,482l-0.7-0.3l0.2-0.3c0.2-0.4,0.3-0.7,0.3-1.1v-1h1.1l0,0.9c0,0.3-0.1,0.7-0.2,1
		C-92.3,481.5-92.5,481.8-92.8,482z"/>
	<path fill="#F6D448" d="M-86.6,477.8c0,0.9-0.2,1.6-0.5,2s-0.9,0.7-1.6,0.7c-0.7,0-1.2-0.2-1.6-0.7s-0.6-1.1-0.6-2v-1.2
		c0-0.9,0.2-1.6,0.6-2c0.4-0.5,0.9-0.7,1.6-0.7s1.2,0.2,1.6,0.7c0.4,0.5,0.6,1.1,0.6,2V477.8z M-87.9,476.5c0-0.5-0.1-0.9-0.2-1.2
		c-0.1-0.2-0.4-0.4-0.7-0.4c-0.3,0-0.5,0.1-0.7,0.3c-0.1,0.2-0.2,0.6-0.2,1.1v1.6c0,0.5,0.1,0.9,0.2,1.2c0.1,0.3,0.4,0.4,0.7,0.4
		c0.3,0,0.5-0.1,0.7-0.4c0.1-0.2,0.2-0.6,0.2-1.1V476.5z"/>
	<path fill="#F6D448" d="M-82.3,474v1h-0.1c-0.6,0-1,0.2-1.4,0.4c-0.4,0.3-0.6,0.7-0.6,1.2c0.3-0.3,0.8-0.5,1.3-0.5
		c0.6,0,1,0.2,1.3,0.6c0.3,0.4,0.5,0.9,0.5,1.6c0,0.4-0.1,0.8-0.3,1.1c-0.2,0.3-0.4,0.6-0.8,0.8c-0.3,0.2-0.7,0.3-1.1,0.3
		c-0.7,0-1.2-0.2-1.6-0.7c-0.4-0.5-0.6-1.1-0.6-1.9v-0.5c0-0.7,0.1-1.3,0.4-1.8c0.3-0.5,0.6-0.9,1.1-1.2c0.5-0.3,1.1-0.4,1.7-0.4
		H-82.3z M-83.6,477.2c-0.2,0-0.4,0.1-0.6,0.2c-0.2,0.1-0.3,0.2-0.4,0.4v0.4c0,0.4,0.1,0.8,0.3,1c0.2,0.2,0.4,0.4,0.7,0.4
		c0.3,0,0.5-0.1,0.7-0.3c0.2-0.2,0.3-0.5,0.3-0.8c0-0.3-0.1-0.6-0.3-0.8S-83.3,477.2-83.6,477.2z"/>
	<path fill="#F6D448" d="M-80.6,475.3c0-0.4,0.1-0.7,0.4-1c0.3-0.2,0.6-0.4,1-0.4c0.4,0,0.8,0.1,1,0.4c0.3,0.2,0.4,0.6,0.4,1v0.3
		c0,0.4-0.1,0.7-0.4,1s-0.6,0.4-1,0.4c-0.4,0-0.8-0.1-1-0.4c-0.3-0.2-0.4-0.6-0.4-1V475.3z M-79.8,475.6c0,0.2,0,0.3,0.2,0.4
		c0.1,0.1,0.2,0.2,0.4,0.2s0.3-0.1,0.4-0.2c0.1-0.1,0.1-0.3,0.1-0.4v-0.3c0-0.2,0-0.3-0.1-0.4c-0.1-0.1-0.2-0.2-0.4-0.2
		c-0.2,0-0.3,0.1-0.4,0.2c-0.1,0.1-0.1,0.3-0.1,0.4V475.6z M-79,479.9l-0.6-0.3l3.1-5l0.6,0.3L-79,479.9z M-77.6,478.9
		c0-0.4,0.1-0.7,0.4-1c0.3-0.2,0.6-0.4,1-0.4c0.4,0,0.8,0.1,1,0.4c0.3,0.2,0.4,0.6,0.4,1v0.3c0,0.4-0.1,0.7-0.4,1
		c-0.3,0.2-0.6,0.4-1,0.4c-0.4,0-0.8-0.1-1-0.4s-0.4-0.6-0.4-1V478.9z M-76.7,479.2c0,0.2,0.1,0.3,0.2,0.4s0.2,0.2,0.4,0.2
		c0.4,0,0.5-0.2,0.5-0.6v-0.3c0-0.2-0.1-0.3-0.2-0.4c-0.1-0.1-0.2-0.2-0.4-0.2c-0.2,0-0.3,0.1-0.4,0.2c-0.1,0.1-0.1,0.3-0.1,0.4
		V479.2z"/>
</g>
<g>
	<path fill="#274391" d="M-167.7,374c0,0.9-0.2,1.6-0.5,2s-0.9,0.7-1.6,0.7c-0.7,0-1.2-0.2-1.6-0.7c-0.4-0.5-0.6-1.1-0.6-2v-1.2
		c0-0.9,0.2-1.6,0.6-2c0.4-0.5,0.9-0.7,1.6-0.7s1.2,0.2,1.6,0.7c0.4,0.5,0.6,1.1,0.6,2V374z M-168.9,372.7c0-0.5-0.1-0.9-0.2-1.2
		c-0.1-0.2-0.4-0.4-0.7-0.4c-0.3,0-0.5,0.1-0.7,0.3c-0.1,0.2-0.2,0.6-0.2,1.1v1.6c0,0.5,0.1,0.9,0.2,1.2c0.1,0.3,0.4,0.4,0.7,0.4
		c0.3,0,0.5-0.1,0.7-0.4c0.1-0.2,0.2-0.6,0.2-1.1V372.7z"/>
	<path fill="#274391" d="M-166.4,378.3l-0.7-0.3l0.2-0.3c0.2-0.4,0.3-0.7,0.3-1.1v-1h1.1l0,0.9c0,0.3-0.1,0.7-0.2,1
		C-166,377.8-166.2,378.1-166.4,378.3z"/>
	<path fill="#274391" d="M-160.2,376.7h-4.4v-0.9l2.1-2.2c0.3-0.3,0.5-0.6,0.6-0.8c0.1-0.2,0.2-0.5,0.2-0.7c0-0.3-0.1-0.5-0.2-0.7
		c-0.1-0.2-0.3-0.2-0.6-0.2c-0.3,0-0.5,0.1-0.7,0.3c-0.2,0.2-0.2,0.5-0.2,0.8h-1.3c0-0.4,0.1-0.7,0.3-1.1c0.2-0.3,0.4-0.6,0.8-0.8
		c0.3-0.2,0.7-0.3,1.2-0.3c0.7,0,1.2,0.2,1.5,0.5c0.4,0.3,0.5,0.8,0.5,1.3c0,0.3-0.1,0.6-0.2,1s-0.4,0.7-0.8,1.1l-1.5,1.5h2.8V376.7
		z"/>
	<path fill="#274391" d="M-155.3,372c0,0.3-0.1,0.6-0.2,0.8c-0.2,0.2-0.4,0.4-0.6,0.6c0.3,0.1,0.6,0.4,0.7,0.6
		c0.2,0.3,0.3,0.6,0.3,0.9c0,0.6-0.2,1-0.6,1.3c-0.4,0.3-0.9,0.5-1.6,0.5s-1.2-0.2-1.6-0.5c-0.4-0.3-0.6-0.8-0.6-1.3
		c0-0.4,0.1-0.7,0.3-0.9s0.4-0.5,0.7-0.6c-0.3-0.1-0.5-0.3-0.6-0.6c-0.2-0.2-0.2-0.5-0.2-0.8c0-0.5,0.2-1,0.5-1.3
		c0.4-0.3,0.9-0.5,1.5-0.5c0.6,0,1.1,0.2,1.5,0.5C-155.5,371-155.3,371.4-155.3,372z M-156.4,374.8c0-0.3-0.1-0.5-0.2-0.7
		s-0.4-0.3-0.7-0.3c-0.3,0-0.5,0.1-0.6,0.2c-0.2,0.2-0.2,0.4-0.2,0.7c0,0.3,0.1,0.5,0.2,0.7s0.4,0.3,0.7,0.3c0.3,0,0.5-0.1,0.6-0.2
		C-156.5,375.3-156.4,375.1-156.4,374.8z M-156.6,372c0-0.2-0.1-0.4-0.2-0.6c-0.1-0.2-0.3-0.2-0.6-0.2c-0.2,0-0.4,0.1-0.6,0.2
		c-0.1,0.1-0.2,0.3-0.2,0.6c0,0.3,0.1,0.5,0.2,0.6c0.1,0.2,0.3,0.2,0.6,0.2s0.4-0.1,0.6-0.2C-156.6,372.5-156.6,372.3-156.6,372z"/>
	<path fill="#274391" d="M-154.3,371.5c0-0.4,0.1-0.7,0.4-1c0.3-0.2,0.6-0.4,1-0.4c0.4,0,0.8,0.1,1,0.4c0.3,0.2,0.4,0.6,0.4,1v0.3
		c0,0.4-0.1,0.7-0.4,1s-0.6,0.4-1,0.4c-0.4,0-0.8-0.1-1-0.4c-0.3-0.2-0.4-0.6-0.4-1V371.5z M-153.5,371.9c0,0.2,0,0.3,0.2,0.4
		c0.1,0.1,0.2,0.2,0.4,0.2s0.3-0.1,0.4-0.2c0.1-0.1,0.1-0.3,0.1-0.4v-0.3c0-0.2,0-0.3-0.1-0.4c-0.1-0.1-0.2-0.2-0.4-0.2
		c-0.2,0-0.3,0.1-0.4,0.2s-0.1,0.3-0.1,0.4V371.9z M-152.7,376.2l-0.6-0.3l3.1-5l0.6,0.3L-152.7,376.2z M-151.2,375.1
		c0-0.4,0.1-0.7,0.4-1c0.3-0.2,0.6-0.4,1-0.4c0.4,0,0.8,0.1,1,0.4c0.3,0.2,0.4,0.6,0.4,1v0.3c0,0.4-0.1,0.7-0.4,1
		c-0.3,0.2-0.6,0.4-1,0.4c-0.4,0-0.8-0.1-1-0.4c-0.3-0.2-0.4-0.6-0.4-1V375.1z M-150.4,375.5c0,0.2,0.1,0.3,0.2,0.4
		c0.1,0.1,0.2,0.2,0.4,0.2c0.4,0,0.5-0.2,0.5-0.6v-0.3c0-0.2-0.1-0.3-0.2-0.4s-0.2-0.2-0.4-0.2c-0.2,0-0.3,0.1-0.4,0.2
		s-0.1,0.3-0.1,0.4V375.5z"/>
</g>
<g>
	<path fill="#DC9928" d="M-94,374c0,0.9-0.2,1.6-0.5,2s-0.9,0.7-1.6,0.7c-0.7,0-1.2-0.2-1.6-0.7c-0.4-0.5-0.6-1.1-0.6-2v-1.2
		c0-0.9,0.2-1.6,0.6-2c0.4-0.5,0.9-0.7,1.6-0.7s1.2,0.2,1.6,0.7c0.4,0.5,0.6,1.1,0.6,2V374z M-95.3,372.7c0-0.5-0.1-0.9-0.2-1.2
		c-0.1-0.2-0.4-0.4-0.7-0.4c-0.3,0-0.5,0.1-0.7,0.3c-0.1,0.2-0.2,0.6-0.2,1.1v1.6c0,0.5,0.1,0.9,0.2,1.2c0.1,0.3,0.4,0.4,0.7,0.4
		c0.3,0,0.5-0.1,0.7-0.4c0.1-0.2,0.2-0.6,0.2-1.1V372.7z"/>
	<path fill="#DC9928" d="M-92.8,378.3l-0.7-0.3l0.2-0.3c0.2-0.4,0.3-0.7,0.3-1.1v-1h1.1l0,0.9c0,0.3-0.1,0.7-0.2,1
		C-92.3,377.8-92.5,378.1-92.8,378.3z"/>
	<path fill="#DC9928" d="M-89.6,372.9h0.7c0.3,0,0.6-0.1,0.7-0.2c0.2-0.2,0.2-0.4,0.2-0.6c0-0.3-0.1-0.5-0.2-0.6
		c-0.2-0.1-0.4-0.2-0.6-0.2c-0.2,0-0.4,0.1-0.6,0.2c-0.2,0.1-0.2,0.3-0.2,0.5H-91c0-0.3,0.1-0.6,0.3-0.9c0.2-0.3,0.4-0.5,0.8-0.6
		c0.3-0.2,0.7-0.2,1.1-0.2c0.7,0,1.2,0.2,1.6,0.5c0.4,0.3,0.6,0.8,0.6,1.3c0,0.3-0.1,0.6-0.3,0.8c-0.2,0.2-0.4,0.4-0.7,0.6
		c0.4,0.1,0.6,0.3,0.8,0.6c0.2,0.3,0.3,0.6,0.3,0.9c0,0.6-0.2,1-0.6,1.4c-0.4,0.3-1,0.5-1.6,0.5c-0.6,0-1.2-0.2-1.6-0.5
		c-0.4-0.3-0.6-0.8-0.6-1.3h1.3c0,0.2,0.1,0.4,0.3,0.6c0.2,0.2,0.4,0.2,0.7,0.2c0.3,0,0.5-0.1,0.7-0.2c0.2-0.2,0.3-0.4,0.3-0.6
		c0-0.6-0.4-1-1.1-1h-0.7V372.9z"/>
	<path fill="#DC9928" d="M-82.8,374.1c-0.3,0.3-0.7,0.5-1.2,0.5c-0.6,0-1-0.2-1.4-0.6c-0.3-0.4-0.5-0.9-0.5-1.6
		c0-0.4,0.1-0.8,0.3-1.2c0.2-0.3,0.4-0.6,0.8-0.8c0.3-0.2,0.7-0.3,1.1-0.3c0.4,0,0.8,0.1,1.1,0.3c0.3,0.2,0.6,0.5,0.8,0.9
		c0.2,0.4,0.3,0.8,0.3,1.4v0.5c0,1.1-0.3,1.9-0.8,2.5c-0.5,0.6-1.3,0.9-2.3,1l-0.3,0v-1.1l0.3,0C-83.5,375.6-82.9,375.1-82.8,374.1z
		 M-83.7,373.6c0.2,0,0.4-0.1,0.5-0.2c0.1-0.1,0.3-0.2,0.3-0.4v-0.5c0-0.4-0.1-0.8-0.2-1c-0.2-0.2-0.4-0.4-0.7-0.4
		c-0.3,0-0.5,0.1-0.6,0.3c-0.2,0.2-0.2,0.5-0.2,0.9c0,0.3,0.1,0.6,0.2,0.9C-84.2,373.5-83.9,373.6-83.7,373.6z"/>
	<path fill="#DC9928" d="M-80.6,371.5c0-0.4,0.1-0.7,0.4-1c0.3-0.2,0.6-0.4,1-0.4c0.4,0,0.8,0.1,1,0.4c0.3,0.2,0.4,0.6,0.4,1v0.3
		c0,0.4-0.1,0.7-0.4,1s-0.6,0.4-1,0.4c-0.4,0-0.8-0.1-1-0.4c-0.3-0.2-0.4-0.6-0.4-1V371.5z M-79.8,371.9c0,0.2,0,0.3,0.2,0.4
		c0.1,0.1,0.2,0.2,0.4,0.2s0.3-0.1,0.4-0.2c0.1-0.1,0.1-0.3,0.1-0.4v-0.3c0-0.2,0-0.3-0.1-0.4c-0.1-0.1-0.2-0.2-0.4-0.2
		c-0.2,0-0.3,0.1-0.4,0.2s-0.1,0.3-0.1,0.4V371.9z M-79,376.2l-0.6-0.3l3.1-5l0.6,0.3L-79,376.2z M-77.6,375.1c0-0.4,0.1-0.7,0.4-1
		c0.3-0.2,0.6-0.4,1-0.4c0.4,0,0.8,0.1,1,0.4c0.3,0.2,0.4,0.6,0.4,1v0.3c0,0.4-0.1,0.7-0.4,1c-0.3,0.2-0.6,0.4-1,0.4
		c-0.4,0-0.8-0.1-1-0.4c-0.3-0.2-0.4-0.6-0.4-1V375.1z M-76.7,375.5c0,0.2,0.1,0.3,0.2,0.4c0.1,0.1,0.2,0.2,0.4,0.2
		c0.4,0,0.5-0.2,0.5-0.6v-0.3c0-0.2-0.1-0.3-0.2-0.4s-0.2-0.2-0.4-0.2c-0.2,0-0.3,0.1-0.4,0.2s-0.1,0.3-0.1,0.4V375.5z"/>
</g>
<g>
	<path fill="#89181B" d="M-28.5,376.7h-1.3v-4.9l-1.5,0.5v-1l2.6-0.9h0.1V376.7z"/>
	<path fill="#89181B" d="M-26,378.3l-0.7-0.3l0.2-0.3c0.2-0.4,0.3-0.7,0.3-1.1v-1h1.1l0,0.9c0,0.3-0.1,0.7-0.2,1
		C-25.6,377.8-25.8,378.1-26,378.3z"/>
	<path fill="#89181B" d="M-20.8,370.2v1h-0.1c-0.6,0-1,0.2-1.4,0.4c-0.4,0.3-0.6,0.7-0.6,1.2c0.3-0.3,0.8-0.5,1.3-0.5
		c0.6,0,1,0.2,1.3,0.6c0.3,0.4,0.5,0.9,0.5,1.6c0,0.4-0.1,0.8-0.3,1.1c-0.2,0.3-0.4,0.6-0.8,0.8c-0.3,0.2-0.7,0.3-1.1,0.3
		c-0.7,0-1.2-0.2-1.6-0.7c-0.4-0.5-0.6-1.1-0.6-1.9v-0.5c0-0.7,0.1-1.3,0.4-1.8c0.3-0.5,0.6-0.9,1.1-1.2c0.5-0.3,1.1-0.4,1.7-0.4
		H-20.8z M-22,373.4c-0.2,0-0.4,0.1-0.6,0.2c-0.2,0.1-0.3,0.2-0.4,0.4v0.4c0,0.4,0.1,0.8,0.3,1c0.2,0.2,0.4,0.4,0.7,0.4
		c0.3,0,0.5-0.1,0.7-0.3c0.2-0.2,0.3-0.5,0.3-0.8c0-0.3-0.1-0.6-0.3-0.8C-21.5,373.5-21.7,373.4-22,373.4z"/>
	<path fill="#89181B" d="M-18.9,373.5l0.4-3.3h3.6v1.1h-2.5l-0.2,1.4c0.3-0.2,0.6-0.2,1-0.2c0.6,0,1.1,0.2,1.4,0.6s0.5,0.9,0.5,1.6
		c0,0.4-0.1,0.8-0.3,1.1c-0.2,0.3-0.4,0.6-0.7,0.8c-0.3,0.2-0.7,0.3-1.2,0.3c-0.4,0-0.7-0.1-1.1-0.2c-0.3-0.2-0.6-0.4-0.8-0.7
		c-0.2-0.3-0.3-0.6-0.3-1h1.3c0,0.3,0.1,0.5,0.3,0.6c0.2,0.1,0.4,0.2,0.6,0.2c0.3,0,0.5-0.1,0.7-0.3c0.2-0.2,0.2-0.5,0.2-0.9
		c0-0.4-0.1-0.6-0.3-0.8s-0.4-0.3-0.8-0.3c-0.3,0-0.5,0.1-0.7,0.2l-0.1,0.1L-18.9,373.5z"/>
	<path fill="#89181B" d="M-13.9,371.5c0-0.4,0.1-0.7,0.4-1c0.3-0.2,0.6-0.4,1-0.4c0.4,0,0.8,0.1,1,0.4c0.3,0.2,0.4,0.6,0.4,1v0.3
		c0,0.4-0.1,0.7-0.4,1s-0.6,0.4-1,0.4c-0.4,0-0.8-0.1-1-0.4c-0.3-0.2-0.4-0.6-0.4-1V371.5z M-13.1,371.9c0,0.2,0,0.3,0.2,0.4
		c0.1,0.1,0.2,0.2,0.4,0.2s0.3-0.1,0.4-0.2c0.1-0.1,0.1-0.3,0.1-0.4v-0.3c0-0.2,0-0.3-0.1-0.4c-0.1-0.1-0.2-0.2-0.4-0.2
		c-0.2,0-0.3,0.1-0.4,0.2s-0.1,0.3-0.1,0.4V371.9z M-12.3,376.2l-0.6-0.3l3.1-5l0.6,0.3L-12.3,376.2z M-10.8,375.1
		c0-0.4,0.1-0.7,0.4-1c0.3-0.2,0.6-0.4,1-0.4c0.4,0,0.8,0.1,1,0.4c0.3,0.2,0.4,0.6,0.4,1v0.3c0,0.4-0.1,0.7-0.4,1
		c-0.3,0.2-0.6,0.4-1,0.4c-0.4,0-0.8-0.1-1-0.4c-0.3-0.2-0.4-0.6-0.4-1V375.1z M-10,375.5c0,0.2,0.1,0.3,0.2,0.4
		c0.1,0.1,0.2,0.2,0.4,0.2c0.4,0,0.5-0.2,0.5-0.6v-0.3c0-0.2-0.1-0.3-0.2-0.4s-0.2-0.2-0.4-0.2c-0.2,0-0.3,0.1-0.4,0.2
		s-0.1,0.3-0.1,0.4V375.5z"/>
</g>
</svg>
