<?xml version="1.0" encoding="utf-8"?>
<!-- Generator: Adobe Illustrator 18.1.1, SVG Export Plug-In . SVG Version: 6.00 Build 0)  -->
<svg version="1.1" id="Camada_1" xmlns="http://www.w3.org/2000/svg" xmlns:xlink="http://www.w3.org/1999/xlink" x="0px" y="0px"
	 viewBox="0 299.9 595.3 426" enable-background="new 0 299.9 595.3 426" xml:space="preserve">
<g>
	<g>
		<path fill="#D9D9D9" d="M582.5,631.5H43.6v-0.7h538.8L582.5,631.5L582.5,631.5z M582.5,592.3H43.6v-0.7h538.8L582.5,592.3
			L582.5,592.3z M582.5,553.1H43.6v-0.7h538.8L582.5,553.1L582.5,553.1z M582.5,514H43.6v-0.7h538.8L582.5,514L582.5,514z
			 M582.5,474.7H43.6v-0.9h538.8L582.5,474.7L582.5,474.7z M582.5,435.5H43.6v-0.7h538.8L582.5,435.5L582.5,435.5z M582.5,396.4
			H43.6v-0.7h538.8L582.5,396.4L582.5,396.4z M582.5,357.1H43.6v-0.7h538.8L582.5,357.1L582.5,357.1z M582.5,318H43.6v-0.7h538.8
			L582.5,318L582.5,318z"/>
	</g>
</g>
<g>
	<g>
		<polygon fill="#ED7D31" points="94.9,343.6 158.6,343.6 158.6,670.2 94.9,670.2 		"/>
	</g>
</g>
<g>
	<g>
		<polygon fill="#FFC000" points="245,611.6 308.8,611.6 308.8,670.2 245,670.2 		"/>
	</g>
</g>
<g>
	<g>
		<rect x="41.5" y="669.8" fill="#D9D9D9" width="541" height="0.7"/>
	</g>
</g>
<g enable-background="new    ">
	<path d="M77.8,332.8c0-1.3,0.8-2.2,2-2.7l0,0c-1.1-0.5-1.6-1.4-1.6-2.3c0-1.6,1.3-2.7,3.1-2.7c1.9,0,2.9,1.2,2.9,2.5
		c0,0.9-0.4,1.8-1.7,2.3v0c1.3,0.5,2,1.4,2,2.6c0,1.7-1.5,2.9-3.4,2.9C79.1,335.5,77.8,334.2,77.8,332.8z M83.2,332.7
		c0-1.2-0.9-1.8-2.2-2.2c-1.2,0.3-1.8,1.1-1.8,2.1c0,1,0.7,1.9,2,1.9C82.5,334.5,83.2,333.8,83.2,332.7z M79.5,327.7
		c0,1,0.8,1.5,1.9,1.9c0.9-0.3,1.5-0.9,1.5-1.8c0-0.8-0.5-1.6-1.7-1.6C80.1,326.1,79.5,326.8,79.5,327.7z"/>
	<path d="M86.2,333.8c0.4,0.2,1.3,0.6,2.2,0.6c1.7,0,2.3-1.1,2.3-1.9c0-1.4-1.3-2-2.6-2h-0.8v-1h0.8c1,0,2.2-0.5,2.2-1.7
		c0-0.8-0.5-1.5-1.8-1.5c-0.8,0-1.6,0.4-2,0.7l-0.4-1c0.5-0.4,1.5-0.8,2.6-0.8c2,0,2.9,1.2,2.9,2.4c0,1-0.6,1.9-1.9,2.4v0
		c1.2,0.2,2.2,1.2,2.2,2.6c0,1.6-1.3,3-3.7,3c-1.1,0-2.1-0.4-2.6-0.7L86.2,333.8z"/>
	<path d="M93.4,337.2c0.3-0.9,0.8-2.6,0.9-3.7l1.5-0.2c-0.4,1.3-1,3-1.5,3.8L93.4,337.2z"/>
	<path d="M97.3,333.8c0.4,0.2,1.3,0.6,2.2,0.6c1.7,0,2.3-1.1,2.3-1.9c0-1.4-1.3-2-2.6-2h-0.8v-1h0.8c1,0,2.2-0.5,2.2-1.7
		c0-0.8-0.5-1.5-1.8-1.5c-0.8,0-1.6,0.4-2,0.7l-0.4-1c0.5-0.4,1.5-0.8,2.6-0.8c2,0,2.9,1.2,2.9,2.4c0,1-0.6,1.9-1.9,2.4v0
		c1.2,0.2,2.2,1.2,2.2,2.6c0,1.6-1.3,3-3.7,3c-1.1,0-2.1-0.4-2.6-0.7L97.3,333.8z"/>
	<path d="M109.1,335.3v-2.7h-4.7v-0.9l4.5-6.4h1.5v6.2h1.4v1.1h-1.4v2.7H109.1z M109.1,331.5v-3.4c0-0.5,0-1.1,0-1.6h0
		c-0.3,0.6-0.6,1-0.8,1.5l-2.5,3.4v0H109.1z"/>
	<path d="M117.4,328.1c0,2.1-1.1,3.2-2.4,3.2c-1.3,0-2.3-1-2.3-3c0-2,1.1-3.1,2.4-3.1C116.5,325.1,117.4,326.2,117.4,328.1z
		 M113.7,328.2c0,1.3,0.4,2.3,1.3,2.3c0.9,0,1.3-1,1.3-2.3c0-1.2-0.4-2.2-1.3-2.2C114.2,325.9,113.7,326.9,113.7,328.2z
		 M114.9,335.5l5.9-10.4h0.9l-5.9,10.4H114.9z M123.9,332.3c0,2.1-1.1,3.2-2.4,3.2c-1.3,0-2.3-1-2.3-3c0-2,1.1-3.2,2.4-3.2
		C123,329.3,123.9,330.4,123.9,332.3z M120.3,332.4c0,1.3,0.5,2.3,1.3,2.3c0.9,0,1.3-1,1.3-2.3c0-1.2-0.4-2.2-1.3-2.2
		C120.7,330.1,120.3,331.1,120.3,332.4z"/>
	<path d="M128.5,324.6c-1.1,1.5-1.9,3.5-1.9,6.3c0,2.8,0.9,4.7,1.9,6.3h-1.1c-1-1.3-2-3.3-2-6.3c0-3,1.1-5,2-6.3H128.5z"/>
	<path d="M132.4,326.6L132.4,326.6l-1.8,0.9l-0.3-1l2.2-1.2h1.2v10h-1.3V326.6z"/>
	<path d="M137.5,334.5c0-0.6,0.4-1,0.9-1c0.5,0,0.9,0.4,0.9,1c0,0.6-0.4,1-0.9,1C137.9,335.5,137.5,335.1,137.5,334.5z"/>
	<path d="M140.5,332.8c0-1.3,0.8-2.2,2-2.7l0,0c-1.1-0.5-1.6-1.4-1.6-2.3c0-1.6,1.3-2.7,3.1-2.7c1.9,0,2.9,1.2,2.9,2.5
		c0,0.9-0.4,1.8-1.7,2.3v0c1.3,0.5,2,1.4,2,2.6c0,1.7-1.5,2.9-3.4,2.9C141.8,335.5,140.5,334.2,140.5,332.8z M145.9,332.7
		c0-1.2-0.9-1.8-2.2-2.2c-1.2,0.3-1.8,1.1-1.8,2.1c0,1,0.7,1.9,2,1.9C145.1,334.5,145.9,333.8,145.9,332.7z M142.2,327.7
		c0,1,0.8,1.5,1.9,1.9c0.9-0.3,1.5-0.9,1.5-1.8c0-0.8-0.5-1.6-1.7-1.6C142.8,326.1,142.2,326.8,142.2,327.7z"/>
	<path d="M152.8,335.3v-2.7h-4.7v-0.9l4.5-6.4h1.5v6.2h1.4v1.1H154v2.7H152.8z M152.8,331.5v-3.4c0-0.5,0-1.1,0-1.6h0
		c-0.3,0.6-0.6,1-0.8,1.5l-2.5,3.4v0H152.8z"/>
	<path d="M160.7,335.3v-2.7H156v-0.9l4.5-6.4h1.5v6.2h1.4v1.1H162v2.7H160.7z M160.7,331.5v-3.4c0-0.5,0-1.1,0-1.6h0
		c-0.3,0.6-0.6,1-0.8,1.5l-2.5,3.4v0H160.7z"/>
	<path d="M164.5,334.5c0-0.6,0.4-1,0.9-1c0.5,0,0.9,0.4,0.9,1c0,0.6-0.4,1-0.9,1C164.9,335.5,164.5,335.1,164.5,334.5z"/>
	<path d="M173.3,326.2c-0.3,0-0.6,0-1,0.1c-2.1,0.4-3.3,1.9-3.5,3.6h0c0.5-0.6,1.3-1.2,2.4-1.2c1.8,0,3,1.3,3,3.2
		c0,1.8-1.3,3.5-3.3,3.5c-2.1,0-3.6-1.7-3.6-4.3c0-2,0.7-3.5,1.7-4.5c0.8-0.8,1.9-1.3,3.2-1.5c0.4-0.1,0.7-0.1,1-0.1V326.2z
		 M173,332c0-1.4-0.8-2.3-2.1-2.3c-0.8,0-1.6,0.5-1.9,1.2c-0.1,0.2-0.2,0.4-0.2,0.6c0,1.7,0.8,2.9,2.2,2.9
		C172.2,334.4,173,333.5,173,332z"/>
	<path d="M175.9,333.8c0.4,0.2,1.3,0.6,2.2,0.6c1.7,0,2.3-1.1,2.3-1.9c0-1.4-1.3-2-2.6-2H177v-1h0.8c1,0,2.2-0.5,2.2-1.7
		c0-0.8-0.5-1.5-1.8-1.5c-0.8,0-1.6,0.4-2,0.7l-0.4-1c0.5-0.4,1.5-0.8,2.6-0.8c2,0,2.9,1.2,2.9,2.4c0,1-0.6,1.9-1.9,2.4v0
		c1.2,0.2,2.2,1.2,2.2,2.6c0,1.6-1.3,3-3.7,3c-1.1,0-2.1-0.4-2.6-0.7L175.9,333.8z"/>
	<path d="M186.4,326.6L186.4,326.6l-1.8,0.9l-0.3-1l2.2-1.2h1.2v10h-1.3V326.6z"/>
	<path d="M191,337.2c1.1-1.5,1.9-3.5,1.9-6.3c0-2.8-0.8-4.7-1.9-6.3h1.1c1,1.3,2,3.2,2,6.3c0,3-1,5-2,6.3H191z"/>
</g>
<g enable-background="new    ">
	<path d="M231.7,599.3L231.7,599.3l-1.7,0.9l-0.3-1l2.1-1.1h1.1v9.7h-1.3V599.3z"/>
	<path d="M240.5,607.8v-2.6H236v-0.9l4.3-6.2h1.4v6h1.4v1h-1.4v2.6H240.5z M240.5,604.1v-3.2c0-0.5,0-1,0-1.5h0
		c-0.3,0.6-0.5,1-0.8,1.4l-2.4,3.3v0H240.5z"/>
	<path d="M243.7,609.6c0.3-0.9,0.7-2.5,0.9-3.6l1.5-0.1c-0.3,1.3-1,2.9-1.4,3.6L243.7,609.6z"/>
	<path d="M248,606.9c0.3,0,0.6,0,1.1,0c0.8-0.1,1.5-0.4,2-0.9c0.6-0.6,1.1-1.4,1.3-2.6h0c-0.5,0.7-1.3,1-2.3,1c-1.7,0-2.9-1.3-2.9-3
		c0-1.8,1.3-3.4,3.3-3.4c2,0,3.2,1.6,3.2,4.1c0,2.1-0.7,3.6-1.7,4.5c-0.7,0.7-1.8,1.2-2.8,1.3c-0.5,0.1-0.9,0.1-1.2,0.1V606.9z
		 M248.5,601.3c0,1.2,0.7,2.1,1.9,2.1c0.9,0,1.6-0.4,1.9-1c0.1-0.1,0.1-0.3,0.1-0.5c0-1.7-0.6-2.9-2-2.9
		C249.2,598.9,248.5,599.9,248.5,601.3z"/>
	<path d="M260.7,599.2H257l-0.4,2.5c0.2,0,0.4-0.1,0.8-0.1c0.7,0,1.5,0.2,2.1,0.5c0.8,0.4,1.4,1.3,1.4,2.5c0,1.9-1.5,3.3-3.6,3.3
		c-1.1,0-2-0.3-2.4-0.6l0.3-1c0.4,0.2,1.2,0.5,2.1,0.5c1.2,0,2.3-0.8,2.3-2.1c0-1.3-0.9-2.1-2.8-2.1c-0.6,0-1,0.1-1.3,0.1l0.6-4.7
		h4.6V599.2z"/>
	<path d="M266.9,600.8c0,2-1.1,3.1-2.3,3.1c-1.2,0-2.3-1-2.3-2.9c0-1.9,1.1-3,2.3-3C266,597.9,266.9,599,266.9,600.8z M263.3,600.9
		c0,1.2,0.4,2.2,1.3,2.2c0.9,0,1.3-0.9,1.3-2.2c0-1.2-0.3-2.2-1.3-2.2C263.8,598.7,263.3,599.7,263.3,600.9z M264.5,608l5.7-10h0.8
		l-5.7,10H264.5z M273.2,604.9c0,2-1.1,3.1-2.3,3.1c-1.2,0-2.3-1-2.3-2.9c0-2,1.1-3,2.3-3C272.3,602,273.2,603,273.2,604.9z
		 M269.6,604.9c0,1.2,0.5,2.2,1.3,2.2c0.9,0,1.3-0.9,1.3-2.2c0-1.2-0.3-2.2-1.3-2.2C270.1,602.7,269.6,603.7,269.6,604.9z"/>
	<path d="M277.6,597.5c-1.1,1.5-1.9,3.4-1.9,6.1c0,2.7,0.8,4.6,1.9,6.1h-1c-0.9-1.2-2-3.1-2-6.1c0-2.9,1-4.8,2-6.1H277.6z"/>
	<path d="M278.9,606.3c0.4,0.2,1.2,0.6,2.1,0.6c1.7,0,2.2-1.1,2.2-1.9c0-1.4-1.2-1.9-2.5-1.9H280v-1h0.7c1,0,2.2-0.5,2.2-1.6
		c0-0.8-0.5-1.5-1.7-1.5c-0.8,0-1.5,0.3-1.9,0.6l-0.3-1c0.5-0.4,1.5-0.7,2.5-0.7c1.9,0,2.8,1.1,2.8,2.3c0,1-0.6,1.8-1.8,2.3v0
		c1.2,0.2,2.2,1.1,2.2,2.5c0,1.6-1.2,2.9-3.5,2.9c-1.1,0-2-0.3-2.5-0.7L278.9,606.3z"/>
	<path d="M286.5,606.3c0.4,0.2,1.2,0.6,2.1,0.6c1.7,0,2.2-1.1,2.2-1.9c0-1.4-1.2-1.9-2.5-1.9h-0.7v-1h0.7c1,0,2.2-0.5,2.2-1.6
		c0-0.8-0.5-1.5-1.7-1.5c-0.8,0-1.5,0.3-1.9,0.6l-0.3-1c0.5-0.4,1.5-0.7,2.5-0.7c1.9,0,2.8,1.1,2.8,2.3c0,1-0.6,1.8-1.8,2.3v0
		c1.2,0.2,2.2,1.1,2.2,2.5c0,1.6-1.2,2.9-3.5,2.9c-1.1,0-2-0.3-2.5-0.7L286.5,606.3z"/>
	<path d="M300.3,602.9c0,3.3-1.2,5.1-3.4,5.1c-1.9,0-3.2-1.8-3.2-5c0-3.3,1.4-5,3.4-5C299.1,597.9,300.3,599.8,300.3,602.9z
		 M295,603c0,2.5,0.8,4,2,4c1.3,0,2-1.6,2-4c0-2.4-0.6-4-2-4C295.9,599,295,600.4,295,603z"/>
	<path d="M301.6,607c0-0.6,0.4-0.9,0.9-0.9c0.5,0,0.9,0.4,0.9,0.9c0,0.5-0.3,0.9-0.9,0.9C302,608,301.6,607.6,301.6,607z"/>
	<path d="M305.4,606.9c0.3,0,0.6,0,1.1,0c0.8-0.1,1.5-0.4,2-0.9c0.6-0.6,1.1-1.4,1.3-2.6h0c-0.5,0.7-1.3,1-2.3,1
		c-1.7,0-2.9-1.3-2.9-3c0-1.8,1.3-3.4,3.3-3.4s3.2,1.6,3.2,4.1c0,2.1-0.7,3.6-1.7,4.5c-0.7,0.7-1.8,1.2-2.8,1.3
		c-0.5,0.1-0.9,0.1-1.2,0.1V606.9z M305.8,601.3c0,1.2,0.7,2.1,1.9,2.1c0.9,0,1.6-0.4,1.9-1c0.1-0.1,0.1-0.3,0.1-0.5
		c0-1.7-0.6-2.9-2-2.9C306.6,598.9,305.8,599.9,305.8,601.3z"/>
	<path d="M315.1,599.3L315.1,599.3l-1.7,0.9l-0.3-1l2.1-1.1h1.1v9.7h-1.3V599.3z"/>
	<path d="M319.9,607.8V607l1-1c2.5-2.4,3.6-3.6,3.6-5.1c0-1-0.5-1.9-1.9-1.9c-0.9,0-1.6,0.4-2.1,0.8l-0.4-0.9c0.7-0.6,1.6-1,2.7-1
		c2.1,0,3,1.4,3,2.8c0,1.8-1.3,3.2-3.3,5.2l-0.8,0.7v0h4.4v1.1H319.9z"/>
	<path d="M327.2,609.6c1.1-1.5,1.9-3.4,1.9-6.1c0-2.7-0.8-4.6-1.9-6.1h1c1,1.2,2,3.1,2,6.1c0,2.9-1,4.8-2,6.1H327.2z"/>
</g>
<g enable-background="new    ">
	<path d="M371.6,651.9L371.6,651.9l-1.7,0.9l-0.3-1l2.1-1.1h1.1v9.7h-1.3V651.9z"/>
	<path d="M375.9,662.2c0.3-0.9,0.7-2.5,0.9-3.6l1.5-0.1c-0.3,1.3-1,2.9-1.4,3.6L375.9,662.2z"/>
	<path d="M385,651.6c-0.3,0-0.6,0-1,0.1c-2.1,0.3-3.1,1.8-3.4,3.4h0c0.5-0.6,1.3-1.1,2.3-1.1c1.7,0,2.9,1.2,2.9,3.1
		c0,1.8-1.2,3.4-3.2,3.4c-2.1,0-3.4-1.6-3.4-4.1c0-1.9,0.7-3.4,1.6-4.4c0.8-0.8,1.9-1.3,3.1-1.4c0.4-0.1,0.7-0.1,1-0.1V651.6z
		 M384.6,657.2c0-1.4-0.8-2.2-2-2.2c-0.8,0-1.5,0.5-1.9,1.2c-0.1,0.1-0.1,0.3-0.1,0.6c0,1.6,0.8,2.8,2.1,2.8
		C383.8,659.6,384.6,658.6,384.6,657.2z"/>
	<path d="M389.9,651.9L389.9,651.9l-1.7,0.9l-0.3-1l2.1-1.1h1.1v9.7h-1.3V651.9z"/>
	<path d="M399.1,653.4c0,2-1.1,3.1-2.3,3.1c-1.2,0-2.3-1-2.3-2.9c0-1.9,1.1-3,2.3-3C398.2,650.6,399.1,651.6,399.1,653.4z
		 M395.6,653.5c0,1.2,0.4,2.2,1.3,2.2c0.9,0,1.3-0.9,1.3-2.2c0-1.2-0.3-2.2-1.3-2.2C396,651.3,395.6,652.3,395.6,653.5z
		 M396.7,660.6l5.7-10h0.8l-5.7,10H396.7z M405.4,657.5c0,2-1.1,3.1-2.3,3.1c-1.2,0-2.3-1-2.3-2.9c0-2,1.1-3,2.3-3
		C404.5,654.6,405.4,655.6,405.4,657.5z M401.9,657.5c0,1.2,0.5,2.2,1.3,2.2c0.9,0,1.3-0.9,1.3-2.2c0-1.2-0.3-2.2-1.3-2.2
		C402.3,655.4,401.9,656.3,401.9,657.5z"/>
	<path d="M409.8,650.1c-1.1,1.5-1.9,3.4-1.9,6.1c0,2.7,0.8,4.6,1.9,6.1h-1c-0.9-1.2-2-3.1-2-6.1c0-2.9,1-4.8,2-6.1H409.8z"/>
	<path d="M411.1,658.9c0.4,0.2,1.2,0.6,2.1,0.6c1.7,0,2.2-1.1,2.2-1.9c0-1.4-1.2-1.9-2.5-1.9h-0.7v-1h0.7c1,0,2.2-0.5,2.2-1.6
		c0-0.8-0.5-1.5-1.7-1.5c-0.8,0-1.5,0.3-1.9,0.6l-0.3-1c0.5-0.4,1.5-0.7,2.5-0.7c1.9,0,2.8,1.1,2.8,2.3c0,1-0.6,1.8-1.8,2.3v0
		c1.2,0.2,2.2,1.1,2.2,2.5c0,1.6-1.2,2.9-3.5,2.9c-1.1,0-2-0.3-2.5-0.7L411.1,658.9z"/>
	<path d="M424.2,651.8h-3.7l-0.4,2.5c0.2,0,0.4-0.1,0.8-0.1c0.7,0,1.5,0.2,2.1,0.5c0.8,0.4,1.4,1.3,1.4,2.5c0,1.9-1.5,3.3-3.6,3.3
		c-1.1,0-2-0.3-2.4-0.6l0.3-1c0.4,0.2,1.2,0.5,2.1,0.5c1.2,0,2.3-0.8,2.3-2.1c0-1.3-0.8-2.1-2.8-2.1c-0.6,0-1,0.1-1.3,0.1l0.6-4.7
		h4.6V651.8z"/>
	<path d="M426.2,659.6c0-0.6,0.4-0.9,0.9-0.9c0.5,0,0.9,0.4,0.9,0.9c0,0.5-0.3,0.9-0.9,0.9C426.5,660.6,426.2,660.2,426.2,659.6z"/>
	<path d="M434.7,651.6c-0.3,0-0.6,0-1,0.1c-2.1,0.3-3.1,1.8-3.4,3.4h0c0.5-0.6,1.3-1.1,2.3-1.1c1.7,0,2.9,1.2,2.9,3.1
		c0,1.8-1.2,3.4-3.2,3.4c-2.1,0-3.4-1.6-3.4-4.1c0-1.9,0.7-3.4,1.6-4.4c0.8-0.8,1.9-1.3,3.1-1.4c0.4-0.1,0.7-0.1,1-0.1V651.6z
		 M434.3,657.2c0-1.4-0.8-2.2-2-2.2c-0.8,0-1.5,0.5-1.9,1.2c-0.1,0.1-0.1,0.3-0.1,0.6c0,1.6,0.8,2.8,2.1,2.8
		C433.6,659.6,434.3,658.6,434.3,657.2z"/>
	<path d="M437.1,658.9c0.4,0.2,1.2,0.6,2.1,0.6c1.7,0,2.2-1.1,2.2-1.9c0-1.4-1.2-1.9-2.5-1.9h-0.7v-1h0.7c1,0,2.2-0.5,2.2-1.6
		c0-0.8-0.5-1.5-1.7-1.5c-0.8,0-1.5,0.3-1.9,0.6l-0.3-1c0.5-0.4,1.5-0.7,2.5-0.7c1.9,0,2.8,1.1,2.8,2.3c0,1-0.6,1.8-1.8,2.3v0
		c1.2,0.2,2.2,1.1,2.2,2.5c0,1.6-1.2,2.9-3.5,2.9c-1.1,0-2-0.3-2.5-0.7L437.1,658.9z"/>
	<path d="M445.2,659.5c0.3,0,0.6,0,1.1,0c0.8-0.1,1.5-0.4,2-0.9c0.6-0.6,1.1-1.4,1.3-2.6h0c-0.5,0.7-1.3,1-2.3,1
		c-1.7,0-2.9-1.3-2.9-3c0-1.8,1.3-3.4,3.3-3.4s3.2,1.6,3.2,4.1c0,2.1-0.7,3.6-1.7,4.5c-0.7,0.7-1.8,1.2-2.8,1.3
		c-0.5,0.1-0.9,0.1-1.2,0.1V659.5z M445.7,653.9c0,1.2,0.7,2.1,1.9,2.1c0.9,0,1.6-0.4,1.9-1c0.1-0.1,0.1-0.3,0.1-0.5
		c0-1.7-0.6-2.9-2-2.9C446.5,651.6,445.7,652.5,445.7,653.9z"/>
	<path d="M451.8,662.2c1.1-1.5,1.9-3.4,1.9-6.1c0-2.7-0.8-4.6-1.9-6.1h1c1,1.2,2,3.1,2,6.1c0,2.9-1,4.8-2,6.1H451.8z"/>
</g>
<g enable-background="new    ">
	<path d="M501.4,660.4c0,3.3-1.2,5.1-3.4,5.1c-1.9,0-3.2-1.8-3.2-5c0-3.3,1.4-5,3.4-5C500.3,655.5,501.4,657.3,501.4,660.4z
		 M496.2,660.6c0,2.5,0.8,4,2,4c1.3,0,2-1.6,2-4c0-2.4-0.6-4-2-4C497,656.5,496.2,657.9,496.2,660.6z"/>
	<path d="M502.2,667.2c0.3-0.9,0.7-2.5,0.9-3.6l1.5-0.1c-0.3,1.3-1,2.9-1.4,3.6L502.2,667.2z"/>
	<path d="M508.6,656.9L508.6,656.9l-1.7,0.9l-0.3-1l2.1-1.1h1.1v9.7h-1.3V656.9z"/>
	<path d="M519.8,660.4c0,3.3-1.2,5.1-3.4,5.1c-1.9,0-3.2-1.8-3.2-5c0-3.3,1.4-5,3.4-5C518.6,655.5,519.8,657.3,519.8,660.4z
		 M514.5,660.6c0,2.5,0.8,4,2,4c1.3,0,2-1.6,2-4c0-2.4-0.6-4-2-4C515.4,656.5,514.5,657.9,514.5,660.6z"/>
	<path d="M525.4,658.4c0,2-1.1,3.1-2.3,3.1c-1.2,0-2.3-1-2.3-2.9c0-1.9,1.1-3,2.3-3C524.5,655.5,525.4,656.6,525.4,658.4z
		 M521.8,658.5c0,1.2,0.4,2.2,1.3,2.2c0.9,0,1.3-0.9,1.3-2.2c0-1.2-0.3-2.2-1.3-2.2C522.3,656.3,521.8,657.3,521.8,658.5z
		 M523,665.5l5.7-10h0.8l-5.7,10H523z M531.7,662.4c0,2-1.1,3.1-2.3,3.1c-1.2,0-2.3-1-2.3-2.9c0-2,1.1-3,2.3-3
		C530.8,659.5,531.7,660.6,531.7,662.4z M528.1,662.5c0,1.2,0.5,2.2,1.3,2.2c0.9,0,1.3-0.9,1.3-2.2c0-1.2-0.3-2.2-1.3-2.2
		C528.6,660.3,528.1,661.3,528.1,662.5z"/>
	<path d="M536.1,655c-1.1,1.5-1.9,3.4-1.9,6.1c0,2.7,0.8,4.6,1.9,6.1h-1c-0.9-1.2-2-3.1-2-6.1c0-2.9,1-4.8,2-6.1H536.1z"/>
	<path d="M537.1,665.4v-0.8l1-1c2.5-2.4,3.6-3.6,3.6-5.1c0-1-0.5-1.9-1.9-1.9c-0.9,0-1.6,0.4-2.1,0.8l-0.4-0.9c0.7-0.6,1.6-1,2.7-1
		c2.1,0,3,1.4,3,2.8c0,1.8-1.3,3.2-3.3,5.2l-0.8,0.7v0h4.4v1.1H537.1z"/>
	<path d="M544.8,664.6c0-0.6,0.4-0.9,0.9-0.9c0.5,0,0.9,0.4,0.9,0.9c0,0.5-0.3,0.9-0.9,0.9C545.2,665.5,544.8,665.1,544.8,664.6z"/>
	<path d="M550.6,656.9L550.6,656.9l-1.7,0.9l-0.3-1l2.1-1.1h1.1v9.7h-1.3V656.9z"/>
	<path d="M555.8,663.9c0.4,0.2,1.2,0.6,2.1,0.6c1.7,0,2.2-1.1,2.2-1.9c0-1.4-1.2-1.9-2.5-1.9h-0.7v-1h0.7c1,0,2.2-0.5,2.2-1.6
		c0-0.8-0.5-1.5-1.7-1.5c-0.8,0-1.5,0.3-1.9,0.6l-0.3-1c0.5-0.4,1.5-0.7,2.5-0.7c1.9,0,2.8,1.1,2.8,2.3c0,1-0.6,1.8-1.8,2.3v0
		c1.2,0.2,2.2,1.1,2.2,2.5c0,1.6-1.2,2.9-3.5,2.9c-1.1,0-2-0.3-2.5-0.7L555.8,663.9z"/>
	<path d="M568.6,656.6c-0.3,0-0.6,0-1,0.1c-2.1,0.3-3.1,1.8-3.4,3.4h0c0.5-0.6,1.3-1.1,2.3-1.1c1.7,0,2.9,1.2,2.9,3.1
		c0,1.8-1.2,3.4-3.2,3.4c-2.1,0-3.4-1.6-3.4-4.1c0-1.9,0.7-3.4,1.6-4.4c0.8-0.8,1.9-1.3,3.1-1.4c0.4-0.1,0.7-0.1,1-0.1V656.6z
		 M568.3,662.2c0-1.4-0.8-2.2-2-2.2c-0.8,0-1.5,0.5-1.9,1.2c-0.1,0.1-0.1,0.3-0.1,0.6c0,1.6,0.8,2.8,2.1,2.8
		C567.5,664.5,568.3,663.6,568.3,662.2z"/>
	<path d="M570.4,667.2c1.1-1.5,1.9-3.4,1.9-6.1c0-2.7-0.8-4.6-1.9-6.1h1c1,1.2,2,3.1,2,6.1c0,2.9-1,4.8-2,6.1H570.4z"/>
</g>
<polygon fill="#70AD47" points="378,663.8 441.7,663.8 441.7,670.2 378,670.2 "/>
<polygon fill="#820000" points="501.4,668.8 565,668.8 565,670.2 501.4,670.2 "/>
<g enable-background="new    ">
	<path d="M76.8,689l-1,3.2h-1.3l3.4-10h1.6l3.4,10h-1.4l-1.1-3.2H76.8z M80.1,688l-1-2.9c-0.2-0.7-0.4-1.3-0.5-1.8h0
		c-0.1,0.6-0.3,1.2-0.5,1.8l-1,2.9H80.1z"/>
	<path d="M84,690.9c0.4,0.3,1.1,0.5,1.7,0.5c1,0,1.4-0.5,1.4-1.1c0-0.6-0.4-1-1.3-1.3c-1.3-0.5-1.9-1.2-1.9-2c0-1.2,0.9-2.1,2.5-2.1
		c0.7,0,1.4,0.2,1.8,0.4l-0.3,1c-0.3-0.2-0.8-0.4-1.5-0.4c-0.8,0-1.2,0.4-1.2,1c0,0.6,0.4,0.9,1.4,1.2c1.3,0.5,1.9,1.1,1.9,2.2
		c0,1.3-1,2.2-2.7,2.2c-0.8,0-1.5-0.2-2-0.5L84,690.9z"/>
	<path d="M89.9,690.9c0.4,0.3,1.1,0.5,1.7,0.5c1,0,1.4-0.5,1.4-1.1c0-0.6-0.4-1-1.3-1.3c-1.3-0.5-1.9-1.2-1.9-2
		c0-1.2,0.9-2.1,2.5-2.1c0.7,0,1.4,0.2,1.8,0.4l-0.3,1c-0.3-0.2-0.8-0.4-1.5-0.4c-0.8,0-1.2,0.4-1.2,1c0,0.6,0.4,0.9,1.4,1.2
		c1.3,0.5,1.9,1.1,1.9,2.2c0,1.3-1,2.2-2.7,2.2c-0.8,0-1.5-0.2-2-0.5L89.9,690.9z"/>
	<path d="M102.5,688.5c0,2.7-1.8,3.8-3.6,3.8c-2,0-3.5-1.4-3.5-3.7c0-2.4,1.6-3.8,3.6-3.8C101.1,684.8,102.5,686.3,102.5,688.5z
		 M96.8,688.6c0,1.6,0.9,2.8,2.2,2.8c1.3,0,2.2-1.2,2.2-2.8c0-1.2-0.6-2.8-2.2-2.8C97.5,685.8,96.8,687.2,96.8,688.6z"/>
	<path d="M109.3,691.9c-0.3,0.2-1.1,0.4-2.1,0.4c-2.2,0-3.6-1.5-3.6-3.7c0-2.2,1.5-3.8,3.9-3.8c0.8,0,1.5,0.2,1.8,0.4l-0.3,1
		c-0.3-0.2-0.8-0.3-1.5-0.3c-1.7,0-2.5,1.2-2.5,2.7c0,1.7,1.1,2.7,2.5,2.7c0.7,0,1.2-0.2,1.6-0.4L109.3,691.9z"/>
	<path d="M112.3,683c0,0.4-0.3,0.8-0.8,0.8c-0.5,0-0.8-0.4-0.8-0.8c0-0.5,0.3-0.8,0.8-0.8C112,682.1,112.3,682.5,112.3,683z
		 M110.9,692.2V685h1.3v7.2H110.9z"/>
	<path d="M118.4,692.2l-0.1-0.9h0c-0.4,0.6-1.2,1.1-2.2,1.1c-1.5,0-2.2-1-2.2-2.1c0-1.7,1.6-2.7,4.3-2.7v-0.1c0-0.6-0.2-1.7-1.6-1.7
		c-0.7,0-1.4,0.2-1.9,0.5l-0.3-0.9c0.6-0.4,1.5-0.6,2.4-0.6c2.2,0,2.7,1.5,2.7,3v2.7c0,0.6,0,1.2,0.1,1.7H118.4z M118.2,688.5
		c-1.4,0-3.1,0.2-3.1,1.6c0,0.8,0.6,1.3,1.2,1.3c0.9,0,1.5-0.6,1.7-1.2c0-0.1,0.1-0.3,0.1-0.4V688.5z"/>
	<path d="M126.7,691.9c-0.3,0.2-1,0.4-1.9,0.4l-0.4,0.6c0.6,0.1,1,0.5,1,1c0,0.9-0.7,1.2-1.6,1.2c-0.4,0-0.8-0.1-1-0.3l0.2-0.6
		c0.2,0.1,0.5,0.2,0.8,0.2c0.3,0,0.6-0.1,0.6-0.5c0-0.4-0.5-0.6-1.2-0.6l0.6-1.1c-1.8-0.2-3-1.6-3-3.7c0-2.2,1.5-3.8,3.9-3.8
		c0.8,0,1.5,0.2,1.8,0.4l-0.3,1c-0.3-0.2-0.8-0.3-1.5-0.3c-1.7,0-2.5,1.2-2.5,2.7c0,1.7,1.1,2.7,2.5,2.7c0.7,0,1.2-0.2,1.6-0.4
		L126.7,691.9z"/>
	<path d="M132.2,692.2l-0.1-0.9h0c-0.4,0.6-1.2,1.1-2.2,1.1c-1.5,0-2.2-1-2.2-2.1c0-1.7,1.6-2.7,4.3-2.7v-0.1c0-0.6-0.2-1.7-1.6-1.7
		c-0.7,0-1.4,0.2-1.9,0.5l-0.3-0.9c0.6-0.4,1.5-0.6,2.4-0.6c2.2,0,2.7,1.5,2.7,3v2.7c0,0.6,0,1.2,0.1,1.7H132.2z M128.9,683.7
		c0-1,0.4-1.5,1-1.5c0.3,0,0.6,0.1,0.9,0.3c0.2,0.1,0.4,0.3,0.6,0.3c0.2,0,0.4-0.1,0.4-0.6h0.7c0,1-0.3,1.5-1,1.5
		c-0.3,0-0.6-0.1-0.9-0.3c-0.3-0.2-0.5-0.3-0.6-0.3c-0.2,0-0.4,0.3-0.4,0.7H128.9z M132,688.5c-1.4,0-3.1,0.2-3.1,1.6
		c0,0.8,0.6,1.3,1.2,1.3c0.9,0,1.5-0.6,1.7-1.2c0-0.1,0.1-0.3,0.1-0.4V688.5z"/>
	<path d="M142,688.5c0,2.7-1.8,3.8-3.6,3.8c-2,0-3.5-1.4-3.5-3.7c0-2.4,1.6-3.8,3.6-3.8C140.6,684.8,142,686.3,142,688.5z
		 M136.2,688.6c0,1.6,0.9,2.8,2.2,2.8c1.3,0,2.2-1.2,2.2-2.8c0-1.2-0.6-2.8-2.2-2.8C136.9,685.8,136.2,687.2,136.2,688.6z"/>
	<path d="M146.8,682.3c0.6-0.1,1.4-0.2,2.5-0.2c1.3,0,2.2,0.3,2.8,0.8c0.6,0.5,0.9,1.2,0.9,2.1c0,0.9-0.3,1.6-0.8,2.1
		c-0.7,0.7-1.8,1.1-3.1,1.1c-0.4,0-0.7,0-1-0.1v4h-1.3V682.3z M148.1,687.1c0.3,0.1,0.6,0.1,1.1,0.1c1.6,0,2.5-0.8,2.5-2.1
		c0-1.3-0.9-2-2.4-2c-0.6,0-1,0-1.2,0.1V687.1z"/>
	<path d="M154.5,687.2c0-0.9,0-1.6-0.1-2.3h1.1l0,1.4h0.1c0.3-1,1.1-1.6,2-1.6c0.1,0,0.3,0,0.4,0v1.2c-0.1,0-0.3,0-0.4,0
		c-0.9,0-1.6,0.7-1.8,1.7c0,0.2-0.1,0.4-0.1,0.6v3.8h-1.3V687.2z"/>
	<path d="M160.9,683c0,0.4-0.3,0.8-0.8,0.8c-0.5,0-0.8-0.4-0.8-0.8c0-0.5,0.3-0.8,0.8-0.8C160.5,682.1,160.9,682.5,160.9,683z
		 M159.4,692.2V685h1.3v7.2H159.4z"/>
	<path d="M163.4,685l1.4,4.1c0.2,0.7,0.4,1.3,0.6,1.8h0c0.2-0.6,0.4-1.2,0.6-1.8l1.4-4.1h1.4l-2.8,7.2h-1.3L162,685H163.4z"/>
	<path d="M174,692.2l-0.1-0.9h0c-0.4,0.6-1.2,1.1-2.2,1.1c-1.5,0-2.2-1-2.2-2.1c0-1.7,1.6-2.7,4.3-2.7v-0.1c0-0.6-0.2-1.7-1.6-1.7
		c-0.7,0-1.4,0.2-1.9,0.5l-0.3-0.9c0.6-0.4,1.5-0.6,2.4-0.6c2.2,0,2.7,1.5,2.7,3v2.7c0,0.6,0,1.2,0.1,1.7H174z M173.8,688.5
		c-1.4,0-3.1,0.2-3.1,1.6c0,0.8,0.6,1.3,1.2,1.3c0.9,0,1.5-0.6,1.7-1.2c0-0.1,0.1-0.3,0.1-0.4V688.5z"/>
	<path d="M183.4,681.6v8.7c0,0.6,0,1.4,0.1,1.9h-1.2l-0.1-1.3h0c-0.4,0.8-1.3,1.4-2.5,1.4c-1.7,0-3.1-1.5-3.1-3.7
		c0-2.4,1.5-3.9,3.2-3.9c1.1,0,1.8,0.5,2.2,1.1h0v-4.3H183.4z M182.1,687.9c0-0.2,0-0.4-0.1-0.6c-0.2-0.8-0.9-1.5-1.9-1.5
		c-1.4,0-2.2,1.2-2.2,2.8c0,1.5,0.7,2.7,2.1,2.7c0.9,0,1.7-0.6,1.9-1.6c0-0.2,0.1-0.4,0.1-0.6V687.9z"/>
	<path d="M189.6,692.2l-0.1-0.9h0c-0.4,0.6-1.2,1.1-2.2,1.1c-1.5,0-2.2-1-2.2-2.1c0-1.7,1.6-2.7,4.3-2.7v-0.1c0-0.6-0.2-1.7-1.6-1.7
		c-0.7,0-1.4,0.2-1.9,0.5l-0.3-0.9c0.6-0.4,1.5-0.6,2.4-0.6c2.2,0,2.7,1.5,2.7,3v2.7c0,0.6,0,1.2,0.1,1.7H189.6z M189.4,688.5
		c-1.4,0-3.1,0.2-3.1,1.6c0,0.8,0.6,1.3,1.2,1.3c0.9,0,1.5-0.6,1.7-1.2c0-0.1,0.1-0.3,0.1-0.4V688.5z"/>
</g>
<g enable-background="new    ">
	<path d="M217.7,682.2h5.4v1.1H219v3.3h3.8v1.1H219v4.5h-1.3V682.2z"/>
	<path d="M230.4,690.2c0,0.7,0,1.4,0.1,2h-1.2l-0.1-1.2h0c-0.3,0.6-1.1,1.3-2.4,1.3c-1.1,0-2.5-0.6-2.5-3.2V685h1.3v4
		c0,1.4,0.4,2.3,1.6,2.3c0.9,0,1.5-0.6,1.7-1.2c0.1-0.2,0.1-0.4,0.1-0.7V685h1.3V690.2z"/>
	<path d="M232.6,686.9c0-0.7,0-1.4-0.1-2h1.2l0.1,1.2h0c0.4-0.7,1.2-1.4,2.4-1.4c1,0,2.5,0.6,2.5,3.1v4.3h-1.3V688
		c0-1.2-0.4-2.1-1.7-2.1c-0.9,0-1.5,0.6-1.8,1.3c-0.1,0.2-0.1,0.4-0.1,0.6v4.3h-1.3V686.9z"/>
	<path d="M247.1,681.6v8.7c0,0.6,0,1.4,0.1,1.9H246l-0.1-1.3h0c-0.4,0.8-1.3,1.4-2.5,1.4c-1.7,0-3.1-1.5-3.1-3.7
		c0-2.4,1.5-3.9,3.2-3.9c1.1,0,1.8,0.5,2.2,1.1h0v-4.3H247.1z M245.8,687.9c0-0.2,0-0.4-0.1-0.6c-0.2-0.8-0.9-1.5-1.9-1.5
		c-1.4,0-2.2,1.2-2.2,2.8c0,1.5,0.7,2.7,2.1,2.7c0.9,0,1.7-0.6,1.9-1.6c0-0.2,0.1-0.4,0.1-0.6V687.9z"/>
	<path d="M253.3,692.2l-0.1-0.9h0c-0.4,0.6-1.2,1.1-2.2,1.1c-1.5,0-2.2-1-2.2-2.1c0-1.7,1.6-2.7,4.3-2.7v-0.1c0-0.6-0.2-1.7-1.6-1.7
		c-0.7,0-1.4,0.2-1.9,0.5l-0.3-0.9c0.6-0.4,1.5-0.6,2.4-0.6c2.2,0,2.7,1.5,2.7,3v2.7c0,0.6,0,1.2,0.1,1.7H253.3z M253.1,688.5
		c-1.4,0-3.1,0.2-3.1,1.6c0,0.8,0.6,1.3,1.2,1.3c0.9,0,1.5-0.6,1.7-1.2c0-0.1,0.1-0.3,0.1-0.4V688.5z"/>
	<path d="M261.6,691.9c-0.3,0.2-1,0.4-1.9,0.4l-0.4,0.6c0.6,0.1,1,0.5,1,1c0,0.9-0.7,1.2-1.6,1.2c-0.4,0-0.8-0.1-1-0.3l0.2-0.6
		c0.2,0.1,0.5,0.2,0.8,0.2c0.3,0,0.6-0.1,0.6-0.5c0-0.4-0.5-0.6-1.2-0.6l0.6-1.1c-1.8-0.2-3-1.6-3-3.7c0-2.2,1.5-3.8,3.9-3.8
		c0.8,0,1.5,0.2,1.8,0.4l-0.3,1c-0.3-0.2-0.8-0.3-1.5-0.3c-1.7,0-2.5,1.2-2.5,2.7c0,1.7,1.1,2.7,2.5,2.7c0.7,0,1.2-0.2,1.6-0.4
		L261.6,691.9z"/>
	<path d="M267.1,692.2l-0.1-0.9h0c-0.4,0.6-1.2,1.1-2.2,1.1c-1.5,0-2.2-1-2.2-2.1c0-1.7,1.6-2.7,4.3-2.7v-0.1c0-0.6-0.2-1.7-1.6-1.7
		c-0.7,0-1.4,0.2-1.9,0.5l-0.3-0.9c0.6-0.4,1.5-0.6,2.4-0.6c2.2,0,2.7,1.5,2.7,3v2.7c0,0.6,0,1.2,0.1,1.7H267.1z M263.8,683.7
		c0-1,0.4-1.5,1-1.5c0.3,0,0.6,0.1,0.9,0.3c0.2,0.1,0.4,0.3,0.6,0.3c0.2,0,0.4-0.1,0.4-0.6h0.7c0,1-0.3,1.5-1,1.5
		c-0.3,0-0.6-0.1-0.9-0.3c-0.3-0.2-0.5-0.3-0.6-0.3c-0.2,0-0.4,0.3-0.4,0.7H263.8z M266.9,688.5c-1.4,0-3.1,0.2-3.1,1.6
		c0,0.8,0.6,1.3,1.2,1.3c0.9,0,1.5-0.6,1.7-1.2c0-0.1,0.1-0.3,0.1-0.4V688.5z"/>
	<path d="M276.8,688.5c0,2.7-1.8,3.8-3.6,3.8c-2,0-3.5-1.4-3.5-3.7c0-2.4,1.6-3.8,3.6-3.8C275.4,684.8,276.8,686.3,276.8,688.5z
		 M271.1,688.6c0,1.6,0.9,2.8,2.2,2.8c1.3,0,2.2-1.2,2.2-2.8c0-1.2-0.6-2.8-2.2-2.8C271.8,685.8,271.1,687.2,271.1,688.6z"/>
	<path d="M281.7,682.3c0.6-0.1,1.4-0.2,2.5-0.2c1.3,0,2.2,0.3,2.8,0.8c0.6,0.5,0.9,1.2,0.9,2.1c0,0.9-0.3,1.6-0.8,2.1
		c-0.7,0.7-1.8,1.1-3.1,1.1c-0.4,0-0.7,0-1-0.1v4h-1.3V682.3z M283,687.1c0.3,0.1,0.6,0.1,1.1,0.1c1.6,0,2.5-0.8,2.5-2.1
		c0-1.3-0.9-2-2.4-2c-0.6,0-1,0-1.2,0.1V687.1z"/>
	<path d="M289.4,687.2c0-0.9,0-1.6-0.1-2.3h1.1l0,1.4h0.1c0.3-1,1.1-1.6,2-1.6c0.1,0,0.3,0,0.4,0v1.2c-0.1,0-0.3,0-0.4,0
		c-0.9,0-1.6,0.7-1.8,1.7c0,0.2-0.1,0.4-0.1,0.6v3.8h-1.3V687.2z"/>
	<path d="M295.8,683c0,0.4-0.3,0.8-0.8,0.8c-0.5,0-0.8-0.4-0.8-0.8c0-0.5,0.3-0.8,0.8-0.8C295.4,682.1,295.8,682.5,295.8,683z
		 M294.3,692.2V685h1.3v7.2H294.3z"/>
	<path d="M298.3,685l1.4,4.1c0.2,0.7,0.4,1.3,0.6,1.8h0c0.2-0.6,0.4-1.2,0.6-1.8l1.4-4.1h1.4l-2.8,7.2h-1.3l-2.7-7.2H298.3z"/>
	<path d="M308.9,692.2l-0.1-0.9h0c-0.4,0.6-1.2,1.1-2.2,1.1c-1.5,0-2.2-1-2.2-2.1c0-1.7,1.6-2.7,4.3-2.7v-0.1c0-0.6-0.2-1.7-1.6-1.7
		c-0.7,0-1.4,0.2-1.9,0.5l-0.3-0.9c0.6-0.4,1.5-0.6,2.4-0.6c2.2,0,2.7,1.5,2.7,3v2.7c0,0.6,0,1.2,0.1,1.7H308.9z M308.7,688.5
		c-1.4,0-3.1,0.2-3.1,1.6c0,0.8,0.6,1.3,1.2,1.3c0.9,0,1.5-0.6,1.7-1.2c0-0.1,0.1-0.3,0.1-0.4V688.5z"/>
	<path d="M318.3,681.6v8.7c0,0.6,0,1.4,0.1,1.9h-1.2l-0.1-1.3h0c-0.4,0.8-1.3,1.4-2.5,1.4c-1.7,0-3.1-1.5-3.1-3.7
		c0-2.4,1.5-3.9,3.2-3.9c1.1,0,1.8,0.5,2.2,1.1h0v-4.3H318.3z M317,687.9c0-0.2,0-0.4-0.1-0.6c-0.2-0.8-0.9-1.5-1.9-1.5
		c-1.4,0-2.2,1.2-2.2,2.8c0,1.5,0.7,2.7,2.1,2.7c0.9,0,1.7-0.6,1.9-1.6c0-0.2,0.1-0.4,0.1-0.6V687.9z"/>
	<path d="M324.5,692.2l-0.1-0.9h0c-0.4,0.6-1.2,1.1-2.2,1.1c-1.5,0-2.2-1-2.2-2.1c0-1.7,1.6-2.7,4.3-2.7v-0.1c0-0.6-0.2-1.7-1.6-1.7
		c-0.7,0-1.4,0.2-1.9,0.5l-0.3-0.9c0.6-0.4,1.5-0.6,2.4-0.6c2.2,0,2.7,1.5,2.7,3v2.7c0,0.6,0,1.2,0.1,1.7H324.5z M324.3,688.5
		c-1.4,0-3.1,0.2-3.1,1.6c0,0.8,0.6,1.3,1.2,1.3c0.9,0,1.5-0.6,1.7-1.2c0-0.1,0.1-0.3,0.1-0.4V688.5z"/>
</g>
<g enable-background="new    ">
	<path d="M359.3,687.1c0,3.5-2.1,5.3-4.7,5.3c-2.7,0-4.5-2.1-4.5-5.1c0-3.2,2-5.3,4.7-5.3C357.5,682,359.3,684.1,359.3,687.1z
		 M351.5,687.2c0,2.1,1.2,4.1,3.2,4.1c2.1,0,3.2-1.9,3.2-4.2c0-2-1-4.1-3.2-4.1C352.6,683,351.5,685,351.5,687.2z"/>
	<path d="M360.9,687.2c0-0.9,0-1.6-0.1-2.3h1.1l0,1.4h0.1c0.3-1,1.1-1.6,2-1.6c0.1,0,0.3,0,0.4,0v1.2c-0.1,0-0.3,0-0.4,0
		c-0.9,0-1.6,0.7-1.8,1.7c0,0.2-0.1,0.4-0.1,0.6v3.8h-1.3V687.2z"/>
	<path d="M371.9,685c0,0.5-0.1,1.1-0.1,2v4.2c0,1.7-0.3,2.7-1,3.3c-0.7,0.7-1.7,0.9-2.6,0.9c-0.9,0-1.8-0.2-2.4-0.6l0.3-1
		c0.5,0.3,1.2,0.6,2.1,0.6c1.3,0,2.3-0.7,2.3-2.5V691h0c-0.4,0.7-1.2,1.2-2.3,1.2c-1.8,0-3.1-1.5-3.1-3.5c0-2.4,1.6-3.8,3.3-3.8
		c1.3,0,1.9,0.7,2.3,1.3h0l0.1-1.1H371.9z M370.6,687.8c0-0.2,0-0.4-0.1-0.6c-0.2-0.8-0.9-1.4-1.8-1.4c-1.3,0-2.1,1.1-2.1,2.7
		c0,1.4,0.7,2.6,2.1,2.6c0.8,0,1.5-0.5,1.8-1.3c0.1-0.2,0.1-0.5,0.1-0.7V687.8z"/>
	<path d="M378,692.2l-0.1-0.9h0c-0.4,0.6-1.2,1.1-2.2,1.1c-1.5,0-2.2-1-2.2-2.1c0-1.7,1.6-2.7,4.3-2.7v-0.1c0-0.6-0.2-1.7-1.6-1.7
		c-0.7,0-1.4,0.2-1.9,0.5l-0.3-0.9c0.6-0.4,1.5-0.6,2.4-0.6c2.2,0,2.7,1.5,2.7,3v2.7c0,0.6,0,1.2,0.1,1.7H378z M377.8,688.5
		c-1.4,0-3.1,0.2-3.1,1.6c0,0.8,0.6,1.3,1.2,1.3c0.9,0,1.5-0.6,1.7-1.2c0-0.1,0.1-0.3,0.1-0.4V688.5z"/>
	<path d="M381.2,686.9c0-0.7,0-1.4-0.1-2h1.2l0.1,1.2h0c0.4-0.7,1.2-1.4,2.4-1.4c1,0,2.5,0.6,2.5,3.1v4.3H386V688
		c0-1.2-0.4-2.1-1.7-2.1c-0.9,0-1.5,0.6-1.8,1.3c-0.1,0.2-0.1,0.4-0.1,0.6v4.3h-1.3V686.9z"/>
	<path d="M391,683c0,0.4-0.3,0.8-0.8,0.8c-0.5,0-0.8-0.4-0.8-0.8c0-0.5,0.3-0.8,0.8-0.8C390.6,682.1,391,682.5,391,683z
		 M389.5,692.2V685h1.3v7.2H389.5z"/>
	<path d="M392.2,691.4l3.3-4.2c0.3-0.4,0.6-0.7,0.9-1.1v0h-3.9V685h5.5l0,0.8l-3.2,4.2c-0.3,0.4-0.6,0.8-0.9,1.1v0h4.2v1h-5.9V691.4
		z"/>
	<path d="M403.4,692.2l-0.1-0.9h0c-0.4,0.6-1.2,1.1-2.2,1.1c-1.5,0-2.2-1-2.2-2.1c0-1.7,1.6-2.7,4.3-2.7v-0.1c0-0.6-0.2-1.7-1.6-1.7
		c-0.7,0-1.4,0.2-1.9,0.5l-0.3-0.9c0.6-0.4,1.5-0.6,2.4-0.6c2.2,0,2.7,1.5,2.7,3v2.7c0,0.6,0,1.2,0.1,1.7H403.4z M403.2,688.5
		c-1.4,0-3.1,0.2-3.1,1.6c0,0.8,0.6,1.3,1.2,1.3c0.9,0,1.5-0.6,1.7-1.2c0-0.1,0.1-0.3,0.1-0.4V688.5z"/>
	<path d="M411.7,691.9c-0.3,0.2-1,0.4-1.9,0.4l-0.4,0.6c0.6,0.1,1,0.5,1,1c0,0.9-0.7,1.2-1.6,1.2c-0.4,0-0.8-0.1-1-0.3l0.2-0.6
		c0.2,0.1,0.5,0.2,0.8,0.2c0.3,0,0.6-0.1,0.6-0.5c0-0.4-0.5-0.6-1.2-0.6l0.6-1.1c-1.8-0.2-3-1.6-3-3.7c0-2.2,1.5-3.8,3.9-3.8
		c0.8,0,1.5,0.2,1.8,0.4l-0.3,1c-0.3-0.2-0.8-0.3-1.5-0.3c-1.7,0-2.5,1.2-2.5,2.7c0,1.7,1.1,2.7,2.5,2.7c0.7,0,1.2-0.2,1.6-0.4
		L411.7,691.9z"/>
	<path d="M417.2,692.2l-0.1-0.9h0c-0.4,0.6-1.2,1.1-2.2,1.1c-1.5,0-2.2-1-2.2-2.1c0-1.7,1.6-2.7,4.3-2.7v-0.1c0-0.6-0.2-1.7-1.6-1.7
		c-0.7,0-1.4,0.2-1.9,0.5l-0.3-0.9c0.6-0.4,1.5-0.6,2.4-0.6c2.2,0,2.7,1.5,2.7,3v2.7c0,0.6,0,1.2,0.1,1.7H417.2z M413.9,683.7
		c0-1,0.4-1.5,1-1.5c0.3,0,0.6,0.1,0.9,0.3c0.2,0.1,0.4,0.3,0.6,0.3c0.2,0,0.4-0.1,0.4-0.6h0.7c0,1-0.3,1.5-1,1.5
		c-0.3,0-0.6-0.1-0.9-0.3c-0.3-0.2-0.5-0.3-0.6-0.3c-0.2,0-0.4,0.3-0.4,0.7H413.9z M417,688.5c-1.4,0-3.1,0.2-3.1,1.6
		c0,0.8,0.6,1.3,1.2,1.3c0.9,0,1.5-0.6,1.7-1.2c0-0.1,0.1-0.3,0.1-0.4V688.5z"/>
	<path d="M426.9,688.5c0,2.7-1.8,3.8-3.6,3.8c-2,0-3.5-1.4-3.5-3.7c0-2.4,1.6-3.8,3.6-3.8C425.5,684.8,426.9,686.3,426.9,688.5z
		 M421.2,688.6c0,1.6,0.9,2.8,2.2,2.8c1.3,0,2.2-1.2,2.2-2.8c0-1.2-0.6-2.8-2.2-2.8C421.9,685.8,421.2,687.2,421.2,688.6z"/>
	<path d="M431.8,682.3c0.7-0.1,1.6-0.2,2.5-0.2c1.4,0,2.3,0.3,2.9,0.8c0.5,0.4,0.8,1.1,0.8,1.9c0,1.3-0.8,2.2-1.9,2.6v0
		c0.8,0.3,1.2,1,1.5,2c0.3,1.4,0.6,2.4,0.8,2.8H437c-0.2-0.3-0.4-1.1-0.7-2.4c-0.3-1.4-0.8-1.9-2-2h-1.2v4.4h-1.3V682.3z
		 M433.1,686.9h1.3c1.4,0,2.3-0.8,2.3-1.9c0-1.3-0.9-1.9-2.3-1.9c-0.6,0-1.1,0.1-1.3,0.1V686.9z"/>
	<path d="M440.6,688.8c0,1.8,1.2,2.5,2.5,2.5c0.9,0,1.5-0.2,2-0.4l0.2,0.9c-0.5,0.2-1.3,0.4-2.4,0.4c-2.2,0-3.5-1.5-3.5-3.6
		s1.3-3.9,3.4-3.9c2.4,0,3,2.1,3,3.4c0,0.3,0,0.5,0,0.6H440.6z M444.4,687.9c0-0.8-0.3-2.1-1.8-2.1c-1.3,0-1.9,1.2-2,2.1H444.4z"/>
	<path d="M447.3,681.6h1.3v10.6h-1.3V681.6z"/>
	<path d="M452.3,683c0,0.4-0.3,0.8-0.8,0.8c-0.5,0-0.8-0.4-0.8-0.8c0-0.5,0.3-0.8,0.8-0.8C452,682.1,452.3,682.5,452.3,683z
		 M450.8,692.2V685h1.3v7.2H450.8z"/>
	<path d="M460.5,685c0,0.5-0.1,1.1-0.1,2v4.2c0,1.7-0.3,2.7-1,3.3c-0.7,0.7-1.7,0.9-2.6,0.9c-0.9,0-1.8-0.2-2.4-0.6l0.3-1
		c0.5,0.3,1.2,0.6,2.1,0.6c1.3,0,2.3-0.7,2.3-2.5V691h0c-0.4,0.7-1.2,1.2-2.3,1.2c-1.8,0-3.1-1.5-3.1-3.5c0-2.4,1.6-3.8,3.3-3.8
		c1.3,0,1.9,0.7,2.3,1.3h0l0.1-1.1H460.5z M459.2,687.8c0-0.2,0-0.4-0.1-0.6c-0.2-0.8-0.9-1.4-1.8-1.4c-1.3,0-2.1,1.1-2.1,2.7
		c0,1.4,0.7,2.6,2.1,2.6c0.8,0,1.5-0.5,1.8-1.3c0.1-0.2,0.1-0.5,0.1-0.7V687.8z"/>
	<path d="M464,683c0,0.4-0.3,0.8-0.8,0.8c-0.5,0-0.8-0.4-0.8-0.8c0-0.5,0.3-0.8,0.8-0.8C463.7,682.1,464,682.5,464,683z
		 M462.6,692.2V685h1.3v7.2H462.6z"/>
	<path d="M472.6,688.5c0,2.7-1.8,3.8-3.6,3.8c-2,0-3.5-1.4-3.5-3.7c0-2.4,1.6-3.8,3.6-3.8C471.2,684.8,472.6,686.3,472.6,688.5z
		 M466.9,688.6c0,1.6,0.9,2.8,2.2,2.8c1.3,0,2.2-1.2,2.2-2.8c0-1.2-0.6-2.8-2.2-2.8C467.5,685.8,466.9,687.2,466.9,688.6z"/>
	<path d="M474.1,690.9c0.4,0.3,1.1,0.5,1.7,0.5c1,0,1.4-0.5,1.4-1.1c0-0.6-0.4-1-1.3-1.3c-1.3-0.5-1.9-1.2-1.9-2
		c0-1.2,0.9-2.1,2.5-2.1c0.7,0,1.4,0.2,1.8,0.4l-0.3,1c-0.3-0.2-0.8-0.4-1.5-0.4c-0.8,0-1.2,0.4-1.2,1c0,0.6,0.4,0.9,1.4,1.2
		c1.3,0.5,1.9,1.1,1.9,2.2c0,1.3-1,2.2-2.7,2.2c-0.8,0-1.5-0.2-2-0.5L474.1,690.9z"/>
	<path d="M484.2,692.2l-0.1-0.9h0c-0.4,0.6-1.2,1.1-2.2,1.1c-1.5,0-2.2-1-2.2-2.1c0-1.7,1.6-2.7,4.3-2.7v-0.1c0-0.6-0.2-1.7-1.6-1.7
		c-0.7,0-1.4,0.2-1.9,0.5l-0.3-0.9c0.6-0.4,1.5-0.6,2.4-0.6c2.2,0,2.7,1.5,2.7,3v2.7c0,0.6,0,1.2,0.1,1.7H484.2z M484,688.5
		c-1.4,0-3.1,0.2-3.1,1.6c0,0.8,0.6,1.3,1.2,1.3c0.9,0,1.5-0.6,1.7-1.2c0-0.1,0.1-0.3,0.1-0.4V688.5z"/>
</g>
<g enable-background="new    ">
	<path d="M521.2,687.1c0,3.5-2.1,5.3-4.7,5.3c-2.7,0-4.5-2.1-4.5-5.1c0-3.2,2-5.3,4.7-5.3C519.4,682,521.2,684.1,521.2,687.1z
		 M513.4,687.2c0,2.1,1.2,4.1,3.2,4.1c2.1,0,3.2-1.9,3.2-4.2c0-2-1-4.1-3.2-4.1C514.5,683,513.4,685,513.4,687.2z"/>
	<path d="M528.9,690.2c0,0.7,0,1.4,0.1,2h-1.2l-0.1-1.2h0c-0.3,0.6-1.1,1.3-2.4,1.3c-1.1,0-2.5-0.6-2.5-3.2V685h1.3v4
		c0,1.4,0.4,2.3,1.6,2.3c0.9,0,1.5-0.6,1.7-1.2c0.1-0.2,0.1-0.4,0.1-0.7V685h1.3V690.2z"/>
	<path d="M532.7,682.9v2.1h1.9v1h-1.9v3.9c0,0.9,0.3,1.4,1,1.4c0.3,0,0.6,0,0.8-0.1l0.1,1c-0.3,0.1-0.7,0.2-1.2,0.2
		c-0.6,0-1.1-0.2-1.4-0.6c-0.4-0.4-0.5-1-0.5-1.9V686h-1.1v-1h1.1v-1.7L532.7,682.9z"/>
	<path d="M536,687.2c0-0.9,0-1.6-0.1-2.3h1.1l0,1.4h0.1c0.3-1,1.1-1.6,2-1.6c0.1,0,0.3,0,0.4,0v1.2c-0.1,0-0.3,0-0.4,0
		c-0.9,0-1.6,0.7-1.8,1.7c0,0.2-0.1,0.4-0.1,0.6v3.8H536V687.2z"/>
	<path d="M547.3,688.5c0,2.7-1.8,3.8-3.6,3.8c-2,0-3.5-1.4-3.5-3.7c0-2.4,1.6-3.8,3.6-3.8C545.9,684.8,547.3,686.3,547.3,688.5z
		 M541.6,688.6c0,1.6,0.9,2.8,2.2,2.8c1.3,0,2.2-1.2,2.2-2.8c0-1.2-0.6-2.8-2.2-2.8C542.3,685.8,541.6,687.2,541.6,688.6z"/>
	<path d="M548.8,690.9c0.4,0.3,1.1,0.5,1.7,0.5c1,0,1.4-0.5,1.4-1.1c0-0.6-0.4-1-1.3-1.3c-1.3-0.5-1.9-1.2-1.9-2
		c0-1.2,0.9-2.1,2.5-2.1c0.7,0,1.4,0.2,1.8,0.4l-0.3,1c-0.3-0.2-0.8-0.4-1.5-0.4c-0.8,0-1.2,0.4-1.2,1c0,0.6,0.4,0.9,1.4,1.2
		c1.3,0.5,1.9,1.1,1.9,2.2c0,1.3-1,2.2-2.7,2.2c-0.8,0-1.5-0.2-2-0.5L548.8,690.9z"/>
	<path d="M558.7,682.5l-1.4,1.9v0l2.3-0.3v1l-2.3-0.3v0l1.4,1.8l-0.9,0.5l-0.9-2.1h0l-1,2.1l-0.8-0.5l1.4-1.8v0l-2.2,0.3v-1l2.2,0.3
		v0l-1.4-1.8l0.9-0.5l0.9,2.1h0l0.9-2.1L558.7,682.5z"/>
</g>
<g enable-background="new    ">
	<path d="M20.3,666.8c0,3.3-1.2,5.1-3.4,5.1c-1.9,0-3.2-1.8-3.2-5c0-3.3,1.4-5.1,3.4-5.1C19.1,661.9,20.3,663.7,20.3,666.8z M15,667
		c0,2.5,0.8,4,2,4c1.4,0,2-1.6,2-4.1c0-2.4-0.6-4-2-4C15.8,662.9,15,664.3,15,667z"/>
	<path d="M21.1,673.6c0.3-0.9,0.7-2.5,0.9-3.6l1.5-0.1c-0.3,1.3-1,2.9-1.4,3.6L21.1,673.6z"/>
	<path d="M31.1,666.8c0,3.3-1.2,5.1-3.4,5.1c-1.9,0-3.2-1.8-3.2-5c0-3.3,1.4-5.1,3.4-5.1C29.9,661.9,31.1,663.7,31.1,666.8z
		 M25.8,667c0,2.5,0.8,4,2,4c1.4,0,2-1.6,2-4.1c0-2.4-0.6-4-2-4C26.6,662.9,25.8,664.3,25.8,667z"/>
	<path d="M38.8,666.8c0,3.3-1.2,5.1-3.4,5.1c-1.9,0-3.2-1.8-3.2-5c0-3.3,1.4-5.1,3.4-5.1C37.6,661.9,38.8,663.7,38.8,666.8z
		 M33.5,667c0,2.5,0.8,4,2,4c1.4,0,2-1.6,2-4.1c0-2.4-0.6-4-2-4C34.3,662.9,33.5,664.3,33.5,667z"/>
</g>
<g enable-background="new    ">
	<path d="M11.7,623.4L11.7,623.4l-1.7,0.9l-0.3-1l2.1-1.1H13v9.8h-1.3V623.4z"/>
	<path d="M23,626.9c0,3.3-1.2,5.1-3.4,5.1c-1.9,0-3.2-1.8-3.2-5c0-3.3,1.4-5.1,3.4-5.1C21.8,622,23,623.8,23,626.9z M17.7,627.1
		c0,2.5,0.8,4,2,4c1.4,0,2-1.6,2-4.1c0-2.4-0.6-4-2-4C18.5,623,17.7,624.4,17.7,627.1z"/>
	<path d="M23.8,633.7c0.3-0.9,0.7-2.5,0.9-3.6l1.5-0.1c-0.3,1.3-1,2.9-1.4,3.6L23.8,633.7z"/>
	<path d="M33.8,626.9c0,3.3-1.2,5.1-3.4,5.1c-1.9,0-3.2-1.8-3.2-5c0-3.3,1.4-5.1,3.4-5.1C32.6,622,33.8,623.8,33.8,626.9z
		 M28.5,627.1c0,2.5,0.8,4,2,4c1.4,0,2-1.6,2-4.1c0-2.4-0.6-4-2-4C29.3,623,28.5,624.4,28.5,627.1z"/>
	<path d="M41.5,626.9c0,3.3-1.2,5.1-3.4,5.1c-1.9,0-3.2-1.8-3.2-5c0-3.3,1.4-5.1,3.4-5.1C40.3,622,41.5,623.8,41.5,626.9z
		 M36.2,627.1c0,2.5,0.8,4,2,4c1.4,0,2-1.6,2-4.1c0-2.4-0.6-4-2-4C37,623,36.2,624.4,36.2,627.1z"/>
</g>
<g enable-background="new    ">
	<path d="M8.8,591.4v-0.8l1-1c2.5-2.4,3.6-3.6,3.6-5.1c0-1-0.5-1.9-1.9-1.9c-0.9,0-1.6,0.4-2.1,0.8l-0.4-0.9c0.7-0.6,1.6-1,2.8-1
		c2.1,0,3,1.4,3,2.8c0,1.8-1.3,3.3-3.4,5.2l-0.8,0.7v0H15v1.1H8.8z"/>
	<path d="M23,586.4c0,3.3-1.2,5.1-3.4,5.1c-1.9,0-3.2-1.8-3.2-5c0-3.3,1.4-5.1,3.4-5.1C21.8,581.5,23,583.3,23,586.4z M17.7,586.6
		c0,2.5,0.8,4,2,4c1.4,0,2-1.6,2-4.1c0-2.4-0.6-4-2-4C18.5,582.5,17.7,583.9,17.7,586.6z"/>
	<path d="M23.8,593.2c0.3-0.9,0.7-2.5,0.9-3.6l1.5-0.1c-0.3,1.3-1,2.9-1.4,3.6L23.8,593.2z"/>
	<path d="M33.8,586.4c0,3.3-1.2,5.1-3.4,5.1c-1.9,0-3.2-1.8-3.2-5c0-3.3,1.4-5.1,3.4-5.1C32.6,581.5,33.8,583.3,33.8,586.4z
		 M28.5,586.6c0,2.5,0.8,4,2,4c1.4,0,2-1.6,2-4.1c0-2.4-0.6-4-2-4C29.3,582.5,28.5,583.9,28.5,586.6z"/>
	<path d="M41.5,586.4c0,3.3-1.2,5.1-3.4,5.1c-1.9,0-3.2-1.8-3.2-5c0-3.3,1.4-5.1,3.4-5.1C40.3,581.5,41.5,583.3,41.5,586.4z
		 M36.2,586.6c0,2.5,0.8,4,2,4c1.4,0,2-1.6,2-4.1c0-2.4-0.6-4-2-4C37,582.5,36.2,583.9,36.2,586.6z"/>
</g>
<g enable-background="new    ">
	<path d="M9.1,552.8c0.4,0.2,1.2,0.6,2.2,0.6c1.7,0,2.2-1.1,2.2-1.9c0-1.4-1.2-2-2.5-2h-0.7v-1H11c1,0,2.2-0.5,2.2-1.7
		c0-0.8-0.5-1.5-1.7-1.5c-0.8,0-1.5,0.3-1.9,0.6l-0.3-1c0.5-0.4,1.5-0.8,2.5-0.8c1.9,0,2.8,1.1,2.8,2.3c0,1-0.6,1.9-1.8,2.3v0
		c1.2,0.2,2.2,1.1,2.2,2.5c0,1.6-1.2,2.9-3.6,2.9c-1.1,0-2.1-0.3-2.5-0.7L9.1,552.8z"/>
	<path d="M23,549.4c0,3.3-1.2,5.1-3.4,5.1c-1.9,0-3.2-1.8-3.2-5c0-3.3,1.4-5.1,3.4-5.1C21.8,544.4,23,546.3,23,549.4z M17.7,549.5
		c0,2.5,0.8,4,2,4c1.4,0,2-1.6,2-4.1c0-2.4-0.6-4-2-4C18.5,545.5,17.7,546.9,17.7,549.5z"/>
	<path d="M23.8,556.2c0.3-0.9,0.7-2.5,0.9-3.6l1.5-0.1c-0.3,1.3-1,2.9-1.4,3.6L23.8,556.2z"/>
	<path d="M33.8,549.4c0,3.3-1.2,5.1-3.4,5.1c-1.9,0-3.2-1.8-3.2-5c0-3.3,1.4-5.1,3.4-5.1C32.6,544.4,33.8,546.3,33.8,549.4z
		 M28.5,549.5c0,2.5,0.8,4,2,4c1.4,0,2-1.6,2-4.1c0-2.4-0.6-4-2-4C29.3,545.5,28.5,546.9,28.5,549.5z"/>
	<path d="M41.5,549.4c0,3.3-1.2,5.1-3.4,5.1c-1.9,0-3.2-1.8-3.2-5c0-3.3,1.4-5.1,3.4-5.1C40.3,544.4,41.5,546.3,41.5,549.4z
		 M36.2,549.5c0,2.5,0.8,4,2,4c1.4,0,2-1.6,2-4.1c0-2.4-0.6-4-2-4C37,545.5,36.2,546.9,36.2,549.5z"/>
</g>
<g enable-background="new    ">
	<path d="M12.9,514.8v-2.7H8.4v-0.9l4.3-6.2h1.4v6.1h1.4v1h-1.4v2.7H12.9z M12.9,511.1v-3.3c0-0.5,0-1,0-1.5h0
		c-0.3,0.6-0.5,1-0.8,1.4l-2.4,3.3v0H12.9z"/>
	<path d="M23,509.9c0,3.3-1.2,5.1-3.4,5.1c-1.9,0-3.2-1.8-3.2-5c0-3.3,1.4-5.1,3.4-5.1C21.8,504.9,23,506.8,23,509.9z M17.7,510
		c0,2.5,0.8,4,2,4c1.4,0,2-1.6,2-4.1c0-2.4-0.6-4-2-4C18.5,505.9,17.7,507.4,17.7,510z"/>
	<path d="M23.8,516.7c0.3-0.9,0.7-2.5,0.9-3.6l1.5-0.1c-0.3,1.3-1,2.9-1.4,3.6L23.8,516.7z"/>
	<path d="M33.8,509.9c0,3.3-1.2,5.1-3.4,5.1c-1.9,0-3.2-1.8-3.2-5c0-3.3,1.4-5.1,3.4-5.1C32.6,504.9,33.8,506.8,33.8,509.9z
		 M28.5,510c0,2.5,0.8,4,2,4c1.4,0,2-1.6,2-4.1c0-2.4-0.6-4-2-4C29.3,505.9,28.5,507.4,28.5,510z"/>
	<path d="M41.5,509.9c0,3.3-1.2,5.1-3.4,5.1c-1.9,0-3.2-1.8-3.2-5c0-3.3,1.4-5.1,3.4-5.1C40.3,504.9,41.5,506.8,41.5,509.9z
		 M36.2,510c0,2.5,0.8,4,2,4c1.4,0,2-1.6,2-4.1c0-2.4-0.6-4-2-4C37,505.9,36.2,507.4,36.2,510z"/>
</g>
<g enable-background="new    ">
	<path d="M14.6,465.7h-3.7l-0.4,2.5c0.2,0,0.4-0.1,0.8-0.1c0.8,0,1.5,0.2,2.1,0.5c0.8,0.4,1.4,1.3,1.4,2.5c0,1.9-1.5,3.3-3.6,3.3
		c-1.1,0-2-0.3-2.4-0.6l0.3-1c0.4,0.2,1.2,0.5,2.1,0.5c1.2,0,2.3-0.8,2.3-2.1c0-1.3-0.9-2.2-2.8-2.2c-0.6,0-1,0.1-1.3,0.1l0.6-4.7
		h4.7V465.7z"/>
	<path d="M23,469.3c0,3.3-1.2,5.1-3.4,5.1c-1.9,0-3.2-1.8-3.2-5c0-3.3,1.4-5.1,3.4-5.1C21.8,464.4,23,466.2,23,469.3z M17.7,469.5
		c0,2.5,0.8,4,2,4c1.4,0,2-1.6,2-4.1c0-2.4-0.6-4-2-4C18.5,465.4,17.7,466.8,17.7,469.5z"/>
	<path d="M23.8,476.2c0.3-0.9,0.7-2.5,0.9-3.6l1.5-0.1c-0.3,1.3-1,2.9-1.4,3.6L23.8,476.2z"/>
	<path d="M33.8,469.3c0,3.3-1.2,5.1-3.4,5.1c-1.9,0-3.2-1.8-3.2-5c0-3.3,1.4-5.1,3.4-5.1C32.6,464.4,33.8,466.2,33.8,469.3z
		 M28.5,469.5c0,2.5,0.8,4,2,4c1.4,0,2-1.6,2-4.1c0-2.4-0.6-4-2-4C29.3,465.4,28.5,466.8,28.5,469.5z"/>
	<path d="M41.5,469.3c0,3.3-1.2,5.1-3.4,5.1c-1.9,0-3.2-1.8-3.2-5c0-3.3,1.4-5.1,3.4-5.1C40.3,464.4,41.5,466.2,41.5,469.3z
		 M36.2,469.5c0,2.5,0.8,4,2,4c1.4,0,2-1.6,2-4.1c0-2.4-0.6-4-2-4C37,465.4,36.2,466.8,36.2,469.5z"/>
</g>
<g enable-background="new    ">
	<path d="M14.4,428.5c-0.3,0-0.6,0-1,0.1c-2.1,0.3-3.2,1.9-3.4,3.5h0c0.5-0.6,1.3-1.1,2.4-1.1c1.7,0,2.9,1.2,2.9,3.2
		c0,1.8-1.2,3.4-3.2,3.4c-2.1,0-3.5-1.6-3.5-4.2c0-1.9,0.7-3.4,1.7-4.4c0.8-0.8,1.9-1.3,3.1-1.4c0.4-0.1,0.7-0.1,1-0.1V428.5z
		 M14,434.1c0-1.4-0.8-2.2-2-2.2c-0.8,0-1.5,0.5-1.9,1.2c-0.1,0.1-0.1,0.3-0.1,0.6c0,1.6,0.8,2.8,2.1,2.8
		C13.2,436.4,14,435.5,14,434.1z"/>
	<path d="M23,432.3c0,3.3-1.2,5.1-3.4,5.1c-1.9,0-3.2-1.8-3.2-5c0-3.3,1.4-5.1,3.4-5.1C21.8,427.4,23,429.2,23,432.3z M17.7,432.5
		c0,2.5,0.8,4,2,4c1.4,0,2-1.6,2-4.1c0-2.4-0.6-4-2-4C18.5,428.4,17.7,429.8,17.7,432.5z"/>
	<path d="M23.8,439.1c0.3-0.9,0.7-2.5,0.9-3.6l1.5-0.1c-0.3,1.3-1,2.9-1.4,3.6L23.8,439.1z"/>
	<path d="M33.8,432.3c0,3.3-1.2,5.1-3.4,5.1c-1.9,0-3.2-1.8-3.2-5c0-3.3,1.4-5.1,3.4-5.1C32.6,427.4,33.8,429.2,33.8,432.3z
		 M28.5,432.5c0,2.5,0.8,4,2,4c1.4,0,2-1.6,2-4.1c0-2.4-0.6-4-2-4C29.3,428.4,28.5,429.8,28.5,432.5z"/>
	<path d="M41.5,432.3c0,3.3-1.2,5.1-3.4,5.1c-1.9,0-3.2-1.8-3.2-5c0-3.3,1.4-5.1,3.4-5.1C40.3,427.4,41.5,429.2,41.5,432.3z
		 M36.2,432.5c0,2.5,0.8,4,2,4c1.4,0,2-1.6,2-4.1c0-2.4-0.6-4-2-4C37,428.4,36.2,429.8,36.2,432.5z"/>
</g>
<g enable-background="new    ">
	<path d="M15.1,385.5v0.9l-4.2,8.9H9.5l4.2-8.6v0H9v-1.1H15.1z"/>
	<path d="M23,390.3c0,3.3-1.2,5.1-3.4,5.1c-1.9,0-3.2-1.8-3.2-5c0-3.3,1.4-5.1,3.4-5.1C21.8,385.4,23,387.2,23,390.3z M17.7,390.4
		c0,2.5,0.8,4,2,4c1.4,0,2-1.6,2-4.1c0-2.4-0.6-4-2-4C18.5,386.4,17.7,387.8,17.7,390.4z"/>
	<path d="M23.8,397.1c0.3-0.9,0.7-2.5,0.9-3.6l1.5-0.1c-0.3,1.3-1,2.9-1.4,3.6L23.8,397.1z"/>
	<path d="M33.8,390.3c0,3.3-1.2,5.1-3.4,5.1c-1.9,0-3.2-1.8-3.2-5c0-3.3,1.4-5.1,3.4-5.1C32.6,385.4,33.8,387.2,33.8,390.3z
		 M28.5,390.4c0,2.5,0.8,4,2,4c1.4,0,2-1.6,2-4.1c0-2.4-0.6-4-2-4C29.3,386.4,28.5,387.8,28.5,390.4z"/>
	<path d="M41.5,390.3c0,3.3-1.2,5.1-3.4,5.1c-1.9,0-3.2-1.8-3.2-5c0-3.3,1.4-5.1,3.4-5.1C40.3,385.4,41.5,387.2,41.5,390.3z
		 M36.2,390.4c0,2.5,0.8,4,2,4c1.4,0,2-1.6,2-4.1c0-2.4-0.6-4-2-4C37,386.4,36.2,387.8,36.2,390.4z"/>
</g>
<g enable-background="new    ">
	<path d="M8.7,352.3c0-1.2,0.7-2.1,1.9-2.6l0,0c-1.1-0.5-1.5-1.3-1.5-2.2c0-1.5,1.3-2.6,3-2.6c1.9,0,2.8,1.2,2.8,2.4
		c0,0.8-0.4,1.7-1.6,2.3v0c1.2,0.5,2,1.3,2,2.5c0,1.7-1.5,2.8-3.3,2.8C9.9,354.9,8.7,353.7,8.7,352.3z M13.9,352.2
		c0-1.2-0.8-1.8-2.1-2.1c-1.1,0.3-1.8,1.1-1.8,2c0,1,0.7,1.9,2,1.9C13.2,354,13.9,353.2,13.9,352.2z M10.3,347.3
		c0,1,0.7,1.5,1.9,1.8c0.8-0.3,1.5-0.9,1.5-1.8c0-0.8-0.5-1.6-1.6-1.6C10.9,345.8,10.3,346.5,10.3,347.3z"/>
	<path d="M23,349.8c0,3.3-1.2,5.1-3.4,5.1c-1.9,0-3.2-1.8-3.2-5c0-3.3,1.4-5.1,3.4-5.1C21.8,344.8,23,346.7,23,349.8z M17.7,349.9
		c0,2.5,0.8,4,2,4c1.4,0,2-1.6,2-4.1c0-2.4-0.6-4-2-4C18.5,345.9,17.7,347.3,17.7,349.9z"/>
	<path d="M23.8,356.6c0.3-0.9,0.7-2.5,0.9-3.6l1.5-0.1c-0.3,1.3-1,2.9-1.4,3.6L23.8,356.6z"/>
	<path d="M33.8,349.8c0,3.3-1.2,5.1-3.4,5.1c-1.9,0-3.2-1.8-3.2-5c0-3.3,1.4-5.1,3.4-5.1C32.6,344.8,33.8,346.7,33.8,349.8z
		 M28.5,349.9c0,2.5,0.8,4,2,4c1.4,0,2-1.6,2-4.1c0-2.4-0.6-4-2-4C29.3,345.9,28.5,347.3,28.5,349.9z"/>
	<path d="M41.5,349.8c0,3.3-1.2,5.1-3.4,5.1c-1.9,0-3.2-1.8-3.2-5c0-3.3,1.4-5.1,3.4-5.1C40.3,344.8,41.5,346.7,41.5,349.8z
		 M36.2,349.9c0,2.5,0.8,4,2,4c1.4,0,2-1.6,2-4.1c0-2.4-0.6-4-2-4C37,345.9,36.2,347.3,36.2,349.9z"/>
</g>
<g enable-background="new    ">
	<path d="M9.6,316.8c0.3,0,0.6,0,1.1,0c0.8-0.1,1.5-0.4,2-0.9c0.6-0.6,1.1-1.4,1.3-2.6h0c-0.5,0.7-1.3,1-2.3,1c-1.8,0-2.9-1.3-2.9-3
		c0-1.8,1.3-3.5,3.3-3.5s3.2,1.6,3.2,4.1c0,2.1-0.7,3.6-1.7,4.6c-0.8,0.7-1.8,1.2-2.8,1.3c-0.5,0.1-0.9,0.1-1.2,0.1V316.8z
		 M10.1,311.2c0,1.2,0.7,2.1,1.9,2.1c0.9,0,1.6-0.4,1.9-1c0.1-0.1,0.1-0.3,0.1-0.5c0-1.7-0.6-2.9-2-2.9
		C10.9,308.8,10.1,309.8,10.1,311.2z"/>
	<path d="M23,312.7c0,3.3-1.2,5.1-3.4,5.1c-1.9,0-3.2-1.8-3.2-5c0-3.3,1.4-5.1,3.4-5.1C21.8,307.8,23,309.6,23,312.7z M17.7,312.9
		c0,2.5,0.8,4,2,4c1.4,0,2-1.6,2-4.1c0-2.4-0.6-4-2-4C18.5,308.8,17.7,310.2,17.7,312.9z"/>
	<path d="M23.8,319.6c0.3-0.9,0.7-2.5,0.9-3.6l1.5-0.1c-0.3,1.3-1,2.9-1.4,3.6L23.8,319.6z"/>
	<path d="M33.8,312.7c0,3.3-1.2,5.1-3.4,5.1c-1.9,0-3.2-1.8-3.2-5c0-3.3,1.4-5.1,3.4-5.1C32.6,307.8,33.8,309.6,33.8,312.7z
		 M28.5,312.9c0,2.5,0.8,4,2,4c1.4,0,2-1.6,2-4.1c0-2.4-0.6-4-2-4C29.3,308.8,28.5,310.2,28.5,312.9z"/>
	<path d="M41.5,312.7c0,3.3-1.2,5.1-3.4,5.1c-1.9,0-3.2-1.8-3.2-5c0-3.3,1.4-5.1,3.4-5.1C40.3,307.8,41.5,309.6,41.5,312.7z
		 M36.2,312.9c0,2.5,0.8,4,2,4c1.4,0,2-1.6,2-4.1c0-2.4-0.6-4-2-4C37,308.8,36.2,310.2,36.2,312.9z"/>
</g>
<g>
	<path d="M58.3,711.4l-0.9,1.3v0l1.5-0.2v0.7l-1.5-0.2v0l1,1.2l-0.6,0.4l-0.6-1.4h0l-0.6,1.4l-0.6-0.4l0.9-1.2v0l-1.5,0.2v-0.7
		l1.5,0.2v0l-0.9-1.2l0.6-0.3l0.6,1.4h0l0.6-1.4L58.3,711.4z"/>
	<path d="M60.8,711.2v6.7h-0.9v-6.7H60.8z"/>
	<path d="M62.4,714.4c0-0.5,0-0.9,0-1.3h0.8l0,0.8h0c0.2-0.5,0.8-0.9,1.6-0.9c0.7,0,1.7,0.4,1.7,2.1v2.9h-0.9v-2.8
		c0-0.8-0.3-1.4-1.1-1.4c-0.6,0-1,0.4-1.2,0.9c0,0.1-0.1,0.3-0.1,0.4v2.9h-0.9V714.4z"/>
	<path d="M71.4,717.7c-0.2,0.1-0.7,0.3-1.4,0.3c-1.5,0-2.4-1-2.4-2.5c0-1.5,1-2.6,2.6-2.6c0.5,0,1,0.1,1.2,0.3l-0.2,0.7
		c-0.2-0.1-0.5-0.2-1-0.2c-1.1,0-1.7,0.8-1.7,1.8c0,1.1,0.7,1.8,1.7,1.8c0.5,0,0.8-0.1,1.1-0.2L71.4,717.7z"/>
	<path d="M72.4,710.8h0.9v7.1h-0.9V710.8z"/>
	<path d="M78.8,716.6c0,0.5,0,0.9,0,1.3h-0.8l0-0.8h0c-0.2,0.4-0.7,0.9-1.6,0.9c-0.8,0-1.7-0.4-1.7-2.1v-2.8h0.9v2.7
		c0,0.9,0.3,1.5,1.1,1.5c0.6,0,1-0.4,1.2-0.8c0-0.1,0.1-0.3,0.1-0.5v-3h0.9V716.6z"/>
	<path d="M81.2,711.7c0,0.3-0.2,0.5-0.6,0.5c-0.3,0-0.5-0.2-0.5-0.5c0-0.3,0.2-0.5,0.5-0.5C81,711.1,81.2,711.4,81.2,711.7z
		 M80.3,717.9v-4.8h0.9v4.8H80.3z"/>
	<path d="M82.4,713.9c0-0.4,0.3-0.6,0.6-0.6c0.3,0,0.6,0.3,0.6,0.6c0,0.4-0.2,0.6-0.6,0.6C82.6,714.5,82.4,714.2,82.4,713.9z
		 M82.4,717.4c0-0.4,0.3-0.6,0.6-0.6c0.3,0,0.6,0.3,0.6,0.6c0,0.3-0.2,0.6-0.6,0.6C82.6,718,82.4,717.7,82.4,717.4z"/>
</g>
<g>
	<path d="M87.4,711.2h3.6v0.7h-2.8v2.2h2.5v0.7h-2.5v3h-0.9V711.2z"/>
	<path d="M96,716.6c0,0.5,0,0.9,0,1.3h-0.8l0-0.8h0c-0.2,0.4-0.7,0.9-1.6,0.9c-0.8,0-1.7-0.4-1.7-2.1v-2.8h0.9v2.7
		c0,0.9,0.3,1.5,1.1,1.5c0.6,0,1-0.4,1.2-0.8c0-0.1,0.1-0.3,0.1-0.5v-3H96V716.6z"/>
	<path d="M97.4,714.4c0-0.5,0-0.9,0-1.3h0.8l0,0.8h0c0.2-0.5,0.8-0.9,1.6-0.9c0.7,0,1.7,0.4,1.7,2.1v2.9h-0.9v-2.8
		c0-0.8-0.3-1.4-1.1-1.4c-0.6,0-1,0.4-1.2,0.9c0,0.1-0.1,0.3-0.1,0.4v2.9h-0.9V714.4z"/>
	<path d="M107.2,710.8v5.8c0,0.4,0,0.9,0,1.2h-0.8l0-0.8h0c-0.3,0.5-0.9,1-1.6,1c-1.2,0-2.1-1-2.1-2.5c0-1.6,1-2.6,2.2-2.6
		c0.7,0,1.2,0.3,1.5,0.7h0v-2.9H107.2z M106.3,715c0-0.1,0-0.3,0-0.4c-0.1-0.6-0.6-1-1.3-1c-0.9,0-1.4,0.8-1.4,1.9
		c0,1,0.5,1.8,1.4,1.8c0.6,0,1.1-0.4,1.3-1c0-0.1,0-0.2,0-0.4V715z"/>
	<path d="M111.3,717.9l-0.1-0.6h0c-0.3,0.4-0.8,0.7-1.5,0.7c-1,0-1.5-0.7-1.5-1.4c0-1.2,1-1.8,2.9-1.8v-0.1c0-0.4-0.1-1.1-1.1-1.1
		c-0.4,0-0.9,0.1-1.3,0.4l-0.2-0.6c0.4-0.3,1-0.4,1.6-0.4c1.5,0,1.8,1,1.8,2v1.8c0,0.4,0,0.8,0.1,1.2H111.3z M111.2,715.4
		c-1,0-2,0.2-2,1.1c0,0.6,0.4,0.8,0.8,0.8c0.6,0,1-0.4,1.2-0.8c0-0.1,0.1-0.2,0.1-0.3V715.4z"/>
	<path d="M116.9,717.7c-0.2,0.1-0.7,0.3-1.2,0.3l-0.3,0.4c0.4,0,0.7,0.3,0.7,0.7c0,0.6-0.5,0.8-1,0.8c-0.3,0-0.5-0.1-0.7-0.2
		l0.1-0.4c0.2,0.1,0.4,0.1,0.5,0.1c0.2,0,0.4-0.1,0.4-0.3c0-0.3-0.3-0.4-0.8-0.4l0.4-0.7c-1.2-0.2-2-1.1-2-2.4c0-1.5,1-2.6,2.6-2.6
		c0.5,0,1,0.1,1.2,0.3l-0.2,0.7c-0.2-0.1-0.5-0.2-1-0.2c-1.1,0-1.7,0.8-1.7,1.8c0,1.1,0.7,1.8,1.7,1.8c0.5,0,0.8-0.1,1.1-0.2
		L116.9,717.7z"/>
	<path d="M120.6,717.9l-0.1-0.6h0c-0.3,0.4-0.8,0.7-1.5,0.7c-1,0-1.5-0.7-1.5-1.4c0-1.2,1-1.8,2.9-1.8v-0.1c0-0.4-0.1-1.1-1.1-1.1
		c-0.4,0-0.9,0.1-1.3,0.4l-0.2-0.6c0.4-0.3,1-0.4,1.6-0.4c1.5,0,1.8,1,1.8,2v1.8c0,0.4,0,0.8,0.1,1.2H120.6z M118.3,712.2
		c0-0.6,0.3-1,0.7-1c0.2,0,0.4,0.1,0.6,0.2c0.2,0.1,0.3,0.2,0.4,0.2c0.2,0,0.2-0.1,0.3-0.4h0.5c0,0.7-0.2,1-0.7,1
		c-0.2,0-0.4-0.1-0.6-0.2c-0.2-0.1-0.3-0.2-0.4-0.2c-0.2,0-0.2,0.2-0.3,0.4H118.3z M120.5,715.4c-1,0-2,0.2-2,1.1
		c0,0.6,0.4,0.8,0.8,0.8c0.6,0,1-0.4,1.2-0.8c0-0.1,0.1-0.2,0.1-0.3V715.4z"/>
	<path d="M127.1,715.4c0,1.8-1.2,2.6-2.4,2.6c-1.3,0-2.3-1-2.3-2.5c0-1.6,1.1-2.6,2.4-2.6C126.2,712.9,127.1,714,127.1,715.4z
		 M123.3,715.5c0,1.1,0.6,1.9,1.5,1.9c0.8,0,1.5-0.8,1.5-1.9c0-0.8-0.4-1.9-1.4-1.9C123.7,713.6,123.3,714.6,123.3,715.5z"/>
	<path d="M134.7,715.4c0,1.8-1.2,2.6-2.4,2.6c-1.3,0-2.3-1-2.3-2.5c0-1.6,1.1-2.6,2.4-2.6C133.8,712.9,134.7,714,134.7,715.4z
		 M130.9,715.5c0,1.1,0.6,1.9,1.5,1.9c0.8,0,1.5-0.8,1.5-1.9c0-0.8-0.4-1.9-1.4-1.9C131.3,713.6,130.9,714.6,130.9,715.5z"/>
	<path d="M139.9,716.6c0,0.5,0,0.9,0,1.3h-0.8l0-0.8h0c-0.2,0.4-0.7,0.9-1.6,0.9c-0.8,0-1.7-0.4-1.7-2.1v-2.8h0.9v2.7
		c0,0.9,0.3,1.5,1.1,1.5c0.6,0,1-0.4,1.2-0.8c0-0.1,0.1-0.3,0.1-0.5v-3h0.9V716.6z"/>
	<path d="M144.6,715.8l-0.7,2.1H143l2.3-6.7h1l2.3,6.7h-0.9l-0.7-2.1H144.6z M146.8,715.1l-0.7-1.9c-0.1-0.4-0.2-0.8-0.3-1.2h0
		c-0.1,0.4-0.2,0.8-0.3,1.2l-0.7,1.9H146.8z"/>
	<path d="M149.4,717c0.3,0.2,0.7,0.3,1.2,0.3c0.6,0,0.9-0.3,0.9-0.7c0-0.4-0.3-0.6-0.9-0.9c-0.9-0.3-1.3-0.8-1.3-1.4
		c0-0.8,0.6-1.4,1.7-1.4c0.5,0,0.9,0.1,1.2,0.3l-0.2,0.6c-0.2-0.1-0.5-0.3-1-0.3c-0.5,0-0.8,0.3-0.8,0.7c0,0.4,0.3,0.6,0.9,0.8
		c0.8,0.3,1.3,0.7,1.3,1.5c0,0.8-0.7,1.4-1.8,1.4c-0.5,0-1-0.1-1.4-0.3L149.4,717z"/>
	<path d="M153.4,717c0.3,0.2,0.7,0.3,1.2,0.3c0.6,0,0.9-0.3,0.9-0.7c0-0.4-0.3-0.6-0.9-0.9c-0.9-0.3-1.3-0.8-1.3-1.4
		c0-0.8,0.6-1.4,1.7-1.4c0.5,0,0.9,0.1,1.2,0.3l-0.2,0.6c-0.2-0.1-0.5-0.3-1-0.3c-0.5,0-0.8,0.3-0.8,0.7c0,0.4,0.3,0.6,0.9,0.8
		c0.8,0.3,1.3,0.7,1.3,1.5c0,0.8-0.7,1.4-1.8,1.4c-0.5,0-1-0.1-1.4-0.3L153.4,717z"/>
	<path d="M161.8,715.4c0,1.8-1.2,2.6-2.4,2.6c-1.3,0-2.3-1-2.3-2.5c0-1.6,1.1-2.6,2.4-2.6C160.9,712.9,161.8,714,161.8,715.4z
		 M158,715.5c0,1.1,0.6,1.9,1.5,1.9c0.8,0,1.5-0.8,1.5-1.9c0-0.8-0.4-1.9-1.4-1.9C158.4,713.6,158,714.6,158,715.5z"/>
	<path d="M166.4,717.7c-0.2,0.1-0.7,0.3-1.4,0.3c-1.5,0-2.4-1-2.4-2.5c0-1.5,1-2.6,2.6-2.6c0.5,0,1,0.1,1.2,0.3l-0.2,0.7
		c-0.2-0.1-0.5-0.2-1-0.2c-1.1,0-1.7,0.8-1.7,1.8c0,1.1,0.7,1.8,1.7,1.8c0.5,0,0.8-0.1,1.1-0.2L166.4,717.7z"/>
	<path d="M168.4,711.7c0,0.3-0.2,0.5-0.6,0.5c-0.3,0-0.5-0.2-0.5-0.5c0-0.3,0.2-0.5,0.5-0.5C168.2,711.1,168.4,711.4,168.4,711.7z
		 M167.4,717.9v-4.8h0.9v4.8H167.4z"/>
	<path d="M172.4,717.9l-0.1-0.6h0c-0.3,0.4-0.8,0.7-1.5,0.7c-1,0-1.5-0.7-1.5-1.4c0-1.2,1-1.8,2.9-1.8v-0.1c0-0.4-0.1-1.1-1.1-1.1
		c-0.4,0-0.9,0.1-1.3,0.4l-0.2-0.6c0.4-0.3,1-0.4,1.6-0.4c1.5,0,1.8,1,1.8,2v1.8c0,0.4,0,0.8,0.1,1.2H172.4z M172.3,715.4
		c-1,0-2,0.2-2,1.1c0,0.6,0.4,0.8,0.8,0.8c0.6,0,1-0.4,1.2-0.8c0-0.1,0.1-0.2,0.1-0.3V715.4z"/>
	<path d="M178,717.7c-0.2,0.1-0.7,0.3-1.2,0.3l-0.3,0.4c0.4,0,0.7,0.3,0.7,0.7c0,0.6-0.5,0.8-1,0.8c-0.2,0-0.5-0.1-0.7-0.2l0.1-0.4
		c0.2,0.1,0.4,0.1,0.5,0.1c0.2,0,0.4-0.1,0.4-0.3c0-0.3-0.3-0.4-0.8-0.4l0.4-0.7c-1.2-0.2-2-1.1-2-2.4c0-1.5,1-2.6,2.6-2.6
		c0.5,0,1,0.1,1.2,0.3l-0.2,0.7c-0.2-0.1-0.5-0.2-1-0.2c-1.1,0-1.7,0.8-1.7,1.8c0,1.1,0.7,1.8,1.7,1.8c0.5,0,0.8-0.1,1.1-0.2
		L178,717.7z"/>
	<path d="M181.7,717.9l-0.1-0.6h0c-0.3,0.4-0.8,0.7-1.5,0.7c-1,0-1.5-0.7-1.5-1.4c0-1.2,1-1.8,2.9-1.8v-0.1c0-0.4-0.1-1.1-1.1-1.1
		c-0.4,0-0.9,0.1-1.3,0.4l-0.2-0.6c0.4-0.3,1-0.4,1.6-0.4c1.5,0,1.8,1,1.8,2v1.8c0,0.4,0,0.8,0.1,1.2H181.7z M179.5,712.2
		c0-0.6,0.3-1,0.7-1c0.2,0,0.4,0.1,0.6,0.2c0.2,0.1,0.3,0.2,0.4,0.2c0.2,0,0.2-0.1,0.3-0.4h0.5c0,0.7-0.2,1-0.7,1
		c-0.2,0-0.4-0.1-0.6-0.2c-0.2-0.1-0.3-0.2-0.4-0.2c-0.2,0-0.2,0.2-0.3,0.4H179.5z M181.6,715.4c-1,0-2,0.2-2,1.1
		c0,0.6,0.4,0.8,0.8,0.8c0.6,0,1-0.4,1.2-0.8c0-0.1,0.1-0.2,0.1-0.3V715.4z"/>
	<path d="M188.3,715.4c0,1.8-1.2,2.6-2.4,2.6c-1.3,0-2.3-1-2.3-2.5c0-1.6,1.1-2.6,2.4-2.6C187.3,712.9,188.3,714,188.3,715.4z
		 M184.4,715.5c0,1.1,0.6,1.9,1.5,1.9c0.8,0,1.5-0.8,1.5-1.9c0-0.8-0.4-1.9-1.4-1.9C184.9,713.6,184.4,714.6,184.4,715.5z"/>
	<path d="M195,714.7h-2.6v2.4h2.9v0.7h-3.8v-6.7h3.6v0.7h-2.8v2.1h2.6V714.7z"/>
	<path d="M196.3,717c0.3,0.2,0.7,0.3,1.2,0.3c0.6,0,0.9-0.3,0.9-0.7c0-0.4-0.3-0.6-0.9-0.9c-0.9-0.3-1.3-0.8-1.3-1.4
		c0-0.8,0.6-1.4,1.7-1.4c0.5,0,0.9,0.1,1.2,0.3l-0.2,0.6c-0.2-0.1-0.5-0.3-1-0.3c-0.5,0-0.8,0.3-0.8,0.7c0,0.4,0.3,0.6,0.9,0.8
		c0.8,0.3,1.3,0.7,1.3,1.5c0,0.8-0.7,1.4-1.8,1.4c-0.5,0-1-0.1-1.4-0.3L196.3,717z"/>
	<path d="M201.4,711.7v1.4h1.3v0.7h-1.3v2.6c0,0.6,0.2,0.9,0.7,0.9c0.2,0,0.4,0,0.5-0.1l0,0.7c-0.2,0.1-0.4,0.1-0.8,0.1
		c-0.4,0-0.7-0.1-0.9-0.4c-0.3-0.3-0.3-0.7-0.3-1.3v-2.6h-0.8v-0.7h0.8v-1.2L201.4,711.7z"/>
	<path d="M203.7,714.6c0-0.6,0-1.1,0-1.5h0.8l0,0.9h0c0.2-0.6,0.7-1.1,1.3-1.1c0.1,0,0.2,0,0.2,0v0.8c-0.1,0-0.2,0-0.3,0
		c-0.6,0-1.1,0.5-1.2,1.1c0,0.1,0,0.3,0,0.4v2.6h-0.9V714.6z"/>
	<path d="M209.6,717.9l-0.1-0.6h0c-0.3,0.4-0.8,0.7-1.5,0.7c-1,0-1.5-0.7-1.5-1.4c0-1.2,1-1.8,2.9-1.8v-0.1c0-0.4-0.1-1.1-1.1-1.1
		c-0.4,0-0.9,0.1-1.3,0.4l-0.2-0.6c0.4-0.3,1-0.4,1.6-0.4c1.5,0,1.8,1,1.8,2v1.8c0,0.4,0,0.8,0.1,1.2H209.6z M209.4,715.4
		c-1,0-2,0.2-2,1.1c0,0.6,0.4,0.8,0.8,0.8c0.6,0,1-0.4,1.2-0.8c0-0.1,0.1-0.2,0.1-0.3V715.4z"/>
	<path d="M211.7,714.4c0-0.5,0-0.9,0-1.3h0.8l0,0.8h0c0.2-0.5,0.8-0.9,1.6-0.9c0.7,0,1.7,0.4,1.7,2.1v2.9H215v-2.8
		c0-0.8-0.3-1.4-1.1-1.4c-0.6,0-1,0.4-1.2,0.9c0,0.1-0.1,0.3-0.1,0.4v2.9h-0.9V714.4z"/>
	<path d="M221.4,713.1c0,0.3,0,0.7,0,1.3v2.8c0,1.1-0.2,1.8-0.7,2.2c-0.5,0.4-1.1,0.6-1.8,0.6c-0.6,0-1.2-0.1-1.6-0.4l0.2-0.7
		c0.3,0.2,0.8,0.4,1.4,0.4c0.9,0,1.6-0.5,1.6-1.7v-0.5h0c-0.3,0.4-0.8,0.8-1.5,0.8c-1.2,0-2.1-1-2.1-2.4c0-1.6,1.1-2.6,2.2-2.6
		c0.8,0,1.3,0.4,1.5,0.8h0l0-0.7H221.4z M220.5,715c0-0.1,0-0.3,0-0.4c-0.2-0.5-0.6-0.9-1.2-0.9c-0.8,0-1.4,0.7-1.4,1.8
		c0,0.9,0.5,1.7,1.4,1.7c0.5,0,1-0.3,1.2-0.9c0-0.2,0.1-0.3,0.1-0.5V715z"/>
	<path d="M223.3,715.6c0,1.2,0.8,1.7,1.7,1.7c0.6,0,1-0.1,1.3-0.2l0.1,0.6c-0.3,0.1-0.8,0.3-1.6,0.3c-1.5,0-2.4-1-2.4-2.4
		s0.9-2.6,2.3-2.6c1.6,0,2,1.4,2,2.3c0,0.2,0,0.3,0,0.4H223.3z M225.9,715c0-0.6-0.2-1.4-1.2-1.4c-0.9,0-1.3,0.8-1.3,1.4H225.9z"/>
	<path d="M228.8,711.7c0,0.3-0.2,0.5-0.6,0.5c-0.3,0-0.5-0.2-0.5-0.5c0-0.3,0.2-0.5,0.5-0.5C228.6,711.1,228.8,711.4,228.8,711.7z
		 M227.9,717.9v-4.8h0.9v4.8H227.9z"/>
	<path d="M230.2,714.6c0-0.6,0-1.1,0-1.5h0.8l0,0.9h0c0.2-0.6,0.7-1.1,1.3-1.1c0.1,0,0.2,0,0.2,0v0.8c-0.1,0-0.2,0-0.3,0
		c-0.6,0-1.1,0.5-1.2,1.1c0,0.1,0,0.3,0,0.4v2.6h-0.9V714.6z"/>
	<path d="M236.1,717.9l-0.1-0.6h0c-0.3,0.4-0.8,0.7-1.5,0.7c-1,0-1.5-0.7-1.5-1.4c0-1.2,1-1.8,2.9-1.8v-0.1c0-0.4-0.1-1.1-1.1-1.1
		c-0.4,0-0.9,0.1-1.3,0.4l-0.2-0.6c0.4-0.3,1-0.4,1.6-0.4c1.5,0,1.8,1,1.8,2v1.8c0,0.4,0,0.8,0.1,1.2H236.1z M236,715.4
		c-1,0-2,0.2-2,1.1c0,0.6,0.4,0.8,0.8,0.8c0.6,0,1-0.4,1.2-0.8c0-0.1,0.1-0.2,0.1-0.3V715.4z"/>
	<path d="M237.7,719.1c0.2-0.6,0.5-1.7,0.6-2.4l1-0.1c-0.2,0.8-0.7,2-0.9,2.4L237.7,719.1z"/>
	<path d="M242.5,711.2h3.6v0.7h-2.8v2.2h2.5v0.7h-2.5v3h-0.9V711.2z"/>
	<path d="M251,716.6c0,0.5,0,0.9,0,1.3h-0.8l0-0.8h0c-0.2,0.4-0.7,0.9-1.6,0.9c-0.8,0-1.7-0.4-1.7-2.1v-2.8h0.9v2.7
		c0,0.9,0.3,1.5,1.1,1.5c0.6,0,1-0.4,1.2-0.8c0-0.1,0.1-0.3,0.1-0.5v-3h0.9V716.6z"/>
	<path d="M252.5,714.4c0-0.5,0-0.9,0-1.3h0.8l0,0.8h0c0.2-0.5,0.8-0.9,1.6-0.9c0.7,0,1.7,0.4,1.7,2.1v2.9h-0.9v-2.8
		c0-0.8-0.3-1.4-1.1-1.4c-0.6,0-1,0.4-1.2,0.9c0,0.1-0.1,0.3-0.1,0.4v2.9h-0.9V714.4z"/>
	<path d="M262.2,710.8v5.8c0,0.4,0,0.9,0,1.2h-0.8l0-0.8h0c-0.3,0.5-0.9,1-1.6,1c-1.2,0-2.1-1-2.1-2.5c0-1.6,1-2.6,2.2-2.6
		c0.7,0,1.2,0.3,1.5,0.7h0v-2.9H262.2z M261.3,715c0-0.1,0-0.3,0-0.4c-0.1-0.6-0.6-1-1.3-1c-0.9,0-1.4,0.8-1.4,1.9
		c0,1,0.5,1.8,1.4,1.8c0.6,0,1.1-0.4,1.3-1c0-0.1,0-0.2,0-0.4V715z"/>
	<path d="M266.3,717.9l-0.1-0.6h0c-0.3,0.4-0.8,0.7-1.5,0.7c-1,0-1.5-0.7-1.5-1.4c0-1.2,1-1.8,2.9-1.8v-0.1c0-0.4-0.1-1.1-1.1-1.1
		c-0.4,0-0.9,0.1-1.3,0.4l-0.2-0.6c0.4-0.3,1-0.4,1.6-0.4c1.5,0,1.8,1,1.8,2v1.8c0,0.4,0,0.8,0.1,1.2H266.3z M266.2,715.4
		c-1,0-2,0.2-2,1.1c0,0.6,0.4,0.8,0.8,0.8c0.6,0,1-0.4,1.2-0.8c0-0.1,0.1-0.2,0.1-0.3V715.4z"/>
	<path d="M271.9,717.7c-0.2,0.1-0.7,0.3-1.2,0.3l-0.3,0.4c0.4,0,0.7,0.3,0.7,0.7c0,0.6-0.5,0.8-1,0.8c-0.3,0-0.5-0.1-0.7-0.2
		l0.1-0.4c0.2,0.1,0.4,0.1,0.5,0.1c0.2,0,0.4-0.1,0.4-0.3c0-0.3-0.3-0.4-0.8-0.4l0.4-0.7c-1.2-0.2-2-1.1-2-2.4c0-1.5,1-2.6,2.6-2.6
		c0.5,0,1,0.1,1.2,0.3l-0.2,0.7c-0.2-0.1-0.5-0.2-1-0.2c-1.1,0-1.7,0.8-1.7,1.8c0,1.1,0.7,1.8,1.7,1.8c0.5,0,0.8-0.1,1.1-0.2
		L271.9,717.7z"/>
	<path d="M275.6,717.9l-0.1-0.6h0c-0.3,0.4-0.8,0.7-1.5,0.7c-1,0-1.5-0.7-1.5-1.4c0-1.2,1-1.8,2.9-1.8v-0.1c0-0.4-0.1-1.1-1.1-1.1
		c-0.4,0-0.9,0.1-1.3,0.4l-0.2-0.6c0.4-0.3,1-0.4,1.6-0.4c1.5,0,1.8,1,1.8,2v1.8c0,0.4,0,0.8,0.1,1.2H275.6z M273.4,712.2
		c0-0.6,0.3-1,0.7-1c0.2,0,0.4,0.1,0.6,0.2c0.2,0.1,0.3,0.2,0.4,0.2c0.2,0,0.2-0.1,0.3-0.4h0.5c0,0.7-0.2,1-0.7,1
		c-0.2,0-0.4-0.1-0.6-0.2c-0.2-0.1-0.3-0.2-0.4-0.2c-0.2,0-0.2,0.2-0.3,0.4H273.4z M275.5,715.4c-1,0-2,0.2-2,1.1
		c0,0.6,0.4,0.8,0.8,0.8c0.6,0,1-0.4,1.2-0.8c0-0.1,0.1-0.2,0.1-0.3V715.4z"/>
	<path d="M282.2,715.4c0,1.8-1.2,2.6-2.4,2.6c-1.3,0-2.3-1-2.3-2.5c0-1.6,1.1-2.6,2.4-2.6C281.2,712.9,282.2,714,282.2,715.4z
		 M278.3,715.5c0,1.1,0.6,1.9,1.5,1.9c0.8,0,1.5-0.8,1.5-1.9c0-0.8-0.4-1.9-1.4-1.9C278.8,713.6,278.3,714.6,278.3,715.5z"/>
	<path d="M289.8,715.4c0,1.8-1.2,2.6-2.4,2.6c-1.3,0-2.3-1-2.3-2.5c0-1.6,1.1-2.6,2.4-2.6C288.8,712.9,289.8,714,289.8,715.4z
		 M285.9,715.5c0,1.1,0.6,1.9,1.5,1.9c0.8,0,1.5-0.8,1.5-1.9c0-0.8-0.4-1.9-1.4-1.9C286.4,713.6,285.9,714.6,285.9,715.5z"/>
	<path d="M294.9,716.6c0,0.5,0,0.9,0,1.3h-0.8l0-0.8h0c-0.2,0.4-0.7,0.9-1.6,0.9c-0.8,0-1.7-0.4-1.7-2.1v-2.8h0.9v2.7
		c0,0.9,0.3,1.5,1.1,1.5c0.6,0,1-0.4,1.2-0.8c0-0.1,0.1-0.3,0.1-0.5v-3h0.9V716.6z"/>
	<path d="M299.6,715.8l-0.7,2.1H298l2.3-6.7h1l2.3,6.7h-0.9l-0.7-2.1H299.6z M301.8,715.1l-0.7-1.9c-0.2-0.4-0.3-0.8-0.4-1.2h0
		c-0.1,0.4-0.2,0.8-0.3,1.2l-0.7,1.9H301.8z"/>
	<path d="M304.4,717c0.3,0.2,0.7,0.3,1.2,0.3c0.6,0,0.9-0.3,0.9-0.7c0-0.4-0.3-0.6-0.9-0.9c-0.9-0.3-1.3-0.8-1.3-1.4
		c0-0.8,0.6-1.4,1.7-1.4c0.5,0,0.9,0.1,1.2,0.3l-0.2,0.6c-0.2-0.1-0.5-0.3-1-0.3c-0.5,0-0.8,0.3-0.8,0.7c0,0.4,0.3,0.6,0.9,0.8
		c0.8,0.3,1.3,0.7,1.3,1.5c0,0.8-0.7,1.4-1.8,1.4c-0.5,0-1-0.1-1.4-0.3L304.4,717z"/>
	<path d="M308.4,717c0.3,0.2,0.7,0.3,1.2,0.3c0.6,0,0.9-0.3,0.9-0.7c0-0.4-0.3-0.6-0.9-0.9c-0.9-0.3-1.3-0.8-1.3-1.4
		c0-0.8,0.6-1.4,1.7-1.4c0.5,0,0.9,0.1,1.2,0.3l-0.2,0.6c-0.2-0.1-0.5-0.3-1-0.3c-0.5,0-0.8,0.3-0.8,0.7c0,0.4,0.3,0.6,0.9,0.8
		c0.8,0.3,1.3,0.7,1.3,1.5c0,0.8-0.7,1.4-1.8,1.4c-0.5,0-1-0.1-1.4-0.3L308.4,717z"/>
	<path d="M316.9,715.4c0,1.8-1.2,2.6-2.4,2.6c-1.3,0-2.3-1-2.3-2.5c0-1.6,1.1-2.6,2.4-2.6C315.9,712.9,316.9,714,316.9,715.4z
		 M313,715.5c0,1.1,0.6,1.9,1.5,1.9c0.8,0,1.5-0.8,1.5-1.9c0-0.8-0.4-1.9-1.4-1.9C313.5,713.6,313,714.6,313,715.5z"/>
	<path d="M321.4,717.7c-0.2,0.1-0.7,0.3-1.4,0.3c-1.5,0-2.4-1-2.4-2.5c0-1.5,1-2.6,2.6-2.6c0.5,0,1,0.1,1.2,0.3l-0.2,0.7
		c-0.2-0.1-0.5-0.2-1-0.2c-1.1,0-1.7,0.8-1.7,1.8c0,1.1,0.7,1.8,1.7,1.8c0.5,0,0.8-0.1,1.1-0.2L321.4,717.7z"/>
	<path d="M323.4,711.7c0,0.3-0.2,0.5-0.6,0.5c-0.3,0-0.5-0.2-0.5-0.5c0-0.3,0.2-0.5,0.5-0.5C323.2,711.1,323.4,711.4,323.4,711.7z
		 M322.5,717.9v-4.8h0.9v4.8H322.5z"/>
	<path d="M327.5,717.9l-0.1-0.6h0c-0.3,0.4-0.8,0.7-1.5,0.7c-1,0-1.5-0.7-1.5-1.4c0-1.2,1-1.8,2.9-1.8v-0.1c0-0.4-0.1-1.1-1.1-1.1
		c-0.5,0-0.9,0.1-1.3,0.4l-0.2-0.6c0.4-0.3,1-0.4,1.6-0.4c1.5,0,1.8,1,1.8,2v1.8c0,0.4,0,0.8,0.1,1.2H327.5z M327.3,715.4
		c-1,0-2,0.2-2,1.1c0,0.6,0.4,0.8,0.8,0.8c0.6,0,1-0.4,1.2-0.8c0-0.1,0-0.2,0-0.3V715.4z"/>
	<path d="M333.1,717.7c-0.2,0.1-0.7,0.3-1.2,0.3l-0.3,0.4c0.4,0,0.7,0.3,0.7,0.7c0,0.6-0.5,0.8-1,0.8c-0.3,0-0.5-0.1-0.7-0.2
		l0.1-0.4c0.2,0.1,0.4,0.1,0.5,0.1c0.2,0,0.4-0.1,0.4-0.3c0-0.3-0.3-0.4-0.8-0.4l0.4-0.7c-1.2-0.2-2-1.1-2-2.4c0-1.5,1-2.6,2.6-2.6
		c0.5,0,1,0.1,1.2,0.3l-0.2,0.7c-0.2-0.1-0.5-0.2-1-0.2c-1.1,0-1.7,0.8-1.7,1.8c0,1.1,0.7,1.8,1.7,1.8c0.5,0,0.8-0.1,1.1-0.2
		L333.1,717.7z"/>
	<path d="M336.8,717.9l-0.1-0.6h0c-0.3,0.4-0.8,0.7-1.5,0.7c-1,0-1.5-0.7-1.5-1.4c0-1.2,1-1.8,2.9-1.8v-0.1c0-0.4-0.1-1.1-1.1-1.1
		c-0.5,0-0.9,0.1-1.3,0.4l-0.2-0.6c0.4-0.3,1-0.4,1.6-0.4c1.5,0,1.8,1,1.8,2v1.8c0,0.4,0,0.8,0.1,1.2H336.8z M334.5,712.2
		c0-0.6,0.3-1,0.7-1c0.2,0,0.4,0.1,0.6,0.2c0.2,0.1,0.3,0.2,0.4,0.2c0.2,0,0.3-0.1,0.3-0.4h0.5c0,0.7-0.2,1-0.7,1
		c-0.2,0-0.4-0.1-0.6-0.2c-0.2-0.1-0.3-0.2-0.4-0.2c-0.2,0-0.2,0.2-0.3,0.4H334.5z M336.6,715.4c-1,0-2,0.2-2,1.1
		c0,0.6,0.4,0.8,0.8,0.8c0.6,0,1-0.4,1.2-0.8c0-0.1,0-0.2,0-0.3V715.4z"/>
	<path d="M343.3,715.4c0,1.8-1.2,2.6-2.4,2.6c-1.3,0-2.3-1-2.3-2.5c0-1.6,1.1-2.6,2.4-2.6C342.4,712.9,343.3,714,343.3,715.4z
		 M339.5,715.5c0,1.1,0.6,1.9,1.5,1.9c0.8,0,1.5-0.8,1.5-1.9c0-0.8-0.4-1.9-1.4-1.9C339.9,713.6,339.5,714.6,339.5,715.5z"/>
	<path d="M346.6,711.2c0.5-0.1,1.2-0.1,1.8-0.1c1.2,0,2.1,0.3,2.7,0.8c0.6,0.5,0.9,1.3,0.9,2.4c0,1.1-0.3,2-1,2.6
		c-0.6,0.6-1.7,1-3,1c-0.6,0-1.1,0-1.6-0.1V711.2z M347.4,717.2c0.2,0,0.5,0,0.9,0c1.9,0,2.9-1,2.9-2.9c0-1.6-0.9-2.6-2.7-2.6
		c-0.4,0-0.8,0-1,0.1V717.2z"/>
	<path d="M357.6,715.4c0,1.8-1.2,2.6-2.4,2.6c-1.3,0-2.3-1-2.3-2.5c0-1.6,1.1-2.6,2.4-2.6C356.7,712.9,357.6,714,357.6,715.4z
		 M353.8,715.5c0,1.1,0.6,1.9,1.5,1.9c0.8,0,1.5-0.8,1.5-1.9c0-0.8-0.4-1.9-1.4-1.9C354.2,713.6,353.8,714.6,353.8,715.5z"/>
	<path d="M358.7,714.4c0-0.5,0-0.9,0-1.3h0.8l0,0.8h0c0.3-0.5,0.7-0.9,1.5-0.9c0.7,0,1.2,0.4,1.4,1h0c0.2-0.3,0.3-0.5,0.5-0.6
		c0.3-0.2,0.6-0.3,1.1-0.3c0.6,0,1.6,0.4,1.6,2.1v2.8h-0.9v-2.7c0-0.9-0.3-1.5-1-1.5c-0.5,0-0.9,0.4-1,0.8c0,0.1-0.1,0.3-0.1,0.4v3
		h-0.9V715c0-0.8-0.3-1.3-1-1.3c-0.5,0-0.9,0.4-1.1,0.9c0,0.1-0.1,0.3-0.1,0.4v2.9h-0.9V714.4z"/>
	<path d="M368,711.7c0,0.3-0.2,0.5-0.6,0.5c-0.3,0-0.5-0.2-0.5-0.5c0-0.3,0.2-0.5,0.5-0.5C367.8,711.1,368,711.4,368,711.7z
		 M367.1,717.9v-4.8h0.9v4.8H367.1z"/>
	<path d="M372.8,717.7c-0.2,0.1-0.7,0.3-1.4,0.3c-1.5,0-2.4-1-2.4-2.5c0-1.5,1-2.6,2.6-2.6c0.5,0,1,0.1,1.2,0.3l-0.2,0.7
		c-0.2-0.1-0.5-0.2-1-0.2c-1.1,0-1.7,0.8-1.7,1.8c0,1.1,0.7,1.8,1.7,1.8c0.5,0,0.8-0.1,1.1-0.2L372.8,717.7z"/>
	<path d="M374.9,711.7c0,0.3-0.2,0.5-0.6,0.5c-0.3,0-0.5-0.2-0.5-0.5c0-0.3,0.2-0.5,0.5-0.5C374.6,711.1,374.9,711.4,374.9,711.7z
		 M373.9,717.9v-4.8h0.9v4.8H373.9z"/>
	<path d="M376.2,710.8h0.9v7.1h-0.9V710.8z"/>
	<path d="M379.6,711.7c0,0.3-0.2,0.5-0.6,0.5c-0.3,0-0.5-0.2-0.5-0.5c0-0.3,0.2-0.5,0.5-0.5C379.3,711.1,379.6,711.4,379.6,711.7z
		 M378.6,717.9v-4.8h0.9v4.8H378.6z"/>
	<path d="M383.6,717.9l-0.1-0.6h0c-0.3,0.4-0.8,0.7-1.5,0.7c-1,0-1.5-0.7-1.5-1.4c0-1.2,1-1.8,2.9-1.8v-0.1c0-0.4-0.1-1.1-1.1-1.1
		c-0.5,0-0.9,0.1-1.3,0.4l-0.2-0.6c0.4-0.3,1-0.4,1.6-0.4c1.5,0,1.8,1,1.8,2v1.8c0,0.4,0,0.8,0.1,1.2H383.6z M383.5,715.4
		c-1,0-2,0.2-2,1.1c0,0.6,0.4,0.8,0.8,0.8c0.6,0,1-0.4,1.2-0.8c0-0.1,0-0.2,0-0.3V715.4z"/>
	<path d="M389.9,710.8v5.8c0,0.4,0,0.9,0,1.2h-0.8l0-0.8h0c-0.3,0.5-0.9,1-1.6,1c-1.2,0-2.1-1-2.1-2.5c0-1.6,1-2.6,2.2-2.6
		c0.7,0,1.2,0.3,1.5,0.7h0v-2.9H389.9z M389,715c0-0.1,0-0.3,0-0.4c-0.1-0.6-0.6-1-1.3-1c-0.9,0-1.4,0.8-1.4,1.9
		c0,1,0.5,1.8,1.4,1.8c0.6,0,1.1-0.4,1.3-1c0-0.1,0-0.2,0-0.4V715z"/>
	<path d="M394.1,717.9l-0.1-0.6h0c-0.3,0.4-0.8,0.7-1.5,0.7c-1,0-1.5-0.7-1.5-1.4c0-1.2,1-1.8,2.9-1.8v-0.1c0-0.4-0.1-1.1-1.1-1.1
		c-0.5,0-0.9,0.1-1.3,0.4l-0.2-0.6c0.4-0.3,1-0.4,1.6-0.4c1.5,0,1.8,1,1.8,2v1.8c0,0.4,0,0.8,0.1,1.2H394.1z M393.9,715.4
		c-1,0-2,0.2-2,1.1c0,0.6,0.4,0.8,0.8,0.8c0.6,0,1-0.4,1.2-0.8c0-0.1,0-0.2,0-0.3V715.4z"/>
	<path d="M398.3,714.4c0-0.5,0-0.9,0-1.3h0.8l0.1,0.8h0c0.2-0.5,0.8-0.9,1.6-0.9c0.7,0,1.7,0.4,1.7,2.1v2.9h-0.9v-2.8
		c0-0.8-0.3-1.4-1.1-1.4c-0.6,0-1,0.4-1.2,0.9c0,0.1-0.1,0.3-0.1,0.4v2.9h-0.9V714.4z"/>
	<path d="M408.2,715.4c0,1.8-1.2,2.6-2.4,2.6c-1.3,0-2.3-1-2.3-2.5c0-1.6,1.1-2.6,2.4-2.6C407.3,712.9,408.2,714,408.2,715.4z
		 M404.4,715.5c0,1.1,0.6,1.9,1.5,1.9c0.8,0,1.5-0.8,1.5-1.9c0-0.8-0.4-1.9-1.4-1.9C404.9,713.6,404.4,714.6,404.4,715.5z"/>
	<path d="M415,714.7h-2.6v2.4h2.9v0.7h-3.8v-6.7h3.6v0.7h-2.8v2.1h2.6V714.7z"/>
	<path d="M416.8,713.1l0.7,1c0.2,0.3,0.3,0.5,0.5,0.8h0c0.2-0.3,0.3-0.5,0.5-0.8l0.7-1h1l-1.6,2.3l1.7,2.5h-1l-0.7-1.1
		c-0.2-0.3-0.4-0.5-0.5-0.8h0c-0.2,0.3-0.3,0.5-0.5,0.8l-0.7,1.1h-1l1.7-2.5l-1.6-2.4H416.8z"/>
	<path d="M422.2,711.7v1.4h1.3v0.7h-1.3v2.6c0,0.6,0.2,0.9,0.7,0.9c0.2,0,0.4,0,0.5-0.1l0,0.7c-0.2,0.1-0.4,0.1-0.8,0.1
		c-0.4,0-0.7-0.1-0.9-0.4c-0.3-0.3-0.3-0.7-0.3-1.3v-2.6h-0.8v-0.7h0.8v-1.2L422.2,711.7z"/>
	<path d="M424.9,715.6c0,1.2,0.8,1.7,1.7,1.7c0.6,0,1-0.1,1.3-0.2l0.1,0.6c-0.3,0.1-0.8,0.3-1.6,0.3c-1.5,0-2.4-1-2.4-2.4
		s0.9-2.6,2.3-2.6c1.6,0,2,1.4,2,2.3c0,0.2,0,0.3,0,0.4H424.9z M427.5,715c0-0.6-0.2-1.4-1.2-1.4c-0.9,0-1.3,0.8-1.3,1.4H427.5z"/>
	<path d="M429.4,714.6c0-0.6,0-1.1,0-1.5h0.8l0,0.9h0c0.2-0.6,0.7-1.1,1.3-1.1c0.1,0,0.2,0,0.3,0v0.8c-0.1,0-0.2,0-0.3,0
		c-0.6,0-1.1,0.5-1.2,1.1c0,0.1,0,0.3,0,0.4v2.6h-0.9V714.6z"/>
	<path d="M433.7,711.7c0,0.3-0.2,0.5-0.6,0.5c-0.3,0-0.5-0.2-0.5-0.5c0-0.3,0.2-0.5,0.5-0.5C433.5,711.1,433.7,711.4,433.7,711.7z
		 M432.7,717.9v-4.8h0.9v4.8H432.7z"/>
	<path d="M439.4,715.4c0,1.8-1.2,2.6-2.4,2.6c-1.3,0-2.3-1-2.3-2.5c0-1.6,1.1-2.6,2.4-2.6C438.5,712.9,439.4,714,439.4,715.4z
		 M435.6,715.5c0,1.1,0.6,1.9,1.5,1.9c0.8,0,1.5-0.8,1.5-1.9c0-0.8-0.4-1.9-1.4-1.9C436.1,713.6,435.6,714.6,435.6,715.5z"/>
	<path d="M440.6,714.6c0-0.6,0-1.1,0-1.5h0.8l0,0.9h0c0.2-0.6,0.7-1.1,1.3-1.1c0.1,0,0.2,0,0.3,0v0.8c-0.1,0-0.2,0-0.3,0
		c-0.6,0-1.1,0.5-1.2,1.1c0,0.1,0,0.3,0,0.4v2.6h-0.9V714.6z"/>
	<path d="M446.4,715.6c0,1.2,0.8,1.7,1.7,1.7c0.6,0,1-0.1,1.3-0.2l0.1,0.6c-0.3,0.1-0.8,0.3-1.6,0.3c-1.5,0-2.4-1-2.4-2.4
		s0.9-2.6,2.3-2.6c1.6,0,2,1.4,2,2.3c0,0.2,0,0.3,0,0.4H446.4z M449,715c0-0.6-0.2-1.4-1.2-1.4c-0.9,0-1.3,0.8-1.3,1.4H449z"/>
	<path d="M457.8,717.7c-0.3,0.2-1,0.3-1.8,0.3c-1.9,0-3.3-1.2-3.3-3.4c0-2.1,1.4-3.5,3.5-3.5c0.8,0,1.4,0.2,1.6,0.3l-0.2,0.7
		c-0.3-0.2-0.8-0.3-1.4-0.3c-1.6,0-2.6,1-2.6,2.8c0,1.6,0.9,2.7,2.6,2.7c0.5,0,1.1-0.1,1.4-0.3L457.8,717.7z"/>
	<path d="M463.1,715.4c0,1.8-1.2,2.6-2.4,2.6c-1.3,0-2.3-1-2.3-2.5c0-1.6,1.1-2.6,2.4-2.6C462.2,712.9,463.1,714,463.1,715.4z
		 M459.3,715.5c0,1.1,0.6,1.9,1.5,1.9c0.8,0,1.5-0.8,1.5-1.9c0-0.8-0.4-1.9-1.4-1.9C459.8,713.6,459.3,714.6,459.3,715.5z"/>
	<path d="M464.3,714.4c0-0.5,0-0.9,0-1.3h0.8l0,0.8h0c0.3-0.5,0.7-0.9,1.5-0.9c0.7,0,1.2,0.4,1.4,1h0c0.2-0.3,0.3-0.5,0.5-0.6
		c0.3-0.2,0.6-0.3,1.1-0.3c0.6,0,1.6,0.4,1.6,2.1v2.8h-0.9v-2.7c0-0.9-0.3-1.5-1-1.5c-0.5,0-0.9,0.4-1,0.8c0,0.1-0.1,0.3-0.1,0.4v3
		h-0.9V715c0-0.8-0.3-1.3-1-1.3c-0.5,0-0.9,0.4-1.1,0.9c0,0.1-0.1,0.3-0.1,0.4v2.9h-0.9V714.4z"/>
	<path d="M476.6,716.6c0,0.5,0,0.9,0,1.3h-0.8l0-0.8h0c-0.2,0.4-0.7,0.9-1.6,0.9c-0.8,0-1.7-0.4-1.7-2.1v-2.8h0.9v2.7
		c0,0.9,0.3,1.5,1.1,1.5c0.6,0,1-0.4,1.2-0.8c0-0.1,0.1-0.3,0.1-0.5v-3h0.9V716.6z"/>
	<path d="M478.1,714.4c0-0.5,0-0.9,0-1.3h0.8l0.1,0.8h0c0.2-0.5,0.8-0.9,1.6-0.9c0.7,0,1.7,0.4,1.7,2.1v2.9h-0.9v-2.8
		c0-0.8-0.3-1.4-1.1-1.4c-0.6,0-1,0.4-1.2,0.9c0,0.1-0.1,0.3-0.1,0.4v2.9h-0.9V714.4z"/>
	<path d="M484.6,711.7c0,0.3-0.2,0.5-0.6,0.5c-0.3,0-0.5-0.2-0.5-0.5c0-0.3,0.2-0.5,0.5-0.5C484.4,711.1,484.6,711.4,484.6,711.7z
		 M483.7,717.9v-4.8h0.9v4.8H483.7z"/>
	<path d="M490.2,710.8v5.8c0,0.4,0,0.9,0,1.2h-0.8l0-0.8h0c-0.3,0.5-0.9,1-1.6,1c-1.2,0-2.1-1-2.1-2.5c0-1.6,1-2.6,2.2-2.6
		c0.7,0,1.2,0.3,1.5,0.7h0v-2.9H490.2z M489.3,715c0-0.1,0-0.3,0-0.4c-0.1-0.6-0.6-1-1.3-1c-0.9,0-1.4,0.8-1.4,1.9
		c0,1,0.5,1.8,1.4,1.8c0.6,0,1.1-0.4,1.3-1c0-0.1,0-0.2,0-0.4V715z"/>
	<path d="M494.3,717.9l-0.1-0.6h0c-0.3,0.4-0.8,0.7-1.5,0.7c-1,0-1.5-0.7-1.5-1.4c0-1.2,1-1.8,2.9-1.8v-0.1c0-0.4-0.1-1.1-1.1-1.1
		c-0.5,0-0.9,0.1-1.3,0.4l-0.2-0.6c0.4-0.3,1-0.4,1.6-0.4c1.5,0,1.8,1,1.8,2v1.8c0,0.4,0,0.8,0.1,1.2H494.3z M494.2,715.4
		c-1,0-2,0.2-2,1.1c0,0.6,0.4,0.8,0.8,0.8c0.6,0,1-0.4,1.2-0.8c0-0.1,0-0.2,0-0.3V715.4z"/>
	<path d="M500.6,710.8v5.8c0,0.4,0,0.9,0,1.2h-0.8l0-0.8h0c-0.3,0.5-0.9,1-1.6,1c-1.2,0-2.1-1-2.1-2.5c0-1.6,1-2.6,2.2-2.6
		c0.7,0,1.2,0.3,1.5,0.7h0v-2.9H500.6z M499.7,715c0-0.1,0-0.3,0-0.4c-0.1-0.6-0.6-1-1.3-1c-0.9,0-1.4,0.8-1.4,1.9
		c0,1,0.5,1.8,1.4,1.8c0.6,0,1.1-0.4,1.3-1c0-0.1,0-0.2,0-0.4V715z"/>
	<path d="M502.6,715.6c0,1.2,0.8,1.7,1.7,1.7c0.6,0,1-0.1,1.3-0.2l0.1,0.6c-0.3,0.1-0.8,0.3-1.6,0.3c-1.5,0-2.4-1-2.4-2.4
		s0.9-2.6,2.3-2.6c1.6,0,2,1.4,2,2.3c0,0.2,0,0.3,0,0.4H502.6z M505.2,715c0-0.6-0.2-1.4-1.2-1.4c-0.9,0-1.3,0.8-1.3,1.4H505.2z"/>
	<path d="M510.1,711.2v6.7h-0.9v-6.7H510.1z"/>
	<path d="M511.7,714.4c0-0.5,0-0.9,0-1.3h0.8l0.1,0.8h0c0.2-0.5,0.8-0.9,1.6-0.9c0.7,0,1.7,0.4,1.7,2.1v2.9h-0.9v-2.8
		c0-0.8-0.3-1.4-1.1-1.4c-0.6,0-1,0.4-1.2,0.9c0,0.1-0.1,0.3-0.1,0.4v2.9h-0.9V714.4z"/>
	<path d="M521.4,710.8v5.8c0,0.4,0,0.9,0,1.2h-0.8l0-0.8h0c-0.3,0.5-0.9,1-1.6,1c-1.2,0-2.1-1-2.1-2.5c0-1.6,1-2.6,2.2-2.6
		c0.7,0,1.2,0.3,1.5,0.7h0v-2.9H521.4z M520.6,715c0-0.1,0-0.3,0-0.4c-0.1-0.6-0.6-1-1.3-1c-0.9,0-1.4,0.8-1.4,1.9
		c0,1,0.5,1.8,1.4,1.8c0.6,0,1.1-0.4,1.3-1c0-0.1,0-0.2,0-0.4V715z"/>
	<path d="M524.7,711l-1.2,1.4h-0.6l0.9-1.4H524.7z M522.9,717.9v-4.8h0.9v4.8H522.9z"/>
	<path d="M529.4,713.1c0,0.3,0,0.7,0,1.3v2.8c0,1.1-0.2,1.8-0.7,2.2c-0.5,0.4-1.1,0.6-1.8,0.6c-0.6,0-1.2-0.1-1.6-0.4l0.2-0.7
		c0.3,0.2,0.8,0.4,1.4,0.4c0.9,0,1.6-0.5,1.6-1.7v-0.5h0c-0.3,0.4-0.8,0.8-1.5,0.8c-1.2,0-2.1-1-2.1-2.4c0-1.6,1.1-2.6,2.2-2.6
		c0.8,0,1.3,0.4,1.5,0.8h0l0-0.7H529.4z M528.5,715c0-0.1,0-0.3-0.1-0.4c-0.2-0.5-0.6-0.9-1.2-0.9c-0.8,0-1.4,0.7-1.4,1.8
		c0,0.9,0.5,1.7,1.4,1.7c0.5,0,1-0.3,1.2-0.9c0-0.2,0.1-0.3,0.1-0.5V715z"/>
	<path d="M531.3,715.6c0,1.2,0.8,1.7,1.7,1.7c0.6,0,1-0.1,1.3-0.2l0.1,0.6c-0.3,0.1-0.8,0.3-1.6,0.3c-1.5,0-2.4-1-2.4-2.4
		s0.9-2.6,2.3-2.6c1.6,0,2,1.4,2,2.3c0,0.2,0,0.3,0,0.4H531.3z M533.9,715c0-0.6-0.2-1.4-1.2-1.4c-0.9,0-1.3,0.8-1.3,1.4H533.9z"/>
	<path d="M535.8,714.4c0-0.5,0-0.9,0-1.3h0.8l0.1,0.8h0c0.2-0.5,0.8-0.9,1.6-0.9c0.7,0,1.7,0.4,1.7,2.1v2.9h-0.9v-2.8
		c0-0.8-0.3-1.4-1.1-1.4c-0.6,0-1,0.4-1.2,0.9c0,0.1-0.1,0.3-0.1,0.4v2.9h-0.9V714.4z"/>
	<path d="M544.1,717.9l-0.1-0.6h0c-0.3,0.4-0.8,0.7-1.5,0.7c-1,0-1.5-0.7-1.5-1.4c0-1.2,1-1.8,2.9-1.8v-0.1c0-0.4-0.1-1.1-1.1-1.1
		c-0.5,0-0.9,0.1-1.3,0.4l-0.2-0.6c0.4-0.3,1-0.4,1.6-0.4c1.5,0,1.8,1,1.8,2v1.8c0,0.4,0,0.8,0.1,1.2H544.1z M543.9,715.4
		c-1,0-2,0.2-2,1.1c0,0.6,0.4,0.8,0.8,0.8c0.6,0,1-0.4,1.2-0.8c0-0.1,0-0.2,0-0.3V715.4z"/>
	<path d="M86.7,719.1v-0.5h150.8v0.5H86.7z"/>
	<path d="M241.7,719.1v-0.5h201.4v0.5H241.7z"/>
	<path d="M452.3,719.1v-0.5h93.1v0.5H452.3z"/>
</g>
</svg>
