<?xml version="1.0" encoding="utf-8"?>
<!-- Generator: Adobe Illustrator 18.1.1, SVG Export Plug-In . SVG Version: 6.00 Build 0)  -->
<svg version="1.1" id="Camada_1" xmlns="http://www.w3.org/2000/svg" xmlns:xlink="http://www.w3.org/1999/xlink" x="0px" y="0px"
	 viewBox="0 402.9 595.3 439" enable-background="new 0 402.9 595.3 439" xml:space="preserve">
<g>
	<g>
		<path fill="#D9D9D9" d="M582.5,741.3H43.6v-0.7h538.8L582.5,741.3L582.5,741.3z M582.5,702.1H43.6v-0.7h538.8L582.5,702.1
			L582.5,702.1z M582.5,662.9H43.6v-0.7h538.8L582.5,662.9L582.5,662.9z M582.5,623.8H43.6v-0.7h538.8L582.5,623.8L582.5,623.8z
			 M582.5,584.5H43.6v-0.9h538.8L582.5,584.5L582.5,584.5z M582.5,545.4H43.6v-0.7h538.8L582.5,545.4L582.5,545.4z M582.5,506.3
			H43.6v-0.7h538.8L582.5,506.3L582.5,506.3z M582.5,467H43.6v-0.7h538.8L582.5,467L582.5,467z M582.5,427.9H43.6v-0.7h538.8
			L582.5,427.9L582.5,427.9z"/>
	</g>
</g>
<g>
	<g>
		<polygon fill="#ED7D31" points="94.9,453.5 158.6,453.5 158.6,780 94.9,780 		"/>
	</g>
</g>
<g>
	<g>
		<polygon fill="#FFC000" points="245,721.4 308.8,721.4 308.8,780 245,780 		"/>
	</g>
</g>
<g>
	<g>
		<rect x="41.5" y="779.6" fill="#D9D9D9" width="541" height="0.7"/>
	</g>
</g>
<g enable-background="new    ">
	<path fill="#FFFFFF" d="M77.8,442.7c0-1.3,0.8-2.2,2-2.7l0,0c-1.1-0.5-1.6-1.4-1.6-2.3c0-1.6,1.3-2.7,3.1-2.7
		c1.9,0,2.9,1.2,2.9,2.5c0,0.9-0.4,1.8-1.7,2.3l0,0c1.3,0.5,2,1.4,2,2.6c0,1.7-1.5,2.9-3.4,2.9C79.1,445.4,77.8,444.1,77.8,442.7z
		 M83.2,442.6c0-1.2-0.9-1.8-2.2-2.2c-1.2,0.3-1.8,1.1-1.8,2.1s0.7,1.9,2,1.9C82.5,444.4,83.2,443.7,83.2,442.6z M79.5,437.6
		c0,1,0.8,1.5,1.9,1.9c0.9-0.3,1.5-0.9,1.5-1.8c0-0.8-0.5-1.6-1.7-1.6C80.1,436,79.5,436.7,79.5,437.6z"/>
	<path fill="#FFFFFF" d="M86.2,443.7c0.4,0.2,1.3,0.6,2.2,0.6c1.7,0,2.3-1.1,2.3-1.9c0-1.4-1.3-2-2.6-2h-0.8v-1h0.8
		c1,0,2.2-0.5,2.2-1.7c0-0.8-0.5-1.5-1.8-1.5c-0.8,0-1.6,0.4-2,0.7l-0.4-1c0.5-0.4,1.5-0.8,2.6-0.8c2,0,2.9,1.2,2.9,2.4
		c0,1-0.6,1.9-1.9,2.4l0,0c1.2,0.2,2.2,1.2,2.2,2.6c0,1.6-1.3,3-3.7,3c-1.1,0-2.1-0.4-2.6-0.7L86.2,443.7z"/>
	<path fill="#FFFFFF" d="M93.4,447.1c0.3-0.9,0.8-2.6,0.9-3.7l1.5-0.2c-0.4,1.3-1,3-1.5,3.8L93.4,447.1z"/>
	<path fill="#FFFFFF" d="M97.3,443.7c0.4,0.2,1.3,0.6,2.2,0.6c1.7,0,2.3-1.1,2.3-1.9c0-1.4-1.3-2-2.6-2h-0.8v-1h0.8
		c1,0,2.2-0.5,2.2-1.7c0-0.8-0.5-1.5-1.8-1.5c-0.8,0-1.6,0.4-2,0.7l-0.4-1c0.5-0.4,1.5-0.8,2.6-0.8c2,0,2.9,1.2,2.9,2.4
		c0,1-0.6,1.9-1.9,2.4l0,0c1.2,0.2,2.2,1.2,2.2,2.6c0,1.6-1.3,3-3.7,3c-1.1,0-2.1-0.4-2.6-0.7L97.3,443.7z"/>
	<path fill="#FFFFFF" d="M109.1,445.2v-2.7h-4.7v-0.9l4.5-6.4h1.5v6.2h1.4v1.1h-1.4v2.7L109.1,445.2L109.1,445.2z M109.1,441.4V438
		c0-0.5,0-1.1,0-1.6l0,0c-0.3,0.6-0.6,1-0.8,1.5l-2.5,3.4l0,0h3.3V441.4z"/>
	<path fill="#FFFFFF" d="M117.4,438c0,2.1-1.1,3.2-2.4,3.2s-2.3-1-2.3-3c0-2,1.1-3.1,2.4-3.1C116.5,435,117.4,436.1,117.4,438z
		 M113.7,438.1c0,1.3,0.4,2.3,1.3,2.3s1.3-1,1.3-2.3c0-1.2-0.4-2.2-1.3-2.2C114.2,435.8,113.7,436.8,113.7,438.1z M114.9,445.4
		l5.9-10.4h0.9l-5.9,10.4H114.9z M123.9,442.2c0,2.1-1.1,3.2-2.4,3.2c-1.3,0-2.3-1-2.3-3s1.1-3.2,2.4-3.2
		C123,439.2,123.9,440.3,123.9,442.2z M120.3,442.3c0,1.3,0.5,2.3,1.3,2.3c0.9,0,1.3-1,1.3-2.3c0-1.2-0.4-2.2-1.3-2.2
		C120.7,440,120.3,441,120.3,442.3z"/>
	<path fill="#FFFFFF" d="M128.5,434.5c-1.1,1.5-1.9,3.5-1.9,6.3c0,2.8,0.9,4.7,1.9,6.3h-1.1c-1-1.3-2-3.3-2-6.3c0-3,1.1-5,2-6.3
		H128.5z"/>
	<path fill="#FFFFFF" d="M132.4,436.5L132.4,436.5l-1.8,0.9l-0.3-1l2.2-1.2h1.2v10h-1.3L132.4,436.5L132.4,436.5z"/>
	<path fill="#FFFFFF" d="M137.5,444.4c0-0.6,0.4-1,0.9-1s0.9,0.4,0.9,1c0,0.6-0.4,1-0.9,1S137.5,445,137.5,444.4z"/>
	<path fill="#FFFFFF" d="M140.5,442.7c0-1.3,0.8-2.2,2-2.7l0,0c-1.1-0.5-1.6-1.4-1.6-2.3c0-1.6,1.3-2.7,3.1-2.7
		c1.9,0,2.9,1.2,2.9,2.5c0,0.9-0.4,1.8-1.7,2.3l0,0c1.3,0.5,2,1.4,2,2.6c0,1.7-1.5,2.9-3.4,2.9C141.8,445.4,140.5,444.1,140.5,442.7
		z M145.9,442.6c0-1.2-0.9-1.8-2.2-2.2c-1.2,0.3-1.8,1.1-1.8,2.1s0.7,1.9,2,1.9C145.1,444.4,145.9,443.7,145.9,442.6z M142.2,437.6
		c0,1,0.8,1.5,1.9,1.9c0.9-0.3,1.5-0.9,1.5-1.8c0-0.8-0.5-1.6-1.7-1.6C142.8,436,142.2,436.7,142.2,437.6z"/>
	<path fill="#FFFFFF" d="M152.8,445.2v-2.7h-4.7v-0.9l4.5-6.4h1.5v6.2h1.4v1.1H154v2.7L152.8,445.2L152.8,445.2z M152.8,441.4V438
		c0-0.5,0-1.1,0-1.6l0,0c-0.3,0.6-0.6,1-0.8,1.5l-2.5,3.4l0,0h3.3V441.4z"/>
	<path fill="#FFFFFF" d="M160.7,445.2v-2.7H156v-0.9l4.5-6.4h1.5v6.2h1.4v1.1H162v2.7L160.7,445.2L160.7,445.2z M160.7,441.4V438
		c0-0.5,0-1.1,0-1.6l0,0c-0.3,0.6-0.6,1-0.8,1.5l-2.5,3.4l0,0h3.3V441.4z"/>
	<path fill="#FFFFFF" d="M164.5,444.4c0-0.6,0.4-1,0.9-1s0.9,0.4,0.9,1c0,0.6-0.4,1-0.9,1S164.5,445,164.5,444.4z"/>
	<path fill="#FFFFFF" d="M173.3,436.1c-0.3,0-0.6,0-1,0.1c-2.1,0.4-3.3,1.9-3.5,3.6l0,0c0.5-0.6,1.3-1.2,2.4-1.2c1.8,0,3,1.3,3,3.2
		c0,1.8-1.3,3.5-3.3,3.5c-2.1,0-3.6-1.7-3.6-4.3c0-2,0.7-3.5,1.7-4.5c0.8-0.8,1.9-1.3,3.2-1.5c0.4-0.1,0.7-0.1,1-0.1v1.2H173.3z
		 M173,441.9c0-1.4-0.8-2.3-2.1-2.3c-0.8,0-1.6,0.5-1.9,1.2c-0.1,0.2-0.2,0.4-0.2,0.6c0,1.7,0.8,2.9,2.2,2.9
		C172.2,444.3,173,443.4,173,441.9z"/>
	<path fill="#FFFFFF" d="M175.9,443.7c0.4,0.2,1.3,0.6,2.2,0.6c1.7,0,2.3-1.1,2.3-1.9c0-1.4-1.3-2-2.6-2H177v-1h0.8
		c1,0,2.2-0.5,2.2-1.7c0-0.8-0.5-1.5-1.8-1.5c-0.8,0-1.6,0.4-2,0.7l-0.4-1c0.5-0.4,1.5-0.8,2.6-0.8c2,0,2.9,1.2,2.9,2.4
		c0,1-0.6,1.9-1.9,2.4l0,0c1.2,0.2,2.2,1.2,2.2,2.6c0,1.6-1.3,3-3.7,3c-1.1,0-2.1-0.4-2.6-0.7L175.9,443.7z"/>
	<path fill="#FFFFFF" d="M186.4,436.5L186.4,436.5l-1.8,0.9l-0.3-1l2.2-1.2h1.2v10h-1.3L186.4,436.5L186.4,436.5z"/>
	<path fill="#FFFFFF" d="M191,447.1c1.1-1.5,1.9-3.5,1.9-6.3c0-2.8-0.8-4.7-1.9-6.3h1.1c1,1.3,2,3.2,2,6.3c0,3-1,5-2,6.3H191z"/>
</g>
<g enable-background="new    ">
	<path fill="#FFFFFF" d="M231.7,709.1L231.7,709.1L230,710l-0.3-1l2.1-1.1h1.1v9.7h-1.3L231.7,709.1L231.7,709.1z"/>
	<path fill="#FFFFFF" d="M240.5,717.6V715H236v-0.9l4.3-6.2h1.4v6h1.4v1h-1.4v2.6h-1.2V717.6z M240.5,713.9v-3.2c0-0.5,0-1,0-1.5
		l0,0c-0.3,0.6-0.5,1-0.8,1.4l-2.4,3.3l0,0H240.5z"/>
	<path fill="#FFFFFF" d="M243.7,719.4c0.3-0.9,0.7-2.5,0.9-3.6l1.5-0.1c-0.3,1.3-1,2.9-1.4,3.6L243.7,719.4z"/>
	<path fill="#FFFFFF" d="M248,716.7c0.3,0,0.6,0,1.1,0c0.8-0.1,1.5-0.4,2-0.9c0.6-0.6,1.1-1.4,1.3-2.6l0,0c-0.5,0.7-1.3,1-2.3,1
		c-1.7,0-2.9-1.3-2.9-3c0-1.8,1.3-3.4,3.3-3.4s3.2,1.6,3.2,4.1c0,2.1-0.7,3.6-1.7,4.5c-0.7,0.7-1.8,1.2-2.8,1.3
		c-0.5,0.1-0.9,0.1-1.2,0.1L248,716.7L248,716.7z M248.5,711.1c0,1.2,0.7,2.1,1.9,2.1c0.9,0,1.6-0.4,1.9-1c0.1-0.1,0.1-0.3,0.1-0.5
		c0-1.7-0.6-2.9-2-2.9C249.2,708.7,248.5,709.7,248.5,711.1z"/>
	<path fill="#FFFFFF" d="M260.7,709H257l-0.4,2.5c0.2,0,0.4-0.1,0.8-0.1c0.7,0,1.5,0.2,2.1,0.5c0.8,0.4,1.4,1.3,1.4,2.5
		c0,1.9-1.5,3.3-3.6,3.3c-1.1,0-2-0.3-2.4-0.6l0.3-1c0.4,0.2,1.2,0.5,2.1,0.5c1.2,0,2.3-0.8,2.3-2.1s-0.9-2.1-2.8-2.1
		c-0.6,0-1,0.1-1.3,0.1l0.6-4.7h4.6L260.7,709L260.7,709z"/>
	<path fill="#FFFFFF" d="M266.9,710.6c0,2-1.1,3.1-2.3,3.1c-1.2,0-2.3-1-2.3-2.9s1.1-3,2.3-3C266,707.7,266.9,708.8,266.9,710.6z
		 M263.3,710.7c0,1.2,0.4,2.2,1.3,2.2s1.3-0.9,1.3-2.2c0-1.2-0.3-2.2-1.3-2.2C263.8,708.5,263.3,709.5,263.3,710.7z M264.5,717.8
		l5.7-10h0.8l-5.7,10H264.5z M273.2,714.7c0,2-1.1,3.1-2.3,3.1c-1.2,0-2.3-1-2.3-2.9c0-2,1.1-3,2.3-3
		C272.3,711.8,273.2,712.8,273.2,714.7z M269.6,714.7c0,1.2,0.5,2.2,1.3,2.2c0.9,0,1.3-0.9,1.3-2.2c0-1.2-0.3-2.2-1.3-2.2
		C270.1,712.5,269.6,713.5,269.6,714.7z"/>
	<path fill="#FFFFFF" d="M277.6,707.3c-1.1,1.5-1.9,3.4-1.9,6.1s0.8,4.6,1.9,6.1h-1c-0.9-1.2-2-3.1-2-6.1c0-2.9,1-4.8,2-6.1H277.6z"
		/>
	<path fill="#FFFFFF" d="M278.9,716.1c0.4,0.2,1.2,0.6,2.1,0.6c1.7,0,2.2-1.1,2.2-1.9c0-1.4-1.2-1.9-2.5-1.9H280v-1h0.7
		c1,0,2.2-0.5,2.2-1.6c0-0.8-0.5-1.5-1.7-1.5c-0.8,0-1.5,0.3-1.9,0.6l-0.3-1c0.5-0.4,1.5-0.7,2.5-0.7c1.9,0,2.8,1.1,2.8,2.3
		c0,1-0.6,1.8-1.8,2.3l0,0c1.2,0.2,2.2,1.1,2.2,2.5c0,1.6-1.2,2.9-3.5,2.9c-1.1,0-2-0.3-2.5-0.7L278.9,716.1z"/>
	<path fill="#FFFFFF" d="M286.5,716.1c0.4,0.2,1.2,0.6,2.1,0.6c1.7,0,2.2-1.1,2.2-1.9c0-1.4-1.2-1.9-2.5-1.9h-0.7v-1h0.7
		c1,0,2.2-0.5,2.2-1.6c0-0.8-0.5-1.5-1.7-1.5c-0.8,0-1.5,0.3-1.9,0.6l-0.3-1c0.5-0.4,1.5-0.7,2.5-0.7c1.9,0,2.8,1.1,2.8,2.3
		c0,1-0.6,1.8-1.8,2.3l0,0c1.2,0.2,2.2,1.1,2.2,2.5c0,1.6-1.2,2.9-3.5,2.9c-1.1,0-2-0.3-2.5-0.7L286.5,716.1z"/>
	<path fill="#FFFFFF" d="M300.3,712.7c0,3.3-1.2,5.1-3.4,5.1c-1.9,0-3.2-1.8-3.2-5c0-3.3,1.4-5,3.4-5
		C299.1,707.7,300.3,709.6,300.3,712.7z M295,712.8c0,2.5,0.8,4,2,4c1.3,0,2-1.6,2-4s-0.6-4-2-4C295.9,708.8,295,710.2,295,712.8z"
		/>
	<path fill="#FFFFFF" d="M301.6,716.8c0-0.6,0.4-0.9,0.9-0.9s0.9,0.4,0.9,0.9c0,0.5-0.3,0.9-0.9,0.9
		C302,717.8,301.6,717.4,301.6,716.8z"/>
	<path fill="#FFFFFF" d="M305.4,716.7c0.3,0,0.6,0,1.1,0c0.8-0.1,1.5-0.4,2-0.9c0.6-0.6,1.1-1.4,1.3-2.6l0,0c-0.5,0.7-1.3,1-2.3,1
		c-1.7,0-2.9-1.3-2.9-3c0-1.8,1.3-3.4,3.3-3.4s3.2,1.6,3.2,4.1c0,2.1-0.7,3.6-1.7,4.5c-0.7,0.7-1.8,1.2-2.8,1.3
		c-0.5,0.1-0.9,0.1-1.2,0.1V716.7z M305.8,711.1c0,1.2,0.7,2.1,1.9,2.1c0.9,0,1.6-0.4,1.9-1c0.1-0.1,0.1-0.3,0.1-0.5
		c0-1.7-0.6-2.9-2-2.9C306.6,708.7,305.8,709.7,305.8,711.1z"/>
	<path fill="#FFFFFF" d="M315.1,709.1L315.1,709.1l-1.7,0.9l-0.3-1l2.1-1.1h1.1v9.7H315L315.1,709.1L315.1,709.1z"/>
	<path fill="#FFFFFF" d="M319.9,717.6v-0.8l1-1c2.5-2.4,3.6-3.6,3.6-5.1c0-1-0.5-1.9-1.9-1.9c-0.9,0-1.6,0.4-2.1,0.8l-0.4-0.9
		c0.7-0.6,1.6-1,2.7-1c2.1,0,3,1.4,3,2.8c0,1.8-1.3,3.2-3.3,5.2l-0.8,0.7l0,0h4.4v1.1h-6.2V717.6z"/>
	<path fill="#FFFFFF" d="M327.2,719.4c1.1-1.5,1.9-3.4,1.9-6.1c0-2.7-0.8-4.6-1.9-6.1h1c1,1.2,2,3.1,2,6.1c0,2.9-1,4.8-2,6.1H327.2z
		"/>
</g>
<g enable-background="new    ">
	<path fill="#FFFFFF" d="M371.6,761.7L371.6,761.7l-1.7,0.9l-0.3-1l2.1-1.1h1.1v9.7h-1.3L371.6,761.7L371.6,761.7z"/>
	<path fill="#FFFFFF" d="M375.9,772c0.3-0.9,0.7-2.5,0.9-3.6l1.5-0.1c-0.3,1.3-1,2.9-1.4,3.6L375.9,772z"/>
	<path fill="#FFFFFF" d="M385,761.4c-0.3,0-0.6,0-1,0.1c-2.1,0.3-3.1,1.8-3.4,3.4l0,0c0.5-0.6,1.3-1.1,2.3-1.1
		c1.7,0,2.9,1.2,2.9,3.1c0,1.8-1.2,3.4-3.2,3.4c-2.1,0-3.4-1.6-3.4-4.1c0-1.9,0.7-3.4,1.6-4.4c0.8-0.8,1.9-1.3,3.1-1.4
		c0.4-0.1,0.7-0.1,1-0.1L385,761.4L385,761.4z M384.6,767c0-1.4-0.8-2.2-2-2.2c-0.8,0-1.5,0.5-1.9,1.2c-0.1,0.1-0.1,0.3-0.1,0.6
		c0,1.6,0.8,2.8,2.1,2.8C383.8,769.4,384.6,768.4,384.6,767z"/>
	<path fill="#FFFFFF" d="M389.9,761.7L389.9,761.7l-1.7,0.9l-0.3-1l2.1-1.1h1.1v9.7h-1.3L389.9,761.7L389.9,761.7z"/>
	<path fill="#FFFFFF" d="M399.1,763.2c0,2-1.1,3.1-2.3,3.1s-2.3-1-2.3-2.9s1.1-3,2.3-3C398.2,760.4,399.1,761.4,399.1,763.2z
		 M395.6,763.3c0,1.2,0.4,2.2,1.3,2.2s1.3-0.9,1.3-2.2c0-1.2-0.3-2.2-1.3-2.2C396,761.1,395.6,762.1,395.6,763.3z M396.7,770.4
		l5.7-10h0.8l-5.7,10H396.7z M405.4,767.3c0,2-1.1,3.1-2.3,3.1c-1.2,0-2.3-1-2.3-2.9c0-2,1.1-3,2.3-3
		C404.5,764.4,405.4,765.4,405.4,767.3z M401.9,767.3c0,1.2,0.5,2.2,1.3,2.2c0.9,0,1.3-0.9,1.3-2.2c0-1.2-0.3-2.2-1.3-2.2
		C402.3,765.2,401.9,766.1,401.9,767.3z"/>
	<path fill="#FFFFFF" d="M409.8,759.9c-1.1,1.5-1.9,3.4-1.9,6.1s0.8,4.6,1.9,6.1h-1c-0.9-1.2-2-3.1-2-6.1c0-2.9,1-4.8,2-6.1H409.8z"
		/>
	<path fill="#FFFFFF" d="M411.1,768.7c0.4,0.2,1.2,0.6,2.1,0.6c1.7,0,2.2-1.1,2.2-1.9c0-1.4-1.2-1.9-2.5-1.9h-0.7v-1h0.7
		c1,0,2.2-0.5,2.2-1.6c0-0.8-0.5-1.5-1.7-1.5c-0.8,0-1.5,0.3-1.9,0.6l-0.3-1c0.5-0.4,1.5-0.7,2.5-0.7c1.9,0,2.8,1.1,2.8,2.3
		c0,1-0.6,1.8-1.8,2.3l0,0c1.2,0.2,2.2,1.1,2.2,2.5c0,1.6-1.2,2.9-3.5,2.9c-1.1,0-2-0.3-2.5-0.7L411.1,768.7z"/>
	<path fill="#FFFFFF" d="M424.2,761.6h-3.7l-0.4,2.5c0.2,0,0.4-0.1,0.8-0.1c0.7,0,1.5,0.2,2.1,0.5c0.8,0.4,1.4,1.3,1.4,2.5
		c0,1.9-1.5,3.3-3.6,3.3c-1.1,0-2-0.3-2.4-0.6l0.3-1c0.4,0.2,1.2,0.5,2.1,0.5c1.2,0,2.3-0.8,2.3-2.1s-0.8-2.1-2.8-2.1
		c-0.6,0-1,0.1-1.3,0.1l0.6-4.7h4.6V761.6z"/>
	<path fill="#FFFFFF" d="M426.2,769.4c0-0.6,0.4-0.9,0.9-0.9c0.5,0,0.9,0.4,0.9,0.9s-0.3,0.9-0.9,0.9
		C426.5,770.4,426.2,770,426.2,769.4z"/>
	<path fill="#FFFFFF" d="M434.7,761.4c-0.3,0-0.6,0-1,0.1c-2.1,0.3-3.1,1.8-3.4,3.4l0,0c0.5-0.6,1.3-1.1,2.3-1.1
		c1.7,0,2.9,1.2,2.9,3.1c0,1.8-1.2,3.4-3.2,3.4c-2.1,0-3.4-1.6-3.4-4.1c0-1.9,0.7-3.4,1.6-4.4c0.8-0.8,1.9-1.3,3.1-1.4
		c0.4-0.1,0.7-0.1,1-0.1v1.1H434.7z M434.3,767c0-1.4-0.8-2.2-2-2.2c-0.8,0-1.5,0.5-1.9,1.2c-0.1,0.1-0.1,0.3-0.1,0.6
		c0,1.6,0.8,2.8,2.1,2.8C433.6,769.4,434.3,768.4,434.3,767z"/>
	<path fill="#FFFFFF" d="M437.1,768.7c0.4,0.2,1.2,0.6,2.1,0.6c1.7,0,2.2-1.1,2.2-1.9c0-1.4-1.2-1.9-2.5-1.9h-0.7v-1h0.7
		c1,0,2.2-0.5,2.2-1.6c0-0.8-0.5-1.5-1.7-1.5c-0.8,0-1.5,0.3-1.9,0.6l-0.3-1c0.5-0.4,1.5-0.7,2.5-0.7c1.9,0,2.8,1.1,2.8,2.3
		c0,1-0.6,1.8-1.8,2.3l0,0c1.2,0.2,2.2,1.1,2.2,2.5c0,1.6-1.2,2.9-3.5,2.9c-1.1,0-2-0.3-2.5-0.7L437.1,768.7z"/>
	<path fill="#FFFFFF" d="M445.2,769.3c0.3,0,0.6,0,1.1,0c0.8-0.1,1.5-0.4,2-0.9c0.6-0.6,1.1-1.4,1.3-2.6l0,0c-0.5,0.7-1.3,1-2.3,1
		c-1.7,0-2.9-1.3-2.9-3c0-1.8,1.3-3.4,3.3-3.4c2,0,3.2,1.6,3.2,4.1c0,2.1-0.7,3.6-1.7,4.5c-0.7,0.7-1.8,1.2-2.8,1.3
		c-0.5,0.1-0.9,0.1-1.2,0.1V769.3z M445.7,763.7c0,1.2,0.7,2.1,1.9,2.1c0.9,0,1.6-0.4,1.9-1c0.1-0.1,0.1-0.3,0.1-0.5
		c0-1.7-0.6-2.9-2-2.9C446.5,761.4,445.7,762.3,445.7,763.7z"/>
	<path fill="#FFFFFF" d="M451.8,772c1.1-1.5,1.9-3.4,1.9-6.1c0-2.7-0.8-4.6-1.9-6.1h1c1,1.2,2,3.1,2,6.1c0,2.9-1,4.8-2,6.1H451.8z"
		/>
</g>
<g enable-background="new    ">
	<path fill="#FFFFFF" d="M501.4,770.2c0,3.3-1.2,5.1-3.4,5.1c-1.9,0-3.2-1.8-3.2-5c0-3.3,1.4-5,3.4-5
		C500.3,765.3,501.4,767.1,501.4,770.2z M496.2,770.4c0,2.5,0.8,4,2,4c1.3,0,2-1.6,2-4c0-2.4-0.6-4-2-4
		C497,766.3,496.2,767.7,496.2,770.4z"/>
	<path fill="#FFFFFF" d="M502.2,777c0.3-0.9,0.7-2.5,0.9-3.6l1.5-0.1c-0.3,1.3-1,2.9-1.4,3.6L502.2,777z"/>
	<path fill="#FFFFFF" d="M508.6,766.7L508.6,766.7l-1.7,0.9l-0.3-1l2.1-1.1h1.1v9.7h-1.3L508.6,766.7L508.6,766.7z"/>
	<path fill="#FFFFFF" d="M519.8,770.2c0,3.3-1.2,5.1-3.4,5.1c-1.9,0-3.2-1.8-3.2-5c0-3.3,1.4-5,3.4-5
		C518.6,765.3,519.8,767.1,519.8,770.2z M514.5,770.4c0,2.5,0.8,4,2,4c1.3,0,2-1.6,2-4c0-2.4-0.6-4-2-4
		C515.4,766.3,514.5,767.7,514.5,770.4z"/>
	<path fill="#FFFFFF" d="M525.4,768.2c0,2-1.1,3.1-2.3,3.1s-2.3-1-2.3-2.9s1.1-3,2.3-3C524.5,765.3,525.4,766.4,525.4,768.2z
		 M521.8,768.3c0,1.2,0.4,2.2,1.3,2.2s1.3-0.9,1.3-2.2c0-1.2-0.3-2.2-1.3-2.2C522.3,766.1,521.8,767.1,521.8,768.3z M523,775.3
		l5.7-10h0.8l-5.7,10H523z M531.7,772.2c0,2-1.1,3.1-2.3,3.1c-1.2,0-2.3-1-2.3-2.9c0-2,1.1-3,2.3-3
		C530.8,769.3,531.7,770.4,531.7,772.2z M528.1,772.3c0,1.2,0.5,2.2,1.3,2.2c0.9,0,1.3-0.9,1.3-2.2c0-1.2-0.3-2.2-1.3-2.2
		C528.6,770.1,528.1,771.1,528.1,772.3z"/>
	<path fill="#FFFFFF" d="M536.1,764.8c-1.1,1.5-1.9,3.4-1.9,6.1c0,2.7,0.8,4.6,1.9,6.1h-1c-0.9-1.2-2-3.1-2-6.1c0-2.9,1-4.8,2-6.1
		H536.1z"/>
	<path fill="#FFFFFF" d="M537.1,775.2v-0.8l1-1c2.5-2.4,3.6-3.6,3.6-5.1c0-1-0.5-1.9-1.9-1.9c-0.9,0-1.6,0.4-2.1,0.8l-0.4-0.9
		c0.7-0.6,1.6-1,2.7-1c2.1,0,3,1.4,3,2.8c0,1.8-1.3,3.2-3.3,5.2l-0.8,0.7l0,0h4.4v1.1h-6.2V775.2z"/>
	<path fill="#FFFFFF" d="M544.8,774.4c0-0.6,0.4-0.9,0.9-0.9c0.5,0,0.9,0.4,0.9,0.9s-0.3,0.9-0.9,0.9
		C545.2,775.3,544.8,774.9,544.8,774.4z"/>
	<path fill="#FFFFFF" d="M550.6,766.7L550.6,766.7l-1.7,0.9l-0.3-1l2.1-1.1h1.1v9.7h-1.3v-8.5H550.6z"/>
	<path fill="#FFFFFF" d="M555.8,773.7c0.4,0.2,1.2,0.6,2.1,0.6c1.7,0,2.2-1.1,2.2-1.9c0-1.4-1.2-1.9-2.5-1.9h-0.7v-1h0.7
		c1,0,2.2-0.5,2.2-1.6c0-0.8-0.5-1.5-1.7-1.5c-0.8,0-1.5,0.3-1.9,0.6l-0.3-1c0.5-0.4,1.5-0.7,2.5-0.7c1.9,0,2.8,1.1,2.8,2.3
		c0,1-0.6,1.8-1.8,2.3l0,0c1.2,0.2,2.2,1.1,2.2,2.5c0,1.6-1.2,2.9-3.5,2.9c-1.1,0-2-0.3-2.5-0.7L555.8,773.7z"/>
	<path fill="#FFFFFF" d="M568.6,766.4c-0.3,0-0.6,0-1,0.1c-2.1,0.3-3.1,1.8-3.4,3.4l0,0c0.5-0.6,1.3-1.1,2.3-1.1
		c1.7,0,2.9,1.2,2.9,3.1c0,1.8-1.2,3.4-3.2,3.4c-2.1,0-3.4-1.6-3.4-4.1c0-1.9,0.7-3.4,1.6-4.4c0.8-0.8,1.9-1.3,3.1-1.4
		c0.4-0.1,0.7-0.1,1-0.1v1.1H568.6z M568.3,772c0-1.4-0.8-2.2-2-2.2c-0.8,0-1.5,0.5-1.9,1.2c-0.1,0.1-0.1,0.3-0.1,0.6
		c0,1.6,0.8,2.8,2.1,2.8C567.5,774.3,568.3,773.4,568.3,772z"/>
	<path fill="#FFFFFF" d="M570.4,777c1.1-1.5,1.9-3.4,1.9-6.1s-0.8-4.6-1.9-6.1h1c1,1.2,2,3.1,2,6.1c0,2.9-1,4.8-2,6.1H570.4z"/>
</g>
<polygon fill="#70AD47" points="378,773.6 441.7,773.6 441.7,780 378,780 "/>
<polygon fill="#820000" points="501.4,778.6 565,778.6 565,780 501.4,780 "/>
<g enable-background="new    ">
	<path fill="#FFFFFF" d="M76.8,798.8l-1,3.2h-1.3l3.4-10h1.6l3.4,10h-1.4l-1.1-3.2H76.8z M80.1,797.8l-1-2.9
		c-0.2-0.7-0.4-1.3-0.5-1.8l0,0c-0.1,0.6-0.3,1.2-0.5,1.8l-1,2.9H80.1z"/>
	<path fill="#FFFFFF" d="M84,800.7c0.4,0.3,1.1,0.5,1.7,0.5c1,0,1.4-0.5,1.4-1.1s-0.4-1-1.3-1.3c-1.3-0.5-1.9-1.2-1.9-2
		c0-1.2,0.9-2.1,2.5-2.1c0.7,0,1.4,0.2,1.8,0.4l-0.3,1c-0.3-0.2-0.8-0.4-1.5-0.4c-0.8,0-1.2,0.4-1.2,1s0.4,0.9,1.4,1.2
		c1.3,0.5,1.9,1.1,1.9,2.2c0,1.3-1,2.2-2.7,2.2c-0.8,0-1.5-0.2-2-0.5L84,800.7z"/>
	<path fill="#FFFFFF" d="M89.9,800.7c0.4,0.3,1.1,0.5,1.7,0.5c1,0,1.4-0.5,1.4-1.1s-0.4-1-1.3-1.3c-1.3-0.5-1.9-1.2-1.9-2
		c0-1.2,0.9-2.1,2.5-2.1c0.7,0,1.4,0.2,1.8,0.4l-0.3,1c-0.3-0.2-0.8-0.4-1.5-0.4c-0.8,0-1.2,0.4-1.2,1s0.4,0.9,1.4,1.2
		c1.3,0.5,1.9,1.1,1.9,2.2c0,1.3-1,2.2-2.7,2.2c-0.8,0-1.5-0.2-2-0.5L89.9,800.7z"/>
	<path fill="#FFFFFF" d="M102.5,798.3c0,2.7-1.8,3.8-3.6,3.8c-2,0-3.5-1.4-3.5-3.7c0-2.4,1.6-3.8,3.6-3.8
		C101.1,794.6,102.5,796.1,102.5,798.3z M96.8,798.4c0,1.6,0.9,2.8,2.2,2.8c1.3,0,2.2-1.2,2.2-2.8c0-1.2-0.6-2.8-2.2-2.8
		C97.5,795.6,96.8,797,96.8,798.4z"/>
	<path fill="#FFFFFF" d="M109.3,801.7c-0.3,0.2-1.1,0.4-2.1,0.4c-2.2,0-3.6-1.5-3.6-3.7s1.5-3.8,3.9-3.8c0.8,0,1.5,0.2,1.8,0.4
		l-0.3,1c-0.3-0.2-0.8-0.3-1.5-0.3c-1.7,0-2.5,1.2-2.5,2.7c0,1.7,1.1,2.7,2.5,2.7c0.7,0,1.2-0.2,1.6-0.4L109.3,801.7z"/>
	<path fill="#FFFFFF" d="M112.3,792.8c0,0.4-0.3,0.8-0.8,0.8c-0.5,0-0.8-0.4-0.8-0.8c0-0.5,0.3-0.8,0.8-0.8
		C112,791.9,112.3,792.3,112.3,792.8z M110.9,802v-7.2h1.3v7.2H110.9z"/>
	<path fill="#FFFFFF" d="M118.4,802l-0.1-0.9l0,0c-0.4,0.6-1.2,1.1-2.2,1.1c-1.5,0-2.2-1-2.2-2.1c0-1.7,1.6-2.7,4.3-2.7v-0.1
		c0-0.6-0.2-1.7-1.6-1.7c-0.7,0-1.4,0.2-1.9,0.5l-0.3-0.9c0.6-0.4,1.5-0.6,2.4-0.6c2.2,0,2.7,1.5,2.7,3v2.7c0,0.6,0,1.2,0.1,1.7
		H118.4z M118.2,798.3c-1.4,0-3.1,0.2-3.1,1.6c0,0.8,0.6,1.3,1.2,1.3c0.9,0,1.5-0.6,1.7-1.2c0-0.1,0.1-0.3,0.1-0.4v-1.3H118.2z"/>
	<path fill="#FFFFFF" d="M126.7,801.7c-0.3,0.2-1,0.4-1.9,0.4l-0.4,0.6c0.6,0.1,1,0.5,1,1c0,0.9-0.7,1.2-1.6,1.2
		c-0.4,0-0.8-0.1-1-0.3l0.2-0.6c0.2,0.1,0.5,0.2,0.8,0.2c0.3,0,0.6-0.1,0.6-0.5s-0.5-0.6-1.2-0.6l0.6-1.1c-1.8-0.2-3-1.6-3-3.7
		c0-2.2,1.5-3.8,3.9-3.8c0.8,0,1.5,0.2,1.8,0.4l-0.3,1c-0.3-0.2-0.8-0.3-1.5-0.3c-1.7,0-2.5,1.2-2.5,2.7c0,1.7,1.1,2.7,2.5,2.7
		c0.7,0,1.2-0.2,1.6-0.4L126.7,801.7z"/>
	<path fill="#FFFFFF" d="M132.2,802l-0.1-0.9l0,0c-0.4,0.6-1.2,1.1-2.2,1.1c-1.5,0-2.2-1-2.2-2.1c0-1.7,1.6-2.7,4.3-2.7v-0.1
		c0-0.6-0.2-1.7-1.6-1.7c-0.7,0-1.4,0.2-1.9,0.5l-0.3-0.9c0.6-0.4,1.5-0.6,2.4-0.6c2.2,0,2.7,1.5,2.7,3v2.7c0,0.6,0,1.2,0.1,1.7
		H132.2z M128.9,793.5c0-1,0.4-1.5,1-1.5c0.3,0,0.6,0.1,0.9,0.3c0.2,0.1,0.4,0.3,0.6,0.3c0.2,0,0.4-0.1,0.4-0.6h0.7
		c0,1-0.3,1.5-1,1.5c-0.3,0-0.6-0.1-0.9-0.3s-0.5-0.3-0.6-0.3c-0.2,0-0.4,0.3-0.4,0.7h-0.7V793.5z M132,798.3
		c-1.4,0-3.1,0.2-3.1,1.6c0,0.8,0.6,1.3,1.2,1.3c0.9,0,1.5-0.6,1.7-1.2c0-0.1,0.1-0.3,0.1-0.4v-1.3H132z"/>
	<path fill="#FFFFFF" d="M142,798.3c0,2.7-1.8,3.8-3.6,3.8c-2,0-3.5-1.4-3.5-3.7c0-2.4,1.6-3.8,3.6-3.8
		C140.6,794.6,142,796.1,142,798.3z M136.2,798.4c0,1.6,0.9,2.8,2.2,2.8s2.2-1.2,2.2-2.8c0-1.2-0.6-2.8-2.2-2.8
		C136.9,795.6,136.2,797,136.2,798.4z"/>
	<path fill="#FFFFFF" d="M146.8,792.1c0.6-0.1,1.4-0.2,2.5-0.2c1.3,0,2.2,0.3,2.8,0.8s0.9,1.2,0.9,2.1s-0.3,1.6-0.8,2.1
		c-0.7,0.7-1.8,1.1-3.1,1.1c-0.4,0-0.7,0-1-0.1v4h-1.3L146.8,792.1L146.8,792.1z M148.1,796.9c0.3,0.1,0.6,0.1,1.1,0.1
		c1.6,0,2.5-0.8,2.5-2.1s-0.9-2-2.4-2c-0.6,0-1,0-1.2,0.1L148.1,796.9L148.1,796.9z"/>
	<path fill="#FFFFFF" d="M154.5,797c0-0.9,0-1.6-0.1-2.3h1.1v1.4h0.1c0.3-1,1.1-1.6,2-1.6c0.1,0,0.3,0,0.4,0v1.2c-0.1,0-0.3,0-0.4,0
		c-0.9,0-1.6,0.7-1.8,1.7c0,0.2-0.1,0.4-0.1,0.6v3.8h-1.3V797H154.5z"/>
	<path fill="#FFFFFF" d="M160.9,792.8c0,0.4-0.3,0.8-0.8,0.8c-0.5,0-0.8-0.4-0.8-0.8c0-0.5,0.3-0.8,0.8-0.8
		C160.5,791.9,160.9,792.3,160.9,792.8z M159.4,802v-7.2h1.3v7.2H159.4z"/>
	<path fill="#FFFFFF" d="M163.4,794.8l1.4,4.1c0.2,0.7,0.4,1.3,0.6,1.8l0,0c0.2-0.6,0.4-1.2,0.6-1.8l1.4-4.1h1.4L166,802h-1.3
		l-2.7-7.2H163.4z"/>
	<path fill="#FFFFFF" d="M174,802l-0.1-0.9l0,0c-0.4,0.6-1.2,1.1-2.2,1.1c-1.5,0-2.2-1-2.2-2.1c0-1.7,1.6-2.7,4.3-2.7v-0.1
		c0-0.6-0.2-1.7-1.6-1.7c-0.7,0-1.4,0.2-1.9,0.5l-0.3-0.9c0.6-0.4,1.5-0.6,2.4-0.6c2.2,0,2.7,1.5,2.7,3v2.7c0,0.6,0,1.2,0.1,1.7H174
		z M173.8,798.3c-1.4,0-3.1,0.2-3.1,1.6c0,0.8,0.6,1.3,1.2,1.3c0.9,0,1.5-0.6,1.7-1.2c0-0.1,0.1-0.3,0.1-0.4L173.8,798.3
		L173.8,798.3z"/>
	<path fill="#FFFFFF" d="M183.4,791.4v8.7c0,0.6,0,1.4,0.1,1.9h-1.2l-0.1-1.3l0,0c-0.4,0.8-1.3,1.4-2.5,1.4c-1.7,0-3.1-1.5-3.1-3.7
		c0-2.4,1.5-3.9,3.2-3.9c1.1,0,1.8,0.5,2.2,1.1l0,0v-4.3L183.4,791.4L183.4,791.4z M182.1,797.7c0-0.2,0-0.4-0.1-0.6
		c-0.2-0.8-0.9-1.5-1.9-1.5c-1.4,0-2.2,1.2-2.2,2.8c0,1.5,0.7,2.7,2.1,2.7c0.9,0,1.7-0.6,1.9-1.6c0-0.2,0.1-0.4,0.1-0.6L182.1,797.7
		L182.1,797.7z"/>
	<path fill="#FFFFFF" d="M189.6,802l-0.1-0.9l0,0c-0.4,0.6-1.2,1.1-2.2,1.1c-1.5,0-2.2-1-2.2-2.1c0-1.7,1.6-2.7,4.3-2.7v-0.1
		c0-0.6-0.2-1.7-1.6-1.7c-0.7,0-1.4,0.2-1.9,0.5l-0.3-0.9c0.6-0.4,1.5-0.6,2.4-0.6c2.2,0,2.7,1.5,2.7,3v2.7c0,0.6,0,1.2,0.1,1.7
		H189.6z M189.4,798.3c-1.4,0-3.1,0.2-3.1,1.6c0,0.8,0.6,1.3,1.2,1.3c0.9,0,1.5-0.6,1.7-1.2c0-0.1,0.1-0.3,0.1-0.4v-1.3H189.4z"/>
</g>
<g enable-background="new    ">
	<path fill="#FFFFFF" d="M217.7,792h5.4v1.1H219v3.3h3.8v1.1H219v4.5h-1.3V792z"/>
	<path fill="#FFFFFF" d="M230.4,800c0,0.7,0,1.4,0.1,2h-1.2l-0.1-1.2l0,0c-0.3,0.6-1.1,1.3-2.4,1.3c-1.1,0-2.5-0.6-2.5-3.2v-4.1h1.3
		v4c0,1.4,0.4,2.3,1.6,2.3c0.9,0,1.5-0.6,1.7-1.2c0.1-0.2,0.1-0.4,0.1-0.7v-4.4h1.3L230.4,800L230.4,800z"/>
	<path fill="#FFFFFF" d="M232.6,796.7c0-0.7,0-1.4-0.1-2h1.2l0.1,1.2l0,0c0.4-0.7,1.2-1.4,2.4-1.4c1,0,2.5,0.6,2.5,3.1v4.3h-1.3
		v-4.1c0-1.2-0.4-2.1-1.7-2.1c-0.9,0-1.5,0.6-1.8,1.3c-0.1,0.2-0.1,0.4-0.1,0.6v4.3h-1.3v-5.2H232.6z"/>
	<path fill="#FFFFFF" d="M247.1,791.4v8.7c0,0.6,0,1.4,0.1,1.9H246l-0.1-1.3l0,0c-0.4,0.8-1.3,1.4-2.5,1.4c-1.7,0-3.1-1.5-3.1-3.7
		c0-2.4,1.5-3.9,3.2-3.9c1.1,0,1.8,0.5,2.2,1.1l0,0v-4.3L247.1,791.4L247.1,791.4z M245.8,797.7c0-0.2,0-0.4-0.1-0.6
		c-0.2-0.8-0.9-1.5-1.9-1.5c-1.4,0-2.2,1.2-2.2,2.8c0,1.5,0.7,2.7,2.1,2.7c0.9,0,1.7-0.6,1.9-1.6c0-0.2,0.1-0.4,0.1-0.6L245.8,797.7
		L245.8,797.7z"/>
	<path fill="#FFFFFF" d="M253.3,802l-0.1-0.9l0,0c-0.4,0.6-1.2,1.1-2.2,1.1c-1.5,0-2.2-1-2.2-2.1c0-1.7,1.6-2.7,4.3-2.7v-0.1
		c0-0.6-0.2-1.7-1.6-1.7c-0.7,0-1.4,0.2-1.9,0.5l-0.3-0.9c0.6-0.4,1.5-0.6,2.4-0.6c2.2,0,2.7,1.5,2.7,3v2.7c0,0.6,0,1.2,0.1,1.7
		H253.3z M253.1,798.3c-1.4,0-3.1,0.2-3.1,1.6c0,0.8,0.6,1.3,1.2,1.3c0.9,0,1.5-0.6,1.7-1.2c0-0.1,0.1-0.3,0.1-0.4L253.1,798.3
		L253.1,798.3z"/>
	<path fill="#FFFFFF" d="M261.6,801.7c-0.3,0.2-1,0.4-1.9,0.4l-0.4,0.6c0.6,0.1,1,0.5,1,1c0,0.9-0.7,1.2-1.6,1.2
		c-0.4,0-0.8-0.1-1-0.3l0.2-0.6c0.2,0.1,0.5,0.2,0.8,0.2s0.6-0.1,0.6-0.5s-0.5-0.6-1.2-0.6l0.6-1.1c-1.8-0.2-3-1.6-3-3.7
		c0-2.2,1.5-3.8,3.9-3.8c0.8,0,1.5,0.2,1.8,0.4l-0.3,1c-0.3-0.2-0.8-0.3-1.5-0.3c-1.7,0-2.5,1.2-2.5,2.7c0,1.7,1.1,2.7,2.5,2.7
		c0.7,0,1.2-0.2,1.6-0.4L261.6,801.7z"/>
	<path fill="#FFFFFF" d="M267.1,802l-0.1-0.9l0,0c-0.4,0.6-1.2,1.1-2.2,1.1c-1.5,0-2.2-1-2.2-2.1c0-1.7,1.6-2.7,4.3-2.7v-0.1
		c0-0.6-0.2-1.7-1.6-1.7c-0.7,0-1.4,0.2-1.9,0.5l-0.3-0.9c0.6-0.4,1.5-0.6,2.4-0.6c2.2,0,2.7,1.5,2.7,3v2.7c0,0.6,0,1.2,0.1,1.7
		H267.1z M263.8,793.5c0-1,0.4-1.5,1-1.5c0.3,0,0.6,0.1,0.9,0.3c0.2,0.1,0.4,0.3,0.6,0.3c0.2,0,0.4-0.1,0.4-0.6h0.7
		c0,1-0.3,1.5-1,1.5c-0.3,0-0.6-0.1-0.9-0.3c-0.3-0.2-0.5-0.3-0.6-0.3c-0.2,0-0.4,0.3-0.4,0.7h-0.7V793.5z M266.9,798.3
		c-1.4,0-3.1,0.2-3.1,1.6c0,0.8,0.6,1.3,1.2,1.3c0.9,0,1.5-0.6,1.7-1.2c0-0.1,0.1-0.3,0.1-0.4L266.9,798.3L266.9,798.3z"/>
	<path fill="#FFFFFF" d="M276.8,798.3c0,2.7-1.8,3.8-3.6,3.8c-2,0-3.5-1.4-3.5-3.7c0-2.4,1.6-3.8,3.6-3.8
		C275.4,794.6,276.8,796.1,276.8,798.3z M271.1,798.4c0,1.6,0.9,2.8,2.2,2.8c1.3,0,2.2-1.2,2.2-2.8c0-1.2-0.6-2.8-2.2-2.8
		C271.8,795.6,271.1,797,271.1,798.4z"/>
	<path fill="#FFFFFF" d="M281.7,792.1c0.6-0.1,1.4-0.2,2.5-0.2c1.3,0,2.2,0.3,2.8,0.8c0.6,0.5,0.9,1.2,0.9,2.1s-0.3,1.6-0.8,2.1
		c-0.7,0.7-1.8,1.1-3.1,1.1c-0.4,0-0.7,0-1-0.1v4h-1.3V792.1z M283,796.9c0.3,0.1,0.6,0.1,1.1,0.1c1.6,0,2.5-0.8,2.5-2.1
		s-0.9-2-2.4-2c-0.6,0-1,0-1.2,0.1V796.9z"/>
	<path fill="#FFFFFF" d="M289.4,797c0-0.9,0-1.6-0.1-2.3h1.1v1.4h0.1c0.3-1,1.1-1.6,2-1.6c0.1,0,0.3,0,0.4,0v1.2c-0.1,0-0.3,0-0.4,0
		c-0.9,0-1.6,0.7-1.8,1.7c0,0.2-0.1,0.4-0.1,0.6v3.8h-1.3L289.4,797L289.4,797z"/>
	<path fill="#FFFFFF" d="M295.8,792.8c0,0.4-0.3,0.8-0.8,0.8c-0.5,0-0.8-0.4-0.8-0.8c0-0.5,0.3-0.8,0.8-0.8
		C295.4,791.9,295.8,792.3,295.8,792.8z M294.3,802v-7.2h1.3v7.2H294.3z"/>
	<path fill="#FFFFFF" d="M298.3,794.8l1.4,4.1c0.2,0.7,0.4,1.3,0.6,1.8l0,0c0.2-0.6,0.4-1.2,0.6-1.8l1.4-4.1h1.4l-2.8,7.2h-1.3
		l-2.7-7.2H298.3z"/>
	<path fill="#FFFFFF" d="M308.9,802l-0.1-0.9l0,0c-0.4,0.6-1.2,1.1-2.2,1.1c-1.5,0-2.2-1-2.2-2.1c0-1.7,1.6-2.7,4.3-2.7v-0.1
		c0-0.6-0.2-1.7-1.6-1.7c-0.7,0-1.4,0.2-1.9,0.5l-0.3-0.9c0.6-0.4,1.5-0.6,2.4-0.6c2.2,0,2.7,1.5,2.7,3v2.7c0,0.6,0,1.2,0.1,1.7
		H308.9z M308.7,798.3c-1.4,0-3.1,0.2-3.1,1.6c0,0.8,0.6,1.3,1.2,1.3c0.9,0,1.5-0.6,1.7-1.2c0-0.1,0.1-0.3,0.1-0.4L308.7,798.3
		L308.7,798.3z"/>
	<path fill="#FFFFFF" d="M318.3,791.4v8.7c0,0.6,0,1.4,0.1,1.9h-1.2l-0.1-1.3l0,0c-0.4,0.8-1.3,1.4-2.5,1.4c-1.7,0-3.1-1.5-3.1-3.7
		c0-2.4,1.5-3.9,3.2-3.9c1.1,0,1.8,0.5,2.2,1.1l0,0v-4.3L318.3,791.4L318.3,791.4z M317,797.7c0-0.2,0-0.4-0.1-0.6
		c-0.2-0.8-0.9-1.5-1.9-1.5c-1.4,0-2.2,1.2-2.2,2.8c0,1.5,0.7,2.7,2.1,2.7c0.9,0,1.7-0.6,1.9-1.6c0-0.2,0.1-0.4,0.1-0.6v-1.2H317z"
		/>
	<path fill="#FFFFFF" d="M324.5,802l-0.1-0.9l0,0c-0.4,0.6-1.2,1.1-2.2,1.1c-1.5,0-2.2-1-2.2-2.1c0-1.7,1.6-2.7,4.3-2.7v-0.1
		c0-0.6-0.2-1.7-1.6-1.7c-0.7,0-1.4,0.2-1.9,0.5l-0.3-0.9c0.6-0.4,1.5-0.6,2.4-0.6c2.2,0,2.7,1.5,2.7,3v2.7c0,0.6,0,1.2,0.1,1.7
		H324.5z M324.3,798.3c-1.4,0-3.1,0.2-3.1,1.6c0,0.8,0.6,1.3,1.2,1.3c0.9,0,1.5-0.6,1.7-1.2c0-0.1,0.1-0.3,0.1-0.4L324.3,798.3
		L324.3,798.3z"/>
</g>
<g enable-background="new    ">
	<path fill="#FFFFFF" d="M359.3,796.9c0,3.5-2.1,5.3-4.7,5.3c-2.7,0-4.5-2.1-4.5-5.1c0-3.2,2-5.3,4.7-5.3S359.3,793.9,359.3,796.9z
		 M351.5,797c0,2.1,1.2,4.1,3.2,4.1c2.1,0,3.2-1.9,3.2-4.2c0-2-1-4.1-3.2-4.1C352.6,792.8,351.5,794.8,351.5,797z"/>
	<path fill="#FFFFFF" d="M360.9,797c0-0.9,0-1.6-0.1-2.3h1.1v1.4h0.1c0.3-1,1.1-1.6,2-1.6c0.1,0,0.3,0,0.4,0v1.2c-0.1,0-0.3,0-0.4,0
		c-0.9,0-1.6,0.7-1.8,1.7c0,0.2-0.1,0.4-0.1,0.6v3.8h-1.3L360.9,797L360.9,797z"/>
	<path fill="#FFFFFF" d="M371.9,794.8c0,0.5-0.1,1.1-0.1,2v4.2c0,1.7-0.3,2.7-1,3.3c-0.7,0.7-1.7,0.9-2.6,0.9s-1.8-0.2-2.4-0.6
		l0.3-1c0.5,0.3,1.2,0.6,2.1,0.6c1.3,0,2.3-0.7,2.3-2.5v-0.9l0,0c-0.4,0.7-1.2,1.2-2.3,1.2c-1.8,0-3.1-1.5-3.1-3.5
		c0-2.4,1.6-3.8,3.3-3.8c1.3,0,1.9,0.7,2.3,1.3l0,0l0.1-1.1h1.1V794.8z M370.6,797.6c0-0.2,0-0.4-0.1-0.6c-0.2-0.8-0.9-1.4-1.8-1.4
		c-1.3,0-2.1,1.1-2.1,2.7c0,1.4,0.7,2.6,2.1,2.6c0.8,0,1.5-0.5,1.8-1.3c0.1-0.2,0.1-0.5,0.1-0.7V797.6z"/>
	<path fill="#FFFFFF" d="M378,802l-0.1-0.9l0,0c-0.4,0.6-1.2,1.1-2.2,1.1c-1.5,0-2.2-1-2.2-2.1c0-1.7,1.6-2.7,4.3-2.7v-0.1
		c0-0.6-0.2-1.7-1.6-1.7c-0.7,0-1.4,0.2-1.9,0.5l-0.3-0.9c0.6-0.4,1.5-0.6,2.4-0.6c2.2,0,2.7,1.5,2.7,3v2.7c0,0.6,0,1.2,0.1,1.7H378
		z M377.8,798.3c-1.4,0-3.1,0.2-3.1,1.6c0,0.8,0.6,1.3,1.2,1.3c0.9,0,1.5-0.6,1.7-1.2c0-0.1,0.1-0.3,0.1-0.4L377.8,798.3
		L377.8,798.3z"/>
	<path fill="#FFFFFF" d="M381.2,796.7c0-0.7,0-1.4-0.1-2h1.2l0.1,1.2l0,0c0.4-0.7,1.2-1.4,2.4-1.4c1,0,2.5,0.6,2.5,3.1v4.3H386v-4.1
		c0-1.2-0.4-2.1-1.7-2.1c-0.9,0-1.5,0.6-1.8,1.3c-0.1,0.2-0.1,0.4-0.1,0.6v4.3h-1.3v-5.2H381.2z"/>
	<path fill="#FFFFFF" d="M391,792.8c0,0.4-0.3,0.8-0.8,0.8c-0.5,0-0.8-0.4-0.8-0.8c0-0.5,0.3-0.8,0.8-0.8
		C390.6,791.9,391,792.3,391,792.8z M389.5,802v-7.2h1.3v7.2H389.5z"/>
	<path fill="#FFFFFF" d="M392.2,801.2l3.3-4.2c0.3-0.4,0.6-0.7,0.9-1.1l0,0h-3.9v-1.1h5.5v0.8l-3.2,4.2c-0.3,0.4-0.6,0.8-0.9,1.1
		l0,0h4.2v1h-5.9V801.2z"/>
	<path fill="#FFFFFF" d="M403.4,802l-0.1-0.9l0,0c-0.4,0.6-1.2,1.1-2.2,1.1c-1.5,0-2.2-1-2.2-2.1c0-1.7,1.6-2.7,4.3-2.7v-0.1
		c0-0.6-0.2-1.7-1.6-1.7c-0.7,0-1.4,0.2-1.9,0.5l-0.3-0.9c0.6-0.4,1.5-0.6,2.4-0.6c2.2,0,2.7,1.5,2.7,3v2.7c0,0.6,0,1.2,0.1,1.7
		H403.4z M403.2,798.3c-1.4,0-3.1,0.2-3.1,1.6c0,0.8,0.6,1.3,1.2,1.3c0.9,0,1.5-0.6,1.7-1.2c0-0.1,0.1-0.3,0.1-0.4L403.2,798.3
		L403.2,798.3z"/>
	<path fill="#FFFFFF" d="M411.7,801.7c-0.3,0.2-1,0.4-1.9,0.4l-0.4,0.6c0.6,0.1,1,0.5,1,1c0,0.9-0.7,1.2-1.6,1.2
		c-0.4,0-0.8-0.1-1-0.3l0.2-0.6c0.2,0.1,0.5,0.2,0.8,0.2c0.3,0,0.6-0.1,0.6-0.5s-0.5-0.6-1.2-0.6l0.6-1.1c-1.8-0.2-3-1.6-3-3.7
		c0-2.2,1.5-3.8,3.9-3.8c0.8,0,1.5,0.2,1.8,0.4l-0.3,1c-0.3-0.2-0.8-0.3-1.5-0.3c-1.7,0-2.5,1.2-2.5,2.7c0,1.7,1.1,2.7,2.5,2.7
		c0.7,0,1.2-0.2,1.6-0.4L411.7,801.7z"/>
	<path fill="#FFFFFF" d="M417.2,802l-0.1-0.9l0,0c-0.4,0.6-1.2,1.1-2.2,1.1c-1.5,0-2.2-1-2.2-2.1c0-1.7,1.6-2.7,4.3-2.7v-0.1
		c0-0.6-0.2-1.7-1.6-1.7c-0.7,0-1.4,0.2-1.9,0.5l-0.3-0.9c0.6-0.4,1.5-0.6,2.4-0.6c2.2,0,2.7,1.5,2.7,3v2.7c0,0.6,0,1.2,0.1,1.7
		H417.2z M413.9,793.5c0-1,0.4-1.5,1-1.5c0.3,0,0.6,0.1,0.9,0.3c0.2,0.1,0.4,0.3,0.6,0.3s0.4-0.1,0.4-0.6h0.7c0,1-0.3,1.5-1,1.5
		c-0.3,0-0.6-0.1-0.9-0.3c-0.3-0.2-0.5-0.3-0.6-0.3c-0.2,0-0.4,0.3-0.4,0.7h-0.7V793.5z M417,798.3c-1.4,0-3.1,0.2-3.1,1.6
		c0,0.8,0.6,1.3,1.2,1.3c0.9,0,1.5-0.6,1.7-1.2c0-0.1,0.1-0.3,0.1-0.4L417,798.3L417,798.3z"/>
	<path fill="#FFFFFF" d="M426.9,798.3c0,2.7-1.8,3.8-3.6,3.8c-2,0-3.5-1.4-3.5-3.7c0-2.4,1.6-3.8,3.6-3.8
		C425.5,794.6,426.9,796.1,426.9,798.3z M421.2,798.4c0,1.6,0.9,2.8,2.2,2.8s2.2-1.2,2.2-2.8c0-1.2-0.6-2.8-2.2-2.8
		C421.9,795.6,421.2,797,421.2,798.4z"/>
	<path fill="#FFFFFF" d="M431.8,792.1c0.7-0.1,1.6-0.2,2.5-0.2c1.4,0,2.3,0.3,2.9,0.8c0.5,0.4,0.8,1.1,0.8,1.9
		c0,1.3-0.8,2.2-1.9,2.6l0,0c0.8,0.3,1.2,1,1.5,2c0.3,1.4,0.6,2.4,0.8,2.8H437c-0.2-0.3-0.4-1.1-0.7-2.4c-0.3-1.4-0.8-1.9-2-2h-1.2
		v4.4h-1.3V792.1z M433.1,796.7h1.3c1.4,0,2.3-0.8,2.3-1.9c0-1.3-0.9-1.9-2.3-1.9c-0.6,0-1.1,0.1-1.3,0.1V796.7z"/>
	<path fill="#FFFFFF" d="M440.6,798.6c0,1.8,1.2,2.5,2.5,2.5c0.9,0,1.5-0.2,2-0.4l0.2,0.9c-0.5,0.2-1.3,0.4-2.4,0.4
		c-2.2,0-3.5-1.5-3.5-3.6s1.3-3.9,3.4-3.9c2.4,0,3,2.1,3,3.4c0,0.3,0,0.5,0,0.6L440.6,798.6L440.6,798.6z M444.4,797.7
		c0-0.8-0.3-2.1-1.8-2.1c-1.3,0-1.9,1.2-2,2.1H444.4z"/>
	<path fill="#FFFFFF" d="M447.3,791.4h1.3V802h-1.3V791.4z"/>
	<path fill="#FFFFFF" d="M452.3,792.8c0,0.4-0.3,0.8-0.8,0.8c-0.5,0-0.8-0.4-0.8-0.8c0-0.5,0.3-0.8,0.8-0.8
		C452,791.9,452.3,792.3,452.3,792.8z M450.8,802v-7.2h1.3v7.2H450.8z"/>
	<path fill="#FFFFFF" d="M460.5,794.8c0,0.5-0.1,1.1-0.1,2v4.2c0,1.7-0.3,2.7-1,3.3c-0.7,0.7-1.7,0.9-2.6,0.9s-1.8-0.2-2.4-0.6
		l0.3-1c0.5,0.3,1.2,0.6,2.1,0.6c1.3,0,2.3-0.7,2.3-2.5v-0.9l0,0c-0.4,0.7-1.2,1.2-2.3,1.2c-1.8,0-3.1-1.5-3.1-3.5
		c0-2.4,1.6-3.8,3.3-3.8c1.3,0,1.9,0.7,2.3,1.3l0,0l0.1-1.1h1.1V794.8z M459.2,797.6c0-0.2,0-0.4-0.1-0.6c-0.2-0.8-0.9-1.4-1.8-1.4
		c-1.3,0-2.1,1.1-2.1,2.7c0,1.4,0.7,2.6,2.1,2.6c0.8,0,1.5-0.5,1.8-1.3c0.1-0.2,0.1-0.5,0.1-0.7V797.6z"/>
	<path fill="#FFFFFF" d="M464,792.8c0,0.4-0.3,0.8-0.8,0.8c-0.5,0-0.8-0.4-0.8-0.8c0-0.5,0.3-0.8,0.8-0.8
		C463.7,791.9,464,792.3,464,792.8z M462.6,802v-7.2h1.3v7.2H462.6z"/>
	<path fill="#FFFFFF" d="M472.6,798.3c0,2.7-1.8,3.8-3.6,3.8c-2,0-3.5-1.4-3.5-3.7c0-2.4,1.6-3.8,3.6-3.8
		C471.2,794.6,472.6,796.1,472.6,798.3z M466.9,798.4c0,1.6,0.9,2.8,2.2,2.8s2.2-1.2,2.2-2.8c0-1.2-0.6-2.8-2.2-2.8
		S466.9,797,466.9,798.4z"/>
	<path fill="#FFFFFF" d="M474.1,800.7c0.4,0.3,1.1,0.5,1.7,0.5c1,0,1.4-0.5,1.4-1.1s-0.4-1-1.3-1.3c-1.3-0.5-1.9-1.2-1.9-2
		c0-1.2,0.9-2.1,2.5-2.1c0.7,0,1.4,0.2,1.8,0.4l-0.3,1c-0.3-0.2-0.8-0.4-1.5-0.4c-0.8,0-1.2,0.4-1.2,1s0.4,0.9,1.4,1.2
		c1.3,0.5,1.9,1.1,1.9,2.2c0,1.3-1,2.2-2.7,2.2c-0.8,0-1.5-0.2-2-0.5L474.1,800.7z"/>
	<path fill="#FFFFFF" d="M484.2,802l-0.1-0.9l0,0c-0.4,0.6-1.2,1.1-2.2,1.1c-1.5,0-2.2-1-2.2-2.1c0-1.7,1.6-2.7,4.3-2.7v-0.1
		c0-0.6-0.2-1.7-1.6-1.7c-0.7,0-1.4,0.2-1.9,0.5l-0.3-0.9c0.6-0.4,1.5-0.6,2.4-0.6c2.2,0,2.7,1.5,2.7,3v2.7c0,0.6,0,1.2,0.1,1.7
		H484.2z M484,798.3c-1.4,0-3.1,0.2-3.1,1.6c0,0.8,0.6,1.3,1.2,1.3c0.9,0,1.5-0.6,1.7-1.2c0-0.1,0.1-0.3,0.1-0.4L484,798.3
		L484,798.3z"/>
</g>
<g enable-background="new    ">
	<path fill="#FFFFFF" d="M521.2,796.9c0,3.5-2.1,5.3-4.7,5.3c-2.7,0-4.5-2.1-4.5-5.1c0-3.2,2-5.3,4.7-5.3
		C519.4,791.8,521.2,793.9,521.2,796.9z M513.4,797c0,2.1,1.2,4.1,3.2,4.1c2.1,0,3.2-1.9,3.2-4.2c0-2-1-4.1-3.2-4.1
		C514.5,792.8,513.4,794.8,513.4,797z"/>
	<path fill="#FFFFFF" d="M528.9,800c0,0.7,0,1.4,0.1,2h-1.2l-0.1-1.2l0,0c-0.3,0.6-1.1,1.3-2.4,1.3c-1.1,0-2.5-0.6-2.5-3.2v-4.1h1.3
		v4c0,1.4,0.4,2.3,1.6,2.3c0.9,0,1.5-0.6,1.7-1.2c0.1-0.2,0.1-0.4,0.1-0.7v-4.4h1.3v5.2H528.9z"/>
	<path fill="#FFFFFF" d="M532.7,792.7v2.1h1.9v1h-1.9v3.9c0,0.9,0.3,1.4,1,1.4c0.3,0,0.6,0,0.8-0.1l0.1,1c-0.3,0.1-0.7,0.2-1.2,0.2
		c-0.6,0-1.1-0.2-1.4-0.6c-0.4-0.4-0.5-1-0.5-1.9v-3.9h-1.1v-1h1.1v-1.7L532.7,792.7z"/>
	<path fill="#FFFFFF" d="M536,797c0-0.9,0-1.6-0.1-2.3h1.1v1.4h0.1c0.3-1,1.1-1.6,2-1.6c0.1,0,0.3,0,0.4,0v1.2c-0.1,0-0.3,0-0.4,0
		c-0.9,0-1.6,0.7-1.8,1.7c0,0.2-0.1,0.4-0.1,0.6v3.8H536V797z"/>
	<path fill="#FFFFFF" d="M547.3,798.3c0,2.7-1.8,3.8-3.6,3.8c-2,0-3.5-1.4-3.5-3.7c0-2.4,1.6-3.8,3.6-3.8
		C545.9,794.6,547.3,796.1,547.3,798.3z M541.6,798.4c0,1.6,0.9,2.8,2.2,2.8c1.3,0,2.2-1.2,2.2-2.8c0-1.2-0.6-2.8-2.2-2.8
		C542.3,795.6,541.6,797,541.6,798.4z"/>
	<path fill="#FFFFFF" d="M548.8,800.7c0.4,0.3,1.1,0.5,1.7,0.5c1,0,1.4-0.5,1.4-1.1s-0.4-1-1.3-1.3c-1.3-0.5-1.9-1.2-1.9-2
		c0-1.2,0.9-2.1,2.5-2.1c0.7,0,1.4,0.2,1.8,0.4l-0.3,1c-0.3-0.2-0.8-0.4-1.5-0.4c-0.8,0-1.2,0.4-1.2,1s0.4,0.9,1.4,1.2
		c1.3,0.5,1.9,1.1,1.9,2.2c0,1.3-1,2.2-2.7,2.2c-0.8,0-1.5-0.2-2-0.5L548.8,800.7z"/>
	<path fill="#FFFFFF" d="M558.7,792.3l-1.4,1.9l0,0l2.3-0.3v1l-2.3-0.3l0,0l1.4,1.8l-0.9,0.5l-0.9-2.1l0,0l-1,2.1l-0.8-0.5l1.4-1.8
		l0,0l-2.2,0.3v-1l2.2,0.3l0,0l-1.4-1.8l0.9-0.5l0.9,2.1l0,0l0.9-2.1L558.7,792.3z"/>
</g>
<g enable-background="new    ">
	<path fill="#FFFFFF" d="M20.3,776.6c0,3.3-1.2,5.1-3.4,5.1c-1.9,0-3.2-1.8-3.2-5c0-3.3,1.4-5.1,3.4-5.1
		C19.1,771.7,20.3,773.5,20.3,776.6z M15,776.8c0,2.5,0.8,4,2,4c1.4,0,2-1.6,2-4.1c0-2.4-0.6-4-2-4C15.8,772.7,15,774.1,15,776.8z"
		/>
	<path fill="#FFFFFF" d="M21.1,783.4c0.3-0.9,0.7-2.5,0.9-3.6l1.5-0.1c-0.3,1.3-1,2.9-1.4,3.6L21.1,783.4z"/>
	<path fill="#FFFFFF" d="M31.1,776.6c0,3.3-1.2,5.1-3.4,5.1c-1.9,0-3.2-1.8-3.2-5c0-3.3,1.4-5.1,3.4-5.1
		C29.9,771.7,31.1,773.5,31.1,776.6z M25.8,776.8c0,2.5,0.8,4,2,4c1.4,0,2-1.6,2-4.1c0-2.4-0.6-4-2-4
		C26.6,772.7,25.8,774.1,25.8,776.8z"/>
	<path fill="#FFFFFF" d="M38.8,776.6c0,3.3-1.2,5.1-3.4,5.1c-1.9,0-3.2-1.8-3.2-5c0-3.3,1.4-5.1,3.4-5.1
		C37.6,771.7,38.8,773.5,38.8,776.6z M33.5,776.8c0,2.5,0.8,4,2,4c1.4,0,2-1.6,2-4.1c0-2.4-0.6-4-2-4
		C34.3,772.7,33.5,774.1,33.5,776.8z"/>
</g>
<g enable-background="new    ">
	<path fill="#FFFFFF" d="M11.7,733.2L11.7,733.2l-1.7,0.9l-0.3-1l2.1-1.1H13v9.8h-1.3V733.2z"/>
	<path fill="#FFFFFF" d="M23,736.7c0,3.3-1.2,5.1-3.4,5.1c-1.9,0-3.2-1.8-3.2-5c0-3.3,1.4-5.1,3.4-5.1C21.8,731.8,23,733.6,23,736.7
		z M17.7,736.9c0,2.5,0.8,4,2,4c1.4,0,2-1.6,2-4.1c0-2.4-0.6-4-2-4C18.5,732.8,17.7,734.2,17.7,736.9z"/>
	<path fill="#FFFFFF" d="M23.8,743.5c0.3-0.9,0.7-2.5,0.9-3.6l1.5-0.1c-0.3,1.3-1,2.9-1.4,3.6L23.8,743.5z"/>
	<path fill="#FFFFFF" d="M33.8,736.7c0,3.3-1.2,5.1-3.4,5.1c-1.9,0-3.2-1.8-3.2-5c0-3.3,1.4-5.1,3.4-5.1
		C32.6,731.8,33.8,733.6,33.8,736.7z M28.5,736.9c0,2.5,0.8,4,2,4c1.4,0,2-1.6,2-4.1c0-2.4-0.6-4-2-4
		C29.3,732.8,28.5,734.2,28.5,736.9z"/>
	<path fill="#FFFFFF" d="M41.5,736.7c0,3.3-1.2,5.1-3.4,5.1c-1.9,0-3.2-1.8-3.2-5c0-3.3,1.4-5.1,3.4-5.1
		C40.3,731.8,41.5,733.6,41.5,736.7z M36.2,736.9c0,2.5,0.8,4,2,4c1.4,0,2-1.6,2-4.1c0-2.4-0.6-4-2-4
		C37,732.8,36.2,734.2,36.2,736.9z"/>
</g>
<g enable-background="new    ">
	<path fill="#FFFFFF" d="M8.8,701.2v-0.8l1-1c2.5-2.4,3.6-3.6,3.6-5.1c0-1-0.5-1.9-1.9-1.9c-0.9,0-1.6,0.4-2.1,0.8L9,692.3
		c0.7-0.6,1.6-1,2.8-1c2.1,0,3,1.4,3,2.8c0,1.8-1.3,3.3-3.4,5.2l-0.8,0.7l0,0H15v1.1H8.8V701.2z"/>
	<path fill="#FFFFFF" d="M23,696.2c0,3.3-1.2,5.1-3.4,5.1c-1.9,0-3.2-1.8-3.2-5c0-3.3,1.4-5.1,3.4-5.1C21.8,691.3,23,693.1,23,696.2
		z M17.7,696.4c0,2.5,0.8,4,2,4c1.4,0,2-1.6,2-4.1c0-2.4-0.6-4-2-4C18.5,692.3,17.7,693.7,17.7,696.4z"/>
	<path fill="#FFFFFF" d="M23.8,703c0.3-0.9,0.7-2.5,0.9-3.6l1.5-0.1c-0.3,1.3-1,2.9-1.4,3.6L23.8,703z"/>
	<path fill="#FFFFFF" d="M33.8,696.2c0,3.3-1.2,5.1-3.4,5.1c-1.9,0-3.2-1.8-3.2-5c0-3.3,1.4-5.1,3.4-5.1
		C32.6,691.3,33.8,693.1,33.8,696.2z M28.5,696.4c0,2.5,0.8,4,2,4c1.4,0,2-1.6,2-4.1c0-2.4-0.6-4-2-4
		C29.3,692.3,28.5,693.7,28.5,696.4z"/>
	<path fill="#FFFFFF" d="M41.5,696.2c0,3.3-1.2,5.1-3.4,5.1c-1.9,0-3.2-1.8-3.2-5c0-3.3,1.4-5.1,3.4-5.1
		C40.3,691.3,41.5,693.1,41.5,696.2z M36.2,696.4c0,2.5,0.8,4,2,4c1.4,0,2-1.6,2-4.1c0-2.4-0.6-4-2-4
		C37,692.3,36.2,693.7,36.2,696.4z"/>
</g>
<g enable-background="new    ">
	<path fill="#FFFFFF" d="M9.1,662.6c0.4,0.2,1.2,0.6,2.2,0.6c1.7,0,2.2-1.1,2.2-1.9c0-1.4-1.2-2-2.5-2h-0.7v-1H11
		c1,0,2.2-0.5,2.2-1.7c0-0.8-0.5-1.5-1.7-1.5c-0.8,0-1.5,0.3-1.9,0.6l-0.3-1c0.5-0.4,1.5-0.8,2.5-0.8c1.9,0,2.8,1.1,2.8,2.3
		c0,1-0.6,1.9-1.8,2.3l0,0c1.2,0.2,2.2,1.1,2.2,2.5c0,1.6-1.2,2.9-3.6,2.9c-1.1,0-2.1-0.3-2.5-0.7L9.1,662.6z"/>
	<path fill="#FFFFFF" d="M23,659.2c0,3.3-1.2,5.1-3.4,5.1c-1.9,0-3.2-1.8-3.2-5c0-3.3,1.4-5.1,3.4-5.1S23,656.1,23,659.2z
		 M17.7,659.3c0,2.5,0.8,4,2,4c1.4,0,2-1.6,2-4.1c0-2.4-0.6-4-2-4C18.5,655.3,17.7,656.7,17.7,659.3z"/>
	<path fill="#FFFFFF" d="M23.8,666c0.3-0.9,0.7-2.5,0.9-3.6l1.5-0.1c-0.3,1.3-1,2.9-1.4,3.6L23.8,666z"/>
	<path fill="#FFFFFF" d="M33.8,659.2c0,3.3-1.2,5.1-3.4,5.1c-1.9,0-3.2-1.8-3.2-5c0-3.3,1.4-5.1,3.4-5.1S33.8,656.1,33.8,659.2z
		 M28.5,659.3c0,2.5,0.8,4,2,4c1.4,0,2-1.6,2-4.1c0-2.4-0.6-4-2-4C29.3,655.3,28.5,656.7,28.5,659.3z"/>
	<path fill="#FFFFFF" d="M41.5,659.2c0,3.3-1.2,5.1-3.4,5.1c-1.9,0-3.2-1.8-3.2-5c0-3.3,1.4-5.1,3.4-5.1
		C40.3,654.2,41.5,656.1,41.5,659.2z M36.2,659.3c0,2.5,0.8,4,2,4c1.4,0,2-1.6,2-4.1c0-2.4-0.6-4-2-4
		C37,655.3,36.2,656.7,36.2,659.3z"/>
</g>
<g enable-background="new    ">
	<path fill="#FFFFFF" d="M12.9,624.6v-2.7H8.4V621l4.3-6.2h1.4v6.1h1.4v1h-1.4v2.7H12.9z M12.9,620.9v-3.3c0-0.5,0-1,0-1.5l0,0
		c-0.3,0.6-0.5,1-0.8,1.4l-2.4,3.3l0,0h3.2V620.9z"/>
	<path fill="#FFFFFF" d="M23,619.7c0,3.3-1.2,5.1-3.4,5.1c-1.9,0-3.2-1.8-3.2-5c0-3.3,1.4-5.1,3.4-5.1S23,616.6,23,619.7z
		 M17.7,619.8c0,2.5,0.8,4,2,4c1.4,0,2-1.6,2-4.1c0-2.4-0.6-4-2-4C18.5,615.7,17.7,617.2,17.7,619.8z"/>
	<path fill="#FFFFFF" d="M23.8,626.5c0.3-0.9,0.7-2.5,0.9-3.6l1.5-0.1c-0.3,1.3-1,2.9-1.4,3.6L23.8,626.5z"/>
	<path fill="#FFFFFF" d="M33.8,619.7c0,3.3-1.2,5.1-3.4,5.1c-1.9,0-3.2-1.8-3.2-5c0-3.3,1.4-5.1,3.4-5.1S33.8,616.6,33.8,619.7z
		 M28.5,619.8c0,2.5,0.8,4,2,4c1.4,0,2-1.6,2-4.1c0-2.4-0.6-4-2-4C29.3,615.7,28.5,617.2,28.5,619.8z"/>
	<path fill="#FFFFFF" d="M41.5,619.7c0,3.3-1.2,5.1-3.4,5.1c-1.9,0-3.2-1.8-3.2-5c0-3.3,1.4-5.1,3.4-5.1
		C40.3,614.7,41.5,616.6,41.5,619.7z M36.2,619.8c0,2.5,0.8,4,2,4c1.4,0,2-1.6,2-4.1c0-2.4-0.6-4-2-4
		C37,615.7,36.2,617.2,36.2,619.8z"/>
</g>
<g enable-background="new    ">
	<path fill="#FFFFFF" d="M14.6,575.5h-3.7l-0.4,2.5c0.2,0,0.4-0.1,0.8-0.1c0.8,0,1.5,0.2,2.1,0.5c0.8,0.4,1.4,1.3,1.4,2.5
		c0,1.9-1.5,3.3-3.6,3.3c-1.1,0-2-0.3-2.4-0.6l0.3-1c0.4,0.2,1.2,0.5,2.1,0.5c1.2,0,2.3-0.8,2.3-2.1s-0.9-2.2-2.8-2.2
		c-0.6,0-1,0.1-1.3,0.1l0.6-4.7h4.7L14.6,575.5L14.6,575.5z"/>
	<path fill="#FFFFFF" d="M23,579.1c0,3.3-1.2,5.1-3.4,5.1c-1.9,0-3.2-1.8-3.2-5c0-3.3,1.4-5.1,3.4-5.1C21.8,574.3,23,576,23,579.1z
		 M17.7,579.3c0,2.5,0.8,4,2,4c1.4,0,2-1.6,2-4.1c0-2.4-0.6-4-2-4C18.5,575.3,17.7,576.6,17.7,579.3z"/>
	<path fill="#FFFFFF" d="M23.8,586c0.3-0.9,0.7-2.5,0.9-3.6l1.5-0.1c-0.3,1.3-1,2.9-1.4,3.6L23.8,586z"/>
	<path fill="#FFFFFF" d="M33.8,579.1c0,3.3-1.2,5.1-3.4,5.1c-1.9,0-3.2-1.8-3.2-5c0-3.3,1.4-5.1,3.4-5.1
		C32.6,574.3,33.8,576,33.8,579.1z M28.5,579.3c0,2.5,0.8,4,2,4c1.4,0,2-1.6,2-4.1c0-2.4-0.6-4-2-4
		C29.3,575.3,28.5,576.6,28.5,579.3z"/>
	<path fill="#FFFFFF" d="M41.5,579.1c0,3.3-1.2,5.1-3.4,5.1c-1.9,0-3.2-1.8-3.2-5c0-3.3,1.4-5.1,3.4-5.1
		C40.3,574.3,41.5,576,41.5,579.1z M36.2,579.3c0,2.5,0.8,4,2,4c1.4,0,2-1.6,2-4.1c0-2.4-0.6-4-2-4C37,575.3,36.2,576.6,36.2,579.3z
		"/>
</g>
<g enable-background="new    ">
	<path fill="#FFFFFF" d="M14.4,538.4c-0.3,0-0.6,0-1,0.1c-2.1,0.3-3.2,1.9-3.4,3.5l0,0c0.5-0.6,1.3-1.1,2.4-1.1
		c1.7,0,2.9,1.2,2.9,3.2c0,1.8-1.2,3.4-3.2,3.4c-2.1,0-3.5-1.6-3.5-4.2c0-1.9,0.7-3.4,1.7-4.4c0.8-0.8,1.9-1.3,3.1-1.4
		c0.4-0.1,0.7-0.1,1-0.1V538.4z M14,544c0-1.4-0.8-2.2-2-2.2c-0.8,0-1.5,0.5-1.9,1.2c-0.1,0.1-0.1,0.3-0.1,0.6
		c0,1.6,0.8,2.8,2.1,2.8C13.2,546.3,14,545.4,14,544z"/>
	<path fill="#FFFFFF" d="M23,542.2c0,3.3-1.2,5.1-3.4,5.1c-1.9,0-3.2-1.8-3.2-5c0-3.3,1.4-5.1,3.4-5.1C21.8,537.3,23,539.1,23,542.2
		z M17.7,542.4c0,2.5,0.8,4,2,4c1.4,0,2-1.6,2-4.1c0-2.4-0.6-4-2-4C18.5,538.3,17.7,539.7,17.7,542.4z"/>
	<path fill="#FFFFFF" d="M23.8,549c0.3-0.9,0.7-2.5,0.9-3.6l1.5-0.1c-0.3,1.3-1,2.9-1.4,3.6L23.8,549z"/>
	<path fill="#FFFFFF" d="M33.8,542.2c0,3.3-1.2,5.1-3.4,5.1c-1.9,0-3.2-1.8-3.2-5c0-3.3,1.4-5.1,3.4-5.1
		C32.6,537.3,33.8,539.1,33.8,542.2z M28.5,542.4c0,2.5,0.8,4,2,4c1.4,0,2-1.6,2-4.1c0-2.4-0.6-4-2-4
		C29.3,538.3,28.5,539.7,28.5,542.4z"/>
	<path fill="#FFFFFF" d="M41.5,542.2c0,3.3-1.2,5.1-3.4,5.1c-1.9,0-3.2-1.8-3.2-5c0-3.3,1.4-5.1,3.4-5.1
		C40.3,537.3,41.5,539.1,41.5,542.2z M36.2,542.4c0,2.5,0.8,4,2,4c1.4,0,2-1.6,2-4.1c0-2.4-0.6-4-2-4
		C37,538.3,36.2,539.7,36.2,542.4z"/>
</g>
<g enable-background="new    ">
	<path fill="#FFFFFF" d="M15.1,495.4v0.9l-4.2,8.9H9.5l4.2-8.6l0,0H9v-1.1L15.1,495.4L15.1,495.4z"/>
	<path fill="#FFFFFF" d="M23,500.2c0,3.3-1.2,5.1-3.4,5.1c-1.9,0-3.2-1.8-3.2-5c0-3.3,1.4-5.1,3.4-5.1C21.8,495.3,23,497.1,23,500.2
		z M17.7,500.3c0,2.5,0.8,4,2,4c1.4,0,2-1.6,2-4.1c0-2.4-0.6-4-2-4C18.5,496.3,17.7,497.7,17.7,500.3z"/>
	<path fill="#FFFFFF" d="M23.8,507c0.3-0.9,0.7-2.5,0.9-3.6l1.5-0.1c-0.3,1.3-1,2.9-1.4,3.6L23.8,507z"/>
	<path fill="#FFFFFF" d="M33.8,500.2c0,3.3-1.2,5.1-3.4,5.1c-1.9,0-3.2-1.8-3.2-5c0-3.3,1.4-5.1,3.4-5.1
		C32.6,495.3,33.8,497.1,33.8,500.2z M28.5,500.3c0,2.5,0.8,4,2,4c1.4,0,2-1.6,2-4.1c0-2.4-0.6-4-2-4
		C29.3,496.3,28.5,497.7,28.5,500.3z"/>
	<path fill="#FFFFFF" d="M41.5,500.2c0,3.3-1.2,5.1-3.4,5.1c-1.9,0-3.2-1.8-3.2-5c0-3.3,1.4-5.1,3.4-5.1
		C40.3,495.3,41.5,497.1,41.5,500.2z M36.2,500.3c0,2.5,0.8,4,2,4c1.4,0,2-1.6,2-4.1c0-2.4-0.6-4-2-4
		C37,496.3,36.2,497.7,36.2,500.3z"/>
</g>
<g enable-background="new    ">
	<path fill="#FFFFFF" d="M8.7,462.2c0-1.2,0.7-2.1,1.9-2.6l0,0c-1.1-0.5-1.5-1.3-1.5-2.2c0-1.5,1.3-2.6,3-2.6c1.9,0,2.8,1.2,2.8,2.4
		c0,0.8-0.4,1.7-1.6,2.3l0,0c1.2,0.5,2,1.3,2,2.5c0,1.7-1.5,2.8-3.3,2.8C9.9,464.8,8.7,463.6,8.7,462.2z M13.9,462.1
		c0-1.2-0.8-1.8-2.1-2.1c-1.1,0.3-1.8,1.1-1.8,2c0,1,0.7,1.9,2,1.9C13.2,463.9,13.9,463.1,13.9,462.1z M10.3,457.2
		c0,1,0.7,1.5,1.9,1.8c0.8-0.3,1.5-0.9,1.5-1.8c0-0.8-0.5-1.6-1.6-1.6C10.9,455.7,10.3,456.4,10.3,457.2z"/>
	<path fill="#FFFFFF" d="M23,459.7c0,3.3-1.2,5.1-3.4,5.1c-1.9,0-3.2-1.8-3.2-5c0-3.3,1.4-5.1,3.4-5.1S23,456.6,23,459.7z
		 M17.7,459.8c0,2.5,0.8,4,2,4c1.4,0,2-1.6,2-4.1c0-2.4-0.6-4-2-4C18.5,455.8,17.7,457.2,17.7,459.8z"/>
	<path fill="#FFFFFF" d="M23.8,466.5c0.3-0.9,0.7-2.5,0.9-3.6l1.5-0.1c-0.3,1.3-1,2.9-1.4,3.6L23.8,466.5z"/>
	<path fill="#FFFFFF" d="M33.8,459.7c0,3.3-1.2,5.1-3.4,5.1c-1.9,0-3.2-1.8-3.2-5c0-3.3,1.4-5.1,3.4-5.1S33.8,456.6,33.8,459.7z
		 M28.5,459.8c0,2.5,0.8,4,2,4c1.4,0,2-1.6,2-4.1c0-2.4-0.6-4-2-4C29.3,455.8,28.5,457.2,28.5,459.8z"/>
	<path fill="#FFFFFF" d="M41.5,459.7c0,3.3-1.2,5.1-3.4,5.1c-1.9,0-3.2-1.8-3.2-5c0-3.3,1.4-5.1,3.4-5.1
		C40.3,454.7,41.5,456.6,41.5,459.7z M36.2,459.8c0,2.5,0.8,4,2,4c1.4,0,2-1.6,2-4.1c0-2.4-0.6-4-2-4
		C37,455.8,36.2,457.2,36.2,459.8z"/>
</g>
<g enable-background="new    ">
	<path fill="#FFFFFF" d="M9.6,426.7c0.3,0,0.6,0,1.1,0c0.8-0.1,1.5-0.4,2-0.9c0.6-0.6,1.1-1.4,1.3-2.6l0,0c-0.5,0.7-1.3,1-2.3,1
		c-1.8,0-2.9-1.3-2.9-3c0-1.8,1.3-3.5,3.3-3.5s3.2,1.6,3.2,4.1c0,2.1-0.7,3.6-1.7,4.6c-0.8,0.7-1.8,1.2-2.8,1.3
		c-0.5,0.1-0.9,0.1-1.2,0.1C9.6,427.8,9.6,426.7,9.6,426.7z M10.1,421.1c0,1.2,0.7,2.1,1.9,2.1c0.9,0,1.6-0.4,1.9-1
		c0.1-0.1,0.1-0.3,0.1-0.5c0-1.7-0.6-2.9-2-2.9C10.9,418.7,10.1,419.7,10.1,421.1z"/>
	<path fill="#FFFFFF" d="M23,422.6c0,3.3-1.2,5.1-3.4,5.1c-1.9,0-3.2-1.8-3.2-5c0-3.3,1.4-5.1,3.4-5.1C21.8,417.7,23,419.5,23,422.6
		z M17.7,422.8c0,2.5,0.8,4,2,4c1.4,0,2-1.6,2-4.1c0-2.4-0.6-4-2-4C18.5,418.7,17.7,420.1,17.7,422.8z"/>
	<path fill="#FFFFFF" d="M23.8,429.5c0.3-0.9,0.7-2.5,0.9-3.6l1.5-0.1c-0.3,1.3-1,2.9-1.4,3.6L23.8,429.5z"/>
	<path fill="#FFFFFF" d="M33.8,422.6c0,3.3-1.2,5.1-3.4,5.1c-1.9,0-3.2-1.8-3.2-5c0-3.3,1.4-5.1,3.4-5.1
		C32.6,417.7,33.8,419.5,33.8,422.6z M28.5,422.8c0,2.5,0.8,4,2,4c1.4,0,2-1.6,2-4.1c0-2.4-0.6-4-2-4
		C29.3,418.7,28.5,420.1,28.5,422.8z"/>
	<path fill="#FFFFFF" d="M41.5,422.6c0,3.3-1.2,5.1-3.4,5.1c-1.9,0-3.2-1.8-3.2-5c0-3.3,1.4-5.1,3.4-5.1
		C40.3,417.7,41.5,419.5,41.5,422.6z M36.2,422.8c0,2.5,0.8,4,2,4c1.4,0,2-1.6,2-4.1c0-2.4-0.6-4-2-4
		C37,418.7,36.2,420.1,36.2,422.8z"/>
</g>
<g>
	<path fill="#FFFFFF" d="M58.3,821.2l-0.9,1.3l0,0l1.5-0.2v0.7l-1.5-0.2l0,0l1,1.2l-0.6,0.4l-0.6-1.4l0,0l-0.6,1.4L56,824l0.9-1.2
		l0,0l-1.5,0.2v-0.7l1.5,0.2l0,0l-0.9-1.2l0.6-0.3l0.6,1.4l0,0l0.6-1.4L58.3,821.2z"/>
	<path fill="#FFFFFF" d="M60.8,821v6.7h-0.9V821H60.8z"/>
	<path fill="#FFFFFF" d="M62.4,824.2c0-0.5,0-0.9,0-1.3h0.8v0.8l0,0c0.2-0.5,0.8-0.9,1.6-0.9c0.7,0,1.7,0.4,1.7,2.1v2.9h-0.9V825
		c0-0.8-0.3-1.4-1.1-1.4c-0.6,0-1,0.4-1.2,0.9c0,0.1-0.1,0.3-0.1,0.4v2.9h-0.9L62.4,824.2L62.4,824.2z"/>
	<path fill="#FFFFFF" d="M71.4,827.5c-0.2,0.1-0.7,0.3-1.4,0.3c-1.5,0-2.4-1-2.4-2.5s1-2.6,2.6-2.6c0.5,0,1,0.1,1.2,0.3l-0.2,0.7
		c-0.2-0.1-0.5-0.2-1-0.2c-1.1,0-1.7,0.8-1.7,1.8c0,1.1,0.7,1.8,1.7,1.8c0.5,0,0.8-0.1,1.1-0.2L71.4,827.5z"/>
	<path fill="#FFFFFF" d="M72.4,820.6h0.9v7.1h-0.9V820.6z"/>
	<path fill="#FFFFFF" d="M78.8,826.4c0,0.5,0,0.9,0,1.3H78v-0.8l0,0c-0.2,0.4-0.7,0.9-1.6,0.9c-0.8,0-1.7-0.4-1.7-2.1v-2.8h0.9v2.7
		c0,0.9,0.3,1.5,1.1,1.5c0.6,0,1-0.4,1.2-0.8c0-0.1,0.1-0.3,0.1-0.5v-3h0.9L78.8,826.4L78.8,826.4z"/>
	<path fill="#FFFFFF" d="M81.2,821.5c0,0.3-0.2,0.5-0.6,0.5c-0.3,0-0.5-0.2-0.5-0.5s0.2-0.5,0.5-0.5C81,820.9,81.2,821.2,81.2,821.5
		z M80.3,827.7v-4.8h0.9v4.8H80.3z"/>
	<path fill="#FFFFFF" d="M82.4,823.7c0-0.4,0.3-0.6,0.6-0.6s0.6,0.3,0.6,0.6c0,0.4-0.2,0.6-0.6,0.6C82.6,824.3,82.4,824,82.4,823.7z
		 M82.4,827.2c0-0.4,0.3-0.6,0.6-0.6s0.6,0.3,0.6,0.6s-0.2,0.6-0.6,0.6C82.6,827.8,82.4,827.5,82.4,827.2z"/>
</g>
<g>
	<path fill="#FFFFFF" d="M87.4,821H91v0.7h-2.8v2.2h2.5v0.7h-2.5v3h-0.9L87.4,821L87.4,821z"/>
	<path fill="#FFFFFF" d="M96,826.4c0,0.5,0,0.9,0,1.3h-0.8v-0.8l0,0c-0.2,0.4-0.7,0.9-1.6,0.9c-0.8,0-1.7-0.4-1.7-2.1v-2.8h0.9v2.7
		c0,0.9,0.3,1.5,1.1,1.5c0.6,0,1-0.4,1.2-0.8c0-0.1,0.1-0.3,0.1-0.5v-3H96V826.4z"/>
	<path fill="#FFFFFF" d="M97.4,824.2c0-0.5,0-0.9,0-1.3h0.8v0.8l0,0c0.2-0.5,0.8-0.9,1.6-0.9c0.7,0,1.7,0.4,1.7,2.1v2.9h-0.9V825
		c0-0.8-0.3-1.4-1.1-1.4c-0.6,0-1,0.4-1.2,0.9c0,0.1-0.1,0.3-0.1,0.4v2.9h-0.9L97.4,824.2L97.4,824.2z"/>
	<path fill="#FFFFFF" d="M107.2,820.6v5.8c0,0.4,0,0.9,0,1.2h-0.8v-0.8l0,0c-0.3,0.5-0.9,1-1.6,1c-1.2,0-2.1-1-2.1-2.5
		c0-1.6,1-2.6,2.2-2.6c0.7,0,1.2,0.3,1.5,0.7l0,0v-2.9L107.2,820.6L107.2,820.6z M106.3,824.8c0-0.1,0-0.3,0-0.4
		c-0.1-0.6-0.6-1-1.3-1c-0.9,0-1.4,0.8-1.4,1.9c0,1,0.5,1.8,1.4,1.8c0.6,0,1.1-0.4,1.3-1c0-0.1,0-0.2,0-0.4V824.8z"/>
	<path fill="#FFFFFF" d="M111.3,827.7l-0.1-0.6l0,0c-0.3,0.4-0.8,0.7-1.5,0.7c-1,0-1.5-0.7-1.5-1.4c0-1.2,1-1.8,2.9-1.8v-0.1
		c0-0.4-0.1-1.1-1.1-1.1c-0.4,0-0.9,0.1-1.3,0.4l-0.2-0.6c0.4-0.3,1-0.4,1.6-0.4c1.5,0,1.8,1,1.8,2v1.8c0,0.4,0,0.8,0.1,1.2h-0.7
		V827.7z M111.2,825.2c-1,0-2,0.2-2,1.1c0,0.6,0.4,0.8,0.8,0.8c0.6,0,1-0.4,1.2-0.8c0-0.1,0.1-0.2,0.1-0.3L111.2,825.2L111.2,825.2z
		"/>
	<path fill="#FFFFFF" d="M116.9,827.5c-0.2,0.1-0.7,0.3-1.2,0.3l-0.3,0.4c0.4,0,0.7,0.3,0.7,0.7c0,0.6-0.5,0.8-1,0.8
		c-0.3,0-0.5-0.1-0.7-0.2l0.1-0.4c0.2,0.1,0.4,0.1,0.5,0.1c0.2,0,0.4-0.1,0.4-0.3c0-0.3-0.3-0.4-0.8-0.4l0.4-0.7
		c-1.2-0.2-2-1.1-2-2.4c0-1.5,1-2.6,2.6-2.6c0.5,0,1,0.1,1.2,0.3l-0.2,0.7c-0.2-0.1-0.5-0.2-1-0.2c-1.1,0-1.7,0.8-1.7,1.8
		c0,1.1,0.7,1.8,1.7,1.8c0.5,0,0.8-0.1,1.1-0.2L116.9,827.5z"/>
	<path fill="#FFFFFF" d="M120.6,827.7l-0.1-0.6l0,0c-0.3,0.4-0.8,0.7-1.5,0.7c-1,0-1.5-0.7-1.5-1.4c0-1.2,1-1.8,2.9-1.8v-0.1
		c0-0.4-0.1-1.1-1.1-1.1c-0.4,0-0.9,0.1-1.3,0.4l-0.2-0.6c0.4-0.3,1-0.4,1.6-0.4c1.5,0,1.8,1,1.8,2v1.8c0,0.4,0,0.8,0.1,1.2h-0.7
		V827.7z M118.3,822c0-0.6,0.3-1,0.7-1c0.2,0,0.4,0.1,0.6,0.2c0.2,0.1,0.3,0.2,0.4,0.2c0.2,0,0.2-0.1,0.3-0.4h0.5c0,0.7-0.2,1-0.7,1
		c-0.2,0-0.4-0.1-0.6-0.2c-0.2-0.1-0.3-0.2-0.4-0.2c-0.2,0-0.2,0.2-0.3,0.4H118.3z M120.5,825.2c-1,0-2,0.2-2,1.1
		c0,0.6,0.4,0.8,0.8,0.8c0.6,0,1-0.4,1.2-0.8c0-0.1,0.1-0.2,0.1-0.3L120.5,825.2L120.5,825.2z"/>
	<path fill="#FFFFFF" d="M127.1,825.2c0,1.8-1.2,2.6-2.4,2.6c-1.3,0-2.3-1-2.3-2.5c0-1.6,1.1-2.6,2.4-2.6
		C126.2,822.7,127.1,823.8,127.1,825.2z M123.3,825.3c0,1.1,0.6,1.9,1.5,1.9c0.8,0,1.5-0.8,1.5-1.9c0-0.8-0.4-1.9-1.4-1.9
		C123.7,823.4,123.3,824.4,123.3,825.3z"/>
	<path fill="#FFFFFF" d="M134.7,825.2c0,1.8-1.2,2.6-2.4,2.6c-1.3,0-2.3-1-2.3-2.5c0-1.6,1.1-2.6,2.4-2.6
		C133.8,822.7,134.7,823.8,134.7,825.2z M130.9,825.3c0,1.1,0.6,1.9,1.5,1.9c0.8,0,1.5-0.8,1.5-1.9c0-0.8-0.4-1.9-1.4-1.9
		C131.3,823.4,130.9,824.4,130.9,825.3z"/>
	<path fill="#FFFFFF" d="M139.9,826.4c0,0.5,0,0.9,0,1.3h-0.8v-0.8l0,0c-0.2,0.4-0.7,0.9-1.6,0.9c-0.8,0-1.7-0.4-1.7-2.1v-2.8h0.9
		v2.7c0,0.9,0.3,1.5,1.1,1.5c0.6,0,1-0.4,1.2-0.8c0-0.1,0.1-0.3,0.1-0.5v-3h0.9L139.9,826.4L139.9,826.4z"/>
	<path fill="#FFFFFF" d="M144.6,825.6l-0.7,2.1H143l2.3-6.7h1l2.3,6.7h-0.9l-0.7-2.1H144.6z M146.8,824.9l-0.7-1.9
		c-0.1-0.4-0.2-0.8-0.3-1.2l0,0c-0.1,0.4-0.2,0.8-0.3,1.2l-0.7,1.9H146.8z"/>
	<path fill="#FFFFFF" d="M149.4,826.8c0.3,0.2,0.7,0.3,1.2,0.3c0.6,0,0.9-0.3,0.9-0.7c0-0.4-0.3-0.6-0.9-0.9
		c-0.9-0.3-1.3-0.8-1.3-1.4c0-0.8,0.6-1.4,1.7-1.4c0.5,0,0.9,0.1,1.2,0.3l-0.2,0.6c-0.2-0.1-0.5-0.3-1-0.3c-0.5,0-0.8,0.3-0.8,0.7
		s0.3,0.6,0.9,0.8c0.8,0.3,1.3,0.7,1.3,1.5c0,0.8-0.7,1.4-1.8,1.4c-0.5,0-1-0.1-1.4-0.3L149.4,826.8z"/>
	<path fill="#FFFFFF" d="M153.4,826.8c0.3,0.2,0.7,0.3,1.2,0.3c0.6,0,0.9-0.3,0.9-0.7c0-0.4-0.3-0.6-0.9-0.9
		c-0.9-0.3-1.3-0.8-1.3-1.4c0-0.8,0.6-1.4,1.7-1.4c0.5,0,0.9,0.1,1.2,0.3l-0.2,0.6c-0.2-0.1-0.5-0.3-1-0.3s-0.8,0.3-0.8,0.7
		s0.3,0.6,0.9,0.8c0.8,0.3,1.3,0.7,1.3,1.5c0,0.8-0.7,1.4-1.8,1.4c-0.5,0-1-0.1-1.4-0.3L153.4,826.8z"/>
	<path fill="#FFFFFF" d="M161.8,825.2c0,1.8-1.2,2.6-2.4,2.6c-1.3,0-2.3-1-2.3-2.5c0-1.6,1.1-2.6,2.4-2.6
		C160.9,822.7,161.8,823.8,161.8,825.2z M158,825.3c0,1.1,0.6,1.9,1.5,1.9c0.8,0,1.5-0.8,1.5-1.9c0-0.8-0.4-1.9-1.4-1.9
		C158.4,823.4,158,824.4,158,825.3z"/>
	<path fill="#FFFFFF" d="M166.4,827.5c-0.2,0.1-0.7,0.3-1.4,0.3c-1.5,0-2.4-1-2.4-2.5s1-2.6,2.6-2.6c0.5,0,1,0.1,1.2,0.3l-0.2,0.7
		c-0.2-0.1-0.5-0.2-1-0.2c-1.1,0-1.7,0.8-1.7,1.8c0,1.1,0.7,1.8,1.7,1.8c0.5,0,0.8-0.1,1.1-0.2L166.4,827.5z"/>
	<path fill="#FFFFFF" d="M168.4,821.5c0,0.3-0.2,0.5-0.6,0.5c-0.3,0-0.5-0.2-0.5-0.5s0.2-0.5,0.5-0.5
		C168.2,820.9,168.4,821.2,168.4,821.5z M167.4,827.7v-4.8h0.9v4.8H167.4z"/>
	<path fill="#FFFFFF" d="M172.4,827.7l-0.1-0.6l0,0c-0.3,0.4-0.8,0.7-1.5,0.7c-1,0-1.5-0.7-1.5-1.4c0-1.2,1-1.8,2.9-1.8v-0.1
		c0-0.4-0.1-1.1-1.1-1.1c-0.4,0-0.9,0.1-1.3,0.4l-0.2-0.6c0.4-0.3,1-0.4,1.6-0.4c1.5,0,1.8,1,1.8,2v1.8c0,0.4,0,0.8,0.1,1.2h-0.7
		V827.7z M172.3,825.2c-1,0-2,0.2-2,1.1c0,0.6,0.4,0.8,0.8,0.8c0.6,0,1-0.4,1.2-0.8c0-0.1,0.1-0.2,0.1-0.3v-0.8H172.3z"/>
	<path fill="#FFFFFF" d="M178,827.5c-0.2,0.1-0.7,0.3-1.2,0.3l-0.3,0.4c0.4,0,0.7,0.3,0.7,0.7c0,0.6-0.5,0.8-1,0.8
		c-0.2,0-0.5-0.1-0.7-0.2l0.1-0.4c0.2,0.1,0.4,0.1,0.5,0.1c0.2,0,0.4-0.1,0.4-0.3c0-0.3-0.3-0.4-0.8-0.4l0.4-0.7
		c-1.2-0.2-2-1.1-2-2.4c0-1.5,1-2.6,2.6-2.6c0.5,0,1,0.1,1.2,0.3l-0.2,0.7c-0.2-0.1-0.5-0.2-1-0.2c-1.1,0-1.7,0.8-1.7,1.8
		c0,1.1,0.7,1.8,1.7,1.8c0.5,0,0.8-0.1,1.1-0.2L178,827.5z"/>
	<path fill="#FFFFFF" d="M181.7,827.7l-0.1-0.6l0,0c-0.3,0.4-0.8,0.7-1.5,0.7c-1,0-1.5-0.7-1.5-1.4c0-1.2,1-1.8,2.9-1.8v-0.1
		c0-0.4-0.1-1.1-1.1-1.1c-0.4,0-0.9,0.1-1.3,0.4l-0.2-0.6c0.4-0.3,1-0.4,1.6-0.4c1.5,0,1.8,1,1.8,2v1.8c0,0.4,0,0.8,0.1,1.2h-0.7
		V827.7z M179.5,822c0-0.6,0.3-1,0.7-1c0.2,0,0.4,0.1,0.6,0.2c0.2,0.1,0.3,0.2,0.4,0.2c0.2,0,0.2-0.1,0.3-0.4h0.5c0,0.7-0.2,1-0.7,1
		c-0.2,0-0.4-0.1-0.6-0.2c-0.2-0.1-0.3-0.2-0.4-0.2c-0.2,0-0.2,0.2-0.3,0.4H179.5z M181.6,825.2c-1,0-2,0.2-2,1.1
		c0,0.6,0.4,0.8,0.8,0.8c0.6,0,1-0.4,1.2-0.8c0-0.1,0.1-0.2,0.1-0.3v-0.8H181.6z"/>
	<path fill="#FFFFFF" d="M188.3,825.2c0,1.8-1.2,2.6-2.4,2.6c-1.3,0-2.3-1-2.3-2.5c0-1.6,1.1-2.6,2.4-2.6
		C187.3,822.7,188.3,823.8,188.3,825.2z M184.4,825.3c0,1.1,0.6,1.9,1.5,1.9c0.8,0,1.5-0.8,1.5-1.9c0-0.8-0.4-1.9-1.4-1.9
		C184.9,823.4,184.4,824.4,184.4,825.3z"/>
	<path fill="#FFFFFF" d="M195,824.5h-2.6v2.4h2.9v0.7h-3.8v-6.7h3.6v0.7h-2.8v2.1h2.6v0.8H195z"/>
	<path fill="#FFFFFF" d="M196.3,826.8c0.3,0.2,0.7,0.3,1.2,0.3c0.6,0,0.9-0.3,0.9-0.7c0-0.4-0.3-0.6-0.9-0.9
		c-0.9-0.3-1.3-0.8-1.3-1.4c0-0.8,0.6-1.4,1.7-1.4c0.5,0,0.9,0.1,1.2,0.3l-0.2,0.6c-0.2-0.1-0.5-0.3-1-0.3c-0.5,0-0.8,0.3-0.8,0.7
		s0.3,0.6,0.9,0.8c0.8,0.3,1.3,0.7,1.3,1.5c0,0.8-0.7,1.4-1.8,1.4c-0.5,0-1-0.1-1.4-0.3L196.3,826.8z"/>
	<path fill="#FFFFFF" d="M201.4,821.5v1.4h1.3v0.7h-1.3v2.6c0,0.6,0.2,0.9,0.7,0.9c0.2,0,0.4,0,0.5-0.1v0.7
		c-0.2,0.1-0.4,0.1-0.8,0.1c-0.4,0-0.7-0.1-0.9-0.4c-0.3-0.3-0.3-0.7-0.3-1.3v-2.6h-0.8v-0.7h0.8v-1.2L201.4,821.5z"/>
	<path fill="#FFFFFF" d="M203.7,824.4c0-0.6,0-1.1,0-1.5h0.8v0.9l0,0c0.2-0.6,0.7-1.1,1.3-1.1c0.1,0,0.2,0,0.2,0v0.8
		c-0.1,0-0.2,0-0.3,0c-0.6,0-1.1,0.5-1.2,1.1c0,0.1,0,0.3,0,0.4v2.6h-0.9L203.7,824.4L203.7,824.4z"/>
	<path fill="#FFFFFF" d="M209.6,827.7l-0.1-0.6l0,0c-0.3,0.4-0.8,0.7-1.5,0.7c-1,0-1.5-0.7-1.5-1.4c0-1.2,1-1.8,2.9-1.8v-0.1
		c0-0.4-0.1-1.1-1.1-1.1c-0.4,0-0.9,0.1-1.3,0.4l-0.2-0.6c0.4-0.3,1-0.4,1.6-0.4c1.5,0,1.8,1,1.8,2v1.8c0,0.4,0,0.8,0.1,1.2h-0.7
		V827.7z M209.4,825.2c-1,0-2,0.2-2,1.1c0,0.6,0.4,0.8,0.8,0.8c0.6,0,1-0.4,1.2-0.8c0-0.1,0.1-0.2,0.1-0.3v-0.8H209.4z"/>
	<path fill="#FFFFFF" d="M211.7,824.2c0-0.5,0-0.9,0-1.3h0.8v0.8l0,0c0.2-0.5,0.8-0.9,1.6-0.9c0.7,0,1.7,0.4,1.7,2.1v2.9H215V825
		c0-0.8-0.3-1.4-1.1-1.4c-0.6,0-1,0.4-1.2,0.9c0,0.1-0.1,0.3-0.1,0.4v2.9h-0.9V824.2z"/>
	<path fill="#FFFFFF" d="M221.4,822.9c0,0.3,0,0.7,0,1.3v2.8c0,1.1-0.2,1.8-0.7,2.2c-0.5,0.4-1.1,0.6-1.8,0.6
		c-0.6,0-1.2-0.1-1.6-0.4l0.2-0.7c0.3,0.2,0.8,0.4,1.4,0.4c0.9,0,1.6-0.5,1.6-1.7v-0.5l0,0c-0.3,0.4-0.8,0.8-1.5,0.8
		c-1.2,0-2.1-1-2.1-2.4c0-1.6,1.1-2.6,2.2-2.6c0.8,0,1.3,0.4,1.5,0.8l0,0v-0.7h0.8V822.9z M220.5,824.8c0-0.1,0-0.3,0-0.4
		c-0.2-0.5-0.6-0.9-1.2-0.9c-0.8,0-1.4,0.7-1.4,1.8c0,0.9,0.5,1.7,1.4,1.7c0.5,0,1-0.3,1.2-0.9c0-0.2,0.1-0.3,0.1-0.5v-0.8H220.5z"
		/>
	<path fill="#FFFFFF" d="M223.3,825.4c0,1.2,0.8,1.7,1.7,1.7c0.6,0,1-0.1,1.3-0.2l0.1,0.6c-0.3,0.1-0.8,0.3-1.6,0.3
		c-1.5,0-2.4-1-2.4-2.4s0.9-2.6,2.3-2.6c1.6,0,2,1.4,2,2.3c0,0.2,0,0.3,0,0.4L223.3,825.4L223.3,825.4z M225.9,824.8
		c0-0.6-0.2-1.4-1.2-1.4c-0.9,0-1.3,0.8-1.3,1.4H225.9z"/>
	<path fill="#FFFFFF" d="M228.8,821.5c0,0.3-0.2,0.5-0.6,0.5c-0.3,0-0.5-0.2-0.5-0.5s0.2-0.5,0.5-0.5
		C228.6,820.9,228.8,821.2,228.8,821.5z M227.9,827.7v-4.8h0.9v4.8H227.9z"/>
	<path fill="#FFFFFF" d="M230.2,824.4c0-0.6,0-1.1,0-1.5h0.8v0.9l0,0c0.2-0.6,0.7-1.1,1.3-1.1c0.1,0,0.2,0,0.2,0v0.8
		c-0.1,0-0.2,0-0.3,0c-0.6,0-1.1,0.5-1.2,1.1c0,0.1,0,0.3,0,0.4v2.6h-0.9L230.2,824.4L230.2,824.4z"/>
	<path fill="#FFFFFF" d="M236.1,827.7l-0.1-0.6l0,0c-0.3,0.4-0.8,0.7-1.5,0.7c-1,0-1.5-0.7-1.5-1.4c0-1.2,1-1.8,2.9-1.8v-0.1
		c0-0.4-0.1-1.1-1.1-1.1c-0.4,0-0.9,0.1-1.3,0.4l-0.2-0.6c0.4-0.3,1-0.4,1.6-0.4c1.5,0,1.8,1,1.8,2v1.8c0,0.4,0,0.8,0.1,1.2h-0.7
		V827.7z M236,825.2c-1,0-2,0.2-2,1.1c0,0.6,0.4,0.8,0.8,0.8c0.6,0,1-0.4,1.2-0.8c0-0.1,0.1-0.2,0.1-0.3v-0.8H236z"/>
	<path fill="#FFFFFF" d="M237.7,828.9c0.2-0.6,0.5-1.7,0.6-2.4l1-0.1c-0.2,0.8-0.7,2-0.9,2.4L237.7,828.9z"/>
	<path fill="#FFFFFF" d="M242.5,821h3.6v0.7h-2.8v2.2h2.5v0.7h-2.5v3h-0.9L242.5,821L242.5,821z"/>
	<path fill="#FFFFFF" d="M251,826.4c0,0.5,0,0.9,0,1.3h-0.8v-0.8l0,0c-0.2,0.4-0.7,0.9-1.6,0.9c-0.8,0-1.7-0.4-1.7-2.1v-2.8h0.9v2.7
		c0,0.9,0.3,1.5,1.1,1.5c0.6,0,1-0.4,1.2-0.8c0-0.1,0.1-0.3,0.1-0.5v-3h0.9L251,826.4L251,826.4z"/>
	<path fill="#FFFFFF" d="M252.5,824.2c0-0.5,0-0.9,0-1.3h0.8v0.8l0,0c0.2-0.5,0.8-0.9,1.6-0.9c0.7,0,1.7,0.4,1.7,2.1v2.9h-0.9V825
		c0-0.8-0.3-1.4-1.1-1.4c-0.6,0-1,0.4-1.2,0.9c0,0.1-0.1,0.3-0.1,0.4v2.9h-0.9L252.5,824.2L252.5,824.2z"/>
	<path fill="#FFFFFF" d="M262.2,820.6v5.8c0,0.4,0,0.9,0,1.2h-0.8v-0.8l0,0c-0.3,0.5-0.9,1-1.6,1c-1.2,0-2.1-1-2.1-2.5
		c0-1.6,1-2.6,2.2-2.6c0.7,0,1.2,0.3,1.5,0.7l0,0v-2.9L262.2,820.6L262.2,820.6z M261.3,824.8c0-0.1,0-0.3,0-0.4
		c-0.1-0.6-0.6-1-1.3-1c-0.9,0-1.4,0.8-1.4,1.9c0,1,0.5,1.8,1.4,1.8c0.6,0,1.1-0.4,1.3-1c0-0.1,0-0.2,0-0.4V824.8z"/>
	<path fill="#FFFFFF" d="M266.3,827.7l-0.1-0.6l0,0c-0.3,0.4-0.8,0.7-1.5,0.7c-1,0-1.5-0.7-1.5-1.4c0-1.2,1-1.8,2.9-1.8v-0.1
		c0-0.4-0.1-1.1-1.1-1.1c-0.4,0-0.9,0.1-1.3,0.4l-0.2-0.6c0.4-0.3,1-0.4,1.6-0.4c1.5,0,1.8,1,1.8,2v1.8c0,0.4,0,0.8,0.1,1.2h-0.7
		V827.7z M266.2,825.2c-1,0-2,0.2-2,1.1c0,0.6,0.4,0.8,0.8,0.8c0.6,0,1-0.4,1.2-0.8c0-0.1,0.1-0.2,0.1-0.3v-0.8H266.2z"/>
	<path fill="#FFFFFF" d="M271.9,827.5c-0.2,0.1-0.7,0.3-1.2,0.3l-0.3,0.4c0.4,0,0.7,0.3,0.7,0.7c0,0.6-0.5,0.8-1,0.8
		c-0.3,0-0.5-0.1-0.7-0.2l0.1-0.4c0.2,0.1,0.4,0.1,0.5,0.1c0.2,0,0.4-0.1,0.4-0.3c0-0.3-0.3-0.4-0.8-0.4l0.4-0.7
		c-1.2-0.2-2-1.1-2-2.4c0-1.5,1-2.6,2.6-2.6c0.5,0,1,0.1,1.2,0.3l-0.2,0.7c-0.2-0.1-0.5-0.2-1-0.2c-1.1,0-1.7,0.8-1.7,1.8
		c0,1.1,0.7,1.8,1.7,1.8c0.5,0,0.8-0.1,1.1-0.2L271.9,827.5z"/>
	<path fill="#FFFFFF" d="M275.6,827.7l-0.1-0.6l0,0c-0.3,0.4-0.8,0.7-1.5,0.7c-1,0-1.5-0.7-1.5-1.4c0-1.2,1-1.8,2.9-1.8v-0.1
		c0-0.4-0.1-1.1-1.1-1.1c-0.4,0-0.9,0.1-1.3,0.4l-0.2-0.6c0.4-0.3,1-0.4,1.6-0.4c1.5,0,1.8,1,1.8,2v1.8c0,0.4,0,0.8,0.1,1.2h-0.7
		V827.7z M273.4,822c0-0.6,0.3-1,0.7-1c0.2,0,0.4,0.1,0.6,0.2c0.2,0.1,0.3,0.2,0.4,0.2c0.2,0,0.2-0.1,0.3-0.4h0.5c0,0.7-0.2,1-0.7,1
		c-0.2,0-0.4-0.1-0.6-0.2c-0.2-0.1-0.3-0.2-0.4-0.2c-0.2,0-0.2,0.2-0.3,0.4H273.4z M275.5,825.2c-1,0-2,0.2-2,1.1
		c0,0.6,0.4,0.8,0.8,0.8c0.6,0,1-0.4,1.2-0.8c0-0.1,0.1-0.2,0.1-0.3L275.5,825.2L275.5,825.2z"/>
	<path fill="#FFFFFF" d="M282.2,825.2c0,1.8-1.2,2.6-2.4,2.6c-1.3,0-2.3-1-2.3-2.5c0-1.6,1.1-2.6,2.4-2.6
		C281.2,822.7,282.2,823.8,282.2,825.2z M278.3,825.3c0,1.1,0.6,1.9,1.5,1.9c0.8,0,1.5-0.8,1.5-1.9c0-0.8-0.4-1.9-1.4-1.9
		C278.8,823.4,278.3,824.4,278.3,825.3z"/>
	<path fill="#FFFFFF" d="M289.8,825.2c0,1.8-1.2,2.6-2.4,2.6c-1.3,0-2.3-1-2.3-2.5c0-1.6,1.1-2.6,2.4-2.6
		C288.8,822.7,289.8,823.8,289.8,825.2z M285.9,825.3c0,1.1,0.6,1.9,1.5,1.9c0.8,0,1.5-0.8,1.5-1.9c0-0.8-0.4-1.9-1.4-1.9
		C286.4,823.4,285.9,824.4,285.9,825.3z"/>
	<path fill="#FFFFFF" d="M294.9,826.4c0,0.5,0,0.9,0,1.3h-0.8v-0.8l0,0c-0.2,0.4-0.7,0.9-1.6,0.9c-0.8,0-1.7-0.4-1.7-2.1v-2.8h0.9
		v2.7c0,0.9,0.3,1.5,1.1,1.5c0.6,0,1-0.4,1.2-0.8c0-0.1,0.1-0.3,0.1-0.5v-3h0.9v3.6H294.9z"/>
	<path fill="#FFFFFF" d="M299.6,825.6l-0.7,2.1H298l2.3-6.7h1l2.3,6.7h-0.9l-0.7-2.1H299.6z M301.8,824.9l-0.7-1.9
		c-0.2-0.4-0.3-0.8-0.4-1.2l0,0c-0.1,0.4-0.2,0.8-0.3,1.2l-0.7,1.9H301.8z"/>
	<path fill="#FFFFFF" d="M304.4,826.8c0.3,0.2,0.7,0.3,1.2,0.3c0.6,0,0.9-0.3,0.9-0.7c0-0.4-0.3-0.6-0.9-0.9
		c-0.9-0.3-1.3-0.8-1.3-1.4c0-0.8,0.6-1.4,1.7-1.4c0.5,0,0.9,0.1,1.2,0.3l-0.2,0.6c-0.2-0.1-0.5-0.3-1-0.3c-0.5,0-0.8,0.3-0.8,0.7
		s0.3,0.6,0.9,0.8c0.8,0.3,1.3,0.7,1.3,1.5c0,0.8-0.7,1.4-1.8,1.4c-0.5,0-1-0.1-1.4-0.3L304.4,826.8z"/>
	<path fill="#FFFFFF" d="M308.4,826.8c0.3,0.2,0.7,0.3,1.2,0.3c0.6,0,0.9-0.3,0.9-0.7c0-0.4-0.3-0.6-0.9-0.9
		c-0.9-0.3-1.3-0.8-1.3-1.4c0-0.8,0.6-1.4,1.7-1.4c0.5,0,0.9,0.1,1.2,0.3l-0.2,0.6c-0.2-0.1-0.5-0.3-1-0.3c-0.5,0-0.8,0.3-0.8,0.7
		s0.3,0.6,0.9,0.8c0.8,0.3,1.3,0.7,1.3,1.5c0,0.8-0.7,1.4-1.8,1.4c-0.5,0-1-0.1-1.4-0.3L308.4,826.8z"/>
	<path fill="#FFFFFF" d="M316.9,825.2c0,1.8-1.2,2.6-2.4,2.6c-1.3,0-2.3-1-2.3-2.5c0-1.6,1.1-2.6,2.4-2.6
		C315.9,822.7,316.9,823.8,316.9,825.2z M313,825.3c0,1.1,0.6,1.9,1.5,1.9c0.8,0,1.5-0.8,1.5-1.9c0-0.8-0.4-1.9-1.4-1.9
		C313.5,823.4,313,824.4,313,825.3z"/>
	<path fill="#FFFFFF" d="M321.4,827.5c-0.2,0.1-0.7,0.3-1.4,0.3c-1.5,0-2.4-1-2.4-2.5s1-2.6,2.6-2.6c0.5,0,1,0.1,1.2,0.3l-0.2,0.7
		c-0.2-0.1-0.5-0.2-1-0.2c-1.1,0-1.7,0.8-1.7,1.8c0,1.1,0.7,1.8,1.7,1.8c0.5,0,0.8-0.1,1.1-0.2L321.4,827.5z"/>
	<path fill="#FFFFFF" d="M323.4,821.5c0,0.3-0.2,0.5-0.6,0.5c-0.3,0-0.5-0.2-0.5-0.5s0.2-0.5,0.5-0.5
		C323.2,820.9,323.4,821.2,323.4,821.5z M322.5,827.7v-4.8h0.9v4.8H322.5z"/>
	<path fill="#FFFFFF" d="M327.5,827.7l-0.1-0.6l0,0c-0.3,0.4-0.8,0.7-1.5,0.7c-1,0-1.5-0.7-1.5-1.4c0-1.2,1-1.8,2.9-1.8v-0.1
		c0-0.4-0.1-1.1-1.1-1.1c-0.5,0-0.9,0.1-1.3,0.4l-0.2-0.6c0.4-0.3,1-0.4,1.6-0.4c1.5,0,1.8,1,1.8,2v1.8c0,0.4,0,0.8,0.1,1.2h-0.7
		V827.7z M327.3,825.2c-1,0-2,0.2-2,1.1c0,0.6,0.4,0.8,0.8,0.8c0.6,0,1-0.4,1.2-0.8c0-0.1,0-0.2,0-0.3V825.2z"/>
	<path fill="#FFFFFF" d="M333.1,827.5c-0.2,0.1-0.7,0.3-1.2,0.3l-0.3,0.4c0.4,0,0.7,0.3,0.7,0.7c0,0.6-0.5,0.8-1,0.8
		c-0.3,0-0.5-0.1-0.7-0.2l0.1-0.4c0.2,0.1,0.4,0.1,0.5,0.1c0.2,0,0.4-0.1,0.4-0.3c0-0.3-0.3-0.4-0.8-0.4l0.4-0.7
		c-1.2-0.2-2-1.1-2-2.4c0-1.5,1-2.6,2.6-2.6c0.5,0,1,0.1,1.2,0.3l-0.2,0.7c-0.2-0.1-0.5-0.2-1-0.2c-1.1,0-1.7,0.8-1.7,1.8
		c0,1.1,0.7,1.8,1.7,1.8c0.5,0,0.8-0.1,1.1-0.2L333.1,827.5z"/>
	<path fill="#FFFFFF" d="M336.8,827.7l-0.1-0.6l0,0c-0.3,0.4-0.8,0.7-1.5,0.7c-1,0-1.5-0.7-1.5-1.4c0-1.2,1-1.8,2.9-1.8v-0.1
		c0-0.4-0.1-1.1-1.1-1.1c-0.5,0-0.9,0.1-1.3,0.4l-0.2-0.6c0.4-0.3,1-0.4,1.6-0.4c1.5,0,1.8,1,1.8,2v1.8c0,0.4,0,0.8,0.1,1.2h-0.7
		V827.7z M334.5,822c0-0.6,0.3-1,0.7-1c0.2,0,0.4,0.1,0.6,0.2c0.2,0.1,0.3,0.2,0.4,0.2c0.2,0,0.3-0.1,0.3-0.4h0.5c0,0.7-0.2,1-0.7,1
		c-0.2,0-0.4-0.1-0.6-0.2c-0.2-0.1-0.3-0.2-0.4-0.2c-0.2,0-0.2,0.2-0.3,0.4H334.5z M336.6,825.2c-1,0-2,0.2-2,1.1
		c0,0.6,0.4,0.8,0.8,0.8c0.6,0,1-0.4,1.2-0.8c0-0.1,0-0.2,0-0.3V825.2z"/>
	<path fill="#FFFFFF" d="M343.3,825.2c0,1.8-1.2,2.6-2.4,2.6c-1.3,0-2.3-1-2.3-2.5c0-1.6,1.1-2.6,2.4-2.6
		C342.4,822.7,343.3,823.8,343.3,825.2z M339.5,825.3c0,1.1,0.6,1.9,1.5,1.9c0.8,0,1.5-0.8,1.5-1.9c0-0.8-0.4-1.9-1.4-1.9
		C339.9,823.4,339.5,824.4,339.5,825.3z"/>
	<path fill="#FFFFFF" d="M346.6,821c0.5-0.1,1.2-0.1,1.8-0.1c1.2,0,2.1,0.3,2.7,0.8c0.6,0.5,0.9,1.3,0.9,2.4c0,1.1-0.3,2-1,2.6
		c-0.6,0.6-1.7,1-3,1c-0.6,0-1.1,0-1.6-0.1V821H346.6z M347.4,827c0.2,0,0.5,0,0.9,0c1.9,0,2.9-1,2.9-2.9c0-1.6-0.9-2.6-2.7-2.6
		c-0.4,0-0.8,0-1,0.1L347.4,827L347.4,827z"/>
	<path fill="#FFFFFF" d="M357.6,825.2c0,1.8-1.2,2.6-2.4,2.6c-1.3,0-2.3-1-2.3-2.5c0-1.6,1.1-2.6,2.4-2.6
		C356.7,822.7,357.6,823.8,357.6,825.2z M353.8,825.3c0,1.1,0.6,1.9,1.5,1.9c0.8,0,1.5-0.8,1.5-1.9c0-0.8-0.4-1.9-1.4-1.9
		C354.2,823.4,353.8,824.4,353.8,825.3z"/>
	<path fill="#FFFFFF" d="M358.7,824.2c0-0.5,0-0.9,0-1.3h0.8v0.8l0,0c0.3-0.5,0.7-0.9,1.5-0.9c0.7,0,1.2,0.4,1.4,1l0,0
		c0.2-0.3,0.3-0.5,0.5-0.6c0.3-0.2,0.6-0.3,1.1-0.3c0.6,0,1.6,0.4,1.6,2.1v2.8h-0.9v-2.7c0-0.9-0.3-1.5-1-1.5c-0.5,0-0.9,0.4-1,0.8
		c0,0.1-0.1,0.3-0.1,0.4v3h-0.9v-3c0-0.8-0.3-1.3-1-1.3c-0.5,0-0.9,0.4-1.1,0.9c0,0.1-0.1,0.3-0.1,0.4v2.9h-0.9v-3.5H358.7z"/>
	<path fill="#FFFFFF" d="M368,821.5c0,0.3-0.2,0.5-0.6,0.5c-0.3,0-0.5-0.2-0.5-0.5s0.2-0.5,0.5-0.5C367.8,820.9,368,821.2,368,821.5
		z M367.1,827.7v-4.8h0.9v4.8H367.1z"/>
	<path fill="#FFFFFF" d="M372.8,827.5c-0.2,0.1-0.7,0.3-1.4,0.3c-1.5,0-2.4-1-2.4-2.5s1-2.6,2.6-2.6c0.5,0,1,0.1,1.2,0.3l-0.2,0.7
		c-0.2-0.1-0.5-0.2-1-0.2c-1.1,0-1.7,0.8-1.7,1.8c0,1.1,0.7,1.8,1.7,1.8c0.5,0,0.8-0.1,1.1-0.2L372.8,827.5z"/>
	<path fill="#FFFFFF" d="M374.9,821.5c0,0.3-0.2,0.5-0.6,0.5c-0.3,0-0.5-0.2-0.5-0.5s0.2-0.5,0.5-0.5
		C374.6,820.9,374.9,821.2,374.9,821.5z M373.9,827.7v-4.8h0.9v4.8H373.9z"/>
	<path fill="#FFFFFF" d="M376.2,820.6h0.9v7.1h-0.9V820.6z"/>
	<path fill="#FFFFFF" d="M379.6,821.5c0,0.3-0.2,0.5-0.6,0.5c-0.3,0-0.5-0.2-0.5-0.5s0.2-0.5,0.5-0.5
		C379.3,820.9,379.6,821.2,379.6,821.5z M378.6,827.7v-4.8h0.9v4.8H378.6z"/>
	<path fill="#FFFFFF" d="M383.6,827.7l-0.1-0.6l0,0c-0.3,0.4-0.8,0.7-1.5,0.7c-1,0-1.5-0.7-1.5-1.4c0-1.2,1-1.8,2.9-1.8v-0.1
		c0-0.4-0.1-1.1-1.1-1.1c-0.5,0-0.9,0.1-1.3,0.4l-0.2-0.6c0.4-0.3,1-0.4,1.6-0.4c1.5,0,1.8,1,1.8,2v1.8c0,0.4,0,0.8,0.1,1.2h-0.7
		V827.7z M383.5,825.2c-1,0-2,0.2-2,1.1c0,0.6,0.4,0.8,0.8,0.8c0.6,0,1-0.4,1.2-0.8c0-0.1,0-0.2,0-0.3V825.2z"/>
	<path fill="#FFFFFF" d="M389.9,820.6v5.8c0,0.4,0,0.9,0,1.2h-0.8v-0.8l0,0c-0.3,0.5-0.9,1-1.6,1c-1.2,0-2.1-1-2.1-2.5
		c0-1.6,1-2.6,2.2-2.6c0.7,0,1.2,0.3,1.5,0.7l0,0v-2.9L389.9,820.6L389.9,820.6z M389,824.8c0-0.1,0-0.3,0-0.4c-0.1-0.6-0.6-1-1.3-1
		c-0.9,0-1.4,0.8-1.4,1.9c0,1,0.5,1.8,1.4,1.8c0.6,0,1.1-0.4,1.3-1c0-0.1,0-0.2,0-0.4V824.8z"/>
	<path fill="#FFFFFF" d="M394.1,827.7l-0.1-0.6l0,0c-0.3,0.4-0.8,0.7-1.5,0.7c-1,0-1.5-0.7-1.5-1.4c0-1.2,1-1.8,2.9-1.8v-0.1
		c0-0.4-0.1-1.1-1.1-1.1c-0.5,0-0.9,0.1-1.3,0.4l-0.2-0.6c0.4-0.3,1-0.4,1.6-0.4c1.5,0,1.8,1,1.8,2v1.8c0,0.4,0,0.8,0.1,1.2h-0.7
		V827.7z M393.9,825.2c-1,0-2,0.2-2,1.1c0,0.6,0.4,0.8,0.8,0.8c0.6,0,1-0.4,1.2-0.8c0-0.1,0-0.2,0-0.3V825.2z"/>
	<path fill="#FFFFFF" d="M398.3,824.2c0-0.5,0-0.9,0-1.3h0.8l0.1,0.8l0,0c0.2-0.5,0.8-0.9,1.6-0.9c0.7,0,1.7,0.4,1.7,2.1v2.9h-0.9
		V825c0-0.8-0.3-1.4-1.1-1.4c-0.6,0-1,0.4-1.2,0.9c0,0.1-0.1,0.3-0.1,0.4v2.9h-0.9V824.2z"/>
	<path fill="#FFFFFF" d="M408.2,825.2c0,1.8-1.2,2.6-2.4,2.6c-1.3,0-2.3-1-2.3-2.5c0-1.6,1.1-2.6,2.4-2.6
		C407.3,822.7,408.2,823.8,408.2,825.2z M404.4,825.3c0,1.1,0.6,1.9,1.5,1.9c0.8,0,1.5-0.8,1.5-1.9c0-0.8-0.4-1.9-1.4-1.9
		C404.9,823.4,404.4,824.4,404.4,825.3z"/>
	<path fill="#FFFFFF" d="M415,824.5h-2.6v2.4h2.9v0.7h-3.8v-6.7h3.6v0.7h-2.8v2.1h2.6L415,824.5L415,824.5z"/>
	<path fill="#FFFFFF" d="M416.8,822.9l0.7,1c0.2,0.3,0.3,0.5,0.5,0.8l0,0c0.2-0.3,0.3-0.5,0.5-0.8l0.7-1h1l-1.6,2.3l1.7,2.5h-1
		l-0.7-1.1c-0.2-0.3-0.4-0.5-0.5-0.8l0,0c-0.2,0.3-0.3,0.5-0.5,0.8l-0.7,1.1h-1l1.7-2.5l-1.6-2.4h0.8V822.9z"/>
	<path fill="#FFFFFF" d="M422.2,821.5v1.4h1.3v0.7h-1.3v2.6c0,0.6,0.2,0.9,0.7,0.9c0.2,0,0.4,0,0.5-0.1v0.7
		c-0.2,0.1-0.4,0.1-0.8,0.1c-0.4,0-0.7-0.1-0.9-0.4c-0.3-0.3-0.3-0.7-0.3-1.3v-2.6h-0.8v-0.7h0.8v-1.2L422.2,821.5z"/>
	<path fill="#FFFFFF" d="M424.9,825.4c0,1.2,0.8,1.7,1.7,1.7c0.6,0,1-0.1,1.3-0.2l0.1,0.6c-0.3,0.1-0.8,0.3-1.6,0.3
		c-1.5,0-2.4-1-2.4-2.4s0.9-2.6,2.3-2.6c1.6,0,2,1.4,2,2.3c0,0.2,0,0.3,0,0.4L424.9,825.4L424.9,825.4z M427.5,824.8
		c0-0.6-0.2-1.4-1.2-1.4c-0.9,0-1.3,0.8-1.3,1.4H427.5z"/>
	<path fill="#FFFFFF" d="M429.4,824.4c0-0.6,0-1.1,0-1.5h0.8v0.9l0,0c0.2-0.6,0.7-1.1,1.3-1.1c0.1,0,0.2,0,0.3,0v0.8
		c-0.1,0-0.2,0-0.3,0c-0.6,0-1.1,0.5-1.2,1.1c0,0.1,0,0.3,0,0.4v2.6h-0.9L429.4,824.4L429.4,824.4z"/>
	<path fill="#FFFFFF" d="M433.7,821.5c0,0.3-0.2,0.5-0.6,0.5c-0.3,0-0.5-0.2-0.5-0.5s0.2-0.5,0.5-0.5
		C433.5,820.9,433.7,821.2,433.7,821.5z M432.7,827.7v-4.8h0.9v4.8H432.7z"/>
	<path fill="#FFFFFF" d="M439.4,825.2c0,1.8-1.2,2.6-2.4,2.6c-1.3,0-2.3-1-2.3-2.5c0-1.6,1.1-2.6,2.4-2.6
		C438.5,822.7,439.4,823.8,439.4,825.2z M435.6,825.3c0,1.1,0.6,1.9,1.5,1.9c0.8,0,1.5-0.8,1.5-1.9c0-0.8-0.4-1.9-1.4-1.9
		C436.1,823.4,435.6,824.4,435.6,825.3z"/>
	<path fill="#FFFFFF" d="M440.6,824.4c0-0.6,0-1.1,0-1.5h0.8v0.9l0,0c0.2-0.6,0.7-1.1,1.3-1.1c0.1,0,0.2,0,0.3,0v0.8
		c-0.1,0-0.2,0-0.3,0c-0.6,0-1.1,0.5-1.2,1.1c0,0.1,0,0.3,0,0.4v2.6h-0.9L440.6,824.4L440.6,824.4z"/>
	<path fill="#FFFFFF" d="M446.4,825.4c0,1.2,0.8,1.7,1.7,1.7c0.6,0,1-0.1,1.3-0.2l0.1,0.6c-0.3,0.1-0.8,0.3-1.6,0.3
		c-1.5,0-2.4-1-2.4-2.4s0.9-2.6,2.3-2.6c1.6,0,2,1.4,2,2.3c0,0.2,0,0.3,0,0.4L446.4,825.4L446.4,825.4z M449,824.8
		c0-0.6-0.2-1.4-1.2-1.4c-0.9,0-1.3,0.8-1.3,1.4H449z"/>
	<path fill="#FFFFFF" d="M457.8,827.5c-0.3,0.2-1,0.3-1.8,0.3c-1.9,0-3.3-1.2-3.3-3.4c0-2.1,1.4-3.5,3.5-3.5c0.8,0,1.4,0.2,1.6,0.3
		l-0.2,0.7c-0.3-0.2-0.8-0.3-1.4-0.3c-1.6,0-2.6,1-2.6,2.8c0,1.6,0.9,2.7,2.6,2.7c0.5,0,1.1-0.1,1.4-0.3L457.8,827.5z"/>
	<path fill="#FFFFFF" d="M463.1,825.2c0,1.8-1.2,2.6-2.4,2.6c-1.3,0-2.3-1-2.3-2.5c0-1.6,1.1-2.6,2.4-2.6
		C462.2,822.7,463.1,823.8,463.1,825.2z M459.3,825.3c0,1.1,0.6,1.9,1.5,1.9c0.8,0,1.5-0.8,1.5-1.9c0-0.8-0.4-1.9-1.4-1.9
		C459.8,823.4,459.3,824.4,459.3,825.3z"/>
	<path fill="#FFFFFF" d="M464.3,824.2c0-0.5,0-0.9,0-1.3h0.8v0.8l0,0c0.3-0.5,0.7-0.9,1.5-0.9c0.7,0,1.2,0.4,1.4,1l0,0
		c0.2-0.3,0.3-0.5,0.5-0.6c0.3-0.2,0.6-0.3,1.1-0.3c0.6,0,1.6,0.4,1.6,2.1v2.8h-0.9v-2.7c0-0.9-0.3-1.5-1-1.5c-0.5,0-0.9,0.4-1,0.8
		c0,0.1-0.1,0.3-0.1,0.4v3h-0.9v-3c0-0.8-0.3-1.3-1-1.3c-0.5,0-0.9,0.4-1.1,0.9c0,0.1-0.1,0.3-0.1,0.4v2.9h-0.9v-3.5H464.3z"/>
	<path fill="#FFFFFF" d="M476.6,826.4c0,0.5,0,0.9,0,1.3h-0.8v-0.8l0,0c-0.2,0.4-0.7,0.9-1.6,0.9c-0.8,0-1.7-0.4-1.7-2.1v-2.8h0.9
		v2.7c0,0.9,0.3,1.5,1.1,1.5c0.6,0,1-0.4,1.2-0.8c0-0.1,0.1-0.3,0.1-0.5v-3h0.9v3.6H476.6z"/>
	<path fill="#FFFFFF" d="M478.1,824.2c0-0.5,0-0.9,0-1.3h0.8l0.1,0.8l0,0c0.2-0.5,0.8-0.9,1.6-0.9c0.7,0,1.7,0.4,1.7,2.1v2.9h-0.9
		V825c0-0.8-0.3-1.4-1.1-1.4c-0.6,0-1,0.4-1.2,0.9c0,0.1-0.1,0.3-0.1,0.4v2.9h-0.9V824.2z"/>
	<path fill="#FFFFFF" d="M484.6,821.5c0,0.3-0.2,0.5-0.6,0.5c-0.3,0-0.5-0.2-0.5-0.5s0.2-0.5,0.5-0.5
		C484.4,820.9,484.6,821.2,484.6,821.5z M483.7,827.7v-4.8h0.9v4.8H483.7z"/>
	<path fill="#FFFFFF" d="M490.2,820.6v5.8c0,0.4,0,0.9,0,1.2h-0.8v-0.8l0,0c-0.3,0.5-0.9,1-1.6,1c-1.2,0-2.1-1-2.1-2.5
		c0-1.6,1-2.6,2.2-2.6c0.7,0,1.2,0.3,1.5,0.7l0,0v-2.9L490.2,820.6L490.2,820.6z M489.3,824.8c0-0.1,0-0.3,0-0.4
		c-0.1-0.6-0.6-1-1.3-1c-0.9,0-1.4,0.8-1.4,1.9c0,1,0.5,1.8,1.4,1.8c0.6,0,1.1-0.4,1.3-1c0-0.1,0-0.2,0-0.4V824.8z"/>
	<path fill="#FFFFFF" d="M494.3,827.7l-0.1-0.6l0,0c-0.3,0.4-0.8,0.7-1.5,0.7c-1,0-1.5-0.7-1.5-1.4c0-1.2,1-1.8,2.9-1.8v-0.1
		c0-0.4-0.1-1.1-1.1-1.1c-0.5,0-0.9,0.1-1.3,0.4l-0.2-0.6c0.4-0.3,1-0.4,1.6-0.4c1.5,0,1.8,1,1.8,2v1.8c0,0.4,0,0.8,0.1,1.2h-0.7
		V827.7z M494.2,825.2c-1,0-2,0.2-2,1.1c0,0.6,0.4,0.8,0.8,0.8c0.6,0,1-0.4,1.2-0.8c0-0.1,0-0.2,0-0.3V825.2z"/>
	<path fill="#FFFFFF" d="M500.6,820.6v5.8c0,0.4,0,0.9,0,1.2h-0.8v-0.8l0,0c-0.3,0.5-0.9,1-1.6,1c-1.2,0-2.1-1-2.1-2.5
		c0-1.6,1-2.6,2.2-2.6c0.7,0,1.2,0.3,1.5,0.7l0,0v-2.9L500.6,820.6L500.6,820.6z M499.7,824.8c0-0.1,0-0.3,0-0.4
		c-0.1-0.6-0.6-1-1.3-1c-0.9,0-1.4,0.8-1.4,1.9c0,1,0.5,1.8,1.4,1.8c0.6,0,1.1-0.4,1.3-1c0-0.1,0-0.2,0-0.4V824.8z"/>
	<path fill="#FFFFFF" d="M502.6,825.4c0,1.2,0.8,1.7,1.7,1.7c0.6,0,1-0.1,1.3-0.2l0.1,0.6c-0.3,0.1-0.8,0.3-1.6,0.3
		c-1.5,0-2.4-1-2.4-2.4s0.9-2.6,2.3-2.6c1.6,0,2,1.4,2,2.3c0,0.2,0,0.3,0,0.4L502.6,825.4L502.6,825.4z M505.2,824.8
		c0-0.6-0.2-1.4-1.2-1.4c-0.9,0-1.3,0.8-1.3,1.4H505.2z"/>
	<path fill="#FFFFFF" d="M510.1,821v6.7h-0.9V821H510.1z"/>
	<path fill="#FFFFFF" d="M511.7,824.2c0-0.5,0-0.9,0-1.3h0.8l0.1,0.8l0,0c0.2-0.5,0.8-0.9,1.6-0.9c0.7,0,1.7,0.4,1.7,2.1v2.9H515
		V825c0-0.8-0.3-1.4-1.1-1.4c-0.6,0-1,0.4-1.2,0.9c0,0.1-0.1,0.3-0.1,0.4v2.9h-0.9L511.7,824.2L511.7,824.2z"/>
	<path fill="#FFFFFF" d="M521.4,820.6v5.8c0,0.4,0,0.9,0,1.2h-0.8v-0.8l0,0c-0.3,0.5-0.9,1-1.6,1c-1.2,0-2.1-1-2.1-2.5
		c0-1.6,1-2.6,2.2-2.6c0.7,0,1.2,0.3,1.5,0.7l0,0v-2.9L521.4,820.6L521.4,820.6z M520.6,824.8c0-0.1,0-0.3,0-0.4
		c-0.1-0.6-0.6-1-1.3-1c-0.9,0-1.4,0.8-1.4,1.9c0,1,0.5,1.8,1.4,1.8c0.6,0,1.1-0.4,1.3-1c0-0.1,0-0.2,0-0.4V824.8z"/>
	<path fill="#FFFFFF" d="M524.7,820.8l-1.2,1.4h-0.6l0.9-1.4H524.7z M522.9,827.7v-4.8h0.9v4.8H522.9z"/>
	<path fill="#FFFFFF" d="M529.4,822.9c0,0.3,0,0.7,0,1.3v2.8c0,1.1-0.2,1.8-0.7,2.2s-1.1,0.6-1.8,0.6c-0.6,0-1.2-0.1-1.6-0.4
		l0.2-0.7c0.3,0.2,0.8,0.4,1.4,0.4c0.9,0,1.6-0.5,1.6-1.7v-0.5l0,0c-0.3,0.4-0.8,0.8-1.5,0.8c-1.2,0-2.1-1-2.1-2.4
		c0-1.6,1.1-2.6,2.2-2.6c0.8,0,1.3,0.4,1.5,0.8l0,0v-0.7h0.8V822.9z M528.5,824.8c0-0.1,0-0.3-0.1-0.4c-0.2-0.5-0.6-0.9-1.2-0.9
		c-0.8,0-1.4,0.7-1.4,1.8c0,0.9,0.5,1.7,1.4,1.7c0.5,0,1-0.3,1.2-0.9c0-0.2,0.1-0.3,0.1-0.5V824.8z"/>
	<path fill="#FFFFFF" d="M531.3,825.4c0,1.2,0.8,1.7,1.7,1.7c0.6,0,1-0.1,1.3-0.2l0.1,0.6c-0.3,0.1-0.8,0.3-1.6,0.3
		c-1.5,0-2.4-1-2.4-2.4s0.9-2.6,2.3-2.6c1.6,0,2,1.4,2,2.3c0,0.2,0,0.3,0,0.4L531.3,825.4L531.3,825.4z M533.9,824.8
		c0-0.6-0.2-1.4-1.2-1.4c-0.9,0-1.3,0.8-1.3,1.4H533.9z"/>
	<path fill="#FFFFFF" d="M535.8,824.2c0-0.5,0-0.9,0-1.3h0.8l0.1,0.8l0,0c0.2-0.5,0.8-0.9,1.6-0.9c0.7,0,1.7,0.4,1.7,2.1v2.9h-0.9
		V825c0-0.8-0.3-1.4-1.1-1.4c-0.6,0-1,0.4-1.2,0.9c0,0.1-0.1,0.3-0.1,0.4v2.9h-0.9L535.8,824.2L535.8,824.2z"/>
	<path fill="#FFFFFF" d="M544.1,827.7l-0.1-0.6l0,0c-0.3,0.4-0.8,0.7-1.5,0.7c-1,0-1.5-0.7-1.5-1.4c0-1.2,1-1.8,2.9-1.8v-0.1
		c0-0.4-0.1-1.1-1.1-1.1c-0.5,0-0.9,0.1-1.3,0.4l-0.2-0.6c0.4-0.3,1-0.4,1.6-0.4c1.5,0,1.8,1,1.8,2v1.8c0,0.4,0,0.8,0.1,1.2h-0.7
		V827.7z M543.9,825.2c-1,0-2,0.2-2,1.1c0,0.6,0.4,0.8,0.8,0.8c0.6,0,1-0.4,1.2-0.8c0-0.1,0-0.2,0-0.3V825.2z"/>
	<path fill="#FFFFFF" d="M86.7,828.9v-0.5h150.8v0.5H86.7z"/>
	<path fill="#FFFFFF" d="M241.7,828.9v-0.5h201.4v0.5H241.7z"/>
	<path fill="#FFFFFF" d="M452.3,828.9v-0.5h93.1v0.5H452.3z"/>
</g>
</svg>
