<?xml version="1.0" encoding="utf-8"?>
<!-- Generator: Adobe Illustrator 18.1.1, SVG Export Plug-In . SVG Version: 6.00 Build 0)  -->
<svg version="1.1" id="Camada_1" xmlns="http://www.w3.org/2000/svg" xmlns:xlink="http://www.w3.org/1999/xlink" x="0px" y="0px"
	 viewBox="-164 631.9 554 352" enable-background="new -164 631.9 554 352" xml:space="preserve">
<g>
	<g>
		<path fill="#F4D256" d="M-123.2,837.4v-7.7h59.5v7.7c0,0-6.7,5.5-29.9,5.5C-116.5,842.8-123.2,837.4-123.2,837.4z"/>
		<path fill="#DC9928" d="M-63.7,829.7c0,3.2-13.4,5.7-29.9,5.7s-29.9-2.5-29.9-5.7c0-3.2,13.4-5.7,29.9-5.7
			C-76.9,823.9-63.7,826.4-63.7,829.7z"/>
	</g>
	<g>
		<g>
			<path fill="#F4D256" d="M-89.6,828.4c-0.5,0-1,0-1.2,0.2s-0.7,0.5-1,1c-0.5,1-1.2,1.5-2,2c-0.7,0.5-2,0.7-3.2,0.7s-2.2-0.2-3-0.7
				s-1-1-1-1.7h-2.2l0.2-1h2.2c0.5-0.7,1-1.2,1.7-1.7c0.7-0.5,1.7-0.5,3-0.5l0,0l-0.2,1.7c-0.7,0-1.2,0-1.7,0.2
				c-0.5,0.2-0.7,0.5-0.7,0.7c0,0.5,0,0.7,0.2,0.7c0.2,0.2,0.7,0.2,1.5,0.2c0.5,0,1,0,1.2-0.2c0.2-0.2,0.7-0.5,1.2-1
				c0.5-1,1.2-1.5,1.7-2c0.7-0.5,1.5-0.7,2.7-0.7c1,0,2,0.2,2.7,0.7c0.7,0.5,1.2,1,1.7,1.7h2l0.2,1h-2c0,0.7-0.2,1.5-1,2
				c-0.7,0.5-2,0.7-3.7,0.7l0,0l-0.2-1.7c1,0,1.5-0.2,2-0.5c0.2-0.2,0.5-0.5,0.5-1s-0.2-0.7-0.7-1
				C-88.6,828.4-89.1,828.4-89.6,828.4z"/>
		</g>
	</g>
</g>
<g>
	<g>
		<g>
			<path fill="#F4D256" d="M13.5,838.1v-7.7H73v7.7c0,0-6.7,5.5-29.9,5.5S13.5,838.1,13.5,838.1z"/>
			<path fill="#DC9928" d="M73,830.4c0,3.2-13.4,5.7-29.9,5.7s-29.9-2.5-29.9-5.7c0-3.2,13.4-5.7,29.9-5.7S73,827.2,73,830.4z"/>
		</g>
		<g>
			<g>
				<path fill="#F4D256" d="M47.1,829.2c-0.5,0-1,0-1.2,0.2c-0.2,0.2-0.7,0.5-1,1c-0.5,1-1.2,1.5-2,2c-0.7,0.5-2,0.7-3.2,0.7
					s-2.2-0.2-3-0.7c-0.7-0.5-1-1-1-1.7h-2.2l0.2-1h2.2c0.5-0.7,1-1.2,1.7-1.7c0.7-0.5,1.7-0.5,3-0.5l0,0l-0.2,1.7
					c-0.7,0-1.2,0-1.7,0.2c-0.5,0.2-0.7,0.5-0.7,0.7c0,0.5,0,0.7,0.2,0.7c0.2,0.2,0.7,0.2,1.5,0.2c0.5,0,1,0,1.2-0.2
					c0.2-0.2,0.7-0.5,1.2-1c0.5-1,1.2-1.5,1.7-2c0.7-0.5,1.5-0.7,2.7-0.7c1,0,2,0.2,2.7,0.7c0.7,0.5,1.2,1,1.7,1.7h2l0.2,1h-2
					c0,0.7-0.2,1.5-1,2c-0.7,0.5-2,0.7-3.7,0.7l0,0l-0.2-1.7c1,0,1.5-0.2,2-0.5c0.2-0.2,0.5-0.5,0.5-1c0-0.5-0.2-0.7-0.7-1
					C48.1,829.2,47.6,829.2,47.1,829.2z"/>
			</g>
		</g>
	</g>
	<g>
		<g>
			<path fill="#F4D256" d="M13.5,828.9v-7.7H73v7.7c0,0-6.7,5.5-29.9,5.5S13.5,828.9,13.5,828.9z"/>
			<ellipse fill="#DC9928" cx="43.1" cy="821.2" rx="29.9" ry="5.7"/>
		</g>
		<g>
			<g>
				<path fill="#F4D256" d="M47.1,819.9c-0.5,0-1,0-1.2,0.2c-0.2,0.2-0.7,0.5-1,1c-0.5,1-1.2,1.5-2,2c-0.7,0.5-2,0.7-3.2,0.7
					s-2.2-0.2-3-0.7c-0.7-0.5-1-1-1-1.7h-2.2l0.2-1h2.2c0.5-0.7,1-1.2,1.7-1.7c0.7-0.5,1.7-0.5,3-0.5l0,0l-0.2,1.7
					c-0.7,0-1.2,0-1.7,0.2c-0.5,0.2-0.7,0.5-0.7,0.7c0,0.5,0,0.7,0.2,0.7c0.2,0.2,0.7,0.2,1.5,0.2c0.5,0,1,0,1.2-0.2
					c0.2-0.2,0.7-0.5,1.2-1c0.5-1,1.2-1.5,1.7-2c0.7-0.5,1.5-0.7,2.7-0.7c1,0,2,0.2,2.7,0.7c0.7,0.5,1.2,1,1.7,1.7h2l0.2,1h-2
					c0,0.7-0.2,1.5-1,2s-2,0.7-3.7,0.7l0,0l-0.2-1.7c1,0,1.5-0.2,2-0.5c0.2-0.2,0.5-0.5,0.5-1c0-0.5-0.2-0.7-0.7-1
					C48.1,819.9,47.6,819.9,47.1,819.9z"/>
			</g>
		</g>
	</g>
	<g>
		<g>
			<path fill="#F4D256" d="M13.5,819.7V812H73v7.7c0,0-6.7,5.5-29.9,5.5S13.5,819.7,13.5,819.7z"/>
			<ellipse fill="#DC9928" cx="43.1" cy="812" rx="29.9" ry="5.7"/>
		</g>
		<g>
			<g>
				<path fill="#F4D256" d="M47.1,810.7c-0.5,0-1,0-1.2,0.2c-0.2,0.2-0.7,0.5-1,1c-0.5,1-1.2,1.5-2,2c-0.7,0.5-2,0.7-3.2,0.7
					s-2.2-0.2-3-0.7c-0.7-0.5-1-1-1-1.7h-2.2l0.2-1h2.2c0.5-0.7,1-1.2,1.7-1.7c0.7-0.5,1.7-0.5,3-0.5l0,0l-0.2,1.7
					c-0.7,0-1.2,0-1.7,0.2c-0.5,0.2-0.7,0.5-0.7,0.7c0,0.5,0,0.7,0.2,0.7c0.2,0.2,0.7,0.2,1.5,0.2c0.5,0,1,0,1.2-0.2
					c0.2-0.2,0.7-0.5,1.2-1c0.5-1,1.2-1.5,1.7-2c0.7-0.5,1.5-0.7,2.7-0.7c1,0,2,0.2,2.7,0.7c0.7,0.5,1.2,1,1.7,1.7h2l0.2,1h-2
					c0,0.7-0.2,1.5-1,2s-2,0.7-3.7,0.7l0,0l-0.2-1.7c1,0,1.5-0.2,2-0.5c0.2-0.2,0.5-0.5,0.5-1c0-0.5-0.2-0.7-0.7-1
					C48.1,811,47.6,810.7,47.1,810.7z"/>
			</g>
		</g>
	</g>
</g>
<g>
	<g>
		<g>
			<path fill="#F4D256" d="M150.4,839.1v-7.7h59.5v7.7c0,0-6.7,5.5-29.9,5.5C157.1,844.6,150.4,839.1,150.4,839.1z"/>
			<ellipse fill="#DC9928" cx="180.3" cy="831.4" rx="29.9" ry="5.7"/>
		</g>
		<g>
			<g>
				<path fill="#F4D256" d="M184,830.1c-0.5,0-1,0-1.2,0.2c-0.2,0.2-0.7,0.5-1,1c-0.5,1-1.2,1.5-2,2c-0.7,0.5-2,0.7-3.2,0.7
					c-1.2,0-2.2-0.2-3-0.7c-0.7-0.5-1-1-1-1.7h-2.2l0.2-1h2.2c0.2-0.7,1-1.2,1.7-1.7c0.7-0.5,1.7-0.5,3-0.5l0,0l-0.2,1.7
					c-0.7,0-1.2,0-1.7,0.2c-0.5,0.2-0.7,0.5-0.7,0.7c0,0.5,0,0.7,0.2,0.7c0.2,0.2,0.7,0.2,1.5,0.2c0.5,0,1,0,1.2-0.2s0.7-0.5,1.2-1
					c0.5-1,1.2-1.5,1.7-2c0.7-0.5,1.5-0.7,2.7-0.7c1,0,2,0.2,2.7,0.7c0.7,0.5,1.2,1,1.7,1.7h2l0.2,1h-2c0,0.7-0.2,1.5-1,2
					c-0.7,0.5-2,0.7-3.7,0.7l0,0l-0.2-1.7c1,0,1.5,0,2-0.2c0.2-0.2,0.5-0.5,0.5-1s-0.2-0.7-0.7-1C185,830.4,184.5,830.1,184,830.1z"
					/>
			</g>
		</g>
	</g>
	<g>
		<g>
			<path fill="#F4D256" d="M150.4,829.7v-7.7l59.5,0.5v7.7c0,0-6.7,5.5-29.9,5.2C157.1,835.1,150.4,829.7,150.4,829.7z"/>
			
				<ellipse transform="matrix(1 7.999480e-003 -7.999480e-003 1 6.5828 -1.4147)" fill="#DC9928" cx="180.1" cy="822.2" rx="29.9" ry="5.7"/>
		</g>
		<g>
			<g>
				<path fill="#F4D256" d="M184,820.9c-0.5,0-1,0-1.2,0.2c-0.2,0.2-0.7,0.5-1,1c-0.5,1-1.2,1.5-2,2c-0.7,0.5-2,0.7-3.2,0.7
					c-1.2,0-2.2-0.2-3-0.7c-0.7-0.5-1-1-1-1.7h-2.2l0.2-1h2.2c0.5-0.7,1-1.2,2-1.7c0.7-0.5,1.7-0.5,3-0.5l0,0l-0.2,1.7
					c-0.7,0-1.2,0-1.7,0.2c-0.5,0.2-0.7,0.5-0.7,0.7c0,0.5,0,0.7,0.2,0.7c0.2,0.2,0.7,0.2,1.5,0.2c0.5,0,1,0,1.2-0.2
					c0.2-0.2,0.7-0.5,1.2-1c0.5-1,1.2-1.5,2-2c0.7-0.5,1.5-0.7,2.7-0.7c1,0,2,0.2,2.7,0.7c0.7,0.5,1.2,1,1.5,1.7h2l0.2,1h-2
					c0,0.7-0.2,1.5-1,2c-0.7,0.5-2,0.7-3.7,0.7l0,0v-1.7c1,0,1.5,0,2-0.2c0.2-0.2,0.5-0.5,0.5-1s-0.2-0.7-0.5-1
					C185,820.9,184.7,820.9,184,820.9z"/>
			</g>
		</g>
	</g>
	<g>
		<g>
			<path fill="#F4D256" d="M150.4,820.4v-7.7h59.5v7.7c0,0-6.7,5.5-29.9,5.5C157.1,825.9,150.4,820.4,150.4,820.4z"/>
			<ellipse fill="#DC9928" cx="180.3" cy="812.7" rx="29.9" ry="5.7"/>
		</g>
		<g>
			<g>
				<path fill="#F4D256" d="M184,811.5c-0.5,0-1,0-1.2,0.2c-0.2,0.2-0.7,0.5-1,1c-0.5,1-1.2,1.7-2,2c-0.7,0.7-1.7,0.7-3.2,0.7
					c-1.2,0-2.2-0.2-3-0.7c-0.7-0.5-1-1-1-1.7h-2.2l0.2-1h2.2c0.2-0.7,1-1.2,1.7-1.7c0.7-0.5,1.7-0.5,3-0.5l0,0l-0.2,1.7
					c-0.7,0-1.2,0-1.7,0.2c-0.5,0.2-0.7,0.5-0.7,0.7c0,0.5,0,0.7,0.2,0.7c0.2,0.2,0.7,0.2,1.5,0.2c0.5,0,1,0,1.2-0.2
					c0.2-0.2,0.7-0.5,1.2-1c0.5-1,1.2-1.5,1.7-2c0.7-0.5,1.5-0.7,2.7-0.7c1,0,2,0.2,2.7,0.7c0.7,0.5,1.2,1,1.7,1.7h2l0.2,1h-2
					c0,0.7-0.2,1.5-1,2s-2,0.7-3.7,0.7l0,0l-0.2-1.7c1,0,1.5-0.2,2-0.5c0.2-0.2,0.5-0.5,0.5-1c0-0.5-0.2-0.7-0.7-1
					C185,811.7,184.5,811.5,184,811.5z"/>
			</g>
		</g>
	</g>
	<g>
		<g>
			<path fill="#F4D256" d="M150.4,811.2v-7.7h59.5v7.7c0,0-6.7,5.5-29.9,5.5C157.1,816.7,150.4,811.2,150.4,811.2z"/>
			<path fill="#DC9928" d="M209.9,803.5c0,3.2-13.4,5.7-29.9,5.7s-29.9-2.5-29.9-5.7c0-3.2,13.4-5.7,29.9-5.7
				S209.9,800.3,209.9,803.5z"/>
		</g>
		<g>
			<g>
				<path fill="#F4D256" d="M184,802.3c-0.5,0-1,0-1.2,0.2s-0.7,0.5-1,1c-0.5,1-1.2,1.5-2,2c-0.7,0.5-2,0.7-3.2,0.7
					c-1.2,0-2.2-0.2-3-0.7s-1-1-1-1.7h-2.2l0.2-1h2.2c0.2-0.7,1-1.2,1.7-1.7c0.7-0.5,1.7-0.5,3-0.5l0,0l-0.2,1.7
					c-0.7,0-1.2,0-1.7,0.2s-0.7,0.5-0.7,0.7c0,0.5,0,0.7,0.2,0.7c0.2,0.2,0.7,0.2,1.5,0.2c0.5,0,1,0,1.2-0.2c0.2-0.2,0.7-0.5,1.2-1
					c0.5-1,1.2-1.5,1.7-2c0.7-0.5,1.5-0.7,2.7-0.7c1,0,2,0.2,2.7,0.7c0.7,0.5,1.2,1,1.7,1.7h2l0.2,1h-2c0,0.7-0.2,1.5-1,2
					c-0.7,0.5-2,0.7-3.7,0.7l0,0l-0.2-1.7c1,0,1.5-0.2,2-0.5c0.2-0.2,0.5-0.5,0.5-1s-0.2-0.7-0.7-1C185,802.3,184.5,802.3,184,802.3
					z"/>
			</g>
		</g>
	</g>
</g>
<g>
	<g>
		<g>
			<path fill="#F4D256" d="M288.8,839.4v-7.7h59.5v7.7c0,0-6.7,5.5-29.9,5.5C295.5,844.8,288.8,839.4,288.8,839.4z"/>
			<ellipse fill="#DC9928" cx="318.4" cy="831.6" rx="29.9" ry="5.7"/>
		</g>
		<g>
			<g>
				<path fill="#F4D256" d="M322.4,830.4c-0.5,0-1,0-1.2,0.2c-0.2,0.2-0.7,0.5-1,1c-0.5,1-1.2,1.5-2,2c-0.7,0.5-2,0.7-3.2,0.7
					s-2.2-0.2-3-0.7c-0.7-0.5-1-1-1-1.7h-2.2l0.2-1h2.2c0.5-0.7,1-1.2,1.7-1.7c0.7-0.5,1.7-0.5,3-0.5l0,0l0,1.7
					c-0.7,0-1.2,0-1.7,0.2c-0.5,0.2-0.7,0.5-0.7,0.7c0,0.5,0,0.7,0.2,0.7c0.2,0.2,0.7,0.2,1.5,0.2c0.5,0,1,0,1.2-0.2
					c0.2-0.2,0.7-0.5,1.2-1c0.5-1,1.2-1.5,1.7-2c0.7-0.5,1.5-0.7,2.7-0.7c1,0,2,0.2,2.7,0.7c0.7,0.5,1.2,1,1.7,1.7h2l0.2,1h-2
					c0,0.7-0.2,1.5-1,2c-0.7,0.5-2,0.7-3.7,0.7l0,0l-0.2-1.7c1,0,1.5,0,2-0.5c0.2-0.2,0.5-0.5,0.5-1c0-0.5-0.2-0.7-0.7-1
					C323.4,830.4,322.9,830.4,322.4,830.4z"/>
			</g>
		</g>
	</g>
	<g>
		<g>
			<path fill="#F4D256" d="M288.8,829.9v-7.7h59.5v7.7c0,0-6.7,5.5-29.9,5.5C295.5,835.6,288.8,829.9,288.8,829.9z"/>
			<ellipse fill="#DC9928" cx="318.4" cy="822.4" rx="29.9" ry="5.7"/>
		</g>
		<g>
			<g>
				<path fill="#F4D256" d="M322.4,820.9c-0.5,0-1,0-1.2,0.2c-0.2,0.2-0.7,0.5-1,1c-0.5,1-1.2,1.5-2,2c-0.7,0.5-2,0.7-3.2,0.7
					s-2.2-0.2-3-0.7c-0.7-0.5-1-1-1-1.7h-2.2l0.2-1h2.2c0.5-0.7,1-1.2,1.7-1.7c0.7-0.5,1.7-0.5,3-0.5l0,0l-0.2,1.7
					c-0.7,0-1.2,0-1.7,0.2c-0.5,0.2-0.7,0.5-0.7,0.7c0,0.5,0,0.7,0.2,0.7c0.2,0.2,0.7,0.2,1.5,0.2c0.5,0,1,0,1.2-0.2s0.7-0.5,1.2-1
					c0.5-1,1.2-1.5,1.7-2c0.7-0.5,1.5-0.7,2.7-0.7c1,0,2,0.2,2.7,0.7c0.7,0.5,1.2,1,1.7,1.7h2l0.2,1h-2c0,0.7-0.2,1.5-1,2
					c-0.7,0.5-2,0.7-3.7,0.7l0,0l-0.2-1.7c1,0,1.5,0,2-0.5c0.2-0.2,0.5-0.5,0.5-1c0-0.5-0.2-0.7-0.7-1
					C323.4,821.2,322.9,820.9,322.4,820.9z"/>
			</g>
		</g>
	</g>
	<g>
		<g>
			<path fill="#F4D256" d="M288.8,820.7V813h59.5v7.7c0,0-6.7,5.5-29.9,5.5C295.5,826.2,288.8,820.7,288.8,820.7z"/>
			<ellipse fill="#DC9928" cx="318.4" cy="813" rx="29.9" ry="5.7"/>
		</g>
		<g>
			<g>
				<path fill="#F4D256" d="M322.4,811.7c-0.5,0-1,0-1.2,0.2c-0.2,0.2-0.7,0.5-1,1c-0.5,1-1.2,1.5-2,2c-0.7,0.5-2,0.7-3.2,0.7
					s-2.2-0.2-3-0.7c-0.7-0.5-1-1-1-1.7h-2.2l0.2-1h2.2c0.2-0.7,1-1.2,1.7-1.7c0.7-0.5,1.7-0.5,3-0.5l0,0l-0.2,1.7
					c-0.7,0-1.2,0-1.7,0.2c-0.5,0.2-0.7,0.5-0.7,0.7c0,0.5,0,0.7,0.2,0.7c0.2,0.2,0.7,0.2,1.5,0.2c0.5,0,1,0,1.2-0.2
					c0.2-0.2,0.7-0.5,1.2-1c0.5-1,1.2-1.5,1.7-2c0.7-0.5,1.5-0.7,2.7-0.7c1,0,2,0.2,2.7,0.7c0.7,0.5,1.2,1,1.7,1.7h2l0.2,1h-2
					c0,0.7-0.2,1.5-1,2c-0.7,0.5-2,0.7-3.7,0.7l0,0l-0.2-1.7c1,0,1.5-0.2,2-0.5c0.2-0.2,0.5-0.5,0.5-1c0-0.5-0.2-0.7-0.7-1
					C323.4,811.7,322.9,811.7,322.4,811.7z"/>
			</g>
		</g>
	</g>
	<g>
		<g>
			<path fill="#F4D256" d="M288.8,811.5v-7.7h59.5v7.7c0,0-6.7,5.5-29.9,5.5C295.5,817,288.8,811.5,288.8,811.5z"/>
			<ellipse fill="#DC9928" cx="318.4" cy="803.8" rx="29.9" ry="5.7"/>
		</g>
		<g>
			<g>
				<path fill="#F4D256" d="M322.4,802.3c-0.5,0-1,0-1.2,0.2c-0.2,0.2-0.7,0.5-1,1c-0.5,1-1.2,1.5-2,2c-0.7,0.5-2,0.7-3.2,0.7
					s-2.2-0.2-3-0.7c-0.7-0.5-1-1-1-1.7h-2.2l0.2-1h2.2c0.2-0.7,1-1.2,1.7-1.7c0.7-0.5,1.7-0.5,3-0.5l0,0l-0.2,1.7
					c-0.7,0-1.2,0-1.7,0.2c-0.5,0.2-0.7,0.5-0.7,0.7c0,0.5,0,0.7,0.2,0.7c0.2,0.2,0.7,0.2,1.5,0.2c0.5,0,1,0,1.2-0.2
					c0.2-0.2,0.7-0.5,1.2-1c0.5-1,1.2-1.5,1.7-2c0.7-0.5,1.5-0.7,2.7-0.7c1,0,2,0.2,2.7,0.7c0.7,0.5,1.2,1,1.7,1.7h2l0.2,1h-2
					c0,0.7-0.2,1.5-1,2c-0.7,0.5-2,0.7-3.7,0.7l0,0l-0.2-1.7c1,0,1.5-0.2,2-0.5c0.2-0.2,0.5-0.5,0.5-1s-0.2-0.7-0.7-1
					C323.4,802.5,322.9,802.3,322.4,802.3z"/>
			</g>
		</g>
	</g>
	<g>
		<g>
			<path fill="#F4D256" d="M288.8,802v-7.7h59.5v7.7c0,0-6.7,5.5-29.9,5.5C295.5,807.5,288.8,802,288.8,802z"/>
			<ellipse fill="#DC9928" cx="318.4" cy="794.3" rx="29.9" ry="5.7"/>
		</g>
		<g>
			<g>
				<path fill="#F4D256" d="M322.4,793.1c-0.5,0-1,0-1.2,0.2c-0.2,0.2-0.7,0.5-1,1c-0.5,1-1.2,1.5-2,2c-0.7,0.5-2,0.7-3.2,0.7
					s-2.2-0.2-3-0.7c-0.7-0.5-1-1-1-1.7h-2.2l0.2-1h2.2c0.5-0.7,1-1.2,1.7-1.7c0.7-0.5,1.7-0.5,3-0.5l0,0l0,1.7
					c-0.7,0-1.2,0-1.7,0.2c-0.5,0.2-0.7,0.5-0.7,0.7c0,0.5,0,0.7,0.2,0.7c0.2,0.2,0.7,0.2,1.5,0.2c0.5,0,1,0,1.2-0.2
					c0.2-0.2,0.7-0.5,1.2-1c0.5-1,1.2-1.5,1.7-2c0.7-0.5,1.5-0.7,2.7-0.7c1,0,2,0.2,2.7,0.7c0.7,0.5,1.2,1,1.7,1.7h2l0.2,1h-2
					c0,0.7-0.2,1.5-1,2c-0.7,0.5-2,0.7-3.7,0.7l0,0l-0.2-1.7c1,0,1.5-0.2,2-0.5c0.2-0.2,0.5-0.5,0.5-1s-0.2-0.7-0.7-1
					C323.4,793.1,322.9,793.1,322.4,793.1z"/>
			</g>
		</g>
	</g>
	<g>
		<g>
			<path fill="#F4D256" d="M288.8,792.8v-7.7h59.5v7.7c0,0-6.7,5.5-29.9,5.5C295.5,798.3,288.8,792.8,288.8,792.8z"/>
			<ellipse fill="#DC9928" cx="318.4" cy="785.1" rx="29.9" ry="5.7"/>
		</g>
		<g>
			<g>
				<path fill="#F4D256" d="M322.4,783.8c-0.5,0-1,0-1.2,0.2c-0.2,0.2-0.7,0.5-1,1c-0.5,1-1.2,1.5-2,2c-0.7,0.5-2,0.7-3.2,0.7
					s-2.2-0.2-3-0.7c-0.7-0.5-1-1-1-1.7h-2.2l0.2-1h2.2c0.2-0.7,1-1.2,1.7-1.7c0.7-0.5,1.7-0.5,3-0.5l0,0l-0.2,1.7
					c-0.7,0-1.2,0-1.7,0.2c-0.5,0.2-0.7,0.5-0.7,0.7c0,0.5,0,0.7,0.2,0.7c0.2,0.2,0.7,0.2,1.5,0.2c0.5,0,1,0,1.2-0.2s0.7-0.5,1.2-1
					c0.5-1,1.2-1.5,1.7-2c0.7-0.5,1.5-0.7,2.7-0.7c1,0,2,0.2,2.7,0.7c0.7,0.5,1.2,1,1.7,1.7h2l0.2,1h-2c0,0.7-0.2,1.5-1,2
					c-0.7,0.5-2,0.7-3.7,0.7l0,0l-0.2-1.7c1,0,1.5-0.2,2-0.5c0.5-0.2,0.5-0.5,0.5-1c0-0.5-0.2-0.7-0.7-1
					C323.4,783.8,322.9,783.8,322.4,783.8z"/>
			</g>
		</g>
	</g>
	<g>
		<g>
			<path fill="#F4D256" d="M288.8,783.3v-7.7h59.5v7.7c0,0-6.7,5.5-29.9,5.5C295.5,788.8,288.8,783.3,288.8,783.3z"/>
			<ellipse fill="#DC9928" cx="318.4" cy="775.6" rx="29.9" ry="5.7"/>
		</g>
		<g>
			<g>
				<path fill="#F4D256" d="M322.4,774.4c-0.5,0-1,0-1.2,0.2c-0.2,0.2-0.7,0.5-1,1c-0.5,1-1.2,1.5-2,2c-0.7,0.5-2,0.7-3.2,0.7
					s-2.2-0.2-3-0.7c-0.7-0.5-1-1-1-1.7h-2.2l0.2-1h2.2c0.5-0.7,1-1.2,1.7-1.7c0.7-0.5,1.7-0.5,3-0.5l0,0l-0.2,1.7
					c-0.7,0-1.2,0-1.7,0.2c-0.5,0.2-0.7,0.5-0.7,0.7c0,0.5,0,0.7,0.2,0.7c0.2,0.2,0.7,0.2,1.5,0.2c0.5,0,1,0,1.2-0.2
					c0.2-0.2,0.7-0.5,1.2-1c0.5-1,1.2-1.5,1.7-2c0.7-0.5,1.5-0.7,2.7-0.7c1,0,2,0.2,2.7,0.7c0.7,0.5,1.2,1,1.7,1.7h2l0.2,1h-2
					c0,0.7-0.2,1.5-1,2c-0.7,0.5-2,0.7-3.7,0.7l0,0l-0.2-1.7c1,0,1.5-0.2,2-0.5c0.2-0.2,0.5-0.5,0.5-1c0-0.5-0.2-0.7-0.7-1
					C323.4,774.4,322.9,774.4,322.4,774.4z"/>
			</g>
		</g>
	</g>
	<g>
		<g>
			<path fill="#F4D256" d="M288.8,774.1v-7.7h59.5v7.7c0,0-6.7,5.5-29.9,5.5C295.5,779.6,288.8,774.1,288.8,774.1z"/>
			<ellipse fill="#DC9928" cx="318.4" cy="766.4" rx="29.9" ry="5.7"/>
		</g>
		<g>
			<g>
				<path fill="#F4D256" d="M322.4,765.2c-0.5,0-1,0-1.2,0.2c-0.2,0.2-0.7,0.5-1,1c-0.5,1-1.2,1.5-2,2c-0.7,0.5-2,0.7-3.2,0.7
					s-2.2-0.2-3-0.7c-0.7-0.5-1-1-1-1.7h-2.2l0.2-1h2.2c0.5-0.7,1-1.2,1.7-1.7c0.7-0.5,1.7-0.5,3-0.5l0,0l-0.2,1.7
					c-0.7,0-1.2,0-1.7,0.2c-0.5,0.2-0.7,0.5-0.7,0.7c0,0.5,0,0.7,0.2,0.7c0.2,0.2,0.7,0.2,1.5,0.2c0.5,0,1,0,1.2-0.2
					c0.2-0.2,0.7-0.5,1.2-1c0.5-1,1.2-1.5,1.7-2c0.7-0.5,1.5-0.7,2.7-0.7c1,0,2,0.2,2.7,0.7c0.7,0.5,1.2,1,1.7,1.7h2l0.2,1h-2
					c0,0.7-0.2,1.5-1,2c-0.7,0.5-2,0.7-3.7,0.7l0,0l-0.2-1.7c1,0,1.5-0.2,2-0.5c0.2-0.2,0.5-0.5,0.5-1s-0.2-0.7-0.7-1
					C323.4,765.2,322.9,765.2,322.4,765.2z"/>
			</g>
		</g>
	</g>
	<g>
		<g>
			<path fill="#F4D256" d="M288.8,764.7V757h59.5v7.7c0,0-6.7,5.5-29.9,5.5C295.5,770.1,288.8,764.7,288.8,764.7z"/>
			<ellipse fill="#DC9928" cx="318.4" cy="757" rx="29.9" ry="5.7"/>
		</g>
		<g>
			<g>
				<path fill="#F4D256" d="M322.4,755.7c-0.5,0-1,0-1.2,0.2c-0.2,0.2-0.7,0.5-1,1c-0.5,1-1.2,1.5-2,2c-0.7,0.5-2,0.7-3.2,0.7
					s-2.2-0.2-3-0.7c-0.7-0.5-1-1-1-1.7h-2.2l0.2-1h2.2c0.5-0.7,1-1.2,1.7-1.7c0.7-0.5,1.7-0.5,3-0.5l0,0l0,1.7
					c-0.7,0-1.2,0-1.7,0.2c-0.5,0.2-0.7,0.5-0.7,0.7c0,0.5,0,0.7,0.2,0.7c0.2,0.2,0.7,0.2,1.5,0.2c0.5,0,1,0,1.2-0.2s0.7-0.5,1.2-1
					c0.5-1,1.2-1.5,1.7-2c0.7-0.5,1.5-0.7,2.7-0.7c1,0,2,0.2,2.7,0.7c0.7,0.5,1.2,1,1.7,1.7h2l0.2,1h-2c0,0.7-0.2,1.5-1,2
					c-0.7,0.5-2,0.7-3.7,0.7l0,0l-0.2-1.7c1,0,1.5,0,2-0.5c0.2-0.2,0.5-0.5,0.5-1s-0.2-0.7-0.7-1C323.4,756,322.9,755.7,322.4,755.7
					z"/>
			</g>
		</g>
	</g>
	<g>
		<g>
			<path fill="#F4D256" d="M288.8,755.5v-7.7h59.5v7.7c0,0-6.7,5.5-29.9,5.5C295.5,760.9,288.8,755.5,288.8,755.5z"/>
			<ellipse fill="#DC9928" cx="318.4" cy="747.7" rx="29.9" ry="5.7"/>
		</g>
		<g>
			<g>
				<path fill="#F4D256" d="M322.4,746.5c-0.5,0-1,0-1.2,0.2c-0.2,0.2-0.7,0.5-1,1c-0.5,1-1.2,1.5-2,2c-0.7,0.5-2,0.7-3.2,0.7
					s-2.2-0.2-3-0.7c-0.7-0.5-1-1-1-1.7h-2.2l0.2-1h2.2c0.5-0.7,1-1.2,1.7-1.7c0.7-0.5,1.7-0.5,3-0.5l0,0l-0.2,1.7
					c-0.7,0-1.2,0-1.7,0.2c-0.5,0.2-0.7,0.5-0.7,0.7c0,0.5,0,0.7,0.2,0.7c0.2,0.2,0.7,0.2,1.5,0.2c0.5,0,1,0,1.2-0.2
					c0.2-0.2,0.7-0.5,1.2-1c0.5-1,1.2-1.5,1.7-2c0.7-0.5,1.5-0.7,2.7-0.7c1,0,2,0.2,2.7,0.7c0.7,0.5,1.2,1,1.7,1.7h2l0.2,1h-2
					c0,0.7-0.2,1.5-1,2c-0.7,0.5-2,0.7-3.7,0.7l0,0l-0.2-1.7c1,0,1.5,0,2-0.5c0.2-0.2,0.5-0.5,0.5-1c0-0.5-0.2-0.7-0.7-1
					C323.4,746.5,322.9,746.5,322.4,746.5z"/>
			</g>
		</g>
	</g>
	<g>
		<g>
			<path fill="#F4D256" d="M288.8,746v-7.7h59.5v7.7c0,0-6.7,5.5-29.9,5.5C295.5,751.5,288.8,746,288.8,746z"/>
			<ellipse fill="#DC9928" cx="318.4" cy="738.3" rx="29.9" ry="5.7"/>
		</g>
		<g>
			<g>
				<path fill="#F4D256" d="M322.4,737c-0.5,0-1,0-1.2,0.2c-0.2,0.2-0.7,0.5-1,1c-0.5,1-1.2,1.5-2,2c-0.7,0.5-2,0.7-3.2,0.7
					s-2.2-0.2-3-0.7c-0.7-0.5-1-1-1-1.7h-2.2l0.2-1h2.2c0.5-0.7,1-1.2,1.7-1.7c0.7-0.5,1.7-0.5,3-0.5l0,0l-0.2,1.7
					c-0.7,0-1.2,0-1.7,0.2c-0.5,0.2-0.7,0.5-0.7,0.7c0,0.5,0,0.7,0.2,0.7c0.2,0.2,0.7,0.2,1.5,0.2c0.5,0,1,0,1.2-0.2
					c0.2-0.2,0.7-0.5,1.2-1c0.5-1,1.2-1.5,1.7-2c0.7-0.5,1.5-0.7,2.7-0.7c1,0,2,0.2,2.7,0.7c0.7,0.5,1.2,1,1.7,1.7h2l0.2,1h-2
					c0,0.7-0.2,1.5-1,2c-0.7,0.5-2,0.7-3.7,0.7l0,0l-0.2-1.7c1,0,1.5-0.2,2-0.5c0.2-0.2,0.5-0.5,0.5-1s-0.2-0.7-0.7-1
					C323.4,737.3,322.9,737,322.4,737z"/>
			</g>
		</g>
	</g>
	<g>
		<g>
			<path fill="#F4D256" d="M288.8,736.8v-7.7h59.5v7.7c0,0-6.7,5.5-29.9,5.5C295.5,742.3,288.8,736.8,288.8,736.8z"/>
			<ellipse fill="#DC9928" cx="318.4" cy="729.1" rx="29.9" ry="5.7"/>
		</g>
		<g>
			<g>
				<path fill="#F4D256" d="M322.4,727.8c-0.5,0-1,0-1.2,0.2c-0.2,0.2-0.7,0.5-1,1c-0.5,1-1.2,1.5-2,2c-0.7,0.5-2,0.7-3.2,0.7
					s-2.2-0.2-3-0.7c-0.7-0.5-1-1-1-1.7h-2.2l0.2-1h2.2c0.5-0.7,1-1.2,1.7-1.7c0.7-0.5,1.7-0.5,3-0.5l0,0l-0.2,1.7
					c-0.7,0-1.2,0-1.7,0.2c-0.5,0.2-0.7,0.5-0.7,0.7c0,0.5,0,0.7,0.2,0.7c0.2,0.2,0.7,0.2,1.5,0.2c0.5,0,1,0,1.2-0.2s0.7-0.5,1.2-1
					c0.5-1,1.2-1.5,1.7-2c0.7-0.5,1.5-0.7,2.7-0.7c1,0,2,0.2,2.7,0.7c0.7,0.5,1.2,1,1.7,1.7h2l0.2,1h-2c0,0.7-0.2,1.5-1,2
					c-0.7,0.5-2,0.7-3.7,0.7l0,0l-0.2-1.7c1,0,1.5-0.2,2-0.5c0.2-0.2,0.5-0.5,0.5-1c0-0.5-0.2-0.7-0.7-1
					C323.4,727.8,322.9,727.8,322.4,727.8z"/>
			</g>
		</g>
	</g>
	<g>
		<g>
			<path fill="#F4D256" d="M288.8,727.3v-7.7h59.5v7.7c0,0-6.7,5.5-29.9,5.5C295.5,733.1,288.8,727.3,288.8,727.3z"/>
			<ellipse fill="#DC9928" cx="318.4" cy="719.9" rx="29.9" ry="5.7"/>
		</g>
		<g>
			<g>
				<path fill="#F4D256" d="M322.4,718.4c-0.5,0-1,0-1.2,0.2c-0.2,0.2-0.7,0.5-1,1c-0.5,1-1.2,1.5-2,2c-0.7,0.5-2,0.7-3.2,0.7
					s-2.2-0.2-3-0.7c-0.7-0.5-1-1-1-1.7h-2.2l0.2-1h2.2c0.5-0.7,1-1.2,1.7-1.7c0.7-0.5,1.7-0.5,3-0.5l0,0l0,1.7
					c-0.7,0-1.2,0-1.7,0.2c-0.5,0.2-0.7,0.5-0.7,0.7c0,0.5,0,0.7,0.2,0.7c0.2,0.2,0.7,0.2,1.5,0.2c0.5,0,1,0,1.2-0.2s0.7-0.5,1.2-1
					c0.5-1,1.2-1.5,1.7-2c0.7-0.5,1.5-0.7,2.7-0.7c1,0,2,0.2,2.7,0.7c0.7,0.5,1.2,1,1.7,1.7h2l0.2,1h-2c0,0.7-0.2,1.5-1,2
					c-0.7,0.5-2,0.7-3.7,0.7l0,0l-0.2-1.7c1,0,1.5-0.2,2-0.5c0.2-0.2,0.5-0.5,0.5-1c0-0.5-0.2-0.7-0.7-1
					C323.4,718.6,322.9,718.4,322.4,718.4z"/>
			</g>
		</g>
	</g>
	<g>
		<g>
			<path fill="#F4D256" d="M288.8,718.1v-7.7h59.5v7.7c0,0-6.7,5.5-29.9,5.5C295.5,723.6,288.8,718.1,288.8,718.1z"/>
			<path fill="#DC9928" d="M348.3,710.4c0,3.2-13.4,5.7-29.9,5.7s-29.9-2.5-29.9-5.7c0-3.2,13.4-5.7,29.9-5.7
				S348.3,707.2,348.3,710.4z"/>
		</g>
		<g>
			<g>
				<path fill="#F4D256" d="M322.4,709.2c-0.5,0-1,0-1.2,0.2c-0.2,0.2-0.7,0.5-1,1c-0.5,1-1.2,1.7-2,2c-0.7,0.5-2,0.7-3.2,0.7
					s-2.2-0.2-3-0.7c-0.7-0.5-1-1-1-1.7h-2.2l0.2-1h2.2c0.2-0.7,1-1.2,1.7-1.7c0.7-0.5,1.7-0.5,3-0.5l0,0l-0.2,1.7
					c-0.7,0-1.2,0-1.7,0.2c-0.5,0.2-0.7,0.5-0.7,0.7c0,0.5,0,0.7,0.2,0.7c0.2,0.2,0.7,0.2,1.5,0.2c0.5,0,1,0,1.2-0.2
					c0.2-0.2,0.7-0.5,1.2-1c0.5-1,1.2-1.5,1.7-2c0.7-0.5,1.5-0.7,2.7-0.7c1,0,2,0.2,2.7,0.7c0.7,0.5,1.2,1,1.7,1.7h2l0.2,1h-2
					c0,0.7-0.2,1.5-1,2c-0.7,0.5-2,0.7-3.7,0.7l0,0l-0.2-1.7c1,0,1.5,0,2-0.5c0.2-0.2,0.5-0.5,0.5-1c0-0.5-0.2-0.7-0.7-1
					C323.4,709.2,322.9,709.2,322.4,709.2z"/>
			</g>
		</g>
	</g>
	<g>
		<g>
			<path fill="#F4D256" d="M288.8,708.9v-7.7h59.5v7.7c0,0-6.7,5.5-29.9,5.5C295.5,714.4,288.8,708.9,288.8,708.9z"/>
			<ellipse fill="#DC9928" cx="318.4" cy="701.2" rx="29.9" ry="5.7"/>
		</g>
		<g>
			<g>
				<path fill="#F4D256" d="M322.4,699.7c-0.5,0-1,0-1.2,0.2c-0.2,0.2-0.7,0.5-1,1c-0.5,1-1.2,1.7-2,2c-0.7,0.5-2,0.7-3.2,0.7
					s-2.2-0.2-3-0.7c-0.7-0.5-1-1-1-1.7h-2.2l0.2-1h2.2c0.2-0.7,1-1.2,1.7-1.7c0.7-0.5,1.7-0.5,3-0.5l0,0l-0.2,1.7
					c-0.7,0-1.2,0-1.7,0.2c-0.5,0.2-0.7,0.5-0.7,0.7c0,0.5,0,0.7,0.2,0.7c0.2,0.2,0.7,0.2,1.5,0.2c0.5,0,1,0,1.2-0.2s0.7-0.5,1.2-1
					c0.5-1,1.2-1.5,1.7-2c0.7-0.5,1.5-0.7,2.7-0.7c1,0,2,0.2,2.7,0.7c0.7,0.5,1.2,1,1.7,1.7h2l0.2,1h-2c0,0.7-0.2,1.5-1,2
					c-0.7,0.5-2,0.7-3.7,0.7l0,0l-0.2-1.7c1,0,1.5-0.2,2-0.5c0.2-0.2,0.5-0.5,0.5-1s-0.2-0.7-0.7-1
					C323.4,699.9,322.9,699.7,322.4,699.7z"/>
			</g>
		</g>
	</g>
	<g>
		<g>
			<path fill="#F4D256" d="M288.8,699.4v-7.7h59.5v7.7c0,0-6.7,5.5-29.9,5.5C295.5,704.9,288.8,699.4,288.8,699.4z"/>
			<ellipse fill="#DC9928" cx="318.4" cy="691.7" rx="29.9" ry="5.7"/>
		</g>
		<g>
			<g>
				<path fill="#F4D256" d="M322.4,690.5c-0.5,0-1,0-1.2,0.2c-0.2,0.2-0.7,0.5-1,1c-0.5,1-1.2,1.5-2,2c-0.7,0.5-2,0.7-3.2,0.7
					s-2.2-0.2-3-0.7c-0.7-0.5-1-1-1-1.7h-2.2l0.2-1h2.2c0.2-0.7,1-1.2,1.7-1.7c0.7-0.5,1.7-0.5,3-0.5l0,0l-0.2,1.7
					c-0.7,0-1.2,0-1.7,0.2c-0.5,0.2-0.7,0.5-0.7,0.7c0,0.5,0,0.7,0.2,0.7c0.2,0.2,0.7,0.2,1.5,0.2c0.5,0,1,0,1.2-0.2s0.7-0.5,1.2-1
					c0.5-1,1.2-1.5,1.7-2c0.7-0.5,1.5-0.7,2.7-0.7c1,0,2,0.2,2.7,0.7c0.7,0.5,1.2,1,1.7,1.7h2l0.2,1h-2c0,0.7-0.2,1.5-1,2
					c-0.7,0.5-2,0.7-3.7,0.7l0,0l-0.2-1.7c1,0,1.5,0,2-0.5c0.2-0.2,0.5-0.5,0.5-1c0-0.5-0.2-0.7-0.7-1
					C323.4,690.5,322.9,690.5,322.4,690.5z"/>
			</g>
		</g>
	</g>
	<g>
		<g>
			<path fill="#F4D256" d="M288.8,690.2v-7.7h59.5v7.7c0,0-6.7,5.5-29.9,5.5C295.5,695.7,288.8,690.2,288.8,690.2z"/>
			<ellipse fill="#DC9928" cx="318.4" cy="682.5" rx="29.9" ry="5.7"/>
		</g>
		<g>
			<g>
				<path fill="#F4D256" d="M322.4,681.3c-0.5,0-1,0-1.2,0.2c-0.2,0.2-0.7,0.5-1,1c-0.5,1-1.2,1.7-2,2c-0.7,0.5-2,0.7-3.2,0.7
					s-2.2-0.2-3-0.7c-0.7-0.5-1-1-1-1.7h-2.2l0.2-1h2.2c0.5-0.7,1-1.2,1.7-1.7c0.7-0.5,1.7-0.5,3-0.5l0,0l0,1.5
					c-0.7,0-1.2,0-1.7,0.2c-0.5,0.2-0.7,0.5-0.7,0.7c0,0.5,0,0.7,0.2,0.7c0.2,0.2,0.7,0.2,1.5,0.2c0.5,0,1,0,1.2-0.2
					c0.2-0.2,0.7-0.5,1.2-1c0.5-1,1.2-1.5,1.7-2c0.7-0.5,1.5-0.7,2.7-0.7c1,0,2,0.2,2.7,0.7c0.7,0.5,1.2,1,1.7,1.7h2l0.2,1h-2
					c0,0.7-0.2,1.5-1,2c-0.7,0.5-2,0.7-3.7,0.7l0,0l-0.2-1.7c1,0,1.5-0.2,2-0.5c0.2-0.2,0.5-0.5,0.5-1c0-0.5-0.2-0.7-0.7-1
					C323.4,681.3,322.9,681.3,322.4,681.3z"/>
			</g>
		</g>
	</g>
	<g>
		<g>
			<path fill="#F4D256" d="M288.8,680.8v-7.7h59.5v7.7c0,0-6.7,5.5-29.9,5.5C295.5,686.2,288.8,680.8,288.8,680.8z"/>
			<path fill="#DC9928" d="M348.3,673.1c0,3.2-13.4,5.7-29.9,5.7s-29.9-2.5-29.9-5.7c0-3.2,13.4-5.7,29.9-5.7
				S348.3,669.8,348.3,673.1z"/>
		</g>
		<g>
			<g>
				<path fill="#F4D256" d="M322.4,671.8c-0.5,0-1,0-1.2,0.2c-0.2,0.2-0.7,0.5-1,1c-0.5,1-1.2,1.5-2,2c-0.7,0.5-2,0.7-3.2,0.7
					s-2.2-0.2-3-0.7c-0.7-0.5-1-1-1-1.7h-2.2l0.2-1h2.2c0.2-0.7,1-1.2,1.7-1.7c0.7-0.5,1.7-0.5,3-0.5l0,0l-0.2,1.7
					c-0.7,0-1.2,0-1.7,0.2c-0.5,0.2-0.7,0.5-0.7,0.7c0,0.5,0,0.7,0.2,0.7c0.2,0.2,0.7,0.2,1.5,0.2c0.5,0,1,0,1.2-0.2
					c0.2-0.2,0.7-0.5,1.2-1c0.5-1,1.2-1.5,1.7-2c0.7-0.5,1.5-0.7,2.7-0.7c1,0,2,0.2,2.7,0.7c0.7,0.5,1.2,1,1.7,1.7h2l0.2,1h-2
					c0,0.7-0.2,1.5-1,2c-0.7,0.5-2,0.7-3.7,0.7l0,0l-0.2-1.7c1,0,1.5,0,2-0.5c0.2-0.2,0.5-0.5,0.5-1s-0.2-0.7-0.7-1
					C323.4,672.1,322.9,671.8,322.4,671.8z"/>
			</g>
		</g>
	</g>
	<g>
		<g>
			<path fill="#F4D256" d="M288.8,671.6v-7.7h59.5v7.7c0,0-6.7,5.5-29.9,5.5C295.5,677,288.8,671.6,288.8,671.6z"/>
			<ellipse fill="#DC9928" cx="318.4" cy="663.8" rx="29.9" ry="5.7"/>
		</g>
		<g>
			<g>
				<path fill="#F4D256" d="M322.4,662.6c-0.5,0-1,0-1.2,0.2c-0.2,0.2-0.7,0.5-1,1c-0.5,1-1.2,1.7-2,2c-0.7,0.5-2,0.7-3.2,0.7
					s-2.2-0.2-3-0.7c-0.7-0.5-1-1-1-1.7h-2.2l0.2-1h2.2c0.5-0.7,1-1.2,1.7-1.7c0.7-0.5,1.7-0.5,3-0.5l0,0l-0.2,1.7
					c-0.7,0-1.2,0-1.7,0.2c-0.5,0.2-0.7,0.5-0.7,0.7c0,0.5,0,0.7,0.2,0.7c0.2,0.2,0.7,0.2,1.5,0.2c0.5,0,1,0,1.2-0.2
					c0.2-0.2,0.7-0.5,1.2-1c0.5-1,1.2-1.5,1.7-2c0.7-0.5,1.5-0.7,2.7-0.7c1,0,2,0.2,2.7,0.7c0.7,0.5,1.2,1,1.7,1.7h2l0.2,1h-2
					c0,0.7-0.2,1.5-1,2c-0.7,0.5-2,0.7-3.7,0.7l0,0l-0.2-1.7c1,0,1.5-0.2,2-0.5c0.5-0.2,0.5-0.5,0.5-1s-0.2-0.7-0.7-1
					C323.4,662.6,322.9,662.6,322.4,662.6z"/>
			</g>
		</g>
	</g>
	<g>
		<g>
			<path fill="#F4D256" d="M288.8,662.1v-7.7h59.5v7.7c0,0-6.7,5.5-29.9,5.5C295.5,667.6,288.8,662.1,288.8,662.1z"/>
			<ellipse fill="#DC9928" cx="318.4" cy="654.4" rx="29.9" ry="5.7"/>
		</g>
		<g>
			<g>
				<path fill="#F4D256" d="M322.4,653.1c-0.5,0-1,0-1.2,0.2c-0.2,0.2-0.7,0.5-1,1c-0.5,1-1.2,1.5-2,2c-0.7,0.5-2,0.7-3.2,0.7
					s-2.2-0.2-3-0.7c-0.7-0.5-1-1-1-1.7h-2.2l0.2-1h2.2c0.2-0.7,1-1.2,1.7-1.7c0.7-0.5,1.7-0.5,3-0.5l0,0l-0.2,1.7
					c-0.7,0-1.2,0-1.7,0.2c-0.5,0.2-0.7,0.5-0.7,0.7c0,0.5,0,0.7,0.2,0.7c0.2,0.2,0.7,0.2,1.5,0.2c0.5,0,1,0,1.2-0.2
					c0.2-0.2,0.7-0.5,1.2-1c0.5-1,1.2-1.5,1.7-2c0.7-0.5,1.5-0.7,2.7-0.7c1,0,2,0.2,2.7,0.7c0.7,0.5,1.2,1,1.7,1.7h2l0.2,1h-2
					c0,0.7-0.2,1.5-1,2c-0.7,0.5-2,0.7-3.7,0.7l0,0l-0.2-1.7c1,0,1.5,0,2-0.5c0.5-0.5,0.5-0.5,0.5-1c0-0.5-0.2-0.7-0.7-1
					C323.4,653.4,322.9,653.1,322.4,653.1z"/>
			</g>
		</g>
	</g>
</g>
<g>
	<path fill="#FFFFFF" d="M-128.9,918.5c0-1.2,0.2-2.2,0.5-3.2c0.2-1,0.7-2,1.2-2.7c0.5-0.7,1.2-1.5,1.7-1.7l0.2,1
		c-0.7,0.5-1.2,1.5-1.7,2.5c-0.5,1.2-0.7,2.5-0.7,3.7v0.7c0,2,0.2,3.5,1,5c0.5,0.7,1,1.5,1.5,2l-0.2,0.7c-0.7-0.2-1.2-1-2-1.7
		C-128.5,923-128.9,921-128.9,918.5z"/>
	<path fill="#FFFFFF" d="M-119.2,923h-1.5v-9.2l-2.7,1v-1.2l4-1.5h0.2V923z"/>
	<path fill="#FFFFFF" d="M-110,918.3c-0.2,0.2-0.7,0.7-1,0.7c-0.5,0.2-0.7,0.2-1.2,0.2c-0.7,0-1.2-0.2-1.7-0.5
		c-0.5-0.2-0.7-0.7-1-1.2c-0.2-0.5-0.5-1.2-0.5-1.7c0-0.7,0.2-1.5,0.5-2c0.2-0.5,0.7-1,1.2-1.2c0.5-0.2,1-0.5,1.7-0.5
		c1,0,2,0.5,2.5,1.2s1,2,1,3.2v0.5c0,2-0.5,3.7-1.2,4.7c-0.7,1-2,1.5-3.7,1.5h-0.2V922h0.2c1.2,0,2-0.2,2.7-1
		C-110.3,920.3-110,919.5-110,918.3z M-112,918.3c0.5,0,1-0.2,1.2-0.5c0.5-0.2,0.7-0.7,0.7-1v-0.7c0-1-0.2-1.7-0.5-2.2
		c-0.5-0.5-1-0.7-1.5-0.7c-0.5,0-1,0.2-1.5,0.7s-0.5,1-0.5,1.7c0,0.7,0.2,1.2,0.5,1.7C-113,918-112.8,918.3-112,918.3z"/>
	<path fill="#FFFFFF" d="M-101.3,918.3c-0.2,0.2-0.7,0.7-1,0.7c-0.5,0.2-0.7,0.2-1.2,0.2c-0.7,0-1.2-0.2-1.7-0.5
		c-0.5-0.2-0.7-0.7-1-1.2c-0.2-0.5-0.5-1.2-0.5-1.7c0-0.7,0.2-1.5,0.5-2c0.2-0.5,0.7-1,1.2-1.2c0.5-0.2,1-0.5,1.7-0.5
		c1,0,2,0.5,2.5,1.2s1,2,1,3.2v0.5c0,2-0.5,3.7-1.2,4.7c-0.7,1-2,1.5-3.7,1.5h-0.2V922h0.2c1.2,0,2-0.2,2.7-1
		C-101.8,920.3-101.3,919.5-101.3,918.3z M-103.6,918.3c0.5,0,1-0.2,1.2-0.5c0.5-0.2,0.7-0.7,0.7-1v-0.7c0-1-0.2-1.7-0.5-2.2
		c-0.5-0.5-1-0.7-1.5-0.7c-0.5,0-1,0.2-1.5,0.7c-0.2,0.5-0.5,1-0.5,1.7c0,0.7,0.2,1.2,0.5,1.7C-104.6,918-104.1,918.3-103.6,918.3z"
		/>
	<path fill="#FFFFFF" d="M-86.4,919h-3.7v-1.2h3.7V919z"/>
	<path fill="#FFFFFF" d="M-78.2,923h-7.2v-1l3.7-4.2c0.5-0.7,1-1.2,1.2-1.5c0.2-0.5,0.2-0.7,0.2-1.2c0-0.5-0.2-1-0.5-1.5
		c-0.2-0.5-0.7-0.5-1.5-0.5s-1.2,0.2-1.5,0.5c-0.5,0.5-0.5,1-0.5,1.7h-1.5c0-1,0.2-1.7,1-2.5c0.7-0.5,1.5-1,2.5-1s1.7,0.2,2.5,0.7
		c0.5,0.5,1,1.2,1,2.2s-0.7,2.2-2,3.7l-3,3.2h5.5L-78.2,923L-78.2,923z"/>
	<path fill="#FFFFFF" d="M-90.9,923h-7.2v-1l3.7-4.2c0.5-0.7,1-1.2,1.2-1.5c0.2-0.5,0.2-0.7,0.2-1.2c0-0.5-0.2-1-0.5-1.5
		c-0.2-0.5-0.7-0.5-1.5-0.5c-0.7,0-1.2,0.2-1.5,0.5c-0.5,0.5-0.5,1-0.5,1.7h-1.5c0-1,0.2-1.7,1-2.5c0.7-0.5,1.5-1,2.5-1
		c1,0,1.7,0.2,2.5,0.7c0.5,0.5,1,1.2,1,2.2s-0.7,2.2-2,3.7l-3,3.2h5.5L-90.9,923L-90.9,923z"/>
	<path fill="#FFFFFF" d="M-69.9,918.3c0,1.7-0.2,2.7-0.7,3.5c-0.5,0.7-1.5,1.2-2.5,1.2c-1.2,0-2-0.5-2.5-1.2c-0.5-0.7-0.7-2-0.7-3.5
		v-1.7c0-1.5,0.2-2.7,0.7-3.5c0.5-0.7,1.5-1.2,2.5-1.2c1.2,0,2,0.2,2.5,1.2c0.5,0.7,0.7,2,0.7,3.5V918.3L-69.9,918.3z M-71.2,916.5
		c0-1.2-0.2-2-0.5-2.5c-0.2-0.5-0.7-0.7-1.5-0.7c-0.7,0-1.2,0.2-1.5,0.7c-0.2,0.5-0.5,1.2-0.5,2.5v2.2c0,1.2,0.2,2,0.5,2.5
		c0.2,0.5,0.7,0.7,1.5,0.7c0.7,0,1.2-0.2,1.5-0.7s0.5-1.2,0.5-2.5V916.5L-71.2,916.5z"/>
	<path fill="#FFFFFF" d="M-63.5,923H-65v-9.2l-2.7,1v-1.2l4-1.5h0.2V923z"/>
	<path fill="#FFFFFF" d="M-47.5,918.5c0,1-0.2,2.2-0.5,3.2c-0.2,1-0.7,2-1.2,2.7c-0.5,0.7-1.2,1.5-2,1.7l-0.2-0.7
		c0.7-0.5,1.5-1.5,1.7-2.7c0.5-1.2,0.7-2.5,0.7-4.2l0,0c0-1,0-2-0.2-3c-0.2-1-0.5-1.7-1-2.5c-0.5-0.7-0.7-1.2-1.2-1.7l0.2-0.7
		c0.7,0.2,1.2,1,2,1.7c0.5,0.7,1,1.7,1.2,2.7C-47.8,916.3-47.5,917.5-47.5,918.5z"/>
	<path fill="#FFFFFF" d="M-59.4,917.5l0.5-5.5h5.5v1.2h-4.2l-0.2,3c0.5-0.2,1.2-0.5,1.7-0.5c1,0,1.7,0.2,2.2,1
		c0.5,0.7,0.7,1.5,0.7,2.7c0,1.2-0.2,2-1,2.7c-0.5,0.7-1.5,1-2.5,1s-1.7-0.2-2.2-0.7c-0.5-0.5-1-1.2-1-2.2h1.2c0,0.7,0.2,1,0.7,1.5
		c0.2,0.2,0.7,0.5,1.5,0.5c0.7,0,1.2-0.2,1.5-0.7c0.2-0.5,0.5-1,0.5-1.7c0-0.7-0.2-1.2-0.5-1.7c-0.5-0.5-1-0.7-1.5-0.7
		c-0.5,0-1,0.2-1.5,0.5l-0.2,0.2L-59.4,917.5z"/>
</g>
<g>
	<path fill="#FFFFFF" d="M18.9,874.6h-9v9.5H7v-21.9h13.4v2.5H9.9v7.5h9V874.6L18.9,874.6z"/>
	<path fill="#FFFFFF" d="M26.9,884h-3v-21.9h3V884z"/>
	<path fill="#FFFFFF" d="M49.2,884h-3l-10.9-16.9V884h-3v-21.9h3L46.3,879v-16.9h3V884z"/>
	<path fill="#FFFFFF" d="M66.2,874.1h-9.5v7.5h10.9v2.5H53.7v-21.9h13.4v2.5H56.2v7h9.5v2.5H66.2z"/>
	<path fill="#FFFFFF" d="M74.1,875.6v8.5h-3v-21.9h8c2.5,0,4.5,0.5,5.5,2c1.5,1,2,3,2,5s-0.5,4-2,5c-1.5,1-3,1.5-5.5,1.5H74.1
		L74.1,875.6z M74.1,873.6h5c1.5,0,2.5-0.5,3.5-1c1-0.5,1-2,1-3c0-1.5-0.5-2.5-1-3c-1-1-2-1-3.5-1h-5.5v8H74.1z"/>
	<path fill="#FFFFFF" d="M2.8,916.8c0-1.2,0.2-2.2,0.5-3.2s0.7-2,1.2-2.7c0.5-0.7,1.2-1.5,1.7-1.7l0.2,1c-0.7,0.5-1.2,1.5-1.7,2.5
		c-0.5,1.2-0.7,2.5-0.7,3.7v0.7c0,2,0.2,3.5,1,5c0.5,0.7,1,1.5,1.5,2l-0.2,0.7c-0.7-0.2-1.2-1-2-1.7C3.3,921.3,2.8,919.3,2.8,916.8z
		"/>
	<path fill="#FFFFFF" d="M15,921.3H7.7v-1l3.7-4.2c0.5-0.7,1-1.2,1.2-1.5c0.2-0.5,0.2-0.7,0.2-1.2c0-0.5-0.2-1-0.5-1.5
		c-0.2-0.5-0.7-0.5-1.5-0.5c-0.7,0-1.2,0.2-1.5,0.5c-0.5,0.5-0.5,1-0.5,1.7H7.5c0-1,0.2-1.7,1-2.5c0.7-0.5,1.5-1,2.5-1
		s1.7,0.2,2.5,0.7c0.5,0.5,1,1.2,1,2.2s-0.7,2.2-2,3.7l-3,3.2H15L15,921.3L15,921.3z"/>
	<path fill="#FFFFFF" d="M23.2,916.5c0,1.7-0.2,2.7-0.7,3.5c-0.5,0.7-1.5,1.2-2.5,1.2c-1.2,0-2-0.5-2.5-1.2s-0.7-2-0.7-3.5v-1.7
		c0-1.5,0.2-2.7,0.7-3.5c0.5-0.7,1.5-1.2,2.5-1.2c1.2,0,2,0.2,2.5,1.2c0.5,0.7,0.7,2,0.7,3.5V916.5L23.2,916.5z M21.9,914.8
		c0-1.2-0.2-2-0.5-2.5c-0.2-0.5-0.7-0.7-1.5-0.7c-0.7,0-1.2,0.2-1.5,0.7c-0.2,0.5-0.5,1.2-0.5,2.5v2.2c0,1.2,0.2,2,0.5,2.5
		c0.2,0.5,0.7,0.7,1.5,0.7c0.7,0,1.2-0.2,1.5-0.7c0.2-0.5,0.5-1.2,0.5-2.5V914.8L21.9,914.8z"/>
	<path fill="#FFFFFF" d="M31.9,916.5c0,1.7-0.2,2.7-0.7,3.5c-0.5,0.7-1.5,1.2-2.5,1.2c-1.2,0-2-0.5-2.5-1.2c-0.5-0.7-0.7-2-0.7-3.5
		v-1.7c0-1.5,0.2-2.7,0.7-3.5c0.5-0.7,1.5-1.2,2.5-1.2c1.2,0,2,0.2,2.5,1.2c0.5,0.7,0.7,2,0.7,3.5C31.9,914.8,31.9,916.5,31.9,916.5
		z M30.4,914.8c0-1.2-0.2-2-0.5-2.5c-0.2-0.5-0.7-0.7-1.5-0.7c-0.7,0-1.2,0.2-1.5,0.7c-0.2,0.5-0.5,1.2-0.5,2.5v2.2
		c0,1.2,0.2,2,0.5,2.5c0.2,0.5,0.7,0.7,1.5,0.7c0.7,0,1.2-0.2,1.5-0.7c0.2-0.5,0.5-1.2,0.5-2.5V914.8L30.4,914.8z"/>
	<path fill="#FFFFFF" d="M38.9,916.5c-0.2,0.2-0.7,0.7-1,0.7c-0.5,0.2-0.7,0.2-1.2,0.2c-0.7,0-1.2-0.2-1.7-0.5
		c-0.5-0.2-0.7-0.7-1-1.2c-0.2-0.5-0.5-1.2-0.5-1.7c0-0.7,0.2-1.5,0.5-2s0.7-1,1.2-1.2c0.5-0.2,1-0.5,1.7-0.5c1,0,2,0.5,2.5,1.2
		c0.5,0.7,1,2,1,3.2v0.5c0,2-0.5,3.7-1.2,4.7c-0.7,1-2,1.5-3.7,1.5h-0.2v-1.2h0.2c1.2,0,2-0.2,2.7-1
		C38.6,918.5,38.9,917.8,38.9,916.5z M36.9,916.5c0.5,0,1-0.2,1.2-0.5c0.5-0.2,0.7-0.7,0.7-1v-0.7c0-1-0.2-1.7-0.5-2.2
		c-0.2-0.5-1-0.7-1.5-0.7c-0.5,0-1,0.2-1.5,0.7c-0.2,0.5-0.5,1-0.5,1.7c0,0.7,0.2,1.2,0.5,1.7C35.6,916.3,36.1,916.5,36.9,916.5z"/>
	<path fill="#FFFFFF" d="M45.1,917.3h-3.7v-1.2h3.7V917.3z"/>
	<path fill="#FFFFFF" d="M53.5,921.3h-7.2v-1l3.7-4.2c0.5-0.7,1-1.2,1.2-1.5c0.2-0.5,0.2-0.7,0.2-1.2c0-0.5-0.2-1-0.5-1.5
		c-0.2-0.2-0.7-0.5-1.5-0.5c-0.7,0-1.2,0.2-1.5,0.5c-0.5,0.5-0.5,1-0.5,1.7h-1.5c0-1,0.2-1.7,1-2.5c0.7-0.5,1.5-1,2.5-1
		c1,0,1.7,0.2,2.5,0.7c0.5,0.5,1,1.2,1,2.2s-0.7,2.2-2,3.7l-3,3.2h5.5L53.5,921.3L53.5,921.3z"/>
	<path fill="#FFFFFF" d="M61.8,916.5c0,1.7-0.2,2.7-0.7,3.5c-0.5,0.7-1.5,1.2-2.5,1.2c-1.2,0-2-0.5-2.5-1.2c-0.5-0.7-0.7-2-0.7-3.5
		v-1.7c0-1.5,0.2-2.7,0.7-3.5c0.5-0.7,1.5-1.2,2.5-1.2c1.2,0,2,0.2,2.5,1.2c0.5,0.7,0.7,2,0.7,3.5C61.8,914.8,61.8,916.5,61.8,916.5
		z M60.5,914.8c0-1.2-0.2-2-0.5-2.5c-0.2-0.5-0.7-0.7-1.5-0.7c-0.7,0-1.2,0.2-1.5,0.7s-0.5,1.2-0.5,2.5v2.2c0,1.2,0.2,2,0.5,2.5
		c0.2,0.5,0.7,0.7,1.5,0.7c0.7,0,1.2-0.2,1.5-0.7c0.2-0.5,0.5-1.2,0.5-2.5V914.8z"/>
	<path fill="#FFFFFF" d="M68,921.3h-1.5v-9.2l-2.7,1v-1.2l4-1.5H68V921.3z"/>
	<path fill="#FFFFFF" d="M72.7,915.8l0.5-5.5h5.5v1.2h-4.2l-0.2,3c0.5-0.2,1.2-0.5,1.7-0.5c1,0,1.7,0.2,2.2,1
		c0.5,0.7,0.7,1.5,0.7,2.7c0,1.2-0.2,2-1,2.7c-0.5,0.7-1.5,1-2.5,1s-1.7-0.2-2.2-0.7c-0.5-0.5-1-1.2-1-2.2h1.2c0,0.7,0.2,1,0.7,1.5
		c0.2,0.2,0.7,0.5,1.5,0.5c0.7,0,1.2-0.2,1.5-0.7c0.2-0.5,0.5-1,0.5-1.7c0-0.7-0.2-1.2-0.5-1.7c-0.5-0.5-1-0.7-1.5-0.7
		c-0.5,0-1,0.2-1.5,0.5l-0.2,0.2L72.7,915.8z"/>
	<path fill="#FFFFFF" d="M83.9,916.8c0,1-0.2,2.2-0.5,3.2s-0.7,2-1.2,2.7c-0.5,0.7-1.2,1.5-2,1.7l-0.2-0.7c0.7-0.5,1.5-1.5,1.7-2.7
		c0.5-1.2,0.7-2.5,0.7-4.2l0,0c0-1,0-2-0.2-3c-0.2-1-0.5-1.7-1-2.5c-0.5-0.7-0.7-1.2-1.2-1.7l0.2-0.7c0.7,0.2,1.2,1,2,1.7
		s1,1.7,1.2,2.7C83.9,914.6,83.9,915.8,83.9,916.8z"/>
</g>
<g>
	<path fill="#FFFFFF" d="M136.9,874.4c-2.4-0.5-4.3-1.4-5.2-2.4c-0.9-0.9-1.4-2.4-1.4-3.8c0-1.4,0.5-2.8,1.9-4.3
		c1.4-0.9,2.8-1.4,5.2-1.4c1.4,0,2.8,0.5,3.8,0.9s1.9,1.4,2.4,2.4c0.5,0.9,0.9,1.9,0.9,3.3h-2.8c0-1.4-0.5-2.4-1.4-2.8
		s-1.9-0.9-3.3-0.9s-2.4,0.5-3.3,0.9s-0.9,1.4-0.9,2.4c0,0.9,0.5,1.4,0.9,2.4c0.5,0.5,1.9,0.9,3.8,1.4c1.9,0.5,2.8,0.9,4.3,1.4
		c0.9,0.5,1.9,1.4,2.4,1.9c0.5,0.9,0.5,1.9,0.5,2.8c0,1.9-0.5,2.8-1.9,4.3c-1.4,0.9-2.8,1.4-5.2,1.4c-1.4,0-2.8-0.5-3.8-0.9
		c-1.4-0.5-2.4-1.4-2.8-2.4c-0.5-0.9-0.9-1.9-0.9-3.3h2.8c0,1.4,0.5,2.4,1.4,2.8c0.9,0.9,2.4,0.9,3.8,0.9s2.4-0.5,3.3-0.9
		c0.9-0.5,0.9-1.4,0.9-2.4c0-0.9-0.5-1.9-0.9-2.4C139.7,875.3,138.7,874.8,136.9,874.4z"/>
	<path fill="#FFFFFF" d="M150.6,883.3h-2.8v-20.8h2.8V883.3z"/>
	<path fill="#FFFFFF" d="M170.9,877.2c-0.5,2.4-0.9,3.8-2.4,5.2c-1.4,1.4-3.3,1.9-5.2,1.9c-2.4,0-4.3-0.9-5.7-2.8
		c-1.4-1.9-2.4-4.3-2.4-7.1v-1.9c0-1.9,0.5-3.8,0.9-5.2c0.5-1.4,1.9-2.4,2.8-3.3c1.4-0.9,2.8-0.9,4.3-0.9c2.4,0,3.8,0.5,5.2,1.9
		c1.4,1.4,1.9,2.8,2.4,5.2h-2.8c-0.5-1.4-0.9-2.8-1.4-3.8c-0.9-0.9-1.9-0.9-3.3-0.9c-1.9,0-3.3,0.5-4.3,1.9
		c-0.9,1.4-1.4,3.3-1.4,5.7v1.9c0,2.4,0.5,4.3,1.4,5.2c0.9,0.9,2.4,1.9,3.8,1.9c1.4,0,2.8-0.5,3.3-0.9c0.9-0.5,1.4-1.9,1.4-3.8
		L170.9,877.2L170.9,877.2z"/>
	<path fill="#FFFFFF" d="M190.8,873.9c0,1.9-0.5,3.8-0.9,5.2c-0.5,1.4-1.4,2.8-2.8,3.3c-1.4,0.9-2.8,1.4-4.3,1.4s-2.8-0.5-4.3-1.4
		s-2.4-1.9-2.8-3.3c-0.5-1.4-0.9-3.3-0.9-5.2v-1.4c0-1.9,0.5-3.8,0.9-5.2c0.5-1.4,1.9-2.8,2.8-3.3c1.4-0.9,2.8-1.4,4.3-1.4
		c1.9,0,3.3,0.5,4.3,1.4c1.4,0.9,2.4,1.9,2.8,3.3c0.5,1.4,0.9,3.3,0.9,5.2C190.8,872.5,190.8,873.9,190.8,873.9z M187.9,872.5
		c0-2.4-0.5-4.3-1.4-5.7c-0.9-1.4-2.4-1.9-4.3-1.9s-2.8,0.5-4.3,1.9c-0.9,1.4-1.4,3.3-1.4,5.7v1.4c0,2.4,0.5,4.3,1.4,5.7
		c0.9,1.4,2.4,1.9,4.3,1.9s3.3-0.5,4.3-1.9c0.9-1.4,1.4-3.3,1.4-5.7V872.5L187.9,872.5z"/>
	<path fill="#FFFFFF" d="M210.6,883.3h-2.8l-10.4-16.1v16.1h-2.8v-20.8h2.8l10.4,16.1v-16.1h2.8V883.3z"/>
	<path fill="#FFFFFF" d="M222,880l5.7-17h2.8l-7.6,20.8h-2.4L213,863h2.8L222,880z"/>
	<path fill="#FFFFFF" d="M139.7,916.8c0-1.2,0.2-2.2,0.5-3.2s0.7-2,1.2-2.7c0.5-0.7,1.2-1.5,1.7-1.7l0.2,1c-0.7,0.5-1.2,1.5-1.7,2.5
		c-0.5,1.2-0.7,2.5-0.7,3.7v0.7c0,2,0.2,3.5,1,5c0.5,0.7,1,1.5,1.5,2l-0.2,0.7c-0.7-0.2-1.2-1-2-1.7
		C140.4,921.3,139.7,919.3,139.7,916.8z"/>
	<path fill="#FFFFFF" d="M152.1,921.3h-7.2v-1l3.7-4.2c0.5-0.7,1-1.2,1.2-1.5c0.2-0.5,0.2-0.7,0.2-1.2c0-0.5-0.2-1-0.5-1.5
		c-0.2-0.2-0.7-0.5-1.5-0.5c-0.7,0-1.2,0.2-1.5,0.5c-0.5,0.5-0.5,1-0.5,1.7h-1.5c0-1,0.2-1.7,1-2.5c0.7-0.5,1.5-1,2.5-1
		c1,0,1.7,0.2,2.5,0.7c0.5,0.5,1,1.2,1,2.2s-0.7,2.2-2,3.7l-3,3.2h5.5L152.1,921.3L152.1,921.3z"/>
	<path fill="#FFFFFF" d="M160.4,916.5c0,1.7-0.2,2.7-0.7,3.5c-0.5,0.7-1.5,1.2-2.5,1.2c-1.2,0-2-0.5-2.5-1.2c-0.5-0.7-0.7-2-0.7-3.5
		v-1.7c0-1.5,0.2-2.7,0.7-3.5c0.5-0.7,1.5-1.2,2.5-1.2c1.2,0,2,0.2,2.5,1.2c0.5,0.7,0.7,2,0.7,3.5V916.5L160.4,916.5z M158.9,914.8
		c0-1.2-0.2-2-0.5-2.5c-0.2-0.5-0.7-0.7-1.5-0.7c-0.7,0-1.2,0.2-1.5,0.7s-0.5,1.2-0.5,2.5v2.2c0,1.2,0.2,2,0.5,2.5
		c0.2,0.5,0.7,0.7,1.5,0.7c0.7,0,1.2-0.2,1.5-0.7c0.2-0.5,0.5-1.2,0.5-2.5V914.8L158.9,914.8z"/>
	<path fill="#FFFFFF" d="M168.8,916.5c0,1.7-0.2,2.7-0.7,3.5c-0.5,0.7-1.5,1.2-2.5,1.2c-1.2,0-2-0.5-2.5-1.2s-0.7-2-0.7-3.5v-1.7
		c0-1.5,0.2-2.7,0.7-3.5c0.5-0.7,1.5-1.2,2.5-1.2c1.2,0,2,0.2,2.5,1.2c0.5,0.7,0.7,2,0.7,3.5V916.5L168.8,916.5z M167.6,914.8
		c0-1.2-0.2-2-0.5-2.5c-0.2-0.5-0.7-0.7-1.5-0.7s-1.2,0.2-1.5,0.7s-0.5,1.2-0.5,2.5v2.2c0,1.2,0.2,2,0.5,2.5
		c0.2,0.5,0.7,0.7,1.5,0.7s1.2-0.2,1.5-0.7c0.2-0.5,0.5-1.2,0.5-2.5V914.8L167.6,914.8z"/>
	<path fill="#FFFFFF" d="M176,916.5c-0.2,0.2-0.7,0.7-1,0.7c-0.5,0.2-0.7,0.2-1.2,0.2c-0.7,0-1.2-0.2-1.7-0.5
		c-0.5-0.2-0.7-0.7-1-1.2c-0.2-0.5-0.5-1.2-0.5-1.7c0-0.7,0.2-1.5,0.5-2c0.2-0.5,0.7-1,1.2-1.2c0.5-0.2,1-0.5,1.7-0.5
		c1,0,2,0.5,2.5,1.2c0.7,0.7,1,2,1,3.2v0.5c0,2-0.5,3.7-1.2,4.7s-2,1.5-3.7,1.5h-0.2v-1.2h0.2c1.2,0,2-0.2,2.7-1
		C175.5,918.5,175.8,917.8,176,916.5z M173.8,916.5c0.5,0,1-0.2,1.2-0.5c0.5-0.2,0.7-0.7,0.7-1v-0.7c0-1-0.2-1.7-0.5-2.2
		c-0.5-0.5-1-0.7-1.5-0.7c-0.5,0-1,0.2-1.5,0.7c-0.2,0.5-0.5,1-0.5,1.7c0,0.7,0.2,1.2,0.5,1.7C172.8,916.3,173.3,916.5,173.8,916.5z
		"/>
	<path fill="#FFFFFF" d="M182.3,917.3h-3.7v-1.2h3.7V917.3z"/>
	<path fill="#FFFFFF" d="M190.5,921.3h-7.2v-1l3.7-4.2c0.5-0.7,1-1.2,1.2-1.5c0.2-0.5,0.2-0.7,0.2-1.2c0-0.5-0.2-1-0.5-1.5
		c-0.2-0.2-0.7-0.5-1.5-0.5c-0.7,0-1.2,0.2-1.5,0.5c-0.5,0.5-0.5,1-0.5,1.7H183c0-1,0.2-1.7,1-2.5c0.7-0.5,1.5-1,2.5-1
		c1,0,1.7,0.2,2.5,0.7c0.5,0.5,1,1.2,1,2.2s-0.7,2.2-2,3.7l-3,3.2h5.5V921.3L190.5,921.3z"/>
	<path fill="#FFFFFF" d="M198.9,916.5c0,1.7-0.2,2.7-0.7,3.5c-0.5,0.7-1.5,1.2-2.5,1.2c-1.2,0-2-0.5-2.5-1.2c-0.5-0.7-0.7-2-0.7-3.5
		v-1.7c0-1.5,0.2-2.7,0.7-3.5c0.5-0.7,1.5-1.2,2.5-1.2c1.2,0,2,0.2,2.5,1.2c0.5,0.7,0.7,2,0.7,3.5V916.5L198.9,916.5z M197.4,914.8
		c0-1.2-0.2-2-0.5-2.5c-0.2-0.5-0.7-0.7-1.5-0.7s-1.2,0.2-1.5,0.7s-0.5,1.2-0.5,2.5v2.2c0,1.2,0.2,2,0.5,2.5
		c0.2,0.5,0.7,0.7,1.5,0.7s1.2-0.2,1.5-0.7c0.2-0.5,0.5-1.2,0.5-2.5V914.8L197.4,914.8z"/>
	<path fill="#FFFFFF" d="M205.2,921.3h-1.5v-9.2l-2.7,1v-1.2l4-1.5h0.2V921.3L205.2,921.3z"/>
	<path fill="#FFFFFF" d="M209.9,915.8l0.5-5.5h5.5v1.2h-4.5l-0.2,3c0.5-0.2,1.2-0.5,1.7-0.5c1,0,1.7,0.2,2.2,1c0.5,0.7,1,1.5,1,2.7
		c0,1.2-0.2,2-1,2.7c-0.5,0.7-1.5,1-2.5,1s-1.7-0.2-2.2-0.7c-0.5-0.5-1-1.2-1-2.2h1.2c0,0.7,0.2,1,0.7,1.5c0.2,0.2,0.7,0.5,1.5,0.5
		s1.2-0.2,1.5-0.7c0.2-0.5,0.5-1,0.5-1.7c0-0.7-0.2-1.2-0.5-1.7c-0.5-0.5-1-0.7-1.5-0.7c-0.5,0-1,0.2-1.5,0.5l-0.2,0.2L209.9,915.8z
		"/>
	<path fill="#FFFFFF" d="M221.1,916.8c0,1-0.2,2.2-0.5,3.2c-0.2,1-0.7,2-1.2,2.7c-0.5,0.7-1.2,1.5-2,1.7l-0.2-0.7
		c0.7-0.5,1.5-1.5,1.7-2.7c0.2-1.2,0.7-2.5,0.7-4.2l0,0c0-1,0-2-0.2-3c-0.2-1-0.5-1.7-1-2.5c-0.5-0.7-0.7-1.2-1.2-1.7l0.2-0.7
		c0.7,0.2,1.2,1,2,1.7c0.5,0.7,1,1.7,1.2,2.7C220.8,914.3,221.1,915.8,221.1,916.8z"/>
</g>
<g>
	<path fill="#FFFFFF" d="M294.1,874.3c-2.5-0.5-4.5-1.5-5.4-2.5c-1-1-1.5-2.5-1.5-4c0-1.5,0.5-3,2-4.5c1.5-1,3-1.5,5.4-1.5
		c1.5,0,3,0.5,4,1c1,0.5,2,1.5,2.5,2.5c0.5,1,1,2,1,3.5h-3c0-1.5-0.5-2.5-1.5-3c-1-0.5-2-1-3.5-1c-1.5,0-2.5,0.5-3.5,1
		c-1,0.5-1,1.5-1,2.5s0.5,1.5,1,2.5c0.5,0.5,2,1,4,1.5c2,0.5,3,1,4.5,1.5c1,0.5,2,1.5,2.5,2c0.5,1,0.5,2,0.5,3c0,2-0.5,3-2,4.5
		c-1.5,1-3,1.5-5.4,1.5c-1.5,0-3-0.5-4-1c-1.5-0.5-2.5-1.5-3-2.5c-0.5-1-1-2-1-3.5h3c0,1.5,0.5,2.5,1.5,3c1,1,2.5,1,4,1
		s2.5-0.5,3.5-1c1-0.5,1-1.5,1-2.5s-0.5-2-1-2.5C297.1,875.3,296.1,874.8,294.1,874.3z"/>
	<path fill="#FFFFFF" d="M308.4,883.7h-3v-21.8h3V883.7z"/>
	<path fill="#FFFFFF" d="M326.3,878.3h-8.9l-2,5.4h-3l8.4-21.8h2l8.4,21.8h-3L326.3,878.3z M317.8,875.8h7.4l-3.5-9.9L317.8,875.8z"
		/>
	<path fill="#FFFFFF" d="M346,874.3h-8.9v9.4h-3v-21.8h13.4v2.5h-10.4v7.4h8.9C346,871.8,346,874.3,346,874.3z"/>
	<path fill="#FFFFFF" d="M354,883.7h-3v-21.8h3V883.7z"/>
	<path fill="#FFFFFF" d="M281.6,916.8c0-1.2,0.2-2.2,0.5-3.2s0.7-2,1.2-2.7c0.5-0.7,1.2-1.5,1.7-1.7l0.2,1c-0.7,0.5-1.2,1.5-1.7,2.5
		c-0.5,1.2-0.7,2.5-0.7,3.7v0.7c0,2,0.2,3.5,1,5c0.5,0.7,1,1.5,1.5,2l-0.2,0.7c-0.7-0.2-1.2-1-2-1.7
		C282.3,921.3,281.6,919.3,281.6,916.8z"/>
	<path fill="#FFFFFF" d="M294,921.3h-7.2v-1l3.7-4.2c0.5-0.7,1-1.2,1.2-1.5c0.2-0.5,0.2-0.7,0.2-1.2c0-0.5-0.2-1-0.5-1.5
		c-0.2-0.2-0.7-0.5-1.5-0.5c-0.7,0-1.2,0.2-1.5,0.5c-0.5,0.5-0.5,1-0.5,1.7h-1.5c0-1,0.2-1.7,1-2.5c0.7-0.5,1.5-1,2.5-1
		c1,0,1.7,0.2,2.5,0.7c0.5,0.5,1,1.2,1,2.2s-0.7,2.2-2,3.7l-3,3.2h5.5V921.3L294,921.3z"/>
	<path fill="#FFFFFF" d="M302.3,916.5c0,1.7-0.2,2.7-0.7,3.5c-0.5,0.7-1.5,1.2-2.5,1.2c-1.2,0-2-0.5-2.5-1.2c-0.5-0.7-0.7-2-0.7-3.5
		v-1.7c0-1.5,0.2-2.7,0.7-3.5c0.5-0.7,1.5-1.2,2.5-1.2c1.2,0,2,0.2,2.5,1.2c0.5,0.7,0.7,2,0.7,3.5V916.5L302.3,916.5z M300.8,914.8
		c0-1.2-0.2-2-0.5-2.5c-0.2-0.5-0.7-0.7-1.5-0.7s-1.2,0.2-1.5,0.7s-0.5,1.2-0.5,2.5v2.2c0,1.2,0.2,2,0.5,2.5
		c0.2,0.5,0.7,0.7,1.5,0.7s1.2-0.2,1.5-0.7c0.2-0.5,0.5-1.2,0.5-2.5V914.8L300.8,914.8z"/>
	<path fill="#FFFFFF" d="M324.2,917.3h-3.7v-1.2h3.7V917.3z"/>
	<path fill="#FFFFFF" d="M332.4,921.3h-7.2v-1l3.7-4.2c0.5-0.7,1-1.2,1.2-1.5c0.2-0.5,0.2-0.7,0.2-1.2c0-0.5-0.2-1-0.5-1.5
		c-0.2-0.2-0.7-0.5-1.5-0.5c-0.7,0-1.2,0.2-1.5,0.5c-0.5,0.5-0.5,1-0.5,1.7h-1.5c0-1,0.2-1.7,1-2.5c0.7-0.5,1.5-1,2.5-1
		c1,0,1.7,0.2,2.5,0.7c0.5,0.5,1,1.2,1,2.2s-0.7,2.2-2,3.7l-3,3.2h5.5V921.3L332.4,921.3z"/>
	<path fill="#FFFFFF" d="M340.9,916.5c0,1.7-0.2,2.7-0.7,3.5s-1.5,1.2-2.5,1.2c-1.2,0-2-0.5-2.5-1.2s-0.7-2-0.7-3.5v-1.7
		c0-1.5,0.2-2.7,0.7-3.5c0.5-0.7,1.5-1.2,2.5-1.2c1.2,0,2,0.2,2.5,1.2c0.5,0.7,0.7,2,0.7,3.5V916.5L340.9,916.5z M339.4,914.8
		c0-1.2-0.2-2-0.5-2.5c-0.2-0.5-0.7-0.7-1.5-0.7c-0.7,0-1.2,0.2-1.5,0.7s-0.5,1.2-0.5,2.5v2.2c0,1.2,0.2,2,0.5,2.5
		c0.2,0.5,0.7,0.7,1.5,0.7s1.2-0.2,1.5-0.7c0.2-0.5,0.5-1.2,0.5-2.5V914.8L339.4,914.8z"/>
	<path fill="#FFFFFF" d="M347.1,921.3h-1.5v-9.2l-2.7,1v-1.2l4-1.5h0.2V921.3L347.1,921.3z"/>
	<path fill="#FFFFFF" d="M308.5,921.3H307v-9.2l-2.7,1v-1.2l4-1.5h0.2V921.3L308.5,921.3z"/>
	<path fill="#FFFFFF" d="M316.2,921.3h-1.5v-9.2l-2.7,1v-1.2l4-1.5h0.2V921.3L316.2,921.3z"/>
	<path fill="#FFFFFF" d="M351.8,915.8l0.5-5.5h5.5v1.2h-4.5l-0.2,3c0.5-0.2,1.2-0.5,1.7-0.5c1,0,1.7,0.2,2.2,1c0.5,0.7,1,1.5,1,2.7
		c0,1.2-0.2,2-1,2.7c-0.5,0.7-1.5,1-2.5,1s-1.7-0.2-2.2-0.7c-0.5-0.5-1-1.2-1-2.2h1.2c0,0.7,0.2,1,0.7,1.5c0.2,0.2,0.7,0.5,1.5,0.5
		c0.7,0,1.2-0.2,1.5-0.7c0.2-0.5,0.5-1,0.5-1.7c0-0.7-0.2-1.2-0.5-1.7c-0.5-0.5-1-0.7-1.5-0.7c-0.5,0-1,0.2-1.5,0.5l-0.2,0.2
		L351.8,915.8z"/>
	<path fill="#FFFFFF" d="M363,916.8c0,1-0.2,2.2-0.5,3.2c-0.2,1-0.7,2-1.2,2.7c-0.5,0.7-1.2,1.5-2,1.7l-0.2-0.7
		c0.7-0.5,1.5-1.5,1.7-2.7c0.2-1.2,0.7-2.5,0.7-4.2l0,0c0-1,0-2-0.2-3c-0.2-1-0.5-1.7-1-2.5c-0.5-0.7-0.7-1.2-1.2-1.7l0.2-0.7
		c0.7,0.2,1.2,1,2,1.7c0.5,0.7,1,1.7,1.2,2.7S363,915.8,363,916.8z"/>
</g>
<g>
	<path fill="#FFFFFF" d="M-141.4,899.9h-2.5v4.2h-1.5v-10.5h3.5c1.2,0,2,0.2,2.7,0.7c0.7,0.5,1,1.2,1,2.5c0,0.7-0.2,1.2-0.5,1.7
		c-0.2,0.5-0.7,0.7-1.5,1l2.5,4.5l0,0h-1.5L-141.4,899.9z M-143.9,898.9h2.2c0.7,0,1.2-0.2,1.7-0.5s0.5-0.7,0.5-1.5
		c0-0.7-0.2-1.2-0.5-1.5c-0.5-0.2-1-0.5-1.7-0.5h-2.2V898.9L-143.9,898.9z"/>
	<path fill="#FFFFFF" d="M-130.9,901.4c0-0.5-0.2-0.7-0.5-1.2c-0.2-0.2-0.7-0.5-1.5-0.7c-1-0.2-1.7-0.7-2.2-1.2
		c-0.5-0.5-0.7-1.2-0.7-2c0-0.7,0.2-1.5,0.7-2c0.5-0.5,1-0.7,2-1v-1.5h1v1.5c0.7,0,1.5,0.5,2,1s0.7,1.2,0.7,2.2h-1.2
		c0-0.7-0.2-1.2-0.5-1.7c-0.2-0.5-0.7-0.5-1.2-0.5s-1,0.2-1.2,0.5s-0.5,0.7-0.5,1.2c0,0.5,0.2,1,0.5,1.2c0.2,0.2,0.7,0.5,1.5,0.7
		s1.2,0.5,1.7,0.7c0.5,0.2,0.7,0.7,1,1c0.2,0.5,0.2,0.7,0.2,1.2c0,0.7-0.2,1.5-0.7,2s-1.2,0.7-2,1v1.5h-1v-1.5c-1,0-1.5-0.5-2.2-1
		c-0.5-0.5-0.7-1.2-0.7-2.2h1.2c0,0.7,0.2,1.2,0.5,1.5c0.2,0.2,0.7,0.5,1.5,0.5c0.7,0,1.2-0.2,1.5-0.5
		C-131.2,902.4-130.9,902.1-130.9,901.4z"/>
	<path fill="#FFFFFF" d="M-123.5,904.1h-1.2v-9l-2.7,1v-1.2l3.7-1.5h0.2V904.1z"/>
	<path fill="#FFFFFF" d="M-119.5,903.6c0-0.2,0-0.5,0.2-0.5c0.2-0.2,0.2-0.2,0.7-0.2c0.2,0,0.5,0,0.7,0.2c0.2,0.2,0.2,0.2,0.2,0.5
		c0,0.2,0,0.5-0.2,0.5c-0.2,0.2-0.2,0.2-0.7,0.2s-0.5,0-0.7-0.2C-119.5,903.9-119.5,903.6-119.5,903.6z"/>
	<path fill="#FFFFFF" d="M-108.8,894.4l-4.5,9.7h-1.5l4.5-9.5h-5.7v-1h7.2L-108.8,894.4L-108.8,894.4z"/>
	<path fill="#FFFFFF" d="M-100.8,899.6c0,1.5-0.2,2.7-0.7,3.5c-0.5,0.7-1.5,1.2-2.5,1.2c-1.2,0-2-0.5-2.5-1.2
		c-0.5-0.7-0.7-2-0.7-3.2v-1.7c0-1.5,0.2-2.7,0.7-3.5c0.5-0.7,1.5-1.2,2.5-1.2c1.2,0,2,0.2,2.5,1c0.5,0.7,0.7,1.7,0.7,3.5
		C-100.8,897.9-100.8,899.6-100.8,899.6z M-102.1,897.9c0-1.2-0.2-2-0.5-2.5c-0.2-0.5-0.7-0.7-1.5-0.7c-0.7,0-1.2,0.2-1.5,0.7
		c-0.2,0.5-0.5,1.2-0.5,2.5v2.2c0,1.2,0.2,2,0.5,2.5c0.2,0.5,0.7,0.7,1.5,0.7c0.7,0,1.2-0.2,1.5-0.7c0.2-0.5,0.5-1.2,0.5-2.5V897.9
		L-102.1,897.9z"/>
	<path fill="#FFFFFF" d="M-93.6,893.6v1.2h-0.2c-1,0-2,0.2-2.5,1c-0.7,0.5-1,1.5-1,2.5c0.5-0.7,1.2-1,2.2-1s1.7,0.2,2.2,1
		s0.7,1.5,0.7,2.5s-0.2,2-1,2.7c-0.5,0.7-1.5,1-2.5,1c-1,0-1.7-0.5-2.5-1.2c-0.7-0.7-1-1.7-1-3v-0.5c0-2,0.5-3.5,1.2-4.5
		C-96.8,894.1-95.6,893.6-93.6,893.6L-93.6,893.6L-93.6,893.6z M-95.6,898.4c-0.5,0-1,0.2-1.2,0.5c-0.5,0.2-0.7,0.7-0.7,1v0.5
		c0,1,0.2,1.5,0.5,2c0.5,0.5,1,0.7,1.5,0.7c0.5,0,1-0.2,1.5-0.7c0.2-0.5,0.5-1,0.5-1.7c0-0.7-0.2-1.2-0.5-1.7
		C-94.3,898.6-94.8,898.4-95.6,898.4z"/>
	<path fill="#FFFFFF" d="M-90.4,903.6c0-0.2,0-0.5,0.2-0.5c0.2-0.2,0.2-0.2,0.7-0.2c0.2,0,0.5,0,0.7,0.2c0.2,0.2,0.2,0.2,0.2,0.5
		c0,0.2,0,0.5-0.2,0.5c-0.2,0.2-0.2,0.2-0.7,0.2c-0.5,0-0.5,0-0.7-0.2C-90.4,903.9-90.4,903.6-90.4,903.6z"/>
	<path fill="#FFFFFF" d="M-82.4,904.1h-1.2v-9l-2.7,1v-1.2l3.7-1.5h0.2V904.1z"/>
	<path fill="#FFFFFF" d="M-71.4,894.4l-4.5,9.7h-1.5l4.5-9.5h-5.7v-1h7.2L-71.4,894.4L-71.4,894.4z"/>
	<path fill="#FFFFFF" d="M-63.5,896.4c0,0.5-0.2,1-0.5,1.5c-0.2,0.5-0.7,0.7-1.2,1c0.5,0.2,1,0.5,1.2,1s0.5,1,0.5,1.5
		c0,1-0.2,1.7-1,2.2c-0.5,0.5-1.5,0.7-2.5,0.7c-1,0-1.7-0.2-2.5-0.7c-0.5-0.5-1-1.2-1-2.2c0-0.5,0.2-1,0.5-1.5
		c0.2-0.5,0.7-0.7,1.2-1c-0.5-0.2-0.7-0.5-1-1c-0.2-0.5-0.5-1-0.5-1.5c0-1,0.2-1.5,0.7-2.2c0.5-0.5,1.2-0.7,2.2-0.7
		c1,0,1.7,0.2,2.2,0.7C-64,894.9-63.5,895.4-63.5,896.4z M-64.7,901.4c0-0.5-0.2-1-0.5-1.5c-0.5-0.2-0.7-0.5-1.5-0.5
		c-0.5,0-1,0.2-1.5,0.5c-0.2,0.2-0.5,0.7-0.5,1.5s0.2,1,0.5,1.5c0.2,0.2,0.7,0.5,1.5,0.5s1.2-0.2,1.5-0.5
		C-65,902.4-64.7,901.9-64.7,901.4z M-66.7,894.6c-0.5,0-1,0.2-1.2,0.5c-0.2,0.2-0.5,0.7-0.5,1.2c0,0.5,0.2,1,0.5,1.2
		c0.2,0.2,0.7,0.5,1.2,0.5s1-0.2,1.2-0.5c0.2-0.2,0.5-0.7,0.5-1.2c0-0.5-0.2-1-0.5-1.2C-65.7,894.6-66.2,894.6-66.7,894.6z"/>
	<path fill="#FFFFFF" d="M-61.5,903.6c0-0.2,0-0.5,0.2-0.5c0.2-0.2,0.2-0.2,0.7-0.2c0.5,0,0.5,0,0.7,0.2s0.2,0.2,0.2,0.5
		c0,0.2,0,0.5-0.2,0.5s-0.2,0.2-0.7,0.2c-0.5,0-0.5,0-0.7-0.2C-61.5,903.9-61.5,903.6-61.5,903.6z"/>
	<path fill="#FFFFFF" d="M-52.5,899.6c-0.2,0.2-0.5,0.5-1,0.7c-0.5,0.2-0.7,0.2-1.2,0.2c-0.5,0-1.2-0.2-1.5-0.5
		c-0.5-0.2-0.7-0.7-1-1.2c-0.2-0.5-0.2-1.2-0.2-1.7c0-0.7,0.2-1.2,0.5-2c0.2-0.7,0.7-1,1.2-1.2c0.5-0.2,1-0.5,1.7-0.5
		c1,0,2,0.5,2.5,1.2c0.5,0.7,1,1.7,1,3.2v0.5c0,2-0.5,3.5-1.2,4.5c-0.7,1-2,1.5-3.7,1.5h-0.2v-1.2h0.2c1,0,2-0.2,2.5-0.7
		C-53,901.6-52.5,900.9-52.5,899.6z M-54.8,899.6c0.5,0,0.7-0.2,1.2-0.5c0.5-0.2,0.7-0.5,0.7-1v-0.5c0-1-0.2-1.5-0.5-2.2
		c-0.2-0.7-0.7-0.7-1.5-0.7c-0.5,0-1,0.2-1.5,0.7c-0.5,0.5-0.5,1-0.5,1.7c0,0.7,0.2,1.2,0.5,1.7C-55.8,899.4-55.3,899.6-54.8,899.6z
		"/>
	<path fill="#FFFFFF" d="M-42.8,899.6c0,1.5-0.2,2.7-0.7,3.5c-0.5,0.7-1.5,1.2-2.5,1.2c-1.2,0-2-0.5-2.5-1.2s-0.7-2-0.7-3.2v-1.7
		c0-1.5,0.2-2.7,0.7-3.5c0.5-0.7,1.5-1.2,2.5-1.2c1.2,0,2,0.2,2.5,1c0.5,0.7,0.7,1.7,0.7,3.5C-42.8,897.9-42.8,899.6-42.8,899.6z
		 M-44.1,897.9c0-1.2-0.2-2-0.5-2.5c-0.2-0.5-0.7-0.7-1.5-0.7c-0.7,0-1.2,0.2-1.5,0.7s-0.5,1.2-0.5,2.5v2.2c0,1.2,0.2,2,0.5,2.5
		c0.2,0.5,0.7,0.7,1.5,0.7c0.7,0,1.2-0.2,1.5-0.7c0.2-0.5,0.5-1.2,0.5-2.5V897.9L-44.1,897.9z"/>
	<path fill="#FFFFFF" d="M-35.8,899.6c-0.2,0.2-0.5,0.5-1,0.7c-0.5,0.2-0.7,0.2-1.2,0.2c-0.5,0-1.2-0.2-1.5-0.5
		c-0.5-0.2-0.7-0.7-1-1.2c-0.2-0.5-0.2-1.2-0.2-1.7c0-0.7,0.2-1.2,0.5-2c0.2-0.7,0.7-1,1.2-1.2c0.5-0.2,1-0.5,1.7-0.5
		c1,0,2,0.5,2.5,1.2c0.5,0.7,1,1.7,1,3.2v0.5c0,2-0.5,3.5-1.2,4.5c-0.7,1-2,1.5-3.7,1.5h-0.2v-1.2h0.2c1,0,2-0.2,2.5-0.7
		C-36.3,901.6-35.8,900.9-35.8,899.6z M-37.8,899.6c0.5,0,0.7-0.2,1.2-0.5c0.5-0.2,0.7-0.5,0.7-1v-0.5c0-1-0.2-1.5-0.5-2.2
		c-0.2-0.7-0.7-0.7-1.5-0.7c-0.5,0-1,0.2-1.5,0.7c-0.5,0.5-0.5,1-0.5,1.7c0,0.7,0.2,1.2,0.5,1.7C-39.1,899.4-38.6,899.6-37.8,899.6z
		"/>
</g>
<g>
	<path fill="#FFFFFF" d="M-7.7,898.1h-2.5v4.2h-1.5v-10.5h3.5c1.2,0,2,0.2,2.7,0.7c0.7,0.5,1,1.2,1,2.5c0,0.7-0.2,1.2-0.5,1.7
		c-0.2,0.5-0.7,0.7-1.5,1l2.5,4.5l0,0h-1.5L-7.7,898.1z M-10.2,897.1H-8c0.7,0,1.2-0.2,1.7-0.5s0.5-0.7,0.5-1.5
		c0-0.7-0.2-1.2-0.5-1.5c-0.5-0.2-1-0.5-1.7-0.5h-2.2V897.1L-10.2,897.1z"/>
	<path fill="#FFFFFF" d="M2.5,899.6c0-0.5-0.2-0.7-0.5-1.2c-0.2-0.2-0.7-0.5-1.5-0.7c-1-0.2-1.7-0.7-2.2-1.2c-0.5-0.5-0.7-1.2-0.7-2
		s0.2-1.5,0.7-2c0.5-0.5,1-0.7,2-1v-1.5h1v1.5c0.7,0,1.5,0.5,2,1c0.5,0.5,0.7,1.2,0.7,2.2H2.8c0-0.7-0.2-1.2-0.5-1.7
		c-0.2-0.5-0.7-0.5-1.2-0.5s-1,0.2-1.2,0.5c-0.2,0.2-0.5,0.7-0.5,1.2c0,0.5,0.2,1,0.5,1.2s0.7,0.5,1.5,0.7c0.7,0.2,1.2,0.5,1.7,0.7
		c0.5,0.2,0.7,0.7,1,1c0.2,0.5,0.2,0.7,0.2,1.2c0,0.7-0.2,1.5-0.7,2c-0.5,0.5-1.2,0.7-2,1v1.5h-1v-1.5c-1,0-1.5-0.5-2.2-1
		c-0.5-0.5-0.7-1.2-0.7-2.2h1.2c0,0.7,0.2,1.2,0.5,1.5c0.2,0.2,0.7,0.5,1.5,0.5c0.7,0,1.2-0.2,1.5-0.5
		C2.3,900.6,2.5,900.4,2.5,899.6z"/>
	<path fill="#FFFFFF" d="M12.5,902.4h-7v-1l3.7-4c0.5-0.5,1-1,1.2-1.5c0.2-0.5,0.2-0.7,0.2-1.2s-0.2-1-0.5-1.2
		c-0.2-0.2-0.7-0.5-1.2-0.5c-0.7,0-1.2,0.2-1.5,0.5c-0.2,0.5-0.5,1-0.5,1.5H5.7c0-1,0.2-1.7,1-2.2s1.5-1,2.5-1s1.7,0.2,2.2,0.7
		c0.5,0.5,0.7,1.2,0.7,2c0,1-0.7,2.2-2,3.7l-2.7,3h5.2C12.5,901.4,12.5,902.4,12.5,902.4z"/>
	<path fill="#FFFFFF" d="M14,901.9c0-0.2,0-0.5,0.2-0.5c0.2-0.2,0.2-0.2,0.7-0.2c0.5,0,0.5,0,0.7,0.2c0.2,0.2,0.2,0.2,0.2,0.5
		s0,0.5-0.2,0.5s-0.2,0.2-0.7,0.2c-0.5,0-0.5,0-0.7-0.2C14.2,902.1,14,901.9,14,901.9z"/>
	<path fill="#FFFFFF" d="M24.2,894.6c0,0.5-0.2,1-0.5,1.5c-0.2,0.5-0.7,0.7-1.2,1c0.5,0.2,1,0.5,1.2,1c0.2,0.5,0.5,1,0.5,1.5
		c0,1-0.2,1.7-1,2.2c-0.5,0.5-1.5,0.7-2.5,0.7c-1,0-1.7-0.2-2.5-0.7c-0.5-0.5-1-1.2-1-2.2c0-0.5,0.2-1,0.5-1.5
		c0.2-0.5,0.7-0.7,1.2-1c-0.5-0.2-0.7-0.5-1-1c-0.2-0.5-0.5-1-0.5-1.5c0-1,0.2-1.5,0.7-2.2c0.5-0.5,1.2-0.7,2.2-0.7
		c1,0,1.7,0.2,2.2,0.7C23.9,893.1,24.2,893.6,24.2,894.6z M23.2,899.6c0-0.5-0.2-1-0.5-1.5c-0.5-0.2-0.7-0.5-1.5-0.5
		c-0.5,0-1,0.2-1.5,0.5c-0.2,0.2-0.5,0.7-0.5,1.5s0.2,1,0.5,1.5c0.2,0.5,0.7,0.5,1.5,0.5c0.7,0,1.2-0.2,1.5-0.5
		C22.9,900.6,23.2,900.1,23.2,899.6z M21.2,892.9c-0.5,0-1,0.2-1.2,0.5c-0.2,0.2-0.5,0.7-0.5,1.2s0.2,1,0.5,1.2
		c0.2,0.2,0.7,0.5,1.2,0.5c0.5,0,1-0.2,1.2-0.5c0.2-0.2,0.5-0.7,0.5-1.2s-0.2-1-0.5-1.2C21.9,892.9,21.7,892.9,21.2,892.9z"/>
	<path fill="#FFFFFF" d="M32.9,897.9c0,1.5-0.2,2.7-0.7,3.5c-0.5,0.7-1.5,1.2-2.5,1.2c-1.2,0-2-0.5-2.5-1.2c-0.5-0.7-0.7-2-0.7-3.2
		v-1.7c0-1.5,0.2-2.7,0.7-3.5c0.5-0.7,1.5-1.2,2.5-1.2c1.2,0,2,0.2,2.5,1c0.5,0.7,0.7,1.7,0.7,3.5V897.9z M31.4,896.1
		c0-1.2-0.2-2-0.5-2.5c-0.2-0.5-0.7-0.7-1.5-0.7c-0.7,0-1.2,0.2-1.5,0.7c-0.2,0.5-0.5,1.2-0.5,2.5v2.2c0,1.2,0.2,2,0.5,2.5
		s0.7,0.7,1.5,0.7c0.7,0,1.2-0.2,1.5-0.7c0.2-0.5,0.5-1.2,0.5-2.5V896.1L31.4,896.1z"/>
	<path fill="#FFFFFF" d="M41.1,897.9c0,1.5-0.2,2.7-0.7,3.5c-0.5,0.7-1.5,1.2-2.5,1.2c-1.2,0-2-0.5-2.5-1.2c-0.5-0.7-0.7-2-0.7-3.2
		v-1.7c0-1.5,0.2-2.7,0.7-3.5c0.5-0.7,1.5-1.2,2.5-1.2c1.2,0,2,0.2,2.5,1c0.5,0.7,0.7,1.7,0.7,3.5V897.9z M39.9,896.1
		c0-1.2-0.2-2-0.5-2.5c-0.2-0.5-0.7-0.7-1.5-0.7c-0.7,0-1.2,0.2-1.5,0.7c-0.2,0.5-0.5,1.2-0.5,2.5v2.2c0,1.2,0.2,2,0.5,2.5
		s0.7,0.7,1.5,0.7c0.7,0,1.2-0.2,1.5-0.7c0.2-0.5,0.5-1.2,0.5-2.5V896.1L39.9,896.1z"/>
	<path fill="#FFFFFF" d="M43.1,901.9c0-0.2,0-0.5,0.2-0.5c0.2-0.2,0.2-0.2,0.7-0.2s0.5,0,0.7,0.2c0.2,0.2,0.2,0.2,0.2,0.5
		s0,0.5-0.2,0.5c-0.2,0-0.2,0.2-0.7,0.2s-0.5,0-0.7-0.2C43.1,902.1,43.1,901.9,43.1,901.9z"/>
	<path fill="#FFFFFF" d="M53.5,897.9c0,1.5-0.2,2.7-0.7,3.5c-0.5,0.7-1.5,1.2-2.5,1.2c-1.2,0-2-0.5-2.5-1.2c-0.5-0.7-0.7-2-0.7-3.2
		v-1.7c0-1.5,0.2-2.7,0.7-3.5c0.5-0.7,1.5-1.2,2.5-1.2c1.2,0,2,0.2,2.5,1c0.5,0.7,0.7,1.7,0.7,3.5V897.9z M52,896.1
		c0-1.2-0.2-2-0.5-2.5s-0.7-0.7-1.5-0.7c-0.7,0-1.2,0.2-1.5,0.7c-0.2,0.5-0.5,1.2-0.5,2.5v2.2c0,1.2,0.2,2,0.5,2.5
		c0.2,0.5,0.7,0.7,1.5,0.7c0.7,0,1.2-0.2,1.5-0.7c0.2-0.5,0.5-1.2,0.5-2.5V896.1L52,896.1z"/>
	<path fill="#FFFFFF" d="M62,902.4h-7v-1l3.7-4c0.5-0.5,1-1,1.2-1.5c0.2-0.5,0.2-0.7,0.2-1.2s-0.2-1-0.5-1.2
		c-0.2-0.2-0.7-0.5-1.2-0.5c-0.7,0-1.2,0.2-1.5,0.5c-0.2,0.5-0.5,1-0.5,1.5h-1.2c0-1,0.2-1.7,1-2.2c0.7-0.5,1.5-1,2.5-1
		c1,0,1.7,0.2,2.2,0.7c0.5,0.5,0.7,1.2,0.7,2c0,1-0.7,2.2-2,3.7l-2.7,3h5.2C62,901.4,62,902.4,62,902.4z"/>
	<path fill="#FFFFFF" d="M70.5,902.4h-7v-1l3.7-4c0.5-0.5,1-1,1.2-1.5c0.2-0.5,0.2-0.7,0.2-1.2s-0.2-1-0.5-1.2
		c-0.2-0.2-0.7-0.5-1.2-0.5c-0.7,0-1.2,0.2-1.5,0.5c-0.2,0.5-0.5,1-0.5,1.5h-1.2c0-1,0.2-1.7,1-2.2s1.5-1,2.5-1s1.7,0.2,2.2,0.7
		c0.5,0.5,0.7,1.2,0.7,2c0,1-0.7,2.2-2,3.7l-2.7,3h5.2C70.5,901.4,70.5,902.4,70.5,902.4z"/>
	<path fill="#FFFFFF" d="M72,901.9c0-0.2,0-0.5,0.2-0.5c0.2-0.2,0.2-0.2,0.7-0.2c0.5,0,0.5,0,0.7,0.2c0.2,0.2,0.2,0.2,0.2,0.5
		s0,0.5-0.2,0.5s-0.2,0.2-0.7,0.2c-0.5,0-0.5,0-0.7-0.2C72.2,902.1,72,901.9,72,901.9z"/>
	<path fill="#FFFFFF" d="M82.7,892.6l-4.5,9.7h-1.2l4.5-9.5h-5.7v-1h7.2L82.7,892.6L82.7,892.6z"/>
	<path fill="#FFFFFF" d="M89.9,898.9h1.5v1h-1.5v2.5h-1.2v-2.5h-4.7v-0.7l4.7-7.2h1.5v7H89.9z M85.2,898.9h3.2v-5.2l-0.2,0.2
		L85.2,898.9z"/>
	<path fill="#FFFFFF" d="M97.6,897.9c-0.2,0.2-0.5,0.5-1,0.7s-0.7,0.2-1.2,0.2s-1.2-0.2-1.5-0.5c-0.5-0.2-0.7-0.7-1-1.2
		c-0.2-0.5-0.2-1.2-0.2-1.7c0-0.7,0.2-1.2,0.5-2c0.2-0.7,0.7-1,1.2-1.2s1-0.5,1.7-0.5c1,0,2,0.5,2.5,1.2s1,1.7,1,3.2v0.5
		c0,2-0.5,3.5-1.2,4.5s-2,1.5-3.7,1.5h-0.2v-1.2h0.2c1,0,2-0.2,2.5-0.7C97.4,899.9,97.6,899.1,97.6,897.9z M95.6,897.9
		c0.5,0,0.7-0.2,1.2-0.5s0.7-0.5,0.7-1v-0.5c0-1-0.2-1.5-0.5-2.2c-0.2-0.7-0.7-0.7-1.5-0.7c-0.5,0-1,0.2-1.5,0.7
		c-0.5,0.5-0.5,1-0.5,1.7c0,0.7,0.2,1.2,0.5,1.7C94.6,897.6,95.1,897.9,95.6,897.9z"/>
</g>
<g>
	<path fill="#FFFFFF" d="M128.2,898.1h-2.5v4.2h-1.5v-10.5h3.5c1.2,0,2,0.2,2.7,0.7c0.7,0.5,1,1.2,1,2.5c0,0.7-0.2,1.2-0.5,1.7
		c-0.2,0.5-0.7,0.7-1.5,1l2.5,4.5l0,0h-1.5L128.2,898.1z M125.7,897.1h2.2c0.7,0,1.2-0.2,1.7-0.5c0.5-0.2,0.5-0.7,0.5-1.5
		c0-0.7-0.2-1.2-0.5-1.5c-0.5-0.2-1-0.5-1.7-0.5h-2.2V897.1z"/>
	<path fill="#FFFFFF" d="M138.4,899.6c0-0.5-0.2-0.7-0.5-1.2c-0.2-0.2-0.7-0.5-1.5-0.7c-1-0.2-1.7-0.7-2.2-1.2s-0.7-1.2-0.7-2
		s0.2-1.5,0.7-2c0.5-0.5,1-0.7,2-1v-1.5h1v1.5c0.7,0,1.5,0.5,2,1c0.5,0.5,0.7,1.2,0.7,2.2h-1.2c0-0.7-0.2-1.2-0.5-1.7
		c-0.2-0.5-0.7-0.5-1.2-0.5s-1,0.2-1.2,0.5c-0.2,0.2-0.5,0.7-0.5,1.2c0,0.5,0.2,1,0.5,1.2s0.7,0.5,1.5,0.7c0.7,0.2,1.2,0.5,1.7,0.7
		c0.5,0.2,0.7,0.7,1,1c0.2,0.5,0.2,0.7,0.2,1.2c0,0.7-0.2,1.5-0.7,2c-0.5,0.5-1.2,0.7-2,1v1.5h-1v-1.5c-1,0-1.5-0.5-2.2-1
		c-0.5-0.5-0.7-1.2-0.7-2.2h1.2c0,0.7,0.2,1.2,0.5,1.5c0.2,0.2,0.7,0.5,1.5,0.5s1.2-0.2,1.5-0.5
		C138.4,900.6,138.4,900.4,138.4,899.6z"/>
	<path fill="#FFFFFF" d="M147.2,898.9h1.5v1h-1.5v2.5h-1.2v-2.5h-4.7v-0.7l4.7-7.2h1.5L147.2,898.9L147.2,898.9z M142.7,898.9h3.2
		v-5.2l-0.2,0.2L142.7,898.9z"/>
	<path fill="#FFFFFF" d="M150.1,901.9c0-0.2,0-0.5,0.2-0.5c0.2-0.2,0.2-0.2,0.5-0.2c0.2,0,0.5,0,0.7,0.2c0.2,0.2,0.2,0.2,0.2,0.5
		s0,0.5-0.2,0.5s-0.2,0.2-0.7,0.2c-0.2,0-0.5,0-0.5-0.2C150.1,902.1,150.1,901.9,150.1,901.9z"/>
	<path fill="#FFFFFF" d="M155.9,896.4h1c0.7,0,1.2-0.2,1.5-0.5c0.2-0.2,0.5-0.7,0.5-1.2c0-1.2-0.5-1.7-1.7-1.7c-0.5,0-1,0.2-1.5,0.5
		c-0.2,0.2-0.5,0.7-0.5,1.2h-1.2c0-0.7,0.2-1.5,1-2c0.5-0.5,1.5-0.7,2.2-0.7c1,0,1.7,0.2,2.2,0.7s0.7,1.2,0.7,2.2
		c0,0.5-0.2,1-0.5,1.2c-0.2,0.5-0.7,0.7-1.2,1c0.5,0.2,1,0.5,1.2,1s0.5,1,0.5,1.5c0,1-0.2,1.7-1,2.2c-0.5,0.5-1.5,0.7-2.5,0.7
		c-1,0-1.7-0.2-2.5-0.7c-0.7-0.5-1-1.2-1-2.2h1.2c0,0.5,0.2,1,0.5,1.2c0.2,0.2,0.7,0.5,1.5,0.5c0.7,0,1.2-0.2,1.5-0.5
		c0.2-0.2,0.5-0.7,0.5-1.5c0-0.5-0.2-1-0.5-1.5c-0.5-0.2-1-0.5-1.7-0.5h-1L155.9,896.4L155.9,896.4z"/>
	<path fill="#FFFFFF" d="M168.6,894.6c0,0.5-0.2,1-0.5,1.5c-0.2,0.5-0.7,0.7-1.2,1c0.5,0.2,1,0.5,1.2,1c0.2,0.5,0.5,1,0.5,1.5
		c0,1-0.2,1.7-1,2.2c-0.5,0.5-1.5,0.7-2.5,0.7c-1,0-1.7-0.2-2.5-0.7c-0.5-0.5-1-1.2-1-2.2c0-0.5,0.2-1,0.5-1.5
		c0.2-0.5,0.7-0.7,1.2-1c-0.5-0.2-0.7-0.5-1-1c-0.2-0.5-0.5-1-0.5-1.5c0-1,0.2-1.5,0.7-2.2c0.5-0.5,1.2-0.7,2.2-0.7
		c1,0,1.7,0.2,2.2,0.7C168.3,893.1,168.6,893.6,168.6,894.6z M167.6,899.6c0-0.5-0.2-1-0.5-1.5c-0.2-0.2-0.7-0.5-1.5-0.5
		c-0.5,0-1,0.2-1.5,0.5c-0.2,0.2-0.5,0.7-0.5,1.5s0.2,1,0.5,1.5c0.2,0.2,0.7,0.5,1.5,0.5s1.2-0.2,1.5-0.5
		C167.3,900.6,167.6,900.1,167.6,899.6z M165.6,892.9c-0.5,0-1,0.2-1.2,0.5c-0.2,0.2-0.5,0.7-0.5,1.2s0.2,1,0.5,1.2
		c0.2,0.2,0.7,0.5,1.2,0.5s1-0.2,1.2-0.5c0.2-0.2,0.5-0.7,0.5-1.2s-0.2-1-0.5-1.2C166.3,892.9,166.1,892.9,165.6,892.9z"/>
	<path fill="#FFFFFF" d="M175.8,891.9v1.2h-0.2c-1,0-2,0.2-2.5,1c-0.7,0.5-1,1.5-1,2.5c0.5-0.7,1.2-1,2.2-1c1,0,1.7,0.2,2.2,1
		s0.7,1.5,0.7,2.5s-0.2,2-1,2.7c-0.5,0.7-1.5,1-2.5,1c-1,0-1.7-0.5-2.5-1.2c-0.7-0.7-1-1.7-1-3v-0.5c0-2,0.5-3.5,1.2-4.5
		C172.8,892.4,173.8,891.9,175.8,891.9L175.8,891.9L175.8,891.9z M174,896.6c-0.5,0-1,0.2-1.2,0.5c-0.5,0.2-0.7,0.7-0.7,1v0.5
		c0,1,0.2,1.5,0.5,2c0.5,0.5,1,0.7,1.5,0.7c0.5,0,1-0.2,1.5-0.7c0.2-0.5,0.5-1,0.5-1.7c0-0.7-0.2-1.2-0.5-1.7
		C175,896.9,174.5,896.6,174,896.6z"/>
	<path fill="#FFFFFF" d="M179,901.9c0-0.2,0-0.5,0.2-0.5c0.2-0.2,0.2-0.2,0.5-0.2s0.5,0,0.7,0.2c0.2,0.2,0.2,0.2,0.2,0.5
		s0,0.5-0.2,0.5s-0.2,0.2-0.7,0.2c-0.2,0-0.5,0-0.5-0.2C179,902.1,179,901.9,179,901.9z"/>
	<path fill="#FFFFFF" d="M189.7,892.6l-4.5,9.7h-1.5l4.5-9.5h-5.7v-1h7.2L189.7,892.6L189.7,892.6z"/>
	<path fill="#FFFFFF" d="M197.7,894.6c0,0.5-0.2,1-0.5,1.5c-0.2,0.5-0.7,0.7-1.2,1c0.5,0.2,1,0.5,1.2,1c0.2,0.5,0.5,1,0.5,1.5
		c0,1-0.2,1.7-1,2.2c-0.5,0.5-1.5,0.7-2.5,0.7s-1.7-0.2-2.5-0.7c-0.5-0.5-1-1.2-1-2.2c0-0.5,0.2-1,0.5-1.5c0.2-0.5,0.7-0.7,1.2-1
		c-0.5-0.2-0.7-0.5-1-1c-0.2-0.5-0.5-1-0.5-1.5c0-1,0.2-1.5,0.7-2.2c0.5-0.5,1.2-0.7,2.2-0.7c1,0,1.7,0.2,2.2,0.7
		C197.2,893.1,197.7,893.6,197.7,894.6z M196.5,899.6c0-0.5-0.2-1-0.5-1.5c-0.2-0.2-0.7-0.5-1.5-0.5c-0.5,0-1,0.2-1.5,0.5
		c-0.2,0.2-0.5,0.7-0.5,1.5s0.2,1,0.5,1.5c0.2,0.2,0.7,0.5,1.5,0.5s1.2-0.2,1.5-0.5C196.2,900.6,196.5,900.1,196.5,899.6z
		 M194.5,892.9c-0.5,0-1,0.2-1.2,0.5c-0.2,0.2-0.5,0.7-0.5,1.2s0.2,1,0.5,1.2c0.2,0.2,0.7,0.5,1.2,0.5s1-0.2,1.2-0.5
		c0.2-0.2,0.5-0.7,0.5-1.2s-0.2-1-0.5-1.2C195.5,892.9,195,892.9,194.5,892.9z"/>
	<path fill="#FFFFFF" d="M205.9,894.6c0,0.5-0.2,1-0.5,1.5c-0.2,0.5-0.7,0.7-1.2,1c0.5,0.2,1,0.5,1.2,1c0.2,0.5,0.5,1,0.5,1.5
		c0,1-0.2,1.7-1,2.2c-0.5,0.5-1.5,0.7-2.5,0.7c-1,0-1.7-0.2-2.5-0.7c-0.5-0.5-1-1.2-1-2.2c0-0.5,0.2-1,0.5-1.5s0.7-0.7,1.2-1
		c-0.5-0.2-0.7-0.5-1-1c-0.2-0.5-0.5-1-0.5-1.5c0-1,0.2-1.5,0.7-2.2c0.5-0.5,1.2-0.7,2.2-0.7s1.7,0.2,2.2,0.7
		C205.7,893.1,205.9,893.6,205.9,894.6z M204.9,899.6c0-0.5-0.2-1-0.5-1.5c-0.5-0.2-0.7-0.5-1.5-0.5s-1,0.2-1.5,0.5
		c-0.2,0.2-0.5,0.7-0.5,1.5s0.2,1,0.5,1.5c0.2,0.2,0.7,0.5,1.5,0.5s1.2-0.2,1.5-0.5C204.7,900.6,204.9,900.1,204.9,899.6z
		 M202.9,892.9c-0.5,0-1,0.2-1.2,0.5c-0.2,0.2-0.5,0.7-0.5,1.2s0.2,1,0.5,1.2c0.2,0.2,0.7,0.5,1.2,0.5c0.5,0,1-0.2,1.2-0.5
		c0.2-0.2,0.5-0.7,0.5-1.2s-0.2-1-0.5-1.2C203.7,892.9,203.4,892.9,202.9,892.9z"/>
	<path fill="#FFFFFF" d="M208.2,901.9c0-0.2,0-0.5,0.2-0.5c0.2-0.2,0.2-0.2,0.5-0.2c0.2,0,0.5,0,0.7,0.2c0.2,0.2,0.2,0.2,0.2,0.5
		s0,0.5-0.2,0.5c-0.2,0-0.2,0.2-0.7,0.2c-0.2,0-0.5,0-0.5-0.2C208.2,902.1,208.2,901.9,208.2,901.9z"/>
	<path fill="#FFFFFF" d="M213.6,896.4h1c0.7,0,1.2-0.2,1.5-0.5c0.2-0.2,0.5-0.7,0.5-1.2c0-1.2-0.5-1.7-1.7-1.7c-0.5,0-1,0.2-1.5,0.5
		c-0.2,0.2-0.5,0.7-0.5,1.2h-1.2c0-0.7,0.2-1.5,1-2c0.5-0.5,1.5-0.7,2.2-0.7c1,0,1.7,0.2,2.2,0.7c0.5,0.5,0.7,1.2,0.7,2.2
		c0,0.5-0.2,1-0.5,1.2c-0.2,0.5-0.7,0.7-1.2,1c0.5,0.2,1,0.5,1.2,1c0.2,0.5,0.5,1,0.5,1.5c0,1-0.2,1.7-1,2.2
		c-0.7,0.5-1.5,0.7-2.5,0.7c-1,0-1.7-0.2-2.5-0.7c-0.7-0.5-1-1.2-1-2.2h1.2c0,0.5,0.2,1,0.5,1.2c0.2,0.2,0.7,0.5,1.5,0.5
		s1.2-0.2,1.5-0.5c0.2-0.2,0.5-0.7,0.5-1.5c0-0.5-0.2-1-0.5-1.5c-0.5-0.2-1-0.5-1.7-0.5h-1L213.6,896.4L213.6,896.4z"/>
	<path fill="#FFFFFF" d="M220.8,897.1l0.5-5.2h5.5v1.2h-4.2l-0.2,3c0.5-0.2,1-0.5,1.7-0.5c1,0,1.7,0.2,2.2,1
		c0.5,0.7,0.7,1.5,0.7,2.5s-0.2,2-1,2.5c-0.5,0.7-1.5,1-2.5,1s-1.7-0.2-2.2-0.7c-0.5-0.5-1-1.2-1-2.2h1.2c0,0.5,0.2,1,0.7,1.2
		c0.2,0.2,0.7,0.5,1.5,0.5s1-0.2,1.5-0.7c0.2-0.5,0.5-1,0.5-1.7c0-0.7-0.2-1.2-0.5-1.7c-0.5-0.5-1-0.7-1.5-0.7c-0.5,0-1,0.2-1.5,0.5
		l-0.2,0.2L220.8,897.1z"/>
	<path fill="#FFFFFF" d="M234.3,898.9h1.5v1h-1.5v2.5H233v-2.5h-4.7v-0.7l4.7-7.2h1.5L234.3,898.9L234.3,898.9z M229.6,898.9h3.2
		v-5.2l-0.2,0.2L229.6,898.9z"/>
</g>
<g>
	<path fill="#FFFFFF" d="M263.4,898.1h-2.5v4.2h-1.5v-10.5h3.5c1.2,0,2,0.2,2.7,0.7c0.7,0.5,1,1.2,1,2.5c0,0.7-0.2,1.2-0.5,1.7
		c-0.2,0.5-0.7,0.7-1.5,1l2.5,4.5l0,0h-1.2L263.4,898.1z M260.9,897.1h2.2c0.7,0,1.2-0.2,1.7-0.5c0.5-0.2,0.5-0.7,0.5-1.5
		c0-0.7-0.2-1.2-0.5-1.5c-0.5-0.2-1-0.5-1.7-0.5h-2.2V897.1z"/>
	<path fill="#FFFFFF" d="M273.9,899.6c0-0.5-0.2-0.7-0.5-1.2c-0.2-0.2-0.7-0.5-1.5-0.7c-1-0.2-1.7-0.7-2.2-1.2
		c-0.5-0.5-0.7-1.2-0.7-2s0.2-1.5,0.7-2c0.5-0.5,1-0.7,2-1v-1.5h1v1.5c0.7,0,1.5,0.5,2,1c0.5,0.5,0.7,1.2,0.7,2.2h-1.7
		c0-0.7-0.2-1.2-0.5-1.7c-0.2-0.5-0.7-0.5-1.2-0.5s-1,0.2-1.2,0.5c-0.2,0.2-0.5,0.7-0.5,1.2c0,0.5,0.2,1,0.5,1.2s0.7,0.5,1.5,0.7
		c0.7,0.2,1.2,0.5,1.7,0.7c0.5,0.2,0.7,0.7,1,1c0.2,0.5,0.2,0.7,0.2,1.2c0,0.7-0.2,1.5-0.7,2c-0.5,0.5-1.2,0.7-2,1v1.5h-1.2v-1.5
		c-1,0-1.5-0.5-2.2-1c-0.5-0.5-0.7-1.2-0.7-2.2h1.2c0,0.7,0.2,1.2,0.5,1.5c0.2,0.2,0.7,0.5,1.5,0.5c0.7,0,1.2-0.2,1.5-0.5
		C273.6,900.6,273.9,900.4,273.9,899.6z"/>
	<path fill="#FFFFFF" d="M278.9,896.4h1c0.7,0,1.2-0.2,1.5-0.5c0.2-0.2,0.5-0.7,0.5-1.2c0-1.2-0.5-1.7-1.7-1.7c-0.5,0-1,0.2-1.5,0.5
		c-0.2,0.2-0.5,0.7-0.5,1.2h-1.5c0-0.7,0.2-1.5,1-2c0.5-0.5,1.5-0.7,2.2-0.7c1,0,1.7,0.2,2.2,0.7s0.7,1.2,0.7,2.2
		c0,0.5-0.2,1-0.5,1.2c-0.2,0.5-0.7,0.7-1.2,1c0.5,0.2,1,0.5,1.2,1s0.5,1,0.5,1.5c0,1-0.2,1.7-1,2.2c-0.7,0.5-1.5,0.7-2.5,0.7
		c-1,0-1.7-0.2-2.5-0.7c-0.7-0.5-1-1.2-1-2.2h1.2c0,0.5,0.2,1,0.5,1.2c0.2,0.2,0.7,0.5,1.5,0.5c0.7,0,1.2-0.2,1.5-0.5
		c0.2-0.2,0.5-0.7,0.5-1.5c0-0.5-0.2-1-0.5-1.5c-0.5-0.2-1-0.5-1.7-0.5l0,0V896.4L278.9,896.4z"/>
	<path fill="#FFFFFF" d="M292.1,902.4h-7v-1l3.7-4c0.5-0.5,1-1,1.2-1.5c0.2-0.5,0.2-0.7,0.2-1.2s-0.2-1-0.5-1.2
		c-0.2-0.2-0.7-0.5-1.2-0.5c-0.7,0-1.2,0.2-1.5,0.5c-0.2,0.5-0.5,1-0.5,1.5h-1.7c0-1,0.2-1.7,1-2.2c0.7-0.5,1.5-1,2.5-1
		c1,0,1.7,0.2,2.2,0.7c0.5,0.5,0.7,1.2,0.7,2c0,1-0.7,2.2-2,3.7l-2.7,3h5.2L292.1,902.4L292.1,902.4z"/>
	<path fill="#FFFFFF" d="M293.8,901.9c0-0.2,0-0.5,0.2-0.5c0.2-0.2,0.2-0.2,0.5-0.2c0.2,0,0.5,0,0.7,0.2c0.2,0.2,0.2,0.2,0.2,0.5
		s0,0.5-0.2,0.5s-0.2,0.2-0.7,0.2c-0.2,0-0.5,0-0.5-0.2C293.8,902.1,293.8,901.9,293.8,901.9z"/>
	<path fill="#FFFFFF" d="M298,897.1l0.5-5.2h5.5v1.2h-4.2l-0.2,3c0.5-0.2,1-0.5,1.7-0.5c1,0,1.7,0.2,2.2,1s0.7,1.5,0.7,2.5
		s-0.2,2-1,2.5c-0.5,0.7-1.5,1-2.5,1c-1,0-1.7-0.2-2.2-0.7c-0.5-0.5-1-1.2-1-2.2h1.2c0,0.5,0.2,1,0.7,1.2c0.2,0.2,0.7,0.5,1.5,0.5
		c0.7,0,1-0.2,1.5-0.7c0.2-0.5,0.5-1,0.5-1.7c0-0.7-0.2-1.2-0.5-1.7c-0.5-0.5-1-0.7-1.5-0.7c-0.5,0-1,0.2-1.5,0.5l-0.2,0.2
		L298,897.1z"/>
	<path fill="#FFFFFF" d="M312.2,894.6c0,0.5-0.2,1-0.5,1.5c-0.2,0.5-0.7,0.7-1.2,1c0.5,0.2,1,0.5,1.2,1c0.2,0.5,0.5,1,0.5,1.5
		c0,1-0.2,1.7-1,2.2c-0.5,0.5-1.5,0.7-2.5,0.7s-1.7-0.2-2.5-0.7c-0.5-0.5-1-1.2-1-2.2c0-0.5,0.2-1,0.5-1.5c0.2-0.5,0.7-0.7,1.2-1
		c-0.5-0.2-0.7-0.5-1-1c-0.2-0.5-0.5-1-0.5-1.5c0-1,0.2-1.5,0.7-2.2c0.5-0.5,1.2-0.7,2.2-0.7c1,0,1.7,0.2,2.2,0.7
		C312,893.1,312.2,893.6,312.2,894.6z M311.2,899.6c0-0.5-0.2-1-0.5-1.5c-0.2-0.2-0.7-0.5-1.5-0.5c-0.5,0-1,0.2-1.5,0.5
		c-0.2,0.2-0.5,0.7-0.5,1.5s0.2,1,0.5,1.5c0.2,0.2,0.7,0.5,1.5,0.5c0.7,0,1.2-0.2,1.5-0.5C311,900.6,311.2,900.1,311.2,899.6z
		 M309,892.9c-0.5,0-1,0.2-1.2,0.5c-0.2,0.2-0.5,0.7-0.5,1.2s0.2,1,0.5,1.2c0.2,0.2,0.7,0.5,1.2,0.5c0.5,0,1-0.2,1.2-0.5
		c0.2-0.2,0.5-0.7,0.5-1.2s-0.2-1-0.5-1.2C310,892.9,309.7,892.9,309,892.9z"/>
	<path fill="#FFFFFF" d="M319.4,891.9v1.2h-0.2c-1,0-2,0.2-2.5,1c-0.5,0.5-1,1.5-1,2.5c0.5-0.7,1.2-1,2.2-1c1,0,1.7,0.2,2.2,1
		s0.7,1.5,0.7,2.5s-0.2,2-1,2.7c-0.7,0.7-1.5,1-2.5,1c-1,0-1.7-0.5-2.5-1.2c-0.7-0.7-1-1.7-1-3v-0.5c0-2,0.5-3.5,1.2-4.5
		C316.2,892.4,317.4,891.9,319.4,891.9L319.4,891.9L319.4,891.9z M317.7,896.6c-0.5,0-1,0.2-1.2,0.5c-0.5,0.2-0.7,0.7-0.7,1v0.5
		c0,1,0.2,1.5,0.5,2c0.5,0.5,1,0.7,1.5,0.7c0.5,0,1-0.2,1.5-0.7c0.2-0.5,0.5-1,0.5-1.7c0-0.7-0.2-1.2-0.5-1.7
		C318.7,896.9,318.2,896.6,317.7,896.6z"/>
	<path fill="#FFFFFF" d="M322.7,901.9c0-0.2,0-0.5,0.2-0.5c0.2-0.2,0.2-0.2,0.5-0.2s0.5,0,0.7,0.2c0.2,0.2,0.2,0.2,0.2,0.5
		s0,0.5-0.2,0.5c-0.2,0-0.2,0.2-0.7,0.2c-0.2,0-0.5,0-0.5-0.2C322.7,902.1,322.7,901.9,322.7,901.9z"/>
	<path fill="#FFFFFF" d="M333.1,897.9c0,1.5-0.2,2.7-0.7,3.5c-0.5,0.7-1.5,1.2-2.5,1.2c-1.2,0-2-0.5-2.5-1.2c-0.5-0.7-0.7-2-0.7-3.2
		v-1.7c0-1.5,0.2-2.7,0.7-3.5c0.5-0.7,1.5-1.2,2.5-1.2c1.2,0,2,0.2,2.5,1c0.5,0.7,0.7,1.7,0.7,3.5V897.9L333.1,897.9z M331.6,896.1
		c0-1.2-0.2-2-0.5-2.5s-0.7-0.7-1.5-0.7c-0.7,0-1.2,0.2-1.5,0.7c-0.2,0.5-0.5,1.2-0.5,2.5v2.2c0,1.2,0.2,2,0.5,2.5
		c0.2,0.5,0.7,0.7,1.5,0.7c0.7,0,1.2-0.2,1.5-0.7c0.2-0.5,0.5-1.2,0.5-2.5V896.1L331.6,896.1z"/>
	<path fill="#FFFFFF" d="M339.9,897.9c-0.2,0.2-0.5,0.5-1,0.7c-0.5,0.2-0.7,0.2-1.2,0.2c-0.5,0-1.2-0.2-1.5-0.5
		c-0.5-0.2-0.7-0.7-1-1.2c-0.2-0.5-0.2-1.2-0.2-1.7c0-0.7,0.2-1.2,0.5-2c0.2-0.5,0.7-1,1.2-1.2c0.5-0.2,1-0.5,1.7-0.5
		c1,0,2,0.5,2.5,1.2c0.5,0.7,1,1.7,1,3.2v0.5c0,2-0.5,3.5-1.2,4.5c-0.7,1-2,1.5-3.7,1.5h-0.2v-1.2h0.2c1,0,2-0.2,2.5-0.7
		C339.6,899.9,339.9,899.1,339.9,897.9z M337.9,897.9c0.5,0,0.7-0.2,1.2-0.5c0.5-0.2,0.7-0.5,0.7-1v-0.5c0-1-0.2-1.5-0.5-2.2
		c-0.5-0.5-0.7-0.7-1.5-0.7c-0.5,0-1,0.2-1.5,0.7c-0.2,0.5-0.5,1-0.5,1.7c0,0.7,0.2,1.2,0.5,1.7
		C336.9,897.6,337.4,897.9,337.9,897.9z"/>
	<path fill="#FFFFFF" d="M348.3,891.9v1.2h-0.2c-1,0-2,0.2-2.5,1c-0.5,0.5-1,1.5-1,2.5c0.5-0.7,1.2-1,2.2-1s1.7,0.2,2.2,1
		c0.5,0.7,0.7,1.5,0.7,2.5s-0.2,2-1,2.7s-1.5,1-2.5,1c-1,0-1.7-0.5-2.5-1.2c-0.7-0.7-1-1.7-1-3v-0.5c0-2,0.5-3.5,1.2-4.5
		C345.3,892.4,346.6,891.9,348.3,891.9L348.3,891.9L348.3,891.9z M346.6,896.6c-0.5,0-1,0.2-1.2,0.5c-0.5,0.2-0.7,0.7-0.7,1v0.5
		c0,1,0.2,1.5,0.5,2c0.5,0.5,1,0.7,1.5,0.7s1-0.2,1.5-0.7c0.2-0.5,0.5-1,0.5-1.7c0-0.7-0.2-1.2-0.5-1.7
		C347.8,896.9,347.3,896.6,346.6,896.6z"/>
	<path fill="#FFFFFF" d="M351.8,901.9c0-0.2,0-0.5,0.2-0.5s0.2-0.2,0.7-0.2c0.2,0,0.5,0,0.7,0.2c0.2,0.2,0.2,0.2,0.2,0.5
		s0,0.5-0.2,0.5c-0.2,0.2-0.2,0.2-0.7,0.2c-0.2,0-0.5,0-0.7-0.2C351.8,902.1,351.8,901.9,351.8,901.9z"/>
	<path fill="#FFFFFF" d="M362.3,892.6l-4.5,9.7h-1.5l4.5-9.5H355v-1h7.2C362.3,891.9,362.3,892.6,362.3,892.6z"/>
	<path fill="#FFFFFF" d="M369,891.9v1.2h-0.2c-1,0-2,0.2-2.5,1c-0.5,0.5-1,1.5-1,2.5c0.5-0.7,1.2-1,2.2-1c1,0,1.7,0.2,2.2,1
		c0.5,0.7,0.7,1.5,0.7,2.5s-0.2,2-1,2.7c-0.7,0.7-1.5,1-2.5,1s-1.7-0.5-2.5-1.2c-0.7-0.7-1-1.7-1-3v-0.5c0-2,0.5-3.5,1.2-4.5
		C366,892.4,367.2,891.9,369,891.9L369,891.9L369,891.9z M367.2,896.6c-0.5,0-1,0.2-1.2,0.5c-0.5,0.2-0.7,0.7-0.7,1v0.5
		c0,1,0.2,1.5,0.5,2c0.5,0.5,1,0.7,1.5,0.7s1-0.2,1.5-0.7c0.2-0.5,0.5-1,0.5-1.7c0-0.7-0.2-1.2-0.5-1.7
		C368.2,896.9,368,896.6,367.2,896.6z"/>
	<path fill="#FFFFFF" d="M374.2,896.4h1c0.7,0,1.2-0.2,1.5-0.5c0.2-0.2,0.5-0.7,0.5-1.2c0-1.2-0.5-1.7-1.7-1.7c-0.5,0-1,0.2-1.5,0.5
		c-0.2,0.2-0.5,0.7-0.5,1.2h-1.2c0-0.7,0.2-1.5,1-2c0.5-0.5,1.5-0.7,2.2-0.7c1,0,1.7,0.2,2.2,0.7s0.7,1.2,0.7,2.2
		c0,0.5-0.2,1-0.5,1.2c-0.2,0.5-0.7,0.7-1.2,1c0.5,0.2,1,0.5,1.2,1s0.5,1,0.5,1.5c0,1-0.2,1.7-1,2.2c-0.5,0.5-1.5,0.7-2.5,0.7
		s-1.7-0.2-2.5-0.7c-0.7-0.5-1-1.2-1-2.2h1.7c0,0.5,0.2,1,0.5,1.2c0.2,0.2,0.7,0.5,1.5,0.5c0.7,0,1.2-0.2,1.5-0.5
		c0.2-0.2,0.5-0.7,0.5-1.5c0-0.5-0.2-1-0.5-1.5c-0.5-0.2-1-0.5-1.7-0.5h-1L374.2,896.4L374.2,896.4z"/>
</g>
<g>
	<path fill="#FFFFFF" d="M-140,870.4v-10.2h1.4v9.1h4.8v1.1H-140z"/>
	<path fill="#FFFFFF" d="M-132.9,866.8v-0.3c0-1.1,0.3-2,1-2.7c0.6-0.7,1.4-1.1,2.3-1.1c1,0,1.8,0.3,2.3,0.9s0.8,1.4,0.8,2.5v0.9
		h-4.9l0,0c0,0.7,0.2,1.3,0.6,1.8c0.4,0.5,0.8,0.7,1.5,0.7c0.5,0,0.9-0.1,1.2-0.2c0.4-0.1,0.7-0.3,0.9-0.5l0.5,0.9
		c-0.3,0.3-0.6,0.5-1.1,0.7s-1,0.3-1.6,0.3c-1.1,0-1.9-0.3-2.5-1C-132.6,868.8-132.9,867.9-132.9,866.8z M-131.4,865.8L-131.4,865.8
		l3.5,0v-0.2c0-0.5-0.1-1-0.4-1.3s-0.7-0.5-1.3-0.5c-0.5,0-0.9,0.2-1.2,0.6C-131.2,864.8-131.4,865.2-131.4,865.8z"/>
	<path fill="#FFFFFF" d="M-124.9,860.9v-1.4h1.4v1.4H-124.9z M-124.9,870.4v-7.5h1.4v7.5H-124.9z"/>
	<path fill="#FFFFFF" d="M-118.2,866.9v-0.1c0-1.2,0.3-2.2,0.8-2.9c0.5-0.7,1.2-1.1,2.2-1.1c0.4,0,0.8,0.1,1.2,0.2
		c0.3,0.2,0.6,0.4,0.9,0.7v-4.1h1.4v10.9h-1.1l-0.2-0.9c-0.2,0.4-0.5,0.6-0.9,0.8c-0.4,0.2-0.8,0.3-1.2,0.3c-0.9,0-1.6-0.3-2.2-1
		C-117.9,868.9-118.2,868-118.2,866.9z M-116.8,866.9c0,0.8,0.2,1.4,0.5,1.8c0.3,0.5,0.8,0.7,1.5,0.7c0.4,0,0.8-0.1,1-0.3
		s0.5-0.4,0.7-0.8v-3.5c-0.2-0.3-0.4-0.6-0.7-0.7s-0.6-0.3-1-0.3c-0.7,0-1.1,0.3-1.5,0.8s-0.5,1.3-0.5,2.1V866.9z"/>
	<path fill="#FFFFFF" d="M-110.1,866.8v-0.3c0-1.1,0.3-2,1-2.7c0.6-0.7,1.4-1.1,2.3-1.1c1,0,1.8,0.3,2.3,0.9s0.8,1.4,0.8,2.5v0.9
		h-4.9l0,0c0,0.7,0.2,1.3,0.6,1.8c0.4,0.5,0.8,0.7,1.5,0.7c0.5,0,0.9-0.1,1.2-0.2c0.4-0.1,0.7-0.3,0.9-0.5l0.5,0.9
		c-0.3,0.3-0.6,0.5-1.1,0.7s-1,0.3-1.6,0.3c-1.1,0-1.9-0.3-2.5-1C-109.8,868.8-110.1,867.9-110.1,866.8z M-108.6,865.8L-108.6,865.8
		l3.5,0v-0.2c0-0.5-0.1-1-0.4-1.3s-0.7-0.5-1.3-0.5c-0.5,0-0.9,0.2-1.2,0.6C-108.4,864.8-108.6,865.2-108.6,865.8z"/>
	<path fill="#FFFFFF" d="M-98.6,860.9v-1.4h1.4v1.4H-98.6z M-98.6,870.4v-7.5h1.4v7.5H-98.6z"/>
	<path fill="#FFFFFF" d="M-95.1,870.4v-7.5h1.2l0.1,1.1c0.3-0.4,0.6-0.7,0.9-0.9s0.8-0.3,1.3-0.3c0.8,0,1.4,0.2,1.9,0.7
		s0.7,1.2,0.7,2.2v4.8h-1.4v-4.7c0-0.7-0.1-1.1-0.4-1.4c-0.3-0.3-0.7-0.4-1.2-0.4c-0.4,0-0.7,0.1-1,0.3c-0.3,0.2-0.5,0.5-0.7,0.8
		v5.5H-95.1z"/>
	<path fill="#FFFFFF" d="M-87.3,866.8v-0.3c0-1.1,0.3-2,0.9-2.7c0.6-0.7,1.4-1.1,2.5-1.1c0.9,0,1.6,0.3,2.2,0.8
		c0.5,0.5,0.8,1.1,0.8,1.8c0,0,0,0,0,0.1l0,0h-1.2c0-0.5-0.2-0.9-0.5-1.2c-0.3-0.3-0.7-0.5-1.2-0.5c-0.7,0-1.2,0.3-1.5,0.8
		s-0.5,1.2-0.5,1.9v0.3c0,0.8,0.2,1.4,0.5,1.9c0.3,0.5,0.8,0.8,1.6,0.8c0.5,0,0.9-0.1,1.2-0.4c0.3-0.3,0.5-0.6,0.5-1h1.2l0,0
		c0,0,0,0,0,0.1c0,0.6-0.3,1.2-0.9,1.7c-0.6,0.5-1.3,0.8-2.1,0.8c-1.1,0-1.9-0.4-2.5-1.1C-87,868.7-87.3,867.8-87.3,866.8z"/>
	<path fill="#FFFFFF" d="M-79.7,866.8v-0.3c0-1.1,0.3-2,1-2.7c0.6-0.7,1.4-1.1,2.3-1.1c1,0,1.8,0.3,2.3,0.9s0.8,1.4,0.8,2.5v0.9
		h-4.9l0,0c0,0.7,0.2,1.3,0.6,1.8c0.4,0.5,0.8,0.7,1.5,0.7c0.5,0,0.9-0.1,1.2-0.2c0.4-0.1,0.7-0.3,0.9-0.5l0.5,0.9
		c-0.3,0.3-0.6,0.5-1.1,0.7s-1,0.3-1.6,0.3c-1.1,0-1.9-0.3-2.5-1C-79.4,868.8-79.7,867.9-79.7,866.8z M-78.2,865.8L-78.2,865.8
		l3.5,0v-0.2c0-0.5-0.1-1-0.4-1.3s-0.7-0.5-1.3-0.5c-0.5,0-0.9,0.2-1.2,0.6C-78,864.8-78.2,865.2-78.2,865.8z"/>
	<path fill="#FFFFFF" d="M-71.8,870.4v-7.5h1.2l0.1,1.1c0.3-0.4,0.6-0.7,0.9-0.9s0.8-0.3,1.3-0.3c0.8,0,1.4,0.2,1.9,0.7
		s0.7,1.2,0.7,2.2v4.8h-1.4v-4.7c0-0.7-0.1-1.1-0.4-1.4c-0.3-0.3-0.7-0.4-1.2-0.4c-0.4,0-0.7,0.1-1,0.3c-0.3,0.2-0.5,0.5-0.7,0.8
		v5.5H-71.8z"/>
	<path fill="#FFFFFF" d="M-64.5,863.9v-1h1.2V861h1.4v1.8h1.4v1h-1.4v4.6c0,0.4,0.1,0.6,0.2,0.7s0.3,0.2,0.6,0.2c0.1,0,0.2,0,0.3,0
		s0.2,0,0.3-0.1l0.2,0.9c-0.1,0.1-0.3,0.2-0.4,0.2s-0.4,0.1-0.6,0.1c-0.6,0-1-0.2-1.3-0.5s-0.5-0.9-0.5-1.6v-4.6H-64.5z"/>
	<path fill="#FFFFFF" d="M-58.7,860.9v-1.4h1.4v1.4H-58.7z M-58.7,870.4v-7.5h1.4v7.5H-58.7z"/>
	<path fill="#FFFFFF" d="M-55.9,862.8h1.4l1.8,5.3l0.1,0.5h0l0.1-0.5l1.7-5.3h1.4l-2.8,7.5h-1L-55.9,862.8z"/>
	<path fill="#FFFFFF" d="M-48.4,866.7v-0.2c0-1.1,0.3-2,0.9-2.8c0.6-0.7,1.4-1.1,2.5-1.1c1,0,1.9,0.4,2.5,1.1
		c0.6,0.7,0.9,1.6,0.9,2.8v0.2c0,1.1-0.3,2-0.9,2.8c-0.6,0.7-1.4,1.1-2.5,1.1s-1.9-0.4-2.5-1.1C-48.1,868.7-48.4,867.8-48.4,866.7z
		 M-47.1,866.7c0,0.8,0.2,1.5,0.5,2c0.3,0.5,0.8,0.8,1.5,0.8c0.7,0,1.2-0.3,1.5-0.8c0.3-0.5,0.5-1.2,0.5-2v-0.2c0-0.8-0.2-1.4-0.5-2
		c-0.3-0.5-0.8-0.8-1.5-0.8c-0.7,0-1.2,0.3-1.5,0.8s-0.5,1.2-0.5,2V866.7z"/>
	<path fill="#FFFFFF" d="M-116.9,882.3c0-0.7,0.3-1.3,0.9-1.7c0.6-0.4,1.4-0.6,2.4-0.6h1.5v-0.7c0-0.4-0.1-0.8-0.4-1
		s-0.7-0.4-1.1-0.4c-0.4,0-0.8,0.1-1.1,0.3c-0.3,0.2-0.4,0.5-0.4,0.8h-1.3l0,0c0-0.5,0.2-1,0.8-1.5c0.5-0.5,1.3-0.7,2.1-0.7
		c0.9,0,1.5,0.2,2.1,0.7c0.5,0.4,0.8,1.1,0.8,1.9v3.6c0,0.3,0,0.5,0,0.8c0,0.3,0.1,0.5,0.2,0.7h-1.4c0-0.2-0.1-0.4-0.1-0.6
		c0-0.2,0-0.3,0-0.5c-0.3,0.4-0.6,0.7-1,0.9s-0.9,0.4-1.3,0.4c-0.8,0-1.4-0.2-1.8-0.6C-116.7,883.5-116.9,883-116.9,882.3z
		 M-116,873.9L-116,873.9l1.6,0l1.2,1.9h-1.1L-116,873.9z M-115.5,882.3c0,0.3,0.1,0.6,0.3,0.8s0.5,0.3,0.9,0.3
		c0.5,0,0.9-0.1,1.3-0.4c0.4-0.3,0.7-0.5,0.8-0.9v-1.2h-1.5c-0.6,0-1,0.1-1.3,0.4C-115.3,881.6-115.5,881.9-115.5,882.3z"/>
	<path fill="#FFFFFF" d="M-105.5,880.8v-0.3c0-1.1,0.3-2,0.9-2.7c0.6-0.7,1.4-1.1,2.5-1.1c0.9,0,1.6,0.3,2.2,0.8
		c0.5,0.5,0.8,1.1,0.8,1.8c0,0,0,0,0,0.1l0,0h-1.2c0-0.5-0.2-0.9-0.5-1.2c-0.3-0.3-0.7-0.5-1.2-0.5c-0.7,0-1.2,0.3-1.5,0.8
		s-0.5,1.2-0.5,1.9v0.3c0,0.8,0.2,1.4,0.5,1.9c0.3,0.5,0.8,0.8,1.6,0.8c0.5,0,0.9-0.1,1.2-0.4c0.3-0.3,0.5-0.6,0.5-1h1.2l0,0
		c0,0,0,0,0,0.1c0,0.6-0.3,1.2-0.9,1.7c-0.6,0.5-1.3,0.8-2.1,0.8c-1.1,0-1.9-0.4-2.5-1.1C-105.2,882.7-105.5,881.8-105.5,880.8z"/>
	<path fill="#FFFFFF" d="M-97.7,881.3v-4.4h1.4v4.5c0,0.8,0.1,1.4,0.4,1.7c0.2,0.3,0.6,0.5,1.1,0.5c0.5,0,0.9-0.1,1.2-0.3
		c0.3-0.2,0.6-0.5,0.7-0.8v-5.4h1.4v7.5h-1.2l-0.1-1.1c-0.2,0.4-0.5,0.7-0.9,0.9c-0.4,0.2-0.8,0.3-1.3,0.3c-0.8,0-1.5-0.3-1.9-0.8
		C-97.4,883.2-97.7,882.4-97.7,881.3z"/>
	<path fill="#FFFFFF" d="M-89.4,884.4v-10.9h1.4v10.9H-89.4z"/>
	<path fill="#FFFFFF" d="M-86.7,877.9v-1h1.2V875h1.4v1.8h1.4v1h-1.4v4.6c0,0.4,0.1,0.6,0.2,0.7s0.3,0.2,0.6,0.2c0.1,0,0.2,0,0.3,0
		s0.2,0,0.3-0.1l0.2,0.9c-0.1,0.1-0.3,0.2-0.4,0.2s-0.4,0.1-0.6,0.1c-0.6,0-1-0.2-1.3-0.5s-0.5-0.9-0.5-1.6v-4.6H-86.7z"/>
	<path fill="#FFFFFF" d="M-81,881.3v-4.4h1.4v4.5c0,0.8,0.1,1.4,0.4,1.7c0.2,0.3,0.6,0.5,1.1,0.5c0.5,0,0.9-0.1,1.2-0.3
		c0.3-0.2,0.6-0.5,0.7-0.8v-5.4h1.4v7.5h-1.2l-0.1-1.1c-0.2,0.4-0.5,0.7-0.9,0.9c-0.4,0.2-0.8,0.3-1.3,0.3c-0.8,0-1.5-0.3-1.9-0.8
		C-80.8,883.2-81,882.4-81,881.3z"/>
	<path fill="#FFFFFF" d="M-72.9,884.4v-7.5h1.2l0.1,1.1c0.2-0.4,0.5-0.7,0.8-0.9c0.3-0.2,0.7-0.3,1.1-0.3c0.1,0,0.2,0,0.3,0
		c0.1,0,0.2,0,0.2,0.1l-0.2,1.3l-0.7,0c-0.4,0-0.7,0.1-0.9,0.3c-0.2,0.2-0.4,0.4-0.6,0.7v5.4H-72.9z"/>
	<path fill="#FFFFFF" d="M-68.2,882.3c0-0.7,0.3-1.3,0.9-1.7c0.6-0.4,1.4-0.6,2.4-0.6h1.5v-0.7c0-0.4-0.1-0.8-0.4-1
		s-0.7-0.4-1.1-0.4c-0.4,0-0.8,0.1-1.1,0.3c-0.3,0.2-0.4,0.5-0.4,0.8h-1.3l0,0c0,0,0-0.1,0-0.1c0-0.5,0.3-1,0.8-1.4
		c0.5-0.5,1.3-0.7,2.1-0.7c0.9,0,1.5,0.2,2.1,0.7c0.5,0.4,0.8,1.1,0.8,1.9v3.6c0,0.3,0,0.5,0,0.8c0,0.3,0.1,0.5,0.2,0.7h-1.4
		c0-0.2-0.1-0.4-0.1-0.6c0-0.2,0-0.3,0-0.5c-0.3,0.4-0.6,0.7-1,0.9s-0.9,0.4-1.3,0.4c-0.8,0-1.4-0.2-1.8-0.6
		C-68,883.5-68.2,883-68.2,882.3z M-66.9,882.3c0,0.3,0.1,0.6,0.3,0.8s0.5,0.3,0.9,0.3c0.5,0,0.9-0.1,1.3-0.4
		c0.4-0.3,0.7-0.5,0.8-0.9v-1.2H-65c-0.6,0-1,0.1-1.3,0.4C-66.7,881.6-66.9,881.9-66.9,882.3z"/>
</g>
<g>
	<path fill="#FFFFFF" d="M-122.2,970.4v-11.9h1.6l5.7,9.2l0,0v-9.1h1.6v11.9h-1.6l-5.7-9.2l0,0v9.2H-122.2z"/>
	<path fill="#FFFFFF" d="M-111,966.1v-0.2c0-1.3,0.4-2.4,1.1-3.2c0.7-0.8,1.7-1.3,2.9-1.3c1.2,0,2.2,0.4,2.9,1.3
		c0.7,0.8,1.1,1.9,1.1,3.2v0.2c0,1.3-0.4,2.4-1.1,3.2c-0.7,0.8-1.7,1.3-2.9,1.3c-1.2,0-2.2-0.4-2.9-1.3
		C-110.6,968.5-111,967.4-111,966.1z M-109.4,966.1c0,0.9,0.2,1.7,0.6,2.3c0.4,0.6,1,0.9,1.8,0.9c0.8,0,1.3-0.3,1.7-0.9
		c0.4-0.6,0.6-1.4,0.6-2.3v-0.2c0-0.9-0.2-1.7-0.6-2.3c-0.4-0.6-1-0.9-1.8-0.9c-0.8,0-1.3,0.3-1.7,0.9c-0.4,0.6-0.6,1.4-0.6,2.3
		V966.1z"/>
	<path fill="#FFFFFF" d="M-102,962.8v-1.2h1.4v-2.1h1.6v2.1h1.7v1.2H-99v5.4c0,0.4,0.1,0.7,0.3,0.9c0.2,0.2,0.4,0.3,0.7,0.3
		c0.1,0,0.2,0,0.3,0c0.1,0,0.2,0,0.3-0.1l0.2,1.1c-0.1,0.1-0.3,0.2-0.5,0.2c-0.2,0.1-0.5,0.1-0.7,0.1c-0.7,0-1.2-0.2-1.6-0.6
		c-0.4-0.4-0.6-1-0.6-1.9v-5.4H-102z"/>
	<path fill="#FFFFFF" d="M-95.6,968c0-0.8,0.3-1.5,1-2c0.7-0.5,1.6-0.7,2.8-0.7h1.7v-0.9c0-0.5-0.2-0.9-0.5-1.2
		c-0.3-0.3-0.8-0.5-1.3-0.5c-0.5,0-0.9,0.1-1.3,0.4c-0.3,0.3-0.5,0.6-0.5,0.9h-1.5l0,0c0,0,0-0.1,0-0.1c0-0.6,0.3-1.2,0.9-1.7
		c0.6-0.5,1.5-0.8,2.5-0.8c1,0,1.8,0.3,2.4,0.8c0.6,0.5,0.9,1.2,0.9,2.2v4.2c0,0.3,0,0.6,0,0.9c0,0.3,0.1,0.6,0.2,0.9h-1.7
		c-0.1-0.3-0.1-0.5-0.1-0.7c0-0.2,0-0.4-0.1-0.6c-0.3,0.4-0.7,0.8-1.2,1.1c-0.5,0.3-1,0.4-1.6,0.4c-0.9,0-1.6-0.2-2.1-0.7
		C-95.4,969.4-95.6,968.8-95.6,968z M-94,968c0,0.4,0.1,0.7,0.4,0.9c0.2,0.2,0.6,0.3,1.1,0.3c0.6,0,1.1-0.1,1.6-0.4
		c0.5-0.3,0.8-0.6,0.9-1v-1.4h-1.8c-0.6,0-1.2,0.2-1.6,0.5C-93.8,967.2-94,967.6-94,968z"/>
	<path fill="#FFFFFF" d="M-86,963.3v-1.6h1.6v1.6H-86z M-86,970.4v-1.6h1.6v1.6H-86z"/>
	<path fill="#FFFFFF" d="M-78.7,962.8v-1.2h1.4v-2.1h1.6v2.1h1.7v1.2h-1.7v5.4c0,0.4,0.1,0.7,0.3,0.9c0.2,0.2,0.4,0.3,0.7,0.3
		c0.1,0,0.2,0,0.3,0c0.1,0,0.2,0,0.3-0.1l0.2,1.1c-0.1,0.1-0.3,0.2-0.5,0.2c-0.2,0.1-0.5,0.1-0.7,0.1c-0.7,0-1.2-0.2-1.6-0.6
		c-0.4-0.4-0.6-1-0.6-1.9v-5.4H-78.7z"/>
	<path fill="#FFFFFF" d="M-72,970.4v-8.8h1.4l0.1,1.3c0.2-0.5,0.6-0.8,0.9-1.1c0.4-0.3,0.8-0.4,1.3-0.4c0.1,0,0.2,0,0.3,0
		c0.1,0,0.2,0,0.3,0.1l-0.2,1.5l-0.8,0c-0.4,0-0.8,0.1-1.1,0.3c-0.3,0.2-0.5,0.5-0.7,0.8v6.3H-72z"/>
	<path fill="#FFFFFF" d="M-66.6,968c0-0.8,0.3-1.5,1-2c0.7-0.5,1.6-0.7,2.8-0.7h1.7v-0.9c0-0.5-0.2-0.9-0.5-1.2
		c-0.3-0.3-0.8-0.5-1.3-0.5c-0.5,0-0.9,0.1-1.3,0.4c-0.3,0.3-0.5,0.6-0.5,0.9h-1.5l0,0c0,0,0-0.1,0-0.1c0-0.6,0.3-1.2,0.9-1.7
		c0.6-0.5,1.5-0.8,2.5-0.8c1,0,1.8,0.3,2.4,0.8c0.6,0.5,0.9,1.2,0.9,2.2v4.2c0,0.3,0,0.6,0,0.9c0,0.3,0.1,0.6,0.2,0.9h-1.7
		c-0.1-0.3-0.1-0.5-0.1-0.7c0-0.2,0-0.4-0.1-0.6c-0.3,0.4-0.7,0.8-1.2,1.1c-0.5,0.3-1,0.4-1.6,0.4c-0.9,0-1.6-0.2-2.1-0.7
		C-66.4,969.4-66.6,968.8-66.6,968z M-65,968c0,0.4,0.1,0.7,0.4,0.9c0.2,0.2,0.6,0.3,1.1,0.3c0.6,0,1.1-0.1,1.6-0.4
		c0.5-0.3,0.8-0.6,0.9-1v-1.4h-1.8c-0.6,0-1.2,0.2-1.6,0.5C-64.8,967.2-65,967.6-65,968z"/>
	<path fill="#FFFFFF" d="M-58,962.8v-1.2h1.4v-2.1h1.6v2.1h1.7v1.2H-55v5.4c0,0.4,0.1,0.7,0.3,0.9c0.2,0.2,0.4,0.3,0.7,0.3
		c0.1,0,0.2,0,0.3,0c0.1,0,0.2,0,0.3-0.1l0.2,1.1c-0.1,0.1-0.3,0.2-0.5,0.2c-0.2,0.1-0.5,0.1-0.7,0.1c-0.7,0-1.2-0.2-1.6-0.6
		c-0.4-0.4-0.6-1-0.6-1.9v-5.4H-58z"/>
	<path fill="#FFFFFF" d="M-51.7,968c0-0.8,0.3-1.5,1-2c0.7-0.5,1.6-0.7,2.8-0.7h1.7v-0.9c0-0.5-0.2-0.9-0.5-1.2
		c-0.3-0.3-0.8-0.5-1.3-0.5c-0.5,0-0.9,0.1-1.3,0.4c-0.3,0.3-0.5,0.6-0.5,0.9h-1.5l0,0c0,0,0-0.1,0-0.1c0-0.6,0.3-1.2,0.9-1.7
		c0.6-0.5,1.5-0.8,2.5-0.8c1,0,1.8,0.3,2.4,0.8c0.6,0.5,0.9,1.2,0.9,2.2v4.2c0,0.3,0,0.6,0,0.9c0,0.3,0.1,0.6,0.2,0.9h-1.7
		c-0.1-0.3-0.1-0.5-0.1-0.7c0-0.2,0-0.4-0.1-0.6c-0.3,0.4-0.7,0.8-1.2,1.1c-0.5,0.3-1,0.4-1.6,0.4c-0.9,0-1.6-0.2-2.1-0.7
		C-51.4,969.4-51.7,968.8-51.7,968z M-50,968c0,0.4,0.1,0.7,0.4,0.9c0.2,0.2,0.6,0.3,1.1,0.3c0.6,0,1.1-0.1,1.6-0.4
		c0.5-0.3,0.8-0.6,0.9-1v-1.4h-1.8c-0.6,0-1.2,0.2-1.6,0.5C-49.9,967.2-50,967.6-50,968z"/>
	<path fill="#FFFFFF" d="M-43.1,966.1v-1.3h4v1.3H-43.1z"/>
	<path fill="#FFFFFF" d="M-37.9,967.8L-37.9,967.8l1.6,0c0,0.6,0.2,1,0.6,1.2c0.4,0.3,0.9,0.4,1.4,0.4c0.6,0,1-0.1,1.3-0.3
		c0.3-0.2,0.5-0.5,0.5-0.9c0-0.4-0.1-0.6-0.4-0.9c-0.3-0.2-0.8-0.4-1.5-0.6c-1.1-0.2-1.9-0.5-2.4-0.9c-0.5-0.4-0.8-0.9-0.8-1.6
		c0-0.7,0.3-1.3,0.9-1.8c0.6-0.5,1.4-0.8,2.4-0.8c1.1,0,1.9,0.3,2.5,0.8c0.6,0.5,0.9,1.1,0.9,1.8c0,0,0,0.1,0,0.1l0,0.1h-1.6
		c0-0.4-0.2-0.7-0.5-1c-0.3-0.3-0.8-0.5-1.3-0.5c-0.6,0-1,0.1-1.3,0.4c-0.3,0.3-0.4,0.6-0.4,0.9c0,0.3,0.1,0.6,0.4,0.8
		c0.2,0.2,0.7,0.4,1.5,0.5c1.1,0.2,1.9,0.6,2.5,1c0.5,0.4,0.8,1,0.8,1.6c0,0.8-0.3,1.4-1,1.9c-0.6,0.5-1.5,0.7-2.5,0.7
		c-1.1,0-2-0.3-2.7-0.9c-0.6-0.5-0.9-1.2-0.9-1.9C-37.9,967.8-37.9,967.8-37.9,967.8z"/>
	<path fill="#FFFFFF" d="M-29.2,966.2v-0.4c0-1.3,0.4-2.3,1.1-3.1c0.7-0.8,1.6-1.3,2.7-1.3c1.2,0,2.1,0.4,2.7,1.1
		c0.6,0.7,0.9,1.7,0.9,2.9v1h-5.7l0,0c0,0.8,0.2,1.5,0.6,2.1c0.4,0.5,1,0.8,1.7,0.8c0.5,0,1-0.1,1.4-0.2c0.4-0.2,0.8-0.4,1.1-0.6
		l0.6,1c-0.3,0.3-0.7,0.6-1.2,0.8c-0.5,0.2-1.1,0.3-1.9,0.3c-1.2,0-2.2-0.4-2.9-1.2C-28.9,968.6-29.2,967.5-29.2,966.2z
		 M-27.5,965.1L-27.5,965.1l4.1,0v-0.2c0-0.6-0.2-1.2-0.5-1.6c-0.3-0.4-0.8-0.6-1.5-0.6c-0.5,0-1,0.2-1.4,0.7
		C-27.2,963.9-27.4,964.4-27.5,965.1z"/>
	<path fill="#FFFFFF" d="M-16.3,966.4v-0.2c0-1.4,0.3-2.6,0.9-3.4c0.6-0.9,1.5-1.3,2.5-1.3c0.5,0,1,0.1,1.4,0.3
		c0.4,0.2,0.7,0.5,1,0.8v-4.9h1.6v12.7h-1.3l-0.2-1.1c-0.3,0.4-0.6,0.7-1.1,0.9c-0.4,0.2-0.9,0.3-1.5,0.3c-1.1,0-1.9-0.4-2.5-1.2
		C-16,968.7-16.3,967.6-16.3,966.4z M-14.7,966.4c0,0.9,0.2,1.6,0.5,2.1c0.4,0.5,0.9,0.8,1.7,0.8c0.5,0,0.9-0.1,1.2-0.3
		c0.3-0.2,0.6-0.5,0.8-0.9V964c-0.2-0.4-0.5-0.7-0.8-0.9c-0.3-0.2-0.7-0.3-1.2-0.3c-0.8,0-1.3,0.3-1.7,1c-0.4,0.6-0.6,1.5-0.6,2.5
		V966.4z"/>
	<path fill="#FFFFFF" d="M-6.8,966.2v-0.4c0-1.3,0.4-2.3,1.1-3.1c0.7-0.8,1.6-1.3,2.7-1.3c1.2,0,2.1,0.4,2.7,1.1
		c0.6,0.7,0.9,1.7,0.9,2.9v1h-5.7l0,0c0,0.8,0.2,1.5,0.6,2.1c0.4,0.5,1,0.8,1.7,0.8c0.5,0,1-0.1,1.4-0.2c0.4-0.2,0.8-0.4,1.1-0.6
		l0.6,1c-0.3,0.3-0.7,0.6-1.2,0.8c-0.5,0.2-1.1,0.3-1.9,0.3c-1.2,0-2.2-0.4-2.9-1.2C-6.4,968.6-6.8,967.5-6.8,966.2z M-5.1,965.1
		L-5.1,965.1l4.1,0v-0.2c0-0.6-0.2-1.2-0.5-1.6c-0.3-0.4-0.8-0.6-1.5-0.6c-0.5,0-1,0.2-1.4,0.7C-4.7,963.9-5,964.4-5.1,965.1z"/>
	<path fill="#FFFFFF" d="M5.8,961.6h1.6l2.1,6.2l0.1,0.6h0l0.2-0.6l2-6.2h1.6l-3.2,8.8H9.1L5.8,961.6z"/>
	<path fill="#FFFFFF" d="M14.5,968c0-0.8,0.3-1.5,1-2c0.7-0.5,1.6-0.7,2.8-0.7h1.7v-0.9c0-0.5-0.2-0.9-0.5-1.2
		c-0.3-0.3-0.8-0.5-1.3-0.5c-0.5,0-0.9,0.1-1.3,0.4c-0.3,0.3-0.5,0.6-0.5,0.9H15l0,0c0,0,0-0.1,0-0.1c0-0.6,0.3-1.2,0.9-1.7
		c0.6-0.5,1.5-0.8,2.5-0.8c1,0,1.8,0.3,2.4,0.8c0.6,0.5,0.9,1.2,0.9,2.2v4.2c0,0.3,0,0.6,0,0.9c0,0.3,0.1,0.6,0.2,0.9h-1.7
		c-0.1-0.3-0.1-0.5-0.1-0.7c0-0.2,0-0.4-0.1-0.6c-0.3,0.4-0.7,0.8-1.2,1.1c-0.5,0.3-1,0.4-1.6,0.4c-0.9,0-1.6-0.2-2.1-0.7
		C14.8,969.4,14.5,968.8,14.5,968z M16.2,968c0,0.4,0.1,0.7,0.4,0.9c0.2,0.2,0.6,0.3,1.1,0.3c0.6,0,1.1-0.1,1.6-0.4
		c0.5-0.3,0.8-0.6,0.9-1v-1.4h-1.8c-0.6,0-1.2,0.2-1.6,0.5C16.3,967.2,16.2,967.6,16.2,968z"/>
	<path fill="#FFFFFF" d="M24.2,970.4v-12.7h1.6v12.7H24.2z"/>
	<path fill="#FFFFFF" d="M27.9,966.1v-0.2c0-1.3,0.4-2.4,1.1-3.2c0.7-0.8,1.7-1.3,2.9-1.3c1.2,0,2.2,0.4,2.9,1.3
		c0.7,0.8,1.1,1.9,1.1,3.2v0.2c0,1.3-0.4,2.4-1.1,3.2c-0.7,0.8-1.7,1.3-2.9,1.3c-1.2,0-2.2-0.4-2.9-1.3
		C28.2,968.5,27.9,967.4,27.9,966.1z M29.5,966.1c0,0.9,0.2,1.7,0.6,2.3c0.4,0.6,1,0.9,1.8,0.9c0.8,0,1.3-0.3,1.7-0.9
		c0.4-0.6,0.6-1.4,0.6-2.3v-0.2c0-0.9-0.2-1.7-0.6-2.3c-0.4-0.6-1-0.9-1.8-0.9c-0.8,0-1.3,0.3-1.7,0.9c-0.4,0.6-0.6,1.4-0.6,2.3
		V966.1z"/>
	<path fill="#FFFFFF" d="M37.7,970.4v-8.8h1.4l0.1,1.3c0.2-0.5,0.6-0.8,0.9-1.1c0.4-0.3,0.8-0.4,1.3-0.4c0.1,0,0.2,0,0.3,0
		c0.1,0,0.2,0,0.3,0.1l-0.2,1.5l-0.8,0c-0.4,0-0.8,0.1-1.1,0.3c-0.3,0.2-0.5,0.5-0.7,0.8v6.3H37.7z"/>
	<path fill="#FFFFFF" d="M42.9,966.2v-0.4c0-1.3,0.4-2.3,1.1-3.1c0.7-0.8,1.6-1.3,2.7-1.3c1.2,0,2.1,0.4,2.7,1.1
		c0.6,0.7,0.9,1.7,0.9,2.9v1h-5.7l0,0c0,0.8,0.2,1.5,0.6,2.1c0.4,0.5,1,0.8,1.7,0.8c0.5,0,1-0.1,1.4-0.2c0.4-0.2,0.8-0.4,1.1-0.6
		l0.6,1c-0.3,0.3-0.7,0.6-1.2,0.8c-0.5,0.2-1.1,0.3-1.9,0.3c-1.2,0-2.2-0.4-2.9-1.2C43.3,968.6,42.9,967.5,42.9,966.2z M44.6,965.1
		L44.6,965.1l4.1,0v-0.2c0-0.6-0.2-1.2-0.5-1.6c-0.3-0.4-0.8-0.6-1.5-0.6c-0.5,0-1,0.2-1.4,0.7C44.9,963.9,44.7,964.4,44.6,965.1z"
		/>
	<path fill="#FFFFFF" d="M51.8,967.8L51.8,967.8l1.6,0c0,0.6,0.2,1,0.6,1.2c0.4,0.3,0.9,0.4,1.4,0.4c0.6,0,1-0.1,1.3-0.3
		c0.3-0.2,0.5-0.5,0.5-0.9c0-0.4-0.1-0.6-0.4-0.9c-0.3-0.2-0.8-0.4-1.5-0.6c-1.1-0.2-1.9-0.5-2.4-0.9c-0.5-0.4-0.8-0.9-0.8-1.6
		c0-0.7,0.3-1.3,0.9-1.8c0.6-0.5,1.4-0.8,2.4-0.8c1.1,0,1.9,0.3,2.5,0.8c0.6,0.5,0.9,1.1,0.9,1.8c0,0,0,0.1,0,0.1l0,0.1h-1.6
		c0-0.4-0.2-0.7-0.5-1c-0.3-0.3-0.8-0.5-1.3-0.5c-0.6,0-1,0.1-1.3,0.4c-0.3,0.3-0.4,0.6-0.4,0.9c0,0.3,0.1,0.6,0.4,0.8
		c0.2,0.2,0.7,0.4,1.5,0.5c1.1,0.2,1.9,0.6,2.5,1c0.5,0.4,0.8,1,0.8,1.6c0,0.8-0.3,1.4-1,1.9c-0.6,0.5-1.5,0.7-2.5,0.7
		c-1.1,0-2-0.3-2.7-0.9c-0.6-0.5-0.9-1.2-0.9-1.9C51.8,967.8,51.8,967.8,51.8,967.8z"/>
	<path fill="#FFFFFF" d="M65,970.4v-8.8h1.4l0.1,1.3c0.3-0.5,0.7-0.8,1.1-1.1c0.4-0.3,0.9-0.4,1.5-0.4c1,0,1.7,0.3,2.2,0.8
		c0.5,0.6,0.8,1.4,0.8,2.6v5.6h-1.6v-5.5c0-0.8-0.2-1.3-0.5-1.7c-0.3-0.3-0.8-0.5-1.4-0.5c-0.5,0-0.9,0.1-1.2,0.3
		c-0.4,0.2-0.6,0.5-0.9,0.9v6.4H65z"/>
	<path fill="#FFFFFF" d="M74.1,966.1v-0.2c0-1.3,0.4-2.4,1.1-3.2c0.7-0.8,1.7-1.3,2.9-1.3c1.2,0,2.2,0.4,2.9,1.3
		c0.7,0.8,1.1,1.9,1.1,3.2v0.2c0,1.3-0.4,2.4-1.1,3.2c-0.7,0.8-1.7,1.3-2.9,1.3c-1.2,0-2.2-0.4-2.9-1.3
		C74.5,968.5,74.1,967.4,74.1,966.1z M75.7,966.1c0,0.9,0.2,1.7,0.6,2.3c0.4,0.6,1,0.9,1.8,0.9c0.8,0,1.3-0.3,1.7-0.9
		c0.4-0.6,0.6-1.4,0.6-2.3v-0.2c0-0.9-0.2-1.7-0.6-2.3c-0.4-0.6-1-0.9-1.8-0.9c-0.8,0-1.3,0.3-1.7,0.9c-0.4,0.6-0.6,1.4-0.6,2.3
		V966.1z"/>
	<path fill="#FFFFFF" d="M84,970.4v-8.8h1.4l0.1,1.2c0.3-0.4,0.7-0.7,1.1-1c0.4-0.2,1-0.3,1.5-0.3c0.6,0,1.1,0.1,1.5,0.4
		c0.4,0.3,0.7,0.7,0.9,1.2c0.3-0.5,0.6-0.9,1.1-1.2c0.5-0.3,1-0.4,1.6-0.4c0.9,0,1.6,0.3,2.1,0.9c0.5,0.6,0.8,1.5,0.8,2.8v5.3h-1.6
		v-5.3c0-0.9-0.1-1.5-0.4-1.8c-0.3-0.4-0.7-0.5-1.3-0.5c-0.6,0-1,0.2-1.3,0.6c-0.3,0.4-0.5,0.9-0.6,1.4v0.1v5.6h-1.6v-5.3
		c0-0.8-0.2-1.4-0.5-1.8c-0.3-0.4-0.7-0.6-1.3-0.6c-0.5,0-0.9,0.1-1.2,0.3c-0.3,0.2-0.6,0.5-0.7,0.8v6.5H84z"/>
	<path fill="#FFFFFF" d="M98.7,959.4v-1.6h1.6v1.6H98.7z M98.7,970.4v-8.8h1.6v8.8H98.7z"/>
	<path fill="#FFFFFF" d="M102.8,970.4v-8.8h1.4l0.1,1.3c0.3-0.5,0.7-0.8,1.1-1.1c0.4-0.3,0.9-0.4,1.5-0.4c1,0,1.7,0.3,2.2,0.8
		c0.5,0.6,0.8,1.4,0.8,2.6v5.6h-1.6v-5.5c0-0.8-0.2-1.3-0.5-1.7c-0.3-0.3-0.8-0.5-1.4-0.5c-0.5,0-0.9,0.1-1.2,0.3
		c-0.4,0.2-0.6,0.5-0.9,0.9v6.4H102.8z"/>
	<path fill="#FFFFFF" d="M112,968c0-0.8,0.3-1.5,1-2c0.7-0.5,1.6-0.7,2.8-0.7h1.7v-0.9c0-0.5-0.2-0.9-0.5-1.2
		c-0.3-0.3-0.8-0.5-1.3-0.5c-0.5,0-0.9,0.1-1.3,0.4c-0.3,0.3-0.5,0.6-0.5,0.9h-1.5l0,0c0,0,0-0.1,0-0.1c0-0.6,0.3-1.2,0.9-1.7
		c0.6-0.5,1.5-0.8,2.5-0.8c1,0,1.8,0.3,2.4,0.8c0.6,0.5,0.9,1.2,0.9,2.2v4.2c0,0.3,0,0.6,0,0.9c0,0.3,0.1,0.6,0.2,0.9h-1.7
		c-0.1-0.3-0.1-0.5-0.1-0.7c0-0.2,0-0.4-0.1-0.6c-0.3,0.4-0.7,0.8-1.2,1.1c-0.5,0.3-1,0.4-1.6,0.4c-0.9,0-1.6-0.2-2.1-0.7
		C112.2,969.4,112,968.8,112,968z M113.6,968c0,0.4,0.1,0.7,0.4,0.9c0.2,0.2,0.6,0.3,1.1,0.3c0.6,0,1.1-0.1,1.6-0.4
		c0.5-0.3,0.8-0.6,0.9-1v-1.4h-1.8c-0.6,0-1.2,0.2-1.6,0.5C113.8,967.2,113.6,967.6,113.6,968z"/>
	<path fill="#FFFFFF" d="M121.6,959.4v-1.6h1.6v1.6H121.6z M121.6,970.4v-8.8h1.6v8.8H121.6z"/>
	<path fill="#FFFFFF" d="M125.4,967.8L125.4,967.8l1.6,0c0,0.6,0.2,1,0.6,1.2c0.4,0.3,0.9,0.4,1.4,0.4c0.6,0,1-0.1,1.3-0.3
		c0.3-0.2,0.5-0.5,0.5-0.9c0-0.4-0.1-0.6-0.4-0.9c-0.3-0.2-0.8-0.4-1.5-0.6c-1.1-0.2-1.9-0.5-2.4-0.9c-0.5-0.4-0.8-0.9-0.8-1.6
		c0-0.7,0.3-1.3,0.9-1.8c0.6-0.5,1.4-0.8,2.4-0.8c1.1,0,1.9,0.3,2.5,0.8c0.6,0.5,0.9,1.1,0.9,1.8c0,0,0,0.1,0,0.1l0,0.1h-1.6
		c0-0.4-0.2-0.7-0.5-1c-0.3-0.3-0.8-0.5-1.3-0.5c-0.6,0-1,0.1-1.3,0.4c-0.3,0.3-0.4,0.6-0.4,0.9c0,0.3,0.1,0.6,0.4,0.8
		c0.2,0.2,0.7,0.4,1.5,0.5c1.1,0.2,1.9,0.6,2.5,1c0.5,0.4,0.8,1,0.8,1.6c0,0.8-0.3,1.4-1,1.9c-0.6,0.5-1.5,0.7-2.5,0.7
		c-1.1,0-2-0.3-2.7-0.9c-0.6-0.5-0.9-1.2-0.9-1.9C125.4,967.8,125.4,967.8,125.4,967.8z"/>
	<path fill="#FFFFFF" d="M133.6,972.5l0.6-2.6v-1.3h1.6v1.4l-1.2,2.5H133.6z"/>
	<path fill="#FFFFFF" d="M141.8,970.4v-8.8h1.4l0.1,1.3c0.3-0.5,0.7-0.8,1.1-1.1c0.4-0.3,0.9-0.4,1.5-0.4c1,0,1.7,0.3,2.2,0.8
		c0.5,0.6,0.8,1.4,0.8,2.6v5.6h-1.6v-5.5c0-0.8-0.2-1.3-0.5-1.7c-0.3-0.3-0.8-0.5-1.4-0.5c-0.5,0-0.9,0.1-1.2,0.3
		c-0.4,0.2-0.6,0.5-0.9,0.9v6.4H141.8z"/>
	<path fill="#FFFFFF" d="M151,968c0-0.8,0.3-1.5,1-2c0.7-0.5,1.6-0.7,2.8-0.7h1.7v-0.9c0-0.5-0.2-0.9-0.5-1.2
		c-0.3-0.3-0.8-0.5-1.3-0.5c-0.5,0-0.9,0.1-1.3,0.4c-0.3,0.3-0.5,0.6-0.5,0.9h-1.6l0,0c0-0.6,0.3-1.2,0.9-1.8
		c0.6-0.5,1.5-0.8,2.5-0.8c1,0,1.8,0.3,2.4,0.8c0.6,0.5,0.9,1.2,0.9,2.2v4.2c0,0.3,0,0.6,0,0.9c0,0.3,0.1,0.6,0.2,0.9h-1.7
		c-0.1-0.3-0.1-0.5-0.1-0.7c0-0.2,0-0.4-0.1-0.6c-0.3,0.4-0.7,0.8-1.2,1.1c-0.5,0.3-1,0.4-1.6,0.4c-0.9,0-1.6-0.2-2.1-0.7
		C151.2,969.4,151,968.8,151,968z M151.8,959.8c0-0.5,0.2-1,0.5-1.3c0.3-0.4,0.7-0.6,1.2-0.6c0.3,0,0.7,0.1,1.1,0.4
		c0.5,0.3,0.8,0.4,1.1,0.4c0.2,0,0.4-0.1,0.6-0.3c0.2-0.2,0.2-0.4,0.2-0.6l0.9,0.3c0,0.5-0.2,0.9-0.5,1.3c-0.3,0.4-0.7,0.5-1.2,0.5
		c-0.4,0-0.8-0.1-1.2-0.4c-0.4-0.3-0.8-0.4-1-0.4c-0.2,0-0.4,0.1-0.6,0.3c-0.2,0.2-0.2,0.4-0.2,0.6L151.8,959.8z M152.6,968
		c0,0.4,0.1,0.7,0.4,0.9c0.2,0.2,0.6,0.3,1.1,0.3c0.6,0,1.1-0.1,1.6-0.4c0.5-0.3,0.8-0.6,0.9-1v-1.4h-1.8c-0.6,0-1.2,0.2-1.6,0.5
		C152.8,967.2,152.6,967.6,152.6,968z"/>
	<path fill="#FFFFFF" d="M160.1,966.1v-0.2c0-1.3,0.4-2.4,1.1-3.2c0.7-0.8,1.7-1.3,2.9-1.3c1.2,0,2.2,0.4,2.9,1.3
		c0.7,0.8,1.1,1.9,1.1,3.2v0.2c0,1.3-0.4,2.4-1.1,3.2c-0.7,0.8-1.7,1.3-2.9,1.3c-1.2,0-2.2-0.4-2.9-1.3
		C160.5,968.5,160.1,967.4,160.1,966.1z M161.7,966.1c0,0.9,0.2,1.7,0.6,2.3c0.4,0.6,1,0.9,1.8,0.9c0.8,0,1.3-0.3,1.7-0.9
		c0.4-0.6,0.6-1.4,0.6-2.3v-0.2c0-0.9-0.2-1.7-0.6-2.3c-0.4-0.6-1-0.9-1.8-0.9c-0.8,0-1.3,0.3-1.7,0.9c-0.4,0.6-0.6,1.4-0.6,2.3
		V966.1z"/>
	<path fill="#FFFFFF" d="M173.7,966.2v-0.3c0-1.3,0.3-2.3,1-3.1c0.7-0.8,1.7-1.3,2.9-1.3c1,0,1.9,0.3,2.5,0.9
		c0.6,0.6,0.9,1.3,0.9,2.2c0,0,0,0.1,0,0.1l0,0.1h-1.4c0-0.5-0.2-1-0.6-1.4c-0.4-0.4-0.9-0.6-1.4-0.6c-0.8,0-1.4,0.3-1.8,0.9
		c-0.4,0.6-0.5,1.3-0.5,2.2v0.3c0,0.9,0.2,1.7,0.5,2.3c0.4,0.6,1,0.9,1.8,0.9c0.5,0,1-0.2,1.4-0.5c0.4-0.3,0.6-0.7,0.6-1.2h1.4l0,0
		c0,0,0,0.1,0,0.1c0,0.7-0.3,1.4-1,1.9c-0.7,0.6-1.5,0.9-2.4,0.9c-1.3,0-2.3-0.4-2.9-1.3C174.1,968.5,173.7,967.5,173.7,966.2z"/>
	<path fill="#FFFFFF" d="M182.6,966.1v-0.2c0-1.3,0.4-2.4,1.1-3.2c0.7-0.8,1.7-1.3,2.9-1.3c1.2,0,2.2,0.4,2.9,1.3
		c0.7,0.8,1.1,1.9,1.1,3.2v0.2c0,1.3-0.4,2.4-1.1,3.2c-0.7,0.8-1.7,1.3-2.9,1.3c-1.2,0-2.2-0.4-2.9-1.3
		C183,968.5,182.6,967.4,182.6,966.1z M184.2,966.1c0,0.9,0.2,1.7,0.6,2.3c0.4,0.6,1,0.9,1.8,0.9c0.8,0,1.3-0.3,1.7-0.9
		c0.4-0.6,0.6-1.4,0.6-2.3v-0.2c0-0.9-0.2-1.7-0.6-2.3c-0.4-0.6-1-0.9-1.8-0.9c-0.8,0-1.3,0.3-1.7,0.9c-0.4,0.6-0.6,1.4-0.6,2.3
		V966.1z"/>
	<path fill="#FFFFFF" d="M192.5,970.4v-8.8h1.4l0.1,1.3c0.2-0.5,0.6-0.8,0.9-1.1c0.4-0.3,0.8-0.4,1.3-0.4c0.1,0,0.2,0,0.3,0
		c0.1,0,0.2,0,0.3,0.1l-0.2,1.5l-0.8,0c-0.4,0-0.8,0.1-1.1,0.3c-0.3,0.2-0.5,0.5-0.7,0.8v6.3H192.5z"/>
	<path fill="#FFFFFF" d="M198.2,970.4v-8.8h1.4l0.1,1.3c0.2-0.5,0.6-0.8,0.9-1.1c0.4-0.3,0.8-0.4,1.3-0.4c0.1,0,0.2,0,0.3,0
		c0.1,0,0.2,0,0.3,0.1l-0.2,1.5l-0.8,0c-0.4,0-0.8,0.1-1.1,0.3c-0.3,0.2-0.5,0.5-0.7,0.8v6.3H198.2z"/>
	<path fill="#FFFFFF" d="M204,959.4v-1.6h1.6v1.6H204z M204,970.4v-8.8h1.6v8.8H204z"/>
	<path fill="#FFFFFF" d="M207.8,966.4v-0.2c0-1.4,0.3-2.6,0.9-3.4c0.6-0.9,1.5-1.3,2.6-1.3c0.6,0,1.1,0.1,1.5,0.3
		c0.4,0.2,0.8,0.6,1.1,1l0.2-1.1h1.3v8.9c0,1.1-0.3,2-1,2.6s-1.6,0.9-2.8,0.9c-0.4,0-0.9-0.1-1.4-0.2c-0.5-0.1-0.9-0.3-1.3-0.5
		l0.4-1.2c0.3,0.2,0.6,0.3,1,0.4c0.4,0.1,0.8,0.2,1.2,0.2c0.8,0,1.4-0.2,1.7-0.5c0.4-0.4,0.5-0.9,0.5-1.6v-1c-0.3,0.4-0.6,0.6-1,0.8
		c-0.4,0.2-0.9,0.3-1.4,0.3c-1.1,0-1.9-0.4-2.6-1.2C208.1,968.7,207.8,967.6,207.8,966.4z M209.4,966.4c0,0.9,0.2,1.6,0.6,2.1
		c0.4,0.5,0.9,0.8,1.7,0.8c0.5,0,0.9-0.1,1.2-0.3c0.3-0.2,0.6-0.5,0.8-0.9V964c-0.2-0.4-0.5-0.7-0.8-0.9c-0.3-0.2-0.7-0.3-1.2-0.3
		c-0.8,0-1.3,0.3-1.7,1c-0.4,0.6-0.6,1.5-0.6,2.5V966.4z"/>
	<path fill="#FFFFFF" d="M217.7,959.4v-1.6h1.6v1.6H217.7z M217.7,970.4v-8.8h1.6v8.8H217.7z"/>
	<path fill="#FFFFFF" d="M221.5,966.4v-0.2c0-1.4,0.3-2.6,0.9-3.4c0.6-0.9,1.5-1.3,2.5-1.3c0.5,0,1,0.1,1.4,0.3s0.7,0.5,1,0.8v-4.9
		h1.6v12.7h-1.3l-0.2-1.1c-0.3,0.4-0.6,0.7-1.1,0.9c-0.4,0.2-0.9,0.3-1.5,0.3c-1.1,0-1.9-0.4-2.5-1.2
		C221.8,968.7,221.5,967.6,221.5,966.4z M223.1,966.4c0,0.9,0.2,1.6,0.5,2.1c0.4,0.5,0.9,0.8,1.7,0.8c0.5,0,0.9-0.1,1.2-0.3
		c0.3-0.2,0.6-0.5,0.8-0.9V964c-0.2-0.4-0.5-0.7-0.8-0.9c-0.3-0.2-0.7-0.3-1.2-0.3c-0.8,0-1.3,0.3-1.7,1c-0.4,0.6-0.6,1.5-0.6,2.5
		V966.4z"/>
	<path fill="#FFFFFF" d="M230.9,966.1v-0.2c0-1.3,0.4-2.4,1.1-3.2c0.7-0.8,1.7-1.3,2.9-1.3c1.2,0,2.2,0.4,2.9,1.3
		c0.7,0.8,1.1,1.9,1.1,3.2v0.2c0,1.3-0.4,2.4-1.1,3.2c-0.7,0.8-1.7,1.3-2.9,1.3c-1.2,0-2.2-0.4-2.9-1.3
		C231.3,968.5,230.9,967.4,230.9,966.1z M232.5,966.1c0,0.9,0.2,1.7,0.6,2.3c0.4,0.6,1,0.9,1.8,0.9c0.8,0,1.3-0.3,1.7-0.9
		c0.4-0.6,0.6-1.4,0.6-2.3v-0.2c0-0.9-0.2-1.7-0.6-2.3c-0.4-0.6-1-0.9-1.8-0.9c-0.8,0-1.3,0.3-1.7,0.9c-0.4,0.6-0.6,1.4-0.6,2.3
		V966.1z"/>
	<path fill="#FFFFFF" d="M240.5,967.8L240.5,967.8l1.6,0c0,0.6,0.2,1,0.6,1.2c0.4,0.3,0.9,0.4,1.4,0.4c0.6,0,1-0.1,1.3-0.3
		c0.3-0.2,0.5-0.5,0.5-0.9c0-0.4-0.1-0.6-0.4-0.9c-0.3-0.2-0.8-0.4-1.5-0.6c-1.1-0.2-1.9-0.5-2.4-0.9c-0.5-0.4-0.8-0.9-0.8-1.6
		c0-0.7,0.3-1.3,0.9-1.8c0.6-0.5,1.4-0.8,2.4-0.8c1.1,0,1.9,0.3,2.5,0.8c0.6,0.5,0.9,1.1,0.9,1.8c0,0,0,0.1,0,0.1l0,0.1h-1.6
		c0-0.4-0.2-0.7-0.5-1c-0.3-0.3-0.8-0.5-1.3-0.5c-0.6,0-1,0.1-1.3,0.4c-0.3,0.3-0.4,0.6-0.4,0.9c0,0.3,0.1,0.6,0.4,0.8
		c0.2,0.2,0.7,0.4,1.5,0.5c1.1,0.2,1.9,0.6,2.5,1c0.5,0.4,0.8,1,0.8,1.6c0,0.8-0.3,1.4-1,1.9c-0.6,0.5-1.5,0.7-2.5,0.7
		c-1.1,0-2-0.3-2.7-0.9c-0.6-0.5-0.9-1.2-0.9-1.9C240.5,967.8,240.5,967.8,240.5,967.8z"/>
	<path fill="#FFFFFF" d="M253.7,973.8v-12.2h1.2l0.3,1.1c0.3-0.4,0.6-0.7,1.1-1c0.4-0.2,0.9-0.3,1.5-0.3c1.1,0,1.9,0.4,2.5,1.3
		c0.6,0.9,0.9,2,0.9,3.4v0.2c0,1.3-0.3,2.3-0.9,3.1c-0.6,0.8-1.4,1.2-2.5,1.2c-0.5,0-1-0.1-1.4-0.3c-0.4-0.2-0.8-0.5-1-0.8v4.3
		H253.7z M255.3,968.2c0.2,0.4,0.5,0.6,0.8,0.9c0.3,0.2,0.7,0.3,1.2,0.3c0.8,0,1.3-0.3,1.7-0.8c0.4-0.6,0.6-1.3,0.6-2.2v-0.2
		c0-1-0.2-1.8-0.6-2.5c-0.4-0.6-1-1-1.7-1c-0.5,0-0.9,0.1-1.2,0.3c-0.3,0.2-0.6,0.5-0.8,0.9V968.2z"/>
	<path fill="#FFFFFF" d="M262.8,966.2v-0.4c0-1.3,0.4-2.3,1.1-3.1c0.7-0.8,1.6-1.3,2.7-1.3c1.2,0,2.1,0.4,2.7,1.1
		c0.6,0.7,0.9,1.7,0.9,2.9v1h-5.7l0,0c0,0.8,0.2,1.5,0.6,2.1c0.4,0.5,1,0.8,1.7,0.8c0.5,0,1-0.1,1.4-0.2c0.4-0.2,0.8-0.4,1.1-0.6
		l0.6,1c-0.3,0.3-0.7,0.6-1.2,0.8c-0.5,0.2-1.1,0.3-1.9,0.3c-1.2,0-2.2-0.4-2.9-1.2C263.2,968.6,262.8,967.5,262.8,966.2z
		 M264.5,965.1L264.5,965.1l4.1,0v-0.2c0-0.6-0.2-1.2-0.5-1.6c-0.3-0.4-0.8-0.6-1.5-0.6c-0.5,0-1,0.2-1.4,0.7
		C264.8,963.9,264.6,964.4,264.5,965.1z"/>
	<path fill="#FFFFFF" d="M272.1,970.4v-12.7h1.6v12.7H272.1z"/>
	<path fill="#FFFFFF" d="M275.9,968c0-0.8,0.3-1.5,1-2c0.7-0.5,1.6-0.7,2.8-0.7h1.7v-0.9c0-0.5-0.2-0.9-0.5-1.2
		c-0.3-0.3-0.8-0.5-1.3-0.5c-0.5,0-0.9,0.1-1.3,0.4c-0.3,0.3-0.5,0.6-0.5,0.9h-1.5l0,0c0,0,0-0.1,0-0.1c0-0.6,0.3-1.2,0.9-1.7
		c0.6-0.5,1.5-0.8,2.5-0.8c1,0,1.8,0.3,2.4,0.8c0.6,0.5,0.9,1.2,0.9,2.2v4.2c0,0.3,0,0.6,0,0.9c0,0.3,0.1,0.6,0.2,0.9h-1.7
		c-0.1-0.3-0.1-0.5-0.1-0.7c0-0.2,0-0.4-0.1-0.6c-0.3,0.4-0.7,0.8-1.2,1.1c-0.5,0.3-1,0.4-1.6,0.4c-0.9,0-1.6-0.2-2.1-0.7
		C276.1,969.4,275.9,968.8,275.9,968z M277.5,968c0,0.4,0.1,0.7,0.4,0.9c0.2,0.2,0.6,0.3,1.1,0.3c0.6,0,1.1-0.1,1.6-0.4
		c0.5-0.3,0.8-0.6,0.9-1v-1.4h-1.8c-0.6,0-1.2,0.2-1.6,0.5C277.7,967.2,277.5,967.6,277.5,968z"/>
	<path fill="#FFFFFF" d="M289.7,959.4v-1.6h1.6v1.6H289.7z M289.7,970.4v-8.8h1.6v8.8H289.7z"/>
	<path fill="#FFFFFF" d="M293.7,970.4v-8.8h1.4l0.1,1.3c0.3-0.5,0.7-0.8,1.1-1.1c0.4-0.3,0.9-0.4,1.5-0.4c1,0,1.7,0.3,2.2,0.8
		c0.5,0.6,0.8,1.4,0.8,2.6v5.6h-1.6v-5.5c0-0.8-0.2-1.3-0.5-1.7c-0.3-0.3-0.8-0.5-1.4-0.5c-0.5,0-0.9,0.1-1.2,0.3
		c-0.4,0.2-0.6,0.5-0.9,0.9v6.4H293.7z"/>
	<path fill="#FFFFFF" d="M302.5,962.8v-1.2h1.4v-1.1c0-0.9,0.2-1.7,0.7-2.2c0.5-0.5,1.2-0.8,2.1-0.8c0.2,0,0.4,0,0.6,0
		c0.2,0,0.4,0.1,0.6,0.1l-0.2,1.2c-0.1,0-0.2,0-0.4-0.1c-0.1,0-0.3,0-0.4,0c-0.5,0-0.8,0.1-1,0.4s-0.3,0.7-0.3,1.2v1.1h1.8v1.2h-1.8
		v7.6h-1.6v-7.6H302.5z"/>
	<path fill="#FFFFFF" d="M309.1,970.4v-12.7h1.6v12.7H309.1z"/>
	<path fill="#FFFFFF" d="M312.9,968c0-0.8,0.3-1.5,1-2c0.7-0.5,1.6-0.7,2.8-0.7h1.7v-0.9c0-0.5-0.2-0.9-0.5-1.2s-0.8-0.5-1.3-0.5
		c-0.5,0-0.9,0.1-1.3,0.4c-0.3,0.3-0.5,0.6-0.5,0.9h-1.5l0,0c0,0,0-0.1,0-0.1c0-0.6,0.3-1.2,0.9-1.7c0.6-0.5,1.5-0.8,2.5-0.8
		c1,0,1.8,0.3,2.4,0.8c0.6,0.5,0.9,1.2,0.9,2.2v4.2c0,0.3,0,0.6,0,0.9c0,0.3,0.1,0.6,0.2,0.9h-1.7c-0.1-0.3-0.1-0.5-0.1-0.7
		c0-0.2,0-0.4-0.1-0.6c-0.3,0.4-0.7,0.8-1.2,1.1c-0.5,0.3-1,0.4-1.6,0.4c-0.9,0-1.6-0.2-2.1-0.7C313.1,969.4,312.9,968.8,312.9,968z
		 M314.5,968c0,0.4,0.1,0.7,0.4,0.9c0.2,0.2,0.6,0.3,1.1,0.3c0.6,0,1.1-0.1,1.6-0.4c0.5-0.3,0.8-0.6,0.9-1v-1.4h-1.8
		c-0.6,0-1.2,0.2-1.6,0.5C314.7,967.2,314.5,967.6,314.5,968z"/>
	<path fill="#FFFFFF" d="M322,966.2v-0.3c0-1.3,0.3-2.3,1-3.1c0.7-0.8,1.7-1.3,2.9-1.3c1,0,1.9,0.3,2.5,0.9c0.7,0.6,1,1.4,0.9,2.2
		l0,0H328c0-0.5-0.2-1-0.6-1.4c-0.4-0.4-0.9-0.6-1.4-0.6c-0.8,0-1.4,0.3-1.8,0.9c-0.4,0.6-0.5,1.3-0.5,2.2v0.3
		c0,0.9,0.2,1.7,0.5,2.3c0.4,0.6,1,0.9,1.8,0.9c0.5,0,1-0.2,1.4-0.5c0.4-0.3,0.6-0.7,0.6-1.2h1.4l0,0c0,0.8-0.3,1.4-1,2
		c-0.7,0.6-1.5,0.9-2.4,0.9c-1.3,0-2.3-0.4-2.9-1.3C322.3,968.5,322,967.5,322,966.2z M324.8,973.2c0.4,0,0.7-0.1,0.9-0.2
		c0.2-0.1,0.4-0.3,0.4-0.6c0-0.3-0.1-0.4-0.3-0.5c-0.2-0.1-0.5-0.2-1-0.2l0.3-1.1h1.1l-0.1,0.4c0.4,0.1,0.6,0.2,0.9,0.4
		c0.2,0.2,0.3,0.6,0.3,1c0,0.5-0.2,0.9-0.6,1.2c-0.4,0.3-1,0.5-1.8,0.5L324.8,973.2z"/>
	<path fill="#FFFFFF" d="M330.9,968c0-0.8,0.3-1.5,1-2c0.7-0.5,1.6-0.7,2.8-0.7h1.7v-0.9c0-0.5-0.2-0.9-0.5-1.2s-0.8-0.5-1.3-0.5
		c-0.5,0-0.9,0.1-1.3,0.4c-0.3,0.3-0.5,0.6-0.5,0.9h-1.6l0,0c0-0.6,0.3-1.2,0.9-1.8c0.6-0.5,1.5-0.8,2.5-0.8c1,0,1.8,0.3,2.4,0.8
		c0.6,0.5,0.9,1.2,0.9,2.2v4.2c0,0.3,0,0.6,0,0.9c0,0.3,0.1,0.6,0.2,0.9h-1.7c-0.1-0.3-0.1-0.5-0.1-0.7c0-0.2,0-0.4-0.1-0.6
		c-0.3,0.4-0.7,0.8-1.2,1.1c-0.5,0.3-1,0.4-1.6,0.4c-0.9,0-1.6-0.2-2.1-0.7C331.2,969.4,330.9,968.8,330.9,968z M331.8,959.8
		c0-0.5,0.2-1,0.5-1.3c0.3-0.4,0.7-0.6,1.2-0.6c0.3,0,0.7,0.1,1.1,0.4c0.5,0.3,0.8,0.4,1.1,0.4c0.2,0,0.4-0.1,0.6-0.3
		s0.2-0.4,0.2-0.6l0.9,0.3c0,0.5-0.2,0.9-0.5,1.3c-0.3,0.4-0.7,0.5-1.2,0.5c-0.4,0-0.8-0.1-1.2-0.4c-0.4-0.3-0.8-0.4-1-0.4
		c-0.2,0-0.4,0.1-0.6,0.3c-0.2,0.2-0.2,0.4-0.2,0.6L331.8,959.8z M332.5,968c0,0.4,0.1,0.7,0.4,0.9c0.2,0.2,0.6,0.3,1.1,0.3
		c0.6,0,1.1-0.1,1.6-0.4c0.5-0.3,0.8-0.6,0.9-1v-1.4h-1.8c-0.6,0-1.2,0.2-1.6,0.5C332.7,967.2,332.5,967.6,332.5,968z"/>
	<path fill="#FFFFFF" d="M340,966.1v-0.2c0-1.3,0.4-2.4,1.1-3.2c0.7-0.8,1.7-1.3,2.9-1.3c1.2,0,2.2,0.4,2.9,1.3
		c0.7,0.8,1.1,1.9,1.1,3.2v0.2c0,1.3-0.4,2.4-1.1,3.2c-0.7,0.8-1.7,1.3-2.9,1.3c-1.2,0-2.2-0.4-2.9-1.3
		C340.4,968.5,340,967.4,340,966.1z M341.6,966.1c0,0.9,0.2,1.7,0.6,2.3c0.4,0.6,1,0.9,1.8,0.9c0.8,0,1.3-0.3,1.7-0.9
		c0.4-0.6,0.6-1.4,0.6-2.3v-0.2c0-0.9-0.2-1.7-0.6-2.3c-0.4-0.6-1-0.9-1.8-0.9c-0.8,0-1.3,0.3-1.7,0.9c-0.4,0.6-0.6,1.4-0.6,2.3
		V966.1z"/>
	<path fill="#FFFFFF" d="M350,970.4v-1.6h1.6v1.6H350z"/>
</g>
</svg>
