<?xml version="1.0" encoding="utf-8"?>
<!-- Generator: Adobe Illustrator 16.0.0, SVG Export Plug-In . SVG Version: 6.00 Build 0)  -->
<!DOCTYPE svg PUBLIC "-//W3C//DTD SVG 1.1//EN" "http://www.w3.org/Graphics/SVG/1.1/DTD/svg11.dtd">
<svg version="1.1" id="Camada_1" xmlns="http://www.w3.org/2000/svg" xmlns:xlink="http://www.w3.org/1999/xlink" x="0px" y="0px"
	 width="239.085px" height="118px" viewBox="0 0 239.085 118" enable-background="new 0 0 239.085 118" xml:space="preserve">
<g>
	<g>
		<path fill="#F4D256" d="M21.604,80.885v-3.092h23.915v3.092c0,0-2.709,2.209-11.958,2.209
			C24.313,83.094,21.604,80.885,21.604,80.885z"/>
		<path fill="#DC9928" d="M45.519,77.793c0,1.279-5.354,2.316-11.958,2.316s-11.957-1.037-11.957-2.316
			c0-1.283,5.354-2.318,11.957-2.318C40.165,75.475,45.519,76.51,45.519,77.793z"/>
	</g>
	<g>
		<g>
			<path fill="#F4D256" d="M35.095,77.271c-0.22-0.002-0.396,0.035-0.524,0.112c-0.133,0.077-0.259,0.214-0.382,0.412
				c-0.215,0.374-0.479,0.651-0.786,0.83c-0.314,0.181-0.759,0.272-1.322,0.272c-0.52-0.002-0.926-0.094-1.211-0.275
				c-0.275-0.182-0.396-0.432-0.363-0.744l-0.912-0.003l0.14-0.397l0.895,0.004c0.152-0.303,0.399-0.537,0.743-0.705
				c0.333-0.17,0.73-0.248,1.199-0.238l0.018,0.005l-0.09,0.713c-0.293-0.002-0.527,0.037-0.7,0.119
				c-0.176,0.081-0.28,0.196-0.311,0.347c-0.032,0.155,0.017,0.271,0.145,0.34c0.127,0.071,0.313,0.106,0.557,0.106
				c0.221,0.001,0.405-0.035,0.546-0.108c0.14-0.074,0.292-0.217,0.455-0.424c0.218-0.367,0.463-0.642,0.738-0.822
				c0.267-0.18,0.627-0.268,1.087-0.264c0.44,0.004,0.808,0.098,1.108,0.276c0.311,0.182,0.53,0.425,0.656,0.733l0.816,0.004
				l0.121,0.392l-0.843-0.003c0.025,0.314-0.104,0.572-0.395,0.773c-0.302,0.205-0.788,0.303-1.454,0.297l-0.028-0.008l-0.055-0.703
				c0.376,0.002,0.638-0.051,0.782-0.152c0.142-0.104,0.198-0.237,0.172-0.4c-0.026-0.162-0.11-0.283-0.254-0.365
				C35.502,77.313,35.319,77.271,35.095,77.271z"/>
		</g>
	</g>
</g>
<g>
	<g>
		<g>
			<path fill="#F4D256" d="M76.477,81.178v-3.096h23.916v3.096c0,0-2.709,2.207-11.957,2.207S76.477,81.178,76.477,81.178z"/>
			<path fill="#DC9928" d="M100.393,78.082c0,1.283-5.354,2.32-11.957,2.32c-6.604,0-11.959-1.037-11.959-2.32
				c0-1.277,5.354-2.316,11.959-2.316C95.039,75.766,100.393,76.805,100.393,78.082z"/>
		</g>
		<g>
			<g>
				<path fill="#F4D256" d="M89.969,77.563c-0.221,0-0.396,0.037-0.525,0.112c-0.133,0.077-0.258,0.218-0.381,0.414
					c-0.215,0.374-0.479,0.649-0.785,0.831c-0.315,0.18-0.76,0.27-1.322,0.27c-0.52,0-0.928-0.09-1.212-0.271
					c-0.274-0.184-0.394-0.434-0.361-0.744l-0.913-0.003l0.141-0.401l0.895,0.006c0.152-0.303,0.4-0.535,0.743-0.705
					c0.333-0.168,0.729-0.248,1.198-0.237l0.018,0.005l-0.089,0.712c-0.293-0.002-0.526,0.037-0.7,0.12
					c-0.176,0.081-0.279,0.196-0.311,0.346c-0.031,0.156,0.016,0.271,0.145,0.342c0.129,0.07,0.314,0.105,0.557,0.105
					c0.224,0.001,0.406-0.035,0.547-0.109c0.14-0.074,0.291-0.215,0.455-0.424c0.218-0.367,0.465-0.642,0.738-0.82
					c0.266-0.18,0.629-0.269,1.088-0.264c0.439,0.004,0.809,0.096,1.107,0.275c0.311,0.182,0.529,0.426,0.654,0.734l0.818,0.004
					l0.12,0.39l-0.844-0.003c0.024,0.314-0.104,0.572-0.396,0.775c-0.301,0.203-0.787,0.301-1.453,0.295l-0.028-0.008l-0.054-0.703
					c0.375,0,0.638-0.051,0.781-0.151c0.144-0.104,0.199-0.236,0.174-0.401c-0.026-0.16-0.11-0.283-0.254-0.363
					C90.375,77.605,90.191,77.564,89.969,77.563z"/>
			</g>
		</g>
	</g>
	<g>
		<g>
			<path fill="#F4D256" d="M76.477,77.514v-3.093h23.916v3.093c0,0-2.709,2.209-11.957,2.209S76.477,77.514,76.477,77.514z"/>
			<ellipse fill="#DC9928" cx="88.436" cy="74.421" rx="11.957" ry="2.319"/>
		</g>
		<g>
			<g>
				<path fill="#F4D256" d="M89.969,73.898c-0.221-0.002-0.396,0.037-0.525,0.113c-0.133,0.077-0.258,0.215-0.381,0.413
					c-0.215,0.373-0.479,0.649-0.785,0.831c-0.315,0.18-0.76,0.271-1.322,0.271c-0.52-0.002-0.928-0.094-1.213-0.273
					c-0.274-0.186-0.395-0.432-0.361-0.745l-0.913-0.003l0.142-0.4l0.894,0.004c0.151-0.301,0.399-0.534,0.743-0.703
					c0.333-0.166,0.729-0.246,1.197-0.237l0.019,0.005l-0.089,0.711c-0.293-0.002-0.527,0.039-0.7,0.121
					c-0.176,0.081-0.28,0.196-0.31,0.344c-0.032,0.157,0.015,0.271,0.144,0.344c0.128,0.07,0.313,0.104,0.558,0.104
					c0.223,0.001,0.406-0.034,0.545-0.108c0.141-0.074,0.293-0.215,0.457-0.424c0.217-0.367,0.463-0.641,0.738-0.822
					c0.266-0.18,0.627-0.268,1.086-0.264c0.44,0.004,0.81,0.098,1.108,0.276c0.31,0.181,0.528,0.426,0.655,0.733l0.816,0.004
					l0.121,0.391l-0.844-0.003c0.025,0.315-0.104,0.573-0.395,0.776c-0.302,0.203-0.789,0.301-1.455,0.295l-0.028-0.008
					l-0.056-0.703c0.377,0,0.64-0.051,0.783-0.152c0.143-0.104,0.198-0.236,0.172-0.4c-0.025-0.162-0.109-0.283-0.254-0.363
					C90.375,73.941,90.191,73.9,89.969,73.898z"/>
			</g>
		</g>
	</g>
	<g>
		<g>
			<path fill="#F4D256" d="M76.477,73.85v-3.091h23.916v3.091c0,0-2.709,2.209-11.957,2.209S76.477,73.85,76.477,73.85z"/>
			<ellipse fill="#DC9928" cx="88.436" cy="70.759" rx="11.957" ry="2.317"/>
		</g>
		<g>
			<g>
				<path fill="#F4D256" d="M89.969,70.236c-0.221,0-0.396,0.037-0.525,0.113c-0.133,0.078-0.258,0.215-0.381,0.412
					c-0.215,0.375-0.479,0.65-0.785,0.832c-0.315,0.18-0.76,0.27-1.322,0.27c-0.52,0-0.928-0.092-1.212-0.272
					c-0.274-0.184-0.394-0.432-0.361-0.743l-0.913-0.004l0.141-0.4l0.895,0.004c0.152-0.301,0.4-0.534,0.744-0.704
					c0.333-0.166,0.729-0.246,1.197-0.237l0.018,0.006l-0.089,0.713c-0.293-0.002-0.526,0.037-0.7,0.118
					c-0.176,0.081-0.279,0.196-0.311,0.347c-0.031,0.156,0.016,0.271,0.145,0.34c0.129,0.072,0.314,0.107,0.557,0.107
					c0.224,0,0.406-0.035,0.547-0.109c0.14-0.074,0.291-0.215,0.455-0.424c0.218-0.367,0.465-0.642,0.738-0.822
					c0.266-0.18,0.629-0.268,1.088-0.264c0.439,0.004,0.809,0.098,1.107,0.277c0.311,0.182,0.529,0.426,0.654,0.732l0.818,0.004
					l0.12,0.392l-0.844-0.003c0.026,0.314-0.104,0.572-0.396,0.773c-0.301,0.205-0.787,0.304-1.453,0.297l-0.028-0.008l-0.056-0.703
					c0.377,0,0.639-0.051,0.783-0.152c0.143-0.104,0.198-0.234,0.172-0.4c-0.025-0.16-0.109-0.283-0.254-0.363
					C90.375,70.279,90.191,70.238,89.969,70.236z"/>
			</g>
		</g>
	</g>
</g>
<g>
	<g>
		<g>
			<path fill="#F4D256" d="M131.514,81.635v-3.092h23.914v3.092c0,0-2.71,2.211-11.957,2.211
				C134.223,83.846,131.514,81.635,131.514,81.635z"/>
			<ellipse fill="#DC9928" cx="143.471" cy="78.543" rx="11.957" ry="2.318"/>
		</g>
		<g>
			<g>
				<path fill="#F4D256" d="M145.006,78.021c-0.221-0.002-0.396,0.037-0.525,0.113c-0.133,0.078-0.26,0.215-0.383,0.413
					c-0.214,0.372-0.478,0.649-0.785,0.83c-0.313,0.181-0.758,0.271-1.32,0.271c-0.52,0-0.928-0.092-1.213-0.273
					c-0.274-0.184-0.396-0.432-0.361-0.744l-0.913-0.003l0.142-0.399l0.896,0.004c0.151-0.301,0.399-0.535,0.741-0.705
					c0.335-0.166,0.73-0.246,1.199-0.236l0.018,0.005l-0.089,0.711c-0.294-0.002-0.527,0.037-0.7,0.12
					c-0.176,0.082-0.279,0.197-0.311,0.348c-0.031,0.155,0.017,0.27,0.145,0.34s0.314,0.105,0.557,0.105
					c0.224,0.001,0.406-0.035,0.547-0.107c0.141-0.076,0.291-0.217,0.455-0.426c0.219-0.365,0.463-0.64,0.737-0.82
					c0.269-0.18,0.628-0.269,1.089-0.264c0.439,0.004,0.807,0.098,1.107,0.275c0.311,0.181,0.529,0.426,0.654,0.734l0.815,0.004
					l0.12,0.39l-0.843-0.003c0.026,0.316-0.103,0.572-0.394,0.775c-0.304,0.203-0.789,0.301-1.455,0.295l-0.028-0.006l-0.056-0.705
					c0.377,0,0.64-0.049,0.783-0.151c0.143-0.104,0.199-0.236,0.174-0.399c-0.026-0.162-0.111-0.283-0.256-0.365
					C145.411,78.063,145.229,78.021,145.006,78.021z"/>
			</g>
		</g>
	</g>
	<g>
		<g>
			<path fill="#F4D256" d="M131.496,77.791l0.025-3.094l23.914,0.191l-0.025,3.096c0,0-2.727,2.188-11.975,2.111
				S131.496,77.791,131.496,77.791z"/>
			<ellipse transform="matrix(0.008 -1 1 0.008 67.5408 217.676)" fill="#DC9928" cx="143.482" cy="74.796" rx="2.32" ry="11.958"/>
		</g>
		<g>
			<g>
				<path fill="#F4D256" d="M145.027,74.286c-0.221-0.003-0.396,0.034-0.525,0.11c-0.133,0.076-0.262,0.213-0.389,0.41
					c-0.219,0.373-0.486,0.647-0.797,0.826c-0.317,0.18-0.762,0.27-1.324,0.268c-0.52-0.004-0.924-0.098-1.205-0.28
					c-0.271-0.185-0.387-0.435-0.35-0.747l-0.91-0.007l0.146-0.399l0.891,0.008c0.158-0.302,0.406-0.533,0.752-0.701
					c0.334-0.166,0.729-0.242,1.197-0.231l0.02,0.005l-0.1,0.713c-0.293-0.005-0.526,0.034-0.699,0.117
					c-0.178,0.08-0.282,0.193-0.313,0.344c-0.032,0.155,0.013,0.271,0.14,0.342c0.125,0.071,0.313,0.106,0.553,0.108
					c0.223,0.002,0.406-0.034,0.547-0.106c0.143-0.072,0.295-0.215,0.461-0.422c0.223-0.367,0.472-0.638,0.75-0.816
					c0.268-0.18,0.63-0.266,1.09-0.26c0.439,0.006,0.809,0.103,1.107,0.283c0.308,0.182,0.523,0.426,0.646,0.735l0.817,0.008
					l0.117,0.39l-0.848-0.006c0.022,0.315-0.111,0.572-0.406,0.772c-0.307,0.203-0.795,0.299-1.461,0.289l-0.029-0.009l-0.041-0.701
					c0.375,0.001,0.639-0.049,0.785-0.15c0.144-0.101,0.203-0.234,0.178-0.398c-0.021-0.161-0.105-0.282-0.248-0.364
					C145.436,74.33,145.253,74.288,145.027,74.286z"/>
			</g>
		</g>
	</g>
	<g>
		<g>
			<path fill="#F4D256" d="M131.514,74.139v-3.091h23.914v3.091c0,0-2.71,2.211-11.957,2.211
				C134.223,76.35,131.514,74.139,131.514,74.139z"/>
			<ellipse fill="#DC9928" cx="143.471" cy="71.048" rx="11.957" ry="2.317"/>
		</g>
		<g>
			<g>
				<path fill="#F4D256" d="M145.006,70.525c-0.221-0.002-0.396,0.035-0.525,0.113c-0.133,0.076-0.26,0.213-0.383,0.41
					c-0.214,0.373-0.477,0.651-0.785,0.831c-0.313,0.181-0.758,0.271-1.32,0.271c-0.52,0-0.928-0.092-1.213-0.273
					c-0.274-0.184-0.396-0.432-0.361-0.744l-0.913-0.003l0.142-0.399l0.896,0.004c0.151-0.301,0.399-0.534,0.741-0.703
					c0.335-0.17,0.73-0.247,1.199-0.239l0.018,0.005l-0.089,0.715c-0.294-0.003-0.527,0.036-0.7,0.117
					c-0.176,0.082-0.279,0.197-0.311,0.348c-0.031,0.156,0.018,0.27,0.145,0.34c0.128,0.07,0.314,0.105,0.557,0.105
					c0.224,0.001,0.406-0.035,0.547-0.107c0.141-0.076,0.291-0.215,0.455-0.426c0.219-0.367,0.463-0.641,0.737-0.82
					c0.269-0.18,0.628-0.268,1.089-0.264c0.439,0.004,0.807,0.096,1.107,0.276c0.311,0.181,0.529,0.425,0.654,0.733l0.815,0.004
					l0.12,0.391l-0.843-0.003c0.026,0.315-0.104,0.571-0.394,0.776c-0.304,0.201-0.789,0.301-1.455,0.293l-0.028-0.006l-0.056-0.703
					c0.377,0,0.64-0.051,0.783-0.153c0.143-0.103,0.199-0.235,0.174-0.397s-0.113-0.285-0.256-0.367
					C145.411,70.566,145.229,70.525,145.006,70.525z"/>
			</g>
		</g>
	</g>
	<g>
		<g>
			<path fill="#F4D256" d="M131.514,70.393V67.3h23.914v3.093c0,0-2.71,2.207-11.957,2.207
				C134.223,72.6,131.514,70.393,131.514,70.393z"/>
			<path fill="#DC9928" d="M155.428,67.3c0,1.28-5.354,2.317-11.957,2.317c-6.603,0-11.957-1.037-11.957-2.317
				c0-1.282,5.354-2.321,11.957-2.321C150.074,64.979,155.428,66.018,155.428,67.3z"/>
		</g>
		<g>
			<g>
				<path fill="#F4D256" d="M145.006,66.777c-0.221,0-0.396,0.037-0.525,0.113c-0.133,0.076-0.26,0.215-0.383,0.412
					c-0.214,0.373-0.477,0.65-0.785,0.831c-0.313,0.181-0.758,0.271-1.32,0.271c-0.52,0-0.928-0.092-1.213-0.272
					c-0.274-0.185-0.396-0.432-0.361-0.743l-0.913-0.004l0.142-0.4l0.896,0.004c0.151-0.301,0.399-0.534,0.741-0.702
					c0.335-0.168,0.73-0.248,1.199-0.239l0.018,0.006l-0.089,0.713c-0.294-0.002-0.527,0.037-0.7,0.118
					c-0.176,0.081-0.279,0.197-0.311,0.347c-0.031,0.156,0.017,0.271,0.145,0.34c0.129,0.07,0.314,0.107,0.557,0.107
					c0.224,0,0.406-0.037,0.547-0.111c0.141-0.072,0.291-0.213,0.455-0.422c0.219-0.369,0.463-0.643,0.737-0.822
					c0.269-0.18,0.628-0.268,1.089-0.264c0.439,0.004,0.807,0.098,1.107,0.277c0.311,0.18,0.529,0.426,0.654,0.732l0.815,0.004
					l0.12,0.39l-0.843-0.003c0.026,0.316-0.104,0.573-0.394,0.775c-0.304,0.203-0.789,0.304-1.455,0.297l-0.028-0.008l-0.056-0.703
					c0.377,0,0.64-0.051,0.783-0.153c0.143-0.103,0.199-0.235,0.174-0.399c-0.025-0.16-0.111-0.283-0.256-0.363
					C145.411,66.82,145.229,66.779,145.006,66.777z"/>
			</g>
		</g>
	</g>
</g>
<g>
	<g>
		<g>
			<path fill="#F4D256" d="M187.074,81.697v-3.092h23.916v3.092c0,0-2.711,2.212-11.958,2.212
				C189.784,83.909,187.074,81.697,187.074,81.697z"/>
			<ellipse fill="#DC9928" cx="199.032" cy="78.606" rx="11.958" ry="2.319"/>
		</g>
		<g>
			<g>
				<path fill="#F4D256" d="M200.566,78.086c-0.221-0.001-0.396,0.036-0.525,0.113c-0.132,0.078-0.258,0.215-0.382,0.412
					c-0.216,0.373-0.478,0.65-0.785,0.83c-0.315,0.182-0.758,0.271-1.321,0.271c-0.52-0.001-0.926-0.092-1.211-0.273
					c-0.275-0.184-0.396-0.431-0.363-0.744l-0.912-0.004l0.142-0.398l0.894,0.004c0.152-0.301,0.401-0.535,0.744-0.704
					c0.332-0.167,0.73-0.247,1.198-0.237l0.017,0.006l-0.088,0.711c-0.295-0.002-0.527,0.037-0.699,0.119
					c-0.178,0.082-0.28,0.197-0.312,0.347c-0.032,0.157,0.017,0.271,0.144,0.341c0.129,0.07,0.314,0.105,0.558,0.105
					c0.223,0,0.405-0.035,0.546-0.108s0.291-0.216,0.456-0.424c0.219-0.366,0.464-0.64,0.737-0.82
					c0.267-0.181,0.629-0.269,1.088-0.265c0.439,0.004,0.808,0.097,1.107,0.275c0.312,0.182,0.53,0.426,0.655,0.734l0.815,0.004
					l0.121,0.391l-0.844-0.004c0.025,0.315-0.104,0.574-0.396,0.776c-0.302,0.203-0.787,0.302-1.453,0.295l-0.029-0.008
					l-0.055-0.703c0.378,0.001,0.639-0.049,0.782-0.153c0.144-0.102,0.199-0.233,0.173-0.399c-0.025-0.161-0.11-0.283-0.255-0.363
					C200.975,78.129,200.791,78.087,200.566,78.086z"/>
			</g>
		</g>
	</g>
	<g>
		<g>
			<path fill="#F4D256" d="M187.074,77.955v-3.094h23.916v3.094c0,0-2.711,2.208-11.958,2.208
				C189.784,80.163,187.074,77.955,187.074,77.955z"/>
			<ellipse fill="#DC9928" cx="199.032" cy="74.862" rx="11.958" ry="2.32"/>
		</g>
		<g>
			<g>
				<path fill="#F4D256" d="M200.566,74.342c-0.221-0.001-0.396,0.036-0.525,0.112c-0.132,0.077-0.258,0.215-0.382,0.413
					c-0.216,0.371-0.478,0.648-0.785,0.83c-0.315,0.18-0.758,0.271-1.321,0.271c-0.52-0.002-0.926-0.094-1.212-0.275
					c-0.274-0.184-0.396-0.432-0.362-0.743l-0.912-0.003l0.141-0.399l0.895,0.005c0.152-0.303,0.401-0.537,0.744-0.705
					c0.332-0.168,0.729-0.246,1.198-0.236l0.017,0.004l-0.088,0.713c-0.296-0.002-0.529,0.037-0.699,0.117
					c-0.178,0.082-0.28,0.197-0.312,0.348c-0.032,0.156,0.015,0.271,0.144,0.34c0.129,0.071,0.314,0.105,0.558,0.105
					c0.224,0.002,0.405-0.034,0.546-0.108c0.141-0.073,0.291-0.214,0.456-0.423c0.219-0.367,0.464-0.641,0.737-0.82
					c0.267-0.182,0.629-0.27,1.088-0.266c0.439,0.004,0.808,0.097,1.107,0.277c0.312,0.181,0.53,0.424,0.655,0.732l0.815,0.004
					l0.121,0.391l-0.844-0.002c0.025,0.314-0.104,0.572-0.396,0.775c-0.302,0.202-0.787,0.301-1.453,0.294l-0.029-0.007
					l-0.055-0.704c0.378,0.001,0.64-0.049,0.782-0.153c0.144-0.101,0.199-0.233,0.174-0.397c-0.026-0.162-0.11-0.283-0.254-0.364
					C200.975,74.383,200.791,74.344,200.566,74.342z"/>
			</g>
		</g>
	</g>
	<g>
		<g>
			<path fill="#F4D256" d="M187.074,74.209v-3.093h23.916v3.093c0,0-2.711,2.21-11.958,2.21
				C189.784,76.419,187.074,74.209,187.074,74.209z"/>
			<ellipse fill="#DC9928" cx="199.032" cy="71.116" rx="11.958" ry="2.32"/>
		</g>
		<g>
			<g>
				<path fill="#F4D256" d="M200.566,70.596c-0.221,0-0.396,0.037-0.525,0.113c-0.132,0.077-0.258,0.217-0.382,0.414
					c-0.216,0.373-0.478,0.65-0.785,0.83c-0.315,0.181-0.758,0.271-1.321,0.271c-0.52,0-0.926-0.093-1.211-0.274
					c-0.275-0.183-0.396-0.433-0.363-0.745l-0.912-0.003l0.142-0.399l0.896,0.006c0.151-0.303,0.399-0.535,0.742-0.705
					c0.332-0.168,0.73-0.248,1.198-0.237l0.017,0.005l-0.088,0.711c-0.295-0.002-0.527,0.038-0.699,0.12
					c-0.178,0.082-0.28,0.196-0.312,0.346c-0.032,0.157,0.017,0.271,0.144,0.343c0.129,0.069,0.314,0.105,0.558,0.105
					c0.223,0.001,0.405-0.035,0.546-0.109s0.291-0.216,0.456-0.424c0.219-0.367,0.464-0.643,0.737-0.82
					c0.267-0.181,0.629-0.269,1.088-0.265c0.439,0.004,0.808,0.095,1.107,0.274c0.312,0.183,0.53,0.426,0.655,0.736l0.815,0.004
					l0.121,0.39l-0.844-0.003c0.025,0.314-0.104,0.572-0.396,0.775c-0.302,0.203-0.787,0.301-1.453,0.295l-0.029-0.009l-0.055-0.702
					c0.378,0,0.639-0.05,0.782-0.152c0.144-0.104,0.199-0.236,0.173-0.4c-0.025-0.162-0.11-0.283-0.255-0.365
					C200.975,70.641,200.791,70.598,200.566,70.596z"/>
			</g>
		</g>
	</g>
	<g>
		<g>
			<path fill="#F4D256" d="M187.074,70.465v-3.092h23.916v3.092c0,0-2.711,2.208-11.958,2.208
				C189.784,72.673,187.074,70.465,187.074,70.465z"/>
			<ellipse fill="#DC9928" cx="199.032" cy="67.373" rx="11.958" ry="2.316"/>
		</g>
		<g>
			<g>
				<path fill="#F4D256" d="M200.566,66.852c-0.221-0.002-0.396,0.037-0.525,0.113c-0.132,0.077-0.258,0.215-0.382,0.412
					c-0.216,0.373-0.478,0.65-0.785,0.831c-0.315,0.181-0.758,0.271-1.321,0.271c-0.52,0-0.926-0.092-1.211-0.273
					c-0.275-0.184-0.396-0.434-0.363-0.744l-0.912-0.003l0.142-0.401l0.896,0.006c0.15-0.301,0.399-0.535,0.742-0.705
					c0.332-0.166,0.73-0.248,1.198-0.237l0.017,0.006l-0.088,0.711c-0.296-0.002-0.529,0.039-0.699,0.12
					c-0.178,0.082-0.28,0.197-0.312,0.346c-0.032,0.156,0.017,0.27,0.144,0.342c0.129,0.069,0.314,0.106,0.558,0.106
					c0.222,0.001,0.405-0.038,0.546-0.11c0.141-0.074,0.291-0.215,0.456-0.422c0.219-0.369,0.464-0.643,0.737-0.822
					c0.267-0.181,0.629-0.269,1.088-0.265c0.439,0.005,0.808,0.099,1.107,0.276c0.312,0.181,0.53,0.426,0.655,0.734l0.815,0.004
					l0.121,0.39l-0.844-0.003c0.025,0.314-0.104,0.572-0.396,0.775c-0.302,0.203-0.787,0.301-1.453,0.295l-0.029-0.006l-0.055-0.705
					c0.378,0,0.639-0.051,0.782-0.152s0.199-0.235,0.173-0.399c-0.025-0.161-0.109-0.282-0.255-0.364
					C200.975,66.895,200.791,66.854,200.566,66.852z"/>
			</g>
		</g>
	</g>
	<g>
		<g>
			<path fill="#F4D256" d="M187.074,66.721v-3.094h23.916v3.094c0,0-2.711,2.209-11.958,2.209
				C189.784,68.93,187.074,66.721,187.074,66.721z"/>
			<ellipse fill="#DC9928" cx="199.032" cy="63.627" rx="11.958" ry="2.32"/>
		</g>
		<g>
			<g>
				<path fill="#F4D256" d="M200.566,63.105c-0.221-0.002-0.396,0.037-0.525,0.115c-0.132,0.076-0.258,0.215-0.382,0.411
					c-0.216,0.374-0.478,0.649-0.785,0.83c-0.315,0.181-0.758,0.271-1.321,0.271c-0.52,0-0.926-0.092-1.211-0.273
					c-0.275-0.184-0.396-0.432-0.363-0.743l-0.912-0.003l0.141-0.4l0.895,0.004c0.152-0.301,0.401-0.535,0.744-0.705
					c0.332-0.168,0.73-0.246,1.198-0.236l0.017,0.004l-0.088,0.712c-0.295-0.002-0.527,0.039-0.699,0.121
					c-0.178,0.081-0.28,0.197-0.312,0.347c-0.032,0.155,0.017,0.27,0.144,0.34c0.129,0.07,0.314,0.105,0.558,0.105
					c0.224,0.001,0.405-0.035,0.546-0.109c0.141-0.072,0.291-0.213,0.456-0.422c0.219-0.367,0.464-0.643,0.737-0.822
					c0.267-0.18,0.629-0.268,1.088-0.264c0.439,0.004,0.808,0.096,1.107,0.276c0.312,0.181,0.53,0.425,0.655,0.733l0.815,0.004
					l0.121,0.39l-0.844-0.003c0.025,0.316-0.104,0.574-0.396,0.775c-0.302,0.203-0.787,0.304-1.453,0.297l-0.029-0.008l-0.055-0.703
					c0.378,0,0.639-0.051,0.782-0.153s0.199-0.236,0.173-0.399c-0.025-0.162-0.109-0.283-0.255-0.365
					C200.975,63.148,200.791,63.107,200.566,63.105z"/>
			</g>
		</g>
	</g>
	<g>
		<g>
			<path fill="#F4D256" d="M187.074,62.975v-3.092h23.916v3.092c0,0-2.711,2.211-11.958,2.211
				C189.784,65.186,187.074,62.975,187.074,62.975z"/>
			<ellipse fill="#DC9928" cx="199.032" cy="59.883" rx="11.958" ry="2.317"/>
		</g>
		<g>
			<g>
				<path fill="#F4D256" d="M200.566,59.361c-0.221-0.002-0.396,0.036-0.525,0.113c-0.132,0.077-0.258,0.215-0.382,0.413
					c-0.216,0.373-0.478,0.649-0.785,0.83c-0.315,0.18-0.758,0.271-1.321,0.271c-0.52-0.002-0.926-0.092-1.211-0.273
					c-0.275-0.184-0.396-0.431-0.363-0.744l-0.912-0.002l0.142-0.402l0.896,0.006c0.15-0.301,0.399-0.535,0.742-0.704
					c0.332-0.167,0.73-0.248,1.198-0.238l0.017,0.005l-0.088,0.712c-0.296-0.002-0.529,0.039-0.699,0.12
					c-0.178,0.081-0.28,0.196-0.312,0.346c-0.032,0.156,0.017,0.271,0.144,0.342c0.129,0.07,0.314,0.105,0.558,0.105
					c0.224,0.002,0.405-0.037,0.546-0.109c0.141-0.073,0.291-0.215,0.456-0.422c0.219-0.369,0.464-0.643,0.737-0.823
					c0.267-0.18,0.629-0.268,1.088-0.264c0.439,0.004,0.808,0.097,1.107,0.277c0.312,0.18,0.53,0.425,0.655,0.733l0.815,0.004
					l0.121,0.39l-0.844-0.003c0.025,0.314-0.104,0.573-0.396,0.775c-0.302,0.203-0.787,0.303-1.453,0.295l-0.029-0.008l-0.055-0.703
					c0.378,0,0.639-0.051,0.782-0.152s0.199-0.234,0.173-0.398c-0.025-0.162-0.11-0.285-0.255-0.365
					C200.975,59.403,200.791,59.362,200.566,59.361z"/>
			</g>
		</g>
	</g>
	<g>
		<g>
			<path fill="#F4D256" d="M187.074,59.229v-3.092h23.916v3.092c0,0-2.711,2.208-11.958,2.208
				C189.784,61.438,187.074,59.229,187.074,59.229z"/>
			<ellipse fill="#DC9928" cx="199.032" cy="56.137" rx="11.958" ry="2.319"/>
		</g>
		<g>
			<g>
				<path fill="#F4D256" d="M200.566,55.616c-0.221-0.001-0.396,0.036-0.525,0.112c-0.132,0.076-0.258,0.215-0.382,0.413
					c-0.216,0.374-0.478,0.65-0.785,0.829c-0.315,0.182-0.758,0.272-1.321,0.271c-0.52,0-0.926-0.092-1.211-0.273
					c-0.275-0.182-0.396-0.431-0.363-0.744l-0.912-0.004l0.141-0.398l0.895,0.004c0.152-0.301,0.401-0.536,0.744-0.705
					c0.332-0.168,0.73-0.248,1.198-0.238l0.017,0.005l-0.088,0.714c-0.296-0.002-0.529,0.037-0.699,0.117
					c-0.178,0.082-0.28,0.197-0.312,0.348c-0.032,0.155,0.017,0.27,0.144,0.341c0.129,0.07,0.314,0.104,0.558,0.106
					c0.224,0,0.405-0.036,0.546-0.11c0.141-0.074,0.291-0.214,0.456-0.423c0.219-0.368,0.464-0.642,0.737-0.822
					c0.267-0.18,0.629-0.268,1.088-0.264c0.439,0.004,0.808,0.098,1.107,0.277c0.312,0.18,0.53,0.425,0.655,0.734l0.815,0.004
					l0.121,0.389l-0.844-0.002c0.025,0.313-0.104,0.572-0.396,0.775c-0.302,0.203-0.787,0.301-1.453,0.295l-0.029-0.007
					l-0.055-0.704c0.378,0.002,0.639-0.05,0.782-0.152c0.144-0.103,0.199-0.236,0.173-0.4c-0.025-0.16-0.109-0.283-0.255-0.364
					C200.975,55.656,200.791,55.617,200.566,55.616z"/>
			</g>
		</g>
	</g>
	<g>
		<g>
			<path fill="#F4D256" d="M187.074,55.482v-3.09h23.916v3.09c0,0-2.711,2.21-11.958,2.21
				C189.784,57.692,187.074,55.482,187.074,55.482z"/>
			<ellipse fill="#DC9928" cx="199.032" cy="52.393" rx="11.958" ry="2.317"/>
		</g>
		<g>
			<g>
				<path fill="#F4D256" d="M200.566,51.869c-0.221-0.001-0.396,0.037-0.525,0.113c-0.132,0.079-0.258,0.216-0.382,0.414
					c-0.216,0.373-0.478,0.65-0.785,0.83c-0.315,0.182-0.758,0.271-1.321,0.271c-0.52,0-0.926-0.091-1.211-0.275
					c-0.275-0.182-0.396-0.43-0.363-0.743l-0.912-0.003l0.141-0.399l0.895,0.005c0.152-0.301,0.401-0.536,0.744-0.705
					c0.332-0.168,0.73-0.247,1.198-0.238l0.017,0.005l-0.088,0.711c-0.295-0.002-0.527,0.039-0.699,0.121
					c-0.178,0.081-0.28,0.196-0.312,0.346c-0.032,0.156,0.017,0.27,0.144,0.341c0.129,0.07,0.314,0.106,0.558,0.107
					c0.223,0,0.405-0.037,0.546-0.109c0.141-0.075,0.291-0.217,0.456-0.425c0.219-0.366,0.464-0.641,0.737-0.821
					c0.267-0.18,0.629-0.268,1.088-0.264c0.439,0.004,0.808,0.096,1.107,0.275c0.312,0.181,0.53,0.426,0.655,0.735l0.815,0.004
					l0.121,0.39l-0.844-0.004c0.025,0.316-0.104,0.574-0.396,0.777c-0.302,0.203-0.787,0.301-1.453,0.295l-0.029-0.008l-0.055-0.703
					c0.378,0,0.639-0.051,0.782-0.152c0.144-0.104,0.199-0.236,0.173-0.401c-0.025-0.162-0.11-0.283-0.255-0.364
					C200.975,51.914,200.791,51.871,200.566,51.869z"/>
			</g>
		</g>
	</g>
	<g>
		<g>
			<path fill="#F4D256" d="M187.074,51.738v-3.092h23.916v3.092c0,0-2.711,2.208-11.958,2.208
				C189.784,53.946,187.074,51.738,187.074,51.738z"/>
			<ellipse fill="#DC9928" cx="199.032" cy="48.646" rx="11.958" ry="2.319"/>
		</g>
		<g>
			<g>
				<path fill="#F4D256" d="M200.566,48.126c-0.221-0.001-0.396,0.035-0.525,0.112c-0.132,0.077-0.258,0.215-0.382,0.414
					c-0.216,0.371-0.478,0.648-0.785,0.829c-0.315,0.181-0.758,0.271-1.321,0.271c-0.52,0-0.926-0.092-1.212-0.273
					c-0.274-0.184-0.396-0.431-0.362-0.744l-0.912-0.003l0.141-0.399l0.895,0.004c0.152-0.301,0.401-0.536,0.744-0.704
					c0.332-0.167,0.729-0.247,1.198-0.238l0.017,0.004l-0.088,0.714c-0.296-0.002-0.529,0.037-0.699,0.118
					c-0.178,0.081-0.28,0.196-0.312,0.347c-0.032,0.155,0.017,0.27,0.144,0.34c0.129,0.07,0.314,0.106,0.558,0.107
					c0.224,0,0.405-0.036,0.546-0.109c0.141-0.075,0.291-0.215,0.456-0.424c0.219-0.367,0.464-0.642,0.737-0.822
					c0.267-0.18,0.629-0.268,1.088-0.264c0.439,0.004,0.808,0.097,1.107,0.277c0.312,0.181,0.53,0.425,0.655,0.734l0.815,0.004
					l0.121,0.391l-0.844-0.003c0.025,0.315-0.104,0.572-0.396,0.776c-0.302,0.202-0.787,0.3-1.453,0.294l-0.029-0.007l-0.055-0.704
					c0.378,0,0.64-0.05,0.782-0.152c0.144-0.102,0.199-0.236,0.173-0.4c-0.025-0.162-0.109-0.283-0.253-0.363
					C200.975,48.168,200.791,48.127,200.566,48.126z"/>
			</g>
		</g>
	</g>
	<g>
		<g>
			<path fill="#F4D256" d="M187.074,47.992V44.9h23.916v3.092c0,0-2.711,2.211-11.958,2.211
				C189.784,50.203,187.074,47.992,187.074,47.992z"/>
			<ellipse fill="#DC9928" cx="199.032" cy="44.9" rx="11.958" ry="2.319"/>
		</g>
		<g>
			<g>
				<path fill="#F4D256" d="M200.566,44.38c-0.221-0.001-0.396,0.036-0.525,0.113c-0.132,0.078-0.258,0.216-0.382,0.414
					c-0.216,0.373-0.478,0.65-0.785,0.83c-0.315,0.181-0.758,0.272-1.321,0.272c-0.52,0-0.926-0.092-1.211-0.275
					c-0.275-0.182-0.396-0.431-0.363-0.744l-0.912-0.003l0.142-0.399l0.894,0.004c0.152-0.301,0.401-0.536,0.744-0.705
					c0.332-0.168,0.73-0.247,1.198-0.238l0.017,0.005l-0.088,0.711c-0.295-0.001-0.527,0.039-0.699,0.121
					c-0.178,0.081-0.28,0.195-0.312,0.345c-0.032,0.157,0.017,0.271,0.144,0.341c0.129,0.071,0.314,0.106,0.558,0.106
					c0.223,0,0.405-0.036,0.546-0.109c0.141-0.074,0.291-0.216,0.456-0.424c0.219-0.367,0.464-0.641,0.737-0.821
					c0.267-0.18,0.629-0.268,1.088-0.264c0.439,0.004,0.808,0.096,1.107,0.275c0.312,0.182,0.53,0.425,0.655,0.735l0.815,0.004
					l0.121,0.39l-0.844-0.003c0.025,0.314-0.104,0.573-0.396,0.775c-0.302,0.204-0.787,0.301-1.453,0.295l-0.029-0.008l-0.055-0.703
					c0.378,0.001,0.639-0.049,0.782-0.152c0.144-0.104,0.199-0.237,0.173-0.402c-0.025-0.162-0.11-0.283-0.255-0.364
					C200.975,44.423,200.791,44.381,200.566,44.38z"/>
			</g>
		</g>
	</g>
	<g>
		<g>
			<path fill="#F4D256" d="M187.074,44.249v-3.093h23.916v3.093c0,0-2.711,2.208-11.958,2.208
				C189.784,46.457,187.074,44.249,187.074,44.249z"/>
			<ellipse fill="#DC9928" cx="199.032" cy="41.156" rx="11.958" ry="2.32"/>
		</g>
		<g>
			<g>
				<path fill="#F4D256" d="M200.566,40.635c-0.221-0.001-0.396,0.037-0.525,0.113c-0.132,0.077-0.258,0.215-0.382,0.413
					c-0.216,0.373-0.478,0.65-0.785,0.831c-0.315,0.18-0.758,0.271-1.321,0.271c-0.52,0-0.926-0.092-1.212-0.274
					c-0.274-0.183-0.396-0.432-0.362-0.744l-0.912-0.003l0.142-0.4l0.894,0.004c0.152-0.301,0.401-0.536,0.744-0.704
					c0.332-0.168,0.73-0.248,1.198-0.239l0.017,0.006l-0.088,0.711c-0.296-0.001-0.529,0.039-0.701,0.121
					c-0.176,0.081-0.278,0.196-0.31,0.344c-0.032,0.157,0.015,0.272,0.144,0.341c0.129,0.07,0.314,0.107,0.558,0.108
					c0.222,0,0.405-0.037,0.546-0.111c0.141-0.074,0.291-0.215,0.456-0.423c0.219-0.368,0.464-0.642,0.737-0.823
					c0.267-0.18,0.629-0.268,1.088-0.263c0.439,0.004,0.808,0.097,1.107,0.277c0.312,0.18,0.53,0.425,0.655,0.734l0.815,0.004
					l0.121,0.39l-0.844-0.003c0.025,0.314-0.104,0.573-0.396,0.776c-0.302,0.203-0.787,0.3-1.453,0.294l-0.029-0.007l-0.055-0.704
					c0.378,0.001,0.64-0.051,0.782-0.153c0.144-0.101,0.199-0.235,0.174-0.399c-0.026-0.162-0.11-0.283-0.255-0.365
					C200.975,40.677,200.791,40.636,200.566,40.635z"/>
			</g>
		</g>
	</g>
	<g>
		<g>
			<path fill="#F4D256" d="M187.074,40.505V37.41h23.916v3.095c0,0-2.711,2.208-11.958,2.208
				C189.784,42.713,187.074,40.505,187.074,40.505z"/>
			<ellipse fill="#DC9928" cx="199.032" cy="37.41" rx="11.958" ry="2.322"/>
		</g>
		<g>
			<g>
				<path fill="#F4D256" d="M200.566,36.89c-0.221-0.001-0.396,0.036-0.525,0.113c-0.132,0.077-0.258,0.215-0.382,0.414
					c-0.216,0.373-0.478,0.65-0.785,0.83c-0.315,0.182-0.758,0.271-1.321,0.271c-0.52,0-0.926-0.091-1.211-0.274
					c-0.275-0.182-0.396-0.431-0.363-0.743l-0.912-0.003l0.142-0.4l0.894,0.004c0.153-0.302,0.401-0.536,0.744-0.705
					c0.332-0.168,0.73-0.247,1.198-0.238l0.017,0.005l-0.088,0.711c-0.295-0.001-0.527,0.039-0.699,0.121
					c-0.178,0.082-0.28,0.197-0.312,0.345c-0.032,0.157,0.017,0.27,0.144,0.341c0.129,0.07,0.314,0.105,0.558,0.105
					c0.223,0,0.405-0.036,0.546-0.108c0.141-0.074,0.291-0.216,0.456-0.424c0.219-0.367,0.464-0.641,0.737-0.821
					c0.267-0.18,0.629-0.268,1.088-0.264c0.439,0.004,0.808,0.095,1.107,0.275c0.312,0.181,0.53,0.426,0.655,0.735l0.815,0.004
					l0.121,0.389l-0.844-0.003c0.025,0.315-0.104,0.574-0.396,0.776c-0.302,0.203-0.787,0.301-1.453,0.295l-0.029-0.008
					l-0.055-0.703c0.378,0.001,0.639-0.051,0.782-0.153c0.144-0.103,0.199-0.236,0.174-0.399c-0.026-0.163-0.11-0.283-0.256-0.366
					C200.975,36.933,200.791,36.891,200.566,36.89z"/>
			</g>
		</g>
	</g>
	<g>
		<g>
			<path fill="#F4D256" d="M187.074,36.759v-3.093h23.916v3.093c0,0-2.711,2.21-11.958,2.21
				C189.784,38.969,187.074,36.759,187.074,36.759z"/>
			<ellipse fill="#DC9928" cx="199.032" cy="33.666" rx="11.958" ry="2.317"/>
		</g>
		<g>
			<g>
				<path fill="#F4D256" d="M200.566,33.145c-0.221-0.001-0.396,0.037-0.525,0.113c-0.132,0.077-0.258,0.215-0.382,0.413
					c-0.216,0.373-0.478,0.65-0.785,0.831c-0.315,0.18-0.758,0.271-1.321,0.271c-0.52,0-0.926-0.092-1.212-0.274
					c-0.274-0.183-0.396-0.431-0.362-0.744l-0.912-0.003l0.142-0.4l0.894,0.004c0.152-0.301,0.401-0.536,0.744-0.704
					c0.332-0.168,0.73-0.248,1.198-0.239l0.017,0.005l-0.088,0.712c-0.296-0.001-0.529,0.039-0.701,0.121
					c-0.176,0.08-0.278,0.196-0.31,0.344c-0.032,0.157,0.017,0.271,0.144,0.341c0.129,0.07,0.314,0.106,0.558,0.106
					c0.224,0,0.405-0.037,0.546-0.109c0.141-0.074,0.291-0.215,0.456-0.423c0.219-0.368,0.464-0.642,0.737-0.822
					c0.267-0.18,0.629-0.268,1.088-0.264c0.439,0.004,0.808,0.096,1.107,0.277c0.312,0.18,0.53,0.425,0.655,0.734l0.815,0.004
					l0.121,0.39l-0.844-0.003c0.025,0.314-0.104,0.573-0.396,0.776c-0.302,0.203-0.787,0.3-1.453,0.294l-0.029-0.007l-0.055-0.704
					c0.378,0.001,0.64-0.051,0.782-0.153c0.144-0.101,0.199-0.235,0.174-0.399c-0.026-0.162-0.11-0.283-0.255-0.365
					C200.975,33.188,200.791,33.146,200.566,33.145z"/>
			</g>
		</g>
	</g>
	<g>
		<g>
			<path fill="#F4D256" d="M187.074,33.013v-3.09h23.916v3.09c0,0-2.711,2.21-11.958,2.21
				C189.784,35.223,187.074,33.013,187.074,33.013z"/>
			<path fill="#DC9928" d="M210.99,29.923c0,1.278-5.354,2.317-11.958,2.317s-11.958-1.039-11.958-2.317
				c0-1.283,5.354-2.32,11.958-2.32S210.99,28.64,210.99,29.923z"/>
		</g>
		<g>
			<g>
				<path fill="#F4D256" d="M200.566,29.401c-0.221-0.001-0.396,0.037-0.525,0.113c-0.132,0.077-0.258,0.213-0.382,0.412
					c-0.216,0.373-0.478,0.651-0.785,0.83c-0.315,0.182-0.758,0.271-1.321,0.271c-0.52,0-0.926-0.091-1.211-0.274
					c-0.275-0.182-0.396-0.431-0.363-0.744l-0.912-0.003l0.142-0.399l0.896,0.005c0.15-0.3,0.399-0.535,0.742-0.704
					c0.332-0.169,0.73-0.248,1.198-0.239l0.017,0.005l-0.088,0.712c-0.296-0.002-0.527,0.037-0.699,0.119
					c-0.178,0.082-0.28,0.197-0.312,0.346c-0.032,0.157,0.017,0.271,0.144,0.342c0.129,0.07,0.314,0.104,0.558,0.105
					c0.224,0,0.405-0.036,0.546-0.108c0.141-0.074,0.291-0.215,0.456-0.424c0.219-0.367,0.464-0.642,0.737-0.821
					c0.267-0.18,0.629-0.268,1.088-0.264c0.439,0.004,0.808,0.095,1.107,0.277c0.312,0.179,0.53,0.423,0.655,0.733l0.815,0.004
					l0.121,0.389l-0.844-0.002c0.025,0.315-0.104,0.574-0.396,0.776c-0.302,0.203-0.787,0.301-1.453,0.295l-0.029-0.009
					l-0.055-0.703c0.378,0.001,0.639-0.05,0.782-0.153c0.144-0.102,0.199-0.236,0.173-0.399c-0.025-0.162-0.11-0.284-0.255-0.366
					C200.975,29.443,200.791,29.402,200.566,29.401z"/>
			</g>
		</g>
	</g>
	<g>
		<g>
			<path fill="#F4D256" d="M187.074,29.269v-3.092h23.916v3.092c0,0-2.711,2.208-11.958,2.208
				C189.784,31.477,187.074,29.269,187.074,29.269z"/>
			<ellipse fill="#DC9928" cx="199.032" cy="26.177" rx="11.958" ry="2.317"/>
		</g>
		<g>
			<g>
				<path fill="#F4D256" d="M200.566,25.655c-0.221-0.001-0.396,0.037-0.525,0.112c-0.132,0.078-0.258,0.216-0.382,0.413
					c-0.216,0.375-0.478,0.651-0.785,0.831c-0.315,0.182-0.758,0.272-1.321,0.271c-0.52,0-0.926-0.091-1.211-0.274
					c-0.275-0.183-0.396-0.432-0.363-0.744l-0.912-0.003l0.142-0.401l0.896,0.005c0.15-0.3,0.399-0.535,0.742-0.705
					c0.332-0.167,0.73-0.247,1.198-0.238l0.017,0.005l-0.088,0.712c-0.296-0.002-0.529,0.039-0.701,0.121
					c-0.176,0.08-0.278,0.195-0.31,0.344c-0.032,0.157,0.017,0.271,0.144,0.343c0.129,0.069,0.314,0.105,0.558,0.106
					c0.224,0,0.405-0.037,0.546-0.11c0.141-0.074,0.291-0.215,0.456-0.424c0.219-0.367,0.464-0.641,0.737-0.821
					c0.267-0.18,0.629-0.268,1.088-0.264c0.439,0.004,0.808,0.097,1.107,0.277c0.312,0.18,0.53,0.425,0.655,0.733l0.815,0.004
					l0.121,0.391l-0.844-0.003c0.025,0.314-0.104,0.573-0.396,0.776c-0.302,0.203-0.787,0.3-1.453,0.294l-0.029-0.009l-0.055-0.703
					c0.378,0.001,0.639-0.05,0.782-0.152c0.144-0.103,0.199-0.236,0.173-0.401c-0.025-0.161-0.11-0.283-0.255-0.363
					C200.975,25.697,200.791,25.656,200.566,25.655z"/>
			</g>
		</g>
	</g>
	<g>
		<g>
			<path fill="#F4D256" d="M187.074,25.522V22.43h23.916v3.092c0,0-2.711,2.208-11.958,2.208
				C189.784,27.73,187.074,25.522,187.074,25.522z"/>
			<ellipse fill="#DC9928" cx="199.032" cy="22.431" rx="11.958" ry="2.319"/>
		</g>
		<g>
			<g>
				<path fill="#F4D256" d="M200.566,21.909c-0.221-0.001-0.396,0.037-0.525,0.113c-0.132,0.077-0.258,0.215-0.382,0.414
					c-0.216,0.373-0.478,0.649-0.785,0.831c-0.315,0.179-0.758,0.271-1.321,0.27c-0.52,0-0.926-0.092-1.212-0.273
					c-0.274-0.185-0.396-0.432-0.362-0.745l-0.912-0.003l0.142-0.401l0.896,0.005c0.15-0.3,0.399-0.535,0.742-0.704
					c0.332-0.167,0.729-0.247,1.198-0.238l0.017,0.004l-0.088,0.712c-0.296-0.002-0.529,0.039-0.699,0.12
					c-0.178,0.083-0.28,0.197-0.312,0.345c-0.032,0.157,0.017,0.271,0.144,0.343c0.129,0.069,0.314,0.105,0.558,0.106
					c0.224,0,0.405-0.036,0.546-0.11c0.141-0.074,0.291-0.215,0.456-0.423c0.219-0.367,0.464-0.642,0.737-0.822
					c0.267-0.18,0.629-0.268,1.088-0.264c0.439,0.004,0.808,0.098,1.107,0.277c0.312,0.18,0.53,0.425,0.655,0.733l0.815,0.004
					l0.121,0.391l-0.844-0.003c0.025,0.315-0.104,0.573-0.396,0.776c-0.302,0.203-0.787,0.3-1.453,0.294l-0.029-0.007l-0.055-0.705
					c0.378,0.001,0.639-0.049,0.782-0.153c0.144-0.101,0.199-0.235,0.173-0.399c-0.025-0.162-0.109-0.283-0.253-0.363
					C200.975,21.951,200.791,21.91,200.566,21.909z"/>
			</g>
		</g>
	</g>
	<g>
		<g>
			<path fill="#F4D256" d="M187.074,21.776v-3.092h23.916v3.092c0,0-2.711,2.21-11.958,2.21
				C189.784,23.986,187.074,21.776,187.074,21.776z"/>
			<ellipse fill="#DC9928" cx="199.032" cy="18.685" rx="11.958" ry="2.319"/>
		</g>
		<g>
			<g>
				<path fill="#F4D256" d="M200.566,18.164c-0.221-0.001-0.396,0.037-0.525,0.113c-0.132,0.077-0.258,0.216-0.382,0.414
					c-0.216,0.374-0.478,0.651-0.785,0.83c-0.315,0.182-0.758,0.273-1.321,0.272c-0.52,0-0.926-0.092-1.211-0.275
					c-0.275-0.181-0.396-0.43-0.363-0.744l-0.912-0.003l0.141-0.398l0.895,0.004c0.152-0.303,0.401-0.538,0.744-0.706
					c0.332-0.168,0.73-0.247,1.198-0.238l0.017,0.005l-0.088,0.711c-0.295-0.002-0.527,0.039-0.699,0.12
					c-0.178,0.083-0.28,0.197-0.312,0.348c-0.032,0.155,0.017,0.27,0.144,0.34c0.129,0.072,0.314,0.105,0.558,0.106
					c0.223,0,0.405-0.035,0.546-0.11c0.141-0.073,0.291-0.215,0.456-0.423c0.219-0.367,0.464-0.642,0.737-0.821
					c0.267-0.18,0.629-0.268,1.088-0.264c0.439,0.004,0.808,0.095,1.107,0.276c0.312,0.182,0.53,0.425,0.655,0.735l0.815,0.004
					l0.121,0.391l-0.844-0.003c0.025,0.315-0.104,0.573-0.396,0.775c-0.302,0.203-0.787,0.302-1.453,0.296l-0.029-0.008
					l-0.055-0.702c0.378,0.001,0.639-0.051,0.782-0.153c0.144-0.104,0.199-0.238,0.173-0.402c-0.025-0.162-0.11-0.283-0.255-0.364
					C200.975,18.208,200.791,18.165,200.566,18.164z"/>
			</g>
		</g>
	</g>
	<g>
		<g>
			<path fill="#F4D256" d="M187.074,18.032V14.94h23.916v3.092c0,0-2.711,2.208-11.958,2.208
				C189.784,20.24,187.074,18.032,187.074,18.032z"/>
			<path fill="#DC9928" d="M210.99,14.94c0,1.283-5.354,2.317-11.958,2.317s-11.958-1.034-11.958-2.317
				c0-1.281,5.354-2.32,11.958-2.32S210.99,13.659,210.99,14.94z"/>
		</g>
		<g>
			<g>
				<path fill="#F4D256" d="M200.566,14.418c-0.221-0.001-0.396,0.037-0.525,0.113c-0.132,0.078-0.258,0.215-0.382,0.413
					c-0.216,0.374-0.478,0.65-0.785,0.831c-0.315,0.18-0.758,0.271-1.321,0.271c-0.52,0-0.926-0.092-1.211-0.274
					c-0.275-0.183-0.396-0.431-0.363-0.744l-0.912-0.003l0.142-0.401l0.896,0.004c0.15-0.3,0.399-0.535,0.742-0.704
					c0.332-0.168,0.73-0.248,1.198-0.239l0.017,0.006l-0.088,0.711c-0.296-0.001-0.527,0.038-0.699,0.12
					c-0.178,0.083-0.28,0.197-0.312,0.345c-0.032,0.157,0.015,0.272,0.144,0.343c0.129,0.069,0.314,0.106,0.558,0.106
					c0.222,0,0.405-0.038,0.546-0.11c0.141-0.074,0.291-0.215,0.456-0.424c0.219-0.367,0.464-0.641,0.737-0.82
					c0.267-0.181,0.629-0.269,1.088-0.265c0.439,0.004,0.808,0.096,1.107,0.277c0.312,0.18,0.53,0.425,0.655,0.734l0.815,0.004
					l0.121,0.392l-0.844-0.003c0.025,0.313-0.104,0.573-0.396,0.775c-0.302,0.203-0.787,0.302-1.453,0.294l-0.029-0.007
					l-0.055-0.705c0.378,0.001,0.64-0.05,0.782-0.153c0.144-0.101,0.199-0.233,0.173-0.399c-0.025-0.162-0.11-0.283-0.254-0.364
					C200.975,14.461,200.791,14.42,200.566,14.418z"/>
			</g>
		</g>
	</g>
	<g>
		<g>
			<path fill="#F4D256" d="M187.074,14.289v-3.093h23.916v3.093c0,0-2.711,2.208-11.958,2.208
				C189.784,16.497,187.074,14.289,187.074,14.289z"/>
			<ellipse fill="#DC9928" cx="199.032" cy="11.196" rx="11.958" ry="2.319"/>
		</g>
		<g>
			<g>
				<path fill="#F4D256" d="M200.566,10.673c-0.221-0.001-0.396,0.037-0.525,0.113c-0.132,0.077-0.258,0.215-0.382,0.413
					c-0.216,0.374-0.478,0.65-0.785,0.83c-0.315,0.181-0.758,0.271-1.321,0.271c-0.52,0-0.926-0.091-1.211-0.274
					c-0.275-0.182-0.396-0.43-0.363-0.743l-0.912-0.003l0.141-0.4l0.895,0.004c0.152-0.301,0.401-0.535,0.744-0.705
					c0.332-0.167,0.73-0.246,1.198-0.237l0.017,0.005l-0.088,0.711c-0.295-0.002-0.527,0.039-0.699,0.121
					c-0.178,0.083-0.28,0.197-0.312,0.346c-0.032,0.156,0.017,0.27,0.144,0.341c0.129,0.07,0.314,0.105,0.558,0.105
					c0.224,0.001,0.405-0.035,0.546-0.11c0.141-0.073,0.291-0.215,0.456-0.423c0.219-0.368,0.464-0.641,0.737-0.822
					c0.267-0.179,0.629-0.267,1.088-0.263c0.439,0.004,0.808,0.097,1.107,0.277c0.312,0.179,0.53,0.425,0.655,0.733l0.815,0.004
					l0.121,0.389l-0.844-0.003c0.025,0.316-0.104,0.573-0.396,0.777c-0.302,0.203-0.787,0.3-1.453,0.295l-0.029-0.008l-0.055-0.703
					c0.378,0.001,0.639-0.05,0.782-0.153s0.199-0.236,0.173-0.4c-0.025-0.161-0.109-0.282-0.255-0.365
					C200.975,10.717,200.791,10.674,200.566,10.673z"/>
			</g>
		</g>
	</g>
	<g>
		<g>
			<path fill="#F4D256" d="M187.074,10.542V7.45h23.916v3.092c0,0-2.711,2.211-11.958,2.211
				C189.784,12.753,187.074,10.542,187.074,10.542z"/>
			<ellipse fill="#DC9928" cx="199.032" cy="7.45" rx="11.958" ry="2.319"/>
		</g>
		<g>
			<g>
				<path fill="#F4D256" d="M200.566,6.929c-0.221-0.001-0.396,0.036-0.525,0.113c-0.132,0.077-0.258,0.215-0.382,0.412
					c-0.216,0.374-0.478,0.65-0.785,0.831c-0.315,0.181-0.758,0.271-1.321,0.271c-0.52,0-0.926-0.091-1.212-0.274
					c-0.274-0.183-0.396-0.431-0.362-0.744l-0.912-0.003l0.142-0.4l0.896,0.004c0.15-0.301,0.399-0.536,0.742-0.704
					c0.332-0.168,0.73-0.248,1.198-0.239l0.017,0.005l-0.088,0.712c-0.295-0.001-0.527,0.039-0.699,0.121
					c-0.178,0.08-0.28,0.195-0.312,0.344c-0.032,0.156,0.017,0.271,0.144,0.342c0.129,0.069,0.314,0.105,0.558,0.105
					c0.223,0,0.405-0.036,0.546-0.109c0.141-0.073,0.291-0.215,0.456-0.423c0.219-0.368,0.464-0.642,0.737-0.823
					c0.267-0.18,0.629-0.267,1.088-0.262c0.439,0.004,0.808,0.095,1.107,0.275c0.312,0.181,0.53,0.425,0.654,0.733l0.816,0.004
					l0.121,0.391l-0.844-0.003c0.025,0.314-0.104,0.573-0.396,0.776c-0.302,0.203-0.787,0.3-1.453,0.294l-0.029-0.008l-0.055-0.704
					c0.377,0.001,0.639-0.049,0.782-0.152s0.199-0.235,0.173-0.4c-0.025-0.162-0.11-0.283-0.255-0.364
					C200.975,6.972,200.791,6.93,200.566,6.929z"/>
			</g>
		</g>
	</g>
</g>
<g>
	<path fill="#FFFFFF" d="M24.076,92.209c-0.494-0.143-0.853-0.316-1.078-0.523c-0.225-0.207-0.337-0.462-0.337-0.766
		c0-0.344,0.137-0.629,0.412-0.854s0.632-0.337,1.072-0.337c0.3,0,0.567,0.058,0.802,0.174s0.417,0.275,0.546,0.479
		s0.193,0.427,0.193,0.669h-0.579c0-0.265-0.084-0.473-0.252-0.625c-0.168-0.151-0.405-0.227-0.71-0.227
		c-0.284,0-0.505,0.063-0.664,0.188c-0.159,0.125-0.238,0.299-0.238,0.521c0,0.178,0.075,0.328,0.226,0.452
		c0.151,0.123,0.408,0.235,0.771,0.338c0.363,0.102,0.646,0.214,0.852,0.337c0.205,0.123,0.356,0.267,0.456,0.431
		s0.148,0.356,0.148,0.578c0,0.354-0.138,0.637-0.414,0.85s-0.645,0.319-1.106,0.319c-0.3,0-0.58-0.057-0.839-0.172
		s-0.46-0.272-0.601-0.473c-0.141-0.199-0.211-0.427-0.211-0.68h0.579c0,0.264,0.098,0.472,0.292,0.625
		c0.195,0.152,0.455,0.229,0.781,0.229c0.304,0,0.537-0.062,0.699-0.186c0.162-0.124,0.243-0.293,0.243-0.507
		s-0.075-0.379-0.225-0.496C24.741,92.438,24.469,92.322,24.076,92.209z"/>
	<path fill="#FFFFFF" d="M28.348,94.154c-0.032-0.063-0.058-0.178-0.078-0.342c-0.258,0.268-0.565,0.401-0.923,0.401
		c-0.32,0-0.582-0.09-0.787-0.271c-0.205-0.182-0.308-0.41-0.308-0.688c0-0.338,0.128-0.6,0.385-0.787
		c0.257-0.187,0.618-0.28,1.084-0.28h0.54v-0.255c0-0.193-0.058-0.348-0.174-0.463c-0.116-0.115-0.287-0.173-0.513-0.173
		c-0.198,0-0.364,0.051-0.498,0.15c-0.134,0.1-0.201,0.221-0.201,0.362h-0.558c0-0.161,0.058-0.318,0.172-0.469
		c0.115-0.151,0.271-0.271,0.468-0.358s0.413-0.132,0.649-0.132c0.374,0,0.667,0.094,0.878,0.28s0.322,0.444,0.33,0.772v1.492
		c0,0.298,0.038,0.535,0.114,0.711v0.048H28.348z M27.427,93.731c0.174,0,0.339-0.045,0.495-0.135s0.269-0.207,0.339-0.351V92.58
		h-0.435c-0.68,0-1.02,0.199-1.02,0.597c0,0.174,0.058,0.31,0.174,0.408C27.097,93.683,27.245,93.731,27.427,93.731z"/>
	<path fill="#FFFFFF" d="M30.287,94.154h-0.555V89.55h0.555V94.154z"/>
	<path fill="#FFFFFF" d="M31.178,90.05c0-0.09,0.027-0.165,0.083-0.228c0.055-0.062,0.136-0.093,0.244-0.093s0.19,0.031,0.246,0.093
		c0.056,0.063,0.084,0.138,0.084,0.228s-0.028,0.165-0.084,0.226c-0.056,0.06-0.138,0.09-0.246,0.09s-0.189-0.03-0.244-0.09
		C31.205,90.215,31.178,90.14,31.178,90.05z M31.777,94.154h-0.555V90.91h0.555V94.154z"/>
	<path fill="#FFFFFF" d="M33.965,93.762c0.198,0,0.371-0.061,0.519-0.18c0.148-0.12,0.23-0.271,0.246-0.45h0.524
		c-0.01,0.187-0.074,0.363-0.192,0.531c-0.118,0.167-0.275,0.302-0.472,0.401s-0.405,0.149-0.625,0.149
		c-0.441,0-0.793-0.147-1.054-0.441c-0.261-0.295-0.391-0.698-0.391-1.21V92.47c0-0.316,0.058-0.597,0.174-0.843
		s0.282-0.437,0.499-0.572s0.473-0.204,0.769-0.204c0.364,0,0.666,0.109,0.907,0.327c0.241,0.218,0.369,0.5,0.385,0.848H34.73
		c-0.016-0.209-0.096-0.382-0.238-0.517c-0.143-0.135-0.319-0.202-0.529-0.202c-0.282,0-0.5,0.102-0.655,0.304
		c-0.155,0.203-0.232,0.496-0.232,0.88v0.105c0,0.373,0.077,0.661,0.23,0.863C33.46,93.661,33.68,93.762,33.965,93.762z"/>
	<path fill="#FFFFFF" d="M36.906,92.778l0.084,0.575l0.123-0.519l0.863-3.046h0.486l0.842,3.046l0.12,0.528l0.093-0.588l0.678-2.986
		h0.579l-1.059,4.365h-0.524l-0.899-3.181l-0.069-0.333l-0.069,0.333l-0.933,3.181h-0.524l-1.055-4.365h0.575L36.906,92.778z"/>
	<path fill="#FFFFFF" d="M42.578,94.214c-0.439,0-0.797-0.144-1.073-0.433s-0.414-0.675-0.414-1.159v-0.102
		c0-0.322,0.062-0.609,0.185-0.862c0.123-0.253,0.294-0.45,0.516-0.593c0.221-0.144,0.46-0.215,0.718-0.215
		c0.422,0,0.75,0.139,0.983,0.417c0.234,0.277,0.351,0.676,0.351,1.193v0.23h-2.197c0.008,0.319,0.102,0.578,0.28,0.774
		c0.179,0.197,0.406,0.296,0.682,0.296c0.196,0,0.361-0.04,0.498-0.12c0.136-0.08,0.255-0.186,0.357-0.317l0.338,0.264
		C43.53,94.006,43.122,94.214,42.578,94.214z M42.509,91.307c-0.224,0-0.412,0.081-0.563,0.244s-0.246,0.391-0.282,0.685h1.625
		v-0.042c-0.016-0.281-0.092-0.5-0.228-0.654C42.925,91.384,42.741,91.307,42.509,91.307z"/>
	<path fill="#FFFFFF" d="M47.231,92.568c0,0.496-0.114,0.894-0.342,1.194c-0.228,0.301-0.534,0.451-0.917,0.451
		c-0.41,0-0.727-0.145-0.95-0.435l-0.027,0.375h-0.509V89.55h0.554v1.718c0.224-0.278,0.533-0.417,0.927-0.417
		c0.394,0,0.703,0.149,0.928,0.446c0.225,0.298,0.337,0.706,0.337,1.224V92.568z M46.677,92.506c0-0.378-0.073-0.67-0.219-0.876
		c-0.146-0.206-0.355-0.309-0.629-0.309c-0.366,0-0.628,0.17-0.789,0.51v1.403c0.17,0.34,0.435,0.509,0.794,0.509
		c0.266,0,0.473-0.103,0.621-0.309S46.677,92.919,46.677,92.506z"/>
	<path fill="#FFFFFF" d="M18.18,101.521h-0.558v-3.696l-1.118,0.41v-0.503l1.589-0.597h0.087V101.521z"/>
	<path fill="#FFFFFF" d="M19.874,101.23c0-0.096,0.028-0.176,0.085-0.239c0.057-0.064,0.143-0.097,0.256-0.097
		s0.2,0.032,0.259,0.097c0.059,0.063,0.088,0.144,0.088,0.239c0,0.092-0.029,0.169-0.088,0.231
		c-0.059,0.062-0.146,0.093-0.259,0.093s-0.199-0.031-0.256-0.093C19.902,101.399,19.874,101.322,19.874,101.23z"/>
	<path fill="#FFFFFF" d="M24.158,99.66c0,0.649-0.111,1.132-0.333,1.447c-0.222,0.316-0.569,0.474-1.041,0.474
		c-0.465,0-0.81-0.154-1.034-0.463c-0.224-0.309-0.34-0.77-0.348-1.384v-0.74c0-0.642,0.111-1.118,0.333-1.43
		c0.222-0.312,0.569-0.468,1.043-0.468c0.47,0,0.815,0.15,1.038,0.451c0.222,0.301,0.335,0.765,0.341,1.393V99.66z M23.604,98.901
		c0-0.47-0.066-0.812-0.198-1.026c-0.132-0.215-0.341-0.322-0.626-0.322c-0.284,0-0.491,0.106-0.621,0.32s-0.197,0.543-0.201,0.986
		v0.888c0,0.472,0.068,0.819,0.205,1.044c0.137,0.226,0.344,0.338,0.622,0.338c0.274,0,0.478-0.106,0.61-0.318
		c0.133-0.211,0.202-0.545,0.208-1.001V98.901z"/>
	<path fill="#FFFFFF" d="M27.687,97.469l-1.808,4.053h-0.582l1.802-3.909h-2.362v-0.456h2.95V97.469z"/>
	<path fill="#FFFFFF" d="M31.176,101.521h-2.86v-0.398l1.511-1.679c0.224-0.254,0.378-0.461,0.463-0.619
		c0.085-0.159,0.127-0.323,0.127-0.493c0-0.229-0.069-0.415-0.207-0.561c-0.138-0.146-0.322-0.219-0.552-0.219
		c-0.275,0-0.49,0.078-0.643,0.234c-0.153,0.157-0.229,0.376-0.229,0.655h-0.555c0-0.401,0.129-0.727,0.388-0.974
		c0.259-0.248,0.605-0.372,1.039-0.372c0.406,0,0.727,0.106,0.962,0.319s0.354,0.496,0.354,0.85c0,0.43-0.274,0.941-0.821,1.535
		l-1.169,1.268h2.191V101.521z"/>
	<path fill="#FFFFFF" d="M31.833,101.23c0-0.096,0.028-0.176,0.085-0.239c0.057-0.064,0.143-0.097,0.256-0.097
		s0.2,0.032,0.259,0.097c0.059,0.063,0.088,0.144,0.088,0.239c0,0.092-0.029,0.169-0.088,0.231
		c-0.059,0.062-0.146,0.093-0.259,0.093s-0.199-0.031-0.256-0.093C31.861,101.399,31.833,101.322,31.833,101.23z"/>
	<path fill="#FFFFFF" d="M35.721,100.056h0.605v0.452h-0.605v1.014h-0.558v-1.014h-1.988v-0.326l1.955-3.025h0.591V100.056z
		 M33.805,100.056h1.358v-2.141l-0.066,0.12L33.805,100.056z"/>
	<path fill="#FFFFFF" d="M38.65,101.521h-0.558v-3.696l-1.118,0.41v-0.503l1.589-0.597h0.087V101.521z"/>
	<path fill="#FFFFFF" d="M42.4,99.603c-0.116,0.139-0.254,0.249-0.415,0.333c-0.161,0.084-0.337,0.126-0.529,0.126
		c-0.252,0-0.471-0.062-0.658-0.186c-0.187-0.124-0.331-0.299-0.433-0.523s-0.153-0.474-0.153-0.745
		c0-0.292,0.056-0.555,0.167-0.788c0.111-0.234,0.268-0.413,0.472-0.537c0.204-0.124,0.441-0.186,0.713-0.186
		c0.432,0,0.772,0.161,1.021,0.484c0.249,0.322,0.373,0.763,0.373,1.32v0.162c0,0.85-0.168,1.469-0.504,1.86
		c-0.335,0.391-0.842,0.591-1.52,0.601h-0.108v-0.471h0.117c0.458-0.008,0.81-0.127,1.055-0.357
		C42.245,100.466,42.378,100.102,42.4,99.603z M41.546,99.603c0.186,0,0.357-0.057,0.514-0.171c0.157-0.113,0.271-0.255,0.343-0.423
		v-0.222c0-0.363-0.079-0.659-0.237-0.887c-0.158-0.229-0.358-0.342-0.6-0.342c-0.244,0-0.439,0.093-0.587,0.28
		c-0.148,0.187-0.222,0.433-0.222,0.738c0,0.298,0.072,0.544,0.214,0.736C41.115,99.507,41.306,99.603,41.546,99.603z"/>
	<path fill="#FFFFFF" d="M43.791,101.23c0-0.096,0.028-0.176,0.085-0.239c0.057-0.064,0.143-0.097,0.256-0.097
		s0.2,0.032,0.259,0.097c0.059,0.063,0.088,0.144,0.088,0.239c0,0.092-0.029,0.169-0.088,0.231
		c-0.059,0.062-0.146,0.093-0.259,0.093s-0.199-0.031-0.256-0.093C43.819,101.399,43.791,101.322,43.791,101.23z"/>
	<path fill="#FFFFFF" d="M47.985,98.296c0,0.218-0.057,0.411-0.172,0.581c-0.115,0.17-0.27,0.303-0.466,0.399
		c0.228,0.098,0.408,0.24,0.541,0.429c0.133,0.188,0.199,0.4,0.199,0.639c0,0.377-0.127,0.678-0.382,0.902
		c-0.255,0.224-0.59,0.335-1.006,0.335c-0.419,0-0.756-0.112-1.009-0.337s-0.379-0.525-0.379-0.9c0-0.236,0.064-0.449,0.193-0.639
		c0.129-0.19,0.307-0.334,0.535-0.432c-0.194-0.097-0.347-0.229-0.459-0.399s-0.168-0.362-0.168-0.578
		c0-0.368,0.118-0.66,0.354-0.876s0.546-0.323,0.932-0.323c0.384,0,0.694,0.107,0.931,0.323S47.985,97.928,47.985,98.296z
		 M47.532,100.331c0-0.243-0.078-0.442-0.232-0.597c-0.155-0.153-0.357-0.23-0.607-0.23s-0.45,0.076-0.601,0.228
		c-0.151,0.152-0.227,0.353-0.227,0.6c0,0.248,0.074,0.443,0.221,0.585s0.351,0.213,0.613,0.213c0.26,0,0.464-0.071,0.612-0.215
		C47.458,100.771,47.532,100.577,47.532,100.331z M46.699,97.553c-0.218,0-0.394,0.067-0.529,0.202
		c-0.135,0.135-0.203,0.318-0.203,0.55c0,0.222,0.066,0.401,0.2,0.538c0.133,0.137,0.31,0.205,0.532,0.205
		c0.222,0,0.399-0.068,0.532-0.205s0.199-0.316,0.199-0.538s-0.069-0.402-0.207-0.543C47.085,97.622,46.911,97.553,46.699,97.553z"
		/>
	<path fill="#FFFFFF" d="M50.962,97.153v0.471H50.86c-0.432,0.008-0.776,0.136-1.031,0.384c-0.256,0.248-0.404,0.597-0.444,1.047
		c0.229-0.265,0.543-0.396,0.941-0.396c0.379,0,0.683,0.134,0.91,0.402c0.227,0.268,0.34,0.613,0.34,1.037
		c0,0.449-0.123,0.81-0.367,1.079c-0.245,0.27-0.573,0.404-0.985,0.404c-0.418,0-0.756-0.16-1.016-0.48
		c-0.26-0.321-0.39-0.734-0.39-1.24v-0.213c0-0.803,0.171-1.417,0.514-1.842s0.853-0.643,1.531-0.652H50.962z M50.233,99.12
		c-0.19,0-0.365,0.057-0.524,0.171c-0.16,0.114-0.271,0.257-0.333,0.429v0.204c0,0.359,0.081,0.649,0.243,0.869
		c0.162,0.22,0.364,0.33,0.605,0.33c0.25,0,0.446-0.092,0.589-0.276c0.143-0.184,0.214-0.425,0.214-0.723
		c0-0.3-0.072-0.542-0.217-0.727S50.474,99.12,50.233,99.12z"/>
	<path fill="#FFFFFF" d="M53.04,99.069h0.417c0.262-0.004,0.468-0.073,0.618-0.207s0.225-0.314,0.225-0.543
		c0-0.511-0.255-0.767-0.764-0.767c-0.24,0-0.432,0.068-0.574,0.205c-0.143,0.137-0.214,0.318-0.214,0.544h-0.555
		c0-0.346,0.126-0.633,0.379-0.862c0.252-0.229,0.574-0.343,0.964-0.343c0.412,0,0.734,0.108,0.968,0.327
		c0.234,0.218,0.351,0.521,0.351,0.908c0,0.189-0.062,0.373-0.185,0.552c-0.123,0.178-0.29,0.311-0.502,0.398
		c0.24,0.076,0.425,0.202,0.556,0.378s0.196,0.391,0.196,0.645c0,0.392-0.128,0.702-0.384,0.932
		c-0.256,0.23-0.588,0.345-0.998,0.345s-0.743-0.11-1-0.332c-0.257-0.223-0.385-0.515-0.385-0.879h0.558
		c0,0.23,0.075,0.414,0.225,0.552s0.351,0.207,0.603,0.207c0.268,0,0.473-0.07,0.614-0.21c0.142-0.14,0.213-0.341,0.213-0.603
		c0-0.254-0.078-0.449-0.234-0.585c-0.156-0.136-0.38-0.205-0.674-0.21H53.04V99.069z"/>
	<path fill="#FFFFFF" d="M19.301,107.118c0-0.452,0.06-0.886,0.181-1.302c0.121-0.415,0.301-0.793,0.541-1.133
		s0.489-0.579,0.747-0.72l0.114,0.366c-0.292,0.224-0.531,0.565-0.718,1.025c-0.187,0.459-0.29,0.974-0.307,1.544l-0.003,0.255
		c0,0.771,0.141,1.44,0.423,2.008c0.17,0.34,0.372,0.605,0.605,0.798l-0.114,0.339c-0.266-0.148-0.52-0.396-0.761-0.743
		C19.537,108.876,19.301,108.063,19.301,107.118z"/>
	<path fill="#FFFFFF" d="M23.187,108.89h-0.558v-3.696l-1.118,0.41v-0.503l1.589-0.597h0.087V108.89z"/>
	<path fill="#FFFFFF" d="M26.937,106.971c-0.116,0.139-0.254,0.249-0.415,0.333c-0.161,0.084-0.337,0.126-0.529,0.126
		c-0.252,0-0.471-0.062-0.658-0.186c-0.187-0.124-0.331-0.299-0.433-0.523s-0.153-0.474-0.153-0.745
		c0-0.292,0.056-0.555,0.167-0.788c0.111-0.234,0.268-0.413,0.472-0.537c0.204-0.124,0.441-0.186,0.713-0.186
		c0.432,0,0.772,0.161,1.021,0.484c0.249,0.322,0.373,0.763,0.373,1.32v0.162c0,0.85-0.168,1.469-0.504,1.86
		c-0.335,0.391-0.842,0.591-1.52,0.601h-0.108v-0.471h0.117c0.458-0.008,0.81-0.127,1.055-0.357
		C26.781,107.834,26.915,107.47,26.937,106.971z M26.082,106.971c0.186,0,0.357-0.057,0.514-0.171
		c0.157-0.113,0.271-0.255,0.343-0.423v-0.222c0-0.363-0.079-0.659-0.237-0.887c-0.158-0.229-0.358-0.342-0.6-0.342
		c-0.244,0-0.439,0.093-0.587,0.28c-0.148,0.187-0.222,0.433-0.222,0.738c0,0.298,0.072,0.544,0.214,0.736
		C25.651,106.875,25.842,106.971,26.082,106.971z"/>
	<path fill="#FFFFFF" d="M30.384,106.971c-0.116,0.139-0.254,0.249-0.415,0.333c-0.161,0.084-0.337,0.126-0.529,0.126
		c-0.252,0-0.471-0.062-0.658-0.186c-0.187-0.124-0.331-0.299-0.433-0.523s-0.153-0.474-0.153-0.745
		c0-0.292,0.056-0.555,0.167-0.788c0.111-0.234,0.268-0.413,0.472-0.537c0.204-0.124,0.441-0.186,0.713-0.186
		c0.432,0,0.772,0.161,1.021,0.484c0.249,0.322,0.373,0.763,0.373,1.32v0.162c0,0.85-0.168,1.469-0.504,1.86
		c-0.335,0.391-0.842,0.591-1.52,0.601h-0.108v-0.471h0.117c0.458-0.008,0.81-0.127,1.055-0.357
		C30.229,107.834,30.362,107.47,30.384,106.971z M29.53,106.971c0.186,0,0.357-0.057,0.514-0.171
		c0.157-0.113,0.271-0.255,0.343-0.423v-0.222c0-0.363-0.079-0.659-0.237-0.887c-0.158-0.229-0.358-0.342-0.6-0.342
		c-0.244,0-0.439,0.093-0.587,0.28c-0.148,0.187-0.222,0.433-0.222,0.738c0,0.298,0.072,0.544,0.214,0.736
		C29.099,106.875,29.29,106.971,29.53,106.971z"/>
	<path fill="#FFFFFF" d="M34.048,107.424h0.605v0.452h-0.605v1.014H33.49v-1.014h-1.988v-0.326l1.955-3.025h0.591V107.424z
		 M32.132,107.424h1.358v-2.141l-0.066,0.12L32.132,107.424z"/>
	<path fill="#FFFFFF" d="M36.365,107.262h-1.463v-0.452h1.463V107.262z"/>
	<path fill="#FFFFFF" d="M39.708,108.89h-2.86v-0.398l1.511-1.679c0.224-0.254,0.378-0.461,0.463-0.619
		c0.085-0.159,0.127-0.323,0.127-0.493c0-0.229-0.069-0.415-0.207-0.561c-0.138-0.146-0.322-0.219-0.552-0.219
		c-0.275,0-0.49,0.078-0.643,0.234c-0.153,0.157-0.229,0.376-0.229,0.655h-0.555c0-0.401,0.129-0.727,0.388-0.974
		c0.259-0.248,0.605-0.372,1.039-0.372c0.406,0,0.727,0.106,0.962,0.319s0.354,0.496,0.354,0.85c0,0.43-0.274,0.941-0.821,1.535
		l-1.169,1.268h2.191V108.89z"/>
	<path fill="#FFFFFF" d="M43.032,107.028c0,0.649-0.111,1.132-0.333,1.447c-0.222,0.316-0.569,0.474-1.041,0.474
		c-0.465,0-0.81-0.154-1.034-0.463c-0.224-0.309-0.34-0.77-0.348-1.384v-0.74c0-0.642,0.111-1.118,0.333-1.43
		c0.222-0.312,0.569-0.468,1.043-0.468c0.47,0,0.815,0.15,1.038,0.451c0.222,0.301,0.335,0.765,0.341,1.393V107.028z M42.478,106.27
		c0-0.47-0.066-0.812-0.198-1.026c-0.132-0.215-0.341-0.322-0.626-0.322c-0.284,0-0.491,0.106-0.621,0.32s-0.197,0.543-0.201,0.986
		v0.888c0,0.472,0.068,0.819,0.205,1.044c0.137,0.226,0.344,0.338,0.622,0.338c0.274,0,0.478-0.106,0.61-0.318
		c0.133-0.211,0.202-0.545,0.208-1.001V106.27z"/>
	<path fill="#FFFFFF" d="M45.566,108.89h-0.558v-3.696l-1.118,0.41v-0.503l1.589-0.597h0.087V108.89z"/>
	<path fill="#FFFFFF" d="M47.445,106.701l0.222-2.177h2.236v0.513h-1.766l-0.132,1.19c0.214-0.126,0.457-0.188,0.729-0.188
		c0.397,0,0.713,0.131,0.947,0.394s0.351,0.618,0.351,1.066c0,0.449-0.121,0.804-0.364,1.063c-0.243,0.259-0.582,0.388-1.018,0.388
		c-0.386,0-0.701-0.106-0.944-0.32s-0.383-0.51-0.417-0.888h0.524c0.034,0.25,0.123,0.438,0.267,0.565
		c0.144,0.127,0.334,0.19,0.57,0.19c0.258,0,0.46-0.088,0.607-0.264s0.221-0.419,0.221-0.729c0-0.292-0.08-0.526-0.239-0.703
		c-0.159-0.177-0.37-0.266-0.634-0.266c-0.242,0-0.432,0.053-0.57,0.159l-0.147,0.12L47.445,106.701z"/>
	<path fill="#FFFFFF" d="M51.975,107.147c0,0.446-0.059,0.873-0.175,1.282c-0.117,0.408-0.296,0.786-0.537,1.132
		s-0.493,0.591-0.757,0.737l-0.117-0.339c0.308-0.236,0.555-0.603,0.742-1.099c0.187-0.497,0.282-1.048,0.286-1.653v-0.096
		c0-0.42-0.044-0.811-0.132-1.171c-0.088-0.361-0.21-0.685-0.367-0.97c-0.157-0.286-0.333-0.509-0.529-0.669l0.117-0.339
		c0.264,0.146,0.515,0.39,0.754,0.731s0.417,0.719,0.537,1.131C51.916,106.237,51.975,106.679,51.975,107.147z"/>
</g>
<g>
	<path fill="#FFFFFF" d="M83.043,92.227h-1.832v1.928h-0.575v-4.365h2.704v0.471h-2.128v1.496h1.832V92.227z"/>
	<path fill="#FFFFFF" d="M84.646,94.154h-0.574v-4.365h0.574V94.154z"/>
	<path fill="#FFFFFF" d="M89.055,94.154h-0.579l-2.197-3.363v3.363h-0.579v-4.365h0.579l2.203,3.379v-3.379h0.573V94.154z"/>
	<path fill="#FFFFFF" d="M92.544,92.137h-1.892v1.547h2.197v0.471h-2.773v-4.365h2.743v0.471h-2.167v1.406h1.892V92.137z"/>
	<path fill="#FFFFFF" d="M94.141,92.445v1.709h-0.574v-4.365h1.609c0.478,0,0.852,0.122,1.123,0.366
		c0.271,0.244,0.406,0.566,0.406,0.968c0,0.424-0.133,0.75-0.398,0.979c-0.264,0.229-0.644,0.343-1.137,0.343H94.141z
		 M94.141,91.975h1.035c0.308,0,0.543-0.072,0.707-0.218c0.164-0.145,0.246-0.354,0.246-0.629c0-0.261-0.082-0.469-0.246-0.625
		s-0.389-0.237-0.674-0.243h-1.068V91.975z"/>
	<path fill="#FFFFFF" d="M72.092,101.521h-2.86v-0.398l1.511-1.679c0.224-0.254,0.378-0.461,0.463-0.619
		c0.085-0.159,0.127-0.323,0.127-0.493c0-0.229-0.069-0.415-0.207-0.561c-0.138-0.146-0.322-0.219-0.552-0.219
		c-0.275,0-0.49,0.078-0.643,0.234c-0.153,0.157-0.229,0.376-0.229,0.655h-0.555c0-0.401,0.129-0.727,0.388-0.974
		c0.259-0.248,0.605-0.372,1.039-0.372c0.406,0,0.727,0.106,0.962,0.319s0.354,0.496,0.354,0.85c0,0.43-0.274,0.941-0.821,1.535
		l-1.169,1.268h2.191V101.521z"/>
	<path fill="#FFFFFF" d="M72.749,101.23c0-0.096,0.028-0.176,0.085-0.239c0.057-0.064,0.143-0.097,0.256-0.097
		s0.2,0.032,0.259,0.097c0.059,0.063,0.088,0.144,0.088,0.239c0,0.092-0.029,0.169-0.088,0.231
		c-0.059,0.062-0.146,0.093-0.259,0.093s-0.199-0.031-0.256-0.093C72.777,101.399,72.749,101.322,72.749,101.23z"/>
	<path fill="#FFFFFF" d="M76.942,98.296c0,0.218-0.057,0.411-0.172,0.581c-0.115,0.17-0.27,0.303-0.466,0.399
		c0.228,0.098,0.408,0.24,0.541,0.429c0.133,0.188,0.199,0.4,0.199,0.639c0,0.377-0.127,0.678-0.382,0.902
		c-0.255,0.224-0.59,0.335-1.006,0.335c-0.419,0-0.756-0.112-1.009-0.337s-0.379-0.525-0.379-0.9c0-0.236,0.064-0.449,0.193-0.639
		c0.129-0.19,0.307-0.334,0.535-0.432c-0.194-0.097-0.347-0.229-0.459-0.399s-0.168-0.362-0.168-0.578
		c0-0.368,0.118-0.66,0.354-0.876s0.546-0.323,0.932-0.323c0.384,0,0.694,0.107,0.931,0.323S76.942,97.928,76.942,98.296z
		 M76.49,100.331c0-0.243-0.078-0.442-0.232-0.597c-0.155-0.153-0.357-0.23-0.607-0.23s-0.45,0.076-0.601,0.228
		c-0.151,0.152-0.227,0.353-0.227,0.6c0,0.248,0.074,0.443,0.221,0.585s0.351,0.213,0.613,0.213c0.26,0,0.464-0.071,0.612-0.215
		C76.416,100.771,76.49,100.577,76.49,100.331z M75.656,97.553c-0.218,0-0.394,0.067-0.529,0.202
		c-0.135,0.135-0.203,0.318-0.203,0.55c0,0.222,0.066,0.401,0.2,0.538c0.133,0.137,0.31,0.205,0.532,0.205
		c0.222,0,0.399-0.068,0.532-0.205s0.199-0.316,0.199-0.538s-0.069-0.402-0.207-0.543C76.043,97.622,75.868,97.553,75.656,97.553z"
		/>
	<path fill="#FFFFFF" d="M80.48,99.66c0,0.649-0.111,1.132-0.333,1.447c-0.222,0.316-0.569,0.474-1.041,0.474
		c-0.465,0-0.81-0.154-1.034-0.463c-0.224-0.309-0.34-0.77-0.348-1.384v-0.74c0-0.642,0.111-1.118,0.333-1.43
		c0.222-0.312,0.569-0.468,1.043-0.468c0.47,0,0.815,0.15,1.038,0.451c0.222,0.301,0.335,0.765,0.341,1.393V99.66z M79.926,98.901
		c0-0.47-0.066-0.812-0.198-1.026c-0.132-0.215-0.341-0.322-0.626-0.322c-0.284,0-0.491,0.106-0.621,0.32s-0.197,0.543-0.201,0.986
		v0.888c0,0.472,0.068,0.819,0.205,1.044c0.137,0.226,0.344,0.338,0.622,0.338c0.274,0,0.478-0.106,0.61-0.318
		c0.133-0.211,0.202-0.545,0.208-1.001V98.901z"/>
	<path fill="#FFFFFF" d="M83.928,99.66c0,0.649-0.111,1.132-0.333,1.447c-0.222,0.316-0.569,0.474-1.041,0.474
		c-0.465,0-0.81-0.154-1.034-0.463c-0.224-0.309-0.34-0.77-0.348-1.384v-0.74c0-0.642,0.111-1.118,0.333-1.43
		c0.222-0.312,0.569-0.468,1.043-0.468c0.469,0,0.815,0.15,1.038,0.451c0.222,0.301,0.336,0.765,0.342,1.393V99.66z M83.373,98.901
		c0-0.47-0.066-0.812-0.198-1.026s-0.341-0.322-0.626-0.322c-0.284,0-0.491,0.106-0.621,0.32s-0.197,0.543-0.201,0.986v0.888
		c0,0.472,0.068,0.819,0.205,1.044c0.137,0.226,0.344,0.338,0.622,0.338c0.274,0,0.477-0.106,0.61-0.318
		c0.133-0.211,0.203-0.545,0.209-1.001V98.901z"/>
	<path fill="#FFFFFF" d="M84.707,101.23c0-0.096,0.028-0.176,0.086-0.239c0.057-0.064,0.143-0.097,0.256-0.097s0.2,0.032,0.26,0.097
		c0.059,0.063,0.088,0.144,0.088,0.239c0,0.092-0.029,0.169-0.088,0.231c-0.06,0.062-0.146,0.093-0.26,0.093
		s-0.199-0.031-0.256-0.093C84.735,101.399,84.707,101.322,84.707,101.23z"/>
	<path fill="#FFFFFF" d="M88.99,99.66c0,0.649-0.11,1.132-0.332,1.447c-0.222,0.316-0.568,0.474-1.041,0.474
		c-0.465,0-0.81-0.154-1.033-0.463c-0.225-0.309-0.34-0.77-0.348-1.384v-0.74c0-0.642,0.11-1.118,0.332-1.43
		c0.223-0.312,0.57-0.468,1.043-0.468c0.471,0,0.816,0.15,1.038,0.451s0.335,0.765,0.341,1.393V99.66z M88.437,98.901
		c0-0.47-0.065-0.812-0.198-1.026c-0.132-0.215-0.341-0.322-0.627-0.322c-0.283,0-0.49,0.106-0.62,0.32s-0.196,0.543-0.2,0.986
		v0.888c0,0.472,0.068,0.819,0.205,1.044c0.137,0.226,0.344,0.338,0.621,0.338c0.274,0,0.479-0.106,0.611-0.318
		c0.133-0.211,0.201-0.545,0.208-1.001V98.901z"/>
	<path fill="#FFFFFF" d="M92.562,101.521h-2.86v-0.398l1.512-1.679c0.224-0.254,0.378-0.461,0.463-0.619
		c0.085-0.159,0.127-0.323,0.127-0.493c0-0.229-0.068-0.415-0.207-0.561c-0.137-0.146-0.321-0.219-0.551-0.219
		c-0.275,0-0.49,0.078-0.643,0.234c-0.154,0.157-0.23,0.376-0.23,0.655h-0.555c0-0.401,0.13-0.727,0.389-0.974
		c0.259-0.248,0.605-0.372,1.039-0.372c0.405,0,0.727,0.106,0.962,0.319s0.354,0.496,0.354,0.85c0,0.43-0.274,0.941-0.822,1.535
		l-1.169,1.268h2.191V101.521z"/>
	<path fill="#FFFFFF" d="M96.01,101.521h-2.86v-0.398l1.511-1.679c0.225-0.254,0.379-0.461,0.463-0.619
		c0.086-0.159,0.128-0.323,0.128-0.493c0-0.229-0.069-0.415-0.207-0.561c-0.138-0.146-0.321-0.219-0.552-0.219
		c-0.275,0-0.49,0.078-0.643,0.234c-0.153,0.157-0.229,0.376-0.229,0.655h-0.555c0-0.401,0.13-0.727,0.388-0.974
		c0.26-0.248,0.605-0.372,1.039-0.372c0.406,0,0.727,0.106,0.963,0.319c0.235,0.213,0.354,0.496,0.354,0.85
		c0,0.43-0.273,0.941-0.821,1.535l-1.169,1.268h2.191V101.521z"/>
	<path fill="#FFFFFF" d="M96.666,101.23c0-0.096,0.027-0.176,0.085-0.239c0.058-0.064,0.143-0.097,0.257-0.097
		c0.113,0,0.199,0.032,0.259,0.097c0.06,0.063,0.089,0.144,0.089,0.239c0,0.092-0.029,0.169-0.089,0.231
		c-0.06,0.062-0.146,0.093-0.259,0.093c-0.114,0-0.199-0.031-0.257-0.093C96.693,101.399,96.666,101.322,96.666,101.23z"/>
	<path fill="#FFFFFF" d="M101.03,97.469l-1.808,4.053h-0.582l1.803-3.909H98.08v-0.456h2.95V97.469z"/>
	<path fill="#FFFFFF" d="M104.002,100.056h0.605v0.452h-0.605v1.014h-0.559v-1.014h-1.987v-0.326l1.954-3.025h0.592V100.056z
		 M102.086,100.056h1.357v-2.141l-0.065,0.12L102.086,100.056z"/>
	<path fill="#FFFFFF" d="M107.233,99.603c-0.116,0.139-0.255,0.249-0.415,0.333c-0.161,0.084-0.338,0.126-0.529,0.126
		c-0.252,0-0.471-0.062-0.658-0.186c-0.187-0.124-0.331-0.299-0.434-0.523c-0.102-0.225-0.152-0.474-0.152-0.745
		c0-0.292,0.056-0.555,0.166-0.788c0.111-0.234,0.269-0.413,0.473-0.537c0.203-0.124,0.441-0.186,0.713-0.186
		c0.432,0,0.772,0.161,1.021,0.484c0.248,0.322,0.373,0.763,0.373,1.32v0.162c0,0.85-0.168,1.469-0.504,1.86
		c-0.336,0.391-0.842,0.591-1.52,0.601h-0.107v-0.471h0.116c0.458-0.008,0.81-0.127,1.056-0.357S107.211,100.102,107.233,99.603z
		 M106.379,99.603c0.186,0,0.357-0.057,0.514-0.171c0.157-0.113,0.271-0.255,0.344-0.423v-0.222c0-0.363-0.079-0.659-0.236-0.887
		c-0.158-0.229-0.358-0.342-0.6-0.342c-0.244,0-0.439,0.093-0.588,0.28c-0.148,0.187-0.223,0.433-0.223,0.738
		c0,0.298,0.072,0.544,0.215,0.736C105.947,99.507,106.139,99.603,106.379,99.603z"/>
	<path fill="#FFFFFF" d="M72.176,107.118c0-0.452,0.06-0.886,0.181-1.302c0.121-0.415,0.301-0.793,0.541-1.133
		s0.489-0.579,0.747-0.72l0.114,0.366c-0.292,0.224-0.531,0.565-0.718,1.025c-0.187,0.459-0.29,0.974-0.307,1.544l-0.003,0.255
		c0,0.771,0.141,1.44,0.423,2.008c0.17,0.34,0.372,0.605,0.605,0.798l-0.114,0.339c-0.266-0.148-0.52-0.396-0.761-0.743
		C72.412,108.876,72.176,108.063,72.176,107.118z"/>
	<path fill="#FFFFFF" d="M77.098,108.89h-2.86v-0.398l1.511-1.679c0.224-0.254,0.378-0.461,0.463-0.619
		c0.085-0.159,0.127-0.323,0.127-0.493c0-0.229-0.069-0.415-0.207-0.561c-0.138-0.146-0.322-0.219-0.552-0.219
		c-0.275,0-0.49,0.078-0.643,0.234c-0.153,0.157-0.229,0.376-0.229,0.655h-0.555c0-0.401,0.129-0.727,0.388-0.974
		c0.259-0.248,0.605-0.372,1.039-0.372c0.406,0,0.727,0.106,0.962,0.319s0.354,0.496,0.354,0.85c0,0.43-0.274,0.941-0.821,1.535
		l-1.169,1.268h2.191V108.89z"/>
	<path fill="#FFFFFF" d="M80.422,107.028c0,0.649-0.111,1.132-0.333,1.447c-0.222,0.316-0.569,0.474-1.041,0.474
		c-0.465,0-0.81-0.154-1.034-0.463c-0.224-0.309-0.34-0.77-0.348-1.384v-0.74c0-0.642,0.111-1.118,0.333-1.43
		c0.222-0.312,0.569-0.468,1.043-0.468c0.47,0,0.815,0.15,1.038,0.451c0.222,0.301,0.335,0.765,0.341,1.393V107.028z M79.868,106.27
		c0-0.47-0.066-0.812-0.198-1.026c-0.132-0.215-0.341-0.322-0.626-0.322c-0.284,0-0.491,0.106-0.621,0.32s-0.197,0.543-0.201,0.986
		v0.888c0,0.472,0.068,0.819,0.205,1.044c0.137,0.226,0.344,0.338,0.622,0.338c0.274,0,0.478-0.106,0.61-0.318
		c0.133-0.211,0.202-0.545,0.208-1.001V106.27z"/>
	<path fill="#FFFFFF" d="M83.87,107.028c0,0.649-0.11,1.132-0.333,1.447c-0.221,0.316-0.568,0.474-1.04,0.474
		c-0.465,0-0.81-0.154-1.034-0.463c-0.224-0.309-0.34-0.77-0.348-1.384v-0.74c0-0.642,0.111-1.118,0.333-1.43
		c0.222-0.312,0.569-0.468,1.043-0.468c0.47,0,0.815,0.15,1.038,0.451c0.221,0.301,0.335,0.765,0.341,1.393V107.028z M83.316,106.27
		c0-0.47-0.066-0.812-0.199-1.026c-0.131-0.215-0.34-0.322-0.626-0.322c-0.284,0-0.491,0.106-0.621,0.32s-0.197,0.543-0.201,0.986
		v0.888c0,0.472,0.068,0.819,0.205,1.044c0.137,0.226,0.344,0.338,0.622,0.338c0.274,0,0.478-0.106,0.61-0.318
		c0.133-0.211,0.202-0.545,0.209-1.001V106.27z"/>
	<path fill="#FFFFFF" d="M86.707,106.971c-0.116,0.139-0.255,0.249-0.416,0.333c-0.16,0.084-0.337,0.126-0.529,0.126
		c-0.252,0-0.471-0.062-0.658-0.186c-0.186-0.124-0.33-0.299-0.433-0.523s-0.153-0.474-0.153-0.745c0-0.292,0.057-0.555,0.167-0.788
		c0.11-0.234,0.269-0.413,0.472-0.537c0.204-0.124,0.441-0.186,0.714-0.186c0.432,0,0.772,0.161,1.021,0.484
		c0.249,0.322,0.373,0.763,0.373,1.32v0.162c0,0.85-0.168,1.469-0.504,1.86c-0.335,0.391-0.842,0.591-1.52,0.601h-0.107v-0.471
		h0.117c0.457-0.008,0.809-0.127,1.055-0.357S86.685,107.47,86.707,106.971z M85.852,106.971c0.187,0,0.357-0.057,0.515-0.171
		c0.157-0.113,0.271-0.255,0.343-0.423v-0.222c0-0.363-0.078-0.659-0.236-0.887c-0.158-0.229-0.357-0.342-0.6-0.342
		c-0.244,0-0.439,0.093-0.588,0.28c-0.147,0.187-0.222,0.433-0.222,0.738c0,0.298,0.071,0.544,0.214,0.736
		C85.421,106.875,85.612,106.971,85.852,106.971z"/>
	<path fill="#FFFFFF" d="M89.239,107.262h-1.463v-0.452h1.463V107.262z"/>
	<path fill="#FFFFFF" d="M92.582,108.89h-2.859v-0.398l1.51-1.679c0.225-0.254,0.379-0.461,0.464-0.619
		c0.085-0.159,0.128-0.323,0.128-0.493c0-0.229-0.069-0.415-0.207-0.561c-0.139-0.146-0.322-0.219-0.553-0.219
		c-0.275,0-0.489,0.078-0.643,0.234c-0.152,0.157-0.229,0.376-0.229,0.655h-0.555c0-0.401,0.129-0.727,0.388-0.974
		c0.259-0.248,0.604-0.372,1.038-0.372c0.406,0,0.727,0.106,0.963,0.319s0.354,0.496,0.354,0.85c0,0.43-0.273,0.941-0.82,1.535
		l-1.17,1.268h2.191V108.89z"/>
	<path fill="#FFFFFF" d="M95.906,107.028c0,0.649-0.11,1.132-0.332,1.447c-0.222,0.316-0.568,0.474-1.041,0.474
		c-0.465,0-0.81-0.154-1.033-0.463c-0.225-0.309-0.34-0.77-0.348-1.384v-0.74c0-0.642,0.11-1.118,0.332-1.43
		c0.223-0.312,0.57-0.468,1.043-0.468c0.471,0,0.816,0.15,1.038,0.451s0.335,0.765,0.341,1.393V107.028z M95.353,106.27
		c0-0.47-0.065-0.812-0.198-1.026c-0.132-0.215-0.341-0.322-0.627-0.322c-0.283,0-0.49,0.106-0.62,0.32s-0.196,0.543-0.2,0.986
		v0.888c0,0.472,0.068,0.819,0.205,1.044c0.137,0.226,0.344,0.338,0.621,0.338c0.274,0,0.479-0.106,0.611-0.318
		c0.133-0.211,0.201-0.545,0.208-1.001V106.27z"/>
	<path fill="#FFFFFF" d="M98.44,108.89h-0.558v-3.696l-1.118,0.41v-0.503l1.589-0.597h0.087V108.89z"/>
	<path fill="#FFFFFF" d="M100.32,106.701l0.221-2.177h2.236v0.513h-1.766l-0.131,1.19c0.213-0.126,0.456-0.188,0.729-0.188
		c0.396,0,0.713,0.131,0.947,0.394c0.233,0.263,0.35,0.618,0.35,1.066c0,0.449-0.121,0.804-0.363,1.063
		c-0.243,0.259-0.582,0.388-1.018,0.388c-0.387,0-0.701-0.106-0.945-0.32c-0.243-0.214-0.383-0.51-0.416-0.888h0.524
		c0.034,0.25,0.123,0.438,0.267,0.565c0.145,0.127,0.334,0.19,0.57,0.19c0.258,0,0.459-0.088,0.606-0.264s0.221-0.419,0.221-0.729
		c0-0.292-0.079-0.526-0.239-0.703c-0.158-0.177-0.369-0.266-0.633-0.266c-0.242,0-0.432,0.053-0.57,0.159l-0.146,0.12
		L100.32,106.701z"/>
	<path fill="#FFFFFF" d="M104.85,107.147c0,0.446-0.059,0.873-0.176,1.282c-0.116,0.408-0.295,0.786-0.536,1.132
		s-0.493,0.591-0.757,0.737l-0.117-0.339c0.309-0.236,0.555-0.603,0.742-1.099c0.188-0.497,0.282-1.048,0.286-1.653v-0.096
		c0-0.42-0.044-0.811-0.132-1.171c-0.088-0.361-0.211-0.685-0.367-0.97c-0.156-0.286-0.334-0.509-0.529-0.669l0.117-0.339
		c0.264,0.146,0.516,0.39,0.754,0.731s0.418,0.719,0.537,1.131C104.79,106.237,104.85,106.679,104.85,107.147z"/>
</g>
<g>
	<path fill="#FFFFFF" d="M134.475,92.209c-0.494-0.143-0.854-0.316-1.078-0.523s-0.338-0.462-0.338-0.766
		c0-0.344,0.138-0.629,0.412-0.854c0.275-0.225,0.633-0.337,1.072-0.337c0.3,0,0.566,0.058,0.802,0.174s0.417,0.275,0.546,0.479
		s0.193,0.427,0.193,0.669h-0.578c0-0.265-0.084-0.473-0.252-0.625c-0.168-0.151-0.405-0.227-0.711-0.227
		c-0.283,0-0.506,0.063-0.664,0.188c-0.159,0.125-0.238,0.299-0.238,0.521c0,0.178,0.075,0.328,0.227,0.452
		c0.15,0.123,0.407,0.235,0.77,0.338c0.363,0.102,0.646,0.214,0.852,0.337s0.357,0.267,0.456,0.431s0.148,0.356,0.148,0.578
		c0,0.354-0.138,0.637-0.413,0.85c-0.276,0.213-0.645,0.319-1.107,0.319c-0.299,0-0.579-0.057-0.839-0.172s-0.46-0.272-0.601-0.473
		c-0.142-0.199-0.212-0.427-0.212-0.68h0.579c0,0.264,0.098,0.472,0.292,0.625c0.194,0.152,0.455,0.229,0.78,0.229
		c0.305,0,0.537-0.062,0.699-0.186s0.242-0.293,0.242-0.507s-0.074-0.379-0.225-0.496C135.14,92.438,134.867,92.322,134.475,92.209z
		"/>
	<path fill="#FFFFFF" d="M137.447,94.154h-0.574v-4.365h0.574V94.154z"/>
	<path fill="#FFFFFF" d="M141.711,92.77c-0.054,0.461-0.225,0.817-0.512,1.068c-0.286,0.251-0.668,0.376-1.143,0.376
		c-0.516,0-0.93-0.185-1.24-0.555c-0.311-0.369-0.466-0.864-0.466-1.483v-0.42c0-0.405,0.072-0.763,0.218-1.07
		c0.145-0.308,0.35-0.544,0.615-0.709s0.574-0.247,0.924-0.247c0.463,0,0.835,0.129,1.115,0.388c0.279,0.26,0.442,0.617,0.488,1.075
		h-0.578c-0.051-0.349-0.158-0.602-0.326-0.758c-0.166-0.156-0.4-0.234-0.699-0.234c-0.368,0-0.656,0.136-0.865,0.408
		c-0.209,0.271-0.313,0.659-0.313,1.161v0.423c0,0.474,0.098,0.852,0.296,1.131c0.198,0.28,0.476,0.42,0.831,0.42
		c0.319,0,0.564-0.072,0.735-0.217s0.284-0.397,0.341-0.757H141.711z"/>
	<path fill="#FFFFFF" d="M145.854,92.112c0,0.428-0.071,0.802-0.215,1.12c-0.145,0.318-0.348,0.563-0.611,0.73
		c-0.265,0.167-0.572,0.251-0.924,0.251c-0.344,0-0.648-0.084-0.914-0.253c-0.267-0.169-0.473-0.41-0.619-0.723
		c-0.147-0.313-0.223-0.675-0.227-1.087v-0.314c0-0.42,0.072-0.79,0.219-1.112c0.146-0.321,0.352-0.568,0.619-0.739
		c0.267-0.171,0.572-0.256,0.916-0.256c0.35,0,0.658,0.084,0.924,0.253c0.268,0.169,0.473,0.414,0.617,0.734
		c0.144,0.321,0.215,0.694,0.215,1.12V92.112z M145.281,91.831c0-0.518-0.104-0.915-0.312-1.191
		c-0.208-0.277-0.499-0.416-0.872-0.416c-0.364,0-0.65,0.139-0.859,0.416c-0.209,0.276-0.316,0.66-0.322,1.152v0.32
		c0,0.502,0.105,0.896,0.316,1.183c0.211,0.287,0.501,0.431,0.871,0.431c0.371,0,0.659-0.136,0.863-0.406
		c0.203-0.271,0.309-0.659,0.314-1.165V91.831z"/>
	<path fill="#FFFFFF" d="M150.072,94.154h-0.579l-2.197-3.363v3.363h-0.579v-4.365h0.579l2.203,3.379v-3.379h0.573V94.154z"/>
	<path fill="#FFFFFF" d="M152.539,93.39l1.247-3.601h0.63l-1.619,4.365h-0.51l-1.615-4.365h0.626L152.539,93.39z"/>
	<path fill="#FFFFFF" d="M126.63,100.056h0.605v0.452h-0.605v1.014h-0.558v-1.014h-1.988v-0.326l1.955-3.025h0.591V100.056z
		 M124.715,100.056h1.357v-2.141l-0.066,0.12L124.715,100.056z"/>
	<path fill="#FFFFFF" d="M127.805,101.23c0-0.096,0.029-0.176,0.086-0.239c0.057-0.064,0.143-0.097,0.256-0.097
		c0.114,0,0.201,0.032,0.26,0.097c0.059,0.063,0.088,0.144,0.088,0.239c0,0.092-0.029,0.169-0.088,0.231
		c-0.059,0.062-0.146,0.093-0.26,0.093c-0.113,0-0.199-0.031-0.256-0.093C127.834,101.399,127.805,101.322,127.805,101.23z"/>
	<path fill="#FFFFFF" d="M130.158,99.069h0.417c0.262-0.004,0.468-0.073,0.618-0.207c0.149-0.134,0.225-0.314,0.225-0.543
		c0-0.511-0.256-0.767-0.765-0.767c-0.24,0-0.432,0.068-0.574,0.205c-0.144,0.137-0.214,0.318-0.214,0.544h-0.555
		c0-0.346,0.126-0.633,0.379-0.862c0.252-0.229,0.574-0.343,0.964-0.343c0.411,0,0.734,0.108,0.968,0.327
		c0.234,0.218,0.352,0.521,0.352,0.908c0,0.189-0.063,0.373-0.186,0.552c-0.122,0.178-0.289,0.311-0.502,0.398
		c0.24,0.076,0.426,0.202,0.557,0.378s0.196,0.391,0.196,0.645c0,0.392-0.128,0.702-0.384,0.932
		c-0.256,0.23-0.588,0.345-0.998,0.345s-0.743-0.11-1-0.332c-0.257-0.223-0.385-0.515-0.385-0.879h0.557
		c0,0.23,0.076,0.414,0.226,0.552s0.351,0.207,0.603,0.207c0.268,0,0.473-0.07,0.614-0.21s0.213-0.341,0.213-0.603
		c0-0.254-0.077-0.449-0.233-0.585s-0.381-0.205-0.675-0.21h-0.417V99.069z"/>
	<path fill="#FFFFFF" d="M135.447,98.296c0,0.218-0.058,0.411-0.173,0.581c-0.114,0.17-0.271,0.303-0.466,0.399
		c0.228,0.098,0.408,0.24,0.541,0.429c0.133,0.188,0.199,0.4,0.199,0.639c0,0.377-0.127,0.678-0.383,0.902
		c-0.254,0.224-0.59,0.335-1.006,0.335c-0.419,0-0.756-0.112-1.008-0.337c-0.254-0.225-0.379-0.525-0.379-0.9
		c0-0.236,0.064-0.449,0.193-0.639c0.129-0.19,0.307-0.334,0.535-0.432c-0.194-0.097-0.348-0.229-0.459-0.399
		c-0.112-0.17-0.168-0.362-0.168-0.578c0-0.368,0.117-0.66,0.354-0.876s0.547-0.323,0.932-0.323s0.695,0.107,0.932,0.323
		S135.447,97.928,135.447,98.296z M134.994,100.331c0-0.243-0.078-0.442-0.232-0.597c-0.154-0.153-0.357-0.23-0.607-0.23
		s-0.449,0.076-0.601,0.228c-0.151,0.152-0.227,0.353-0.227,0.6c0,0.248,0.073,0.443,0.221,0.585s0.351,0.213,0.612,0.213
		c0.26,0,0.465-0.071,0.612-0.215C134.92,100.771,134.994,100.577,134.994,100.331z M134.16,97.553
		c-0.217,0-0.394,0.067-0.528,0.202c-0.136,0.135-0.202,0.318-0.202,0.55c0,0.222,0.066,0.401,0.199,0.538s0.311,0.205,0.531,0.205
		c0.223,0,0.4-0.068,0.533-0.205s0.199-0.316,0.199-0.538s-0.069-0.402-0.207-0.543C134.547,97.622,134.373,97.553,134.16,97.553z"
		/>
	<path fill="#FFFFFF" d="M138.424,97.153v0.471h-0.102c-0.433,0.008-0.776,0.136-1.031,0.384c-0.256,0.248-0.404,0.597-0.444,1.047
		c0.229-0.265,0.544-0.396,0.941-0.396c0.38,0,0.683,0.134,0.909,0.402c0.228,0.268,0.341,0.613,0.341,1.037
		c0,0.449-0.122,0.81-0.367,1.079s-0.573,0.404-0.985,0.404c-0.418,0-0.756-0.16-1.016-0.48c-0.26-0.321-0.391-0.734-0.391-1.24
		v-0.213c0-0.803,0.172-1.417,0.515-1.842s0.853-0.643,1.53-0.652H138.424z M137.695,99.12c-0.19,0-0.365,0.057-0.525,0.171
		s-0.271,0.257-0.332,0.429v0.204c0,0.359,0.08,0.649,0.242,0.869s0.364,0.33,0.605,0.33c0.25,0,0.447-0.092,0.59-0.276
		c0.143-0.184,0.214-0.425,0.214-0.723c0-0.3-0.072-0.542-0.218-0.727C138.127,99.213,137.936,99.12,137.695,99.12z"/>
	<path fill="#FFFFFF" d="M139.764,101.23c0-0.096,0.028-0.176,0.086-0.239c0.057-0.064,0.143-0.097,0.256-0.097
		s0.2,0.032,0.26,0.097c0.059,0.063,0.088,0.144,0.088,0.239c0,0.092-0.029,0.169-0.088,0.231c-0.06,0.062-0.146,0.093-0.26,0.093
		s-0.199-0.031-0.256-0.093C139.792,101.399,139.764,101.322,139.764,101.23z"/>
	<path fill="#FFFFFF" d="M144.129,97.469l-1.809,4.053h-0.581l1.802-3.909h-2.362v-0.456h2.95V97.469z"/>
	<path fill="#FFFFFF" d="M147.405,98.296c0,0.218-0.058,0.411-0.173,0.581c-0.114,0.17-0.27,0.303-0.465,0.399
		c0.227,0.098,0.407,0.24,0.541,0.429c0.133,0.188,0.199,0.4,0.199,0.639c0,0.377-0.128,0.678-0.383,0.902
		c-0.255,0.224-0.59,0.335-1.006,0.335c-0.42,0-0.756-0.112-1.009-0.337s-0.379-0.525-0.379-0.9c0-0.236,0.064-0.449,0.193-0.639
		c0.129-0.19,0.308-0.334,0.535-0.432c-0.194-0.097-0.347-0.229-0.459-0.399s-0.168-0.362-0.168-0.578
		c0-0.368,0.118-0.66,0.354-0.876c0.235-0.216,0.546-0.323,0.932-0.323c0.384,0,0.694,0.107,0.932,0.323
		C147.287,97.636,147.405,97.928,147.405,98.296z M146.953,100.331c0-0.243-0.078-0.442-0.232-0.597
		c-0.155-0.153-0.357-0.23-0.607-0.23s-0.45,0.076-0.602,0.228c-0.15,0.152-0.227,0.353-0.227,0.6c0,0.248,0.074,0.443,0.221,0.585
		c0.147,0.142,0.352,0.213,0.613,0.213c0.26,0,0.464-0.071,0.611-0.215C146.879,100.771,146.953,100.577,146.953,100.331z
		 M146.119,97.553c-0.218,0-0.395,0.067-0.529,0.202s-0.202,0.318-0.202,0.55c0,0.222,0.066,0.401,0.2,0.538
		c0.133,0.137,0.31,0.205,0.531,0.205c0.223,0,0.399-0.068,0.532-0.205s0.199-0.316,0.199-0.538s-0.069-0.402-0.206-0.543
		C146.506,97.622,146.331,97.553,146.119,97.553z"/>
	<path fill="#FFFFFF" d="M150.854,98.296c0,0.218-0.058,0.411-0.173,0.581c-0.114,0.17-0.271,0.303-0.466,0.399
		c0.228,0.098,0.408,0.24,0.541,0.429c0.133,0.188,0.199,0.4,0.199,0.639c0,0.377-0.127,0.678-0.383,0.902
		c-0.254,0.224-0.59,0.335-1.006,0.335c-0.419,0-0.756-0.112-1.008-0.337c-0.254-0.225-0.379-0.525-0.379-0.9
		c0-0.236,0.064-0.449,0.193-0.639c0.129-0.19,0.307-0.334,0.535-0.432c-0.194-0.097-0.348-0.229-0.459-0.399
		c-0.112-0.17-0.168-0.362-0.168-0.578c0-0.368,0.117-0.66,0.354-0.876s0.547-0.323,0.932-0.323s0.695,0.107,0.932,0.323
		S150.854,97.928,150.854,98.296z M150.4,100.331c0-0.243-0.078-0.442-0.232-0.597c-0.154-0.153-0.357-0.23-0.607-0.23
		s-0.449,0.076-0.601,0.228c-0.151,0.152-0.227,0.353-0.227,0.6c0,0.248,0.073,0.443,0.221,0.585s0.351,0.213,0.612,0.213
		c0.26,0,0.465-0.071,0.612-0.215C150.326,100.771,150.4,100.577,150.4,100.331z M149.566,97.553c-0.217,0-0.394,0.067-0.528,0.202
		c-0.136,0.135-0.202,0.318-0.202,0.55c0,0.222,0.066,0.401,0.199,0.538s0.311,0.205,0.531,0.205c0.223,0,0.4-0.068,0.533-0.205
		s0.199-0.316,0.199-0.538s-0.069-0.402-0.207-0.543C149.953,97.622,149.779,97.553,149.566,97.553z"/>
	<path fill="#FFFFFF" d="M151.723,101.23c0-0.096,0.027-0.176,0.085-0.239c0.058-0.064,0.143-0.097,0.257-0.097
		c0.113,0,0.199,0.032,0.259,0.097c0.06,0.063,0.089,0.144,0.089,0.239c0,0.092-0.029,0.169-0.089,0.231
		c-0.06,0.062-0.146,0.093-0.259,0.093c-0.114,0-0.199-0.031-0.257-0.093C151.75,101.399,151.723,101.322,151.723,101.23z"/>
	<path fill="#FFFFFF" d="M154.075,99.069h0.417c0.262-0.004,0.468-0.073,0.617-0.207c0.15-0.134,0.225-0.314,0.225-0.543
		c0-0.511-0.254-0.767-0.764-0.767c-0.24,0-0.432,0.068-0.574,0.205s-0.215,0.318-0.215,0.544h-0.555
		c0-0.346,0.127-0.633,0.38-0.862c0.253-0.229,0.573-0.343,0.964-0.343c0.412,0,0.734,0.108,0.969,0.327
		c0.233,0.218,0.35,0.521,0.35,0.908c0,0.189-0.061,0.373-0.184,0.552c-0.123,0.178-0.291,0.311-0.502,0.398
		c0.239,0.076,0.425,0.202,0.556,0.378s0.196,0.391,0.196,0.645c0,0.392-0.128,0.702-0.384,0.932
		c-0.256,0.23-0.589,0.345-0.998,0.345s-0.743-0.11-1-0.332c-0.257-0.223-0.386-0.515-0.386-0.879h0.559
		c0,0.23,0.074,0.414,0.225,0.552s0.351,0.207,0.603,0.207c0.268,0,0.473-0.07,0.614-0.21c0.143-0.14,0.213-0.341,0.213-0.603
		c0-0.254-0.078-0.449-0.234-0.585c-0.155-0.136-0.38-0.205-0.674-0.21h-0.417V99.069z"/>
	<path fill="#FFFFFF" d="M156.972,99.333l0.222-2.177h2.236v0.513h-1.766l-0.132,1.19c0.214-0.126,0.456-0.188,0.729-0.188
		c0.397,0,0.714,0.131,0.947,0.394s0.351,0.618,0.351,1.066c0,0.449-0.121,0.804-0.364,1.063s-0.582,0.388-1.018,0.388
		c-0.386,0-0.7-0.106-0.944-0.32s-0.383-0.51-0.416-0.888h0.523c0.035,0.25,0.123,0.438,0.268,0.565
		c0.144,0.127,0.334,0.19,0.569,0.19c0.258,0,0.46-0.088,0.606-0.264c0.147-0.176,0.221-0.419,0.221-0.729
		c0-0.292-0.079-0.526-0.238-0.703c-0.158-0.177-0.37-0.266-0.634-0.266c-0.241,0-0.432,0.053-0.569,0.159l-0.147,0.12
		L156.972,99.333z"/>
	<path fill="#FFFFFF" d="M162.506,100.056h0.605v0.452h-0.605v1.014h-0.558v-1.014h-1.987v-0.326l1.954-3.025h0.591V100.056z
		 M160.59,100.056h1.358v-2.141l-0.065,0.12L160.59,100.056z"/>
	<path fill="#FFFFFF" d="M127.232,107.118c0-0.452,0.061-0.886,0.182-1.302c0.121-0.415,0.301-0.793,0.541-1.133
		c0.239-0.34,0.488-0.579,0.746-0.72l0.113,0.366c-0.291,0.224-0.53,0.565-0.717,1.025c-0.188,0.459-0.29,0.974-0.308,1.544
		l-0.003,0.255c0,0.771,0.141,1.44,0.422,2.008c0.17,0.34,0.372,0.605,0.605,0.798l-0.113,0.339
		c-0.266-0.148-0.52-0.396-0.762-0.743C127.469,108.876,127.232,108.063,127.232,107.118z"/>
	<path fill="#FFFFFF" d="M132.154,108.89h-2.859v-0.398l1.511-1.679c0.224-0.254,0.378-0.461,0.464-0.619
		c0.084-0.159,0.127-0.323,0.127-0.493c0-0.229-0.068-0.415-0.207-0.561c-0.138-0.146-0.322-0.219-0.552-0.219
		c-0.275,0-0.489,0.078-0.643,0.234c-0.153,0.157-0.229,0.376-0.229,0.655h-0.555c0-0.401,0.129-0.727,0.389-0.974
		c0.258-0.248,0.604-0.372,1.038-0.372c0.405,0,0.727,0.106,0.962,0.319c0.236,0.213,0.354,0.496,0.354,0.85
		c0,0.43-0.274,0.941-0.821,1.535l-1.17,1.268h2.191V108.89z"/>
	<path fill="#FFFFFF" d="M135.479,107.028c0,0.649-0.11,1.132-0.332,1.447c-0.222,0.316-0.568,0.474-1.041,0.474
		c-0.465,0-0.81-0.154-1.033-0.463c-0.225-0.309-0.34-0.77-0.348-1.384v-0.74c0-0.642,0.11-1.118,0.332-1.43
		c0.223-0.312,0.57-0.468,1.043-0.468c0.471,0,0.816,0.15,1.038,0.451s0.335,0.765,0.341,1.393V107.028z M134.925,106.27
		c0-0.47-0.065-0.812-0.198-1.026c-0.132-0.215-0.341-0.322-0.627-0.322c-0.283,0-0.49,0.106-0.62,0.32s-0.196,0.543-0.2,0.986
		v0.888c0,0.472,0.068,0.819,0.205,1.044c0.137,0.226,0.344,0.338,0.621,0.338c0.274,0,0.479-0.106,0.611-0.318
		c0.133-0.211,0.201-0.545,0.208-1.001V106.27z"/>
	<path fill="#FFFFFF" d="M138.927,107.028c0,0.649-0.11,1.132-0.333,1.447c-0.221,0.316-0.568,0.474-1.04,0.474
		c-0.466,0-0.81-0.154-1.034-0.463c-0.224-0.309-0.34-0.77-0.348-1.384v-0.74c0-0.642,0.111-1.118,0.333-1.43
		s0.569-0.468,1.043-0.468c0.47,0,0.815,0.15,1.038,0.451c0.221,0.301,0.335,0.765,0.341,1.393V107.028z M138.373,106.27
		c0-0.47-0.066-0.812-0.199-1.026c-0.131-0.215-0.34-0.322-0.626-0.322c-0.284,0-0.491,0.106-0.62,0.32
		c-0.131,0.214-0.197,0.543-0.201,0.986v0.888c0,0.472,0.068,0.819,0.205,1.044c0.137,0.226,0.344,0.338,0.622,0.338
		c0.274,0,0.478-0.106,0.61-0.318c0.133-0.211,0.202-0.545,0.209-1.001V106.27z"/>
	<path fill="#FFFFFF" d="M141.764,106.971c-0.116,0.139-0.255,0.249-0.416,0.333c-0.16,0.084-0.337,0.126-0.529,0.126
		c-0.252,0-0.471-0.062-0.658-0.186c-0.186-0.124-0.33-0.299-0.433-0.523s-0.153-0.474-0.153-0.745c0-0.292,0.057-0.555,0.167-0.788
		c0.11-0.234,0.269-0.413,0.472-0.537c0.204-0.124,0.441-0.186,0.714-0.186c0.432,0,0.772,0.161,1.021,0.484
		c0.249,0.322,0.373,0.763,0.373,1.32v0.162c0,0.85-0.168,1.469-0.504,1.86c-0.335,0.391-0.842,0.591-1.52,0.601h-0.107v-0.471
		h0.117c0.457-0.008,0.809-0.127,1.055-0.357S141.741,107.47,141.764,106.971z M140.908,106.971c0.187,0,0.357-0.057,0.515-0.171
		c0.157-0.113,0.271-0.255,0.343-0.423v-0.222c0-0.363-0.078-0.659-0.236-0.887c-0.158-0.229-0.357-0.342-0.6-0.342
		c-0.244,0-0.439,0.093-0.588,0.28c-0.147,0.187-0.222,0.433-0.222,0.738c0,0.298,0.071,0.544,0.214,0.736
		C140.478,106.875,140.669,106.971,140.908,106.971z"/>
	<path fill="#FFFFFF" d="M144.296,107.262h-1.463v-0.452h1.463V107.262z"/>
	<path fill="#FFFFFF" d="M147.639,108.89h-2.859v-0.398l1.51-1.679c0.225-0.254,0.379-0.461,0.464-0.619
		c0.085-0.159,0.128-0.323,0.128-0.493c0-0.229-0.069-0.415-0.207-0.561c-0.139-0.146-0.322-0.219-0.553-0.219
		c-0.275,0-0.489,0.078-0.643,0.234c-0.152,0.157-0.229,0.376-0.229,0.655h-0.555c0-0.401,0.129-0.727,0.388-0.974
		c0.259-0.248,0.604-0.372,1.038-0.372c0.406,0,0.727,0.106,0.963,0.319s0.354,0.496,0.354,0.85c0,0.43-0.273,0.941-0.82,1.535
		l-1.17,1.268h2.191V108.89z"/>
	<path fill="#FFFFFF" d="M150.963,107.028c0,0.649-0.11,1.132-0.332,1.447c-0.222,0.316-0.568,0.474-1.041,0.474
		c-0.465,0-0.81-0.154-1.033-0.463c-0.225-0.309-0.34-0.77-0.348-1.384v-0.74c0-0.642,0.11-1.118,0.332-1.43
		c0.223-0.312,0.57-0.468,1.043-0.468c0.471,0,0.816,0.15,1.038,0.451s0.335,0.765,0.341,1.393V107.028z M150.409,106.27
		c0-0.47-0.065-0.812-0.198-1.026c-0.132-0.215-0.341-0.322-0.627-0.322c-0.283,0-0.49,0.106-0.62,0.32s-0.196,0.543-0.2,0.986
		v0.888c0,0.472,0.068,0.819,0.205,1.044c0.137,0.226,0.344,0.338,0.621,0.338c0.274,0,0.479-0.106,0.611-0.318
		c0.133-0.211,0.201-0.545,0.208-1.001V106.27z"/>
	<path fill="#FFFFFF" d="M153.497,108.89h-0.558v-3.696l-1.118,0.41v-0.503l1.589-0.597h0.087V108.89z"/>
	<path fill="#FFFFFF" d="M155.377,106.701l0.221-2.177h2.236v0.513h-1.766l-0.131,1.19c0.213-0.126,0.456-0.188,0.729-0.188
		c0.396,0,0.713,0.131,0.947,0.394c0.233,0.263,0.35,0.618,0.35,1.066c0,0.449-0.121,0.804-0.363,1.063
		c-0.243,0.259-0.582,0.388-1.018,0.388c-0.387,0-0.701-0.106-0.945-0.32c-0.243-0.214-0.383-0.51-0.416-0.888h0.524
		c0.034,0.25,0.123,0.438,0.267,0.565c0.145,0.127,0.334,0.19,0.57,0.19c0.258,0,0.459-0.088,0.606-0.264s0.221-0.419,0.221-0.729
		c0-0.292-0.079-0.526-0.239-0.703c-0.158-0.177-0.369-0.266-0.633-0.266c-0.242,0-0.432,0.053-0.57,0.159l-0.146,0.12
		L155.377,106.701z"/>
	<path fill="#FFFFFF" d="M159.906,107.147c0,0.446-0.059,0.873-0.176,1.282c-0.116,0.408-0.295,0.786-0.536,1.132
		s-0.493,0.591-0.757,0.737l-0.117-0.339c0.309-0.236,0.555-0.603,0.742-1.099c0.188-0.497,0.282-1.048,0.286-1.653v-0.096
		c0-0.42-0.044-0.811-0.132-1.171c-0.088-0.361-0.211-0.685-0.367-0.97c-0.156-0.286-0.334-0.509-0.529-0.669l0.117-0.339
		c0.264,0.146,0.516,0.39,0.754,0.731s0.418,0.719,0.537,1.131C159.847,106.237,159.906,106.679,159.906,107.147z"/>
</g>
<g>
	<path fill="#FFFFFF" d="M195.163,92.209c-0.493-0.143-0.853-0.316-1.078-0.523c-0.225-0.207-0.337-0.462-0.337-0.766
		c0-0.344,0.137-0.629,0.412-0.854s0.632-0.337,1.072-0.337c0.299,0,0.566,0.058,0.801,0.174c0.235,0.116,0.418,0.275,0.547,0.479
		s0.193,0.427,0.193,0.669h-0.579c0-0.265-0.084-0.473-0.252-0.625c-0.168-0.151-0.405-0.227-0.71-0.227
		c-0.284,0-0.506,0.063-0.664,0.188c-0.16,0.125-0.238,0.299-0.238,0.521c0,0.178,0.074,0.328,0.226,0.452
		c0.151,0.123,0.407,0.235,0.771,0.338c0.363,0.102,0.646,0.214,0.852,0.337s0.356,0.267,0.455,0.431
		c0.1,0.164,0.148,0.356,0.148,0.578c0,0.354-0.137,0.637-0.413,0.85s-0.645,0.319-1.106,0.319c-0.3,0-0.58-0.057-0.84-0.172
		s-0.459-0.272-0.601-0.473c-0.142-0.199-0.212-0.427-0.212-0.68h0.579c0,0.264,0.098,0.472,0.292,0.625
		c0.195,0.152,0.455,0.229,0.781,0.229c0.304,0,0.537-0.062,0.699-0.186c0.161-0.124,0.242-0.293,0.242-0.507
		s-0.074-0.379-0.225-0.496C195.828,92.438,195.557,92.322,195.163,92.209z"/>
	<path fill="#FFFFFF" d="M198.137,94.154h-0.575v-4.365h0.575V94.154z"/>
	<path fill="#FFFFFF" d="M201.653,93.012h-1.829l-0.41,1.143h-0.594l1.667-4.365h0.503l1.67,4.365h-0.59L201.653,93.012z
		 M199.998,92.541h1.484l-0.744-2.041L199.998,92.541z"/>
	<path fill="#FFFFFF" d="M205.656,92.227h-1.832v1.928h-0.576v-4.365h2.705v0.471h-2.129v1.496h1.832V92.227z"/>
	<path fill="#FFFFFF" d="M207.26,94.154h-0.576v-4.365h0.576V94.154z"/>
	<path fill="#FFFFFF" d="M182.424,101.521h-2.859v-0.398l1.511-1.679c0.224-0.254,0.378-0.461,0.464-0.619
		c0.084-0.159,0.127-0.323,0.127-0.493c0-0.229-0.068-0.415-0.207-0.561c-0.138-0.146-0.322-0.219-0.552-0.219
		c-0.275,0-0.489,0.078-0.643,0.234c-0.153,0.157-0.229,0.376-0.229,0.655h-0.555c0-0.401,0.129-0.727,0.389-0.974
		c0.258-0.248,0.604-0.372,1.038-0.372c0.405,0,0.727,0.106,0.962,0.319c0.236,0.213,0.354,0.496,0.354,0.85
		c0,0.43-0.274,0.941-0.821,1.535l-1.17,1.268h2.191V101.521z"/>
	<path fill="#FFFFFF" d="M184.835,101.521h-0.558v-3.696l-1.118,0.41v-0.503l1.589-0.597h0.087V101.521z"/>
	<path fill="#FFFFFF" d="M186.528,101.23c0-0.096,0.028-0.176,0.085-0.239c0.058-0.064,0.143-0.097,0.257-0.097
		s0.2,0.032,0.259,0.097c0.06,0.063,0.089,0.144,0.089,0.239c0,0.092-0.029,0.169-0.089,0.231c-0.059,0.062-0.145,0.093-0.259,0.093
		s-0.199-0.031-0.257-0.093C186.557,101.399,186.528,101.322,186.528,101.23z"/>
	<path fill="#FFFFFF" d="M190.417,100.056h0.605v0.452h-0.605v1.014h-0.558v-1.014h-1.988v-0.326l1.955-3.025h0.591V100.056z
		 M188.502,100.056h1.357v-2.141l-0.066,0.12L188.502,100.056z"/>
	<path fill="#FFFFFF" d="M193.699,97.153v0.471h-0.102c-0.432,0.008-0.775,0.136-1.031,0.384s-0.404,0.597-0.443,1.047
		c0.229-0.265,0.543-0.396,0.941-0.396c0.379,0,0.683,0.134,0.909,0.402c0.228,0.268,0.341,0.613,0.341,1.037
		c0,0.449-0.123,0.81-0.367,1.079c-0.246,0.27-0.574,0.404-0.985,0.404c-0.418,0-0.757-0.16-1.017-0.48
		c-0.26-0.321-0.39-0.734-0.39-1.24v-0.213c0-0.803,0.171-1.417,0.515-1.842c0.342-0.425,0.853-0.643,1.53-0.652H193.699z
		 M192.971,99.12c-0.189,0-0.365,0.057-0.524,0.171c-0.16,0.114-0.271,0.257-0.333,0.429v0.204c0,0.359,0.081,0.649,0.243,0.869
		c0.161,0.22,0.364,0.33,0.605,0.33c0.25,0,0.446-0.092,0.589-0.276c0.143-0.184,0.215-0.425,0.215-0.723
		c0-0.3-0.072-0.542-0.218-0.727S193.211,99.12,192.971,99.12z"/>
	<path fill="#FFFFFF" d="M197.096,99.603c-0.115,0.139-0.254,0.249-0.414,0.333c-0.162,0.084-0.338,0.126-0.529,0.126
		c-0.252,0-0.472-0.062-0.658-0.186c-0.188-0.124-0.332-0.299-0.434-0.523s-0.152-0.474-0.152-0.745
		c0-0.292,0.055-0.555,0.166-0.788c0.111-0.234,0.268-0.413,0.473-0.537c0.203-0.124,0.441-0.186,0.713-0.186
		c0.432,0,0.771,0.161,1.021,0.484c0.248,0.322,0.373,0.763,0.373,1.32v0.162c0,0.85-0.168,1.469-0.504,1.86
		c-0.336,0.391-0.843,0.591-1.52,0.601h-0.108v-0.471h0.116c0.458-0.008,0.811-0.127,1.056-0.357
		C196.94,100.466,197.074,100.102,197.096,99.603z M196.242,99.603c0.186,0,0.357-0.057,0.514-0.171
		c0.156-0.113,0.271-0.255,0.344-0.423v-0.222c0-0.363-0.08-0.659-0.237-0.887c-0.157-0.229-0.358-0.342-0.6-0.342
		c-0.243,0-0.439,0.093-0.587,0.28c-0.148,0.187-0.223,0.433-0.223,0.738c0,0.298,0.072,0.544,0.215,0.736
		C195.811,99.507,196.002,99.603,196.242,99.603z"/>
	<path fill="#FFFFFF" d="M198.487,101.23c0-0.096,0.028-0.176,0.085-0.239c0.058-0.064,0.143-0.097,0.257-0.097
		s0.2,0.032,0.259,0.097c0.06,0.063,0.089,0.144,0.089,0.239c0,0.092-0.029,0.169-0.089,0.231c-0.059,0.062-0.145,0.093-0.259,0.093
		s-0.199-0.031-0.257-0.093C198.516,101.399,198.487,101.322,198.487,101.23z"/>
	<path fill="#FFFFFF" d="M202.895,101.521h-2.86v-0.398l1.511-1.679c0.225-0.254,0.379-0.461,0.463-0.619
		c0.086-0.159,0.128-0.323,0.128-0.493c0-0.229-0.069-0.415-0.207-0.561c-0.138-0.146-0.321-0.219-0.552-0.219
		c-0.275,0-0.49,0.078-0.643,0.234c-0.153,0.157-0.229,0.376-0.229,0.655h-0.555c0-0.401,0.13-0.727,0.388-0.974
		c0.26-0.248,0.605-0.372,1.039-0.372c0.406,0,0.727,0.106,0.963,0.319c0.235,0.213,0.354,0.496,0.354,0.85
		c0,0.43-0.273,0.941-0.821,1.535l-1.169,1.268h2.191V101.521z"/>
	<path fill="#FFFFFF" d="M204.287,99.069h0.418c0.262-0.004,0.467-0.073,0.617-0.207s0.225-0.314,0.225-0.543
		c0-0.511-0.255-0.767-0.764-0.767c-0.24,0-0.432,0.068-0.574,0.205c-0.144,0.137-0.215,0.318-0.215,0.544h-0.555
		c0-0.346,0.127-0.633,0.379-0.862c0.253-0.229,0.574-0.343,0.965-0.343c0.411,0,0.734,0.108,0.968,0.327
		c0.233,0.218,0.351,0.521,0.351,0.908c0,0.189-0.062,0.373-0.185,0.552c-0.122,0.178-0.29,0.311-0.502,0.398
		c0.239,0.076,0.425,0.202,0.556,0.378s0.197,0.391,0.197,0.645c0,0.392-0.129,0.702-0.385,0.932
		c-0.256,0.23-0.588,0.345-0.998,0.345c-0.409,0-0.742-0.11-1-0.332c-0.256-0.223-0.385-0.515-0.385-0.879h0.558
		c0,0.23,0.075,0.414,0.226,0.552c0.149,0.138,0.35,0.207,0.602,0.207c0.268,0,0.473-0.07,0.615-0.21
		c0.142-0.14,0.213-0.341,0.213-0.603c0-0.254-0.078-0.449-0.234-0.585s-0.381-0.205-0.674-0.21h-0.418V99.069z"/>
	<path fill="#FFFFFF" d="M207.184,99.333l0.223-2.177h2.236v0.513h-1.766l-0.133,1.19c0.215-0.126,0.457-0.188,0.729-0.188
		c0.398,0,0.714,0.131,0.947,0.394c0.234,0.263,0.352,0.618,0.352,1.066c0,0.449-0.121,0.804-0.365,1.063
		c-0.242,0.259-0.582,0.388-1.018,0.388c-0.385,0-0.7-0.106-0.943-0.32c-0.244-0.214-0.383-0.51-0.417-0.888h0.524
		c0.034,0.25,0.123,0.438,0.267,0.565s0.334,0.19,0.569,0.19c0.258,0,0.461-0.088,0.607-0.264s0.221-0.419,0.221-0.729
		c0-0.292-0.08-0.526-0.238-0.703c-0.159-0.177-0.371-0.266-0.635-0.266c-0.241,0-0.432,0.053-0.569,0.159l-0.147,0.12
		L207.184,99.333z"/>
	<path fill="#FFFFFF" d="M210.445,101.23c0-0.096,0.029-0.176,0.086-0.239c0.057-0.064,0.143-0.097,0.256-0.097
		c0.114,0,0.201,0.032,0.26,0.097c0.059,0.063,0.088,0.144,0.088,0.239c0,0.092-0.029,0.169-0.088,0.231
		c-0.059,0.062-0.146,0.093-0.26,0.093c-0.113,0-0.199-0.031-0.256-0.093C210.475,101.399,210.445,101.322,210.445,101.23z"/>
	<path fill="#FFFFFF" d="M214.169,97.153v0.471h-0.102c-0.433,0.008-0.776,0.136-1.031,0.384c-0.256,0.248-0.403,0.597-0.444,1.047
		c0.23-0.265,0.544-0.396,0.941-0.396c0.38,0,0.684,0.134,0.91,0.402c0.227,0.268,0.34,0.613,0.34,1.037
		c0,0.449-0.122,0.81-0.367,1.079c-0.244,0.27-0.572,0.404-0.984,0.404c-0.418,0-0.756-0.16-1.016-0.48
		c-0.261-0.321-0.391-0.734-0.391-1.24v-0.213c0-0.803,0.172-1.417,0.514-1.842c0.344-0.425,0.854-0.643,1.531-0.652H214.169z
		 M213.44,99.12c-0.19,0-0.364,0.057-0.524,0.171s-0.271,0.257-0.333,0.429v0.204c0,0.359,0.081,0.649,0.243,0.869
		s0.363,0.33,0.605,0.33c0.25,0,0.446-0.092,0.589-0.276c0.144-0.184,0.214-0.425,0.214-0.723c0-0.3-0.072-0.542-0.217-0.727
		S213.681,99.12,213.44,99.12z"/>
	<path fill="#FFFFFF" d="M217.781,100.056h0.605v0.452h-0.605v1.014h-0.557v-1.014h-1.988v-0.326l1.955-3.025h0.59V100.056z
		 M215.866,100.056h1.358v-2.141l-0.066,0.12L215.866,100.056z"/>
	<path fill="#FFFFFF" d="M221.625,99.66c0,0.649-0.111,1.132-0.333,1.447c-0.222,0.316-0.569,0.474-1.04,0.474
		c-0.466,0-0.811-0.154-1.035-0.463c-0.223-0.309-0.34-0.77-0.348-1.384v-0.74c0-0.642,0.111-1.118,0.334-1.43
		c0.221-0.312,0.568-0.468,1.043-0.468c0.469,0,0.814,0.15,1.037,0.451c0.222,0.301,0.336,0.765,0.342,1.393V99.66z M221.07,98.901
		c0-0.47-0.066-0.812-0.198-1.026s-0.341-0.322-0.626-0.322c-0.284,0-0.491,0.106-0.621,0.32s-0.197,0.543-0.201,0.986v0.888
		c0,0.472,0.068,0.819,0.205,1.044c0.138,0.226,0.345,0.338,0.623,0.338c0.273,0,0.477-0.106,0.609-0.318
		c0.133-0.211,0.203-0.545,0.209-1.001V98.901z"/>
	<path fill="#FFFFFF" d="M184.232,107.118c0-0.452,0.061-0.886,0.182-1.302c0.121-0.415,0.301-0.793,0.541-1.133
		c0.239-0.34,0.488-0.579,0.746-0.72l0.113,0.366c-0.291,0.224-0.53,0.565-0.717,1.025c-0.188,0.459-0.29,0.974-0.308,1.544
		l-0.003,0.255c0,0.771,0.141,1.44,0.422,2.008c0.17,0.34,0.372,0.605,0.605,0.798l-0.113,0.339
		c-0.266-0.148-0.52-0.396-0.762-0.743C184.469,108.876,184.232,108.063,184.232,107.118z"/>
	<path fill="#FFFFFF" d="M189.154,108.89h-2.859v-0.398l1.511-1.679c0.224-0.254,0.378-0.461,0.464-0.619
		c0.084-0.159,0.127-0.323,0.127-0.493c0-0.229-0.068-0.415-0.207-0.561c-0.138-0.146-0.322-0.219-0.552-0.219
		c-0.275,0-0.489,0.078-0.643,0.234c-0.153,0.157-0.229,0.376-0.229,0.655h-0.555c0-0.401,0.129-0.727,0.389-0.974
		c0.258-0.248,0.604-0.372,1.038-0.372c0.405,0,0.727,0.106,0.962,0.319c0.236,0.213,0.354,0.496,0.354,0.85
		c0,0.43-0.274,0.941-0.821,1.535l-1.17,1.268h2.191V108.89z"/>
	<path fill="#FFFFFF" d="M192.479,107.028c0,0.649-0.11,1.132-0.332,1.447c-0.222,0.316-0.568,0.474-1.041,0.474
		c-0.465,0-0.81-0.154-1.033-0.463c-0.225-0.309-0.34-0.77-0.348-1.384v-0.74c0-0.642,0.11-1.118,0.332-1.43
		c0.223-0.312,0.57-0.468,1.043-0.468c0.471,0,0.816,0.15,1.038,0.451s0.335,0.765,0.341,1.393V107.028z M191.925,106.27
		c0-0.47-0.065-0.812-0.198-1.026c-0.132-0.215-0.341-0.322-0.627-0.322c-0.283,0-0.49,0.106-0.62,0.32s-0.196,0.543-0.2,0.986
		v0.888c0,0.472,0.068,0.819,0.205,1.044c0.137,0.226,0.344,0.338,0.621,0.338c0.274,0,0.479-0.106,0.611-0.318
		c0.133-0.211,0.201-0.545,0.208-1.001V106.27z"/>
	<path fill="#FFFFFF" d="M195.927,107.028c0,0.649-0.11,1.132-0.333,1.447c-0.221,0.316-0.568,0.474-1.04,0.474
		c-0.466,0-0.81-0.154-1.034-0.463c-0.224-0.309-0.34-0.77-0.348-1.384v-0.74c0-0.642,0.111-1.118,0.333-1.43
		s0.569-0.468,1.043-0.468c0.47,0,0.815,0.15,1.038,0.451c0.221,0.301,0.335,0.765,0.341,1.393V107.028z M195.373,106.27
		c0-0.47-0.066-0.812-0.199-1.026c-0.131-0.215-0.34-0.322-0.626-0.322c-0.284,0-0.491,0.106-0.62,0.32
		c-0.131,0.214-0.197,0.543-0.201,0.986v0.888c0,0.472,0.068,0.819,0.205,1.044c0.137,0.226,0.344,0.338,0.622,0.338
		c0.274,0,0.478-0.106,0.61-0.318c0.133-0.211,0.202-0.545,0.209-1.001V106.27z"/>
	<path fill="#FFFFFF" d="M198.764,106.971c-0.116,0.139-0.255,0.249-0.416,0.333c-0.16,0.084-0.337,0.126-0.529,0.126
		c-0.252,0-0.471-0.062-0.658-0.186c-0.186-0.124-0.33-0.299-0.433-0.523s-0.153-0.474-0.153-0.745c0-0.292,0.057-0.555,0.167-0.788
		c0.11-0.234,0.269-0.413,0.472-0.537c0.204-0.124,0.441-0.186,0.714-0.186c0.432,0,0.772,0.161,1.021,0.484
		c0.249,0.322,0.373,0.763,0.373,1.32v0.162c0,0.85-0.168,1.469-0.504,1.86c-0.335,0.391-0.842,0.591-1.52,0.601h-0.107v-0.471
		h0.117c0.457-0.008,0.809-0.127,1.055-0.357S198.741,107.47,198.764,106.971z M197.908,106.971c0.187,0,0.357-0.057,0.515-0.171
		c0.157-0.113,0.271-0.255,0.343-0.423v-0.222c0-0.363-0.078-0.659-0.236-0.887c-0.158-0.229-0.357-0.342-0.6-0.342
		c-0.244,0-0.439,0.093-0.588,0.28c-0.147,0.187-0.222,0.433-0.222,0.738c0,0.298,0.071,0.544,0.214,0.736
		C197.478,106.875,197.669,106.971,197.908,106.971z"/>
	<path fill="#FFFFFF" d="M201.296,107.262h-1.463v-0.452h1.463V107.262z"/>
	<path fill="#FFFFFF" d="M204.639,108.89h-2.859v-0.398l1.51-1.679c0.225-0.254,0.379-0.461,0.464-0.619
		c0.085-0.159,0.128-0.323,0.128-0.493c0-0.229-0.069-0.415-0.207-0.561c-0.139-0.146-0.322-0.219-0.553-0.219
		c-0.275,0-0.489,0.078-0.643,0.234c-0.152,0.157-0.229,0.376-0.229,0.655h-0.555c0-0.401,0.129-0.727,0.388-0.974
		c0.259-0.248,0.604-0.372,1.038-0.372c0.406,0,0.727,0.106,0.963,0.319s0.354,0.496,0.354,0.85c0,0.43-0.273,0.941-0.82,1.535
		l-1.17,1.268h2.191V108.89z"/>
	<path fill="#FFFFFF" d="M207.963,107.028c0,0.649-0.11,1.132-0.332,1.447c-0.222,0.316-0.568,0.474-1.041,0.474
		c-0.465,0-0.81-0.154-1.033-0.463c-0.225-0.309-0.34-0.77-0.348-1.384v-0.74c0-0.642,0.11-1.118,0.332-1.43
		c0.223-0.312,0.57-0.468,1.043-0.468c0.471,0,0.816,0.15,1.038,0.451s0.335,0.765,0.341,1.393V107.028z M207.409,106.27
		c0-0.47-0.065-0.812-0.198-1.026c-0.132-0.215-0.341-0.322-0.627-0.322c-0.283,0-0.49,0.106-0.62,0.32s-0.196,0.543-0.2,0.986
		v0.888c0,0.472,0.068,0.819,0.205,1.044c0.137,0.226,0.344,0.338,0.621,0.338c0.274,0,0.479-0.106,0.611-0.318
		c0.133-0.211,0.201-0.545,0.208-1.001V106.27z"/>
	<path fill="#FFFFFF" d="M210.497,108.89h-0.558v-3.696l-1.118,0.41v-0.503l1.589-0.597h0.087V108.89z"/>
	<path fill="#FFFFFF" d="M212.377,106.701l0.221-2.177h2.236v0.513h-1.766l-0.131,1.19c0.213-0.126,0.456-0.188,0.729-0.188
		c0.396,0,0.713,0.131,0.947,0.394c0.233,0.263,0.35,0.618,0.35,1.066c0,0.449-0.121,0.804-0.363,1.063
		c-0.243,0.259-0.582,0.388-1.018,0.388c-0.387,0-0.701-0.106-0.945-0.32c-0.243-0.214-0.383-0.51-0.416-0.888h0.524
		c0.034,0.25,0.123,0.438,0.267,0.565c0.145,0.127,0.334,0.19,0.57,0.19c0.258,0,0.459-0.088,0.606-0.264s0.221-0.419,0.221-0.729
		c0-0.292-0.079-0.526-0.239-0.703c-0.158-0.177-0.369-0.266-0.633-0.266c-0.242,0-0.432,0.053-0.57,0.159l-0.146,0.12
		L212.377,106.701z"/>
	<path fill="#FFFFFF" d="M216.906,107.147c0,0.446-0.059,0.873-0.176,1.282c-0.116,0.408-0.295,0.786-0.536,1.132
		s-0.493,0.591-0.757,0.737l-0.117-0.339c0.309-0.236,0.555-0.603,0.742-1.099c0.188-0.497,0.282-1.048,0.286-1.653v-0.096
		c0-0.42-0.044-0.811-0.132-1.171c-0.088-0.361-0.211-0.685-0.367-0.97c-0.156-0.286-0.334-0.509-0.529-0.669l0.117-0.339
		c0.264,0.146,0.516,0.39,0.754,0.731s0.418,0.719,0.537,1.131C216.847,106.237,216.906,106.679,216.906,107.147z"/>
</g>
</svg>
