<?xml version="1.0" encoding="utf-8"?>
<!-- Generator: Adobe Illustrator 18.1.1, SVG Export Plug-In . SVG Version: 6.00 Build 0)  -->
<svg version="1.1" id="Camada_1" xmlns="http://www.w3.org/2000/svg" xmlns:xlink="http://www.w3.org/1999/xlink" x="0px" y="0px"
	 viewBox="0 542.5 595.3 299.4" enable-background="new 0 542.5 595.3 299.4" xml:space="preserve">
<path opacity="0.7" fill="#587BB7" enable-background="new    " d="M399.4,703.5c-7.4,0-13.5-6.1-13.5-13.7
	c0-7.6,6.1-13.7,13.5-13.7c7.4,0,13.5,6.1,13.5,13.7C412.9,697.6,406.8,703.5,399.4,703.5L399.4,703.5z"/>
<line fill="none" stroke="#F6D448" stroke-width="0.25" x1="83.5" y1="589.3" x2="268.3" y2="589.3"/>
<path opacity="0.7" fill="#F6D448" enable-background="new    " d="M268.3,602.8c-7.4,0-13.5-6.1-13.5-13.5s6.1-13.5,13.5-13.5
	c7.4,0,13.5,6.1,13.5,13.5S275.7,602.8,268.3,602.8L268.3,602.8z"/>
<path opacity="0.7" fill="#F6D448" enable-background="new    " d="M232.5,602.8c-7.4,0-13.5-6.1-13.5-13.5s6.1-13.5,13.5-13.5
	c7.4,0,13.5,6.1,13.5,13.5S239.9,602.8,232.5,602.8L232.5,602.8z"/>
<path opacity="0.7" fill="#F6D448" enable-background="new    " d="M196.6,602.8c-7.4,0-13.5-6.1-13.5-13.5s6.1-13.5,13.5-13.5
	c7.4,0,13.5,6.1,13.5,13.5S204.2,602.8,196.6,602.8L196.6,602.8z"/>
<path opacity="0.7" fill="#F6D448" enable-background="new    " d="M160.7,602.8c-7.4,0-13.5-6.1-13.5-13.5s6.1-13.5,13.5-13.5
	s13.5,6.1,13.5,13.5S168.3,602.8,160.7,602.8L160.7,602.8z"/>
<path opacity="0.7" fill="#F6D448" enable-background="new    " d="M124.9,603c-7.4,0-13.5-6.1-13.5-13.7s6.1-13.7,13.5-13.7
	s13.5,6.1,13.5,13.7S132.5,603,124.9,603L124.9,603z"/>
<line fill="none" stroke="#D5001E" stroke-width="0.25" x1="357.4" y1="588.7" x2="542.1" y2="588.7"/>
<path opacity="0.7" fill="#D5001E" enable-background="new    " d="M542.1,602.4c-7.4,0-13.5-6.1-13.5-13.5s6.1-13.5,13.5-13.5
	c7.4,0,13.5,6.1,13.5,13.5C555.8,596.3,549.7,602.4,542.1,602.4L542.1,602.4z"/>
<path opacity="0.7" fill="#D5001E" enable-background="new    " d="M506.5,602.4c-7.4,0-13.5-6.1-13.5-13.5s6.1-13.5,13.5-13.5
	c7.4,0,13.5,6.1,13.5,13.5C520,596.3,513.8,602.4,506.5,602.4L506.5,602.4z"/>
<path opacity="0.7" fill="#D5001E" enable-background="new    " d="M470.6,602.4c-7.4,0-13.5-6.1-13.5-13.5s6.1-13.5,13.5-13.5
	c7.4,0,13.5,6.1,13.5,13.5C484.1,596.3,478,602.4,470.6,602.4L470.6,602.4z"/>
<path opacity="0.7" fill="#D5001E" enable-background="new    " d="M434.7,602.4c-7.4,0-13.5-6.1-13.5-13.5s6.1-13.5,13.5-13.5
	s13.5,6.1,13.5,13.5C448.2,596.3,442.1,602.4,434.7,602.4L434.7,602.4z"/>
<path opacity="0.7" fill="#D5001E" enable-background="new    " d="M398.9,602.4c-7.4,0-13.5-6.1-13.5-13.7
	c0-7.6,6.1-13.7,13.5-13.7s13.5,6.1,13.5,13.7S406.3,602.4,398.9,602.4L398.9,602.4z"/>
<line fill="none" stroke="#587BB7" stroke-width="0.25" x1="358" y1="690" x2="542.9" y2="690"/>
<path opacity="0.7" fill="#587BB7" enable-background="new    " d="M542.9,703.5c-7.4,0-13.5-6.1-13.5-13.5s6.1-13.5,13.5-13.5
	s13.5,6.1,13.5,13.5S550.3,703.5,542.9,703.5L542.9,703.5z"/>
<path opacity="0.7" fill="#587BB7" enable-background="new    " d="M507,703.5c-7.4,0-13.5-6.1-13.5-13.5s6.1-13.5,13.5-13.5
	c7.4,0,13.5,6.1,13.5,13.5S514.4,703.5,507,703.5L507,703.5z"/>
<path opacity="0.7" fill="#587BB7" enable-background="new    " d="M471.1,703.5c-7.4,0-13.5-6.1-13.5-13.5s6.1-13.5,13.5-13.5
	s13.5,6.1,13.5,13.5S478.5,703.5,471.1,703.5L471.1,703.5z"/>
<path opacity="0.7" fill="#587BB7" enable-background="new    " d="M435.3,703.5c-7.4,0-13.5-6.1-13.5-13.5s6.1-13.5,13.5-13.5
	s13.5,6.1,13.5,13.5S442.7,703.5,435.3,703.5L435.3,703.5z"/>
<line fill="none" stroke="#D3EAF7" stroke-width="0.25" x1="86.6" y1="688" x2="271.3" y2="688"/>
<path opacity="0.7" fill="#91C2E5" enable-background="new    " d="M271.3,701.5c-7.4,0-13.5-6.1-13.5-13.5s6.1-13.5,13.5-13.5
	s13.5,6.1,13.5,13.5C284.8,695.6,278.9,701.5,271.3,701.5L271.3,701.5z"/>
<path opacity="0.7" fill="#91C2E5" enable-background="new    " d="M235.4,701.5c-7.4,0-13.5-6.1-13.5-13.5s6.1-13.5,13.5-13.5
	s13.5,6.1,13.5,13.5C248.9,695.6,243,701.5,235.4,701.5L235.4,701.5z"/>
<path opacity="0.7" fill="#91C2E5" enable-background="new    " d="M199.6,701.5c-7.4,0-13.5-6.1-13.5-13.5s6.1-13.5,13.5-13.5
	s13.5,6.1,13.5,13.5C213.1,695.6,207.1,701.5,199.6,701.5L199.6,701.5z"/>
<path opacity="0.7" fill="#91C2E5" enable-background="new    " d="M163.9,701.5c-7.4,0-13.5-6.1-13.5-13.5s6.1-13.5,13.5-13.5
	s13.5,6.1,13.5,13.5C177.4,695.6,171.3,701.5,163.9,701.5L163.9,701.5z"/>
<path opacity="0.7" fill="#91C2E5" enable-background="new    " d="M128,701.7c-7.4,0-13.5-6.1-13.5-13.7c0-7.6,6.1-13.7,13.5-13.7
	c7.4,0,13.5,6.1,13.5,13.7C141.5,695.6,135.4,701.7,128,701.7L128,701.7z"/>
<path opacity="0.91" fill="#274392" enable-background="new    " d="M115.5,683.2c0.7-2,2.4-4.1,2.4-4.1l10.2,9.1h-13.5
	C114.5,688,114.3,685.8,115.5,683.2z"/>
<g enable-background="new    ">
	<path fill="#F6D448" d="M30.5,584.7c0,0.6-0.2,1.2-0.5,1.6c-0.3,0.5-0.7,0.8-1.3,1.1c0.6,0.3,1.1,0.7,1.4,1.2
		c0.4,0.5,0.5,1.1,0.5,1.8c0,1.1-0.4,2-1.1,2.6c-0.8,0.6-1.8,1-3.1,1c-1.3,0-2.3-0.3-3.1-1c-0.8-0.6-1.1-1.5-1.1-2.6
		c0-0.7,0.2-1.3,0.5-1.8c0.4-0.5,0.8-0.9,1.4-1.2c-0.5-0.3-1-0.7-1.3-1.1c-0.3-0.5-0.5-1-0.5-1.6c0-1.1,0.4-1.9,1.1-2.6s1.7-1,2.9-1
		c1.2,0,2.2,0.3,2.9,0.9C29.9,582.6,30.5,583.6,30.5,584.7z M28.3,590.3c0-0.5-0.2-1-0.5-1.3c-0.3-0.3-0.7-0.5-1.3-0.5
		c-0.5,0-1,0.2-1.3,0.5c-0.3,0.3-0.5,0.8-0.5,1.3c0,0.5,0.2,1,0.5,1.3c0.3,0.3,0.7,0.5,1.3,0.5c0.5,0,1-0.2,1.3-0.5
		S28.3,590.8,28.3,590.3z M28,584.8c0-0.5-0.1-0.9-0.4-1.2c-0.3-0.3-0.6-0.4-1.1-0.4c-0.5,0-0.8,0.1-1.1,0.4
		c-0.3,0.3-0.4,0.7-0.4,1.2c0,0.5,0.1,0.9,0.4,1.2s0.6,0.5,1.1,0.5c0.5,0,0.8-0.2,1.1-0.5S28,585.3,28,584.8z"/>
	<path fill="#F6D448" d="M40.7,584.7c0,0.6-0.2,1.2-0.5,1.6c-0.3,0.5-0.7,0.8-1.3,1.1c0.6,0.3,1.1,0.7,1.4,1.2
		c0.4,0.5,0.5,1.1,0.5,1.8c0,1.1-0.4,2-1.1,2.6c-0.8,0.6-1.8,1-3.1,1c-1.3,0-2.3-0.3-3.1-1c-0.8-0.6-1.1-1.5-1.1-2.6
		c0-0.7,0.2-1.3,0.5-1.8c0.4-0.5,0.8-0.9,1.4-1.2c-0.5-0.3-1-0.7-1.3-1.1c-0.3-0.5-0.5-1-0.5-1.6c0-1.1,0.4-1.9,1.1-2.6
		c0.7-0.7,1.7-1,2.9-1c1.2,0,2.2,0.3,2.9,0.9C40.1,582.6,40.7,583.6,40.7,584.7z M38.4,590.3c0-0.5-0.2-1-0.5-1.3
		c-0.3-0.3-0.7-0.5-1.3-0.5c-0.5,0-1,0.2-1.3,0.5s-0.5,0.8-0.5,1.3c0,0.5,0.2,1,0.5,1.3s0.7,0.5,1.3,0.5c0.5,0,1-0.2,1.3-0.5
		C38.3,591.3,38.4,590.8,38.4,590.3z M38.2,584.8c0-0.5-0.1-0.9-0.4-1.2c-0.3-0.3-0.6-0.4-1.1-0.4c-0.5,0-0.8,0.1-1.1,0.4
		c-0.3,0.3-0.4,0.7-0.4,1.2c0,0.5,0.1,0.9,0.4,1.2s0.6,0.5,1.1,0.5c0.5,0,0.8-0.2,1.1-0.5S38.2,585.3,38.2,584.8z"/>
	<path fill="#F6D448" d="M43.4,597.1l-1.3-0.7l0.3-0.6c0.4-0.7,0.6-1.4,0.6-2.1v-1.9h2.1v1.7c0,0.6-0.2,1.3-0.5,1.9
		C44.3,596.1,43.9,596.6,43.4,597.1z"/>
	<path fill="#F6D448" d="M54.3,589.2h1.4v2h-1.4v2.7h-2.5v-2.7h-5.2l-0.1-1.6l5.2-8.3h2.5L54.3,589.2L54.3,589.2z M49,589.2h2.8
		v-4.4l-0.2,0.3L49,589.2z"/>
	<path fill="#F6D448" d="M59.6,586.5h1.3c0.6,0,1.1-0.2,1.4-0.5c0.3-0.3,0.5-0.7,0.5-1.3c0-0.5-0.2-0.9-0.5-1.2s-0.7-0.4-1.2-0.4
		c-0.5,0-0.9,0.1-1.2,0.4s-0.5,0.6-0.5,1h-2.5c0-0.7,0.2-1.2,0.5-1.8c0.4-0.5,0.8-0.9,1.5-1.2c0.6-0.3,1.3-0.4,2.1-0.4
		c1.3,0,2.4,0.3,3.1,1c0.8,0.6,1.1,1.5,1.1,2.6c0,0.6-0.2,1.1-0.5,1.6c-0.4,0.5-0.8,0.9-1.4,1.1c0.7,0.3,1.2,0.6,1.6,1.1
		c0.3,0.5,0.5,1.1,0.5,1.8c0,1.1-0.4,2-1.2,2.7s-1.9,1-3.2,1c-1.3,0-2.3-0.3-3.1-1s-1.2-1.5-1.2-2.6h2.5c0,0.5,0.2,0.9,0.5,1.2
		c0.4,0.3,0.8,0.4,1.3,0.4c0.6,0,1.1-0.2,1.4-0.5c0.3-0.3,0.5-0.7,0.5-1.2c0-1.3-0.7-1.9-2.1-1.9h-1.3L59.6,586.5L59.6,586.5z"/>
	<path fill="#F6D448" d="M67.2,583.8c0-0.8,0.3-1.4,0.8-1.9c0.5-0.5,1.2-0.7,2-0.7c0.8,0,1.5,0.2,2,0.7s0.8,1.1,0.8,1.9v0.6
		c0,0.8-0.3,1.4-0.8,1.9c-0.5,0.5-1.2,0.7-2,0.7c-0.8,0-1.5-0.2-2-0.7c-0.5-0.5-0.8-1.1-0.8-1.9V583.8z M68.8,584.4
		c0,0.3,0.1,0.6,0.3,0.8c0.2,0.2,0.5,0.3,0.8,0.3s0.6-0.1,0.8-0.3c0.2-0.2,0.3-0.5,0.3-0.9v-0.6c0-0.3-0.1-0.6-0.3-0.8
		c-0.2-0.2-0.5-0.3-0.8-0.3s-0.6,0.1-0.8,0.3c-0.2,0.2-0.3,0.5-0.3,0.9V584.4z M70.4,593l-1.2-0.7l6.1-9.8l1.2,0.7L70.4,593z
		 M73.2,590.8c0-0.8,0.3-1.4,0.8-1.9c0.5-0.5,1.2-0.7,2-0.7c0.8,0,1.5,0.2,2,0.7c0.5,0.5,0.8,1.1,0.8,1.9v0.6c0,0.8-0.2,1.4-0.7,1.9
		s-1.2,0.7-2,0.7c-0.8,0-1.5-0.2-2-0.7c-0.5-0.5-0.8-1.1-0.8-1.9L73.2,590.8L73.2,590.8z M74.8,591.5c0,0.3,0.1,0.6,0.3,0.8
		c0.2,0.2,0.5,0.3,0.8,0.3c0.7,0,1.1-0.4,1.1-1.2v-0.7c0-0.3-0.1-0.6-0.3-0.8c-0.2-0.2-0.5-0.3-0.8-0.3c-0.3,0-0.6,0.1-0.8,0.3
		c-0.2,0.2-0.3,0.5-0.3,0.9C74.8,590.8,74.8,591.5,74.8,591.5z"/>
</g>
<g opacity="0.7" enable-background="new    ">
	<path fill="#91C2E5" d="M28.4,693.7h-2.5v-9.6l-3,0.9v-2l5.2-1.9h0.3C28.4,681.1,28.4,693.7,28.4,693.7z"/>
	<path fill="#91C2E5" d="M33.2,696.9l-1.3-0.7l0.3-0.6c0.4-0.7,0.6-1.4,0.6-2.1v-1.9h2.1v1.7c0,0.6-0.2,1.3-0.5,1.9
		C34.1,695.9,33.7,696.5,33.2,696.9z"/>
	<path fill="#91C2E5" d="M42.6,688.7c-0.7,0.6-1.4,1-2.3,1c-1.1,0-2-0.4-2.7-1.1c-0.7-0.8-1-1.8-1-3.1c0-0.8,0.2-1.6,0.5-2.3
		c0.4-0.7,0.9-1.2,1.5-1.6s1.4-0.6,2.2-0.6s1.6,0.2,2.2,0.6c0.6,0.4,1.1,1,1.5,1.8c0.4,0.8,0.5,1.7,0.5,2.7v0.9
		c0,2.1-0.5,3.7-1.6,4.9c-1,1.2-2.5,1.8-4.4,1.9h-0.6v-2.1H39C41.3,691.7,42.4,690.7,42.6,688.7z M41,687.8c0.4,0,0.7-0.1,1-0.3
		c0.3-0.2,0.5-0.5,0.7-0.8v-1c0-0.8-0.2-1.5-0.5-2c-0.3-0.5-0.8-0.7-1.3-0.7c-0.5,0-0.9,0.2-1.2,0.7c-0.3,0.5-0.5,1-0.5,1.7
		c0,0.7,0.2,1.2,0.5,1.7C39.9,687.5,40.4,687.8,41,687.8z"/>
	<path fill="#91C2E5" d="M49.5,686.4h1.3c0.6,0,1.1-0.2,1.4-0.5c0.3-0.3,0.5-0.7,0.5-1.3c0-0.5-0.2-0.9-0.5-1.2
		c-0.3-0.3-0.7-0.4-1.2-0.4c-0.5,0-0.9,0.1-1.2,0.4c-0.3,0.3-0.5,0.6-0.5,1h-2.5c0-0.7,0.2-1.2,0.5-1.8c0.4-0.5,0.8-0.9,1.5-1.2
		c0.6-0.3,1.3-0.4,2.1-0.4c1.3,0,2.4,0.3,3.1,1c0.8,0.6,1.1,1.5,1.1,2.6c0,0.6-0.2,1.1-0.5,1.6c-0.4,0.5-0.8,0.9-1.4,1.1
		c0.7,0.3,1.2,0.6,1.6,1.1c0.3,0.5,0.5,1.1,0.5,1.8c0,1.1-0.4,2-1.2,2.7c-0.8,0.7-1.9,1-3.2,1s-2.3-0.3-3.1-1
		c-0.8-0.7-1.2-1.5-1.2-2.6h2.5c0,0.5,0.2,0.9,0.5,1.2c0.4,0.3,0.8,0.4,1.3,0.4c0.6,0,1.1-0.2,1.4-0.5c0.3-0.3,0.5-0.7,0.5-1.2
		c0-1.3-0.7-1.9-2.1-1.9h-1.3v-1.9L49.5,686.4L49.5,686.4z"/>
	<path fill="#91C2E5" d="M57,683.6c0-0.8,0.3-1.4,0.8-1.9c0.5-0.5,1.2-0.7,2-0.7s1.5,0.2,2,0.7c0.5,0.5,0.8,1.1,0.8,1.9v0.6
		c0,0.8-0.3,1.4-0.8,1.9c-0.5,0.5-1.2,0.7-2,0.7s-1.5-0.2-2-0.7c-0.5-0.5-0.8-1.1-0.8-1.9V683.6z M58.7,684.3c0,0.3,0.1,0.6,0.3,0.8
		c0.2,0.2,0.5,0.3,0.8,0.3s0.6-0.1,0.8-0.3c0.2-0.2,0.3-0.5,0.3-0.9v-0.6c0-0.3-0.1-0.6-0.3-0.8s-0.5-0.3-0.8-0.3s-0.6,0.1-0.8,0.3
		s-0.3,0.5-0.3,0.9V684.3z M60.3,692.8l-1.2-0.7l6.1-9.8l1.2,0.7L60.3,692.8z M63,690.7c0-0.8,0.3-1.4,0.8-1.9
		c0.5-0.5,1.2-0.7,2-0.7c0.8,0,1.5,0.2,2,0.7c0.5,0.5,0.8,1.1,0.8,1.9v0.6c0,0.8-0.2,1.4-0.7,1.9s-1.2,0.7-2,0.7
		c-0.8,0-1.5-0.2-2-0.7c-0.5-0.5-0.8-1.1-0.8-1.9v-0.6H63z M64.7,691.3c0,0.3,0.1,0.6,0.3,0.8c0.2,0.2,0.5,0.3,0.8,0.3
		c0.7,0,1.1-0.4,1.1-1.2v-0.7c0-0.3-0.1-0.6-0.3-0.8s-0.5-0.3-0.8-0.3s-0.6,0.1-0.8,0.3c-0.2,0.2-0.3,0.5-0.3,0.9
		C64.7,690.6,64.7,691.3,64.7,691.3z"/>
</g>
<g opacity="0.7" enable-background="new    ">
	<path fill="#587BB7" d="M306.2,690.4c0,1.7-0.4,3.1-1.1,4c-0.7,0.9-1.8,1.4-3.2,1.4s-2.4-0.5-3.1-1.4c-0.7-0.9-1.1-2.2-1.1-3.9
		v-2.3c0-1.8,0.4-3.1,1.1-4s1.8-1.4,3.1-1.4c1.3,0,2.4,0.5,3.1,1.4s1.1,2.2,1.1,3.9v2.3H306.2z M303.8,687.9c0-1-0.1-1.8-0.4-2.3
		c-0.3-0.5-0.7-0.7-1.3-0.7s-1,0.2-1.3,0.7c-0.3,0.5-0.4,1.2-0.4,2.1v3.1c0,1,0.1,1.8,0.4,2.3c0.3,0.5,0.7,0.7,1.3,0.7
		c0.6,0,1-0.2,1.3-0.7s0.4-1.2,0.4-2.2V687.9z"/>
	<path fill="#587BB7" d="M308.7,698.7l-1.3-0.7l0.3-0.6c0.4-0.7,0.6-1.4,0.6-2.1v-1.9h2.1v1.7c0,0.6-0.2,1.3-0.5,1.9
		C309.6,697.8,309.2,698.3,308.7,698.7z"/>
	<path fill="#587BB7" d="M318.3,695.6h-2.5V686l-3,0.9v-2l5.2-1.9h0.3V695.6z"/>
	<path fill="#587BB7" d="M324.9,688.2h1.3c0.6,0,1.1-0.2,1.4-0.5c0.3-0.3,0.5-0.7,0.5-1.3c0-0.5-0.2-0.9-0.5-1.2
		c-0.3-0.3-0.7-0.4-1.2-0.4c-0.5,0-0.9,0.1-1.2,0.4c-0.3,0.3-0.5,0.6-0.5,1h-2.5c0-0.7,0.2-1.2,0.5-1.8c0.3-0.6,0.8-0.9,1.5-1.2
		c0.7-0.3,1.3-0.4,2.1-0.4c1.3,0,2.4,0.3,3.1,1c0.7,0.7,1.1,1.5,1.1,2.6c0,0.6-0.2,1.1-0.5,1.6c-0.4,0.5-0.8,0.9-1.4,1.1
		c0.7,0.3,1.2,0.6,1.6,1.1c0.3,0.5,0.5,1.1,0.5,1.8c0,1.1-0.4,2-1.2,2.7c-0.8,0.7-1.9,1-3.2,1s-2.3-0.3-3.1-1
		c-0.8-0.7-1.2-1.5-1.2-2.6h2.5c0,0.5,0.2,0.9,0.5,1.2c0.4,0.3,0.8,0.4,1.3,0.4c0.6,0,1.1-0.2,1.4-0.5c0.3-0.3,0.5-0.7,0.5-1.2
		c0-1.3-0.7-1.9-2.1-1.9h-1.3v-1.9L324.9,688.2L324.9,688.2z"/>
	<path fill="#587BB7" d="M332.5,685.4c0-0.8,0.3-1.4,0.8-1.9c0.5-0.5,1.2-0.7,2-0.7s1.5,0.2,2,0.7c0.5,0.5,0.8,1.1,0.8,1.9v0.6
		c0,0.8-0.3,1.4-0.8,1.9c-0.5,0.5-1.2,0.7-2,0.7s-1.5-0.2-2-0.7c-0.5-0.5-0.8-1.1-0.8-1.9V685.4z M334.1,686.1
		c0,0.3,0.1,0.6,0.3,0.8c0.2,0.2,0.5,0.3,0.8,0.3s0.6-0.1,0.8-0.3c0.2-0.2,0.3-0.5,0.3-0.9v-0.6c0-0.3-0.1-0.6-0.3-0.8
		c-0.2-0.2-0.5-0.3-0.8-0.3s-0.6,0.1-0.8,0.3c-0.2,0.2-0.3,0.5-0.3,0.9V686.1z M335.7,694.6l-1.2-0.7l6.1-9.8l1.2,0.7L335.7,694.6z
		 M338.5,692.5c0-0.8,0.3-1.4,0.8-1.9c0.5-0.5,1.2-0.7,2-0.7s1.5,0.2,2,0.7c0.5,0.5,0.8,1.1,0.8,1.9v0.6c0,0.8-0.2,1.4-0.7,1.9
		c-0.5,0.5-1.2,0.7-2,0.7s-1.5-0.2-2-0.7c-0.5-0.5-0.8-1.1-0.8-1.9L338.5,692.5L338.5,692.5z M340.1,693.2c0,0.3,0.1,0.6,0.3,0.8
		c0.2,0.2,0.5,0.3,0.8,0.3c0.7,0,1.1-0.4,1.1-1.2v-0.7c0-0.3-0.1-0.6-0.3-0.8c-0.2-0.2-0.5-0.3-0.8-0.3c-0.3,0-0.6,0.1-0.8,0.3
		s-0.3,0.5-0.3,0.9L340.1,693.2L340.1,693.2z"/>
</g>
<g enable-background="new    ">
	<path fill="#D5001E" d="M303.6,588.9c-0.7,0.6-1.4,1-2.3,1c-1.1,0-2-0.4-2.7-1.1c-0.7-0.8-1-1.8-1-3.1c0-0.8,0.2-1.6,0.5-2.3
		c0.4-0.7,0.9-1.2,1.5-1.6s1.4-0.6,2.2-0.6c0.8,0,1.6,0.2,2.2,0.6c0.6,0.4,1.1,1,1.5,1.8c0.4,0.8,0.5,1.7,0.5,2.7v0.9
		c0,2.1-0.5,3.7-1.6,4.9c-1,1.2-2.5,1.8-4.4,1.9h-0.6v-2.1h0.6C302.3,591.8,303.4,590.8,303.6,588.9z M302,587.9
		c0.4,0,0.7-0.1,1-0.3c0.3-0.2,0.5-0.5,0.7-0.8v-1c0-0.8-0.2-1.5-0.5-2c-0.3-0.5-0.8-0.7-1.3-0.7c-0.5,0-0.9,0.2-1.2,0.7
		c-0.3,0.5-0.5,1-0.5,1.7c0,0.7,0.2,1.2,0.5,1.7C300.9,587.7,301.4,587.9,302,587.9z"/>
	<path fill="#D5001E" d="M308.7,597.1l-1.3-0.7l0.3-0.6c0.4-0.7,0.6-1.4,0.6-2.1v-1.9h2.1v1.7c0,0.6-0.2,1.3-0.5,1.9
		C309.6,596.1,309.2,596.6,308.7,597.1z"/>
	<path fill="#D5001E" d="M319.6,589.2h1.4v2h-1.4v2.7h-2.5v-2.7H312l-0.1-1.6l5.2-8.3h2.5V589.2z M314.3,589.2h2.8v-4.4l-0.2,0.3
		L314.3,589.2z"/>
	<path fill="#D5001E" d="M328.2,588.9c-0.7,0.6-1.4,1-2.3,1c-1.1,0-2-0.4-2.7-1.1c-0.7-0.8-1-1.8-1-3.1c0-0.8,0.2-1.6,0.5-2.3
		c0.4-0.7,0.9-1.2,1.5-1.6s1.4-0.6,2.2-0.6c0.8,0,1.6,0.2,2.2,0.6c0.6,0.4,1.1,1,1.5,1.8c0.4,0.8,0.5,1.7,0.5,2.7v0.9
		c0,2.1-0.5,3.7-1.6,4.9c-1,1.2-2.5,1.8-4.4,1.9H324v-2.1h0.6C326.9,591.8,328,590.8,328.2,588.9z M326.5,587.9c0.4,0,0.7-0.1,1-0.3
		c0.3-0.2,0.5-0.5,0.7-0.8v-1c0-0.8-0.2-1.5-0.5-2c-0.3-0.5-0.8-0.7-1.3-0.7c-0.5,0-0.9,0.2-1.2,0.7c-0.3,0.5-0.5,1-0.5,1.7
		c0,0.7,0.2,1.2,0.5,1.7S326,587.9,326.5,587.9z"/>
	<path fill="#D5001E" d="M332.5,583.8c0-0.8,0.3-1.4,0.8-1.9c0.5-0.5,1.2-0.7,2-0.7s1.5,0.2,2,0.7c0.5,0.5,0.8,1.1,0.8,1.9v0.6
		c0,0.8-0.3,1.4-0.8,1.9c-0.5,0.5-1.2,0.7-2,0.7s-1.5-0.2-2-0.7c-0.5-0.5-0.8-1.1-0.8-1.9V583.8z M334.1,584.4
		c0,0.3,0.1,0.6,0.3,0.8c0.2,0.2,0.5,0.3,0.8,0.3s0.6-0.1,0.8-0.3c0.2-0.2,0.3-0.5,0.3-0.9v-0.6c0-0.3-0.1-0.6-0.3-0.8
		c-0.2-0.2-0.5-0.3-0.8-0.3s-0.6,0.1-0.8,0.3c-0.2,0.2-0.3,0.5-0.3,0.9V584.4z M335.7,593l-1.2-0.7l6.1-9.8l1.2,0.7L335.7,593z
		 M338.5,590.8c0-0.8,0.3-1.4,0.8-1.9c0.5-0.5,1.2-0.7,2-0.7s1.5,0.2,2,0.7c0.5,0.5,0.8,1.1,0.8,1.9v0.6c0,0.8-0.2,1.4-0.7,1.9
		c-0.5,0.5-1.2,0.7-2,0.7s-1.5-0.2-2-0.7c-0.5-0.5-0.8-1.1-0.8-1.9L338.5,590.8L338.5,590.8z M340.1,591.5c0,0.3,0.1,0.6,0.3,0.8
		c0.2,0.2,0.5,0.3,0.8,0.3c0.7,0,1.1-0.4,1.1-1.2v-0.7c0-0.3-0.1-0.6-0.3-0.8c-0.2-0.2-0.5-0.3-0.8-0.3c-0.3,0-0.6,0.1-0.8,0.3
		c-0.2,0.2-0.3,0.5-0.3,0.9L340.1,591.5L340.1,591.5z"/>
</g>
<g>
	<path fill="#FFFFFF" d="M397.2,729.8c0,1.3-0.2,2.2-0.6,3.1c-0.4,0.9-0.9,1.7-1.8,2s-1.7,0.7-2.8,0.7c-1.5,0-2.8-0.6-3.7-1.7
		c-0.9-1.1-1.5-2.6-1.5-4.4v-1.3c0-1.1,0.2-2.2,0.6-3.1c0.4-0.9,1.1-1.7,1.8-2.2c0.7-0.6,1.7-0.7,2.8-0.7c1.1,0,1.8,0.2,2.6,0.7
		c0.7,0.6,1.3,1.1,1.8,2c0.4,0.9,0.6,1.8,0.7,3.1v1.8L397.2,729.8L397.2,729.8z M396.1,728.5c0-1.7-0.4-2.8-1.1-3.7
		c-0.7-0.9-1.7-1.3-3-1.3c-1.3,0-2.2,0.4-3,1.3c-0.8,0.9-1.1,2.2-1.1,3.7v1.3c0,1.5,0.4,2.8,1.1,3.7c0.7,0.9,1.7,1.3,3,1.3
		c1.3,0,2.2-0.4,3-1.3c0.7-0.9,1.1-2.2,1.1-3.7V728.5z"/>
	<path fill="#FFFFFF" d="M406.1,734.4c-0.7,0.9-1.7,1.5-3.1,1.5c-1.1,0-1.8-0.4-2.4-0.9c-0.6-0.6-0.7-1.5-0.7-2.8v-6.3h1.1v6.3
		c0,1.8,0.7,2.8,2.2,2.8c1.5,0,2.6-0.6,3-1.8v-7h1.1v9.8h-1.1v-1.6H406.1z"/>
	<path fill="#FFFFFF" d="M411.6,723.5v2.6h2v0.9h-2v6.5c0,0.6,0.2,0.9,0.4,1.3c0.2,0.2,0.6,0.4,0.9,0.4c0.2,0,0.6,0,0.9,0v0.9
		c-0.4,0.2-0.7,0.2-1.1,0.2c-0.7,0-1.3-0.2-1.7-0.6c-0.4-0.4-0.6-1.1-0.6-1.8v-6.5h-1.8v-0.9h1.8v-2.6h1.1v-0.4H411.6z"/>
	<path fill="#FFFFFF" d="M420.3,726.8c-0.2,0-0.6,0-0.7,0c-0.7,0-1.3,0.2-1.7,0.6c-0.6,0.4-0.7,0.9-0.9,1.7v6.7h-1.1V726h1.1v1.5
		c0.6-1.1,1.5-1.7,2.8-1.7c0.4,0,0.6,0,0.7,0.2L420.3,726.8z"/>
	<path fill="#FFFFFF" d="M421.2,730.7c0-0.9,0.2-1.8,0.6-2.6c0.4-0.7,0.9-1.3,1.5-1.7c0.7-0.4,1.5-0.6,2.2-0.6
		c1.3,0,2.4,0.4,3.1,1.3c0.7,0.9,1.3,2,1.3,3.7v0.2c0,0.9-0.2,1.8-0.6,2.6c-0.4,0.7-0.9,1.3-1.5,1.7c-0.6,0.4-1.5,0.6-2.2,0.6
		c-1.3,0-2.4-0.4-3.1-1.3c-0.7-0.9-1.3-2-1.3-3.7V730.7z M422.3,731.1c0,1.1,0.4,2.2,0.9,3c0.6,0.7,1.5,1.1,2.4,1.1s1.8-0.4,2.4-1.1
		c0.6-0.7,0.9-1.7,0.9-3v-0.2c0-0.7-0.2-1.5-0.4-2c-0.2-0.6-0.7-1.1-1.1-1.5c-0.6-0.4-1.1-0.6-1.7-0.6c-0.9,0-1.7,0.4-2.4,1.1
		c-0.6,0.7-0.9,1.7-0.9,3L422.3,731.1L422.3,731.1z"/>
	<path fill="#FFFFFF" d="M438.1,733.3c0-0.6-0.2-0.9-0.6-1.3c-0.4-0.4-1.1-0.6-2-0.7s-1.5-0.4-2-0.6c-0.6-0.2-0.9-0.6-1.1-0.9
		c-0.2-0.4-0.4-0.7-0.4-1.3c0-0.7,0.4-1.5,0.9-1.8c0.6-0.6,1.5-0.7,2.4-0.7c1.1,0,2,0.2,2.6,0.7c0.7,0.6,0.9,1.3,0.9,2h-0.7
		c0-0.6-0.2-1.1-0.7-1.5c-0.6-0.4-1.1-0.6-1.8-0.6c-0.7,0-1.3,0.2-1.7,0.6c-0.4,0.4-0.6,0.7-0.6,1.3c0,0.6,0.2,0.9,0.6,1.1
		c0.4,0.2,0.9,0.6,2,0.7c0.9,0.2,1.7,0.4,2.2,0.7c0.6,0.2,0.7,0.6,1.1,0.9c0.4,0.4,0.4,0.7,0.4,1.3c0,0.7-0.4,1.5-0.9,2
		c-0.7,0.6-1.5,0.7-2.6,0.7c-1.1,0-2-0.2-2.8-0.7c-0.7-0.6-1.1-1.3-1.1-2h1.1c0,0.6,0.4,1.1,0.7,1.5c0.6,0.4,1.1,0.6,2,0.6
		c0.7,0,1.3-0.2,1.8-0.6C438.4,734.4,438.1,733.7,438.1,733.3z"/>
</g>
<g>
	<path fill="#FFFFFF" d="M397.2,625.2c0,1.3-0.2,2.2-0.6,3.1c-0.4,0.9-0.9,1.7-1.8,2c-0.9,0.4-1.7,0.7-2.8,0.7
		c-1.5,0-2.8-0.6-3.7-1.7c-0.9-1.1-1.5-2.6-1.5-4.4v-1.3c0-1.1,0.2-2.2,0.6-3.1c0.4-0.9,1.1-1.7,1.8-2.2c0.7-0.6,1.7-0.7,2.8-0.7
		c1.1,0,1.8,0.2,2.6,0.7c0.7,0.6,1.3,1.1,1.8,2c0.4,0.9,0.6,1.8,0.7,3.1v1.8L397.2,625.2L397.2,625.2z M396.1,623.7
		c0-1.7-0.4-2.8-1.1-3.7c-0.7-0.9-1.7-1.3-3-1.3c-1.3,0-2.2,0.4-3,1.3c-0.8,0.9-1.1,2.2-1.1,3.7v1.3c0,1.5,0.4,2.8,1.1,3.7
		c0.7,0.9,1.7,1.3,3,1.3c1.3,0,2.2-0.4,3-1.3c0.7-0.9,1.1-2.2,1.1-3.7V623.7z"/>
	<path fill="#FFFFFF" d="M404.2,622.2c-0.2,0-0.6,0-0.7,0c-0.7,0-1.3,0.2-1.7,0.6c-0.6,0.4-0.7,0.9-0.9,1.7v6.7h-1.1v-9.8h1.1v1.5
		c0.6-1.1,1.5-1.7,2.8-1.7c0.4,0,0.6,0,0.7,0.2L404.2,622.2z"/>
	<path fill="#FFFFFF" d="M405.3,626.1c0-1.5,0.4-2.8,0.9-3.7c0.7-0.9,1.7-1.3,2.8-1.3c1.3,0,2.4,0.6,3,1.7v-1.5h0.9v9.6
		c0,1.3-0.4,2.2-1.1,3c-0.7,0.8-1.7,1.1-2.8,1.1c-0.7,0-1.3-0.2-2-0.4c-0.6-0.4-1.1-0.7-1.5-1.3l0.6-0.7c0.7,0.9,1.7,1.5,2.8,1.5
		c0.9,0,1.7-0.2,2-0.7c0.6-0.6,0.7-1.3,0.7-2.2v-1.3c-0.7,0.9-1.7,1.5-3,1.5c-1.1,0-2-0.4-2.8-1.3
		C405.1,629,405.3,627.7,405.3,626.1L405.3,626.1z M406.4,626.3c0,1.3,0.2,2.2,0.7,3c0.6,0.7,1.3,1.1,2,1.1c1.3,0,2.2-0.6,2.8-1.8
		V624c-0.2-0.6-0.6-1.1-1.1-1.5c-0.6-0.4-1.1-0.6-1.7-0.6c-0.9,0-1.7,0.4-2,1.1C406.6,623.7,406.4,624.8,406.4,626.3z"/>
	<path fill="#FFFFFF" d="M422.2,630.9c-0.2-0.4-0.2-0.7-0.2-1.3c-0.4,0.6-0.9,0.9-1.5,1.1c-0.6,0.2-1.3,0.4-1.8,0.4
		c-0.9,0-1.7-0.2-2.2-0.7c-0.6-0.6-0.9-1.1-0.9-2c0-0.9,0.4-1.7,1.1-2.2c0.7-0.6,1.8-0.7,3.3-0.7h2v-1.1c0-0.7-0.2-1.3-0.6-1.7
		c-0.4-0.4-1.1-0.6-1.8-0.6s-1.3,0.2-1.8,0.6c-0.6,0.4-0.7,0.9-0.7,1.5H416c0-0.7,0.4-1.5,1.1-2c0.7-0.6,1.7-0.9,2.6-0.9
		c1.1,0,2,0.2,2.6,0.7c0.6,0.6,0.9,1.3,0.9,2.2v4.6c0,0.9,0.2,1.7,0.4,2v0.2L422.2,630.9L422.2,630.9z M418.8,630.1
		c0.7,0,1.3-0.2,1.8-0.6c0.6-0.4,0.9-0.7,1.3-1.5v-2.2h-1.8c-1.1,0-1.8,0.2-2.6,0.6c-0.6,0.4-0.9,0.9-0.9,1.7c0,0.6,0.2,0.9,0.6,1.3
		C417.5,630,418.1,630.1,418.8,630.1z"/>
	<path fill="#FFFFFF" d="M427,621.3v1.7c0.4-0.6,0.7-1.1,1.3-1.3c0.6-0.4,1.1-0.6,1.8-0.6c1.1,0,1.8,0.4,2.4,0.9
		c0.6,0.5,0.7,1.5,0.7,2.6v6.5h-1.1v-6.5c0-0.9-0.2-1.5-0.6-2c-0.4-0.4-0.9-0.6-1.7-0.6c-0.7,0-1.3,0.2-1.8,0.6
		c-0.6,0.4-0.9,0.9-1.1,1.7v6.7h-1.1v-9.8h1.1v0.1L427,621.3L427,621.3z"/>
	<path fill="#FFFFFF" d="M436,618.3c0-0.2,0-0.4,0.2-0.6c0.2-0.2,0.4-0.2,0.6-0.2c0.2,0,0.4,0,0.6,0.2c0.2,0.2,0.2,0.4,0.2,0.6
		s0,0.4-0.2,0.6s-0.4,0.2-0.6,0.2c-0.2,0-0.4,0-0.6-0.2S436,618.5,436,618.3z M437.3,630.9h-1.1v-9.8h1.1V630.9z"/>
	<path fill="#FFFFFF" d="M440.8,630.1h6.3v0.9h-7.8v-0.9l5.9-7.9h-5.7v-0.9h7v0.7L440.8,630.1z"/>
	<path fill="#FFFFFF" d="M455.4,630.9c-0.2-0.4-0.2-0.7-0.2-1.3c-0.4,0.6-0.9,0.9-1.5,1.1s-1.3,0.4-1.8,0.4c-0.9,0-1.7-0.2-2.2-0.7
		c-0.6-0.6-0.9-1.1-0.9-2c0-0.9,0.4-1.7,1.1-2.2c0.7-0.6,1.8-0.7,3.3-0.7h2v-1.1c0-0.7-0.2-1.3-0.6-1.7s-1.1-0.6-1.8-0.6
		c-0.7,0-1.3,0.2-1.8,0.6c-0.6,0.4-0.7,0.9-0.7,1.5h-1.1c0-0.7,0.4-1.5,1.1-2c0.7-0.6,1.7-0.9,2.6-0.9c1.1,0,2,0.2,2.6,0.7
		s0.9,1.3,0.9,2.2v4.6c0,0.9,0.2,1.7,0.4,2v0.2L455.4,630.9L455.4,630.9z M451.9,630.1c0.7,0,1.3-0.2,1.8-0.6
		c0.6-0.4,0.9-0.7,1.3-1.5v-2.2h-1.8c-1.1,0-1.8,0.2-2.6,0.6c-0.6,0.4-0.9,0.9-0.9,1.7c0,0.6,0.2,0.9,0.6,1.3
		C450.8,630,451.4,630.1,451.9,630.1z"/>
	<path fill="#FFFFFF" d="M462.6,630.3c0.7,0,1.3-0.2,1.8-0.6c0.6-0.4,0.7-0.9,0.7-1.7h1.1c0,0.6-0.2,1.1-0.6,1.7
		c-0.4,0.6-0.7,0.9-1.3,1.1c-0.6,0.2-1.1,0.4-1.8,0.4c-1.3,0-2.2-0.4-3-1.3c-0.7-0.9-1.1-2-1.1-3.5V626c0-0.9,0.2-1.8,0.6-2.6
		c0.4-0.7,0.7-1.3,1.5-1.7c0.6-0.4,1.3-0.6,2.2-0.6c1.1,0,2,0.4,2.6,0.9c0.7,0.6,1.1,1.5,1.1,2.6h-1.1c0-0.7-0.4-1.3-0.7-1.8
		c-0.6-0.6-1.1-0.7-1.8-0.7c-0.9,0-1.7,0.4-2.2,1.1c-0.5,0.7-0.7,1.7-0.7,3v0.4c0,1.3,0.2,2.2,0.7,3
		C461,630,461.7,630.3,462.6,630.3z M463,631.1l-0.2,0.6c0.9,0.2,1.5,0.6,1.5,1.5c0,0.6-0.2,0.9-0.7,1.3c-0.6,0.4-1.1,0.6-1.8,0.6
		v-0.7c0.6,0,0.9-0.2,1.3-0.4c0.4-0.2,0.6-0.4,0.6-0.7c0-0.4-0.2-0.6-0.4-0.7c-0.2-0.2-0.7-0.2-1.1-0.2l0.2-1.1L463,631.1L463,631.1
		z"/>
	<path fill="#FFFFFF" d="M474.8,630.9c-0.2-0.4-0.2-0.7-0.2-1.3c-0.4,0.6-0.9,0.9-1.5,1.1c-0.6,0.2-1.3,0.4-1.8,0.4
		c-0.9,0-1.7-0.2-2.2-0.7c-0.6-0.6-0.9-1.1-0.9-2c0-0.9,0.4-1.7,1.1-2.2c0.7-0.6,1.8-0.7,3.3-0.7h2v-1.1c0-0.7-0.2-1.3-0.6-1.7
		c-0.4-0.4-1.1-0.6-1.8-0.6c-0.7,0-1.3,0.2-1.8,0.6c-0.6,0.4-0.7,0.9-0.7,1.5h-1.1c0-0.7,0.4-1.5,1.1-2c0.7-0.6,1.7-0.9,2.6-0.9
		c1.1,0,2,0.2,2.6,0.7c0.6,0.6,0.9,1.3,0.9,2.2v4.6c0,0.9,0.2,1.7,0.4,2v0.2L474.8,630.9L474.8,630.9z M471.3,630.1
		c0.7,0,1.3-0.2,1.8-0.6c0.6-0.4,0.9-0.7,1.3-1.5v-2.2h-1.8c-1.1,0-1.8,0.2-2.6,0.6c-0.6,0.4-0.9,0.9-0.9,1.7c0,0.6,0.2,0.9,0.6,1.3
		C470.2,630,470.8,630.1,471.3,630.1z M475.6,617.6c0,0.6-0.2,1.1-0.6,1.5c-0.4,0.4-0.7,0.6-1.3,0.6c-0.4,0-0.9-0.2-1.3-0.6
		c-0.4-0.4-0.7-0.6-1.1-0.6c-0.4,0-0.6,0.2-0.7,0.4c-0.2,0.2-0.4,0.4-0.4,0.7h-0.7c0-0.6,0.2-0.9,0.6-1.3c0.4-0.4,0.7-0.6,1.3-0.6
		c0.4,0,0.6,0,0.7,0.2c0.2,0.2,0.4,0.2,0.6,0.4s0.4,0.2,0.6,0.4c0.2,0.2,0.4,0.2,0.6,0.2s0.6-0.2,0.7-0.4s0.4-0.6,0.4-0.7
		L475.6,617.6z"/>
	<path fill="#FFFFFF" d="M478,625.9c0-0.9,0.2-1.8,0.6-2.6c0.4-0.7,0.9-1.3,1.5-1.7c0.7-0.4,1.5-0.6,2.2-0.6c1.3,0,2.4,0.4,3.1,1.3
		c0.7,0.9,1.3,2,1.3,3.7v0.2c0,0.9-0.2,1.8-0.6,2.6c-0.4,0.7-0.9,1.3-1.5,1.7c-0.6,0.4-1.5,0.6-2.2,0.6c-1.3,0-2.4-0.4-3.1-1.3
		c-0.7-0.9-1.3-2-1.3-3.7V625.9z M479.1,626.3c0,1.1,0.4,2.2,0.9,3c0.5,0.8,1.5,1.1,2.4,1.1c0.9,0,1.8-0.4,2.4-1.1
		c0.6-0.7,0.9-1.7,0.9-3v-0.2c0-0.7-0.2-1.5-0.4-2c-0.2-0.6-0.7-1.1-1.1-1.5c-0.6-0.4-1.1-0.6-1.7-0.6c-0.9,0-1.7,0.4-2.4,1.1
		c-0.6,0.7-0.9,1.7-0.9,3L479.1,626.3L479.1,626.3z"/>
	<path fill="#FFFFFF" d="M498.5,625.5h-3.9v5.5h-1.1v-13.1h4.3c1.5,0,2.6,0.4,3.3,1.1c0.7,0.7,1.1,1.7,1.1,2.8
		c0,0.9-0.2,1.7-0.7,2.2c-0.6,0.6-1.1,1.1-2,1.3l3.3,5.5v0.2h-1.1L498.5,625.5z M494.8,624.6h3.3c0.9,0,1.7-0.2,2.2-0.7
		c0.6-0.6,0.9-1.3,0.9-2c0-0.9-0.4-1.7-0.9-2.2c-0.6-0.6-1.5-0.7-2.4-0.7h-3.1V624.6z"/>
	<path fill="#FFFFFF" d="M508.9,631.1c-0.7,0-1.7-0.2-2.2-0.6c-0.7-0.4-1.1-0.9-1.5-1.7c-0.4-0.7-0.6-1.5-0.6-2.4V626
		c0-0.9,0.2-1.8,0.6-2.6c0.4-0.7,0.9-1.3,1.5-1.8c0.7-0.4,1.3-0.6,2-0.6c1.1,0,2,0.4,2.8,1.3c0.7,0.7,1.1,1.8,1.1,3.3v0.6h-7v0.2
		c0,1.1,0.4,2,0.9,2.8c0.6,0.7,1.5,1.1,2.4,1.1c0.6,0,1.1-0.2,1.5-0.4c0.4-0.2,0.9-0.6,1.3-0.9l0.7,0.6
		C511.6,630.5,510.3,631.1,508.9,631.1z M508.7,622c-0.7,0-1.5,0.4-2,0.9c-0.6,0.6-0.9,1.5-0.9,2.4h5.9v-0.2c0-0.9-0.4-1.7-0.7-2.2
		C510.5,622.4,509.6,622,508.7,622z"/>
	<path fill="#FFFFFF" d="M515.9,630.9h-1.1V617h1.1V630.9z"/>
	<path fill="#FFFFFF" d="M518.7,618.3c0-0.2,0-0.4,0.2-0.6c0.2-0.2,0.4-0.2,0.6-0.2s0.4,0,0.6,0.2c0.2,0.2,0.2,0.4,0.2,0.6
		s0,0.4-0.2,0.6c-0.2,0.2-0.4,0.2-0.6,0.2s-0.4,0-0.6-0.2C518.7,618.7,518.7,618.5,518.7,618.3z M519.9,630.9h-1.1v-9.8h1.1V630.9z"
		/>
	<path fill="#FFFFFF" d="M522.5,626.1c0-1.5,0.4-2.8,0.9-3.7c0.7-0.9,1.7-1.3,2.8-1.3c1.3,0,2.4,0.6,3,1.7v-1.5h0.9v9.6
		c0,1.3-0.4,2.2-1.1,3c-0.7,0.8-1.7,1.1-2.8,1.1c-0.7,0-1.3-0.2-2-0.4c-0.6-0.4-1.1-0.7-1.5-1.3l0.6-0.7c0.7,0.9,1.7,1.5,2.8,1.5
		c0.9,0,1.7-0.2,2-0.7c0.6-0.6,0.7-1.3,0.7-2.2v-1.3c-0.7,0.9-1.7,1.5-3,1.5c-1.1,0-2-0.4-2.8-1.3
		C522.4,629,522.5,627.7,522.5,626.1L522.5,626.1z M523.6,626.3c0,1.3,0.2,2.2,0.7,3c0.6,0.7,1.3,1.1,2,1.1c1.3,0,2.2-0.6,2.8-1.8
		V624c-0.2-0.6-0.6-1.1-1.1-1.5c-0.6-0.4-1.1-0.6-1.7-0.6c-0.9,0-1.7,0.4-2,1.1C523.8,623.7,523.6,624.8,523.6,626.3z"/>
	<path fill="#FFFFFF" d="M533.1,618.3c0-0.2,0-0.4,0.2-0.6c0.2-0.2,0.4-0.2,0.6-0.2c0.2,0,0.4,0,0.6,0.2c0.2,0.2,0.2,0.4,0.2,0.6
		s0,0.4-0.2,0.6s-0.4,0.2-0.6,0.2c-0.2,0-0.4,0-0.6-0.2C533.1,618.7,533.1,618.5,533.1,618.3z M534.4,630.9h-1.1v-9.8h1.1V630.9z"/>
	<path fill="#FFFFFF" d="M536.8,625.9c0-0.9,0.2-1.8,0.6-2.6c0.4-0.7,0.9-1.3,1.5-1.7c0.7-0.4,1.5-0.6,2.2-0.6
		c1.3,0,2.4,0.4,3.1,1.3c0.7,0.9,1.3,2,1.3,3.7v0.2c0,0.9-0.2,1.8-0.6,2.6c-0.4,0.7-0.9,1.3-1.5,1.7c-0.6,0.4-1.5,0.6-2.2,0.6
		c-1.3,0-2.4-0.4-3.1-1.3c-0.7-0.9-1.3-2-1.3-3.7V625.9z M537.9,626.3c0,1.1,0.4,2.2,0.9,3c0.5,0.8,1.5,1.1,2.4,1.1
		c0.9,0,1.8-0.4,2.4-1.1c0.6-0.7,0.9-1.7,0.9-3v-0.2c0-0.7-0.2-1.5-0.4-2c-0.2-0.6-0.7-1.1-1.1-1.5c-0.6-0.4-1.1-0.6-1.7-0.6
		c-0.9,0-1.7,0.4-2.4,1.1c-0.6,0.7-0.9,1.7-0.9,3v0.2H537.9z"/>
	<path fill="#FFFFFF" d="M553.6,628.5c0-0.6-0.2-0.9-0.6-1.3c-0.4-0.4-1.1-0.6-2-0.7c-0.9-0.2-1.5-0.4-2-0.6
		c-0.6-0.2-0.9-0.6-1.1-0.9c-0.2-0.4-0.4-0.7-0.4-1.3c0-0.7,0.4-1.5,0.9-1.8c0.6-0.6,1.5-0.7,2.4-0.7c1.1,0,2,0.2,2.6,0.7
		c0.7,0.6,0.9,1.3,0.9,2h-1.1c0-0.6-0.2-1.1-0.7-1.5c-0.6-0.4-1.1-0.6-1.8-0.6c-0.7,0-1.3,0.2-1.7,0.6c-0.4,0.4-0.6,0.7-0.6,1.3
		c0,0.6,0.2,0.9,0.6,1.1c0.4,0.2,0.9,0.6,2,0.7c0.9,0.2,1.7,0.4,2.2,0.7c0.6,0.2,0.7,0.6,1.1,0.9c0.4,0.4,0.4,0.7,0.4,1.3
		c0,0.7-0.4,1.5-0.9,2c-0.7,0.6-1.5,0.7-2.6,0.7c-1.1,0-2-0.2-2.8-0.7c-0.7-0.6-1.1-1.3-1.1-2h1.1c0,0.6,0.4,1.1,0.7,1.5
		c0.6,0.4,1.1,0.6,2,0.6c0.7,0,1.3-0.2,1.8-0.6C553.6,629.6,553.6,629,553.6,628.5z"/>
	<path fill="#FFFFFF" d="M563.2,630.9c-0.2-0.4-0.2-0.7-0.2-1.3c-0.4,0.6-0.9,0.9-1.5,1.1s-1.3,0.4-1.8,0.4c-0.9,0-1.7-0.2-2.2-0.7
		c-0.6-0.6-0.9-1.1-0.9-2c0-0.9,0.4-1.7,1.1-2.2c0.7-0.6,1.8-0.7,3.3-0.7h2v-1.1c0-0.7-0.2-1.3-0.6-1.7s-1.1-0.6-1.8-0.6
		c-0.7,0-1.3,0.2-1.8,0.6c-0.6,0.4-0.7,0.9-0.7,1.5H557c0-0.7,0.4-1.5,1.1-2c0.7-0.6,1.7-0.9,2.6-0.9c1.1,0,2,0.2,2.6,0.7
		c0.6,0.6,0.9,1.3,0.9,2.2v4.6c0,0.9,0.2,1.7,0.4,2v0.2L563.2,630.9L563.2,630.9L563.2,630.9z M559.9,630.1c0.7,0,1.3-0.2,1.8-0.6
		c0.6-0.4,0.9-0.7,1.3-1.5v-2.2h-1.8c-1.1,0-1.8,0.2-2.6,0.6c-0.6,0.4-0.9,0.9-0.9,1.7c0,0.6,0.2,0.9,0.6,1.3
		C558.6,630,559.1,630.1,559.9,630.1z"/>
</g>
<g>
	<path fill="#FFFFFF" d="M120.3,729.6h-6.1v6.1h-1.1v-13.1h8.1v0.9h-7v5.2h6.1V729.6z"/>
	<path fill="#FFFFFF" d="M129.3,734.4c-0.7,0.9-1.7,1.5-3.1,1.5c-1.1,0-1.8-0.4-2.4-0.9c-0.6-0.5-0.7-1.5-0.7-2.8v-6.3h1.1v6.3
		c0,1.8,0.7,2.8,2.2,2.8s2.6-0.6,3-1.8v-7h1.1v9.8h-1.1L129.3,734.4L129.3,734.4z"/>
	<path fill="#FFFFFF" d="M134.3,725.9v1.7c0.4-0.6,0.7-1.1,1.3-1.3c0.6-0.4,1.1-0.6,1.8-0.6c1.1,0,1.8,0.4,2.4,0.9
		c0.6,0.6,0.7,1.5,0.7,2.6v6.5h-1.1v-6.5c0-0.9-0.2-1.5-0.6-2c-0.4-0.4-0.9-0.6-1.7-0.6c-0.7,0-1.3,0.2-1.8,0.6
		c-0.6,0.4-0.9,0.9-1.1,1.7v6.7h-1.1v-9.8h1.1v0.1L134.3,725.9L134.3,725.9z"/>
	<path fill="#FFFFFF" d="M143,730.7c0-1.5,0.4-2.8,0.9-3.7c0.7-0.9,1.7-1.3,2.8-1.3c1.3,0,2.4,0.6,3,1.5v-5.5h1.1v13.9h-0.9v-1.3
		c-0.7,0.9-1.7,1.5-3.1,1.5c-1.1,0-2-0.4-2.8-1.3C143.4,733.7,143,732.4,143,730.7L143,730.7z M144.1,730.9c0,1.3,0.2,2.2,0.7,3
		c0.5,0.8,1.3,1.1,2,1.1c1.3,0,2.2-0.6,2.8-1.8v-4.6c-0.6-1.3-1.5-1.8-2.8-1.8c-0.9,0-1.7,0.4-2,1.1
		C144.3,728.5,144.1,729.6,144.1,730.9z"/>
	<path fill="#FFFFFF" d="M159.8,735.7c-0.2-0.4-0.2-0.7-0.2-1.3c-0.4,0.6-0.9,0.9-1.5,1.1s-1.3,0.4-1.8,0.4c-0.9,0-1.7-0.2-2.2-0.7
		c-0.6-0.6-0.9-1.1-0.9-2c0-0.9,0.4-1.7,1.1-2.2c0.7-0.6,1.8-0.7,3.3-0.7h2v-1.1c0-0.7-0.2-1.3-0.6-1.7c-0.4-0.4-1.1-0.6-1.8-0.6
		c-0.7,0-1.3,0.2-1.8,0.6c-0.6,0.4-0.7,0.9-0.7,1.5h-1.1c0-0.7,0.4-1.5,1.1-2c0.7-0.6,1.7-0.9,2.6-0.9c1.1,0,2,0.2,2.6,0.7
		c0.6,0.5,0.9,1.3,0.9,2.2v4.6c0,0.9,0.2,1.7,0.4,2v0.2L159.8,735.7L159.8,735.7L159.8,735.7z M156.5,735c0.7,0,1.3-0.2,1.8-0.6
		c0.6-0.4,0.9-0.7,1.3-1.5v-2.2h-1.8c-1.1,0-1.8,0.2-2.6,0.6c-0.6,0.4-0.9,0.9-0.9,1.7c0,0.6,0.2,0.9,0.6,1.3
		C155.2,734.8,155.8,735,156.5,735z"/>
	<path fill="#FFFFFF" d="M167.2,735c0.7,0,1.3-0.2,1.8-0.6c0.6-0.4,0.7-0.9,0.7-1.7h1.1c0,0.6-0.2,1.1-0.6,1.7
		c-0.4,0.6-0.7,0.9-1.3,1.1c-0.6,0.2-1.1,0.4-1.8,0.4c-1.3,0-2.2-0.4-3-1.3c-0.8-0.9-1.1-2-1.1-3.5v-0.4c0-0.9,0.2-1.8,0.6-2.6
		c0.4-0.7,0.7-1.3,1.5-1.7c0.6-0.4,1.3-0.6,2.2-0.6c1.1,0,2,0.4,2.6,0.9c0.7,0.6,1.1,1.5,1.1,2.6h-1c0-0.7-0.4-1.3-0.7-1.8
		c-0.6-0.6-1.1-0.7-1.8-0.7c-0.9,0-1.7,0.4-2.2,1.1c-0.6,0.7-0.7,1.7-0.7,3v0.4c0,1.3,0.2,2.2,0.7,3
		C165.4,734.6,166.1,735,167.2,735z M167.4,735.9l-0.2,0.6c0.9,0.2,1.5,0.6,1.5,1.5c0,0.6-0.2,0.9-0.7,1.3c-0.6,0.4-1.1,0.6-1.8,0.6
		v-0.7c0.6,0,0.9-0.2,1.3-0.4c0.4-0.2,0.6-0.4,0.6-0.7c0-0.4-0.2-0.6-0.4-0.7c-0.2-0.2-0.7-0.2-1.1-0.2l0.2-1.1L167.4,735.9
		L167.4,735.9z"/>
	<path fill="#FFFFFF" d="M179.2,735.7c-0.2-0.4-0.2-0.7-0.2-1.3c-0.4,0.6-0.9,0.9-1.5,1.1c-0.6,0.2-1.3,0.4-1.8,0.4
		c-0.9,0-1.7-0.2-2.2-0.7s-0.9-1.1-0.9-2c0-0.9,0.4-1.7,1.1-2.2c0.7-0.6,1.8-0.7,3.3-0.7h2v-1.1c0-0.7-0.2-1.3-0.6-1.7
		c-0.4-0.4-1.1-0.6-1.8-0.6c-0.7,0-1.3,0.2-1.8,0.6c-0.6,0.4-0.7,0.9-0.7,1.5H173c0-0.7,0.4-1.5,1.1-2c0.7-0.6,1.7-0.9,2.6-0.9
		c1.1,0,2,0.2,2.6,0.7c0.6,0.6,0.9,1.3,0.9,2.2v4.6c0,0.9,0.2,1.7,0.4,2v0.2L179.2,735.7L179.2,735.7L179.2,735.7z M175.9,735
		c0.7,0,1.3-0.2,1.8-0.6c0.6-0.4,0.9-0.7,1.3-1.5v-2.2h-1.8c-1.1,0-1.8,0.2-2.6,0.6c-0.6,0.4-0.9,0.9-0.9,1.7c0,0.6,0.2,0.9,0.6,1.3
		C174.6,734.8,175.2,735,175.9,735z M180,722.2c0,0.6-0.2,1.1-0.6,1.5c-0.4,0.4-0.7,0.6-1.3,0.6c-0.4,0-0.9-0.2-1.3-0.6
		c-0.4-0.4-0.7-0.6-1.1-0.6s-0.6,0.2-0.7,0.4c-0.1,0.2-0.4,0.4-0.4,0.7h-0.7c0-0.6,0.2-0.9,0.6-1.3c0.4-0.4,0.7-0.6,1.3-0.6
		c0.4,0,0.6,0,0.7,0.2c0.2,0.2,0.4,0.2,0.6,0.4s0.4,0.2,0.6,0.4c0.2,0.2,0.4,0.2,0.6,0.2c0.2,0,0.6-0.2,0.7-0.4
		c0.2-0.2,0.4-0.6,0.4-0.7L180,722.2z"/>
	<path fill="#FFFFFF" d="M182.4,730.7c0-0.9,0.2-1.8,0.6-2.6c0.4-0.7,0.9-1.3,1.5-1.7c0.7-0.4,1.5-0.6,2.2-0.6
		c1.3,0,2.4,0.4,3.1,1.3c0.7,0.9,1.3,2,1.3,3.7v0.2c0,0.9-0.2,1.8-0.6,2.6c-0.4,0.7-0.9,1.3-1.5,1.7s-1.5,0.6-2.2,0.6
		c-1.3,0-2.4-0.4-3.1-1.3s-1.3-2-1.3-3.7V730.7z M183.5,731.1c0,1.1,0.4,2.2,0.9,3c0.5,0.8,1.5,1.1,2.4,1.1s1.8-0.4,2.4-1.1
		c0.6-0.7,0.9-1.7,0.9-3v-0.2c0-0.7-0.2-1.5-0.4-2c-0.2-0.6-0.7-1.1-1.1-1.5c-0.6-0.4-1.1-0.6-1.7-0.6c-0.9,0-1.7,0.4-2.4,1.1
		c-0.6,0.7-0.9,1.7-0.9,3L183.5,731.1L183.5,731.1z"/>
	<path fill="#FFFFFF" d="M199.2,730.3v5.4h-1.1v-13.1h4.4c1.3,0,2.4,0.4,3.3,1.1c0.7,0.7,1.1,1.7,1.1,3c0,1.3-0.4,2.2-1.1,2.8
		c-0.7,0.7-1.8,0.9-3.3,0.9L199.2,730.3L199.2,730.3z M199.2,729.4h3.3c1.1,0,1.8-0.2,2.4-0.7c0.6-0.6,0.9-1.3,0.9-2.2
		c0-0.9-0.4-1.7-0.9-2.2c-0.6-0.6-1.3-0.7-2.4-0.7H199v5.9L199.2,729.4L199.2,729.4z"/>
	<path fill="#FFFFFF" d="M213.8,726.8c-0.2,0-0.6,0-0.7,0c-0.7,0-1.3,0.2-1.7,0.6c-0.6,0.4-0.7,0.9-0.9,1.7v6.7h-1.1V726h1.1v1.5
		c0.6-1.1,1.5-1.7,2.8-1.7c0.4,0,0.6,0,0.7,0.2L213.8,726.8z"/>
	<path fill="#FFFFFF" d="M215.3,723.1c0-0.2,0-0.4,0.2-0.6c0.2-0.2,0.4-0.2,0.6-0.2c0.2,0,0.4,0,0.6,0.2s0.2,0.4,0.2,0.6
		s0,0.4-0.2,0.6c-0.2,0.2-0.4,0.2-0.6,0.2s-0.4,0-0.6-0.2C215.3,723.5,215.3,723.3,215.3,723.1z M216.6,735.7h-1.1v-9.8h1.1V735.7z"
		/>
	<path fill="#FFFFFF" d="M222.7,734.2l3-8.3h1.1l-3.7,9.8h-0.9l-3.7-9.8h1.1L222.7,734.2z"/>
	<path fill="#FFFFFF" d="M234.5,735.7c-0.2-0.4-0.2-0.7-0.2-1.3c-0.4,0.6-0.9,0.9-1.5,1.1s-1.3,0.4-1.8,0.4c-0.9,0-1.7-0.2-2.2-0.7
		s-0.9-1.1-0.9-2c0-0.9,0.4-1.7,1.1-2.2c0.7-0.6,1.8-0.7,3.3-0.7h2v-1.1c0-0.7-0.2-1.3-0.6-1.7c-0.4-0.4-1.1-0.6-1.8-0.6
		c-0.7,0-1.3,0.2-1.8,0.6c-0.6,0.4-0.7,0.9-0.7,1.5h-1.1c0-0.7,0.4-1.5,1.1-2c0.7-0.6,1.7-0.9,2.6-0.9c1.1,0,2,0.2,2.6,0.7
		c0.6,0.5,0.9,1.3,0.9,2.2v4.6c0,0.9,0.2,1.7,0.4,2v0.2L234.5,735.7L234.5,735.7L234.5,735.7z M231.2,735c0.7,0,1.3-0.2,1.8-0.6
		c0.6-0.4,0.9-0.7,1.3-1.5v-2.2h-1.8c-1.1,0-1.8,0.2-2.6,0.6c-0.6,0.4-0.9,0.9-0.9,1.7c0,0.6,0.2,0.9,0.6,1.3
		C229.9,734.8,230.4,735,231.2,735z"/>
	<path fill="#FFFFFF" d="M237.8,730.7c0-1.5,0.4-2.8,0.9-3.7c0.7-0.9,1.7-1.3,2.8-1.3c1.3,0,2.4,0.6,3,1.5v-5.5h1.1v13.9h-0.9v-1.3
		c-0.7,0.9-1.7,1.5-3.1,1.5c-1.1,0-2-0.4-2.8-1.3C238.2,733.7,237.8,732.4,237.8,730.7L237.8,730.7z M238.9,730.9
		c0,1.3,0.2,2.2,0.7,3c0.5,0.8,1.3,1.1,2,1.1c1.3,0,2.2-0.6,2.8-1.8v-4.6c-0.6-1.3-1.5-1.8-2.8-1.8c-0.9,0-1.7,0.4-2,1.1
		C239.1,728.5,238.9,729.6,238.9,730.9z"/>
	<path fill="#FFFFFF" d="M254.7,735.7c-0.2-0.4-0.2-0.7-0.2-1.3c-0.4,0.6-0.9,0.9-1.5,1.1c-0.6,0.2-1.3,0.4-1.8,0.4
		c-0.9,0-1.7-0.2-2.2-0.7s-0.9-1.1-0.9-2c0-0.9,0.4-1.7,1.1-2.2c0.7-0.6,1.8-0.7,3.3-0.7h2v-1.1c0-0.7-0.2-1.3-0.6-1.7
		s-1.1-0.6-1.8-0.6c-0.7,0-1.3,0.2-1.8,0.6c-0.6,0.4-0.7,0.9-0.7,1.5h-1.1c0-0.7,0.4-1.5,1.1-2c0.7-0.6,1.7-0.9,2.6-0.9
		c1.1,0,2,0.2,2.6,0.7c0.6,0.6,0.9,1.3,0.9,2.2v4.6c0,0.9,0.2,1.7,0.4,2v0.2L254.7,735.7L254.7,735.7L254.7,735.7z M251.3,735
		c0.7,0,1.3-0.2,1.8-0.6c0.6-0.4,0.9-0.7,1.3-1.5v-2.2h-1.8c-1.1,0-1.8,0.2-2.6,0.6c-0.6,0.4-0.9,0.9-0.9,1.7c0,0.6,0.2,0.9,0.6,1.3
		C250,734.8,250.6,735,251.3,735z"/>
</g>
<g>
	<path fill="#FFFFFF" d="M120.3,627.4h-5.9l-1.3,3.7H112l5-13.1h1.1l5,13.1H122L120.3,627.4z M114.5,626.3h5.4l-2.6-7.2L114.5,626.3
		z"/>
	<path fill="#FFFFFF" d="M130.2,628.5c0-0.6-0.2-0.9-0.6-1.3c-0.4-0.4-1.1-0.6-2-0.7c-0.9-0.2-1.5-0.4-2-0.6
		c-0.6-0.2-0.9-0.6-1.1-0.9c-0.2-0.4-0.4-0.7-0.4-1.3c0-0.7,0.4-1.5,0.9-1.8c0.6-0.6,1.5-0.7,2.4-0.7c1.1,0,2,0.2,2.6,0.7
		c0.7,0.6,0.9,1.3,0.9,2h-1.1c0-0.6-0.2-1.1-0.7-1.5c-0.6-0.4-1.1-0.6-1.8-0.6s-1.3,0.2-1.7,0.6c-0.4,0.4-0.6,0.7-0.6,1.3
		c0,0.6,0.2,0.9,0.6,1.1c0.4,0.2,0.9,0.6,2,0.7c0.9,0.2,1.7,0.4,2.2,0.7c0.6,0.4,0.7,0.6,1.1,0.9c0.2,0.4,0.4,0.7,0.4,1.3
		c0,0.7-0.4,1.5-0.9,2c-0.6,0.6-1.5,0.7-2.6,0.7s-2-0.2-2.8-0.7c-0.7-0.6-1.1-1.3-1.1-2h1.1c0,0.6,0.4,1.1,0.7,1.5
		c0.6,0.4,1.1,0.6,2,0.6c0.7,0,1.3-0.2,1.8-0.6C130.1,629.4,130.2,629,130.2,628.5z"/>
	<path fill="#FFFFFF" d="M139.7,628.5c0-0.6-0.2-0.9-0.6-1.3c-0.4-0.4-1.1-0.6-2-0.7c-0.9-0.1-1.5-0.4-2-0.6
		c-0.6-0.2-0.9-0.6-1.1-0.9c-0.2-0.4-0.4-0.7-0.4-1.3c0-0.7,0.4-1.5,0.9-1.8c0.6-0.6,1.5-0.7,2.4-0.7c1.1,0,2,0.2,2.6,0.7
		c0.7,0.6,0.9,1.3,0.9,2h-1.1c0-0.6-0.2-1.1-0.7-1.5c-0.6-0.4-1.1-0.6-1.8-0.6c-0.7,0-1.3,0.2-1.7,0.6c-0.4,0.4-0.6,0.7-0.6,1.3
		c0,0.6,0.2,0.9,0.6,1.1c0.4,0.2,0.9,0.6,2,0.7c0.9,0.2,1.7,0.4,2.2,0.7c0.6,0.2,0.7,0.6,1.1,0.9c0.4,0.4,0.4,0.7,0.4,1.3
		c0,0.7-0.4,1.5-0.9,2c-0.7,0.6-1.5,0.7-2.6,0.7c-1.1,0-2-0.2-2.8-0.7c-0.7-0.6-1.1-1.3-1.1-2h1.1c0,0.6,0.4,1.1,0.7,1.5
		c0.6,0.4,1.1,0.6,2,0.6c0.7,0,1.3-0.2,1.8-0.6C139.7,629.6,139.7,629,139.7,628.5z"/>
	<path fill="#FFFFFF" d="M142.4,625.9c0-0.9,0.2-1.8,0.6-2.6c0.4-0.7,0.9-1.3,1.5-1.7c0.7-0.4,1.5-0.6,2.2-0.6
		c1.3,0,2.4,0.4,3.1,1.3s1.3,2,1.3,3.7v0.2c0,0.9-0.2,1.8-0.6,2.6c-0.4,0.7-0.9,1.3-1.5,1.7c-0.6,0.4-1.5,0.6-2.2,0.6
		c-1.3,0-2.4-0.4-3.1-1.3c-0.7-0.9-1.3-2-1.3-3.7V625.9z M143.6,626.3c0,1.1,0.4,2.2,0.9,3c0.6,0.7,1.5,1.1,2.4,1.1
		c0.9,0,1.8-0.4,2.4-1.1c0.6-0.7,0.9-1.7,0.9-3v-0.2c0-0.7-0.2-1.5-0.4-2c-0.2-0.6-0.7-1.1-1.1-1.5c-0.6-0.4-1.1-0.6-1.7-0.6
		c-0.9,0-1.7,0.4-2.4,1.1c-0.6,0.7-0.9,1.7-0.9,3L143.6,626.3L143.6,626.3z"/>
	<path fill="#FFFFFF" d="M157,630.3c0.7,0,1.3-0.2,1.8-0.6c0.6-0.4,0.7-0.9,0.7-1.7h1.1c0,0.6-0.2,1.1-0.6,1.7
		c-0.4,0.6-0.7,0.9-1.3,1.1c-0.6,0.2-1.1,0.4-1.8,0.4c-1.3,0-2.2-0.4-3-1.3c-0.7-0.9-1.1-2-1.1-3.5V626c0-0.9,0.2-1.8,0.6-2.6
		c0.4-0.7,0.7-1.3,1.5-1.7c0.6-0.4,1.3-0.6,2.2-0.6c1.1,0,2,0.4,2.6,0.9c0.7,0.6,1.1,1.5,1.1,2.6h-1.1c0-0.7-0.4-1.3-0.7-1.8
		c-0.6-0.6-1.1-0.7-1.8-0.7c-0.9,0-1.7,0.4-2.2,1.1c-0.6,0.7-0.7,1.7-0.7,3v0.4c0,1.3,0.2,2.2,0.7,3
		C155.4,630,156.1,630.3,157,630.3z"/>
	<path fill="#FFFFFF" d="M163,618.3c0-0.2,0-0.4,0.2-0.6c0.2-0.2,0.4-0.2,0.6-0.2s0.4,0,0.6,0.2c0.2,0.2,0.2,0.4,0.2,0.6
		s0,0.4-0.2,0.6c-0.2,0.2-0.4,0.2-0.6,0.2c-0.2,0-0.4,0-0.6-0.2C163,618.7,163,618.5,163,618.3z M164.3,630.9h-1.1v-9.8h1.1V630.9z"
		/>
	<path fill="#FFFFFF" d="M173.3,630.9c-0.2-0.4-0.2-0.7-0.2-1.3c-0.4,0.6-0.9,0.9-1.5,1.1c-0.6,0.2-1.3,0.4-1.8,0.4
		c-0.9,0-1.7-0.2-2.2-0.7c-0.6-0.6-0.9-1.1-0.9-2c0-0.9,0.4-1.7,1.1-2.2c0.7-0.6,1.8-0.7,3.3-0.7h2v-1.1c0-0.7-0.2-1.3-0.6-1.7
		c-0.4-0.4-1.1-0.6-1.8-0.6c-0.7,0-1.3,0.2-1.8,0.6c-0.6,0.4-0.7,0.9-0.7,1.5H167c0-0.7,0.4-1.5,1.1-2c0.7-0.6,1.7-0.9,2.6-0.9
		c1.1,0,2,0.2,2.6,0.7c0.6,0.5,0.9,1.3,0.9,2.2v4.6c0,0.9,0.2,1.7,0.4,2v0.2L173.3,630.9L173.3,630.9z M170,630.1
		c0.7,0,1.3-0.2,1.8-0.6c0.6-0.4,0.9-0.7,1.3-1.5v-2.2h-1.8c-1.1,0-1.8,0.2-2.6,0.6c-0.6,0.4-0.9,0.9-0.9,1.7c0,0.6,0.2,0.9,0.6,1.3
		C168.7,630,169.3,630.1,170,630.1z"/>
	<path fill="#FFFFFF" d="M180.7,630.3c0.7,0,1.3-0.2,1.8-0.6c0.6-0.4,0.7-0.9,0.7-1.7h1.1c0,0.6-0.2,1.1-0.6,1.7
		c-0.4,0.6-0.7,0.9-1.3,1.1c-0.6,0.2-1.1,0.4-1.8,0.4c-1.3,0-2.2-0.4-3-1.3c-0.7-0.9-1.1-2-1.1-3.5V626c0-0.9,0.2-1.8,0.6-2.6
		c0.4-0.7,0.7-1.3,1.5-1.7c0.6-0.4,1.3-0.6,2.2-0.6c1.1,0,2,0.4,2.6,0.9c0.7,0.6,1.1,1.5,1.1,2.6h-1.1c0-0.7-0.4-1.3-0.7-1.8
		c-0.6-0.6-1.1-0.7-1.8-0.7c-0.9,0-1.7,0.4-2.2,1.1c-0.5,0.7-0.7,1.7-0.7,3v0.4c0,1.3,0.2,2.2,0.7,3
		C178.9,630,179.6,630.3,180.7,630.3z M180.9,631.1l-0.2,0.6c0.9,0.2,1.5,0.6,1.5,1.5c0,0.6-0.2,0.9-0.7,1.3
		c-0.5,0.4-1.1,0.6-1.8,0.6v-0.7c0.6,0,0.9-0.2,1.3-0.4c0.4-0.2,0.6-0.4,0.6-0.7c0-0.4-0.2-0.6-0.4-0.7c-0.2-0.2-0.7-0.2-1.1-0.2
		l0.2-1.1L180.9,631.1L180.9,631.1z"/>
	<path fill="#FFFFFF" d="M192.7,630.9c-0.2-0.4-0.2-0.7-0.2-1.3c-0.4,0.6-0.9,0.9-1.5,1.1c-0.6,0.2-1.3,0.4-1.8,0.4
		c-0.9,0-1.7-0.2-2.2-0.7c-0.6-0.6-0.9-1.1-0.9-2c0-0.9,0.4-1.7,1.1-2.2c0.7-0.6,1.8-0.7,3.3-0.7h2v-1.1c0-0.7-0.2-1.3-0.6-1.7
		c-0.4-0.4-1.1-0.6-1.8-0.6c-0.7,0-1.3,0.2-1.8,0.6c-0.6,0.4-0.7,0.9-0.7,1.5h-1.1c0-0.7,0.4-1.5,1.1-2c0.7-0.6,1.7-0.9,2.6-0.9
		c1.1,0,2,0.2,2.6,0.7c0.6,0.5,0.9,1.3,0.9,2.2v4.6c0,0.9,0.2,1.7,0.4,2v0.2L192.7,630.9L192.7,630.9L192.7,630.9z M189.4,630.1
		c0.7,0,1.3-0.2,1.8-0.6c0.6-0.4,0.9-0.7,1.3-1.5v-2.2h-1.8c-1.1,0-1.8,0.2-2.6,0.6c-0.6,0.4-0.9,0.9-0.9,1.7c0,0.6,0.2,0.9,0.6,1.3
		C188.1,630,188.7,630.1,189.4,630.1z M193.5,617.6c0,0.6-0.2,1.1-0.6,1.5c-0.4,0.4-0.7,0.6-1.3,0.6c-0.4,0-0.9-0.2-1.3-0.6
		c-0.4-0.4-0.7-0.6-1.1-0.6s-0.6,0.2-0.7,0.4c-0.2,0.2-0.4,0.4-0.4,0.7h-0.7c0-0.6,0.2-0.9,0.6-1.3c0.4-0.4,0.7-0.6,1.3-0.6
		c0.4,0,0.6,0,0.7,0.2c0.2,0.2,0.4,0.2,0.6,0.4c0.2,0.2,0.4,0.2,0.6,0.4c0.2,0.2,0.4,0.2,0.6,0.2c0.2,0,0.6-0.2,0.7-0.4
		c0.2-0.2,0.4-0.6,0.4-0.7L193.5,617.6z"/>
	<path fill="#FFFFFF" d="M195.9,625.9c0-0.9,0.2-1.8,0.6-2.6c0.4-0.7,0.9-1.3,1.5-1.7c0.7-0.4,1.5-0.6,2.2-0.6
		c1.3,0,2.4,0.4,3.1,1.3c0.7,0.9,1.3,2,1.3,3.7v0.2c0,0.9-0.2,1.8-0.6,2.6c-0.4,0.7-0.9,1.3-1.5,1.7c-0.6,0.4-1.5,0.6-2.2,0.6
		c-1.3,0-2.4-0.4-3.1-1.3c-0.7-0.9-1.3-2-1.3-3.7V625.9z M197,626.3c0,1.1,0.4,2.2,0.9,3c0.6,0.7,1.5,1.1,2.4,1.1s1.8-0.4,2.4-1.1
		c0.6-0.7,0.9-1.7,0.9-3v-0.2c0-0.7-0.2-1.5-0.4-2c-0.2-0.6-0.7-1.1-1.1-1.5c-0.6-0.4-1.1-0.6-1.7-0.6c-0.9,0-1.7,0.4-2.4,1.1
		c-0.6,0.7-0.9,1.7-0.9,3L197,626.3L197,626.3z"/>
	<path fill="#FFFFFF" d="M212.7,625.7v5.4h-1.1V618h4.4c1.3,0,2.4,0.4,3.3,1.1c0.7,0.7,1.1,1.7,1.1,3s-0.4,2.2-1.1,2.8
		c-0.7,0.7-1.8,0.9-3.3,0.9L212.7,625.7L212.7,625.7z M212.7,624.6h3.3c1.1,0,1.8-0.2,2.4-0.7c0.6-0.6,0.9-1.3,0.9-2.2
		c0-0.9-0.4-1.7-0.9-2.2c-0.6-0.6-1.3-0.7-2.4-0.7h-3.5v5.9L212.7,624.6L212.7,624.6z"/>
	<path fill="#FFFFFF" d="M227.3,622.2c-0.2,0-0.6,0-0.7,0c-0.7,0-1.3,0.2-1.7,0.6c-0.6,0.4-0.7,0.9-0.9,1.7v6.7h-1.1v-9.8h1.1v1.5
		c0.6-1.1,1.5-1.7,2.8-1.7c0.4,0,0.6,0,0.7,0.2L227.3,622.2z"/>
	<path fill="#FFFFFF" d="M228.8,618.3c0-0.2,0-0.4,0.2-0.6c0.2-0.2,0.4-0.2,0.6-0.2c0.2,0,0.4,0,0.6,0.2c0.2,0.2,0.2,0.4,0.2,0.6
		s0,0.4-0.2,0.6c-0.2,0.2-0.4,0.2-0.6,0.2c-0.2,0-0.4,0-0.6-0.2C228.8,618.7,228.8,618.5,228.8,618.3z M230.1,630.9H229v-9.8h1.1
		V630.9z"/>
	<path fill="#FFFFFF" d="M236.2,629.4l3-8.3h1.1l-3.7,9.8h-0.9l-3.7-9.8h1.1L236.2,629.4z"/>
	<path fill="#FFFFFF" d="M248,630.9c-0.2-0.4-0.2-0.7-0.2-1.3c-0.4,0.6-0.9,0.9-1.5,1.1c-0.6,0.2-1.3,0.4-1.8,0.4
		c-0.9,0-1.7-0.2-2.2-0.7c-0.6-0.6-0.9-1.1-0.9-2c0-0.9,0.4-1.7,1.1-2.2c0.7-0.6,1.8-0.7,3.3-0.7h2v-1.1c0-0.7-0.2-1.3-0.6-1.7
		c-0.4-0.4-1.1-0.6-1.8-0.6c-0.7,0-1.3,0.2-1.8,0.6c-0.6,0.4-0.7,0.9-0.7,1.5h-1.1c0-0.7,0.4-1.5,1.1-2c0.7-0.6,1.7-0.9,2.6-0.9
		c1.1,0,2,0.2,2.6,0.7c0.6,0.6,0.9,1.3,0.9,2.2v4.6c0,0.9,0.2,1.7,0.4,2v0.2L248,630.9L248,630.9z M244.7,630.1
		c0.7,0,1.3-0.2,1.8-0.6c0.6-0.4,0.9-0.7,1.3-1.5v-2.2H246c-1.1,0-1.8,0.2-2.6,0.6c-0.6,0.4-0.9,0.9-0.9,1.7c0,0.6,0.2,0.9,0.6,1.3
		C243.4,630,243.9,630.1,244.7,630.1z"/>
	<path fill="#FFFFFF" d="M251.3,626.1c0-1.5,0.4-2.8,0.9-3.7c0.7-0.9,1.7-1.3,2.8-1.3c1.3,0,2.4,0.6,3,1.5v-5.5h1.1V631h-0.9v-1.3
		c-0.7,0.9-1.7,1.5-3.1,1.5c-1.1,0-2-0.4-2.8-1.3C251.7,628.9,251.3,627.7,251.3,626.1L251.3,626.1z M252.4,626.3
		c0,1.3,0.2,2.2,0.7,3c0.5,0.8,1.3,1.1,2,1.1c1.3,0,2.2-0.6,2.8-1.8V624c-0.6-1.3-1.5-1.8-2.8-1.8c-0.9,0-1.7,0.4-2,1.1
		C252.6,623.7,252.4,624.8,252.4,626.3z"/>
	<path fill="#FFFFFF" d="M268.2,630.9c-0.2-0.2-0.2-0.7-0.2-1.3c-0.4,0.6-0.9,0.9-1.5,1.1c-0.6,0.2-1.3,0.4-1.8,0.4
		c-0.9,0-1.7-0.2-2.2-0.7c-0.6-0.6-0.9-1.1-0.9-2c0-0.9,0.4-1.7,1.1-2.2c0.7-0.6,1.8-0.7,3.3-0.7h2v-1.1c0-0.7-0.2-1.3-0.6-1.7
		c-0.4-0.4-1.1-0.6-1.8-0.6c-0.7,0-1.3,0.2-1.8,0.6c-0.6,0.4-0.7,0.9-0.7,1.5H262c0-0.7,0.4-1.5,1.1-2c0.7-0.6,1.7-0.9,2.6-0.9
		c1.1,0,2,0.2,2.6,0.7c0.6,0.6,0.9,1.3,0.9,2.2v4.6c0,0.9,0.2,1.7,0.4,2v0.2L268.2,630.9L268.2,630.9z M264.8,630.1
		c0.7,0,1.3-0.2,1.8-0.6c0.6-0.4,0.9-0.7,1.3-1.5v-2.2h-1.8c-1.1,0-1.8,0.2-2.6,0.6c-0.6,0.4-0.9,0.9-0.9,1.7c0,0.6,0.2,0.9,0.6,1.3
		C263.5,630,264.1,630.1,264.8,630.1z"/>
</g>
<path fill="#FFFFFF" d="M158.7,754.7l-1.6,2.4l0,0l2.8-0.5v1.4l-2.8-0.5l0,0l2,2.2l-1.2,0.7l-1.2-2.7l0,0l-1.2,2.7l-1.2-0.7l1.6-2.2
	l0,0l-2.8,0.5v-1.4l2.8,0.5l0,0l-1.6-2.2l1.2-0.6l1.2,2.7l0,0l1.2-2.7L158.7,754.7z"/>
<path fill="#FFFFFF" d="M446.6,721.6l-1.1,1.6l0,0l1.9-0.3v0.9l-1.9-0.3l0,0l1.3,1.5l-0.8,0.5l-0.8-1.8l0,0l-0.8,1.8l-0.8-0.5
	l1.1-1.5l0,0l-1.9,0.3v-0.9l1.9,0.3l0,0l-1.1-1.5l0.8-0.4l0.8,1.8l0,0l0.8-1.8L446.6,721.6z"/>
<path fill="#FFFFFF" d="M163.2,754.3v12.5h-1.6v-12.5H163.2z"/>
<path fill="#FFFFFF" d="M166.2,760.3c0-0.9,0-1.6,0-2.4h1.5v1.5l0,0c0.5-0.9,1.5-1.6,3-1.6c1.4,0,3.1,0.7,3.1,3.8v5.3h-1.6v-5.2
	c0-1.5-0.6-2.7-2.1-2.7c-1.2,0-2,0.7-2.2,1.6c0,0.1-0.1,0.6-0.1,0.7v5.3h-1.6V760h0.1v0.3H166.2z"/>
<path fill="#FFFFFF" d="M183.1,766.6c-0.5,0.1-1.4,0.6-2.7,0.6c-2.8,0-4.5-2-4.5-4.6c0-2.8,2-4.9,4.9-4.9c0.9,0,2,0.1,2.2,0.6
	l-0.5,1.4c-0.5-0.1-0.9-0.5-2-0.5c-2.1,0-3.1,1.5-3.1,3.5c0,2.1,1.4,3.5,3.1,3.5c0.9,0,1.5-0.1,2.1-0.5L183.1,766.6z"/>
<path fill="#FFFFFF" d="M184.9,753.6h1.6v13.2h-1.6V753.6z"/>
<path fill="#FFFFFF" d="M196.9,764.5c0,0.9,0,1.6,0,2.4h-1.5v-1.5l0,0c-0.5,0.7-1.4,1.6-3,1.6c-1.5,0-3.1-0.7-3.1-3.8V758h1.6v5.1
	c0,1.6,0.6,2.8,2.1,2.8c1.2,0,2-0.7,2.2-1.5c0-0.1,0.1-0.6,0.1-0.9v-5.7h1.6L196.9,764.5L196.9,764.5L196.9,764.5z"/>
<path fill="#FFFFFF" d="M201.3,755.2c0,0.6-0.5,0.9-1.2,0.9c-0.6,0-0.9-0.5-0.9-0.9s0.5-0.9,0.9-0.9
	C201.1,754.2,201.3,754.7,201.3,755.2z M199.7,766.8v-8.9h1.6v8.9H199.7z"/>
<path fill="#FFFFFF" d="M203.5,759.4c0-0.7,0.6-1.2,1.2-1.2s1.2,0.6,1.2,1.2c0,0.7-0.5,1.2-1.2,1.2S203.5,760,203.5,759.4z
	 M203.5,765.9c0-0.7,0.6-1.2,1.2-1.2s1.2,0.6,1.2,1.2c0,0.6-0.5,1.2-1.2,1.2C204,767.2,203.5,766.6,203.5,765.9z"/>
<path fill="#FFFFFF" d="M212.9,754.3h6.7v1.4h-5.2v4.2h4.6v1.4h-4.6v5.7h-1.6v-12.4h0.1V754.3z"/>
<path fill="#FFFFFF" d="M229.1,764.5c0,0.9,0,1.6,0,2.4h-1.5v-1.5l0,0c-0.5,0.7-1.4,1.6-3,1.6c-1.5,0-3.1-0.7-3.1-3.8V758h1.6v5.1
	c0,1.6,0.6,2.8,2.1,2.8c1.2,0,2-0.7,2.2-1.5c0-0.1,0.1-0.6,0.1-0.9v-5.7h1.5v6.7H229.1z"/>
<path fill="#FFFFFF" d="M231.6,760.3c0-0.9,0-1.6,0-2.4h1.5v1.5l0,0c0.5-0.9,1.5-1.6,3-1.6c1.4,0,3.1,0.7,3.1,3.8v5.3h-1.6v-5.2
	c0-1.5-0.6-2.7-2.1-2.7c-1.2,0-2,0.7-2.2,1.6c0,0.1-0.1,0.6-0.1,0.7v5.3h-1.6V760h0.1v0.3H231.6z"/>
<path fill="#FFFFFF" d="M250,753.6v10.9c0,0.7,0,1.6,0,2.2h-1.5v-1.5l0,0c-0.6,0.9-1.6,2-3,2c-2.2,0-3.8-2-3.8-4.6
	c0-3,2-4.9,4.2-4.9c1.4,0,2.2,0.6,2.8,1.4l0,0v-5.6h1.5v0.1L250,753.6L250,753.6z M248.4,761.5c0-0.1,0-0.6,0-0.7
	c-0.1-1.2-1.2-2-2.4-2c-1.6,0-2.7,1.5-2.7,3.6c0,2,0.9,3.5,2.7,3.5c1.2,0,2.1-0.7,2.4-2c0-0.1,0-0.5,0-0.7V761.5z"/>
<path fill="#FFFFFF" d="M257.7,766.8l-0.1-1.2l0,0c-0.6,0.7-1.5,1.4-2.8,1.4c-2,0-2.8-1.4-2.8-2.7c0-2.2,2-3.5,5.3-3.5l0,0
	c0-0.7-0.1-2.1-2.1-2.1c-0.7,0-1.6,0.1-2.4,0.7l-0.5-1.2c0.7-0.6,2-0.7,3-0.7c2.8,0,3.5,2,3.5,3.7v3.5c0,0.7,0,1.5,0.1,2.2h-1.4
	v-0.1h0.1V766.8z M257.4,762.2c-2,0-3.7,0.5-3.7,2.1c0,1.2,0.7,1.5,1.5,1.5c1.2,0,2-0.7,2.2-1.5c0-0.1,0.1-0.5,0.1-0.6v-1.5H257.4z"
	/>
<path fill="#FFFFFF" d="M268.1,766.6c-0.5,0.1-1.4,0.6-2.2,0.6l-0.6,0.7c0.7,0,1.4,0.6,1.4,1.4c0,1.2-0.9,1.5-2,1.5
	c-0.6,0-0.9-0.1-1.4-0.5l0.1-0.7c0.5,0.1,0.7,0.1,0.9,0.1c0.5,0,0.7-0.1,0.7-0.6c0-0.6-0.6-0.7-1.5-0.7l0.7-1.4
	c-2.2-0.5-3.7-2.1-3.7-4.5c0-2.8,2-4.9,4.9-4.9c0.9,0,2,0.1,2.2,0.6l-0.5,1.4c-0.5-0.1-0.9-0.5-2-0.5c-2.1,0-3.1,1.5-3.1,3.5
	c0,2.1,1.4,3.5,3.1,3.5c0.9,0,1.5-0.1,2.1-0.5L268.1,766.6z"/>
<path fill="#FFFFFF" d="M275.1,766.8l-0.1-1.2l0,0c-0.6,0.7-1.5,1.4-2.8,1.4c-2,0-2.8-1.4-2.8-2.7c0-2.2,2-3.5,5.3-3.5l0,0
	c0-0.7-0.1-2.1-2.1-2.1c-0.7,0-1.6,0.1-2.4,0.7l-0.5-1.2c0.7-0.6,2-0.7,3-0.7c2.8,0,3.5,2,3.5,3.7v3.5c0,0.7,0,1.5,0.1,2.2H275v-0.1
	h0.1V766.8z M270.8,756.3c0-1.2,0.6-2,1.4-2c0.5,0,0.7,0.1,1.2,0.5c0.5,0.1,0.6,0.5,0.7,0.5c0.5,0,0.5-0.1,0.6-0.7h0.9
	c0,1.4-0.5,2-1.4,2c-0.5,0-0.7-0.1-1.2-0.5c-0.5-0.1-0.6-0.5-0.7-0.5c-0.5,0-0.5,0.5-0.6,0.7H270.8z M274.7,762.2
	c-2,0-3.7,0.5-3.7,2.1c0,1.2,0.7,1.5,1.5,1.5c1.2,0,2-0.7,2.2-1.5c0-0.1,0.1-0.5,0.1-0.6v-1.5H274.7z"/>
<path fill="#FFFFFF" d="M287.2,762.2c0,3.5-2.2,4.9-4.5,4.9c-2.4,0-4.3-2-4.3-4.6c0-3,2.1-4.9,4.5-4.9
	C285.5,757.4,287.2,759.5,287.2,762.2z M280,762.4c0,2.1,1.2,3.6,2.8,3.6c1.5,0,2.8-1.5,2.8-3.6c0-1.5-0.7-3.6-2.7-3.6
	C280.8,758.8,280,760.7,280,762.4z"/>
<path fill="#FFFFFF" d="M301.3,762.2c0,3.5-2.2,4.9-4.5,4.9c-2.4,0-4.3-2-4.3-4.6c0-3,2.1-4.9,4.5-4.9
	C299.7,757.4,301.3,759.5,301.3,762.2z M294.4,762.4c0,2.1,1.2,3.6,2.8,3.6c1.5,0,2.8-1.5,2.8-3.6c0-1.5-0.7-3.6-2.7-3.6
	C295.1,758.8,294.4,760.7,294.4,762.4z"/>
<path fill="#FFFFFF" d="M311.1,764.5c0,0.9,0,1.6,0,2.4h-1.5v-1.5l0,0c-0.5,0.7-1.4,1.6-3,1.6c-1.5,0-3.1-0.7-3.1-3.8V758h1.6v5.1
	c0,1.6,0.6,2.8,2.1,2.8c1.2,0,2-0.7,2.2-1.5c0-0.1,0.1-0.6,0.1-0.9v-5.7h1.6L311.1,764.5L311.1,764.5L311.1,764.5z"/>
<path fill="#FFFFFF" d="M319.8,763l-1.4,3.8h-1.6l4.3-12.5h2l4.3,12.5h-1.6l-1.4-3.8H319.8z M324,761.6l-1.4-3.6
	c-0.1-0.7-0.5-1.5-0.6-2.2l0,0c-0.1,0.7-0.5,1.5-0.6,2.2l-1.4,3.6H324z"/>
<path fill="#FFFFFF" d="M328.9,765.2c0.6,0.5,1.4,0.6,2.2,0.6c1.2,0,1.6-0.6,1.6-1.4c0-0.7-0.6-1.2-1.6-1.6
	c-1.6-0.6-2.4-1.5-2.4-2.7c0-1.5,1.2-2.7,3.1-2.7c0.9,0,1.6,0.1,2.2,0.6l-0.5,1.2c-0.5-0.1-0.9-0.6-2-0.6c-1,0-1.5,0.6-1.5,1.4
	c0,0.7,0.6,1.2,1.6,1.5c1.5,0.6,2.4,1.4,2.4,2.8c0,1.5-1.4,2.7-3.5,2.7c-0.9,0-2-0.1-2.7-0.6L328.9,765.2z"/>
<path fill="#FFFFFF" d="M336.3,765.2c0.6,0.5,1.4,0.6,2.2,0.6c1.2,0,1.6-0.6,1.6-1.4c0-0.7-0.6-1.2-1.6-1.6
	c-1.6-0.6-2.4-1.5-2.4-2.7c0-1.5,1.2-2.7,3.1-2.7c0.9,0,1.6,0.1,2.2,0.6l-0.5,1.2c-0.5-0.1-0.9-0.6-2-0.6c-1,0-1.5,0.6-1.5,1.4
	c0,0.7,0.6,1.2,1.6,1.5c1.5,0.6,2.4,1.4,2.4,2.8c0,1.5-1.4,2.7-3.5,2.7c-0.9,0-2-0.1-2.7-0.6L336.3,765.2z"/>
<path fill="#FFFFFF" d="M352,762.2c0,3.5-2.2,4.9-4.5,4.9c-2.4,0-4.3-2-4.3-4.6c0-3,2.1-4.9,4.5-4.9
	C350.4,757.4,352,759.5,352,762.2z M344.9,762.4c0,2.1,1.2,3.6,2.8,3.6c1.5,0,2.8-1.5,2.8-3.6c0-1.5-0.7-3.6-2.7-3.6
	C345.7,758.8,344.9,760.7,344.9,762.4z"/>
<path fill="#FFFFFF" d="M360.6,766.6c-0.5,0.1-1.4,0.6-2.7,0.6c-2.8,0-4.5-2-4.5-4.6c0-2.8,2-4.9,4.9-4.9c0.9,0,2,0.1,2.2,0.6
	l-0.5,1.4c-0.5-0.1-0.9-0.5-2-0.5c-2.1,0-3.1,1.5-3.1,3.5c0,2.1,1.4,3.5,3.1,3.5c0.9,0,1.5-0.1,2.1-0.5L360.6,766.6z"/>
<path fill="#FFFFFF" d="M364.3,755.2c0,0.6-0.5,0.9-1.2,0.9c-0.6,0-0.9-0.5-0.9-0.9s0.5-0.9,0.9-0.9
	C364.1,754.2,364.3,754.7,364.3,755.2z M362.6,766.8v-8.9h1.6v8.9H362.6z"/>
<path fill="#FFFFFF" d="M371.9,766.8l-0.1-1.2l0,0c-0.6,0.7-1.5,1.4-2.8,1.4c-2,0-2.8-1.4-2.8-2.7c0-2.2,2-3.5,5.3-3.5l0,0
	c0-0.7-0.1-2.1-2.1-2.1c-0.7,0-1.6,0.1-2.4,0.7l-0.5-1.2c0.7-0.6,2-0.7,3-0.7c2.8,0,3.5,2,3.5,3.7v3.5c0,0.7,0,1.5,0.1,2.2H372v-0.2
	H371.9z M371.6,762.2c-2,0-3.7,0.5-3.7,2.1c0,1.2,0.7,1.5,1.5,1.5c1.2,0,2-0.7,2.2-1.5c0-0.1,0.1-0.5,0.1-0.6v-1.5H371.6z"/>
<path fill="#FFFFFF" d="M382.3,766.6c-0.5,0.1-1.4,0.6-2.2,0.6l-0.6,0.7c0.7,0,1.4,0.6,1.4,1.4c0,1.2-0.9,1.5-2,1.5
	c-0.5,0-0.9-0.1-1.4-0.5l0.1-0.7c0.5,0.1,0.7,0.1,0.9,0.1c0.5,0,0.7-0.1,0.7-0.6c0-0.6-0.6-0.7-1.5-0.7l0.7-1.4
	c-2.2-0.5-3.7-2.1-3.7-4.5c0-2.8,2-4.9,4.9-4.9c0.9,0,2,0.1,2.2,0.6l-0.5,1.4c-0.5-0.1-0.9-0.5-2-0.5c-2.1,0-3.1,1.5-3.1,3.5
	c0,2.1,1.4,3.5,3.1,3.5c0.9,0,1.5-0.1,2.1-0.5L382.3,766.6z"/>
<path fill="#FFFFFF" d="M389.3,766.8l-0.1-1.2l0,0c-0.6,0.7-1.5,1.4-2.8,1.4c-2,0-2.8-1.4-2.8-2.7c0-2.2,2-3.5,5.3-3.5l0,0
	c0-0.7-0.1-2.1-2.1-2.1c-0.7,0-1.6,0.1-2.4,0.7l-0.5-1.2c0.7-0.6,2-0.7,3-0.7c2.8,0,3.5,2,3.5,3.7v3.5c0,0.7,0,1.5,0.1,2.2h-1.4
	v-0.1h0.1V766.8z M385.1,756.3c0-1.2,0.6-2,1.4-2c0.5,0,0.7,0.1,1.2,0.5c0.5,0.1,0.6,0.5,0.7,0.5c0.5,0,0.5-0.1,0.6-0.7h0.9
	c0,1.4-0.5,2-1.4,2c-0.5,0-0.7-0.1-1.2-0.5c-0.5-0.1-0.6-0.5-0.7-0.5c-0.5,0-0.5,0.5-0.6,0.7H385.1z M389,762.2
	c-2,0-3.7,0.5-3.7,2.1c0,1.2,0.7,1.5,1.5,1.5c1.2,0,2-0.7,2.2-1.5c0-0.1,0.1-0.5,0.1-0.6v-1.5H389z"/>
<path fill="#FFFFFF" d="M401.5,762.2c0,3.5-2.2,4.9-4.5,4.9c-2.4,0-4.3-2-4.3-4.6c0-3,2.1-4.9,4.5-4.9S401.5,759.5,401.5,762.2z
	 M394.2,762.4c0,2.1,1.2,3.6,2.8,3.6c1.5,0,2.8-1.5,2.8-3.6c0-1.5-0.7-3.6-2.7-3.6S394.2,760.7,394.2,762.4z"/>
<path fill="#FFFFFF" d="M414.1,760.9h-4.9v4.5h5.3v1.4h-7.2v-12.5h6.7v1.4h-5.2v3.8h4.9v1.5h0.3V760.9z"/>
<path fill="#FFFFFF" d="M416.5,765.2c0.6,0.5,1.4,0.6,2.2,0.6c1.2,0,1.6-0.6,1.6-1.4c0-0.7-0.6-1.2-1.6-1.6
	c-1.6-0.6-2.4-1.5-2.4-2.7c0-1.5,1.2-2.7,3.1-2.7c0.9,0,1.6,0.1,2.2,0.6l-0.5,1.2c-0.5-0.1-0.9-0.6-2-0.6c-1,0-1.5,0.6-1.5,1.4
	c0,0.7,0.6,1.2,1.6,1.5c1.5,0.6,2.4,1.4,2.4,2.8c0,1.5-1.4,2.7-3.5,2.7c-0.9,0-2-0.1-2.7-0.6L416.5,765.2z"/>
<path fill="#FFFFFF" d="M426,755.2v2.7h2.4v1.4H426v4.9c0,1.2,0.5,1.6,1.4,1.6c0.5,0,0.7,0,0.9-0.1v1.4c-0.5,0.1-0.7,0.1-1.5,0.1
	c-0.7,0-1.4-0.1-1.6-0.7c-0.6-0.6-0.6-1.4-0.6-2.4v-4.9h-1.5v-1.4h1.5v-2.2L426,755.2z"/>
<path fill="#FFFFFF" d="M430.3,760.7c0-1.2,0-2.1,0-2.8h1.5v1.6l0,0c0.5-1.2,1.4-2.1,2.4-2.1c0.1,0,0.5,0,0.5,0v1.5
	c-0.1,0-0.5,0-0.6,0c-1.2,0-2.1,0.9-2.2,2.1c0,0.1,0,0.6,0,0.7v4.9h-1.6V760.7L430.3,760.7z"/>
<path fill="#FFFFFF" d="M441.4,766.8l-0.1-1.2l0,0c-0.6,0.7-1.5,1.4-2.8,1.4c-2,0-2.8-1.4-2.8-2.7c0-2.2,2-3.5,5.3-3.5l0,0
	c0-0.7-0.1-2.1-2.1-2.1c-0.7,0-1.6,0.1-2.4,0.7l-0.5-1.2c0.7-0.6,2-0.7,3-0.7c2.8,0,3.5,2,3.5,3.7v3.5c0,0.7,0,1.5,0.1,2.2h-1.4
	v-0.1h0.1V766.8z M441,762.2c-2,0-3.7,0.5-3.7,2.1c0,1.2,0.7,1.5,1.5,1.5c1.2,0,2-0.7,2.2-1.5c0-0.1,0.1-0.5,0.1-0.6v-1.5H441z"/>
<path fill="#FFFFFF" d="M445.3,760.3c0-0.9,0-1.6,0-2.4h1.5v1.5l0,0c0.5-0.9,1.5-1.6,3-1.6c1.4,0,3.1,0.7,3.1,3.8v5.3h-1.5v-5.2
	c0-1.5-0.6-2.7-2.1-2.7c-1.2,0-2,0.7-2.2,1.6c0,0.1-0.1,0.6-0.1,0.7v5.3h-1.6v-6.4H445.3z"/>
<path fill="#FFFFFF" d="M463.5,757.9c0,0.6,0,1.4,0,2.4v5.2c0,2.1-0.5,3.5-1.4,4.2c-0.9,0.7-2.1,1.2-3.5,1.2c-1.2,0-2.2-0.1-3-0.7
	l0.5-1.4c0.6,0.5,1.5,0.7,2.7,0.7c1.6,0,3-0.9,3-3.1v-1l0,0c-0.6,0.7-1.5,1.5-2.8,1.5c-2.2,0-3.8-2-3.8-4.5c0-3,2.1-4.9,4.2-4.9
	c1.5,0,2.4,0.7,2.8,1.5l0,0v-1.4h1.5v0.3L463.5,757.9L463.5,757.9z M461.7,761.5c0-0.1,0-0.6,0-0.7c-0.5-0.9-1.2-1.6-2.2-1.6
	c-1.5,0-2.7,1.4-2.7,3.5c0,1.6,0.9,3.1,2.7,3.1c0.9,0,2-0.6,2.2-1.6c0-0.5,0.1-0.6,0.1-0.9v-1.6h-0.1V761.5z"/>
<path fill="#FFFFFF" d="M466.9,762.5c0,2.2,1.5,3.1,3.1,3.1c1.2,0,2-0.1,2.4-0.5l0.1,1.2c-0.6,0.1-1.5,0.6-3,0.6
	c-2.8,0-4.5-2-4.5-4.5c0-2.7,1.6-4.9,4.3-4.9c3,0,3.7,2.7,3.7,4.3c0,0.5,0,0.6,0,0.7h-6.4v-0.1h0.2V762.5z M471.9,761.5
	c0-1.2-0.5-2.7-2.2-2.7c-1.6,0-2.4,1.5-2.4,2.7H471.9z"/>
<path fill="#FFFFFF" d="M477.3,755.2c0,0.6-0.5,0.9-1.2,0.9c-0.6,0-0.9-0.5-0.9-0.9s0.5-0.9,0.9-0.9
	C476.9,754.2,477.3,754.7,477.3,755.2z M475.6,766.8v-8.9h1.6v8.9H475.6z"/>
<path fill="#FFFFFF" d="M479.9,760.7c0-1.2,0-2.1,0-2.8h1.5v1.6l0,0c0.5-1.2,1.4-2.1,2.4-2.1c0.1,0,0.5,0,0.5,0v1.5
	c-0.1,0-0.5,0-0.6,0c-1.2,0-2.1,0.9-2.2,2.1c0,0.1,0,0.6,0,0.7v4.9h-1.6V760.7L479.9,760.7z"/>
<path fill="#FFFFFF" d="M491,766.8l-0.1-1.2l0,0c-0.6,0.7-1.5,1.4-2.8,1.4c-2,0-2.8-1.4-2.8-2.7c0-2.2,2-3.5,5.3-3.5l0,0
	c0-0.7-0.1-2.1-2.1-2.1c-0.7,0-1.6,0.1-2.4,0.7l-0.5-1.2c0.7-0.6,2-0.7,3-0.7c2.8,0,3.5,2,3.5,3.7v3.5c0,0.7,0,1.5,0.1,2.2h-1.4
	v-0.1h0.1V766.8z M490.6,762.2c-2,0-3.7,0.5-3.7,2.1c0,1.2,0.7,1.5,1.5,1.5c1.2,0,2-0.7,2.2-1.5c0-0.1,0.1-0.5,0.1-0.6v-1.5H490.6z"
	/>
<path fill="#FFFFFF" d="M494,769c0.5-1.2,0.9-3.1,1.2-4.5l2-0.1c-0.5,1.5-1.4,3.7-1.6,4.5L494,769z"/>
<path fill="#FFFFFF" d="M212.3,775.5h6.7v1.4h-5.2v4.2h4.6v1.4h-4.6v5.7h-1.7v-12.4h0.3v-0.2H212.3z"/>
<path fill="#FFFFFF" d="M228.1,785.5c0,0.9,0,1.6,0,2.4h-1.4v-1.5l0,0c-0.5,0.7-1.4,1.6-3,1.6c-1.5,0-3.1-0.7-3.1-3.8V779h1.6v5.1
	c0,1.6,0.6,2.8,2.1,2.8c1.2,0,2-0.7,2.2-1.5c0-0.1,0.1-0.6,0.1-0.9v-5.7h1.6v6.7L228.1,785.5L228.1,785.5z"/>
<path fill="#FFFFFF" d="M231,781.5c0-0.9,0-1.6,0-2.4h1.5v1.5l0,0c0.5-0.9,1.5-1.6,3-1.6c1.4,0,3.1,0.7,3.1,3.8v5.3h-1.6v-5.2
	c0-1.5-0.6-2.7-2.1-2.7c-1.2,0-2,0.7-2.2,1.6c0,0.1-0.1,0.6-0.1,0.7v5.3H231v-6.5h0.1v0.1H231z"/>
<path fill="#FFFFFF" d="M249.1,774.7v10.9c0,0.7,0,1.6,0,2.2h-1.5v-1.5l0,0c-0.6,0.9-1.6,2-3,2c-2.2,0-3.8-2-3.8-4.6
	c0-3,2-4.9,4.2-4.9c1.4,0,2.2,0.6,2.8,1.4l0,0v-5.3h1.5l0,0h-0.1V774.7z M247.4,782.5c0-0.1,0-0.6,0-0.7c-0.1-1.2-1.2-2-2.4-2
	c-1.6,0-2.7,1.5-2.7,3.6c0,2,0.9,3.5,2.7,3.5c1.2,0,2.1-0.7,2.4-2c0-0.1,0-0.5,0-0.7V782.5z"/>
<path fill="#FFFFFF" d="M256.8,787.9l-0.1-1.2l0,0c-0.6,0.7-1.5,1.4-2.8,1.4c-2,0-2.8-1.4-2.8-2.7c0-2.2,2-3.5,5.3-3.5v-0.1
	c0-0.7-0.1-2.1-2.1-2.1c-0.7,0-1.6,0.1-2.4,0.7l-0.5-1.2c0.7-0.6,2-0.7,3-0.7c2.8,0,3.5,2,3.5,3.7v3.5c0,0.7,0,1.5,0.1,2.2
	L256.8,787.9L256.8,787.9z M256.6,783.2c-2,0-3.7,0.5-3.7,2.1c0,1.2,0.7,1.5,1.5,1.5c1.2,0,2-0.7,2.2-1.5c0-0.1,0.1-0.5,0.1-0.6
	v-1.5H256.6z"/>
<path fill="#FFFFFF" d="M267.3,787.6c-0.5,0.1-1.4,0.6-2.2,0.6l-0.6,0.7c0.7,0,1.4,0.6,1.4,1.4c0,1.2-0.9,1.5-2,1.5
	c-0.6,0-0.9-0.1-1.4-0.5l0.1-0.7c0.5,0.1,0.7,0.1,0.9,0.1c0.5,0,0.7-0.1,0.7-0.6c0-0.6-0.6-0.7-1.5-0.7l0.7-1.4
	c-2.2-0.5-3.7-2.1-3.7-4.5c0-2.8,2-4.9,4.9-4.9c0.9,0,2,0.1,2.2,0.6l-0.5,1.4c-0.5-0.1-0.9-0.5-2-0.5c-2.1,0-3.1,1.5-3.1,3.5
	c0,2.1,1.4,3.5,3.1,3.5c0.9,0,1.5-0.1,2.1-0.5L267.3,787.6z"/>
<path fill="#FFFFFF" d="M274.2,787.9l-0.1-1.2l0,0c-0.6,0.7-1.5,1.4-2.8,1.4c-2,0-2.8-1.4-2.8-2.7c0-2.2,2-3.5,5.3-3.5v-0.1
	c0-0.7-0.1-2.1-2.1-2.1c-0.7,0-1.6,0.1-2.4,0.7l-0.5-1.2c0.7-0.6,2-0.7,3-0.7c2.8,0,3.5,2,3.5,3.7v3.5c0,0.7,0,1.5,0.1,2.2H274l0,0
	h0.1V787.9z M270,777.3c0-1.2,0.6-2,1.4-2c0.5,0,0.7,0.1,1.2,0.5c0.5,0.1,0.6,0.5,0.7,0.5c0.5,0,0.5-0.1,0.6-0.7h0.9
	c0,1.4-0.5,2-1.4,2c-0.5,0-0.7-0.1-1.2-0.5c-0.5-0.1-0.6-0.5-0.7-0.5c-0.5,0-0.5,0.5-0.6,0.7H270z M274,783.2c-2,0-3.7,0.5-3.7,2.1
	c0,1.2,0.7,1.5,1.5,1.5c1.2,0,2-0.7,2.2-1.5c0-0.1,0.1-0.5,0.1-0.6v-1.5H274z"/>
<path fill="#FFFFFF" d="M286.6,783.2c0,3.5-2.2,4.9-4.5,4.9c-2.4,0-4.3-2-4.3-4.6c0-3,2.1-4.9,4.5-4.9
	C284.6,778.7,286.6,780.8,286.6,783.2z M279.3,783.4c0,2.1,1.2,3.6,2.8,3.6c1.5,0,2.8-1.5,2.8-3.6c0-1.5-0.7-3.6-2.7-3.6
	C280.2,780,279.3,781.8,279.3,783.4z"/>
<path fill="#FFFFFF" d="M300.8,783.2c0,3.5-2.2,4.9-4.5,4.9c-2.4,0-4.3-2-4.3-4.6c0-3,2.1-4.9,4.5-4.9S300.8,780.8,300.8,783.2z
	 M293.4,783.4c0,2.1,1.2,3.6,2.8,3.6c1.5,0,2.8-1.5,2.8-3.6c0-1.5-0.7-3.6-2.7-3.6C294.4,780,293.4,781.8,293.4,783.4z"/>
<path fill="#FFFFFF" d="M310.3,785.5c0,0.9,0,1.6,0,2.4h-1.5v-1.5l0,0c-0.5,0.7-1.4,1.6-3,1.6c-1.5,0-3.1-0.7-3.1-3.8V779h1.6v5.1
	c0,1.6,0.6,2.8,2.1,2.8c1.2,0,2-0.7,2.2-1.5c0-0.1,0.1-0.6,0.1-0.9v-5.7h1.6L310.3,785.5L310.3,785.5L310.3,785.5z"/>
<path fill="#FFFFFF" d="M319.1,784l-1.4,3.8h-1.6l4.3-12.5h2l4.3,12.5H325l-1.4-3.8H319.1z M323.2,782.6l-1.4-3.6
	c-0.5-0.7-0.6-1.5-0.7-2.2l0,0c-0.1,0.7-0.5,1.5-0.6,2.2l-1.4,3.6H323.2z"/>
<path fill="#FFFFFF" d="M328.1,786.2c0.6,0.5,1.4,0.6,2.2,0.6c1.2,0,1.6-0.6,1.6-1.4c0-0.7-0.6-1.2-1.6-1.6
	c-1.6-0.6-2.4-1.5-2.4-2.7c0-1.5,1.2-2.7,3.1-2.7c0.9,0,1.6,0.1,2.2,0.6l-0.5,1.2c-0.5-0.1-0.9-0.6-2-0.6c-1,0-1.5,0.6-1.5,1.4
	c0,0.7,0.6,1.2,1.6,1.5c1.5,0.6,2.4,1.4,2.4,2.8c0,1.4-1.4,2.7-3.5,2.7c-0.9,0-2-0.1-2.7-0.6L328.1,786.2z"/>
<path fill="#FFFFFF" d="M335.5,786.2c0.6,0.5,1.4,0.6,2.2,0.6c1.2,0,1.6-0.6,1.6-1.4c0-0.7-0.6-1.2-1.6-1.6
	c-1.6-0.6-2.4-1.5-2.4-2.7c0-1.5,1.2-2.7,3.1-2.7c0.9,0,1.6,0.1,2.2,0.6l-0.5,1.2c-0.5-0.1-0.9-0.6-2-0.6s-1.5,0.6-1.5,1.4
	c0,0.7,0.6,1.2,1.6,1.5c1.5,0.6,2.4,1.4,2.4,2.8c0,1.4-1.4,2.7-3.5,2.7c-0.9,0-2-0.1-2.7-0.6L335.5,786.2z"/>
<path fill="#FFFFFF" d="M351.4,783.2c0,3.5-2.2,4.9-4.5,4.9c-2.4,0-4.3-2-4.3-4.6c0-3,2.1-4.9,4.5-4.9
	C349.6,778.7,351.4,780.8,351.4,783.2z M344.1,783.4c0,2.1,1.2,3.6,2.8,3.6c1.5,0,2.8-1.5,2.8-3.6c0-1.5-0.7-3.6-2.7-3.6
	C345.1,780,344.1,781.8,344.1,783.4z"/>
<path fill="#FFFFFF" d="M359.8,787.6c-0.5,0.1-1.4,0.6-2.7,0.6c-2.8,0-4.5-2-4.5-4.6c0-2.8,2-4.9,4.9-4.9c0.9,0,2,0.1,2.2,0.6
	l-0.5,1.4c-0.5-0.1-0.9-0.5-2-0.5c-2.1,0-3.1,1.5-3.1,3.5c0,2.1,1.4,3.5,3.1,3.5c0.9,0,1.5-0.1,2.1-0.5L359.8,787.6z"/>
<path fill="#FFFFFF" d="M363.5,776.4c0,0.6-0.5,0.9-1.2,0.9c-0.6,0-0.9-0.5-0.9-0.9c0-0.5,0.5-0.9,0.9-0.9
	C363.2,775.2,363.5,775.8,363.5,776.4z M361.9,787.9v-8.9h1.6v8.9H361.9z"/>
<path fill="#FFFFFF" d="M371.2,787.9l-0.1-1.2l0,0c-0.6,0.7-1.5,1.4-2.8,1.4c-2,0-2.8-1.4-2.8-2.7c0-2.2,2-3.5,5.3-3.5v-0.1
	c0-0.7-0.1-2.1-2.1-2.1c-0.9,0-1.6,0.1-2.4,0.7l-0.5-1.2c0.7-0.6,2-0.7,3-0.7c2.8,0,3.5,2,3.5,3.7v3.5c0,0.7,0,1.5,0.1,2.2h-1.4l0,0
	h0.1V787.9z M370.8,783.2c-2,0-3.7,0.5-3.7,2.1c0,1.2,0.7,1.5,1.5,1.5c1.2,0,2-0.7,2.2-1.5c0-0.1,0-0.5,0-0.6L370.8,783.2
	L370.8,783.2z"/>
<path fill="#FFFFFF" d="M381.6,787.6c-0.5,0.1-1.4,0.6-2.2,0.6l-0.6,0.7c0.7,0,1.4,0.6,1.4,1.4c0,1.2-0.9,1.5-2,1.5
	c-0.6,0-0.9-0.1-1.4-0.5l0.1-0.7c0.5,0.1,0.7,0.1,0.9,0.1c0.5,0,0.7-0.1,0.7-0.6c0-0.6-0.6-0.7-1.5-0.7l0.7-1.4
	c-2.2-0.5-3.7-2.1-3.7-4.5c0-2.8,2-4.9,4.9-4.9c0.9,0,2,0.1,2.2,0.6l-0.5,1.4c-0.5-0.1-0.9-0.5-2-0.5c-2.1,0-3.1,1.5-3.1,3.5
	c0,2.1,1.4,3.5,3.1,3.5c0.9,0,1.5-0.1,2.1-0.5L381.6,787.6z"/>
<path fill="#FFFFFF" d="M388.6,787.9l-0.1-1.2l0,0c-0.6,0.7-1.5,1.4-2.8,1.4c-2,0-2.8-1.4-2.8-2.7c0-2.2,2-3.5,5.3-3.5v-0.1
	c0-0.7-0.1-2.1-2.1-2.1c-0.9,0-1.6,0.1-2.4,0.7l-0.5-1.2c0.7-0.6,2-0.7,3-0.7c2.8,0,3.5,2,3.5,3.7v3.5c0,0.7,0,1.5,0.1,2.2h-1.4l0,0
	h0.1V787.9z M384.2,777.3c0-1.2,0.6-2,1.4-2c0.5,0,0.7,0.1,1.2,0.5c0.5,0.1,0.6,0.5,0.7,0.5c0.5,0,0.6-0.1,0.6-0.7h0.9
	c0,1.4-0.5,2-1.4,2c-0.5,0-0.7-0.1-1.2-0.5c-0.5-0.1-0.6-0.5-0.7-0.5c-0.5,0-0.5,0.5-0.6,0.7H384.2z M388.3,783.2
	c-2,0-3.7,0.5-3.7,2.1c0,1.2,0.7,1.5,1.5,1.5c1.2,0,2-0.7,2.2-1.5c0-0.1,0-0.5,0-0.6L388.3,783.2L388.3,783.2z"/>
<path fill="#FFFFFF" d="M400.8,783.2c0,3.5-2.2,4.9-4.5,4.9c-2.4,0-4.3-2-4.3-4.6c0-3,2.1-4.9,4.5-4.9
	C398.9,778.7,400.8,780.8,400.8,783.2z M393.6,783.4c0,2.1,1.2,3.6,2.8,3.6c1.5,0,2.8-1.5,2.8-3.6c0-1.5-0.7-3.6-2.7-3.6
	C394.4,780,393.6,781.8,393.6,783.4z"/>
<path fill="#FFFFFF" d="M407,775.5c0.9-0.1,2.2-0.1,3.5-0.1c2.2,0,3.8,0.6,5.1,1.5c1.3,0.9,1.6,2.4,1.6,4.5c0,2.1-0.6,3.7-2,4.9
	c-1.2,1.2-3.1,2-5.7,2c-1.2,0-2.1,0-3-0.1v-12.4h0.5L407,775.5L407,775.5z M408.4,786.7c0.5,0,0.9,0,1.6,0c3.6,0,5.3-2,5.3-5.3
	c0-3-1.6-4.9-5.1-4.9c-0.7,0-1.5,0-2,0.1L408.4,786.7L408.4,786.7z"/>
<path fill="#FFFFFF" d="M427.5,783.2c0,3.5-2.2,4.9-4.5,4.9c-2.4,0-4.3-2-4.3-4.6c0-3,2.1-4.9,4.5-4.9
	C425.7,778.7,427.5,780.8,427.5,783.2z M420.3,783.4c0,2.1,1.2,3.6,2.8,3.6c1.5,0,2.8-1.5,2.8-3.6c0-1.5-0.7-3.6-2.7-3.6
	C421.1,780,420.3,781.8,420.3,783.4z"/>
<path fill="#FFFFFF" d="M429.5,781.5c0-0.9,0-1.6,0-2.4h1.5v1.5l0,0c0.6-0.9,1.4-1.6,2.8-1.6c1.4,0,2.2,0.7,2.7,2l0,0
	c0.5-0.6,0.6-0.9,0.9-1.2c0.6-0.5,1.2-0.6,2.1-0.6c1.2,0,3,0.7,3,3.8v5.2h-1.6v-5.1c0-1.6-0.6-2.8-2-2.8c-0.9,0-1.6,0.7-2,1.5
	c0,0.1-0.1,0.6-0.1,0.7v5.7h-1.6v-5.7c0-1.5-0.6-2.4-2-2.4c-0.9,0-1.6,0.7-2.1,1.6c0,0.1-0.1,0.6-0.1,0.7v5.3h-1.6v-6.4h0.1
	L429.5,781.5L429.5,781.5z"/>
<path fill="#FFFFFF" d="M446.9,776.4c0,0.6-0.5,0.9-1.2,0.9c-0.6,0-0.9-0.5-0.9-0.9c0-0.5,0.5-0.9,0.9-0.9
	C446.5,775.2,446.9,775.8,446.9,776.4z M445.3,787.9v-8.9h1.6v8.9H445.3z"/>
<path fill="#FFFFFF" d="M455.9,787.6c-0.5,0.1-1.4,0.6-2.7,0.6c-2.8,0-4.5-2-4.5-4.6c0-2.8,2-4.9,4.9-4.9c0.9,0,2,0.1,2.2,0.6
	l-0.5,1.4c-0.5-0.1-0.9-0.5-2-0.5c-2.1,0-3.1,1.5-3.1,3.5c0,2.1,1.4,3.5,3.1,3.5c0.9,0,1.5-0.1,2.1-0.5L455.9,787.6z"/>
<path fill="#FFFFFF" d="M459.7,776.4c0,0.6-0.5,0.9-1.2,0.9c-0.6,0-0.9-0.5-0.9-0.9c0-0.5,0.5-0.9,0.9-0.9
	C459.1,775.2,459.7,775.8,459.7,776.4z M458,787.9v-8.9h1.6v8.9H458z"/>
<path fill="#FFFFFF" d="M462.2,774.7h1.6V788h-1.6V774.7z"/>
<path fill="#FFFFFF" d="M468.5,776.4c0,0.6-0.5,0.9-1.2,0.9c-0.6,0-0.9-0.5-0.9-0.9c0-0.5,0.5-0.9,0.9-0.9
	C468,775.2,468.5,775.8,468.5,776.4z M466.8,787.9v-8.9h1.6v8.9H466.8z"/>
<path fill="#FFFFFF" d="M476.1,787.9l-0.1-1.2l0,0c-0.6,0.7-1.5,1.4-2.8,1.4c-2,0-2.8-1.4-2.8-2.7c0-2.2,2-3.5,5.3-3.5v-0.1
	c0-0.7-0.1-2.1-2.1-2.1c-0.9,0-1.6,0.1-2.4,0.7l-0.5-1.2c0.7-0.6,2-0.7,3-0.7c2.8,0,3.5,2,3.5,3.7v3.5c0,0.7,0,1.5,0.1,2.2H476l0,0
	h0.1V787.9z M475.9,783.2c-2,0-3.7,0.5-3.7,2.1c0,1.2,0.7,1.5,1.5,1.5c1.2,0,2-0.7,2.2-1.5c0-0.1,0-0.5,0-0.6L475.9,783.2
	L475.9,783.2z"/>
<path fill="#FFFFFF" d="M487.8,774.7v10.9c0,0.7,0,1.6,0,2.2h-1.5v-1.5l0,0c-0.6,0.9-1.6,2-3,2c-2.2,0-3.8-2-3.8-4.6
	c0-3,2-4.9,4.2-4.9c1.4,0,2.2,0.6,2.8,1.4l0,0v-5.3h1.5l0,0h-0.1V774.7z M486.2,782.5c0-0.1,0-0.6,0-0.7c-0.1-1.2-1.2-2-2.4-2
	c-1.6,0-2.7,1.5-2.7,3.6c0,2,0.9,3.5,2.7,3.5c1.2,0,2.1-0.7,2.4-2c0-0.1,0-0.5,0-0.7V782.5z"/>
<path fill="#FFFFFF" d="M495.7,787.9l-0.1-1.2l0,0c-0.6,0.7-1.5,1.4-2.8,1.4c-2,0-2.8-1.4-2.8-2.7c0-2.2,2-3.5,5.3-3.5v-0.1
	c0-0.7-0.1-2.1-2.1-2.1c-0.9,0-1.6,0.1-2.4,0.7l-0.5-1.2c0.7-0.6,2-0.7,3-0.7c2.8,0,3.5,2,3.5,3.7v3.5c0,0.7,0,1.5,0.1,2.2
	L495.7,787.9L495.7,787.9z M495.3,783.2c-2,0-3.7,0.5-3.7,2.1c0,1.2,0.7,1.5,1.5,1.5c1.2,0,2-0.7,2.2-1.5c0-0.1,0-0.5,0-0.6
	L495.3,783.2L495.3,783.2z"/>
<path fill="#FFFFFF" d="M503.5,781.5c0-0.9,0-1.6,0-2.4h1.5l0.1,1.5l0,0c0.5-0.9,1.5-1.6,3-1.6c1.4,0,3.1,0.7,3.1,3.8v5.3h-1.6v-5.2
	c0-1.5-0.6-2.7-2.1-2.7c-1.2,0-2,0.7-2.2,1.6c0,0.1-0.1,0.6-0.1,0.7v5.3h-1.6v-6.4H503.5z"/>
<path fill="#FFFFFF" d="M522,783.2c0,3.5-2.2,4.9-4.5,4.9c-2.4,0-4.3-2-4.3-4.6c0-3,2.1-4.9,4.5-4.9
	C520.4,778.7,522,780.8,522,783.2z M515,783.4c0,2.1,1.2,3.6,2.8,3.6c1.5,0,2.8-1.5,2.8-3.6c0-1.5-0.7-3.6-2.7-3.6
	C516,780,515,781.8,515,783.4z"/>
<path fill="#FFFFFF" d="M534.7,781.9h-4.9v4.5h5.3v1.4h-7.2v-12.5h6.7v1.4h-5.2v3.8h4.9v1.5h0.3V781.9z"/>
<path fill="#FFFFFF" d="M538.1,778.9l1.4,2c0.5,0.6,0.6,0.9,0.9,1.5l0,0c0.5-0.6,0.6-0.9,0.9-1.5l1.4-2h2l-3,4.3l3.1,4.6h-2.1
	l-1.4-2.1c-0.5-0.6-0.7-0.9-0.9-1.5l0,0c-0.5,0.6-0.6,0.9-0.9,1.5l-1.4,2.1h-2l3.1-4.6l-3-4.5h1.5v0.1h0.3V778.9z"/>
<path fill="#FFFFFF" d="M548.1,776.4v2.7h2.4v1.4h-2.4v4.9c0,1.2,0.5,1.6,1.4,1.6c0.5,0,0.7,0,0.9-0.1v1.4c-0.5,0.1-0.7,0.1-1.5,0.1
	c-0.7,0-1.4-0.1-1.6-0.7c-0.6-0.6-0.6-1.4-0.6-2.4v-4.9h-1.6v-1.5h1.5v-2.2L548.1,776.4z"/>
<path fill="#FFFFFF" d="M553.3,783.7c0,2.2,1.5,3.1,3.1,3.1c1.2,0,2-0.1,2.4-0.5l0.1,1.2c-0.6,0.1-1.5,0.6-3,0.6
	c-2.8,0-4.5-2-4.5-4.5c0-2.7,1.6-4.9,4.3-4.9c3,0,3.7,2.7,3.7,4.3c0,0.5,0,0.6,0,0.7H553v0H553.3z M558.1,782.5
	c0-1.2-0.5-2.7-2.2-2.7c-1.6,0-2.4,1.5-2.4,2.7H558.1z"/>
<path fill="#FFFFFF" d="M561.7,781.8c0-1.2,0-2.1,0-2.8h1.5v1.6l0,0c0.5-1.2,1.4-2.1,2.4-2.1c0.1,0,0.5,0,0.6,0v1.5
	c-0.1,0-0.5,0-0.6,0c-1.2,0-2.1,0.9-2.2,2.1c0,0.1,0,0.6,0,0.7v4.9h-1.6v-5.9H561.7z"/>
<path fill="#FFFFFF" d="M569.6,776.4c0,0.6-0.5,0.9-1.2,0.9c-0.6,0-0.9-0.5-0.9-0.9c0-0.5,0.5-0.9,0.9-0.9
	C569.4,775.2,569.6,775.8,569.6,776.4z M567.9,787.9v-8.9h1.6v8.9H567.9z"/>
<path fill="#FFFFFF" d="M580.4,783.2c0,3.5-2.2,4.9-4.5,4.9c-2.4,0-4.3-2-4.3-4.6c0-3,2.1-4.9,4.5-4.9
	C578.6,778.7,580.4,780.8,580.4,783.2z M573.2,783.4c0,2.1,1.2,3.6,2.8,3.6c1.5,0,2.8-1.5,2.8-3.6c0-1.5-0.7-3.6-2.7-3.6
	C574.2,780,573.2,781.8,573.2,783.4z"/>
<path fill="#FFFFFF" d="M582.6,781.8c0-1.2,0-2.1,0-2.8h1.5v1.6l0,0c0.5-1.2,1.4-2.1,2.4-2.1c0.1,0,0.5,0,0.6,0v1.5
	c-0.1,0-0.5,0-0.6,0c-1.2,0-2.1,0.9-2.2,2.1c0,0.1,0,0.6,0,0.7v4.9h-1.6v-5.9H582.6z"/>
<path fill="#FFFFFF" d="M212.6,806.1c0,2.2,1.5,3.1,3.1,3.1c1.2,0,2-0.1,2.4-0.5l0.1,1.2c-0.6,0.1-1.5,0.6-3,0.6
	c-2.8,0-4.5-2-4.5-4.5c0-2.7,1.6-4.9,4.3-4.9c3,0,3.7,2.7,3.7,4.3c0,0.5,0,0.6,0,0.7h-6.4V806h0.2V806.1z M217.3,804.9
	c0-1.2-0.5-2.7-2.2-2.7c-1.6,0-2.4,1.5-2.4,2.7H217.3z"/>
<path fill="#FFFFFF" d="M233.8,809.9c-0.6,0.5-2,0.6-3.5,0.6c-3.6,0-6.2-2.2-6.2-6.4c0-3.8,2.7-6.6,6.6-6.6c1.5,0,2.7,0.5,3,0.6
	l-0.5,1.4c-0.6-0.5-1.5-0.6-2.7-0.6c-3,0-4.9,2-4.9,5.2c0,3,1.6,5.1,4.9,5.1c0.9,0,2.1-0.1,2.7-0.6L233.8,809.9z"/>
<path fill="#FFFFFF" d="M243.7,805.6c0,3.5-2.2,4.9-4.5,4.9c-2.4,0-4.3-2-4.3-4.6c0-3,2.1-4.9,4.5-4.9
	C242.1,801,243.7,803.1,243.7,805.6z M236.5,806c0,2.1,1.2,3.6,2.8,3.6c1.5,0,2.8-1.5,2.8-3.6c0-1.5-0.7-3.6-2.7-3.6
	C237.6,802.4,236.5,804.1,236.5,806z"/>
<path fill="#FFFFFF" d="M245.9,803.9c0-0.9,0-1.6,0-2.4h1.5v1.5l0,0c0.6-0.9,1.4-1.6,2.8-1.6c1.4,0,2.2,0.7,2.7,2l0,0
	c0.5-0.6,0.6-0.9,0.9-1.2c0.6-0.5,1.2-0.6,2.1-0.6c1.2,0,3,0.7,3,3.8v5.2h-1.6v-5.1c0-1.6-0.6-2.8-2-2.8c-0.9,0-1.6,0.7-2,1.5
	c0,0.1-0.1,0.6-0.1,0.7v5.7h-1.6v-5.7c0-1.5-0.6-2.4-2-2.4c-0.9,0-1.6,0.7-2.1,1.6c0,0.1-0.1,0.6-0.1,0.7v5.3h-1.6v-6.6h0.1
	L245.9,803.9L245.9,803.9z"/>
<path fill="#FFFFFF" d="M268.9,807.8c0,0.9,0,1.6,0,2.4h-1.5v-1.5l0,0c-0.5,0.7-1.4,1.6-3,1.6c-1.5,0-3.1-0.7-3.1-3.8v-5.2h1.6v5.1
	c0,1.6,0.6,2.8,2.1,2.8c1.2,0,2-0.7,2.2-1.5c0-0.1,0.1-0.6,0.1-0.9v-5.7h1.6L268.9,807.8L268.9,807.8L268.9,807.8z"/>
<path fill="#FFFFFF" d="M271.8,803.9c0-0.9,0-1.6,0-2.4h1.5l0.1,1.5l0,0c0.5-0.9,1.5-1.6,3-1.6c1.4,0,3.1,0.7,3.1,3.8v5.3h-1.7v-5.2
	c0-1.5-0.6-2.7-2.1-2.7c-1.2,0-2,0.7-2.2,1.6c0,0.1-0.1,0.6-0.1,0.7v5.3h-1.6L271.8,803.9L271.8,803.9z"/>
<path fill="#FFFFFF" d="M283.9,798.8c0,0.6-0.5,0.9-1.2,0.9c-0.6,0-0.9-0.5-0.9-0.9c0-0.5,0.5-0.9,0.9-0.9
	C283.6,797.7,283.9,798.2,283.9,798.8z M282.3,810.4v-8.9h1.6v8.9H282.3z"/>
<path fill="#FFFFFF" d="M294.4,797.2v10.9c0,0.7,0,1.6,0,2.2h-1.5v-1.5l0,0c-0.6,0.9-1.6,2-3,2c-2.2,0-3.8-2-3.8-4.6
	c0-3,2-4.9,4.2-4.9c1.4,0,2.2,0.6,2.8,1.4l0,0v-5.3h1.5l0,0h-0.1V797.2z M292.7,804.9c0-0.1,0-0.6,0-0.7c-0.1-1.2-1.2-2-2.4-2
	c-1.6,0-2.7,1.5-2.7,3.6c0,2,0.9,3.5,2.7,3.5c1.2,0,2.1-0.7,2.4-2c0-0.1,0-0.5,0-0.7V804.9z"/>
<path fill="#FFFFFF" d="M302.2,810.4l-0.1-1.2l0,0c-0.6,0.7-1.5,1.4-2.8,1.4c-2,0-2.8-1.4-2.8-2.7c0-2.2,2-3.5,5.3-3.5v-0.1
	c0-0.7-0.1-2.1-2.1-2.1c-0.9,0-1.6,0.1-2.4,0.7l-0.5-1.2c0.7-0.6,2-0.7,3-0.7c2.8,0,3.5,2,3.5,3.7v3.5c0,0.7,0,1.5,0.1,2.2H302l0,0
	h0.1V810.4z M301.8,805.6c-2,0-3.7,0.5-3.7,2.1c0,1.2,0.7,1.5,1.5,1.5c1.2,0,2-0.7,2.2-1.5c0-0.1,0-0.5,0-0.6L301.8,805.6
	L301.8,805.6z"/>
<path fill="#FFFFFF" d="M313.8,797.2v10.9c0,0.7,0,1.6,0,2.2h-1.5v-1.5l0,0c-0.6,0.9-1.6,2-3,2c-2.2,0-3.8-2-3.8-4.6
	c0-3,2-4.9,4.2-4.9c1.4,0,2.2,0.6,2.8,1.4l0,0v-5.3h1.5l0,0h-0.1V797.2z M312.1,804.9c0-0.1,0-0.6,0-0.7c-0.1-1.2-1.2-2-2.4-2
	c-1.6,0-2.7,1.5-2.7,3.6c0,2,0.9,3.5,2.7,3.5c1.2,0,2.1-0.7,2.4-2c0-0.1,0-0.5,0-0.7V804.9z"/>
<path fill="#FFFFFF" d="M317.5,806.1c0,2.2,1.5,3.1,3.1,3.1c1.2,0,2-0.1,2.4-0.5l0.1,1.2c-0.6,0.1-1.5,0.6-3,0.6
	c-2.8,0-4.5-2-4.5-4.5c0-2.7,1.6-4.9,4.3-4.9c3,0,3.7,2.7,3.7,4.3c0,0.5,0,0.6,0,0.7h-6.3V806h0.1V806.1z M322.4,804.9
	c0-1.2-0.5-2.7-2.2-2.7c-1.6,0-2.4,1.5-2.4,2.7H322.4z"/>
<path fill="#FFFFFF" d="M331.6,797.9v12.5h-1.6v-12.5H331.6z"/>
<path fill="#FFFFFF" d="M334.5,803.9c0-0.9,0-1.6,0-2.4h1.5l0.1,1.5l0,0c0.5-0.9,1.5-1.6,3-1.6c1.4,0,3.1,0.7,3.1,3.8v5.3h-1.6v-5.2
	c0-1.5-0.6-2.7-2.1-2.7c-1.2,0-2,0.7-2.2,1.6c0,0.1-0.1,0.6-0.1,0.7v5.3h-1.6v-6.4H334.5z"/>
<path fill="#FFFFFF" d="M352.7,797.2v10.9c0,0.7,0,1.6,0,2.2h-1.5v-1.5l0,0c-0.6,0.9-1.6,2-3,2c-2.2,0-3.8-2-3.8-4.6
	c0-3,2-4.9,4.2-4.9c1.4,0,2.2,0.6,2.8,1.4l0,0v-5.3h1.5l0,0h-0.1V797.2z M351.2,804.9c0-0.1,0-0.6,0-0.7c-0.1-1.2-1.2-2-2.4-2
	c-1.6,0-2.7,1.5-2.7,3.6c0,2,0.9,3.5,2.7,3.5c1.2,0,2.1-0.7,2.4-2c0-0.1,0-0.5,0-0.7V804.9z"/>
<path fill="#FFFFFF" d="M358.9,797.4l-2.2,2.7h-1.2l1.6-2.7H358.9z M355.6,810.4v-8.9h1.6v8.9H355.6z"/>
<path fill="#FFFFFF" d="M367.7,801.5c0,0.6,0,1.4,0,2.4v5.2c0,2.1-0.5,3.5-1.4,4.2s-2.1,1.2-3.5,1.2c-1.2,0-2.2-0.1-3-0.7l0.5-1.4
	c0.6,0.5,1.5,0.7,2.7,0.7c1.6,0,3-0.9,3-3.1V809l0,0c-0.6,0.7-1.5,1.5-2.8,1.5c-2.2,0-3.8-2-3.8-4.5c0-3,2.1-4.9,4.2-4.9
	c1.5,0,2.4,0.7,2.8,1.5l0,0v-1.5h1.5v0.3L367.7,801.5L367.7,801.5z M365.9,804.9c0-0.1,0-0.6-0.1-0.7c-0.5-0.9-1.2-1.6-2.2-1.6
	c-1.5,0-2.7,1.4-2.7,3.5c0,1.6,0.9,3.1,2.7,3.1c0.9,0,2-0.6,2.2-1.6c0-0.5,0.1-0.6,0.1-0.9V804.9z"/>
<path fill="#FFFFFF" d="M371.2,806.1c0,2.2,1.5,3.1,3.1,3.1c1.2,0,2-0.1,2.4-0.5l0.1,1.2c-0.6,0.1-1.5,0.6-3,0.6
	c-2.8,0-4.5-2-4.5-4.5c0-2.7,1.6-4.9,4.3-4.9c3,0,3.7,2.7,3.7,4.3c0,0.5,0,0.6,0,0.7h-6.4V806h0.2V806.1z M376.1,804.9
	c0-1.2-0.5-2.7-2.2-2.7c-1.6,0-2.4,1.5-2.4,2.7H376.1z"/>
<path fill="#FFFFFF" d="M379.5,803.9c0-0.9,0-1.6,0-2.4h1.5l0.1,1.5l0,0c0.5-0.9,1.5-1.6,3-1.6c1.4,0,3.1,0.7,3.1,3.8v5.3h-1.6v-5.2
	c0-1.5-0.6-2.7-2.1-2.7c-1.2,0-2,0.7-2.2,1.6c0,0.1-0.1,0.6-0.1,0.7v5.3h-1.6v-6.4H379.5z"/>
<path fill="#FFFFFF" d="M395.1,810.4l-0.1-1.2l0,0c-0.6,0.7-1.5,1.4-2.8,1.4c-2,0-2.8-1.4-2.8-2.7c0-2.2,2-3.5,5.3-3.5v-0.1
	c0-0.7-0.1-2.1-2.1-2.1c-0.9,0-1.6,0.1-2.4,0.7l-0.5-1.2c0.7-0.6,2-0.7,3-0.7c2.8,0,3.5,2,3.5,3.7v3.5c0,0.7,0,1.5,0.1,2.2H395l0,0
	h0.1V810.4z M394.8,805.6c-2,0-3.7,0.5-3.7,2.1c0,1.2,0.7,1.5,1.5,1.5c1.2,0,2-0.7,2.2-1.5c0-0.1,0-0.5,0-0.6L394.8,805.6
	L394.8,805.6z"/>
<path fill="#FFFFFF" d="M211.6,769v-0.9h281.9v0.9H211.6z"/>
<path fill="#FFFFFF" d="M210.8,790.3v-1h376.4v0.9H210.8V790.3z"/>
<path fill="#FFFFFF" d="M223.6,812.7v-0.9h174.1v0.9H223.6z"/>
<g opacity="0.6">
	<defs>
		<path id="SVGID_1_" opacity="0.6" d="M268.3,602.8c-7.4,0-13.5-6.1-13.5-13.5s6.1-13.5,13.5-13.5c7.4,0,13.5,6.1,13.5,13.5
			S275.7,602.8,268.3,602.8L268.3,602.8z"/>
	</defs>
	<clipPath id="SVGID_2_">
		<use xlink:href="#SVGID_1_"  overflow="visible"/>
	</clipPath>
	
		<rect x="268.3" y="571" opacity="0.8" clip-path="url(#SVGID_2_)" fill="#FFFFFF" enable-background="new    " width="24" height="33.8"/>
</g>
<g opacity="0.6">
	<defs>
		<path id="SVGID_3_" opacity="0.6" d="M398.9,602.4c-7.4,0-13.5-6.1-13.5-13.7c0-7.6,6.1-13.7,13.5-13.7s13.5,6.1,13.5,13.7
			S406.3,602.4,398.9,602.4L398.9,602.4z M542.1,602.4c-7.4,0-13.5-6.1-13.5-13.5s6.1-13.5,13.5-13.5c7.4,0,13.5,6.1,13.5,13.5
			C555.8,596.3,549.7,602.4,542.1,602.4L542.1,602.4z M506.5,602.4c-7.4,0-13.5-6.1-13.5-13.5s6.1-13.5,13.5-13.5
			c7.4,0,13.5,6.1,13.5,13.5C520,596.3,513.8,602.4,506.5,602.4L506.5,602.4z M470.6,602.4c-7.4,0-13.5-6.1-13.5-13.5
			s6.1-13.5,13.5-13.5c7.4,0,13.5,6.1,13.5,13.5C484.1,596.3,478,602.4,470.6,602.4L470.6,602.4z M434.7,602.4
			c-7.4,0-13.5-6.1-13.5-13.5s6.1-13.5,13.5-13.5s13.5,6.1,13.5,13.5C448.2,596.3,442.1,602.4,434.7,602.4L434.7,602.4z"/>
	</defs>
	<clipPath id="SVGID_4_">
		<use xlink:href="#SVGID_3_"  overflow="visible"/>
	</clipPath>
	
		<rect x="397.6" y="570.8" opacity="0.8" clip-path="url(#SVGID_4_)" fill="#FFFFFF" enable-background="new    " width="167.5" height="33.8"/>
</g>
<g opacity="0.6">
	<defs>
		<path id="SVGID_5_" opacity="0.6" d="M542.9,703.5c-7.4,0-13.5-6.1-13.5-13.5s6.1-13.5,13.5-13.5s13.5,6.1,13.5,13.5
			S550.3,703.5,542.9,703.5L542.9,703.5z M507,703.5c-7.4,0-13.5-6.1-13.5-13.5s6.1-13.5,13.5-13.5c7.4,0,13.5,6.1,13.5,13.5
			S514.4,703.5,507,703.5L507,703.5z M471.1,703.5c-7.4,0-13.5-6.1-13.5-13.5s6.1-13.5,13.5-13.5s13.5,6.1,13.5,13.5
			S478.5,703.5,471.1,703.5L471.1,703.5z M435.3,703.5c-7.4,0-13.5-6.1-13.5-13.5s6.1-13.5,13.5-13.5s13.5,6.1,13.5,13.5
			S442.7,703.5,435.3,703.5L435.3,703.5z M399.4,703.5c-7.4,0-13.5-6.1-13.5-13.7c0-7.6,6.1-13.7,13.5-13.7
			c7.4,0,13.5,6.1,13.5,13.7C412.9,697.6,406.8,703.5,399.4,703.5L399.4,703.5z"/>
	</defs>
	<clipPath id="SVGID_6_">
		<use xlink:href="#SVGID_5_"  overflow="visible"/>
	</clipPath>
	
		<rect x="385.9" y="673" opacity="0.8" clip-path="url(#SVGID_6_)" fill="#FFFFFF" enable-background="new    " width="178" height="33.8"/>
</g>
<path opacity="0.7" fill="#587BB7" enable-background="new    " d="M385.9,688.7C386.1,687.6,385.9,688.7,385.9,688.7l13.5,1.7
	h-13.5C385.9,690.2,385.7,689.7,385.9,688.7z"/>
</svg>
