<?xml version="1.0" encoding="utf-8"?>
<!-- Generator: Adobe Illustrator 18.1.1, SVG Export Plug-In . SVG Version: 6.00 Build 0)  -->
<svg version="1.1" id="Camada_1" xmlns="http://www.w3.org/2000/svg" xmlns:xlink="http://www.w3.org/1999/xlink" x="0px" y="0px"
	 viewBox="22 180.9 640 480" enable-background="new 22 180.9 640 480" xml:space="preserve">
<g>
	<g>
		<g>
			<polygon fill="#D3EAF7" points="158.1,570 121.2,620.3 142.6,616.2 154.2,631.4 176.5,575.5 			"/>
			<polygon fill="#D3EAF7" points="183.3,570 220.2,620.3 198.8,616.2 187.2,631.4 164.9,575.5 			"/>
			<g>
				<g>
					<path stroke="#DD9A28" stroke-width="2" d="M212,558c-0.9,22.3-19.8,39.6-42.1,38.7c-22.3-0.9-39.6-19.8-38.7-42.1
						c0.9-22.3,19.8-39.6,42.1-38.7C195.6,517,212.9,535.7,212,558z"/>
				</g>
			</g>
		</g>
	</g>
	<g>
		<path fill="#FFFFFF" d="M135.6,436.1v13.3c0,1.3-0.3,2.5-0.9,3.4c-0.6,1-1.4,1.7-2.4,2.2c-1,0.5-2.2,0.8-3.6,0.8
			c-2.1,0-3.7-0.6-4.9-1.7c-1.2-1.1-1.9-2.7-1.9-4.6v-13.4h1.6v13.2c0,1.6,0.5,2.9,1.4,3.8s2.2,1.4,3.8,1.4c1.6,0,2.9-0.5,3.8-1.4
			c0.9-0.9,1.4-2.2,1.4-3.8v-13.2L135.6,436.1L135.6,436.1z"/>
		<path fill="#FFFFFF" d="M142.3,437.4v3.7h3v1.3h-3v9.7c0,0.8,0.1,1.4,0.4,1.8c0.3,0.4,0.8,0.6,1.5,0.6c0.3,0,0.7,0,1.3-0.1
			l0.1,1.3c-0.4,0.1-1,0.2-1.7,0.2c-1.1,0-1.9-0.3-2.4-1c-0.5-0.6-0.8-1.6-0.8-2.8v-9.7H138v-1.3h2.7v-3.7L142.3,437.4L142.3,437.4z
			"/>
		<path fill="#FFFFFF" d="M148.5,436.9c0-0.3,0.1-0.6,0.3-0.8c0.2-0.2,0.5-0.3,0.8-0.3c0.3,0,0.6,0.1,0.8,0.3
			c0.2,0.2,0.3,0.5,0.3,0.8s-0.1,0.6-0.3,0.8c-0.2,0.2-0.5,0.3-0.8,0.3s-0.6-0.1-0.8-0.3C148.6,437.5,148.5,437.2,148.5,436.9z
			 M150.4,455.6h-1.6v-14.5h1.6V455.6z"/>
		<path fill="#FFFFFF" d="M156.6,455.6H155V435h1.6V455.6z"/>
		<path fill="#FFFFFF" d="M160.8,436.9c0-0.3,0.1-0.6,0.3-0.8c0.2-0.2,0.5-0.3,0.8-0.3c0.3,0,0.6,0.1,0.8,0.3
			c0.2,0.2,0.3,0.5,0.3,0.8s-0.1,0.6-0.3,0.8c-0.2,0.2-0.5,0.3-0.8,0.3s-0.6-0.1-0.8-0.3C160.9,437.5,160.8,437.2,160.8,436.9z
			 M162.7,455.6h-1.6v-14.5h1.6V455.6z"/>
		<path fill="#FFFFFF" d="M166.4,448.2c0-2.2,0.5-4,1.5-5.4c1-1.3,2.4-2,4.1-2c2,0,3.4,0.8,4.5,2.3V435h1.6v20.6h-1.5l-0.1-1.9
			c-1,1.5-2.5,2.2-4.5,2.2c-1.7,0-3-0.7-4-2s-1.5-3.2-1.5-5.4L166.4,448.2L166.4,448.2z M168,448.5c0,1.8,0.4,3.3,1.1,4.4
			c0.7,1.1,1.8,1.6,3.1,1.6c2,0,3.4-0.9,4.2-2.6V445c-0.8-1.9-2.2-2.8-4.2-2.8c-1.3,0-2.4,0.5-3.1,1.6
			C168.4,444.9,168,446.4,168,448.5z"/>
		<path fill="#FFFFFF" d="M191.4,455.6c-0.2-0.5-0.3-1.1-0.3-2c-0.6,0.7-1.3,1.3-2.1,1.7c-0.9,0.4-1.8,0.6-2.8,0.6
			c-1.4,0-2.5-0.4-3.4-1.2s-1.3-1.8-1.3-2.9c0-1.4,0.6-2.5,1.8-3.3c1.2-0.8,2.8-1.2,4.9-1.2h2.9v-1.6c0-1-0.3-1.8-1-2.4
			s-1.6-0.9-2.8-0.9c-1.1,0-2,0.3-2.8,0.9c-0.7,0.6-1.1,1.3-1.1,2.1l-1.6,0c0-1.1,0.5-2.1,1.6-3c1.1-0.8,2.4-1.3,3.9-1.3
			c1.6,0,2.9,0.4,3.8,1.2s1.4,1.9,1.4,3.4v6.9c0,1.4,0.1,2.4,0.4,3.1v0.2L191.4,455.6L191.4,455.6z M186.4,454.4
			c1.1,0,2-0.3,2.9-0.8c0.8-0.5,1.5-1.2,1.8-2.1v-3.2h-2.9c-1.6,0-2.8,0.3-3.7,0.9s-1.4,1.3-1.4,2.3c0,0.8,0.3,1.5,0.9,2
			C184.7,454.2,185.4,454.4,186.4,454.4z"/>
		<path fill="#FFFFFF" d="M196.3,448.2c0-2.2,0.5-4,1.5-5.4c1-1.3,2.4-2,4.1-2c2,0,3.4,0.8,4.5,2.3V435h1.6v20.6h-1.5l-0.1-1.9
			c-1,1.5-2.5,2.2-4.5,2.2c-1.7,0-3-0.7-4-2s-1.5-3.2-1.5-5.4L196.3,448.2L196.3,448.2z M197.9,448.5c0,1.8,0.4,3.3,1.1,4.4
			c0.7,1.1,1.8,1.6,3.1,1.6c2,0,3.4-0.9,4.2-2.6V445c-0.8-1.9-2.2-2.8-4.2-2.8c-1.3,0-2.4,0.5-3.1,1.6
			C198.3,444.9,197.9,446.4,197.9,448.5z"/>
		<path fill="#FFFFFF" d="M217.8,455.8c-1.2,0-2.3-0.3-3.3-0.9c-1-0.6-1.8-1.5-2.3-2.5s-0.8-2.3-0.8-3.6v-0.6c0-1.4,0.3-2.6,0.8-3.8
			s1.3-2,2.3-2.6c1-0.6,2-1,3.1-1c1.8,0,3.2,0.6,4.2,1.8s1.5,2.8,1.5,4.9v0.9h-10.3v0.3c0,1.6,0.5,3,1.4,4.1
			c0.9,1.1,2.1,1.6,3.6,1.6c0.9,0,1.6-0.2,2.3-0.5c0.7-0.3,1.3-0.8,1.8-1.5l1,0.8C221.8,455,220,455.8,217.8,455.8z M217.5,442.2
			c-1.2,0-2.2,0.4-3,1.3s-1.3,2.1-1.5,3.6h8.7v-0.2c0-1.4-0.4-2.5-1.2-3.4C219.7,442.6,218.7,442.2,217.5,442.2z"/>
		<path fill="#FFFFFF" d="M84.6,480.5v7.9h-1.6V469h6.6c2,0,3.6,0.5,4.8,1.6s1.8,2.5,1.8,4.3c0,1.8-0.6,3.2-1.7,4.2
			s-2.8,1.5-4.9,1.5L84.6,480.5L84.6,480.5z M84.6,479.1h5c1.6,0,2.8-0.4,3.7-1.1s1.3-1.8,1.3-3.2c0-1.3-0.4-2.4-1.3-3.2
			c-0.8-0.8-2-1.2-3.6-1.2h-5.1C84.6,470.4,84.6,479.1,84.6,479.1z"/>
		<path fill="#FFFFFF" d="M108.7,486.6c-1,1.4-2.5,2.1-4.6,2.1c-1.5,0-2.7-0.4-3.5-1.3c-0.8-0.9-1.2-2.2-1.2-4V474h1.6v9.2
			c0,2.8,1.1,4.1,3.3,4.1c2.3,0,3.8-1,4.4-2.9V474h1.6v14.5h-1.6L108.7,486.6z M106.6,468.1h1.9l-3.1,3.7l-1.4,0L106.6,468.1z"/>
		<path fill="#FFFFFF" d="M126.1,481.4c0,2.3-0.5,4-1.5,5.4c-1,1.3-2.3,2-4,2c-2,0-3.5-0.7-4.6-2.2l-0.1,2h-1.5v-20.6h1.6v8.2
			c1-1.6,2.5-2.4,4.5-2.4c1.7,0,3.1,0.7,4.1,2c1,1.3,1.5,3.1,1.5,5.5C126.1,481.1,126.1,481.4,126.1,481.4z M124.5,481.1
			c0-1.9-0.4-3.4-1.1-4.4c-0.7-1-1.8-1.6-3.1-1.6c-1,0-1.9,0.3-2.6,0.8c-0.7,0.5-1.3,1.2-1.6,2.2v6.5c0.8,1.8,2.2,2.7,4.3,2.7
			c1.3,0,2.4-0.5,3.1-1.6C124.2,484.7,124.5,483.2,124.5,481.1z"/>
		<path fill="#FFFFFF" d="M131.5,488.5h-1.6v-20.6h1.6V488.5z"/>
		<path fill="#FFFFFF" d="M135.7,469.8c0-0.3,0.1-0.6,0.3-0.8c0.2-0.2,0.5-0.3,0.8-0.3c0.3,0,0.6,0.1,0.8,0.3s0.3,0.5,0.3,0.8
			s-0.1,0.6-0.3,0.8c-0.2,0.2-0.5,0.3-0.8,0.3s-0.6-0.1-0.8-0.3C135.8,470.4,135.7,470.1,135.7,469.8z M137.6,488.5H136V474h1.6
			V488.5z"/>
		<path fill="#FFFFFF" d="M147.3,487.4c1.1,0,2.1-0.3,2.8-0.9s1.2-1.4,1.2-2.4h1.5c0,0.9-0.3,1.7-0.8,2.4c-0.5,0.7-1.2,1.3-2,1.7
			s-1.7,0.6-2.7,0.6c-1.9,0-3.4-0.7-4.5-2c-1.1-1.3-1.7-3.1-1.7-5.3v-0.5c0-1.4,0.3-2.7,0.8-3.8c0.5-1.1,1.2-1.9,2.1-2.5
			c0.9-0.6,2-0.9,3.3-0.9c1.6,0,2.9,0.5,3.9,1.4c1,0.9,1.6,2.2,1.7,3.7h-1.5c-0.1-1.1-0.5-2-1.2-2.7c-0.7-0.7-1.7-1-2.8-1
			c-1.4,0-2.6,0.5-3.4,1.6s-1.2,2.5-1.2,4.4v0.5c0,1.8,0.4,3.3,1.2,4.3C144.7,486.9,145.9,487.4,147.3,487.4z"/>
		<path fill="#FFFFFF" d="M165.2,488.5c-0.2-0.5-0.3-1.1-0.3-2c-0.6,0.7-1.3,1.3-2.1,1.7c-0.9,0.4-1.8,0.6-2.8,0.6
			c-1.4,0-2.5-0.4-3.4-1.2s-1.3-1.8-1.3-2.9c0-1.4,0.6-2.5,1.8-3.3c1.2-0.8,2.8-1.2,4.9-1.2h2.9v-1.6c0-1-0.3-1.8-1-2.4
			s-1.6-0.9-2.8-0.9c-1.1,0-2,0.3-2.8,0.9c-0.7,0.6-1.1,1.3-1.1,2.1l-1.6,0c0-1.1,0.5-2.1,1.6-3c1.1-0.8,2.4-1.3,3.9-1.3
			c1.6,0,2.9,0.4,3.8,1.2s1.4,1.9,1.4,3.4v6.9c0,1.4,0.1,2.4,0.4,3.1v0.2L165.2,488.5L165.2,488.5z M160.2,487.3
			c1.1,0,2-0.3,2.9-0.8c0.8-0.5,1.5-1.2,1.8-2.1v-3.2H162c-1.6,0-2.8,0.3-3.7,0.9s-1.4,1.3-1.4,2.3c0,0.8,0.3,1.5,0.9,2
			C158.4,487,159.2,487.3,160.2,487.3z"/>
		<path fill="#FFFFFF" d="M188.5,479.3h-9.1v9.1h-1.6V469h12.1v1.4h-10.4v7.6h9.1V479.3z"/>
		<path fill="#FFFFFF" d="M198.2,488.7c-1.2,0-2.3-0.3-3.3-0.9c-1-0.6-1.8-1.5-2.3-2.5s-0.8-2.3-0.8-3.6v-0.6c0-1.4,0.3-2.6,0.8-3.8
			s1.3-2,2.3-2.6c1-0.6,2-1,3.1-1c1.8,0,3.2,0.6,4.2,1.8s1.5,2.8,1.5,4.9v0.9h-10.3v0.3c0,1.6,0.5,3,1.4,4.1
			c0.9,1.1,2.1,1.6,3.6,1.6c0.9,0,1.6-0.2,2.3-0.5c0.7-0.3,1.3-0.8,1.8-1.5l1,0.8C202.1,487.9,200.4,488.7,198.2,488.7z
			 M197.9,475.1c-1.2,0-2.2,0.4-3,1.3s-1.3,2.1-1.5,3.6h8.7v-0.2c0-1.4-0.4-2.5-1.2-3.4C200.1,475.5,199.1,475.1,197.9,475.1z"/>
		<path fill="#FFFFFF" d="M206.1,481.1c0-2.2,0.5-4,1.5-5.4c1-1.3,2.4-2,4.1-2c2,0,3.4,0.8,4.5,2.3v-8.1h1.6v20.6h-1.5l-0.1-1.9
			c-1,1.5-2.5,2.2-4.5,2.2c-1.7,0-3-0.7-4-2s-1.5-3.2-1.5-5.4L206.1,481.1L206.1,481.1z M207.7,481.4c0,1.8,0.4,3.3,1.1,4.4
			c0.7,1.1,1.8,1.6,3.1,1.6c2,0,3.4-0.9,4.2-2.6v-6.8c-0.8-1.9-2.2-2.8-4.2-2.8c-1.3,0-2.4,0.5-3.1,1.6
			C208.1,477.7,207.7,479.3,207.7,481.4z"/>
		<path fill="#FFFFFF" d="M227.6,488.7c-1.2,0-2.3-0.3-3.3-0.9c-1-0.6-1.8-1.5-2.3-2.5s-0.8-2.3-0.8-3.6v-0.6c0-1.4,0.3-2.6,0.8-3.8
			s1.3-2,2.3-2.6c1-0.6,2-1,3.1-1c1.8,0,3.2,0.6,4.2,1.8s1.5,2.8,1.5,4.9v0.9h-10.3v0.3c0,1.6,0.5,3,1.4,4.1
			c0.9,1.1,2.1,1.6,3.6,1.6c0.9,0,1.6-0.2,2.3-0.5c0.7-0.3,1.3-0.8,1.8-1.5l1,0.8C231.5,487.9,229.8,488.7,227.6,488.7z
			 M227.3,475.1c-1.2,0-2.2,0.4-3,1.3s-1.3,2.1-1.5,3.6h8.7v-0.2c0-1.4-0.4-2.5-1.2-3.4C229.5,475.5,228.5,475.1,227.3,475.1z"/>
		<path fill="#FFFFFF" d="M242.8,475.3c-0.3-0.1-0.7-0.1-1.1-0.1c-1,0-1.8,0.3-2.5,0.8c-0.7,0.6-1.2,1.4-1.5,2.4v9.9h-1.6V474h1.6
			l0,2.3c0.8-1.7,2.2-2.6,4.1-2.6c0.4,0,0.8,0.1,1.1,0.2L242.8,475.3z"/>
		<path fill="#FFFFFF" d="M253.9,488.5c-0.2-0.5-0.3-1.1-0.3-2c-0.6,0.7-1.3,1.3-2.1,1.7c-0.9,0.4-1.8,0.6-2.8,0.6
			c-1.4,0-2.5-0.4-3.4-1.2s-1.3-1.8-1.3-2.9c0-1.4,0.6-2.5,1.8-3.3c1.2-0.8,2.8-1.2,4.9-1.2h2.9v-1.6c0-1-0.3-1.8-1-2.4
			s-1.6-0.9-2.8-0.9c-1.1,0-2,0.3-2.8,0.9c-0.7,0.6-1.1,1.3-1.1,2.1l-1.6,0c0-1.1,0.5-2.1,1.6-3c1.1-0.8,2.4-1.3,3.9-1.3
			c1.6,0,2.9,0.4,3.8,1.2s1.4,1.9,1.4,3.4v6.9c0,1.4,0.1,2.4,0.4,3.1v0.2L253.9,488.5L253.9,488.5z M248.9,487.3
			c1.1,0,2-0.3,2.9-0.8c0.8-0.5,1.5-1.2,1.8-2.1v-3.2h-2.9c-1.6,0-2.8,0.3-3.7,0.9s-1.4,1.3-1.4,2.3c0,0.8,0.3,1.5,0.9,2
			C247.2,487,247.9,487.3,248.9,487.3z"/>
		<path fill="#FFFFFF" d="M261.3,488.5h-1.6v-20.6h1.6V488.5z"/>
	</g>
</g>
<g>
	<g>
		<path fill="#FFFFFF" d="M312.8,488.8c0,2.3-0.7,3.9-1.8,5.2c-1.1,1.4-2.7,2-4.5,2s-3.4-0.7-4.5-2c-1.1-1.4-1.8-3.2-1.8-5.2v-2.7
			c0-2.3,0.7-3.9,1.8-5.2c1.1-1.4,2.7-2,4.5-2c2,0,3.4,0.7,4.8,2c1.1,1.4,1.8,3.2,1.8,5.2C312.8,486.1,312.8,488.8,312.8,488.8z
			 M311.4,485.8c0-1.8-0.5-3.4-1.4-4.3s-2-1.6-3.6-1.6s-2.7,0.5-3.6,1.6c-0.9,1.1-1.4,2.5-1.4,4.3v2.7c0,1.8,0.5,3.4,1.4,4.5
			c0.9,1.1,2,1.6,3.6,1.6s2.7-0.5,3.6-1.6c0.9-1.1,1.4-2.5,1.4-4.5C311.4,488.8,311.4,485.8,311.4,485.8z"/>
		<path fill="#FFFFFF" d="M325.5,491.8c0-0.9-0.2-1.6-0.9-2c-0.7-0.5-1.8-1.1-3.4-1.6c-1.8-0.5-3.2-1.1-4.1-1.8
			c-0.9-0.7-1.4-1.8-1.4-3c0-1.4,0.5-2.3,1.6-3.2c1.1-0.9,2.3-1.4,3.9-1.4s3,0.5,4.1,1.4c0.9,0.9,1.6,2,1.4,3.6l0,0h-1.4
			c0-1.1-0.5-2-1.1-2.7c-0.7-0.7-1.8-1.1-3-1.1c-1.4,0-2.3,0.2-3,0.9c-0.7,0.7-1.1,1.4-1.1,2.3c0,0.9,0.2,1.6,0.9,2
			c0.7,0.5,1.8,1.1,3.4,1.6c1.8,0.5,3,1.1,3.9,1.8c0.9,0.7,1.4,1.8,1.4,3c0,1.4-0.5,2.3-1.6,3.2c-1.1,0.9-2.5,1.1-4.1,1.1
			s-3-0.5-4.3-1.4c-1.1-0.9-1.8-2-1.8-3.6l0,0h1.1c0,1.4,0.5,2.3,1.4,3c0.9,0.7,2,0.9,3.2,0.9c1.4,0,2.3-0.2,3-0.9
			C325.1,493.3,325.5,492.7,325.5,491.8z"/>
		<path fill="#FFFFFF" d="M341.4,490.6L341.4,490.6c0,1.8-0.5,3-1.6,4.1c-1.1,0.9-2.5,1.6-4.3,1.6c-1.8,0-3.2-0.7-4.3-2
			c-1.1-1.4-1.6-3.2-1.6-5.2v-2.7c0-2,0.5-3.9,1.6-5.2c1.1-1.4,2.5-2,4.3-2c1.8,0,3.2,0.5,4.3,1.4s1.6,2.3,1.6,4.1l0,0h-1.4
			c0-1.4-0.5-2.5-1.1-3.2c-0.9-0.7-1.8-1.1-3.4-1.1c-1.4,0-2.5,0.7-3.4,1.8c-0.9,1.1-1.4,2.7-1.4,4.3v2.7c0,1.8,0.5,3.4,1.4,4.5
			c0.9,1.1,2,1.8,3.4,1.8c1.4,0,2.5-0.5,3.4-1.1c0.9-0.7,1.1-1.8,1.1-3.2L341.4,490.6L341.4,490.6z"/>
		<path fill="#FFFFFF" d="M346.7,495.8h-1.4v-17.1h1.4V495.8z"/>
		<path fill="#FFFFFF" d="M352.6,488.8v7.1h-1.4v-17.1h5.7c1.8,0,3,0.5,4.1,1.4c0.9,0.9,1.4,2,1.4,3.6s-0.5,2.7-1.4,3.6
			c-0.9,0.9-2.3,1.4-4.1,1.4H352.6L352.6,488.8z M352.6,487.7h4.3c1.4,0,2.3-0.5,3-1.1c0.7-0.7,0.9-1.6,0.9-2.7s-0.2-2-0.9-2.7
			c-0.7-0.7-1.6-1.1-3-1.1h-4.3V487.7z"/>
		<path fill="#FFFFFF" d="M372.4,492.7c0-0.7-0.2-1.1-0.7-1.6s-1.4-0.9-2.5-1.1c-1.4-0.2-2.5-0.7-3.2-1.4c-0.7-0.5-1.1-1.4-1.1-2.3
			s0.5-1.8,1.1-2.5c0.7-0.7,1.8-0.9,3.2-0.9s2.5,0.5,3.2,1.1c0.7,0.7,1.1,1.6,1.1,2.7l0,0h-1.1c0-0.7-0.2-1.4-0.9-1.8
			c-0.7-0.5-1.4-0.7-2.3-0.7s-1.8,0.2-2.3,0.7s-0.7,0.9-0.7,1.6c0,0.7,0.2,1.1,0.7,1.4c0.5,0.5,1.4,0.7,2.5,0.9
			c1.4,0.2,2.5,0.7,3.2,1.4c0.7,0.7,1.1,1.4,1.1,2.3c0,1.1-0.5,1.8-1.1,2.5c-0.9,0.7-1.8,0.9-3.2,0.9s-2.7-0.5-3.4-1.1
			c-0.9-0.7-1.1-1.6-1.1-2.5l0,0h1.1c0,0.9,0.5,1.6,1.1,2c0.7,0.5,1.4,0.7,2.3,0.7s1.8-0.2,2.3-0.7S372.4,493.1,372.4,492.7z"/>
	</g>
	<g>
		<g>
			<polygon fill="#F6D448" points="324.1,570 287.3,620.3 308.7,616.2 320.5,631.4 342.6,575.5 			"/>
			<polygon fill="#F6D448" points="349.6,570 386.2,620.3 365.1,616.2 353.3,631.4 331.2,575.5 			"/>
			<g>
				<g>
					<path stroke="#DD9A28" stroke-width="2" d="M378.1,558c-0.9,22.3-19.8,39.6-42.1,38.7c-22.3-0.9-39.6-19.8-38.7-42.1
						c0.9-22.3,19.8-39.6,42.1-38.7C361.7,517,379,535.7,378.1,558z"/>
				</g>
			</g>
		</g>
	</g>
</g>
<g>
	<g>
		<g>
			<g>
				<polygon fill="#DB4E26" points="476.3,343 440.2,392.6 461.1,388.5 472.7,403.5 494.5,348.4 				"/>
			</g>
			<g>
				<polygon fill="#DB4E26" points="501.4,343 537.5,392.6 516.6,388.5 505,403.5 483.2,348.4 				"/>
			</g>
			<g>
				<g>
					<path fill="#DB4E26" d="M538.4,339.6c0.2-0.2,0.2-0.2,0.2-0.5c0.5-0.5,0.9-0.7,0.9-0.7h-0.2c1.4-1.6,2.3-3.9,2.3-6.1
						c0-3.2-1.4-5.9-3.6-7.7l0,0c0,0-1.1-1.1-1.4-2.3c0-0.2,0-0.5,0-0.7c0.5-0.7,0.7-1.1,0.9-1.8c0.2-0.2,0.2-0.5,0.2-0.5h-0.2
						c0.9-2.3,0.9-4.8-0.2-7.1c-1.1-2.5-3-4.1-5-5.2h0.2c0,0-2-0.9-2.5-2c-0.5-1.1,0.2-2.7,0.2-2.7l-0.2,0.2c0.5-3-0.5-5.9-2.7-8.2
						c-2.3-2.3-5.5-3.2-8.6-2.7c-0.5,0-0.9-0.2-1.4-0.2c-0.7-0.2-0.9-1.1-1.4-1.6c-0.7-3-2.7-5.5-5.9-6.6c-2.5-1.1-5.5-0.9-7.7,0.2
						l0,0c0,0-0.2,0.2-0.5,0.2h-0.2c-0.7,0.2-1.6,0.7-2.3,0.5s-1.1-0.7-1.6-1.1c-1.8-2.5-4.8-4.3-8.2-4.3c-3,0-5.7,1.4-7.5,3.4v-0.2
						c0,0-0.9,1.4-2,1.8c-1.1,0.2-3.2-0.9-3.2-0.9v0.2c-2.3-0.7-4.8-0.9-7.1,0.2c-2.5,0.9-4.3,3-5.2,5.2v-0.2c0,0,0,0.5-0.2,0.9
						c0,0.2-0.2,0.2-0.2,0.5c-0.2,0.7-0.5,1.1-0.9,1.6c-1.1,0.7-2.7,0.5-2.7,0.5l0,0c-2.7-0.2-5.7,0.7-7.7,3c-2,2-3,4.8-3,7.5l0,0
						c0,0,0.5,1.6-0.2,2.7c-0.2,0.5-0.7,0.9-1.1,1.1c-3,0.7-5.7,2.7-6.8,5.9c-1.1,3-0.9,6.4,0.7,8.9l-0.2-0.2c0,0,0.9,1.4,0.7,2.7
						c-0.2,1.1-2,2.5-2,2.5l0,0c-2,1.8-3.2,4.5-3.2,7.3c0,3.2,1.6,5.9,3.9,7.7c0.5,0.5,0.9,0.9,1.1,1.6c0.2,1.1-0.9,3.2-0.9,3.2l0,0
						c-0.9,2.3-1.1,5,0,7.5c1.4,3.4,4.6,5.5,7.7,5.9c0.2,0.2,0.7,0.2,0.9,0.7c0.2,0.2,0.5,0.7,0.5,0.9c0,2.7,0.9,5.5,3,7.5
						c2,2,4.6,3,7.1,3l0,0l0,0c0.2,0,0.7,0,0.9,0c0.7,0,1.6,0,2,0.5c0.7,0.5,0.9,1.1,1.1,1.6c0,0.2,0,0.2,0.2,0.5c0,0.2,0,0.2,0,0.2
						l0,0c0.9,2.5,3,4.5,5.5,5.7c2,0.9,4.3,0.9,6.4,0.5l0,0c0,0,0,0,0.2,0c0.5-0.2,0.9-0.2,1.4-0.5c0.7-0.2,1.4-0.2,1.8,0
						c0.2,0,0.5,0.2,0.7,0.5c1.8,2.7,4.8,4.5,8.2,4.5c3,0,5.5-1.1,7.3-3.2l0,0c0,0,0-0.2,0.2-0.5c0.2-0.2,0.5-0.5,0.5-0.7
						c0.2-0.5,0.7-0.7,1.1-0.9c1.1-0.5,3.2,0.7,3.2,0.7l-0.2-0.2c2.3,0.9,4.8,0.9,7.3,0c2.5-1.1,4.5-3,5.5-5.5v0.2
						c0,0,0.5-2.3,1.6-2.7c1.1-0.7,2.7-0.2,2.7-0.2l-0.2-0.2c2.7,0,5.5-0.9,7.5-3c2-2,3-4.6,3-7.1l0,0c0,0,0-0.2,0-0.5
						c0-0.2,0-0.5,0-0.9c0-0.5,0-1.1,0.2-1.6c0.5-1.1,2.7-1.8,2.7-1.8h-0.2c2.5-0.9,4.8-3,5.9-5.7c1.1-2.7,0.9-5.5-0.2-8
						c-0.2-0.7-0.2-1.4,0-1.8C538,340,538.2,339.8,538.4,339.6z M512.5,353.2c-2,2-3,4.5-3,7.1c-2.3-0.9-5-1.1-7.7,0
						c-2.7,1.1-4.6,3.2-5.5,5.7c-1.8-1.6-4.1-2.5-6.6-2.5c-2.3,0-4.1,0.7-5.7,1.8c-0.9-2.3-2.7-4.1-5.2-5c-2.7-1.1-5.5-0.9-7.7,0.2
						c0-2.5-0.9-5.2-3-7.1c-2-2-4.6-3-7.3-3c0.2-1.8,0.2-3.9-0.7-5.7c-1.1-2.5-3.2-4.3-5.5-5.5c1.8-1.8,3-4.3,3-7.1
						c0-3.2-1.6-6.1-3.9-8c3-0.7,5.5-3,6.6-5.9c1.1-2.5,0.9-5.2,0-7.7c2.5,0,5-0.9,6.8-3c2-2,3-4.6,3-7.1c2.3,0.9,5,1.1,7.7,0
						c2.5-1.1,4.5-3.2,5.5-5.5c1.8,1.6,4.1,2.5,6.6,2.5c3,0,5.7-1.4,7.5-3.4c0.9,2.7,3,5.2,5.7,6.4c2.5,1.1,5.2,0.9,7.7,0
						c0,2.5,0.9,5.2,3,7.1c1.8,1.8,4.1,2.7,6.4,3c-1.6,2.5-2,5.9-0.7,9.1c1.1,2.5,3.2,4.3,5.5,5.2c-1.8,1.8-3,4.3-3,7.1
						c0,2,0.7,4.1,1.8,5.7c-1.8,1.1-3.2,2.7-3.9,4.8c-1.1,2.5-0.9,5.2,0,7.7C517.1,350.3,514.3,351.2,512.5,353.2z"/>
				</g>
				<g>
					<g>
						<g>
							<path d="M523.6,332.1c-0.7,18.2-16.4,32.3-34.6,31.6c-18.4-0.7-32.8-16.2-31.8-34.4c0.7-18.2,16.4-32.3,34.6-31.6
								C510.2,298.6,524.6,313.9,523.6,332.1z"/>
							<path fill="#B52125" d="M490.4,366c-0.5,0-0.9,0-1.6,0c-9.6-0.5-18.4-4.3-24.8-11.4c-6.4-7.1-9.8-15.9-9.3-25.3
								c0.9-19.3,17.3-34.6,37.1-33.7c19.6,0.9,35,17.3,34.1,36.6C525.2,351.2,509.5,366,490.4,366L490.4,366z M490.4,300.2
								c-16.6,0-30.3,13-30.9,29.3c-0.5,8.2,2.5,15.9,8.2,22.1c5.7,5.9,13.2,9.6,21.4,9.8c17.3,0.7,31.6-12.5,32.3-29.3
								c0.7-16.8-12.5-31.2-29.6-31.8C491.3,300.2,490.9,300.2,490.4,300.2L490.4,300.2z"/>
						</g>
					</g>
				</g>
			</g>
		</g>
	</g>
	<g>
		<path fill="#FFFFFF" d="M469.7,220.5c-0.2,1.8-0.8,3.1-1.9,4s-2.5,1.4-4.3,1.4c-1.2,0-2.3-0.3-3.3-0.9c-1-0.6-1.7-1.5-2.2-2.6
			s-0.8-2.4-0.8-3.9v-2.2c0-1.5,0.3-2.8,0.8-3.9s1.3-2,2.2-2.7c1-0.6,2.1-0.9,3.4-0.9c1.8,0,3.2,0.5,4.2,1.4s1.6,2.3,1.8,4h-1.4
			c-0.4-2.8-1.9-4.3-4.6-4.3c-1.5,0-2.7,0.6-3.6,1.7s-1.3,2.7-1.3,4.7v2c0,1.9,0.4,3.5,1.3,4.6c0.9,1.1,2.1,1.7,3.6,1.7
			c1.5,0,2.6-0.4,3.3-1.1c0.8-0.7,1.2-1.8,1.4-3.2H469.7z"/>
		<path fill="#FFFFFF" d="M482.4,217.7h-7.8v6.8h9v1.2h-10.4V209h10.3v1.2h-8.9v6.3h7.8V217.7z"/>
		<path fill="#FFFFFF" d="M486.5,225.7V209h4.9c1.8,0,3.1,0.4,4.1,1.1c0.9,0.7,1.4,1.8,1.4,3.3c0,0.9-0.2,1.6-0.7,2.3
			c-0.5,0.6-1.1,1.1-1.9,1.4c1,0.2,1.8,0.7,2.3,1.4c0.6,0.7,0.9,1.6,0.9,2.6c0,1.5-0.5,2.6-1.4,3.5c-1,0.8-2.3,1.2-4,1.2H486.5z
			 M487.9,216.5h3.9c1.2,0,2.1-0.3,2.7-0.8c0.6-0.5,1-1.3,1-2.3c0-1.1-0.3-1.9-1-2.4c-0.7-0.5-1.7-0.8-3-0.8h-3.5V216.5z
			 M487.9,217.7v6.8h4.2c1.2,0,2.2-0.3,2.9-0.9c0.7-0.6,1.1-1.5,1.1-2.6c0-1-0.3-1.8-1-2.4c-0.7-0.6-1.6-0.9-2.8-0.9H487.9z"/>
		<path fill="#FFFFFF" d="M509.9,221h-7.6l-1.7,4.7h-1.5l6.3-16.7h1.3l6.3,16.7h-1.5L509.9,221z M502.8,219.9h6.7l-3.4-9.1
			L502.8,219.9z"/>
		<path fill="#FFFFFF" d="M525.1,221.6c0-0.9-0.3-1.7-1-2.2c-0.7-0.5-1.8-1.1-3.6-1.5c-1.7-0.5-3-1-3.8-1.6
			c-1.1-0.8-1.7-1.9-1.7-3.2c0-1.3,0.5-2.3,1.6-3.1c1.1-0.8,2.4-1.2,4-1.2c1.1,0,2.1,0.2,3,0.6c0.9,0.4,1.6,1,2,1.8
			c0.5,0.8,0.7,1.6,0.7,2.6H525c0-1.1-0.4-2.1-1.2-2.8c-0.8-0.7-1.8-1-3.1-1c-1.3,0-2.3,0.3-3.1,0.9s-1.1,1.3-1.1,2.2
			c0,0.9,0.3,1.5,1,2.1c0.7,0.5,1.8,1,3.3,1.4c1.5,0.4,2.6,0.8,3.4,1.3c0.8,0.4,1.4,1,1.7,1.6s0.6,1.3,0.6,2.2
			c0,1.3-0.5,2.4-1.6,3.2s-2.4,1.2-4.2,1.2c-1.2,0-2.3-0.2-3.2-0.6c-1-0.4-1.7-1-2.2-1.8c-0.5-0.8-0.8-1.6-0.8-2.6h1.4
			c0,1.2,0.4,2.1,1.3,2.8c0.9,0.7,2.1,1,3.5,1c1.3,0,2.3-0.3,3.1-0.9C524.7,223.3,525.1,222.6,525.1,221.6z"/>
		<path fill="#FFFFFF" d="M409.6,249.3H402l-1.7,4.7h-1.5l6.3-16.7h1.3l6.3,16.7h-1.5L409.6,249.3z M402.4,248.1h6.7l-3.4-9.1
			L402.4,248.1z"/>
		<path fill="#FFFFFF" d="M422.3,250.8c0-0.7-0.3-1.2-0.8-1.6c-0.5-0.4-1.4-0.7-2.5-1c-1.1-0.2-2-0.5-2.6-0.8s-1.1-0.7-1.4-1.1
			c-0.3-0.4-0.4-1-0.4-1.6c0-1,0.4-1.8,1.2-2.4s1.9-1,3.1-1c1.4,0,2.5,0.3,3.3,1s1.3,1.6,1.3,2.7h-1.4c0-0.7-0.3-1.3-0.9-1.8
			c-0.6-0.5-1.4-0.7-2.3-0.7c-0.9,0-1.6,0.2-2.2,0.6c-0.5,0.4-0.8,0.9-0.8,1.6c0,0.6,0.2,1.1,0.7,1.4c0.5,0.3,1.3,0.7,2.5,0.9
			c1.2,0.3,2.1,0.6,2.7,0.9c0.6,0.3,1,0.7,1.3,1.2s0.4,1,0.4,1.6c0,1-0.4,1.9-1.3,2.5c-0.8,0.6-2,0.9-3.3,0.9
			c-1.4,0-2.6-0.4-3.5-1.1s-1.3-1.6-1.3-2.7h1.4c0.1,0.8,0.4,1.4,1,1.9s1.4,0.7,2.5,0.7c1,0,1.7-0.2,2.3-0.6
			C422,252,422.3,251.4,422.3,250.8z"/>
		<path fill="#FFFFFF" d="M434.2,250.8c0-0.7-0.3-1.2-0.8-1.6c-0.5-0.4-1.4-0.7-2.5-1c-1.1-0.2-2-0.5-2.6-0.8s-1.1-0.7-1.4-1.1
			c-0.3-0.4-0.4-1-0.4-1.6c0-1,0.4-1.8,1.2-2.4c0.8-0.6,1.9-1,3.1-1c1.4,0,2.5,0.3,3.3,1s1.3,1.6,1.3,2.7h-1.4
			c0-0.7-0.3-1.3-0.9-1.8c-0.6-0.5-1.4-0.7-2.3-0.7c-0.9,0-1.6,0.2-2.2,0.6s-0.8,0.9-0.8,1.6c0,0.6,0.2,1.1,0.7,1.4
			c0.5,0.3,1.3,0.7,2.5,0.9s2.1,0.6,2.7,0.9c0.6,0.3,1,0.7,1.3,1.2s0.4,1,0.4,1.6c0,1-0.4,1.9-1.3,2.5c-0.8,0.6-2,0.9-3.3,0.9
			c-1.4,0-2.6-0.4-3.5-1.1s-1.3-1.6-1.3-2.7h1.4c0.1,0.8,0.4,1.4,1,1.9c0.6,0.4,1.4,0.7,2.5,0.7c1,0,1.7-0.2,2.3-0.6
			C433.9,252,434.2,251.4,434.2,250.8z"/>
		<path fill="#FFFFFF" d="M438.6,237.9c0-0.3,0.1-0.5,0.3-0.7c0.2-0.2,0.4-0.3,0.7-0.3s0.5,0.1,0.7,0.3s0.3,0.4,0.3,0.7
			c0,0.3-0.1,0.5-0.3,0.7c-0.2,0.2-0.4,0.3-0.7,0.3s-0.5-0.1-0.7-0.3C438.7,238.4,438.6,238.2,438.6,237.9z M440.2,254h-1.4v-12.4
			h1.4V254z"/>
		<path fill="#FFFFFF" d="M451.4,250.8c0-0.7-0.3-1.2-0.8-1.6c-0.5-0.4-1.4-0.7-2.5-1c-1.1-0.2-2-0.5-2.6-0.8s-1.1-0.7-1.4-1.1
			c-0.3-0.4-0.4-1-0.4-1.6c0-1,0.4-1.8,1.2-2.4c0.8-0.6,1.9-1,3.1-1c1.4,0,2.5,0.3,3.3,1s1.3,1.6,1.3,2.7h-1.4
			c0-0.7-0.3-1.3-0.9-1.8c-0.6-0.5-1.4-0.7-2.3-0.7c-0.9,0-1.6,0.2-2.2,0.6s-0.8,0.9-0.8,1.6c0,0.6,0.2,1.1,0.7,1.4
			c0.5,0.3,1.3,0.7,2.5,0.9s2.1,0.6,2.7,0.9c0.6,0.3,1,0.7,1.3,1.2s0.4,1,0.4,1.6c0,1-0.4,1.9-1.3,2.5c-0.8,0.6-2,0.9-3.3,0.9
			c-1.4,0-2.6-0.4-3.5-1.1s-1.3-1.6-1.3-2.7h1.4c0.1,0.8,0.4,1.4,1,1.9c0.6,0.4,1.4,0.7,2.5,0.7c1,0,1.7-0.2,2.3-0.6
			C451.1,252,451.4,251.4,451.4,250.8z"/>
		<path fill="#FFFFFF" d="M458,238.4v3.2h2.6v1.1H458v8.3c0,0.7,0.1,1.2,0.4,1.5c0.2,0.3,0.7,0.5,1.2,0.5c0.2,0,0.6,0,1.1-0.1
			l0.1,1.1c-0.4,0.1-0.8,0.2-1.5,0.2c-0.9,0-1.6-0.3-2.1-0.8c-0.4-0.5-0.6-1.4-0.6-2.4v-8.3h-2.3v-1.1h2.3v-3.2H458z"/>
		<path fill="#FFFFFF" d="M468.2,254.2c-1.1,0-2-0.3-2.9-0.8c-0.9-0.5-1.5-1.2-2-2.2c-0.5-0.9-0.7-2-0.7-3.1v-0.5
			c0-1.2,0.2-2.3,0.7-3.2c0.5-1,1.1-1.7,1.9-2.3c0.8-0.5,1.7-0.8,2.7-0.8c1.5,0,2.7,0.5,3.6,1.5c0.9,1,1.3,2.4,1.3,4.2v0.8H464v0.3
			c0,1.4,0.4,2.6,1.2,3.5c0.8,0.9,1.8,1.4,3,1.4c0.7,0,1.4-0.1,1.9-0.4s1.1-0.7,1.5-1.3l0.9,0.7
			C471.6,253.5,470.2,254.2,468.2,254.2z M468,242.5c-1,0-1.9,0.4-2.6,1.1s-1.1,1.8-1.3,3.1h7.5v-0.1c0-1.2-0.4-2.2-1-2.9
			S469,242.5,468,242.5z M471.3,239.4v0.1h-1.3l-1.9-2.1l-1.9,2.1H465v-0.1l2.7-2.9h0.9L471.3,239.4z"/>
		<path fill="#FFFFFF" d="M476.9,241.5l0,2.1c0.5-0.8,1-1.3,1.7-1.8s1.5-0.6,2.3-0.6c1.3,0,2.3,0.4,3,1.1s1,1.9,1,3.4v8.2h-1.4v-8.2
			c0-1.1-0.2-1.9-0.7-2.5s-1.2-0.8-2.2-0.8c-0.8,0-1.6,0.3-2.3,0.8c-0.7,0.5-1.1,1.2-1.5,2.2v8.5h-1.4v-12.4H476.9z"/>
		<path fill="#FFFFFF" d="M493.1,253c1,0,1.8-0.3,2.4-0.8c0.6-0.5,1-1.2,1-2.1h1.3c0,0.8-0.3,1.4-0.7,2.1c-0.4,0.6-1,1.1-1.7,1.5
			c-0.7,0.4-1.5,0.5-2.3,0.5c-1.6,0-2.9-0.6-3.9-1.7c-1-1.1-1.4-2.7-1.4-4.6v-0.4c0-1.2,0.2-2.3,0.6-3.2s1-1.7,1.8-2.2
			s1.7-0.8,2.8-0.8c1.4,0,2.5,0.4,3.4,1.2c0.9,0.8,1.4,1.9,1.4,3.2h-1.3c-0.1-1-0.4-1.8-1-2.4c-0.6-0.6-1.4-0.9-2.4-0.9
			c-1.2,0-2.2,0.4-2.9,1.3c-0.7,0.9-1,2.2-1,3.8v0.4c0,1.6,0.3,2.8,1,3.7C490.9,252.6,491.8,253,493.1,253z"/>
		<path fill="#FFFFFF" d="M500.5,237.9c0-0.3,0.1-0.5,0.3-0.7s0.4-0.3,0.7-0.3c0.3,0,0.5,0.1,0.7,0.3s0.3,0.4,0.3,0.7
			c0,0.3-0.1,0.5-0.3,0.7c-0.2,0.2-0.4,0.3-0.7,0.3c-0.3,0-0.5-0.1-0.7-0.3C500.6,238.4,500.5,238.2,500.5,237.9z M502.1,254h-1.4
			v-12.4h1.4V254z"/>
		<path fill="#FFFFFF" d="M513.7,254c-0.1-0.4-0.2-1-0.3-1.7c-0.5,0.6-1.1,1.1-1.8,1.5s-1.5,0.5-2.4,0.5c-1.2,0-2.2-0.3-2.9-1
			c-0.7-0.7-1.1-1.5-1.1-2.5c0-1.2,0.5-2.2,1.5-2.9c1-0.7,2.4-1.1,4.2-1.1h2.5v-1.4c0-0.9-0.3-1.6-0.8-2.1c-0.5-0.5-1.3-0.8-2.4-0.8
			c-1,0-1.7,0.2-2.4,0.7c-0.6,0.5-0.9,1.1-0.9,1.8l-1.4,0c0-1,0.5-1.8,1.4-2.6c0.9-0.7,2-1.1,3.4-1.1c1.4,0,2.5,0.3,3.3,1
			c0.8,0.7,1.2,1.7,1.2,2.9v5.9c0,1.2,0.1,2.1,0.4,2.7v0.1H513.7z M509.4,253c0.9,0,1.7-0.2,2.5-0.7c0.7-0.4,1.2-1,1.6-1.8v-2.7H511
			c-1.4,0-2.4,0.3-3.2,0.8c-0.8,0.5-1.2,1.2-1.2,2c0,0.7,0.3,1.3,0.8,1.7C507.9,252.7,508.6,253,509.4,253z"/>
		<path fill="#FFFFFF" d="M534,249.8c0-0.9-0.3-1.7-1-2.2c-0.7-0.5-1.8-1.1-3.6-1.5c-1.7-0.5-3-1-3.8-1.6c-1.1-0.8-1.7-1.9-1.7-3.2
			c0-1.3,0.5-2.3,1.6-3.1c1.1-0.8,2.4-1.2,4-1.2c1.1,0,2.1,0.2,3,0.6c0.9,0.4,1.6,1,2,1.8c0.5,0.8,0.7,1.6,0.7,2.6h-1.4
			c0-1.1-0.4-2.1-1.2-2.8c-0.8-0.7-1.8-1-3.1-1c-1.3,0-2.3,0.3-3.1,0.9s-1.1,1.3-1.1,2.2c0,0.9,0.3,1.5,1,2.1c0.7,0.5,1.8,1,3.3,1.4
			c1.5,0.4,2.6,0.8,3.4,1.3c0.8,0.4,1.4,1,1.7,1.6s0.6,1.3,0.6,2.2c0,1.3-0.5,2.4-1.6,3.2s-2.4,1.2-4.2,1.2c-1.2,0-2.3-0.2-3.2-0.6
			c-1-0.4-1.7-1-2.2-1.8c-0.5-0.8-0.8-1.6-0.8-2.6h1.4c0,1.2,0.4,2.1,1.3,2.8c0.9,0.7,2.1,1,3.5,1c1.3,0,2.3-0.3,3.1-0.9
			C533.6,251.6,534,250.8,534,249.8z"/>
		<path fill="#FFFFFF" d="M537.4,247.6c0-1.2,0.2-2.3,0.7-3.2c0.5-1,1.1-1.7,2-2.2c0.8-0.5,1.8-0.8,2.9-0.8c1.7,0,3,0.6,4,1.7
			c1,1.2,1.5,2.7,1.5,4.6v0.3c0,1.2-0.2,2.3-0.7,3.2s-1.1,1.7-2,2.2c-0.8,0.5-1.8,0.8-2.9,0.8c-1.6,0-3-0.6-4-1.7
			c-1-1.2-1.5-2.7-1.5-4.6V247.6z M538.7,247.9c0,1.5,0.4,2.7,1.2,3.7c0.8,1,1.8,1.4,3,1.4c1.2,0,2.2-0.5,3-1.4
			c0.8-1,1.2-2.2,1.2-3.8v-0.3c0-0.9-0.2-1.8-0.5-2.6c-0.4-0.8-0.8-1.4-1.5-1.8c-0.6-0.4-1.4-0.6-2.2-0.6c-1.2,0-2.2,0.5-3,1.4
			s-1.2,2.2-1.2,3.8V247.9z"/>
		<path fill="#FFFFFF" d="M555.9,253c1,0,1.8-0.3,2.4-0.8s1-1.2,1.1-2.1h1.3c0,0.8-0.3,1.4-0.7,2.1c-0.4,0.6-1,1.1-1.7,1.5
			c-0.7,0.4-1.5,0.5-2.3,0.5c-1.6,0-2.9-0.6-3.9-1.7c-1-1.1-1.4-2.7-1.4-4.6v-0.4c0-1.2,0.2-2.3,0.6-3.2s1-1.7,1.8-2.2
			s1.7-0.8,2.8-0.8c1.4,0,2.5,0.4,3.4,1.2c0.9,0.8,1.4,1.9,1.4,3.2h-1.3c-0.1-1-0.4-1.8-1.1-2.4c-0.6-0.6-1.4-0.9-2.4-0.9
			c-1.2,0-2.2,0.4-2.9,1.3c-0.7,0.9-1,2.2-1,3.8v0.4c0,1.6,0.3,2.8,1,3.7C553.7,252.6,554.6,253,555.9,253z"/>
		<path fill="#FFFFFF" d="M563.3,237.9c0-0.3,0.1-0.5,0.3-0.7c0.2-0.2,0.4-0.3,0.7-0.3c0.3,0,0.5,0.1,0.7,0.3
			c0.2,0.2,0.3,0.4,0.3,0.7c0,0.3-0.1,0.5-0.3,0.7c-0.2,0.2-0.4,0.3-0.7,0.3c-0.3,0-0.5-0.1-0.7-0.3
			C563.4,238.4,563.3,238.2,563.3,237.9z M564.9,254h-1.4v-12.4h1.4V254z"/>
		<path fill="#FFFFFF" d="M576.5,254c-0.1-0.4-0.2-1-0.3-1.7c-0.5,0.6-1.1,1.1-1.8,1.5s-1.5,0.5-2.4,0.5c-1.2,0-2.2-0.3-2.9-1
			c-0.7-0.7-1.1-1.5-1.1-2.5c0-1.2,0.5-2.2,1.5-2.9c1-0.7,2.4-1.1,4.2-1.1h2.5v-1.4c0-0.9-0.3-1.6-0.8-2.1c-0.5-0.5-1.3-0.8-2.4-0.8
			c-1,0-1.7,0.2-2.4,0.7c-0.6,0.5-0.9,1.1-0.9,1.8l-1.4,0c0-1,0.5-1.8,1.4-2.6c0.9-0.7,2-1.1,3.4-1.1c1.4,0,2.5,0.3,3.3,1
			c0.8,0.7,1.2,1.7,1.2,2.9v5.9c0,1.2,0.1,2.1,0.4,2.7v0.1H576.5z M572.2,253c0.9,0,1.7-0.2,2.5-0.7c0.7-0.4,1.2-1,1.6-1.8v-2.7
			h-2.5c-1.4,0-2.4,0.3-3.2,0.8c-0.8,0.5-1.2,1.2-1.2,2c0,0.7,0.3,1.3,0.8,1.7C570.7,252.7,571.4,253,572.2,253z"/>
		<path fill="#FFFFFF" d="M582.8,254h-1.4v-17.6h1.4V254z"/>
	</g>
</g>
<g>
	<g>
		<g>
			<path fill="#FFFFFF" d="M315.5,222.2L315.5,222.2c0,1.8-0.5,3-1.6,4.1c-1.1,1.1-2.5,1.6-4.3,1.6c-1.8,0-3.2-0.7-4.3-2
				c-1.1-1.4-1.6-3.2-1.6-5.2v-2.7c0-2,0.5-3.9,1.6-5.2c1.1-1.4,2.5-2,4.3-2c1.8,0,3.2,0.5,4.3,1.4c1.1,0.9,1.6,2.3,1.6,4.1l0,0
				h-1.4c0-1.4-0.5-2.5-1.1-3.2c-0.9-0.7-1.8-1.1-3.4-1.1c-1.4,0-2.5,0.7-3.4,1.8c-0.9,1.1-1.4,2.7-1.4,4.3v2.7
				c0,1.8,0.5,3.4,1.4,4.6s2,1.8,3.4,1.8s2.5-0.5,3.4-1.1c0.9-0.7,1.1-1.8,1.1-3.2L315.5,222.2L315.5,222.2z"/>
			<path fill="#FFFFFF" d="M327.6,219.2h-7.3v7.1h8.4v1.1h-9.8v-17.1h9.8v1.1h-8.4v6.4h7.3C327.6,218.1,327.6,219.2,327.6,219.2z"/>
			<path fill="#FFFFFF" d="M331.6,227.6v-17.1h4.8c1.6,0,3,0.5,3.9,1.1c0.9,0.7,1.4,1.8,1.4,3.4c0,0.9-0.2,1.6-0.7,2.3
				c-0.5,0.7-1.1,1.1-1.8,1.4c1.1,0.2,1.8,0.7,2.5,1.4c0.7,0.9,0.9,1.8,0.9,2.7c0,1.6-0.5,2.7-1.4,3.4c-0.9,0.9-2.3,1.1-3.9,1.1
				h-5.7L331.6,227.6L331.6,227.6z M333,218.1h3.9c1.1,0,2-0.2,2.7-0.9c0.7-0.5,0.9-1.4,0.9-2.3c0-1.1-0.5-1.8-1.1-2.5
				c-0.7-0.5-1.6-0.9-3-0.9H333C333,211.7,333,218.1,333,218.1z M333,219.4v7.1h4.5c1.1,0,2-0.2,3-0.9c0.7-0.7,1.1-1.4,1.1-2.5
				c0-0.9-0.2-1.8-0.9-2.5s-1.6-0.9-2.7-0.9h-0.2C337.6,219.4,333,219.4,333,219.4z"/>
			<path fill="#FFFFFF" d="M354.4,222.9h-7.3l-1.6,4.8h-1.4l5.9-17.1h1.4l5.9,17.1H356L354.4,222.9z M347.6,221.5h6.4l-3.2-9.1l0,0
				L347.6,221.5z"/>
			<path fill="#FFFFFF" d="M369.2,223.3c0-0.9-0.2-1.6-0.9-2s-1.8-1.1-3.4-1.6c-1.8-0.5-3.2-1.1-4.1-1.8c-0.9-0.7-1.4-1.8-1.4-3
				c0-1.4,0.5-2.3,1.6-3.2c0.9-0.9,2.3-1.4,3.9-1.4s3,0.5,4.1,1.4c0.9,0.9,1.6,2,1.4,3.6l0,0H369c0-1.1-0.5-2-1.1-2.7
				c-0.7-0.7-1.8-1.1-3-1.1c-1.4,0-2.3,0.2-3,0.9c-0.7,0.7-1.1,1.4-1.1,2.3s0.2,1.6,0.9,2s1.8,1.1,3.4,1.6c1.8,0.5,3,1.1,3.9,1.8
				c0.9,0.7,1.4,1.8,1.4,3c0,1.4-0.5,2.3-1.6,3.2s-2.5,1.1-4.1,1.1s-3-0.5-4.3-1.4c-1.4-0.9-1.8-2-1.8-3.6l0,0h1.1
				c0,1.4,0.5,2.3,1.4,3c0.9,0.7,2,0.9,3.2,0.9c1.4,0,2.3-0.2,3-0.9C368.7,225.1,369.2,224.5,369.2,223.3z"/>
			<path fill="#FFFFFF" d="M316.4,252c0-0.9-0.2-1.6-0.9-2c-0.7-0.5-1.8-1.1-3.4-1.6c-1.8-0.5-3.2-1.1-4.1-1.8
				c-0.9-0.7-1.4-1.8-1.4-3c0-1.4,0.5-2.3,1.6-3.2c1.1-0.9,2.3-1.4,3.9-1.4s3,0.5,4.1,1.4c0.9,0.9,1.6,2,1.4,3.6l0,0h-1.4
				c0-1.1-0.5-2-1.1-2.7c-0.7-0.7-1.8-1.1-3-1.1c-1.4,0-2.3,0.2-3,0.9c-0.7,0.7-1.1,1.4-1.1,2.3c0,0.9,0.2,1.6,0.9,2
				s1.8,1.1,3.4,1.6c1.8,0.5,3,1.1,3.9,1.8c0.9,0.7,1.4,1.8,1.4,3c0,1.4-0.5,2.3-1.6,3.2c-1.1,0.9-2.5,1.1-4.1,1.1
				c-1.6,0-3-0.5-4.3-1.4c-1.1-0.9-1.8-2-1.8-3.6l0,0h1.1c0,1.4,0.5,2.3,1.4,3s2,0.9,3.2,0.9c1.4,0,2.3-0.2,3-0.9
				C316,253.8,316.4,253.1,316.4,252z"/>
			<path fill="#FFFFFF" d="M328.5,256.3c0-0.5-0.2-0.9-0.2-1.1s0-0.7,0-0.9c-0.5,0.7-0.9,1.1-1.8,1.6c-0.7,0.5-1.6,0.7-2.5,0.7
				c-1.1,0-2-0.2-2.7-0.9s-0.9-1.6-0.9-2.7c0-1.1,0.5-2,1.4-2.7c0.9-0.7,2.3-1.1,3.6-1.1h3v-1.6c0-0.9-0.2-1.6-0.9-2
				c-0.5-0.5-1.4-0.7-2.3-0.7s-1.6,0.2-2.3,0.7c-0.5,0.5-0.9,1.1-0.9,1.8h-1.1l0,0c0-0.9,0.5-1.8,1.1-2.5c0.9-0.7,1.8-1.1,3.2-1.1
				s2.5,0.5,3.2,1.1c0.9,0.7,1.1,1.8,1.1,3v6.1c0,0.5,0,0.9,0,1.4c0,0.5,0.2,0.9,0.2,1.1L328.5,256.3L328.5,256.3z M323.9,255.2
				c1.1,0,1.8-0.2,2.7-0.7c0.7-0.5,1.4-1.1,1.6-2v-2.5h-3c-1.1,0-2,0.2-2.7,0.9c-0.7,0.5-1.1,1.1-1.1,2c0,0.7,0.2,1.4,0.7,1.8
				C322.5,254.9,323,255.2,323.9,255.2z"/>
			<path fill="#FFFFFF" d="M341,254.3c-0.5,0.7-0.9,1.4-1.6,1.6c-0.7,0.5-1.4,0.7-2.3,0.7c-1.4,0-2.3-0.5-3-1.4s-1.1-2.3-1.1-4.1
				v-7.3h1.4v7.3c0,1.6,0.2,2.7,0.7,3.4c0.5,0.7,1.1,0.9,2,0.9s1.8-0.2,2.5-0.7s1.1-1.1,1.4-1.8v-9.1h1.4v12.5h-1.1L341,254.3z
				 M339.4,238.6h1.6l0,0l-2.7,3h-1.1L339.4,238.6z"/>
			<path fill="#FFFFFF" d="M345.3,249.9c0-2,0.5-3.6,1.1-4.8c0.9-1.1,2-1.8,3.4-1.8c0.9,0,1.6,0.2,2.3,0.5c0.7,0.5,1.1,0.9,1.6,1.6
				v-7.5h1.4v18.2h-1.1l-0.2-1.8c-0.5,0.7-0.9,1.1-1.6,1.6s-1.4,0.5-2.3,0.5c-1.4,0-2.5-0.5-3.4-1.6s-1.1-2.7-1.1-4.6L345.3,249.9
				L345.3,249.9z M346.7,250.2c0,1.6,0.2,2.7,0.9,3.6c0.7,0.9,1.4,1.4,2.7,1.4c0.9,0,1.6-0.2,2.3-0.7s1.1-0.9,1.4-1.6V247
				c-0.2-0.7-0.7-1.4-1.4-1.8c-0.5-0.5-1.4-0.7-2.3-0.7c-1.1,0-2,0.5-2.7,1.6c-0.7,0.9-0.9,2.3-0.9,3.9V250.2L346.7,250.2z"/>
			<path fill="#FFFFFF" d="M363.3,256.5c-1.6,0-3-0.7-3.9-1.8c-0.9-1.1-1.4-2.7-1.4-4.6v-0.7c0-1.8,0.5-3.4,1.6-4.6
				c0.9-1.1,2.3-1.8,3.6-1.8s2.7,0.5,3.4,1.4c0.9,0.9,1.1,2.3,1.1,3.9v1.1h-8.4v0.5c0,1.4,0.5,2.7,1.1,3.6s1.6,1.4,3,1.4
				c0.7,0,1.4-0.2,2-0.5c0.7-0.2,1.1-0.7,1.6-0.9l0.7,0.9c-0.5,0.5-0.9,0.9-1.6,1.1C365.1,256.3,364.2,256.5,363.3,256.5z
				 M363,244.5c-1.1,0-1.8,0.5-2.5,1.1s-1.1,1.8-1.1,3l0,0h7.1v-0.2c0-1.1-0.2-2-0.9-2.7C365.1,244.9,364.2,244.5,363,244.5z"/>
		</g>
	</g>
	<g>
		<g>
			<g>
				<polygon fill="#DC9928" points="323.5,343 287.1,392.8 308,388.7 319.6,403.7 341.7,348.4 				"/>
			</g>
			<g>
				<polygon fill="#DC9928" points="348.5,343 384.9,392.8 363.7,388.7 352.1,403.7 330.3,348.4 				"/>
			</g>
			<g>
				<g>
					<path fill="#F4D256" d="M385.8,339.6l0.2-0.2c0.5-0.5,0.9-0.7,0.9-0.7h-0.2c1.4-1.6,2.3-3.9,2.3-6.4c0-3.2-1.4-5.9-3.6-7.7l0,0
						c0,0-1.1-1.1-1.4-2.5c0-0.2,0-0.5,0-0.7c0.5-0.7,0.7-1.1,0.9-1.8c0.2-0.2,0.5-0.5,0.5-0.5h-0.2c0.7-2.3,0.7-4.8-0.2-7.1
						c-0.9-2.5-3-4.3-5-5.2h0.2c0,0-2-0.9-2.5-2c-0.5-1.1,0.2-2.7,0.2-2.7l-0.2,0.2c0.5-3-0.5-6.1-2.7-8.4c-2.3-2.3-5.7-3.2-8.6-2.7
						c-0.5,0-0.9,0-1.4-0.2c-0.7-0.2-0.9-1.1-1.4-1.6c-0.9-3-3-5.5-5.9-6.6c-2.5-1.1-5.5-0.9-7.7,0.2l0,0c0,0-0.2,0.2-0.5,0.2
						c0,0-0.2,0-0.2,0.2c-0.7,0.2-1.6,0.7-2.5,0.5c-0.7-0.2-1.4-0.7-1.6-1.1c-1.8-2.5-4.8-4.3-8.2-4.3c-3,0-5.7,1.4-7.5,3.4v-0.2
						c0,0-0.9,1.4-2,1.8c-1.1,0.2-3.2-0.9-3.2-0.9v0.2c-2.3-0.7-4.8-0.7-7.1,0.2c-2.5,1.1-4.3,3-5.2,5.2v-0.2c0,0,0,0.5-0.2,0.9
						c0,0.2-0.2,0.5-0.2,0.5c-0.2,0.7-0.5,1.1-0.9,1.6c-1.1,0.7-2.7,0.5-2.7,0.5l0,0c-2.7-0.2-5.5,0.7-7.7,3c-2,2-3,4.8-3,7.5l0,0
						c0,0,0.5,1.6-0.2,2.7c-0.2,0.5-0.7,0.9-1.1,1.1c-3,0.7-5.7,2.7-6.8,5.9c-1.1,3-0.9,6.4,0.7,8.9l-0.2-0.2c0,0,0.9,1.4,0.7,2.7
						c-0.2,1.1-2,2.5-2,2.5l0,0c-2,1.8-3.2,4.5-3.2,7.3c0,3.2,1.6,5.9,3.9,7.7c0.5,0.5,0.9,0.9,1.1,1.6c0.2,1.1-0.9,3.2-0.9,3.2l0,0
						c-0.9,2.3-0.9,5.2,0,7.7c1.4,3.4,4.5,5.5,8,5.9c0.2,0.2,0.7,0.2,0.9,0.5c0.2,0.2,0.5,0.7,0.5,0.9c0,2.7,0.9,5.5,3,7.5
						c2,2,4.5,3,7.3,3l0,0l0,0c0.2,0,0.7,0,0.9,0c0.7,0,1.6,0,2,0.5c0.7,0.5,0.9,1.1,1.1,1.8c0,0.2,0,0.2,0.2,0.5c0,0.2,0,0.2,0,0.2
						l0,0c0.9,2.5,3,4.6,5.5,5.7c2,0.9,4.3,0.9,6.4,0.5l0,0c0,0,0,0,0.2,0c0.5-0.2,0.9-0.2,1.4-0.5c0.7-0.2,1.4-0.2,1.8,0
						c0.2,0,0.5,0.2,0.7,0.5c1.8,2.7,4.8,4.6,8.4,4.6c3,0,5.5-1.1,7.3-3.2l0,0c0,0,0-0.2,0.2-0.5c0.2-0.2,0.5-0.5,0.5-0.7
						c0.2-0.5,0.7-0.7,1.1-0.9c1.1-0.5,3.2,0.7,3.2,0.7l-0.2-0.2c2.3,0.9,5,0.9,7.3,0c2.5-1.1,4.5-3,5.5-5.5v0.2
						c0,0,0.5-2.3,1.6-2.7c1.1-0.7,2.7-0.2,2.7-0.2l-0.2-0.2c2.7,0,5.5-0.9,7.5-3c2-2,3-4.6,3-7.1l0,0c0,0,0-0.2,0-0.5
						c0-0.2,0-0.5,0-0.7c0-0.5,0-1.1,0.2-1.6c0.5-1.1,2.7-1.8,2.7-1.8h-0.2c2.5-0.9,4.8-3,5.9-5.7c1.1-2.7,0.9-5.5-0.2-8
						c-0.2-0.7-0.2-1.4,0-1.8C385.3,340,385.6,339.8,385.8,339.6z M359.6,353.2c-2,2-3,4.5-3,7.1c-2.3-0.9-5-1.1-7.7,0
						c-2.7,1.1-4.5,3.2-5.5,5.7c-1.8-1.6-4.1-2.5-6.6-2.5c-2.3,0-4.1,0.7-5.9,1.8c-0.9-2.3-2.7-4.1-5.2-5c-2.7-1.1-5.5-0.9-8,0.2
						c0-2.5-0.9-5.2-3-7.3c-2-2-4.5-3-7.3-3c0.5-1.8,0.2-3.9-0.7-5.7c-1.1-2.5-3.2-4.5-5.5-5.5c1.8-1.8,3-4.3,3-7.1
						c0-3.2-1.6-6.1-4.1-8c3-0.9,5.5-3,6.6-5.9c1.1-2.5,0.9-5.2,0-7.7c2.5,0,5-0.9,6.8-3c2-2,3-4.5,3-7.1c2.3,0.9,5.2,1.1,7.7,0
						c2.5-1.1,4.5-3.2,5.5-5.5c1.8,1.6,4.1,2.5,6.6,2.5c3,0,5.7-1.4,7.5-3.4c0.9,2.7,3,5.2,5.7,6.4c2.5,1.1,5.2,0.9,7.7,0
						c0,2.5,0.9,5.2,3,7.1c1.8,1.8,4.1,2.7,6.6,3c-1.6,2.7-2,5.9-0.7,9.1c1.1,2.5,3.2,4.3,5.5,5.5c-1.8,1.8-3,4.3-3,7.1
						c0,2.3,0.7,4.1,1.8,5.7c-1.8,1.1-3.2,2.7-4.1,4.8c-1.1,2.5-0.9,5.2,0,7.7C364.4,350.3,361.7,351.2,359.6,353.2z"/>
				</g>
				<g>
					<g>
						<g>
							<path d="M370.1,332.1c-0.7,18.2-16.2,32.5-34.4,31.6c-18.2-0.7-32.5-16.2-31.6-34.4c0.7-18.2,16.2-32.5,34.4-31.6
								C356.7,298.4,371,313.9,370.1,332.1z"/>
							<path fill="#DD9A28" d="M337.1,366.2c-0.5,0-0.9,0-1.6,0c-9.6-0.5-18.2-4.6-24.6-11.4c-6.4-7.1-9.8-15.9-9.3-25.5
								c0.9-19.6,17.1-34.8,36.9-33.9c19.6,0.9,34.8,17.3,33.9,36.9C371.7,351.2,356.2,366.2,337.1,366.2L337.1,366.2z M337.1,300
								c-16.6,0-30,13-30.7,29.6c-0.2,8.2,2.5,16.2,8.2,22.1c5.5,6.1,13.2,9.6,21.4,10c17.1,0.7,31.4-12.5,32.1-29.3
								c0.7-16.8-12.5-31.4-29.3-32.1C338,300,337.6,300,337.1,300L337.1,300z"/>
						</g>
					</g>
				</g>
			</g>
		</g>
	</g>
</g>
<g>
	<g>
		<g>
			<path fill="#FFFFFF" d="M149.2,222.2L149.2,222.2c0,1.8-0.5,3-1.6,4.1c-1.1,1.1-2.5,1.6-4.3,1.6c-1.8,0-3.2-0.7-4.3-2
				c-1.1-1.4-1.6-3.2-1.6-5.2v-2.7c0-2,0.5-3.9,1.6-5.2c1.1-1.4,2.5-2,4.3-2c1.8,0,3.2,0.5,4.3,1.4s1.6,2.3,1.6,4.1l0,0h-1.4
				c0-1.4-0.5-2.5-1.1-3.2c-0.9-0.7-1.8-1.1-3.4-1.1c-1.4,0-2.5,0.7-3.4,1.8c-0.9,1.1-1.4,2.7-1.4,4.3v2.7c0,1.8,0.5,3.4,1.4,4.6
				c0.9,1.1,2,1.8,3.4,1.8c1.4,0,2.5-0.5,3.4-1.1s1.1-1.8,1.1-3.2L149.2,222.2L149.2,222.2z"/>
			<path fill="#FFFFFF" d="M161.5,219.2h-7.3v7.1h8.4v1.1h-9.8v-17.1h9.8v1.1h-8.4v6.4h7.3L161.5,219.2L161.5,219.2z"/>
			<path fill="#FFFFFF" d="M165.4,227.6v-17.1h4.8c1.6,0,3,0.5,3.9,1.1c0.9,0.7,1.4,1.8,1.4,3.4c0,0.9-0.2,1.6-0.7,2.3
				c-0.5,0.7-1.1,1.1-1.8,1.4c1.1,0.2,1.8,0.7,2.5,1.4c0.7,0.9,0.9,1.8,0.9,2.7c0,1.6-0.5,2.7-1.4,3.4c-0.9,0.9-2.3,1.1-3.9,1.1
				h-5.7L165.4,227.6L165.4,227.6z M166.7,218.1h3.9c1.1,0,2-0.2,2.7-0.9c0.7-0.5,0.9-1.4,0.9-2.3c0-1.1-0.5-1.8-1.1-2.5
				c-0.7-0.5-1.6-0.9-3-0.9h-3.4C166.7,211.7,166.7,218.1,166.7,218.1z M166.7,219.4v7.1h4.6c1.1,0,2-0.2,3-0.9
				c0.7-0.7,1.1-1.4,1.1-2.5c0-0.9-0.2-1.8-0.9-2.5s-1.6-0.9-2.7-0.9h-0.2C171.3,219.4,166.7,219.4,166.7,219.4z"/>
			<path fill="#FFFFFF" d="M188.1,222.9h-7.3l-1.6,4.8h-1.4l5.9-17.1h1.4l5.9,17.1h-1.4L188.1,222.9z M181.5,221.5h6.4l-3.2-9.1l0,0
				L181.5,221.5z"/>
			<path fill="#FFFFFF" d="M202.9,223.3c0-0.9-0.2-1.6-0.9-2c-0.7-0.5-1.8-1.1-3.4-1.6c-1.8-0.5-3.2-1.1-4.1-1.8
				c-0.9-0.7-1.4-1.8-1.4-3c0-1.4,0.5-2.3,1.6-3.2c0.9-0.9,2.3-1.4,3.9-1.4s3,0.5,4.1,1.4c0.9,0.9,1.6,2,1.4,3.6l0,0h-1.4
				c0-1.1-0.5-2-1.1-2.7c-0.7-0.7-1.8-1.1-3-1.1c-1.4,0-2.3,0.2-3,0.9c-0.7,0.7-1.1,1.4-1.1,2.3s0.2,1.6,0.9,2s1.8,1.1,3.4,1.6
				c1.8,0.5,3,1.1,3.9,1.8c0.9,0.7,1.4,1.8,1.4,3c0,1.4-0.5,2.3-1.6,3.2c-1.1,0.9-2.5,1.1-4.1,1.1c-1.6,0-3-0.5-4.3-1.4
				c-1.4-0.9-1.8-2-1.8-3.6l0,0h1.1c0,1.4,0.5,2.3,1.4,3s2,0.9,3.2,0.9c1.4,0,2.3-0.2,3-0.9C202.4,225.1,202.9,224.5,202.9,223.3z"
				/>
			<path fill="#FFFFFF" d="M131.7,247.9h-7.3v7.1h8.4v1.1H123v-16.8h9.8v1.1h-8.4v6.4h7.3V247.9z"/>
			<path fill="#FFFFFF" d="M134.6,249.9c0-2,0.5-3.6,1.1-4.8c0.9-1.1,2-1.8,3.4-1.8c0.9,0,1.6,0.2,2.3,0.5c0.7,0.5,1.1,0.9,1.6,1.6
				v-7.5h1.4v18.2h-1.1l-0.2-1.8c-0.5,0.7-0.9,1.1-1.6,1.6c-0.7,0.5-1.4,0.5-2.3,0.5c-1.4,0-2.5-0.5-3.4-1.6s-1.1-2.7-1.1-4.6V249.9
				L134.6,249.9z M136,250.2c0,1.6,0.2,2.7,0.9,3.6c0.7,0.9,1.4,1.4,2.7,1.4c0.9,0,1.6-0.2,2.3-0.7s1.1-0.9,1.4-1.6V247
				c-0.2-0.7-0.7-1.4-1.4-1.8c-0.5-0.5-1.4-0.7-2.3-0.7c-1.1,0-2,0.5-2.7,1.6c-0.7,0.9-0.9,2.3-0.9,3.9V250.2z"/>
			<path fill="#FFFFFF" d="M156,254.3c-0.5,0.7-0.9,1.4-1.6,1.6c-0.7,0.5-1.4,0.7-2.3,0.7c-1.4,0-2.3-0.5-3-1.4
				c-0.7-0.9-1.1-2.3-1.1-4.1v-7.3h1.4v7.3c0,1.6,0.2,2.7,0.7,3.4c0.5,0.7,1.1,0.9,2,0.9s1.8-0.2,2.5-0.7c0.7-0.5,1.1-1.1,1.4-1.8
				v-9.1h1.4v12.5h-1.1L156,254.3z"/>
			<path fill="#FFFFFF" d="M165.4,255.4c0.9,0,1.6-0.2,2.3-0.9c0.7-0.5,0.9-1.4,0.9-2.3h1.1l0,0c0,1.1-0.5,2-1.4,3
				c-0.9,0.7-2,1.1-3.2,1.1c-1.6,0-3-0.7-3.9-1.8c-0.9-1.1-1.4-2.7-1.4-4.6v-0.5c0-1.8,0.5-3.4,1.4-4.6c0.9-1.1,2-1.8,3.9-1.8
				c1.4,0,2.5,0.5,3.2,1.1c0.9,0.9,1.4,1.8,1.4,3.2l0,0h-1.1c0-0.9-0.2-1.8-0.9-2.5s-1.4-0.9-2.3-0.9c-1.4,0-2.3,0.5-3,1.4
				c-0.7,0.9-0.9,2.3-0.9,3.6v0.5c0,1.6,0.2,2.7,0.9,3.6C163.1,254.7,164,255.4,165.4,255.4z"/>
			<path fill="#FFFFFF" d="M180.4,256.3c0-0.5-0.2-0.9-0.2-1.1s0-0.7,0-0.9c-0.5,0.7-0.9,1.1-1.8,1.6c-0.7,0.5-1.6,0.7-2.5,0.7
				c-1.1,0-2-0.2-2.7-0.9s-0.9-1.6-0.9-2.7c0-1.1,0.5-2,1.4-2.7c0.9-0.7,2.3-1.1,3.6-1.1h3v-1.6c0-0.9-0.2-1.6-0.9-2
				c-0.5-0.5-1.4-0.7-2.3-0.7c-0.9,0-1.6,0.2-2.3,0.7c-0.5,0.5-0.9,1.1-0.9,1.8h-1.1l0,0c0-0.9,0.5-1.8,1.1-2.5
				c0.9-0.7,1.8-1.1,3.2-1.1c1.4,0,2.5,0.5,3.2,1.1c0.9,0.7,1.1,1.8,1.1,3v6.1c0,0.5,0,0.9,0,1.4c0,0.5,0.2,0.9,0.2,1.1L180.4,256.3
				L180.4,256.3z M176,255.2c1.1,0,1.8-0.2,2.7-0.7c0.7-0.5,1.4-1.1,1.6-2v-2.5h-3c-1.1,0-2,0.2-2.7,0.9c-0.7,0.5-1.1,1.1-1.1,2
				c0,0.7,0.2,1.4,0.7,1.8C174.5,254.9,175.1,255.2,176,255.2z"/>
			<path fill="#FFFFFF" d="M189.5,255.4c0.9,0,1.6-0.2,2.3-0.9c0.7-0.5,0.9-1.4,0.9-2.3h1.1l0,0c0,1.1-0.5,2-1.4,3
				c-0.9,0.7-2,1.1-3.2,1.1c-1.6,0-3-0.7-3.9-1.8c-0.9-1.1-1.4-2.7-1.4-4.6v-0.5c0-1.8,0.5-3.4,1.4-4.6c0.9-1.1,2-1.8,3.9-1.8
				c1.4,0,2.5,0.5,3.2,1.1c0.9,0.9,1.4,1.8,1.4,3.2l0,0h-1.1c0-0.9-0.2-1.8-0.9-2.5s-1.4-0.9-2.3-0.9c-1.4,0-2.3,0.5-3,1.4
				c-0.7,0.9-0.9,2.3-0.9,3.6v0.5c0,1.6,0.2,2.7,0.9,3.6C187.4,254.7,188.3,255.4,189.5,255.4z M189.9,256.3l-0.2,0.7
				c0.7,0,1.1,0.2,1.4,0.7c0.5,0.2,0.5,0.7,0.5,1.4c0,0.7-0.2,1.4-0.9,1.6c-0.7,0.5-1.4,0.7-2.5,0.7v-0.9c0.7,0,1.1-0.2,1.6-0.5
				c0.5-0.2,0.7-0.7,0.7-1.1c0-0.5-0.2-0.7-0.5-0.9c-0.2-0.2-0.9-0.2-1.6-0.5l0.2-1.6L189.9,256.3L189.9,256.3z"/>
			<path fill="#FFFFFF" d="M204.7,256.3c0-0.5-0.2-0.9-0.2-1.1s0-0.7,0-0.9c-0.5,0.7-0.9,1.1-1.8,1.6c-0.7,0.5-1.6,0.7-2.5,0.7
				c-1.1,0-2-0.2-2.7-0.9c-0.7-0.7-0.9-1.6-0.9-2.7c0-1.1,0.5-2,1.4-2.7c0.9-0.7,2.3-1.1,3.6-1.1h3v-1.6c0-0.9-0.2-1.6-0.9-2
				c-0.5-0.5-1.4-0.7-2.3-0.7c-0.9,0-1.6,0.2-2.3,0.7c-0.5,0.5-0.9,1.1-0.9,1.8H197l0,0c0-0.9,0.5-1.8,1.1-2.5
				c0.9-0.7,1.8-1.1,3.2-1.1s2.5,0.5,3.2,1.1c0.9,0.7,1.1,1.8,1.1,3v6.1c0,0.5,0,0.9,0,1.4c0,0.5,0.2,0.9,0.2,1.1L204.7,256.3
				L204.7,256.3z M204.9,238.8c0,0.7-0.2,1.1-0.7,1.6c-0.5,0.5-0.9,0.7-1.6,0.7c-0.5,0-1.1-0.2-1.6-0.7c-0.7-0.5-1.1-0.7-1.4-0.7
				c-0.5,0-0.7,0.2-0.9,0.5c-0.2,0.2-0.5,0.7-0.5,1.1l-0.9-0.2c0-0.7,0.2-1.1,0.7-1.6c0.5-0.5,0.9-0.7,1.6-0.7
				c0.5,0,1.1,0.2,1.6,0.7c0.7,0.5,1.1,0.7,1.6,0.7s0.7-0.2,0.9-0.5c0.2-0.2,0.5-0.7,0.5-1.1L204.9,238.8z M200.2,255.2
				c1.1,0,1.8-0.2,2.7-0.7c0.7-0.5,1.4-1.1,1.6-2v-2.5h-3c-1.1,0-2,0.2-2.7,0.9c-0.7,0.5-1.1,1.1-1.1,2c0,0.7,0.2,1.4,0.7,1.8
				C198.8,254.9,199.5,255.2,200.2,255.2z"/>
			<path fill="#FFFFFF" d="M208.6,249.7c0-1.8,0.5-3.4,1.4-4.6s2.3-1.8,3.9-1.8s3,0.7,3.9,1.8c0.9,1.1,1.4,2.7,1.4,4.6v0.5
				c0,1.8-0.5,3.4-1.4,4.6s-2.3,1.8-3.9,1.8s-3-0.7-3.9-1.8c-0.9-1.1-1.4-2.7-1.4-4.6V249.7L208.6,249.7z M209.9,250.2
				c0,1.4,0.5,2.7,1.1,3.6c0.7,0.9,1.6,1.6,3,1.6c1.1,0,2.3-0.5,3-1.6s1.1-2.3,1.1-3.6v-0.5c0-1.4-0.5-2.7-1.1-3.6
				c-0.7-0.9-1.8-1.6-3-1.6c-1.4,0-2.3,0.5-3,1.6c-0.7,0.9-1.1,2.3-1.1,3.6V250.2z"/>
		</g>
	</g>
	<g>
		<g>
			<g>
				<polygon fill="#274391" points="157.2,343 121.2,392.3 142.2,388.5 153.5,403.3 175.4,348.4 				"/>
			</g>
			<g>
				<polygon fill="#274391" points="182.2,343 218.4,392.3 197.4,388.5 185.8,403.3 164,348.4 				"/>
			</g>
			<g>
				<g>
					<path fill="#91C1E4" d="M219.3,339.6l0.2-0.2c0.5-0.5,0.9-0.7,0.9-0.7h-0.2c1.4-1.6,2.3-3.9,2.3-6.1c0-3.2-1.4-5.9-3.6-7.7l0,0
						c0,0-1.1-1.1-1.4-2.3c0-0.2,0-0.5,0-0.7c0.5-0.7,0.7-1.1,0.9-1.8c0.2-0.2,0.2-0.5,0.2-0.5h-0.2c0.9-2.3,0.9-4.8-0.2-7.1
						c-1.1-2.5-3-4.1-5-5.2h0.2c0,0-2-0.9-2.5-2c-0.5-1.1,0.2-2.7,0.2-2.7l-0.2,0.2c0.5-3-0.5-5.9-2.7-8.2c-2.3-2.3-5.5-3.2-8.6-2.7
						c-0.5,0-0.9,0-1.4-0.2c-0.7-0.2-0.9-1.1-1.4-1.6c-0.7-3-2.7-5.5-5.7-6.6c-2.5-1.1-5.5-0.9-7.7,0.2l0,0c0,0-0.2,0.2-0.5,0.2
						h-0.2c-0.7,0.2-1.6,0.7-2.3,0.5c-0.7-0.2-1.1-0.7-1.6-1.1c-1.8-2.5-4.8-4.3-8.2-4.3c-3,0-5.7,1.4-7.5,3.4V282
						c0,0-0.9,1.4-2,1.6c-1.1,0.2-3.2-0.9-3.2-0.9v0.2c-2.3-0.7-4.6-0.7-7.1,0.2c-2.5,0.9-4.3,3-5.2,5.2v-0.2c0,0,0,0.5-0.2,0.9
						c0,0.2-0.2,0.2-0.2,0.5c-0.2,0.7-0.5,1.1-0.9,1.6c-1.1,0.7-2.7,0.5-2.7,0.5l0,0c-2.7-0.2-5.5,0.7-7.7,3c-2,2-3,4.8-3,7.5l0,0
						c0,0,0.5,1.6,0,2.7c-0.2,0.5-0.7,0.7-1.1,1.1c-3,0.7-5.7,2.7-6.8,5.9c-1.1,3-0.9,6.4,0.7,8.9l-0.2-0.2c0,0,0.9,1.4,0.7,2.7
						c-0.2,1.1-2,2.5-2,2.5l0,0c-2,1.8-3.2,4.3-3.2,7.3c0,3.2,1.6,5.9,3.9,7.7c0.5,0.5,0.9,0.9,1.1,1.6c0.2,1.1-0.9,3.2-0.9,3.2l0,0
						c-0.9,2.3-0.9,5,0,7.5c1.4,3.4,4.6,5.5,7.7,5.9c0.2,0.2,0.7,0.2,0.9,0.7c0.2,0.2,0.5,0.7,0.5,0.9c0,2.7,0.9,5.5,3,7.3
						c2,2,4.6,3,7.3,3l0,0l0,0c0.2,0,0.7,0,0.9,0c0.7,0,1.6,0,2,0.5c0.7,0.5,0.9,1.1,1.1,1.6c0,0.2,0,0.2,0.2,0.5c0,0.2,0,0.2,0,0.2
						l0,0c0.9,2.5,3,4.6,5.5,5.7c2,0.9,4.3,0.9,6.4,0.5l0,0l0,0c0.5-0.2,0.9-0.2,1.4-0.5c0.7-0.2,1.4-0.2,1.8,0
						c0.2,0,0.5,0.2,0.7,0.5c1.8,2.7,4.8,4.3,8.2,4.3c3,0,5.5-1.1,7.3-3.2l0,0c0,0,0-0.2,0.2-0.5c0.2-0.2,0.5-0.5,0.5-0.7
						c0.2-0.5,0.7-0.7,1.1-0.9c1.1-0.5,3.2,0.5,3.2,0.5l-0.2-0.2c2.3,0.9,4.8,0.9,7.3,0c2.5-1.1,4.6-3,5.5-5.5v0.2
						c0,0,0.5-2.3,1.6-2.7c1.1-0.7,2.7-0.2,2.7-0.2h-0.2c2.7,0,5.5-0.9,7.5-3c2-2,3-4.6,3-7.1l0,0c0,0,0-0.2,0-0.5
						c0-0.2,0-0.5,0-0.9c0-0.5,0-1.1,0.2-1.6c0.7-1.1,2.7-1.8,2.7-1.8l0,0c2.5-0.9,4.8-3,5.9-5.5c1.1-2.7,0.9-5.5-0.2-8
						c-0.2-0.7-0.2-1.4,0-1.8C218.8,340,219,339.8,219.3,339.6z M193.3,353.2c-2,2-3,4.5-3,7.1c-2.3-0.9-5-1.1-7.7,0
						c-2.7,1.1-4.6,3.2-5.5,5.7c-1.8-1.6-4.1-2.5-6.6-2.5c-2,0-4.1,0.7-5.7,1.8c-0.9-2.3-2.7-4.1-5.2-5c-2.5-1.1-5.5-0.9-7.7,0.2
						c0-2.5-0.9-5.2-3-7.1c-2-2-4.5-3-7.3-3c0.5-1.8,0.2-3.9-0.7-5.7c-1.1-2.5-3-4.3-5.5-5.5c1.8-1.8,3-4.3,3-7.1
						c0-3.2-1.6-6.1-3.9-8c3-0.7,5.5-2.7,6.6-5.7c1.1-2.5,0.9-5.2,0-7.7c2.5,0,5-0.9,6.8-3c1.8-2,3-4.6,3-7.1c2.3,0.9,5,1.1,7.7,0
						c2.5-1.1,4.5-3.2,5.5-5.5c1.8,1.6,4.1,2.5,6.6,2.5c3,0,5.7-1.4,7.5-3.4c0.9,2.7,3,5,5.7,6.4c2.5,1.1,5.2,0.9,7.7,0
						c0,2.5,0.9,5,3,7.1c1.8,1.8,4.1,2.7,6.4,3c-1.6,2.7-2,5.9-0.7,8.9c1.1,2.5,3,4.3,5.5,5.5c-1.8,1.8-3,4.3-3,7.1
						c0,2,0.7,4.1,1.8,5.7c-1.8,1.1-3.2,2.7-3.9,4.8c-1.1,2.5-0.9,5.2,0,7.7C197.9,350.3,195.4,351.2,193.3,353.2z"/>
				</g>
				<g>
					<g>
						<g>
							<path d="M203.8,332.1c-0.7,18.2-16.2,32.3-34.1,31.4c-18.2-0.7-32.3-16.2-31.4-34.1c0.7-18.2,16.2-32.3,34.1-31.4
								C190.4,298.6,204.5,314.1,203.8,332.1z"/>
							<path fill="#274391" d="M171,366c-0.5,0-0.9,0-1.6,0c-9.3-0.5-18-4.3-24.3-11.4c-6.4-6.8-9.6-15.9-9.3-25.3
								c0.9-19.3,17.1-34.6,36.6-33.7c19.3,0.9,34.6,17.3,33.7,36.6C205.4,351.2,189.9,366,171,366L171,366z M170.8,300.2
								c-16.4,0-29.8,13-30.5,29.3c-0.5,8.2,2.5,15.9,8,21.8c5.5,5.9,13,9.6,21.2,9.8c17.1,0.7,31.2-12.3,31.8-29.3
								C202,315,188.8,300.7,172,300C171.7,300.2,171.3,300.2,170.8,300.2L170.8,300.2z"/>
						</g>
					</g>
				</g>
			</g>
		</g>
	</g>
</g>
<g>
	<path fill="#D3EAF7" d="M148.1,556.4h1.6c0.7,0,1.4-0.2,1.6-0.5c0.2-0.2,0.5-0.9,0.5-1.4c0-0.7-0.2-1.1-0.5-1.4
		c-0.5-0.2-0.9-0.5-1.4-0.5c-0.5,0-0.9,0.2-1.4,0.5c-0.5,0.2-0.5,0.7-0.5,1.1h-3c0-0.7,0.2-1.4,0.7-2c0.5-0.7,0.9-1.1,1.8-1.4
		c0.7-0.2,1.6-0.5,2.5-0.5c1.6,0,2.7,0.5,3.6,1.1c0.9,0.7,1.4,1.8,1.4,3c0,0.7-0.2,1.4-0.7,1.8c-0.5,0.5-0.9,0.9-1.6,1.4
		c0.9,0.2,1.4,0.7,1.8,1.4c0.5,0.7,0.7,1.4,0.7,2c0,1.4-0.5,2.3-1.4,3.2c-0.9,0.7-2.3,1.1-3.6,1.1s-2.7-0.5-3.6-1.1
		c-0.9-0.7-1.4-1.8-1.4-3h3c0,0.5,0.2,0.9,0.7,1.4c0.5,0.5,0.9,0.5,1.6,0.5s1.1-0.2,1.6-0.5c0.5-0.5,0.7-0.9,0.7-1.4
		c0-1.4-0.9-2.3-2.5-2.3h-1.6v-2.7L148.1,556.4L148.1,556.4z"/>
	<path fill="#D3EAF7" d="M157.8,568.4l-1.6-0.7l0.5-0.7c0.5-0.9,0.7-1.6,0.7-2.5v-2.3h2.5v2c0,0.7-0.2,1.6-0.5,2.3
		C158.8,567.3,158.3,568,157.8,568.4z"/>
	<path fill="#D3EAF7" d="M171.7,551.8l-5.7,13h-3l5.7-12.3h-7.3v-2.3h10.2L171.7,551.8L171.7,551.8z"/>
	<path fill="#D3EAF7" d="M174,557.7l0.9-7.5h8.2v2.5h-5.7l-0.5,3.2c0.7-0.5,1.4-0.5,2.3-0.5c1.4,0,2.5,0.5,3.2,1.4
		c0.7,0.9,1.1,2,1.1,3.6c0,0.9-0.2,1.8-0.7,2.5c-0.5,0.7-0.9,1.4-1.6,1.8s-1.6,0.7-2.7,0.7c-0.9,0-1.6-0.2-2.5-0.5
		c-0.7-0.5-1.4-0.9-1.8-1.6c-0.5-0.7-0.7-1.4-0.7-2.3h3c0,0.7,0.2,1.1,0.7,1.4c0.5,0.2,0.9,0.5,1.4,0.5c0.7,0,1.1-0.2,1.6-0.7
		c0.5-0.5,0.5-1.1,0.5-2c0-0.9-0.2-1.4-0.7-1.8c-0.5-0.5-0.9-0.7-1.8-0.7c-0.7,0-1.1,0.2-1.6,0.5l-0.2,0.2L174,557.7z"/>
	<path fill="#D3EAF7" d="M185.4,552.9c0-0.9,0.2-1.6,0.9-2.3c0.7-0.5,1.4-0.9,2.3-0.9c0.9,0,1.8,0.2,2.3,0.9
		c0.7,0.5,0.9,1.4,0.9,2.3v0.7c0,0.9-0.2,1.6-0.9,2.3c-0.7,0.7-1.4,0.9-2.3,0.9c-0.9,0-1.8-0.2-2.3-0.9c-0.7-0.5-0.9-1.4-0.9-2.3
		V552.9z M187.2,553.9c0,0.5,0,0.7,0.5,0.9c0.2,0.2,0.5,0.5,0.9,0.5s0.7-0.2,0.9-0.5c0.2-0.2,0.2-0.7,0.2-0.9v-0.7
		c0-0.5,0-0.7-0.2-0.9c-0.2-0.2-0.5-0.5-0.9-0.5s-0.7,0.2-0.9,0.5c-0.2,0.2-0.2,0.7-0.2,0.9v0.7H187.2z M189,563.6l-1.4-0.7
		l7.1-11.4l1.4,0.7L189,563.6z M192.4,561.1c0-0.9,0.2-1.6,0.9-2.3c0.7-0.5,1.4-0.9,2.3-0.9c0.9,0,1.8,0.2,2.3,0.9
		c0.7,0.5,0.9,1.4,0.9,2.3v0.7c0,0.9-0.2,1.6-0.9,2.3c-0.7,0.5-1.4,0.9-2.3,0.9c-0.9,0-1.8-0.2-2.3-0.9c-0.5-0.7-0.9-1.4-0.9-2.3
		V561.1z M194.2,562c0,0.5,0.2,0.7,0.5,0.9c0.2,0.2,0.5,0.5,0.9,0.5c0.9,0,1.1-0.5,1.1-1.4v-0.7c0-0.5-0.2-0.7-0.5-0.9
		c-0.2-0.2-0.5-0.5-0.9-0.5s-0.7,0.2-0.9,0.5c-0.2,0.2-0.2,0.7-0.2,0.9L194.2,562L194.2,562z"/>
</g>
<g>
	<path fill="#F6D448" d="M317.5,564.8h-3v-11.1l-3.4,1.1v-2.3l5.9-2h0.2v14.3H317.5z"/>
	<path fill="#F6D448" d="M323,568.4l-1.6-0.7l0.5-0.7c0.5-0.9,0.7-1.6,0.7-2.5v-2.3h2.5v2c0,0.7-0.2,1.6-0.5,2.3
		C324.1,567.3,323.7,568,323,568.4z"/>
	<path fill="#F6D448" d="M337.1,558.9c0,2-0.5,3.6-1.1,4.6c-0.7,0.9-2,1.6-3.6,1.6s-2.7-0.5-3.6-1.6c-0.9-1.1-1.4-2.5-1.4-4.6v-2.7
		c0-2,0.5-3.6,1.4-4.6c0.9-1.1,2-1.6,3.6-1.6s2.7,0.5,3.6,1.6c0.9,1.1,1.4,2.5,1.4,4.6v2.7H337.1z M334.2,555.9c0-1.1-0.2-2-0.5-2.7
		c-0.2-0.5-0.9-0.9-1.6-0.9s-1.1,0.2-1.6,0.7c-0.2,0.5-0.5,1.4-0.5,2.5v3.6c0,1.1,0.2,2,0.5,2.7c0.2,0.7,0.9,0.9,1.6,0.9
		s1.1-0.2,1.6-0.9c0.2-0.5,0.5-1.4,0.5-2.5V555.9z"/>
	<path fill="#F6D448" d="M346.9,550v2.3h-0.2c-1.4,0-2.3,0.5-3.2,0.9c-0.9,0.7-1.4,1.6-1.4,2.7c0.7-0.7,1.8-1.1,3-1.1
		c1.4,0,2.3,0.5,3,1.4c0.7,0.9,1.1,2,1.1,3.6c0,0.9-0.2,1.8-0.7,2.5c-0.5,0.7-0.9,1.4-1.8,1.8c-0.7,0.5-1.6,0.7-2.5,0.7
		c-1.6,0-2.7-0.5-3.6-1.6c-0.9-1.1-1.4-2.5-1.4-4.3v-1.1c0-1.6,0.2-3,0.9-4.1c0.7-1.1,1.4-2,2.5-2.7c1.1-0.7,2.5-0.9,3.9-0.9H346.9z
		 M343.9,557.5c-0.5,0-0.9,0.2-1.4,0.5c-0.5,0.2-0.7,0.5-0.9,0.9v0.9c0,0.9,0.2,1.8,0.7,2.3c0.5,0.5,0.9,0.9,1.6,0.9
		c0.7,0,1.1-0.2,1.6-0.7c0.5-0.5,0.7-1.1,0.7-1.8c0-0.7-0.2-1.4-0.7-1.8S344.6,557.5,343.9,557.5z"/>
	<path fill="#F6D448" d="M350.8,552.9c0-0.9,0.2-1.6,0.9-2.3c0.7-0.5,1.4-0.9,2.3-0.9s1.8,0.2,2.3,0.9c0.7,0.5,0.9,1.4,0.9,2.3v0.7
		c0,0.9-0.2,1.6-0.9,2.3c-0.7,0.7-1.4,0.9-2.3,0.9s-1.8-0.2-2.3-0.9c-0.7-0.5-0.9-1.4-0.9-2.3V552.9z M352.6,553.9
		c0,0.5,0,0.7,0.5,0.9c0.2,0.2,0.5,0.5,0.9,0.5s0.7-0.2,0.9-0.5c0.2-0.2,0.2-0.7,0.2-0.9v-0.7c0-0.5,0-0.7-0.2-0.9
		c-0.2-0.2-0.5-0.5-0.9-0.5s-0.7,0.2-0.9,0.5c-0.2,0.2-0.2,0.7-0.2,0.9v0.7H352.6z M354.4,563.6L353,563l7.1-11.4l1.4,0.7
		L354.4,563.6z M357.6,561.1c0-0.9,0.2-1.6,0.9-2.3c0.7-0.5,1.4-0.9,2.3-0.9s1.8,0.2,2.3,0.9c0.7,0.5,0.9,1.4,0.9,2.3v0.7
		c0,0.9-0.2,1.6-0.9,2.3c-0.7,0.5-1.4,0.9-2.3,0.9s-1.8-0.2-2.3-0.9c-0.5-0.7-0.9-1.4-0.9-2.3V561.1z M359.6,562
		c0,0.5,0.2,0.7,0.5,0.9c0.2,0.2,0.5,0.5,0.9,0.5c0.9,0,1.1-0.5,1.1-1.4v-0.7c0-0.5-0.2-0.7-0.5-0.9c-0.2-0.2-0.5-0.5-0.9-0.5
		s-0.7,0.2-0.9,0.5c-0.2,0.2-0.2,0.7-0.2,0.9V562z"/>
</g>
<g>
	<path fill="#91C1E4" d="M152.6,333c0,2-0.5,3.6-1.1,4.6s-2,1.6-3.6,1.6c-1.6,0-2.7-0.5-3.6-1.6c-0.9-1.1-1.4-2.5-1.4-4.6v-2.7
		c0-2,0.5-3.6,1.4-4.5c0.9-1.1,2-1.6,3.6-1.6s2.7,0.5,3.6,1.6s1.4,2.5,1.4,4.5v2.7H152.6z M149.9,330c0-1.1-0.2-2-0.5-2.7
		c-0.2-0.5-0.9-0.9-1.6-0.9c-0.7,0-1.1,0.2-1.6,0.7c-0.2,0.5-0.5,1.4-0.5,2.5v3.6c0,1.1,0.2,2,0.5,2.7c0.2,0.7,0.9,0.9,1.6,0.9
		c0.7,0,1.1-0.2,1.6-0.9c0.2-0.5,0.5-1.4,0.5-2.5V330z"/>
	<path fill="#91C1E4" d="M155.6,342.7l-1.6-0.7l0.5-0.7c0.5-0.9,0.7-1.6,0.7-2.5v-2.3h2.5v2c0,0.7-0.2,1.6-0.5,2.3
		C156.5,341.6,156,342.3,155.6,342.7z"/>
	<path fill="#91C1E4" d="M169.7,339.1h-10v-2l4.8-5c0.7-0.7,1.1-1.4,1.4-1.8c0.2-0.5,0.5-1.1,0.5-1.6c0-0.7-0.2-1.1-0.5-1.6
		c-0.2-0.5-0.7-0.5-1.4-0.5s-1.1,0.2-1.6,0.7c-0.5,0.5-0.5,1.1-0.5,1.8h-3c0-0.9,0.2-1.6,0.7-2.5c0.5-0.7,0.9-1.4,1.8-1.8
		c0.7-0.5,1.6-0.7,2.7-0.7c1.6,0,2.7,0.5,3.4,1.1c0.9,0.7,1.1,1.8,1.1,3c0,0.7-0.2,1.4-0.5,2.3c-0.2,0.9-0.9,1.6-1.8,2.5l-3.4,3.4
		h6.4v2.7L169.7,339.1L169.7,339.1z"/>
	<path fill="#91C1E4" d="M180.8,328.4c0,0.7-0.2,1.4-0.5,1.8c-0.5,0.5-0.9,0.9-1.4,1.4c0.7,0.2,1.4,0.9,1.6,1.4
		c0.5,0.7,0.7,1.4,0.7,2c0,1.4-0.5,2.3-1.4,3c-0.9,0.7-2,1.1-3.6,1.1c-1.6,0-2.7-0.5-3.6-1.1c-0.9-0.7-1.4-1.8-1.4-3
		c0-0.9,0.2-1.6,0.7-2c0.5-0.5,0.9-1.1,1.6-1.4c-0.7-0.2-1.1-0.7-1.4-1.4c-0.5-0.5-0.5-1.1-0.5-1.8c0-1.1,0.5-2.3,1.1-3
		c0.9-0.7,2-1.1,3.4-1.1s2.5,0.5,3.4,1.1C180.4,326.1,180.8,327.1,180.8,328.4z M178.3,334.8c0-0.7-0.2-1.1-0.5-1.6
		c-0.2-0.5-0.9-0.7-1.6-0.7c-0.7,0-1.1,0.2-1.4,0.5c-0.5,0.5-0.5,0.9-0.5,1.6c0,0.7,0.2,1.1,0.5,1.6c0.2,0.5,0.9,0.7,1.6,0.7
		c0.7,0,1.1-0.2,1.4-0.5C178.1,335.9,178.3,335.5,178.3,334.8z M177.9,328.4c0-0.5-0.2-0.9-0.5-1.4c-0.2-0.5-0.7-0.5-1.4-0.5
		c-0.5,0-0.9,0.2-1.4,0.5c-0.2,0.2-0.5,0.7-0.5,1.4s0.2,1.1,0.5,1.4c0.2,0.5,0.7,0.5,1.4,0.5c0.7,0,0.9-0.2,1.4-0.5
		C177.9,329.6,177.9,329.1,177.9,328.4z"/>
	<path fill="#91C1E4" d="M183.1,327.3c0-0.9,0.2-1.6,0.9-2.3c0.7-0.5,1.4-0.9,2.3-0.9c0.9,0,1.8,0.2,2.3,0.9
		c0.7,0.5,0.9,1.4,0.9,2.3v0.7c0,0.9-0.2,1.6-0.9,2.3c-0.7,0.7-1.4,0.9-2.3,0.9c-0.9,0-1.8-0.2-2.3-0.9c-0.7-0.5-0.9-1.4-0.9-2.3
		V327.3z M184.9,328c0,0.5,0,0.7,0.5,0.9c0.2,0.2,0.5,0.5,0.9,0.5s0.7-0.2,0.9-0.5c0.2-0.2,0.2-0.7,0.2-0.9v-0.7
		c0-0.5,0-0.7-0.2-0.9s-0.5-0.5-0.9-0.5s-0.7,0.2-0.9,0.5c-0.2,0.2-0.2,0.7-0.2,0.9v0.7H184.9z M186.7,338l-1.4-0.7l7.1-11.4
		l1.4,0.7L186.7,338z M190.2,335.5c0-0.9,0.2-1.6,0.9-2.3c0.7-0.5,1.4-0.9,2.3-0.9c0.9,0,1.8,0.2,2.3,0.9c0.7,0.5,0.9,1.4,0.9,2.3
		v0.7c0,0.9-0.2,1.6-0.9,2.3c-0.7,0.5-1.4,0.9-2.3,0.9c-0.9,0-1.8-0.2-2.3-0.9c-0.7-0.5-0.9-1.4-0.9-2.3V335.5z M192,336.4
		c0,0.5,0.2,0.7,0.5,0.9c0.2,0.2,0.5,0.5,0.9,0.5c0.9,0,1.1-0.5,1.1-1.4v-0.7c0-0.5-0.2-0.7-0.5-0.9s-0.5-0.5-0.9-0.5
		s-0.7,0.2-0.9,0.5c-0.2,0.2-0.2,0.7-0.2,0.9L192,336.4L192,336.4z"/>
</g>
<g>
	<path fill="#F4D256" d="M320.3,333c0,2-0.5,3.6-1.1,4.6s-2,1.6-3.6,1.6c-1.6,0-2.7-0.5-3.6-1.6s-1.4-2.5-1.4-4.6v-2.7
		c0-2,0.5-3.6,1.4-4.5c0.9-1.1,2-1.6,3.6-1.6c1.6,0,2.7,0.5,3.6,1.6s1.4,2.5,1.4,4.5v2.7H320.3z M317.3,330c0-1.1-0.2-2-0.5-2.7
		c-0.2-0.5-0.9-0.9-1.6-0.9c-0.7,0-1.1,0.2-1.6,0.7c-0.2,0.5-0.5,1.4-0.5,2.5v3.6c0,1.1,0.2,2,0.5,2.7c0.2,0.7,0.9,0.9,1.6,0.9
		s1.1-0.2,1.6-0.9c0.2-0.5,0.5-1.4,0.5-2.5V330z"/>
	<path fill="#F4D256" d="M323,342.7l-1.6-0.7l0.5-0.7c0.5-0.9,0.7-1.6,0.7-2.5v-2.3h2.5v2c0,0.7-0.2,1.6-0.5,2.3
		C324.1,341.6,323.7,342.3,323,342.7z"/>
	<path fill="#F4D256" d="M330.3,330.5h1.6c0.7,0,1.4-0.2,1.6-0.5c0.5-0.5,0.5-0.9,0.5-1.4c0-0.7-0.2-1.1-0.5-1.4
		c-0.5-0.2-0.9-0.5-1.4-0.5s-0.9,0.2-1.4,0.5c-0.5,0.2-0.5,0.7-0.5,1.1h-3.2c0-0.7,0.2-1.4,0.7-2c0.5-0.7,0.9-1.1,1.8-1.4
		c0.7-0.5,1.6-0.5,2.5-0.5c1.6,0,2.7,0.5,3.6,1.1c0.9,0.7,1.4,1.8,1.4,3c0,0.7-0.2,1.4-0.7,1.8c-0.5,0.5-0.9,0.9-1.6,1.4
		c0.9,0.2,1.4,0.7,1.8,1.4s0.7,1.4,0.7,2c0,1.4-0.5,2.3-1.4,3.2c-0.9,0.7-2.3,1.1-3.6,1.1s-2.7-0.5-3.6-1.1c-0.9-0.7-1.4-1.8-1.4-3
		h3c0,0.5,0.2,0.9,0.7,1.4c0.5,0.5,0.9,0.5,1.6,0.5s1.1-0.2,1.6-0.5c0.5-0.5,0.7-0.9,0.7-1.4c0-1.4-0.9-2.3-2.5-2.3h-1.6v-2.7
		L330.3,330.5L330.3,330.5z"/>
	<path fill="#F4D256" d="M345.8,333.2c-0.7,0.7-1.6,1.1-2.7,1.1c-1.4,0-2.3-0.5-3.2-1.4c-0.7-0.9-1.1-2-1.1-3.6
		c0-0.9,0.2-1.8,0.7-2.7c0.5-0.7,0.9-1.4,1.8-1.8c0.7-0.5,1.6-0.7,2.5-0.7c0.9,0,1.8,0.2,2.5,0.7c0.7,0.5,1.4,1.1,1.8,2
		c0.5,0.9,0.7,1.8,0.7,3.2v1.1c0,2.5-0.7,4.3-1.8,5.7c-1.1,1.4-3,2-5.2,2.3H341v-2.5h0.7C344.2,336.6,345.5,335.5,345.8,333.2z
		 M343.7,332.1c0.5,0,0.9-0.2,1.1-0.5c0.2-0.2,0.7-0.5,0.7-0.9v-1.1c0-0.9-0.2-1.8-0.5-2.3c-0.5-0.5-0.9-0.9-1.6-0.9
		s-1.1,0.2-1.4,0.7c-0.5,0.5-0.5,1.1-0.5,2c0,0.7,0.2,1.4,0.5,2C342.6,331.8,343.3,332.1,343.7,332.1z"/>
	<path fill="#F4D256" d="M350.8,327.3c0-0.9,0.2-1.6,0.9-2.3c0.7-0.5,1.4-0.9,2.3-0.9s1.8,0.2,2.3,0.9c0.7,0.5,0.9,1.4,0.9,2.3v0.7
		c0,0.9-0.2,1.6-0.9,2.3c-0.7,0.7-1.4,0.9-2.3,0.9s-1.8-0.2-2.3-0.9c-0.7-0.5-0.9-1.4-0.9-2.3V327.3z M352.6,328
		c0,0.5,0,0.7,0.5,0.9c0.2,0.2,0.5,0.5,0.9,0.5s0.7-0.2,0.9-0.5c0.2-0.2,0.2-0.7,0.2-0.9v-0.7c0-0.5,0-0.7-0.2-0.9
		c-0.2-0.2-0.5-0.5-0.9-0.5s-0.7,0.2-0.9,0.5c-0.2,0.2-0.2,0.7-0.2,0.9v0.7H352.6z M354.4,338l-1.4-0.7l7.1-11.4l1.4,0.7L354.4,338z
		 M357.6,335.5c0-0.9,0.2-1.6,0.9-2.3c0.7-0.5,1.4-0.9,2.3-0.9s1.8,0.2,2.3,0.9c0.7,0.5,0.9,1.4,0.9,2.3v0.7c0,0.9-0.2,1.6-0.9,2.3
		c-0.7,0.5-1.4,0.9-2.3,0.9s-1.8-0.2-2.3-0.9c-0.7-0.5-0.9-1.4-0.9-2.3V335.5z M359.6,336.4c0,0.5,0.2,0.7,0.5,0.9
		c0.2,0.2,0.5,0.5,0.9,0.5c0.9,0,1.1-0.5,1.1-1.4v-0.7c0-0.5-0.2-0.7-0.5-0.9c-0.2-0.2-0.5-0.5-0.9-0.5s-0.7,0.2-0.9,0.5
		c-0.2,0.2-0.2,0.7-0.2,0.9V336.4z"/>
</g>
<g>
	<path fill="#DB4E26" d="M469.3,339.1h-3V328l-3.4,1.1v-2.3l5.9-2h0.2v14.3L469.3,339.1L469.3,339.1z"/>
	<path fill="#DB4E26" d="M475,342.7l-1.6-0.7l0.5-0.7c0.5-0.9,0.7-1.6,0.7-2.5v-2.3h2.5v2c0,0.7-0.2,1.6-0.5,2.3
		C475.9,341.6,475.4,342.3,475,342.7z"/>
	<path fill="#DB4E26" d="M486.8,324.3v2.3h-0.2c-1.4,0-2.3,0.5-3.2,0.9c-0.9,0.7-1.4,1.6-1.4,2.7c0.7-0.7,1.8-1.1,3-1.1
		c1.4,0,2.3,0.5,3,1.4c0.7,0.9,1.1,2,1.1,3.6c0,0.9-0.2,1.8-0.7,2.5c-0.5,0.7-0.9,1.4-1.8,1.8c-0.7,0.5-1.6,0.7-2.5,0.7
		c-1.6,0-2.7-0.5-3.6-1.6s-1.4-2.5-1.4-4.3v-1.1c0-1.6,0.2-3,0.9-4.1c0.7-1.1,1.4-2,2.5-2.7s2.5-0.9,3.9-0.9L486.8,324.3
		L486.8,324.3z M484.1,331.6c-0.5,0-0.9,0.2-1.4,0.5c-0.5,0.2-0.7,0.5-0.9,0.9v0.9c0,0.9,0.2,1.8,0.7,2.3c0.5,0.5,0.9,0.9,1.6,0.9
		c0.7,0,1.1-0.2,1.6-0.7c0.5-0.5,0.7-1.1,0.7-1.8s-0.2-1.4-0.7-1.8C485.2,331.8,484.7,331.6,484.1,331.6z"/>
	<path fill="#DB4E26" d="M491.1,331.8l0.9-7.5h8.2v2.5h-5.7l-0.5,3.2c0.7-0.5,1.4-0.5,2.3-0.5c1.4,0,2.5,0.5,3.2,1.4
		c0.7,0.9,1.1,2,1.1,3.6c0,0.9-0.2,1.8-0.7,2.5c-0.5,0.7-0.9,1.4-1.6,1.8c-0.7,0.5-1.6,0.7-2.7,0.7c-0.9,0-1.6-0.2-2.5-0.5
		c-0.7-0.5-1.4-0.9-1.8-1.6c-0.5-0.7-0.7-1.4-0.7-2.3h3c0,0.7,0.2,1.1,0.7,1.4c0.5,0.2,0.9,0.5,1.4,0.5c0.7,0,1.1-0.2,1.6-0.7
		c0.5-0.5,0.5-1.1,0.5-2s-0.2-1.4-0.7-1.8c-0.5-0.5-0.9-0.7-1.8-0.7c-0.7,0-1.1,0.2-1.6,0.5l-0.2,0.2L491.1,331.8z"/>
	<path fill="#DB4E26" d="M502.5,327.3c0-0.9,0.2-1.6,0.9-2.3c0.7-0.5,1.4-0.9,2.3-0.9s1.8,0.2,2.3,0.9c0.7,0.5,0.9,1.4,0.9,2.3v0.7
		c0,0.9-0.2,1.6-0.9,2.3c-0.7,0.7-1.4,0.9-2.3,0.9s-1.8-0.2-2.3-0.9c-0.7-0.5-0.9-1.4-0.9-2.3V327.3z M504.3,328
		c0,0.5,0,0.7,0.5,0.9c0.2,0.2,0.5,0.5,0.9,0.5s0.7-0.2,0.9-0.5c0.2,0,0.2-0.5,0.2-0.9v-0.7c0-0.5,0-0.7-0.2-0.9
		c-0.2-0.2-0.5-0.5-0.9-0.5s-0.7,0.2-0.9,0.5c-0.2,0.2-0.2,0.7-0.2,0.9v0.7H504.3z M506.1,338l-1.4-0.7l7.1-11.4l1.4,0.7L506.1,338z
		 M509.5,335.5c0-0.9,0.2-1.6,0.9-2.3c0.7-0.5,1.4-0.9,2.3-0.9c0.9,0,1.8,0.2,2.3,0.9c0.7,0.5,0.9,1.4,0.9,2.3v0.7
		c0,0.9-0.2,1.6-0.9,2.3c-0.7,0.5-1.4,0.9-2.3,0.9c-0.9,0-1.8-0.2-2.3-0.9c-0.7-0.5-0.9-1.4-0.9-2.3V335.5z M511.4,336.4
		c0,0.5,0.2,0.7,0.5,0.9c0.2,0.2,0.5,0.5,0.9,0.5c0.9,0,1.1-0.5,1.1-1.4v-0.7c0-0.5-0.2-0.7-0.5-0.9s-0.5-0.5-0.9-0.5
		c-0.5,0-0.7,0.2-0.9,0.5c-0.2,0.2-0.2,0.7-0.2,0.9V336.4z"/>
</g>
</svg>
