<?xml version="1.0" encoding="utf-8"?>
<!-- Generator: Adobe Illustrator 18.1.1, SVG Export Plug-In . SVG Version: 6.00 Build 0)  -->
<svg version="1.1" id="Camada_1" xmlns="http://www.w3.org/2000/svg" xmlns:xlink="http://www.w3.org/1999/xlink" x="0px" y="0px"
	 viewBox="0 399.9 531 442" enable-background="new 0 399.9 531 442" xml:space="preserve">
<line fill="none" stroke="#FFFFFF" x1="183.6" y1="418.7" x2="183.6" y2="818.6"/>
<g>
	<rect x="186.9" y="718.1" fill="#D3EAF7" width="325.2" height="66.4"/>
</g>
<rect x="186.9" y="651.7" fill="#D5001E" width="60.6" height="66.4"/>
<rect x="186.9" y="585.6" fill="#DC9928" width="26" height="66.4"/>
<rect x="186.7" y="519.4" fill="#A1C8E7" width="17.4" height="66.4"/>
<rect x="186.7" y="453.1" fill="#F6D448" width="4.4" height="66.4"/>
<g>
	<g>
		<path fill="#FFFFFF" d="M31.1,486.8H24l-1.5,4.6h-1.3l5.7-16.5h1.3l5.7,16.5h-1.3L31.1,486.8z M24.5,485.7h6.2l-3.1-8.8l0,0
			L24.5,485.7z"/>
		<path fill="#FFFFFF" d="M40.3,490.5c0.9,0,1.5-0.2,2.2-0.7c0.7-0.4,0.9-1.3,0.9-2.2h1.1l0,0c0,1.1-0.4,2-1.3,2.9
			c-0.9,0.7-2,1.1-3.1,1.1c-1.5,0-2.9-0.7-3.7-1.8c-0.8-1.1-1.3-2.6-1.3-4.4V485c0-1.8,0.4-3.3,1.3-4.4c0.9-1.1,2-1.8,3.7-1.8
			c1.3,0,2.4,0.4,3.1,1.1c0.9,0.9,1.3,1.8,1.3,3.1l0,0h-1.1c0-0.9-0.2-1.8-0.9-2.4c-0.7-0.7-1.3-0.9-2.2-0.9c-1.3,0-2.2,0.4-2.9,1.3
			c-0.7,0.9-0.9,2.2-0.9,3.5v0.4c0,1.5,0.2,2.6,0.9,3.5C38.3,490.1,39.2,490.5,40.3,490.5z"/>
		<path fill="#FFFFFF" d="M49.1,475.5h-1.3v-2h1.3V475.5z M49.1,491.4h-1.3v-12.1h1.3V491.4z"/>
		<path fill="#FFFFFF" d="M53.8,479.1l0.2,2c0.4-0.7,0.9-1.3,1.5-1.5c0.7-0.4,1.3-0.7,2.2-0.7c0.9,0,1.5,0.2,2.2,0.7
			c0.7,0.4,1.1,1.1,1.3,2c0.4-0.9,0.9-1.5,1.5-2c0.7-0.4,1.5-0.7,2.4-0.7c1.3,0,2.2,0.4,2.9,1.3c0.7,0.9,1.1,2.2,1.1,4v7.1h-1.3
			v-7.1c0-1.5-0.2-2.6-0.9-3.1c-0.4-0.7-1.3-0.9-2.2-0.9c-1.1,0-1.8,0.2-2.2,0.9c-0.4,0.7-0.9,1.5-1.1,2.4v0.2v0.2v7.3h-1.3v-7.1
			c0-1.5-0.2-2.4-0.9-3.1c-0.4-0.7-1.3-0.9-2.2-0.9c-0.9,0-1.5,0.2-2.2,0.7c-0.4,0.4-0.9,1.1-1.1,2v8.6h-1.3v-12.1L53.8,479.1
			L53.8,479.1z"/>
		<path fill="#FFFFFF" d="M79.8,491.4c0-0.4-0.2-0.9-0.2-1.1c0-0.2,0-0.7,0-0.9c-0.4,0.7-0.9,1.1-1.8,1.5c-0.7,0.4-1.5,0.7-2.4,0.7
			c-1.1,0-2-0.2-2.6-0.9c-0.7-0.7-0.9-1.5-0.9-2.6s0.4-2,1.3-2.6c0.9-0.7,2.2-1.1,3.5-1.1h2.9v-1.5c0-0.9-0.2-1.5-0.9-2
			c-0.7-0.5-1.3-0.7-2.2-0.7s-1.5,0.2-2.2,0.7c-0.4,0.4-0.9,1.1-0.9,1.8h-1.1l0,0c0-0.9,0.4-1.8,1.1-2.4c0.9-0.7,1.8-1.1,3.1-1.1
			s2.4,0.4,3.1,1.1c0.9,0.7,1.1,1.8,1.1,2.9v6c0,0.4,0,0.9,0,1.3c0,0.4,0.2,0.9,0.2,1.1L79.8,491.4L79.8,491.4z M75.6,490.3
			c1.1,0,1.8-0.2,2.6-0.7c0.7-0.4,1.3-1.1,1.5-2v-2.4h-2.9c-1.1,0-2,0.2-2.6,0.9c-0.7,0.4-1.1,1.1-1.1,2c0,0.7,0.2,1.3,0.7,1.8
			C74.3,490.3,74.7,490.3,75.6,490.3z"/>
		<path fill="#FFFFFF" d="M89.3,485.5c0-2,0.4-3.5,1.1-4.6c0.9-1.1,2-1.8,3.3-1.8c0.9,0,1.5,0.2,2.2,0.4c0.7,0.4,1.1,0.9,1.5,1.5
			v-7.3h1.3v17.6h-1.1l-0.2-1.8c-0.4,0.7-0.9,1.1-1.5,1.5c-0.7,0.4-1.3,0.4-2.2,0.4c-1.3,0-2.4-0.4-3.3-1.5
			C89.5,488.8,89.3,487.3,89.3,485.5L89.3,485.5L89.3,485.5z M90.6,485.7c0,1.5,0.2,2.6,0.9,3.5c0.7,0.9,1.3,1.3,2.6,1.3
			c0.9,0,1.5-0.2,2.2-0.7c0.7-0.4,1.1-0.9,1.3-1.5v-6c-0.2-0.7-0.7-1.3-1.3-1.8c-0.4-0.4-1.3-0.7-2.2-0.7c-1.1,0-2,0.4-2.6,1.5
			c-0.7,0.9-0.9,2.2-0.9,3.7V485.7L90.6,485.7z"/>
		<path fill="#FFFFFF" d="M106.7,491.6c-1.5,0-2.9-0.7-3.7-1.8c-0.9-1.1-1.3-2.6-1.3-4.4v-0.7c0-1.8,0.4-3.3,1.5-4.4
			c0.9-1.1,2.2-1.8,3.5-1.8c1.3,0,2.6,0.4,3.3,1.3c0.9,0.9,1.1,2.2,1.1,3.7v1.1h-8.2v0.4c0,1.3,0.4,2.6,1.1,3.5
			c0.7,0.9,1.5,1.3,2.9,1.3c0.7,0,1.3-0.2,2-0.4s1.1-0.7,1.5-0.9l0.7,0.9c-0.4,0.4-0.9,0.9-1.5,1.1
			C108.5,491.4,107.6,491.6,106.7,491.6z M106.7,480.2c-1.1,0-1.8,0.4-2.4,1.1c-0.7,0.7-1.1,1.8-1.1,2.9l0,0h6.8v-0.3
			c0-1.1-0.2-2-0.9-2.6C108.5,480.4,107.6,480.2,106.7,480.2z"/>
		<path fill="#FFFFFF" d="M124.5,491.4h-1.3v-15.2l-3.7,0.4v-1.1l5.1-0.9L124.5,491.4L124.5,491.4z"/>
		<path fill="#FFFFFF" d="M140.9,485.7c0,2-0.4,3.3-1.3,4.4c-0.9,1.1-2,1.5-3.5,1.5c-1.5,0-2.6-0.4-3.5-1.5
			c-0.9-1.1-1.3-2.6-1.3-4.4v-4.9c0-1.8,0.4-3.3,1.3-4.4c0.9-1.1,2-1.5,3.5-1.5c1.5,0,2.6,0.4,3.5,1.5c0.9,1.1,1.3,2.6,1.3,4.4
			C140.9,480.8,140.9,485.7,140.9,485.7z M139.5,480.6c0-1.5-0.2-2.6-0.9-3.5s-1.5-1.3-2.6-1.3s-2,0.4-2.6,1.3
			c-0.7,0.9-0.9,2-0.9,3.3v5.3c0,1.3,0.2,2.6,0.9,3.5c0.7,0.9,1.5,1.3,2.6,1.3s2-0.4,2.6-1.3c0.7-0.9,0.9-2,0.9-3.5V480.6z"/>
		<path fill="#FFFFFF" d="M153.2,485.7c0,2-0.4,3.3-1.3,4.4c-0.9,1.1-2,1.5-3.5,1.5c-1.5,0-2.6-0.4-3.5-1.5
			c-0.9-1.1-1.3-2.6-1.3-4.4v-4.9c0-1.8,0.4-3.3,1.3-4.4c0.9-1.1,2-1.5,3.5-1.5c1.5,0,2.6,0.4,3.5,1.5c0.9,1.1,1.3,2.6,1.3,4.4
			C153.2,480.8,153.2,485.7,153.2,485.7z M151.9,480.6c0-1.5-0.2-2.6-0.9-3.5c-0.7-0.9-1.5-1.3-2.6-1.3c-1.1,0-2,0.4-2.6,1.3
			c-0.6,0.9-0.9,2-0.9,3.3v5.3c0,1.3,0.2,2.6,0.9,3.5c0.7,0.9,1.5,1.3,2.6,1.3c1.1,0,2-0.4,2.6-1.3c0.7-0.9,0.9-2,0.9-3.5V480.6
			L151.9,480.6z"/>
	</g>
</g>
<g>
	<g>
		<path fill="#FFFFFF" d="M53.6,559.3v-16.5h4.9c2,0,3.5,0.7,4.9,2c1.3,1.3,2,3.1,2,5.1v2.2c0,2.2-0.7,3.7-2,5.1
			c-1.3,1.3-2.9,2-4.9,2h-4.9V559.3z M54.9,544.1v14.1h3.5c1.5,0,2.9-0.7,4-1.8c1.1-1.1,1.5-2.6,1.5-4.4v-2.2c0-1.8-0.4-3.1-1.5-4.2
			c-1.1-1.1-2.2-1.8-4-1.8L54.9,544.1L54.9,544.1z"/>
		<path fill="#FFFFFF" d="M72.7,559.5c-1.5,0-2.9-0.7-3.7-1.8c-0.9-1.1-1.3-2.6-1.3-4.4v-0.4c0-1.8,0.4-3.3,1.5-4.4
			c0.9-1.1,2.2-1.8,3.5-1.8c1.3,0,2.6,0.4,3.3,1.3c0.9,0.9,1.1,2.2,1.1,3.7v1.1h-8.2v0.4c0,1.3,0.4,2.6,1.1,3.5
			c0.7,0.9,1.5,1.3,2.9,1.3c0.7,0,1.3-0.2,2-0.4s1.1-0.7,1.5-0.9l0.7,0.9c-0.4,0.4-0.9,0.9-1.5,1.1
			C74.5,559.5,73.6,559.5,72.7,559.5z M72.5,548.1c-1.1,0-1.8,0.4-2.4,1.1c-0.7,0.7-1.1,1.8-1.1,2.9l0,0h6.8v-0.2
			c0-1.1-0.2-2-0.9-2.6C74.3,548.5,73.6,548.1,72.5,548.1z"/>
		<path fill="#FFFFFF" d="M94.8,559.3h-9.7v-1.1l5.3-6.4c0.9-1.1,1.5-2,2-2.9c0.4-0.7,0.4-1.5,0.4-2.2c0-1.1-0.2-1.8-0.9-2.4
			c-0.4-0.7-1.3-0.9-2.2-0.9c-1.1,0-2,0.4-2.6,1.1c-0.7,0.7-0.9,1.5-0.9,2.6h-1.3l0,0c0-1.3,0.4-2.4,1.3-3.3c0.9-0.9,2-1.3,3.5-1.3
			c1.3,0,2.4,0.4,3.3,1.1c0.9,0.9,1.1,1.8,1.1,3.3c0,0.9-0.2,1.8-0.9,2.6c-0.4,0.9-1.3,2-2.2,3.3l-4.2,5.3l0,0h7.9L94.8,559.3
			L94.8,559.3L94.8,559.3z"/>
		<path fill="#FFFFFF" d="M106.9,553.6c0,2-0.4,3.3-1.3,4.4c-0.9,1.1-2,1.5-3.5,1.5c-1.5,0-2.6-0.4-3.5-1.5
			c-0.9-1.1-1.3-2.6-1.3-4.4v-4.9c0-1.8,0.4-3.3,1.3-4.4c0.9-1.1,2-1.5,3.5-1.5c1.5,0,2.6,0.4,3.5,1.5c0.9,1.1,1.3,2.6,1.3,4.4
			V553.6z M105.6,548.5c0-1.5-0.2-2.6-0.9-3.5c-0.7-0.9-1.5-1.3-2.6-1.3s-2,0.4-2.6,1.3c-0.6,0.9-0.9,2-0.9,3.3v5.3
			c0,1.3,0.2,2.6,0.9,3.5c0.7,0.9,1.5,1.3,2.6,1.3s2-0.4,2.6-1.3c0.7-0.9,0.9-2,0.9-3.5C105.6,553.8,105.6,548.5,105.6,548.5z"/>
		<path fill="#FFFFFF" d="M122.8,559.3c0-0.4-0.2-0.9-0.2-1.1c0-0.2,0-0.7,0-0.9c-0.4,0.7-0.9,1.3-1.8,1.5c-0.7,0.4-1.5,0.7-2.4,0.7
			c-1.1,0-2-0.2-2.6-0.9c-0.7-0.7-0.9-1.5-0.9-2.6c0-1.1,0.4-2,1.3-2.6c0.9-0.7,2.2-1.1,3.5-1.1h2.9v-1.5c0-0.9-0.2-1.5-0.9-2
			c-0.7-0.4-1.3-0.7-2.2-0.7s-1.5,0.2-2.2,0.7c-0.4,0.4-0.9,1.1-0.9,1.8h-1.1l0,0c0-0.9,0.4-1.8,1.1-2.4c0.9-0.7,1.8-1.1,3.1-1.1
			s2.4,0.4,3.1,1.1c0.9,0.7,1.1,1.8,1.1,2.9v6c0,0.4,0,0.9,0,1.3c0,0.4,0.2,0.9,0.2,1.1L122.8,559.3L122.8,559.3z M118.4,558.4
			c1.1,0,1.8-0.2,2.6-0.7c0.7-0.4,1.3-1.1,1.5-2v-2.4h-2.9c-1.1,0-2,0.2-2.6,0.9c-0.7,0.4-1.1,1.1-1.1,2c0,0.7,0.2,1.3,0.7,1.8
			C117.1,558.2,117.5,558.4,118.4,558.4z"/>
		<path fill="#FFFFFF" d="M136.5,558.4c1.1,0,2-0.4,2.9-1.1c0.7-0.9,1.1-2,1.1-3.3v-2.4c-0.4,0.7-0.9,1.1-1.5,1.5
			c-0.7,0.4-1.3,0.4-2.2,0.4c-1.5,0-2.6-0.4-3.5-1.5s-1.3-2.2-1.3-4c0-1.5,0.4-2.9,1.3-4c0.9-1.1,2-1.5,3.3-1.5
			c1.5,0,2.6,0.4,3.5,1.5c0.9,1.1,1.3,2.4,1.3,4.4v5.3c0,1.8-0.4,3.1-1.5,4.2c-1.1,1.1-2.2,1.5-3.7,1.5c-0.4,0-1.1,0-1.5-0.2
			c-0.7-0.2-1.1-0.2-1.5-0.4l0.2-1.1c0.4,0.2,0.9,0.4,1.3,0.4C135.4,558.4,136,558.4,136.5,558.4z M136.7,552.5
			c0.9,0,1.8-0.2,2.4-0.7c0.7-0.4,1.1-1.1,1.3-1.8v-1.5c0-1.5-0.2-2.6-0.9-3.3c-0.7-0.9-1.5-1.1-2.6-1.1s-1.8,0.4-2.4,1.3
			c-0.7,0.9-0.9,2-0.9,3.1s0.2,2.2,0.9,3.1C134.9,552,135.6,552.5,136.7,552.5z"/>
		<path fill="#FFFFFF" d="M149,558.4c1.1,0,2-0.4,2.9-1.1c0.7-0.9,1.1-2,1.1-3.3v-2.4c-0.4,0.7-0.9,1.1-1.5,1.5
			c-0.7,0.4-1.3,0.4-2.2,0.4c-1.5,0-2.6-0.4-3.5-1.5c-0.9-1.1-1.3-2.2-1.3-4c0-1.5,0.4-2.9,1.3-4c0.9-1.1,2-1.5,3.3-1.5
			c1.5,0,2.6,0.4,3.5,1.5c0.9,1.1,1.3,2.4,1.3,4.4v5.3c0,1.8-0.4,3.1-1.5,4.2c-1.1,1.1-2.2,1.5-3.7,1.5c-0.4,0-1.1,0-1.5-0.2
			c-0.7-0.2-1.1-0.2-1.5-0.4l0.2-1.1c0.4,0.2,0.9,0.4,1.3,0.4C147.7,558.4,148.4,558.4,149,558.4z M149,552.5c0.9,0,1.8-0.2,2.4-0.7
			c0.7-0.4,1.1-1.1,1.3-1.8v-1.5c0-1.5-0.2-2.6-0.9-3.3c-0.7-0.9-1.5-1.1-2.6-1.1c-1.1,0-1.8,0.4-2.4,1.3c-0.7,0.9-0.9,2-0.9,3.1
			s0.2,2.2,0.9,3.1C147.3,552,147.9,552.5,149,552.5z"/>
	</g>
</g>
<g>
	<g>
		<path fill="#FFFFFF" d="M66.3,627.4v-16.5h4.9c2,0,3.5,0.7,4.9,2c1.3,1.3,2,3.1,2,5.1v2.2c0,2.2-0.7,3.7-2,5.1
			c-1.3,1.3-2.9,2-4.9,2L66.3,627.4L66.3,627.4z M67.7,612.2v14.1h3.5c1.5,0,2.9-0.7,4-1.8c1.1-1.1,1.5-2.6,1.5-4.4v-2.2
			c0-1.8-0.4-3.1-1.5-4.2c-1.1-1.1-2.2-1.8-4-1.8L67.7,612.2L67.7,612.2z"/>
		<path fill="#FFFFFF" d="M85.5,627.7c-1.5,0-2.9-0.7-3.7-1.8c-0.9-1.1-1.3-2.6-1.3-4.4v-0.7c0-1.8,0.4-3.3,1.5-4.4
			c0.9-1.1,2.2-1.8,3.5-1.8s2.6,0.4,3.3,1.3c0.9,0.9,1.1,2.2,1.1,3.7v1.1h-8.2v0.4c0,1.3,0.4,2.6,1.1,3.5c0.7,0.9,1.5,1.3,2.9,1.3
			c0.7,0,1.3-0.2,2-0.4c0.7-0.2,1.1-0.7,1.5-0.9l0.7,0.9c-0.4,0.4-0.9,0.9-1.5,1.1C87.3,627.4,86.4,627.7,85.5,627.7z M85.3,616.2
			c-1.1,0-1.8,0.4-2.4,1.1c-0.7,0.7-1.1,1.8-1.1,2.9l0,0h6.8v-0.3c0-1.1-0.2-2-0.9-2.6C87.3,616.4,86.4,616.2,85.3,616.2z"/>
		<path fill="#FFFFFF" d="M98.3,619.9l0.9-9h7.7v1.3h-6.6l-0.7,6c0.4-0.4,0.9-0.7,1.3-0.9s1.1-0.2,2-0.4c1.3,0,2.4,0.4,3.3,1.3
			s1.3,2.2,1.3,4s-0.4,3.1-1.1,4c-0.9,1.1-2,1.5-3.5,1.5c-1.3,0-2.4-0.4-3.3-1.1c-0.9-0.7-1.3-2-1.3-3.3l0,0h1.1
			c0,1.1,0.2,2,0.9,2.6c0.7,0.7,1.3,0.9,2.4,0.9c1.1,0,2-0.4,2.6-1.1c0.7-0.7,0.9-1.8,0.9-3.3c0-1.3-0.2-2.2-0.9-2.9
			c-0.7-0.7-1.3-1.1-2.4-1.1s-1.8,0.2-2.2,0.4c-0.4,0.4-0.9,0.9-1.1,1.5L98.3,619.9z"/>
		<path fill="#FFFFFF" d="M123.2,627.4c0-0.4-0.2-0.9-0.2-1.1c0-0.2,0-0.7,0-0.9c-0.4,0.7-0.9,1.1-1.8,1.5c-0.7,0.4-1.5,0.7-2.4,0.7
			c-1.1,0-2-0.2-2.6-0.9c-0.7-0.7-0.9-1.5-0.9-2.6c0-1.1,0.4-2,1.3-2.6c0.9-0.7,2.2-1.1,3.5-1.1h2.9v-1.5c0-0.9-0.2-1.5-0.9-2
			c-0.4-0.4-1.3-0.7-2.2-0.7s-1.5,0.2-2.2,0.7c-0.4,0.4-0.9,1.1-0.9,1.8h-1.1l0,0c0-0.9,0.4-1.8,1.1-2.4c0.9-0.7,1.8-1.1,3.1-1.1
			s2.4,0.4,3.1,1.1c0.9,0.7,1.1,1.8,1.1,2.9v6c0,0.4,0,0.9,0,1.3s0.2,0.9,0.2,1.1L123.2,627.4L123.2,627.4z M118.8,626.6
			c1.1,0,1.8-0.2,2.6-0.7c0.7-0.4,1.3-1.1,1.5-2v-2.4H120c-1.1,0-2,0.2-2.6,0.9c-0.7,0.4-1.1,1.1-1.1,2c0,0.7,0.2,1.3,0.7,1.8
			C117.5,626.3,118.2,626.6,118.8,626.6z"/>
		<path fill="#FFFFFF" d="M138.7,627.4h-1.3v-15.2l-3.7,0.4v-1.1l5.1-0.9L138.7,627.4L138.7,627.4z"/>
		<path fill="#FFFFFF" d="M149.5,626.6c1.1,0,2-0.4,2.9-1.1c0.7-0.9,1.1-2,1.1-3.3v-2.4c-0.4,0.7-0.9,1.1-1.5,1.5
			c-0.7,0.4-1.3,0.4-2.2,0.4c-1.5,0-2.6-0.4-3.5-1.5c-0.9-0.9-1.3-2.2-1.3-4c0-1.5,0.4-2.9,1.3-4c0.9-1.1,2-1.5,3.3-1.5
			c1.5,0,2.6,0.4,3.5,1.5c0.9,1.1,1.3,2.4,1.3,4.4v5.3c0,1.8-0.4,3.1-1.5,4.2c-0.9,1.1-2.2,1.5-3.7,1.5c-0.4,0-1.1,0-1.5-0.2
			c-0.7-0.2-1.1-0.2-1.5-0.4l0.2-1.1c0.4,0.2,0.9,0.4,1.3,0.4C148.1,626.6,148.8,626.6,149.5,626.6z M149.5,620.6
			c0.9,0,1.8-0.2,2.4-0.7c0.7-0.4,1.1-1.1,1.3-1.8v-1.5c0-1.5-0.2-2.6-0.9-3.3c-0.7-0.9-1.5-1.1-2.6-1.1c-1.1,0-1.8,0.4-2.4,1.3
			c-0.7,0.9-0.9,2-0.9,3.1c0,1.1,0.2,2.2,0.9,3.1C147.7,620.2,148.6,620.6,149.5,620.6z"/>
	</g>
</g>
<g>
	<g>
		<path fill="#FFFFFF" d="M118.2,690.9h-7.1l-1.5,4.6h-1.3L114,679h1.3l5.7,16.5h-1.3L118.2,690.9z M111.5,689.6h6.2l-3.1-8.8l0,0
			L111.5,689.6z"/>
		<path fill="#FFFFFF" d="M125,680.1v3.1h2.6v1.1H125v7.9c0,0.9,0.2,1.3,0.4,1.8c0.2,0.4,0.7,0.4,1.1,0.4c0.2,0,0.2,0,0.4,0
			c0.2,0,0.2,0,0.4,0l0.2,1.1c-0.2,0-0.4,0.2-0.7,0.2c-0.2,0-0.4,0-0.7,0c-0.9,0-1.5-0.2-2-0.9c-0.4-0.4-0.7-1.3-0.7-2.6v-7.9h-2
			v-1.1h2v-3.1C123.7,680.1,125,680.1,125,680.1z"/>
		<path fill="#FFFFFF" d="M134.7,695.8c-1.5,0-2.9-0.7-3.7-1.8c-0.9-1.1-1.3-2.6-1.3-4.4v-0.7c0-1.8,0.4-3.3,1.5-4.4
			c0.9-1.1,2.2-1.8,3.5-1.8s2.6,0.4,3.3,1.3c0.9,0.9,1.1,2.2,1.1,3.7v1.1h-8.2v0.4c0,1.3,0.4,2.6,1.1,3.5c0.7,0.9,1.5,1.3,2.9,1.3
			c0.7,0,1.3-0.2,2-0.4c0.7-0.2,1.1-0.7,1.5-0.9l0.7,0.9c-0.4,0.4-0.9,0.9-1.5,1.1C136.5,695.6,135.6,695.8,134.7,695.8z
			 M134.5,684.1c-1.1,0-1.8,0.4-2.4,1.1c-0.7,0.7-1.1,1.8-1.1,2.9l0,0h6.8v-0.2c0-1.1-0.2-2-0.9-2.6
			C136.2,684.5,135.6,684.1,134.5,684.1z M136,677.9h1.5l0,0l-2.6,2.9h-1.1L136,677.9z"/>
		<path fill="#FFFFFF" d="M154.8,690.1h2.4v1.1h-2.4v4.2h-1.4v-4.2h-7.3v-0.9l7.1-11.5h1.3L154.8,690.1L154.8,690.1z M147.7,690.1
			h5.7v-9.3l0,0l-0.7,1.3L147.7,690.1z"/>
	</g>
</g>
<g>
	<g>
		<path fill="#FFFFFF" d="M157.8,757.7c0,2-0.4,3.3-1.3,4.4c-0.9,1.1-2,1.5-3.5,1.5s-2.6-0.4-3.5-1.5c-0.9-1.1-1.3-2.6-1.3-4.4v-4.8
			c0-1.8,0.4-3.3,1.3-4.4c0.9-1.1,2-1.5,3.5-1.5s2.6,0.4,3.5,1.5c0.9,1.1,1.3,2.6,1.3,4.4C157.8,752.9,157.8,757.7,157.8,757.7z
			 M156.5,752.7c0-1.5-0.2-2.6-0.9-3.5c-0.7-0.9-1.5-1.3-2.6-1.3s-2,0.4-2.6,1.3c-0.7,0.9-0.9,2-0.9,3.3v5.3c0,1.3,0.2,2.6,0.9,3.5
			c0.7,0.9,1.5,1.3,2.6,1.3s2-0.4,2.6-1.3c0.7-0.9,0.9-2,0.9-3.5V752.7L156.5,752.7z"/>
	</g>
</g>
<g enable-background="new    ">
	<path fill="#F6D448" d="M272.8,491.6h-4.3v-16.8l-5.2,1.6v-3.5l9.1-3.3h0.5v22H272.8z"/>
	<path fill="#F6D448" d="M280.4,489.5c0-0.7,0.2-1.3,0.7-1.7c0.5-0.4,1.1-0.6,1.8-0.6s1.3,0.2,1.8,0.6c0.5,0.4,0.7,1,0.7,1.7
		c0,0.7-0.2,1.2-0.7,1.7c-0.5,0.4-1.1,0.6-1.8,0.6s-1.3-0.2-1.8-0.6C280.6,490.7,280.4,490.2,280.4,489.5z"/>
	<path fill="#F6D448" d="M299.5,491.6h-4.4v-16.8l-5.2,1.6v-3.5l9.1-3.3h0.5L299.5,491.6L299.5,491.6z"/>
	<path fill="#F6D448" d="M321.7,491.6h-15v-3l7.1-7.6c1-1.1,1.7-2,2.2-2.8s0.7-1.5,0.7-2.3c0-1-0.2-1.7-0.7-2.3s-1.2-0.8-2.1-0.8
		c-1,0-1.8,0.3-2.3,1c-0.6,0.7-0.9,1.6-0.9,2.7h-4.4c0-1.3,0.3-2.6,1-3.7c0.6-1.1,1.5-2,2.7-2.6c1.2-0.6,2.5-0.9,4-0.9
		c2.3,0,4,0.5,5.3,1.6s1.9,2.6,1.9,4.6c0,1.1-0.3,2.2-0.8,3.3c-0.5,1.1-1.5,2.4-2.9,3.9l-5,5.3h9.4v3.6H321.7z"/>
	<path fill="#F6D448" d="M324.3,473.9c0-1.3,0.4-2.4,1.3-3.3c0.9-0.8,2-1.3,3.4-1.3c1.4,0,2.6,0.4,3.5,1.2c0.9,0.8,1.3,2,1.3,3.4
		v1.1c0,1.4-0.4,2.4-1.3,3.3c-0.9,0.8-2,1.2-3.4,1.2c-1.4,0-2.6-0.4-3.5-1.2c-0.9-0.8-1.3-1.9-1.3-3.4V473.9z M327.2,475.1
		c0,0.6,0.2,1.1,0.5,1.5c0.3,0.4,0.8,0.6,1.4,0.6s1-0.2,1.3-0.6c0.3-0.4,0.5-0.9,0.5-1.5v-1.2c0-0.6-0.2-1.1-0.5-1.5
		c-0.3-0.4-0.8-0.6-1.4-0.6c-0.6,0-1,0.2-1.3,0.6c-0.3,0.4-0.5,0.9-0.5,1.5V475.1z M329.9,490l-2.1-1.1l10.7-17.2l2.1,1.1L329.9,490
		z M334.8,486.2c0-1.4,0.4-2.4,1.3-3.3c0.9-0.8,2-1.2,3.4-1.2c1.4,0,2.6,0.4,3.5,1.2s1.3,1.9,1.3,3.4v1.1c0,1.3-0.4,2.4-1.3,3.3
		c-0.9,0.8-2,1.2-3.5,1.2c-1.4,0-2.6-0.4-3.5-1.3c-0.9-0.8-1.3-1.9-1.3-3.3v-1.1H334.8z M337.7,487.4c0,0.6,0.2,1,0.5,1.4
		c0.4,0.4,0.8,0.6,1.4,0.6c1.2,0,1.8-0.7,1.8-2v-1.2c0-0.6-0.2-1.1-0.5-1.5s-0.8-0.6-1.4-0.6s-1,0.2-1.4,0.6
		c-0.3,0.4-0.5,0.9-0.5,1.5v1.2H337.7z"/>
	<path fill="#F6D448" d="M355.2,482.7c0-2.3,0.3-4.5,0.9-6.6c0.6-2.1,1.5-3.9,2.7-5.5c1.2-1.6,2.5-2.7,3.9-3.3l0.8,2.4
		c-1.5,1.1-2.6,2.8-3.4,5c-0.8,2.3-1.2,4.9-1.2,8v0.5c0,3,0.4,5.7,1.2,8c0.8,2.3,2,4,3.5,5.1l-0.8,2.3c-1.4-0.6-2.6-1.7-3.8-3.2
		c-1.2-1.6-2.1-3.3-2.7-5.4c-0.6-2-1-4.1-1-6.4L355.2,482.7L355.2,482.7z"/>
	<path fill="#F6D448" d="M370.1,478.7h2.3c1.1,0,1.9-0.3,2.5-0.8c0.5-0.6,0.8-1.3,0.8-2.2s-0.3-1.6-0.8-2.1
		c-0.5-0.5-1.3-0.7-2.2-0.7c-0.8,0-1.5,0.2-2.1,0.7c-0.6,0.5-0.8,1.1-0.8,1.8h-4.4c0-1.1,0.3-2.2,0.9-3.1c0.6-0.9,1.5-1.6,2.6-2.1
		c1.1-0.5,2.3-0.8,3.7-0.8c2.3,0,4.1,0.6,5.5,1.7c1.3,1.1,2,2.6,2,4.6c0,1-0.3,1.9-0.9,2.8c-0.6,0.8-1.4,1.5-2.4,1.9
		c1.2,0.4,2.2,1.1,2.8,2c0.6,0.9,0.9,1.9,0.9,3.1c0,1.9-0.7,3.5-2.1,4.7c-1.4,1.2-3.3,1.8-5.6,1.8c-2.2,0-4-0.6-5.4-1.7
		c-1.4-1.1-2.1-2.7-2.1-4.6h4.4c0,0.8,0.3,1.5,0.9,2c0.6,0.5,1.4,0.8,2.3,0.8c1,0,1.8-0.3,2.4-0.8c0.6-0.5,0.9-1.3,0.9-2.2
		c0-2.2-1.2-3.3-3.6-3.3h-2.3v-3.5H370.1z"/>
	<path fill="#F6D448" d="M383.8,489.5c0-0.7,0.2-1.3,0.7-1.7c0.5-0.4,1.1-0.6,1.8-0.6c0.7,0,1.3,0.2,1.8,0.6c0.5,0.4,0.7,1,0.7,1.7
		c0,0.7-0.2,1.2-0.7,1.7c-0.5,0.4-1.1,0.6-1.8,0.6c-0.7,0-1.3-0.2-1.8-0.6C384,490.7,383.8,490.2,383.8,489.5z"/>
	<path fill="#F6D448" d="M404.2,469.5v3.6h-0.4c-2,0-3.6,0.5-4.8,1.5s-1.9,2.4-2.2,4.1c1.2-1.2,2.6-1.8,4.4-1.8c1.9,0,3.4,0.7,4.6,2
		c1.1,1.4,1.7,3.2,1.7,5.4c0,1.4-0.3,2.7-0.9,3.9c-0.6,1.2-1.5,2.1-2.6,2.7c-1.1,0.6-2.4,1-3.8,1c-2.3,0-4.2-0.8-5.6-2.4
		c-1.4-1.6-2.1-3.8-2.1-6.4v-1.6c0-2.4,0.4-4.5,1.3-6.3c0.9-1.8,2.2-3.2,3.9-4.2c1.7-1,3.6-1.5,5.9-1.5H404.2z M399.9,480.5
		c-0.7,0-1.3,0.2-1.9,0.5c-0.6,0.4-1,0.9-1.3,1.5v1.3c0,1.5,0.3,2.6,0.9,3.4c0.6,0.8,1.4,1.2,2.4,1.2c0.9,0,1.7-0.4,2.3-1.1
		c0.6-0.7,0.9-1.7,0.9-2.9c0-1.2-0.3-2.2-0.9-2.9C401.7,480.8,400.9,480.5,399.9,480.5z"/>
	<path fill="#F6D448" d="M420.6,491.6h-4.4v-16.8l-5.2,1.6v-3.5l9.1-3.3h0.5V491.6z"/>
	<path fill="#F6D448" d="M432.2,478.7h2.3c1.1,0,1.9-0.3,2.5-0.8c0.5-0.6,0.8-1.3,0.8-2.2s-0.3-1.6-0.8-2.1
		c-0.5-0.5-1.3-0.7-2.2-0.7c-0.8,0-1.5,0.2-2.1,0.7c-0.6,0.5-0.8,1.1-0.8,1.8h-4.4c0-1.1,0.3-2.2,0.9-3.1c0.6-0.9,1.5-1.6,2.6-2.1
		c1.1-0.5,2.3-0.8,3.7-0.8c2.3,0,4.1,0.6,5.5,1.7c1.3,1.1,2,2.6,2,4.6c0,1-0.3,1.9-0.9,2.8c-0.6,0.8-1.4,1.5-2.4,1.9
		c1.2,0.4,2.2,1.1,2.8,2c0.6,0.9,0.9,1.9,0.9,3.1c0,1.9-0.7,3.5-2.1,4.7c-1.4,1.2-3.3,1.8-5.6,1.8c-2.2,0-4-0.6-5.4-1.7
		c-1.4-1.1-2.1-2.7-2.1-4.6h4.4c0,0.8,0.3,1.5,0.9,2c0.6,0.5,1.4,0.8,2.3,0.8c1,0,1.8-0.3,2.4-0.8c0.6-0.5,0.9-1.3,0.9-2.2
		c0-2.2-1.2-3.3-3.6-3.3h-2.3v-3.5H432.2z"/>
	<path fill="#F6D448" d="M453.2,483c0,2.3-0.3,4.5-1,6.6c-0.7,2.1-1.6,4-2.8,5.6c-1.2,1.6-2.5,2.7-3.9,3.3l-0.8-2.3
		c1.4-1.1,2.6-2.7,3.4-5c0.8-2.2,1.3-4.8,1.3-7.7v-0.8c0-3-0.4-5.7-1.2-7.9c-0.8-2.3-2-4-3.4-5.2l0.8-2.3c1.4,0.6,2.7,1.7,3.9,3.2
		c1.2,1.6,2.2,3.4,2.8,5.4c0.7,2.1,1,4.2,1,6.4L453.2,483L453.2,483z"/>
</g>
<g enable-background="new    ">
	<path fill="#A1C8E7" d="M266.7,546.7h2.3c1.1,0,1.9-0.3,2.5-0.8c0.5-0.6,0.8-1.3,0.8-2.2c0-0.9-0.3-1.6-0.8-2.1
		c-0.5-0.5-1.3-0.7-2.2-0.7c-0.8,0-1.5,0.2-2.1,0.7c-0.6,0.5-0.8,1.1-0.8,1.8H262c0-1.1,0.3-2.2,0.9-3.1c0.6-0.9,1.5-1.6,2.6-2.1
		c1.1-0.5,2.3-0.8,3.7-0.8c2.3,0,4.1,0.6,5.5,1.7c1.3,1.1,2,2.6,2,4.6c0,1-0.3,1.9-0.9,2.8c-0.6,0.8-1.4,1.5-2.4,1.9
		c1.2,0.4,2.2,1.1,2.8,2c0.6,0.9,0.9,1.9,0.9,3.1c0,1.9-0.7,3.5-2.1,4.7c-1.4,1.2-3.3,1.8-5.6,1.8c-2.2,0-4-0.6-5.4-1.7
		c-1.4-1.1-2.1-2.7-2.1-4.6h4.4c0,0.8,0.3,1.5,0.9,2s1.4,0.8,2.3,0.8c1,0,1.8-0.3,2.4-0.8s0.9-1.3,0.9-2.2c0-2.2-1.2-3.3-3.6-3.3
		h-2.3v-3.5H266.7z"/>
	<path fill="#A1C8E7" d="M280.4,557.5c0-0.7,0.2-1.3,0.7-1.7c0.5-0.4,1.1-0.6,1.8-0.6s1.3,0.2,1.8,0.6c0.5,0.4,0.7,1,0.7,1.7
		s-0.2,1.2-0.7,1.7c-0.5,0.4-1.1,0.6-1.8,0.6s-1.3-0.2-1.8-0.6C280.6,558.7,280.4,558.2,280.4,557.5z"/>
	<path fill="#A1C8E7" d="M301.8,551.4h2.5v3.5h-2.5v4.7h-4.3v-4.7h-9l-0.2-2.7l9.1-14.5h4.4V551.4z M292.6,551.4h4.9v-7.7l-0.3,0.5
		L292.6,551.4z"/>
	<path fill="#A1C8E7" d="M307.3,548.8l1.3-11.2h12.3v3.6h-8.7l-0.5,4.7c1-0.6,2.1-0.8,3.3-0.8c2.1,0,3.7,0.6,4.9,1.9
		c1.2,1.3,1.8,3.1,1.8,5.4c0,1.4-0.3,2.7-0.9,3.8c-0.6,1.1-1.5,2-2.6,2.6c-1.1,0.6-2.4,0.9-3.9,0.9c-1.3,0-2.6-0.3-3.7-0.8
		c-1.1-0.5-2-1.3-2.7-2.3c-0.7-1-1-2.1-1-3.3h4.3c0.1,0.9,0.4,1.6,1,2.1c0.5,0.5,1.3,0.8,2.1,0.8c1,0,1.7-0.4,2.3-1.1
		c0.5-0.7,0.8-1.7,0.8-3c0-1.2-0.3-2.2-0.9-2.9c-0.6-0.7-1.5-1-2.6-1c-1,0-1.9,0.3-2.5,0.8l-0.4,0.4L307.3,548.8z"/>
	<path fill="#A1C8E7" d="M324.3,541.9c0-1.3,0.4-2.4,1.3-3.3c0.9-0.8,2-1.3,3.4-1.3c1.4,0,2.6,0.4,3.5,1.2c0.9,0.8,1.3,2,1.3,3.4
		v1.1c0,1.4-0.4,2.4-1.3,3.3c-0.9,0.8-2,1.2-3.4,1.2c-1.4,0-2.6-0.4-3.5-1.2c-0.9-0.8-1.3-1.9-1.3-3.4V541.9z M327.2,543.1
		c0,0.6,0.2,1.1,0.5,1.5s0.8,0.6,1.4,0.6s1-0.2,1.3-0.6s0.5-0.9,0.5-1.5v-1.2c0-0.6-0.2-1.1-0.5-1.5c-0.3-0.4-0.8-0.6-1.4-0.6
		c-0.6,0-1,0.2-1.3,0.6c-0.3,0.4-0.5,0.9-0.5,1.5V543.1z M329.9,558l-2.1-1.1l10.7-17.2l2.1,1.1L329.9,558z M334.8,554.3
		c0-1.4,0.4-2.4,1.3-3.3c0.9-0.8,2-1.2,3.4-1.2c1.4,0,2.6,0.4,3.5,1.2c0.9,0.8,1.3,1.9,1.3,3.4v1.1c0,1.3-0.4,2.4-1.3,3.3
		c-0.9,0.8-2,1.2-3.5,1.2c-1.4,0-2.6-0.4-3.5-1.3c-0.9-0.8-1.3-1.9-1.3-3.3v-1.1H334.8z M337.7,555.5c0,0.6,0.2,1,0.5,1.4
		c0.4,0.4,0.8,0.6,1.4,0.6c1.2,0,1.8-0.7,1.8-2v-1.2c0-0.6-0.2-1.1-0.5-1.5c-0.3-0.4-0.8-0.6-1.4-0.6s-1,0.2-1.4,0.6
		c-0.3,0.4-0.5,0.9-0.5,1.5v1.2H337.7z"/>
	<path fill="#A1C8E7" d="M355.2,550.7c0-2.3,0.3-4.5,0.9-6.6c0.6-2.1,1.5-3.9,2.7-5.5c1.2-1.6,2.5-2.7,3.9-3.3l0.8,2.4
		c-1.5,1.1-2.6,2.8-3.4,5c-0.8,2.3-1.2,4.9-1.2,8v0.5c0,3,0.4,5.7,1.2,8c0.8,2.3,2,4,3.5,5.1l-0.8,2.3c-1.4-0.6-2.6-1.7-3.8-3.2
		c-1.2-1.6-2.1-3.3-2.7-5.4c-0.6-2-1-4.1-1-6.4L355.2,550.7L355.2,550.7z"/>
	<path fill="#A1C8E7" d="M376.2,559.6h-4.4v-16.8l-5.2,1.6v-3.5l9.1-3.3h0.5L376.2,559.6L376.2,559.6z"/>
	<path fill="#A1C8E7" d="M394,559.6h-4.4v-16.8l-5.2,1.6v-3.5l9.1-3.3h0.5L394,559.6L394,559.6z"/>
	<path fill="#A1C8E7" d="M401.5,557.5c0-0.7,0.2-1.3,0.7-1.7c0.5-0.4,1.1-0.6,1.8-0.6c0.7,0,1.3,0.2,1.8,0.6s0.7,1,0.7,1.7
		s-0.2,1.2-0.7,1.7c-0.5,0.4-1.1,0.6-1.8,0.6c-0.7,0-1.3-0.2-1.8-0.6C401.7,558.7,401.5,558.2,401.5,557.5z"/>
	<path fill="#A1C8E7" d="M420.6,559.6h-4.4v-16.8l-5.2,1.6v-3.5l9.1-3.3h0.5V559.6z"/>
	<path fill="#A1C8E7" d="M442.8,559.6h-15v-3l7.1-7.6c1-1.1,1.7-2,2.2-2.8c0.5-0.8,0.7-1.5,0.7-2.3c0-1-0.2-1.7-0.7-2.3
		c-0.5-0.6-1.2-0.8-2.1-0.8c-1,0-1.8,0.3-2.3,1c-0.6,0.7-0.9,1.6-0.9,2.7h-4.4c0-1.3,0.3-2.6,1-3.7c0.6-1.1,1.5-2,2.7-2.6
		c1.2-0.6,2.5-0.9,4-0.9c2.3,0,4,0.5,5.3,1.6c1.3,1.1,1.9,2.6,1.9,4.6c0,1.1-0.3,2.2-0.8,3.3c-0.5,1.1-1.5,2.4-2.9,3.9l-5,5.3h9.4
		v3.6H442.8z"/>
	<path fill="#A1C8E7" d="M456.1,559.6h-4.4v-16.8l-5.2,1.6v-3.5l9.1-3.3h0.5V559.6z"/>
	<path fill="#A1C8E7" d="M470.9,551.1c0,2.3-0.3,4.5-1,6.6s-1.6,4-2.8,5.6c-1.2,1.6-2.5,2.7-3.9,3.3l-0.8-2.3c1.4-1.1,2.6-2.7,3.4-5
		c0.8-2.2,1.3-4.8,1.3-7.7v-0.8c0-3-0.4-5.7-1.2-7.9c-0.8-2.3-2-4-3.4-5.2l0.8-2.3c1.4,0.6,2.7,1.7,3.9,3.2c1.2,1.5,2.2,3.4,2.8,5.4
		c0.7,2.1,1,4.2,1,6.4L470.9,551.1L470.9,551.1z"/>
</g>
<g enable-background="new    ">
	<path fill="#DC9928" d="M274.1,605.5v3.6h-0.4c-2,0-3.6,0.5-4.8,1.5c-1.2,1-1.9,2.4-2.2,4.1c1.2-1.2,2.6-1.8,4.4-1.8
		c1.9,0,3.4,0.7,4.6,2c1.1,1.4,1.7,3.2,1.7,5.4c0,1.4-0.3,2.7-0.9,3.9c-0.6,1.2-1.5,2.1-2.6,2.7c-1.1,0.6-2.4,1-3.8,1
		c-2.3,0-4.2-0.8-5.6-2.4c-1.4-1.6-2.1-3.8-2.1-6.4v-1.6c0-2.4,0.4-4.5,1.3-6.3s2.2-3.2,3.9-4.2c1.7-1,3.6-1.5,5.9-1.5H274.1z
		 M269.8,616.5c-0.7,0-1.3,0.2-1.9,0.5c-0.6,0.4-1,0.9-1.3,1.5v1.3c0,1.5,0.3,2.6,0.9,3.4c0.6,0.8,1.4,1.2,2.4,1.2
		c0.9,0,1.7-0.4,2.3-1.1c0.6-0.7,0.9-1.7,0.9-2.9c0-1.2-0.3-2.2-0.9-2.9C271.6,616.9,270.8,616.5,269.8,616.5z"/>
	<path fill="#DC9928" d="M280.4,625.5c0-0.7,0.2-1.3,0.7-1.7c0.5-0.4,1.1-0.6,1.8-0.6s1.3,0.2,1.8,0.6c0.5,0.4,0.7,1,0.7,1.7
		c0,0.7-0.2,1.2-0.7,1.7c-0.5,0.4-1.1,0.6-1.8,0.6s-1.3-0.2-1.8-0.6C280.6,626.8,280.4,626.2,280.4,625.5z"/>
	<path fill="#DC9928" d="M303.2,611.6c0,1.1-0.3,2-0.8,2.8c-0.5,0.8-1.3,1.5-2.2,2c1.1,0.5,1.9,1.2,2.5,2.1s0.9,2,0.9,3.2
		c0,1.9-0.7,3.5-2,4.6c-1.3,1.1-3.1,1.7-5.4,1.7c-2.3,0-4.1-0.6-5.4-1.7c-1.3-1.1-2-2.7-2-4.6c0-1.2,0.3-2.3,0.9-3.2
		c0.6-0.9,1.5-1.6,2.5-2.1c-0.9-0.5-1.7-1.2-2.2-2c-0.5-0.8-0.8-1.8-0.8-2.8c0-1.9,0.6-3.4,1.9-4.5c1.2-1.1,2.9-1.7,5.1-1.7
		c2.1,0,3.8,0.5,5.1,1.7C302.6,608.2,303.2,609.7,303.2,611.6z M299.3,621.3c0-1-0.3-1.7-0.8-2.3c-0.6-0.6-1.3-0.9-2.2-0.9
		s-1.7,0.3-2.2,0.9c-0.6,0.6-0.8,1.3-0.8,2.3c0,0.9,0.3,1.7,0.8,2.3c0.5,0.6,1.3,0.9,2.3,0.9c0.9,0,1.7-0.3,2.2-0.8
		C299.1,623.2,299.3,622.3,299.3,621.3z M298.9,611.8c0-0.9-0.2-1.5-0.7-2.1c-0.5-0.5-1.1-0.8-1.9-0.8s-1.4,0.3-1.9,0.8
		c-0.5,0.5-0.7,1.2-0.7,2.1c0,0.9,0.2,1.6,0.7,2.1c0.5,0.5,1.1,0.8,1.9,0.8s1.5-0.3,1.9-0.8C298.7,613.3,298.9,612.6,298.9,611.8z"
		/>
	<path fill="#DC9928" d="M321.4,618.6c0,3-0.6,5.4-1.9,7s-3.1,2.4-5.5,2.4c-2.4,0-4.2-0.8-5.5-2.4c-1.3-1.6-1.9-3.8-1.9-6.8v-4
		c0-3.1,0.6-5.4,1.9-7c1.3-1.6,3.1-2.4,5.5-2.4c2.4,0,4.2,0.8,5.5,2.4c1.3,1.6,1.9,3.8,1.9,6.8V618.6z M317.1,614.2
		c0-1.8-0.2-3.1-0.7-4c-0.5-0.8-1.3-1.2-2.3-1.2s-1.8,0.4-2.3,1.2c-0.5,0.8-0.7,2-0.8,3.7v5.3c0,1.8,0.2,3.1,0.7,4
		c0.5,0.9,1.3,1.3,2.3,1.3c1.1,0,1.8-0.4,2.3-1.3c0.5-0.8,0.7-2.1,0.7-3.8v-5.2H317.1z"/>
	<path fill="#DC9928" d="M324.3,609.9c0-1.3,0.4-2.4,1.3-3.3c0.9-0.8,2-1.3,3.4-1.3c1.4,0,2.6,0.4,3.5,1.2c0.9,0.8,1.3,2,1.3,3.4
		v1.1c0,1.4-0.4,2.4-1.3,3.3c-0.9,0.8-2,1.2-3.4,1.2c-1.4,0-2.6-0.4-3.5-1.2c-0.9-0.8-1.3-1.9-1.3-3.4V609.9z M327.2,611.1
		c0,0.6,0.2,1.1,0.5,1.5s0.8,0.6,1.4,0.6s1-0.2,1.3-0.6s0.5-0.9,0.5-1.5V610c0-0.6-0.2-1.1-0.5-1.5s-0.8-0.6-1.4-0.6
		c-0.6,0-1,0.2-1.3,0.6c-0.3,0.4-0.5,0.9-0.5,1.5V611.1z M329.9,626l-2.1-1.1l10.7-17.2l2.1,1.1L329.9,626z M334.8,622.3
		c0-1.4,0.4-2.4,1.3-3.3c0.9-0.8,2-1.2,3.4-1.2c1.4,0,2.6,0.4,3.5,1.2c0.9,0.8,1.3,1.9,1.3,3.4v1.1c0,1.3-0.4,2.4-1.3,3.3
		c-0.9,0.8-2,1.2-3.5,1.2c-1.4,0-2.6-0.4-3.5-1.3c-0.9-0.8-1.3-1.9-1.3-3.3v-1.1H334.8z M337.7,623.5c0,0.6,0.2,1,0.5,1.4
		c0.4,0.4,0.8,0.6,1.4,0.6c1.2,0,1.8-0.7,1.8-2v-1.2c0-0.6-0.2-1.1-0.5-1.5c-0.3-0.4-0.8-0.6-1.4-0.6s-1,0.2-1.4,0.6
		c-0.3,0.4-0.5,0.9-0.5,1.5v1.2H337.7z"/>
	<path fill="#DC9928" d="M355.2,618.7c0-2.3,0.3-4.5,0.9-6.6s1.5-3.9,2.7-5.5s2.5-2.7,3.9-3.3l0.8,2.4c-1.5,1.1-2.6,2.8-3.4,5
		c-0.8,2.3-1.2,4.9-1.2,8v0.5c0,3,0.4,5.7,1.2,8c0.8,2.3,2,4,3.5,5.1l-0.8,2.3c-1.4-0.6-2.6-1.7-3.8-3.2c-1.2-1.6-2.1-3.3-2.7-5.4
		c-0.6-2-1-4.1-1-6.4L355.2,618.7L355.2,618.7z"/>
	<path fill="#DC9928" d="M380.7,627.7h-15v-3l7.1-7.6c1-1.1,1.7-2,2.2-2.8c0.5-0.8,0.7-1.5,0.7-2.3c0-1-0.2-1.7-0.7-2.3
		c-0.5-0.6-1.2-0.8-2.1-0.8c-1,0-1.8,0.3-2.3,1c-0.6,0.7-0.9,1.6-0.9,2.7h-4.4c0-1.3,0.3-2.6,1-3.7c0.6-1.1,1.5-2,2.7-2.6
		c1.2-0.6,2.5-0.9,4-0.9c2.3,0,4,0.5,5.3,1.6c1.3,1.1,1.9,2.6,1.9,4.6c0,1.1-0.3,2.2-0.8,3.3c-0.5,1.1-1.5,2.4-2.9,3.9l-5,5.3h9.4
		v3.6H380.7z"/>
	<path fill="#DC9928" d="M394,627.7h-4.4v-16.8l-5.2,1.6V609l9.1-3.3h0.5L394,627.7L394,627.7z"/>
	<path fill="#DC9928" d="M401.5,625.5c0-0.7,0.2-1.3,0.7-1.7c0.5-0.4,1.1-0.6,1.8-0.6c0.7,0,1.3,0.2,1.8,0.6c0.5,0.4,0.7,1,0.7,1.7
		c0,0.7-0.2,1.2-0.7,1.7c-0.5,0.4-1.1,0.6-1.8,0.6c-0.7,0-1.3-0.2-1.8-0.6C401.7,626.8,401.5,626.2,401.5,625.5z"/>
	<path fill="#DC9928" d="M420.2,618.9c-1.1,1.1-2.5,1.7-4,1.7c-1.9,0-3.5-0.7-4.7-2c-1.2-1.3-1.7-3.1-1.7-5.4c0-1.4,0.3-2.8,0.9-4
		c0.6-1.2,1.5-2.1,2.6-2.8c1.1-0.7,2.4-1,3.8-1c1.4,0,2.7,0.4,3.9,1.1c1.1,0.7,2,1.8,2.6,3.1c0.6,1.4,0.9,2.9,0.9,4.7v1.6
		c0,3.7-0.9,6.5-2.7,8.6c-1.8,2.1-4.4,3.2-7.7,3.3H413v-3.6h1C417.9,624.1,419.9,622.3,420.2,618.9z M417.3,617.2
		c0.7,0,1.3-0.2,1.8-0.5c0.5-0.4,0.9-0.8,1.2-1.3v-1.8c0-1.5-0.3-2.6-0.8-3.4c-0.6-0.8-1.3-1.2-2.3-1.2c-0.9,0-1.6,0.4-2.2,1.2
		c-0.6,0.8-0.8,1.8-0.8,3c0,1.2,0.3,2.2,0.8,2.9C415.5,616.8,416.3,617.2,417.3,617.2z"/>
	<path fill="#DC9928" d="M440.6,619.4h2.5v3.5h-2.5v4.7h-4.4v-4.7h-9l-0.2-2.7l9.1-14.5h4.4v13.7H440.6z M431.4,619.4h4.9v-7.7
		l-0.3,0.5L431.4,619.4z"/>
	<path fill="#DC9928" d="M460.5,627.7h-15v-3l7.1-7.6c1-1.1,1.7-2,2.2-2.8c0.5-0.8,0.7-1.5,0.7-2.3c0-1-0.2-1.7-0.7-2.3
		c-0.5-0.6-1.2-0.8-2.1-0.8c-1,0-1.8,0.3-2.3,1c-0.6,0.7-0.9,1.6-0.9,2.7h-4.4c0-1.3,0.3-2.6,1-3.7c0.6-1.1,1.5-2,2.7-2.6
		c1.2-0.6,2.5-0.9,4-0.9c2.3,0,4,0.5,5.3,1.6c1.3,1.1,1.9,2.6,1.9,4.6c0,1.1-0.3,2.2-0.8,3.3c-0.5,1.1-1.5,2.4-2.9,3.9l-5,5.3h9.4
		v3.6H460.5z"/>
	<path fill="#DC9928" d="M470.9,619.1c0,2.3-0.3,4.5-1,6.6c-0.7,2.1-1.6,4-2.8,5.6c-1.2,1.6-2.5,2.7-3.9,3.3l-0.8-2.3
		c1.4-1.1,2.6-2.7,3.4-5c0.8-2.2,1.3-4.8,1.3-7.7v-0.8c0-3-0.4-5.7-1.2-7.9c-0.8-2.3-2-4-3.4-5.2l0.8-2.3c1.4,0.6,2.7,1.7,3.9,3.2
		s2.2,3.4,2.8,5.4c0.7,2.1,1,4.2,1,6.4L470.9,619.1L470.9,619.1z"/>
</g>
<g enable-background="new    ">
	<path fill="#D5001E" d="M272.8,695.5h-4.3v-16.8l-5.2,1.6v-3.5l9.1-3.3h0.5v22H272.8z"/>
	<path fill="#D5001E" d="M284.4,682.6h2.3c1.1,0,1.9-0.3,2.5-0.8c0.5-0.6,0.8-1.3,0.8-2.2c0-0.9-0.3-1.6-0.8-2.1
		c-0.5-0.5-1.3-0.7-2.2-0.7c-0.8,0-1.5,0.2-2.1,0.7c-0.6,0.5-0.8,1.1-0.8,1.8h-4.4c0-1.1,0.3-2.2,0.9-3.1c0.6-0.9,1.5-1.6,2.6-2.1
		c1.1-0.5,2.3-0.8,3.7-0.8c2.3,0,4.1,0.6,5.5,1.7c1.3,1.1,2,2.6,2,4.6c0,1-0.3,1.9-0.9,2.8c-0.6,0.8-1.4,1.5-2.4,1.9
		c1.2,0.4,2.2,1.1,2.8,2c0.6,0.9,0.9,1.9,0.9,3.1c0,1.9-0.7,3.5-2.1,4.7c-1.4,1.2-3.3,1.8-5.6,1.8c-2.2,0-4-0.6-5.4-1.7
		c-1.4-1.1-2.1-2.7-2.1-4.6h4.4c0,0.8,0.3,1.5,0.9,2c0.6,0.5,1.4,0.8,2.3,0.8c1,0,1.8-0.3,2.4-0.8c0.6-0.5,0.9-1.3,0.9-2.2
		c0-2.2-1.2-3.3-3.6-3.3h-2.3v-3.5H284.4z"/>
	<path fill="#D5001E" d="M298.1,693.3c0-0.7,0.2-1.3,0.7-1.7c0.5-0.4,1.1-0.6,1.8-0.6s1.3,0.2,1.8,0.6c0.5,0.4,0.7,1,0.7,1.7
		c0,0.7-0.2,1.2-0.7,1.7c-0.5,0.4-1.1,0.6-1.8,0.6s-1.3-0.2-1.8-0.6C298.3,694.6,298.1,694,298.1,693.3z"/>
	<path fill="#D5001E" d="M316.8,686.7c-1.1,1.1-2.5,1.7-4,1.7c-1.9,0-3.5-0.7-4.7-2c-1.2-1.3-1.7-3.1-1.7-5.4c0-1.4,0.3-2.8,0.9-4
		c0.6-1.2,1.5-2.1,2.6-2.8s2.4-1,3.8-1c1.4,0,2.7,0.4,3.9,1.1c1.1,0.7,2,1.8,2.6,3.1c0.6,1.4,0.9,2.9,0.9,4.7v1.6
		c0,3.7-0.9,6.5-2.7,8.6c-1.8,2.1-4.4,3.2-7.7,3.3h-1.1V692h1C314.5,691.8,316.5,690.1,316.8,686.7z M313.9,685
		c0.7,0,1.3-0.2,1.8-0.5c0.5-0.4,0.9-0.8,1.2-1.3v-1.8c0-1.5-0.3-2.6-0.8-3.4c-0.6-0.8-1.3-1.2-2.3-1.2c-0.9,0-1.6,0.4-2.2,1.2
		c-0.6,0.8-0.8,1.8-0.8,3c0,1.2,0.3,2.2,0.8,2.9C312.1,684.6,312.9,685,313.9,685z"/>
	<path fill="#D5001E" d="M338.7,679.3c0,1.1-0.3,2-0.8,2.8c-0.5,0.8-1.3,1.5-2.2,2c1.1,0.5,1.9,1.2,2.5,2.1c0.6,0.9,0.9,2,0.9,3.2
		c0,1.9-0.7,3.5-2,4.6c-1.3,1.1-3.1,1.7-5.4,1.7c-2.3,0-4.1-0.6-5.4-1.7c-1.3-1.1-2-2.7-2-4.6c0-1.2,0.3-2.3,0.9-3.2
		c0.6-0.9,1.5-1.6,2.5-2.1c-0.9-0.5-1.7-1.2-2.2-2c-0.5-0.8-0.8-1.8-0.8-2.8c0-1.9,0.6-3.4,1.9-4.5c1.2-1.1,2.9-1.7,5.1-1.7
		c2.1,0,3.8,0.5,5.1,1.7C338,676,338.7,677.5,338.7,679.3z M334.8,689.1c0-1-0.3-1.7-0.8-2.3c-0.6-0.6-1.3-0.9-2.2-0.9
		s-1.7,0.3-2.2,0.9c-0.6,0.6-0.8,1.3-0.8,2.3c0,0.9,0.3,1.7,0.8,2.3c0.5,0.6,1.3,0.9,2.3,0.9c0.9,0,1.7-0.3,2.2-0.8
		C334.6,691,334.8,690.1,334.8,689.1z M334.3,679.6c0-0.9-0.2-1.5-0.7-2.1c-0.5-0.5-1.1-0.8-1.9-0.8c-0.8,0-1.4,0.3-1.9,0.8
		c-0.5,0.5-0.7,1.2-0.7,2.1c0,0.9,0.2,1.6,0.7,2.1c0.5,0.5,1.1,0.8,1.9,0.8s1.5-0.3,1.9-0.8C334.1,681.1,334.3,680.4,334.3,679.6z"
		/>
	<path fill="#D5001E" d="M342,677.7c0-1.3,0.4-2.4,1.3-3.3c0.9-0.8,2-1.3,3.4-1.3c1.4,0,2.6,0.4,3.5,1.2c0.9,0.8,1.3,2,1.3,3.4v1.1
		c0,1.4-0.4,2.4-1.3,3.3c-0.9,0.8-2,1.2-3.4,1.2c-1.4,0-2.6-0.4-3.5-1.2c-0.9-0.8-1.3-1.9-1.3-3.4V677.7z M344.9,678.9
		c0,0.6,0.2,1.1,0.5,1.5c0.3,0.4,0.8,0.6,1.4,0.6c0.6,0,1-0.2,1.3-0.6c0.3-0.4,0.5-0.9,0.5-1.5v-1.1c0-0.6-0.2-1.1-0.5-1.5
		s-0.8-0.6-1.4-0.6c-0.6,0-1,0.2-1.3,0.6c-0.3,0.4-0.5,0.9-0.5,1.5V678.9z M347.6,693.8l-2.1-1.1l10.7-17.2l2.1,1.1L347.6,693.8z
		 M352.5,690.1c0-1.4,0.4-2.4,1.3-3.3c0.9-0.8,2-1.2,3.4-1.2c1.4,0,2.6,0.4,3.5,1.2s1.3,1.9,1.3,3.4v1.1c0,1.3-0.4,2.4-1.3,3.3
		c-0.9,0.8-2,1.2-3.5,1.2c-1.4,0-2.6-0.4-3.5-1.3c-0.9-0.8-1.3-1.9-1.3-3.3v-1.1H352.5z M355.4,691.3c0,0.6,0.2,1,0.5,1.4
		c0.4,0.4,0.8,0.6,1.4,0.6c1.2,0,1.8-0.7,1.8-2v-1.2c0-0.6-0.2-1.1-0.5-1.5s-0.8-0.6-1.4-0.6s-1,0.2-1.4,0.6
		c-0.3,0.4-0.5,0.9-0.5,1.5v1.2H355.4z"/>
	<path fill="#D5001E" d="M372.9,686.5c0-2.3,0.3-4.5,0.9-6.6s1.5-3.9,2.7-5.5s2.5-2.7,3.9-3.3l0.8,2.4c-1.5,1.1-2.6,2.8-3.4,5
		c-0.8,2.3-1.2,4.9-1.2,8v0.5c0,3,0.4,5.7,1.2,8c0.8,2.3,2,4,3.5,5.1l-0.8,2.3c-1.4-0.6-2.6-1.7-3.8-3.2c-1.2-1.6-2.1-3.3-2.7-5.4
		c-0.6-2-1-4.1-1-6.4L372.9,686.5L372.9,686.5z"/>
	<path fill="#D5001E" d="M396.3,687.2h2.5v3.5h-2.5v4.7h-4.4v-4.7h-9l-0.2-2.7l9.1-14.5h4.4L396.3,687.2L396.3,687.2z M387.1,687.2
		h4.9v-7.7l-0.3,0.5L387.1,687.2z"/>
	<path fill="#D5001E" d="M401.7,684.7l1.3-11.2h12.3v3.6h-8.7l-0.5,4.7c1-0.6,2.1-0.8,3.3-0.8c2.1,0,3.7,0.6,4.9,1.9
		c1.2,1.3,1.8,3.1,1.8,5.4c0,1.4-0.3,2.7-0.9,3.8c-0.6,1.1-1.5,2-2.6,2.6c-1.1,0.6-2.4,0.9-3.9,0.9c-1.3,0-2.6-0.3-3.7-0.8
		c-1.1-0.5-2-1.3-2.7-2.3c-0.7-1-1-2.1-1-3.3h4.3c0.1,0.9,0.4,1.6,1,2.1c0.5,0.5,1.3,0.8,2.1,0.8c1,0,1.7-0.4,2.3-1.1
		c0.5-0.7,0.8-1.7,0.8-3c0-1.2-0.3-2.2-0.9-2.9s-1.5-1-2.6-1c-1,0-1.9,0.3-2.5,0.8l-0.4,0.4L401.7,684.7z"/>
	<path fill="#D5001E" d="M419.2,693.3c0-0.7,0.2-1.3,0.7-1.7c0.5-0.4,1.1-0.6,1.8-0.6c0.7,0,1.3,0.2,1.8,0.6c0.5,0.4,0.7,1,0.7,1.7
		c0,0.7-0.2,1.2-0.7,1.7c-0.5,0.4-1.1,0.6-1.8,0.6c-0.7,0-1.3-0.2-1.8-0.6C419.4,694.6,419.2,694,419.2,693.3z"/>
	<path fill="#D5001E" d="M438.3,695.5h-4.4v-16.8l-5.2,1.6v-3.5l9.1-3.3h0.5V695.5z"/>
	<path fill="#D5001E" d="M456.1,695.5h-4.4v-16.8l-5.2,1.6v-3.5l9.1-3.3h0.5V695.5z"/>
	<path fill="#D5001E" d="M475,673.3v3.6h-0.4c-2,0-3.6,0.5-4.8,1.5c-1.2,1-1.9,2.4-2.2,4.1c1.2-1.2,2.6-1.8,4.4-1.8
		c1.9,0,3.4,0.7,4.6,2c1.2,1.3,1.7,3.2,1.7,5.4c0,1.4-0.3,2.7-0.9,3.9c-0.6,1.2-1.5,2.1-2.6,2.7c-1.1,0.6-2.4,1-3.8,1
		c-2.3,0-4.2-0.8-5.6-2.4c-1.4-1.6-2.1-3.8-2.1-6.4v-1.6c0-2.4,0.5-4.5,1.3-6.3c0.9-1.8,2.2-3.2,3.9-4.2c1.7-1,3.6-1.5,5.9-1.5H475z
		 M470.7,684.3c-0.7,0-1.3,0.2-1.9,0.5c-0.6,0.4-1,0.9-1.3,1.5v1.3c0,1.5,0.3,2.6,0.9,3.4c0.6,0.8,1.4,1.2,2.4,1.2
		c0.9,0,1.7-0.4,2.3-1.1c0.6-0.7,0.9-1.7,0.9-2.9c0-1.2-0.3-2.2-0.9-2.9C472.5,684.7,471.7,684.3,470.7,684.3z"/>
	<path fill="#D5001E" d="M488.6,686.9c0,2.3-0.3,4.5-1,6.6c-0.7,2.1-1.6,4-2.8,5.6c-1.2,1.6-2.5,2.7-3.9,3.3l-0.8-2.3
		c1.4-1.1,2.6-2.7,3.4-5c0.8-2.2,1.3-4.8,1.3-7.7v-0.8c0-3-0.4-5.7-1.2-7.9c-0.8-2.3-2-4-3.4-5.2l0.8-2.3c1.4,0.6,2.7,1.7,3.9,3.2
		c1.2,1.5,2.2,3.4,2.8,5.4c0.7,2.1,1,4.2,1,6.4L488.6,686.9L488.6,686.9z"/>
</g>
<g enable-background="new    ">
	<path d="M277.2,744.2l-8.5,19.5h-4.6l8.5-18.4h-10.9v-3.5h15.5V744.2z"/>
	<path d="M292.9,755.5h2.5v3.5h-2.5v4.7h-4.4V759h-9l-0.2-2.7l9.1-14.5h4.4L292.9,755.5L292.9,755.5z M283.7,755.5h4.9v-7.7
		l-0.3,0.5L283.7,755.5z"/>
	<path d="M298.1,761.6c0-0.7,0.2-1.3,0.7-1.7c0.5-0.4,1.1-0.6,1.8-0.6s1.3,0.2,1.8,0.6c0.5,0.4,0.7,1,0.7,1.7s-0.2,1.2-0.7,1.7
		c-0.5,0.4-1.1,0.6-1.8,0.6s-1.3-0.2-1.8-0.6C298.3,762.8,298.1,762.3,298.1,761.6z"/>
	<path d="M318.5,741.5v3.6h-0.4c-2,0-3.6,0.5-4.8,1.5c-1.2,1-1.9,2.4-2.2,4.1c1.2-1.2,2.6-1.8,4.4-1.8c1.9,0,3.4,0.7,4.6,2
		c1.1,1.4,1.7,3.2,1.7,5.4c0,1.4-0.3,2.7-0.9,3.9c-0.6,1.2-1.5,2.1-2.6,2.7s-2.4,1-3.8,1c-2.3,0-4.2-0.8-5.6-2.4
		c-1.4-1.6-2.1-3.8-2.1-6.4v-1.6c0-2.4,0.4-4.5,1.3-6.3s2.2-3.2,3.9-4.2c1.7-1,3.6-1.5,5.9-1.5H318.5z M314.2,752.6
		c-0.7,0-1.3,0.2-1.9,0.5c-0.6,0.4-1,0.9-1.3,1.5v1.3c0,1.5,0.3,2.6,0.9,3.4s1.4,1.2,2.4,1.2c0.9,0,1.7-0.4,2.3-1.1s0.9-1.7,0.9-2.9
		c0-1.2-0.3-2.2-0.9-2.9C316,752.9,315.2,752.6,314.2,752.6z"/>
	<path d="M325,752.9l1.3-11.2h12.3v3.6h-8.7l-0.5,4.7c1-0.6,2.1-0.8,3.3-0.8c2.1,0,3.7,0.6,4.9,1.9c1.2,1.3,1.8,3.1,1.8,5.4
		c0,1.4-0.3,2.7-0.9,3.8c-0.6,1.1-1.5,2-2.6,2.6c-1.1,0.6-2.4,0.9-3.9,0.9c-1.3,0-2.6-0.3-3.7-0.8c-1.1-0.5-2-1.3-2.7-2.3
		c-0.7-1-1-2.1-1-3.3h4.3c0.1,0.9,0.4,1.6,1,2.1c0.5,0.5,1.3,0.8,2.1,0.8c1,0,1.7-0.4,2.3-1.1c0.5-0.7,0.8-1.7,0.8-3
		c0-1.2-0.3-2.2-0.9-2.9c-0.6-0.7-1.5-1-2.6-1c-1,0-1.9,0.3-2.5,0.8l-0.4,0.4L325,752.9z"/>
	<path d="M342,746c0-1.3,0.4-2.4,1.3-3.3c0.9-0.8,2-1.3,3.4-1.3c1.4,0,2.6,0.4,3.5,1.2c0.9,0.8,1.3,2,1.3,3.4v1.1
		c0,1.4-0.4,2.4-1.3,3.3c-0.9,0.8-2,1.2-3.4,1.2c-1.4,0-2.6-0.4-3.5-1.2c-0.9-0.8-1.3-1.9-1.3-3.4V746z M344.9,747.2
		c0,0.6,0.2,1.1,0.5,1.5s0.8,0.6,1.4,0.6c0.6,0,1-0.2,1.3-0.6s0.5-0.9,0.5-1.5v-1.1c0-0.6-0.2-1.1-0.5-1.5c-0.3-0.4-0.8-0.6-1.4-0.6
		c-0.6,0-1,0.2-1.3,0.6c-0.3,0.4-0.5,0.9-0.5,1.5V747.2z M347.6,762.1l-2.1-1.2l10.7-17.2l2.1,1.1L347.6,762.1z M352.5,758.3
		c0-1.4,0.4-2.4,1.3-3.3c0.9-0.8,2-1.2,3.4-1.2c1.4,0,2.6,0.4,3.5,1.2c0.9,0.8,1.3,1.9,1.3,3.4v1.1c0,1.3-0.4,2.4-1.3,3.3
		c-0.9,0.8-2,1.2-3.5,1.2c-1.4,0-2.6-0.4-3.5-1.3c-0.9-0.8-1.3-1.9-1.3-3.3v-1.1H352.5z M355.4,759.5c0,0.6,0.2,1,0.5,1.4
		c0.4,0.4,0.8,0.6,1.4,0.6c1.2,0,1.8-0.7,1.8-2v-1.2c0-0.6-0.2-1.1-0.5-1.5c-0.3-0.4-0.8-0.6-1.4-0.6s-1,0.2-1.4,0.6
		c-0.3,0.4-0.5,0.9-0.5,1.5v1.2H355.4z"/>
	<path d="M372.9,754.8c0-2.3,0.3-4.5,0.9-6.6c0.6-2.1,1.5-3.9,2.7-5.5c1.2-1.6,2.5-2.7,3.9-3.3l0.8,2.4c-1.5,1.1-2.6,2.8-3.4,5
		c-0.8,2.3-1.2,4.9-1.2,8v0.5c0,3,0.4,5.7,1.2,8c0.8,2.3,2,4,3.5,5.1l-0.8,2.3c-1.4-0.6-2.6-1.7-3.8-3.2c-1.2-1.6-2.1-3.3-2.7-5.4
		c-0.6-2-1-4.1-1-6.4L372.9,754.8L372.9,754.8z"/>
	<path d="M398.4,763.7h-15v-3l7.1-7.6c1-1.1,1.7-2,2.2-2.8c0.5-0.8,0.7-1.5,0.7-2.3c0-1-0.2-1.7-0.7-2.3c-0.5-0.6-1.2-0.8-2.1-0.8
		c-1,0-1.8,0.3-2.3,1c-0.6,0.7-0.9,1.6-0.9,2.7H383c0-1.3,0.3-2.6,1-3.7c0.6-1.1,1.5-2,2.7-2.6c1.2-0.6,2.5-0.9,4-0.9
		c2.3,0,4,0.5,5.3,1.6c1.3,1.1,1.9,2.6,1.9,4.6c0,1.1-0.3,2.2-0.8,3.3c-0.5,1.1-1.5,2.4-2.9,3.9l-5,5.3h9.4v3.6H398.4z"/>
	<path d="M414,755.5h2.5v3.5H414v4.7h-4.4V759h-9l-0.2-2.7l9.1-14.5h4.4L414,755.5L414,755.5z M404.8,755.5h4.9v-7.7l-0.3,0.5
		L404.8,755.5z"/>
	<path d="M433.6,754.6c0,3-0.6,5.4-1.9,7s-3.1,2.4-5.5,2.4s-4.2-0.8-5.5-2.4c-1.3-1.6-1.9-3.8-1.9-6.8v-4c0-3.1,0.6-5.4,1.9-7
		c1.3-1.6,3.1-2.4,5.5-2.4s4.2,0.8,5.5,2.4s1.9,3.8,1.9,6.8V754.6z M429.2,750.2c0-1.8-0.2-3.1-0.7-4c-0.5-0.8-1.3-1.2-2.3-1.2
		s-1.8,0.4-2.3,1.2c-0.5,0.8-0.7,2-0.8,3.7v5.3c0,1.8,0.2,3.1,0.7,4c0.5,0.9,1.3,1.3,2.3,1.3c1.1,0,1.8-0.4,2.3-1.3
		c0.5-0.8,0.7-2.1,0.7-3.8L429.2,750.2L429.2,750.2z"/>
	<path d="M436.9,761.6c0-0.7,0.2-1.3,0.7-1.7c0.5-0.4,1.1-0.6,1.8-0.6s1.3,0.2,1.8,0.6c0.5,0.4,0.7,1,0.7,1.7s-0.2,1.2-0.7,1.7
		c-0.5,0.4-1.1,0.6-1.8,0.6c-0.7,0-1.3-0.2-1.8-0.6C437.1,762.8,436.9,762.3,436.9,761.6z"/>
	<path d="M459.8,747.6c0,1.1-0.3,2-0.8,2.8c-0.5,0.8-1.3,1.5-2.2,2c1.1,0.5,1.9,1.2,2.5,2.1c0.6,0.9,0.9,2,0.9,3.2
		c0,1.9-0.7,3.5-2,4.6c-1.3,1.1-3.1,1.7-5.4,1.7c-2.3,0-4.1-0.6-5.4-1.7c-1.3-1.1-2-2.7-2-4.6c0-1.2,0.3-2.3,0.9-3.2
		c0.6-0.9,1.5-1.6,2.5-2.1c-0.9-0.5-1.7-1.2-2.2-2c-0.5-0.8-0.8-1.8-0.8-2.8c0-1.9,0.6-3.4,1.9-4.5c1.2-1.1,2.9-1.7,5.1-1.7
		c2.1,0,3.8,0.5,5.1,1.7C459.2,744.2,459.8,745.7,459.8,747.6z M455.9,757.4c0-1-0.3-1.7-0.8-2.3c-0.6-0.6-1.3-0.9-2.2-0.9
		c-0.9,0-1.7,0.3-2.2,0.9c-0.6,0.6-0.8,1.3-0.8,2.3c0,0.9,0.3,1.7,0.8,2.3c0.5,0.6,1.3,0.9,2.3,0.9c0.9,0,1.7-0.3,2.2-0.8
		C455.7,759.3,455.9,758.4,455.9,757.4z M455.4,747.8c0-0.9-0.2-1.5-0.7-2.1c-0.5-0.5-1.1-0.8-1.9-0.8s-1.4,0.3-1.9,0.8
		c-0.5,0.5-0.7,1.2-0.7,2.1s0.2,1.6,0.7,2.1c0.5,0.5,1.1,0.8,1.9,0.8s1.5-0.3,1.9-0.8C455.2,749.4,455.4,748.7,455.4,747.8z"/>
	<path d="M473.8,763.7h-4.4v-16.8l-5.2,1.6V745l9.1-3.3h0.5V763.7z"/>
	<path d="M493.8,755.5h2.5v3.5h-2.5v4.7h-4.4V759h-9l-0.2-2.7l9.1-14.5h4.4v13.7H493.8z M484.6,755.5h4.9v-7.7l-0.3,0.5L484.6,755.5
		z"/>
	<path d="M506.3,755.1c0,2.3-0.3,4.5-1,6.6s-1.6,4-2.8,5.6s-2.5,2.7-3.9,3.3l-0.8-2.3c1.4-1.1,2.6-2.7,3.4-5
		c0.8-2.2,1.3-4.8,1.3-7.7v-0.8c0-3-0.4-5.7-1.2-7.9c-0.8-2.3-2-4-3.4-5.2l0.8-2.3c1.4,0.6,2.7,1.7,3.9,3.2c1.2,1.5,2.2,3.4,2.8,5.4
		c0.7,2.1,1,4.2,1,6.4L506.3,755.1L506.3,755.1z"/>
</g>
</svg>
