<?xml version="1.0" encoding="utf-8"?>
<!-- Generator: Adobe Illustrator 16.0.0, SVG Export Plug-In . SVG Version: 6.00 Build 0)  -->
<!DOCTYPE svg PUBLIC "-//W3C//DTD SVG 1.1//EN" "http://www.w3.org/Graphics/SVG/1.1/DTD/svg11.dtd">
<svg version="1.1" id="Camada_1" xmlns="http://www.w3.org/2000/svg" xmlns:xlink="http://www.w3.org/1999/xlink" x="0px" y="0px"
	 width="640px" height="480px" viewBox="0 0 640 480" enable-background="new 0 0 640 480" xml:space="preserve">
<g>
	<g>
		<g>
			<polygon fill="#D3EAF7" points="136.076,389.119 99.223,439.393 120.606,435.299 132.208,450.541 154.502,394.578 			"/>
			<polygon fill="#D3EAF7" points="161.327,389.119 198.18,439.393 176.796,435.299 165.194,450.541 142.9,394.578 			"/>
			<g>
				<g>
					<path stroke="#DD9A28" stroke-width="2" d="M189.99,377.061c-0.91,22.295-19.792,39.584-42.085,38.674
						c-22.293-0.91-39.583-19.791-38.673-42.086c0.91-22.293,19.792-39.582,42.085-38.672
						C173.611,336.114,190.9,354.768,189.99,377.061z"/>
				</g>
			</g>
		</g>
	</g>
	<g>
		<path fill="#FFFFFF" d="M113.612,255.197v13.303c-0.009,1.312-0.299,2.453-0.87,3.426c-0.571,0.973-1.376,1.72-2.416,2.241
			c-1.04,0.522-2.233,0.783-3.58,0.783c-2.052,0-3.696-0.56-4.932-1.68c-1.236-1.119-1.876-2.67-1.92-4.65v-13.423h1.633v13.183
			c0,1.642,0.468,2.915,1.405,3.82c0.937,0.905,2.208,1.358,3.814,1.358c1.605,0,2.875-0.455,3.807-1.365
			c0.932-0.91,1.398-2.177,1.398-3.801v-13.195H113.612z"/>
		<path fill="#FFFFFF" d="M120.316,256.495v3.707h2.998v1.312h-2.998v9.659c0,0.804,0.145,1.402,0.435,1.795
			c0.29,0.394,0.774,0.59,1.452,0.59c0.268,0,0.7-0.045,1.298-0.134l0.067,1.3c-0.419,0.15-0.99,0.226-1.713,0.226
			c-1.097,0-1.896-0.318-2.396-0.957c-0.5-0.638-0.75-1.576-0.75-2.816v-9.662h-2.663v-1.312h2.663v-3.707H120.316z"/>
		<path fill="#FFFFFF" d="M126.54,256.02c0-0.302,0.098-0.557,0.294-0.765c0.196-0.208,0.463-0.313,0.803-0.313
			c0.339,0,0.609,0.104,0.81,0.313s0.301,0.463,0.301,0.765s-0.101,0.555-0.301,0.758c-0.201,0.204-0.471,0.307-0.81,0.307
			c-0.339,0-0.607-0.103-0.803-0.307C126.638,256.574,126.54,256.322,126.54,256.02z M128.426,274.682h-1.606v-14.479h1.606V274.682
			z"/>
		<path fill="#FFFFFF" d="M134.569,274.682h-1.606v-20.556h1.606V274.682z"/>
		<path fill="#FFFFFF" d="M138.825,256.02c0-0.302,0.098-0.557,0.294-0.765c0.196-0.208,0.463-0.313,0.803-0.313
			c0.339,0,0.609,0.104,0.81,0.313s0.301,0.463,0.301,0.765s-0.101,0.555-0.301,0.758c-0.201,0.204-0.471,0.307-0.81,0.307
			c-0.339,0-0.607-0.103-0.803-0.307C138.923,256.574,138.825,256.322,138.825,256.02z M140.711,274.682h-1.606v-14.479h1.606
			V274.682z"/>
		<path fill="#FFFFFF" d="M144.418,267.308c0-2.248,0.502-4.039,1.505-5.373c1.004-1.333,2.367-2,4.088-2
			c1.954,0,3.444,0.771,4.47,2.314v-8.123h1.593v20.556h-1.499l-0.067-1.927c-1.026,1.463-2.534,2.194-4.523,2.194
			c-1.668,0-3.013-0.671-4.035-2.014s-1.532-3.156-1.532-5.44V267.308z M146.038,267.589c0,1.847,0.37,3.304,1.111,4.369
			c0.74,1.066,1.784,1.6,3.131,1.6c1.972,0,3.373-0.87,4.202-2.609v-6.799c-0.83-1.882-2.221-2.823-4.175-2.823
			c-1.347,0-2.396,0.528-3.145,1.586C146.413,263.969,146.038,265.529,146.038,267.589z"/>
		<path fill="#FFFFFF" d="M169.431,274.682c-0.161-0.455-0.263-1.129-0.308-2.021c-0.562,0.731-1.278,1.296-2.147,1.692
			c-0.87,0.397-1.792,0.596-2.764,0.596c-1.392,0-2.518-0.388-3.379-1.164c-0.861-0.776-1.292-1.758-1.292-2.944
			c0-1.409,0.586-2.524,1.76-3.346c1.173-0.82,2.808-1.231,4.905-1.231h2.904v-1.646c0-1.035-0.319-1.849-0.957-2.442
			s-1.568-0.89-2.79-0.89c-1.115,0-2.039,0.285-2.77,0.856c-0.732,0.57-1.098,1.258-1.098,2.061l-1.606-0.014
			c0-1.15,0.536-2.147,1.606-2.99c1.071-0.844,2.387-1.265,3.948-1.265c1.615,0,2.889,0.403,3.821,1.211s1.412,1.934,1.438,3.379
			v6.852c0,1.401,0.147,2.449,0.442,3.146v0.16H169.431z M164.399,273.531c1.07,0,2.027-0.258,2.87-0.775
			c0.843-0.518,1.457-1.209,1.84-2.074v-3.186h-2.864c-1.597,0.019-2.846,0.311-3.747,0.877c-0.901,0.566-1.352,1.345-1.352,2.335
			c0,0.812,0.301,1.485,0.903,2.021C162.652,273.263,163.435,273.531,164.399,273.531z"/>
		<path fill="#FFFFFF" d="M174.328,267.308c0-2.248,0.502-4.039,1.505-5.373c1.004-1.333,2.367-2,4.088-2
			c1.954,0,3.444,0.771,4.47,2.314v-8.123h1.593v20.556h-1.499l-0.067-1.927c-1.026,1.463-2.534,2.194-4.523,2.194
			c-1.668,0-3.013-0.671-4.035-2.014s-1.532-3.156-1.532-5.44V267.308z M175.947,267.589c0,1.847,0.37,3.304,1.111,4.369
			c0.74,1.066,1.784,1.6,3.131,1.6c1.972,0,3.373-0.87,4.202-2.609v-6.799c-0.83-1.882-2.221-2.823-4.175-2.823
			c-1.347,0-2.396,0.528-3.145,1.586C176.322,263.969,175.947,265.529,175.947,267.589z"/>
		<path fill="#FFFFFF" d="M195.807,274.949c-1.231,0-2.344-0.303-3.339-0.91c-0.995-0.606-1.769-1.452-2.322-2.536
			s-0.83-2.299-0.83-3.646v-0.575c0-1.392,0.27-2.646,0.81-3.761c0.54-1.115,1.292-1.991,2.255-2.63
			c0.963-0.638,2.007-0.956,3.131-0.956c1.758,0,3.152,0.6,4.182,1.8s1.546,2.839,1.546,4.918v0.896h-10.332v0.308
			c0,1.642,0.471,3.009,1.412,4.102c0.941,1.094,2.125,1.64,3.553,1.64c0.856,0,1.613-0.156,2.269-0.469
			c0.656-0.312,1.251-0.812,1.787-1.498l1.003,0.763C199.755,274.098,198.046,274.949,195.807,274.949z M195.513,261.299
			c-1.204,0-2.219,0.442-3.044,1.325s-1.327,2.07-1.505,3.56h8.685v-0.174c-0.045-1.392-0.441-2.524-1.191-3.399
			C197.708,261.737,196.726,261.299,195.513,261.299z"/>
		<path fill="#FFFFFF" d="M62.578,299.635v7.936h-1.646v-19.485h6.638c2.025,0,3.625,0.518,4.798,1.553
			c1.173,1.035,1.76,2.458,1.76,4.27c0,1.828-0.564,3.24-1.693,4.235c-1.129,0.995-2.764,1.492-4.905,1.492H62.578z M62.578,298.243
			h4.992c1.597,0,2.815-0.38,3.653-1.14s1.258-1.818,1.258-3.177c0-1.349-0.417-2.424-1.251-3.224
			c-0.834-0.799-2.019-1.208-3.553-1.226h-5.099V298.243z"/>
		<path fill="#FFFFFF" d="M86.747,305.738c-0.963,1.4-2.502,2.101-4.617,2.101c-1.544,0-2.717-0.448-3.52-1.345
			c-0.803-0.896-1.213-2.224-1.231-3.981v-9.421h1.592v9.22c0,2.757,1.115,4.136,3.346,4.136c2.32,0,3.787-0.959,4.403-2.877
			v-10.479h1.606v14.479h-1.552L86.747,305.738z M84.619,287.176h1.94l-3.091,3.733l-1.405-0.007L84.619,287.176z"/>
		<path fill="#FFFFFF" d="M104.144,300.478c0,2.257-0.5,4.048-1.499,5.373c-1,1.325-2.342,1.987-4.028,1.987
			c-2.016,0-3.542-0.749-4.577-2.248l-0.067,1.98h-1.499v-20.556h1.593v8.177c1.017-1.579,2.524-2.368,4.523-2.368
			c1.713,0,3.067,0.653,4.062,1.96c0.995,1.308,1.492,3.125,1.492,5.453V300.478z M102.538,300.197c0-1.909-0.37-3.383-1.11-4.423
			c-0.741-1.039-1.785-1.559-3.132-1.559c-1.026,0-1.896,0.252-2.609,0.756c-0.714,0.504-1.253,1.242-1.619,2.215v6.53
			c0.803,1.82,2.221,2.73,4.255,2.73c1.32,0,2.353-0.522,3.098-1.565C102.166,303.837,102.538,302.276,102.538,300.197z"/>
		<path fill="#FFFFFF" d="M109.47,307.571h-1.606v-20.556h1.606V307.571z"/>
		<path fill="#FFFFFF" d="M113.726,288.908c0-0.302,0.098-0.557,0.294-0.765c0.196-0.208,0.463-0.313,0.803-0.313
			c0.339,0,0.609,0.104,0.81,0.313s0.301,0.463,0.301,0.765s-0.101,0.555-0.301,0.758c-0.201,0.204-0.471,0.307-0.81,0.307
			c-0.339,0-0.607-0.103-0.803-0.307C113.824,289.463,113.726,289.21,113.726,288.908z M115.613,307.571h-1.606v-14.479h1.606
			V307.571z"/>
		<path fill="#FFFFFF" d="M125.315,306.487c1.115,0,2.05-0.314,2.804-0.943s1.162-1.443,1.225-2.442h1.539
			c-0.045,0.883-0.321,1.688-0.83,2.415c-0.509,0.728-1.185,1.297-2.028,1.707c-0.843,0.41-1.746,0.615-2.71,0.615
			c-1.9,0-3.406-0.66-4.517-1.98c-1.11-1.32-1.666-3.096-1.666-5.326v-0.481c0-1.428,0.25-2.69,0.75-3.788
			c0.5-1.097,1.215-1.944,2.148-2.542c0.932-0.598,2.023-0.896,3.272-0.896c1.588,0,2.897,0.473,3.928,1.418
			c1.03,0.946,1.581,2.19,1.653,3.733h-1.539c-0.071-1.133-0.479-2.047-1.225-2.743c-0.745-0.695-1.684-1.044-2.817-1.044
			c-1.445,0-2.567,0.522-3.366,1.566s-1.198,2.507-1.198,4.389v0.469c0,1.847,0.399,3.288,1.198,4.322
			C122.734,305.969,123.861,306.487,125.315,306.487z"/>
		<path fill="#FFFFFF" d="M143.221,307.571c-0.161-0.455-0.263-1.129-0.308-2.021c-0.562,0.731-1.278,1.296-2.147,1.692
			c-0.87,0.397-1.792,0.596-2.764,0.596c-1.392,0-2.518-0.388-3.379-1.164c-0.861-0.776-1.292-1.758-1.292-2.944
			c0-1.409,0.586-2.524,1.76-3.346c1.173-0.82,2.808-1.231,4.905-1.231h2.904v-1.646c0-1.035-0.319-1.849-0.957-2.442
			s-1.568-0.89-2.79-0.89c-1.115,0-2.039,0.285-2.77,0.856c-0.732,0.57-1.098,1.258-1.098,2.061l-1.606-0.014
			c0-1.15,0.536-2.147,1.606-2.99c1.071-0.844,2.387-1.265,3.948-1.265c1.615,0,2.889,0.403,3.821,1.211s1.412,1.934,1.438,3.379
			v6.852c0,1.401,0.147,2.449,0.442,3.146v0.16H143.221z M138.189,306.419c1.07,0,2.027-0.258,2.87-0.775
			c0.843-0.518,1.457-1.209,1.84-2.074v-3.186h-2.864c-1.597,0.019-2.846,0.311-3.747,0.877c-0.901,0.566-1.352,1.345-1.352,2.335
			c0,0.812,0.301,1.485,0.903,2.021C136.443,306.152,137.226,306.419,138.189,306.419z"/>
		<path fill="#FFFFFF" d="M166.533,298.457h-9.087v9.113H155.8v-19.485h12.071v1.393h-10.425v7.588h9.087V298.457z"/>
		<path fill="#FFFFFF" d="M176.168,307.838c-1.231,0-2.344-0.303-3.339-0.91c-0.995-0.606-1.769-1.452-2.322-2.536
			s-0.83-2.299-0.83-3.646v-0.575c0-1.392,0.27-2.646,0.81-3.761c0.54-1.115,1.292-1.991,2.255-2.63
			c0.963-0.638,2.007-0.956,3.131-0.956c1.758,0,3.152,0.6,4.182,1.8s1.546,2.839,1.546,4.918v0.896h-10.332v0.308
			c0,1.642,0.471,3.009,1.412,4.102c0.941,1.094,2.125,1.64,3.553,1.64c0.856,0,1.613-0.156,2.269-0.469
			c0.656-0.312,1.251-0.812,1.787-1.498l1.003,0.763C180.116,306.987,178.408,307.838,176.168,307.838z M175.874,294.188
			c-1.204,0-2.219,0.442-3.044,1.325s-1.327,2.07-1.505,3.56h8.685v-0.174c-0.045-1.392-0.441-2.524-1.191-3.399
			C178.069,294.625,177.087,294.188,175.874,294.188z"/>
		<path fill="#FFFFFF" d="M184.078,300.197c0-2.248,0.502-4.039,1.505-5.373c1.004-1.333,2.367-2,4.088-2
			c1.954,0,3.444,0.771,4.47,2.314v-8.123h1.593v20.556h-1.499l-0.067-1.927c-1.026,1.463-2.534,2.194-4.523,2.194
			c-1.668,0-3.013-0.671-4.035-2.014s-1.532-3.156-1.532-5.44V300.197z M185.697,300.478c0,1.847,0.37,3.304,1.111,4.369
			c0.74,1.066,1.784,1.6,3.131,1.6c1.972,0,3.373-0.87,4.202-2.609v-6.799c-0.83-1.882-2.221-2.823-4.175-2.823
			c-1.347,0-2.396,0.528-3.145,1.586C186.072,296.858,185.697,298.417,185.697,300.478z"/>
		<path fill="#FFFFFF" d="M205.556,307.838c-1.231,0-2.344-0.303-3.339-0.91c-0.995-0.606-1.769-1.452-2.322-2.536
			s-0.83-2.299-0.83-3.646v-0.575c0-1.392,0.27-2.646,0.81-3.761c0.54-1.115,1.292-1.991,2.255-2.63
			c0.963-0.638,2.007-0.956,3.131-0.956c1.758,0,3.152,0.6,4.182,1.8s1.546,2.839,1.546,4.918v0.896h-10.332v0.308
			c0,1.642,0.471,3.009,1.412,4.102c0.941,1.094,2.125,1.64,3.553,1.64c0.856,0,1.613-0.156,2.269-0.469
			c0.656-0.312,1.251-0.812,1.787-1.498l1.003,0.763C209.504,306.987,207.795,307.838,205.556,307.838z M205.262,294.188
			c-1.204,0-2.219,0.442-3.044,1.325s-1.327,2.07-1.505,3.56h8.685v-0.174c-0.045-1.392-0.441-2.524-1.191-3.399
			C207.457,294.625,206.475,294.188,205.262,294.188z"/>
		<path fill="#FFFFFF" d="M220.799,294.455c-0.339-0.062-0.7-0.094-1.084-0.094c-0.999,0-1.845,0.279-2.536,0.837
			c-0.692,0.558-1.185,1.367-1.479,2.429v9.943h-1.592v-14.479h1.565l0.027,2.302c0.848-1.713,2.208-2.569,4.082-2.569
			c0.446,0,0.798,0.058,1.057,0.174L220.799,294.455z"/>
		<path fill="#FFFFFF" d="M231.934,307.571c-0.161-0.455-0.263-1.129-0.308-2.021c-0.562,0.731-1.278,1.296-2.147,1.692
			c-0.87,0.397-1.792,0.596-2.764,0.596c-1.392,0-2.518-0.388-3.379-1.164c-0.861-0.776-1.292-1.758-1.292-2.944
			c0-1.409,0.586-2.524,1.76-3.346c1.173-0.82,2.808-1.231,4.905-1.231h2.904v-1.646c0-1.035-0.319-1.849-0.957-2.442
			s-1.568-0.89-2.79-0.89c-1.115,0-2.039,0.285-2.77,0.856c-0.732,0.57-1.098,1.258-1.098,2.061l-1.606-0.014
			c0-1.15,0.536-2.147,1.606-2.99c1.071-0.844,2.387-1.265,3.948-1.265c1.615,0,2.889,0.403,3.821,1.211s1.412,1.934,1.438,3.379
			v6.852c0,1.401,0.147,2.449,0.442,3.146v0.16H231.934z M226.902,306.419c1.07,0,2.027-0.258,2.87-0.775
			c0.843-0.518,1.457-1.209,1.84-2.074v-3.186h-2.864c-1.597,0.019-2.846,0.311-3.747,0.877c-0.901,0.566-1.352,1.345-1.352,2.335
			c0,0.812,0.301,1.485,0.903,2.021C225.155,306.152,225.938,306.419,226.902,306.419z"/>
		<path fill="#FFFFFF" d="M239.267,307.571h-1.606v-20.556h1.606V307.571z"/>
	</g>
</g>
<g>
	<g>
		<path fill="#FFFFFF" d="M290.768,307.905c0,2.275-0.683,3.869-1.82,5.232c-1.138,1.365-2.73,2.049-4.55,2.049
			s-3.413-0.684-4.55-2.049c-1.138-1.365-1.82-3.184-1.82-5.232v-2.729c0-2.275,0.682-3.867,1.82-5.232
			c1.137-1.365,2.73-2.047,4.55-2.047c2.047,0,3.412,0.682,4.777,2.047c1.137,1.365,1.82,3.184,1.82,5.232
			C290.768,305.176,290.768,307.905,290.768,307.905z M289.402,304.948c0-1.82-0.455-3.412-1.365-4.322
			c-0.91-0.91-2.047-1.592-3.64-1.592s-2.73,0.455-3.64,1.592c-0.91,1.139-1.365,2.502-1.365,4.322v2.73
			c0,1.82,0.455,3.412,1.365,4.549c0.91,1.139,2.048,1.594,3.64,1.594s2.73-0.455,3.64-1.594c0.91-1.137,1.365-2.502,1.365-4.549
			C289.402,307.905,289.402,304.948,289.402,304.948z"/>
		<path fill="#FFFFFF" d="M303.507,310.864c0-0.91-0.228-1.594-0.91-2.049c-0.682-0.455-1.82-1.137-3.412-1.592
			c-1.82-0.455-3.185-1.137-4.095-1.82c-0.91-0.682-1.365-1.82-1.365-2.957c0-1.365,0.455-2.275,1.592-3.186
			c1.137-0.908,2.275-1.363,3.867-1.363s2.958,0.455,4.095,1.363c0.91,0.91,1.592,2.049,1.365,3.641l0,0h-1.365
			c0-1.137-0.455-2.047-1.137-2.73c-0.683-0.682-1.82-1.137-2.958-1.137c-1.365,0-2.275,0.227-2.958,0.91
			c-0.682,0.682-1.137,1.365-1.137,2.275c0,0.908,0.228,1.592,0.91,2.047c0.683,0.455,1.82,1.137,3.413,1.592
			c1.82,0.455,2.958,1.139,3.867,1.82c0.91,0.682,1.365,1.82,1.365,2.957c0,1.365-0.455,2.275-1.592,3.186
			c-1.137,0.91-2.502,1.137-4.095,1.137s-2.958-0.455-4.322-1.365c-1.137-0.91-1.82-2.047-1.82-3.639l0,0h1.137
			c0,1.365,0.455,2.273,1.365,2.957c0.91,0.682,2.047,0.91,3.185,0.91c1.365,0,2.275-0.229,2.958-0.91
			C303.052,312.455,303.507,311.772,303.507,310.864z"/>
		<path fill="#FFFFFF" d="M319.431,309.725L319.431,309.725c0,1.82-0.455,2.957-1.592,4.096c-1.138,0.91-2.502,1.592-4.322,1.592
			c-1.82,0-3.185-0.682-4.323-2.047c-1.137-1.365-1.592-3.186-1.592-5.232v-2.73c0-2.047,0.455-3.867,1.592-5.232
			c1.138-1.365,2.502-2.047,4.323-2.047c1.82,0,3.185,0.455,4.322,1.365c1.137,0.91,1.592,2.275,1.592,4.094l0,0h-1.365
			c0-1.363-0.455-2.502-1.137-3.184c-0.91-0.684-1.82-1.139-3.412-1.139c-1.365,0-2.502,0.684-3.413,1.82
			c-0.91,1.139-1.365,2.73-1.365,4.322v2.73c0,1.82,0.455,3.412,1.365,4.549c0.91,1.139,2.047,1.82,3.413,1.82
			c1.365,0,2.502-0.455,3.412-1.137c0.91-0.684,1.137-1.82,1.137-3.186L319.431,309.725L319.431,309.725z"/>
		<path fill="#FFFFFF" d="M324.663,314.957h-1.364v-17.061h1.364V314.957z"/>
		<path fill="#FFFFFF" d="M330.578,307.905v7.053h-1.365v-17.061h5.688c1.82,0,2.957,0.455,4.095,1.363
			c0.909,0.91,1.364,2.049,1.364,3.641s-0.455,2.73-1.364,3.641c-0.91,0.91-2.274,1.363-4.095,1.363H330.578L330.578,307.905z
			 M330.578,306.768h4.322c1.365,0,2.275-0.455,2.957-1.137c0.683-0.684,0.91-1.594,0.91-2.73s-0.228-2.047-0.91-2.73
			c-0.682-0.682-1.592-1.137-2.957-1.137h-4.322V306.768z"/>
		<path fill="#FFFFFF" d="M350.369,311.772c0-0.682-0.227-1.137-0.682-1.592s-1.365-0.91-2.503-1.137
			c-1.364-0.229-2.503-0.684-3.185-1.365c-0.683-0.455-1.138-1.365-1.138-2.275s0.455-1.82,1.138-2.502
			c0.682-0.682,1.82-0.91,3.185-0.91s2.503,0.455,3.185,1.137c0.683,0.684,1.138,1.594,1.138,2.73l0,0h-1.138
			c0-0.682-0.227-1.365-0.91-1.82c-0.682-0.455-1.364-0.682-2.274-0.682s-1.819,0.227-2.274,0.682s-0.684,0.91-0.684,1.594
			c0,0.682,0.229,1.137,0.684,1.365c0.455,0.455,1.364,0.682,2.502,0.908c1.365,0.229,2.502,0.684,3.185,1.365
			c0.683,0.684,1.138,1.365,1.138,2.275c0,1.137-0.455,1.82-1.138,2.502c-0.909,0.684-1.819,0.91-3.185,0.91
			s-2.73-0.455-3.412-1.137c-0.91-0.684-1.138-1.594-1.138-2.502l0,0H344c0,0.908,0.455,1.592,1.137,2.047
			c0.684,0.455,1.365,0.682,2.275,0.682s1.82-0.227,2.275-0.682S350.369,312.227,350.369,311.772z"/>
	</g>
	<g>
		<g>
			<polygon fill="#F6D448" points="302.142,389.119 265.289,439.393 286.673,435.299 298.502,450.541 320.568,394.578 			"/>
			<polygon fill="#F6D448" points="327.621,389.119 364.246,439.393 343.09,435.299 331.26,450.541 309.194,394.578 			"/>
			<g>
				<g>
					<path stroke="#DD9A28" stroke-width="2" d="M356.057,377.061c-0.91,22.295-19.791,39.584-42.085,38.674
						c-22.294-0.91-39.583-19.791-38.673-42.086c0.91-22.293,19.792-39.582,42.085-38.672
						C339.678,336.114,356.967,354.768,356.057,377.061z"/>
				</g>
			</g>
		</g>
	</g>
</g>
<g>
	<g>
		<g>
			<path fill="#FFFFFF" d="M446.369,41.29L446.369,41.29c0,1.819-0.455,2.957-1.592,4.094c-1.138,1.138-2.503,1.593-4.322,1.593
				c-1.82,0-3.186-0.683-4.322-2.047c-1.138-1.365-1.593-3.186-1.593-5.232v-2.729c0-2.048,0.455-3.868,1.593-5.232
				c1.137-1.365,2.502-2.048,4.322-2.048c1.819,0,3.185,0.455,4.322,1.365c1.137,0.91,1.592,2.274,1.592,4.095l0,0h-1.365
				c0-1.365-0.455-2.502-1.137-3.185c-0.91-0.683-1.82-1.138-3.412-1.138c-1.365,0-2.503,0.683-3.412,1.82
				c-0.91,1.137-1.365,2.729-1.365,4.322v2.729c0,1.819,0.455,3.412,1.365,4.55c0.909,1.138,2.047,1.819,3.412,1.819
				s2.502-0.454,3.412-1.137s1.137-1.82,1.137-3.186L446.369,41.29L446.369,41.29z"/>
			<path fill="#FFFFFF" d="M458.426,38.332h-7.279v7.053h8.418v1.137h-9.783V29.46h9.783v1.138h-8.418v6.37h7.279V38.332z"/>
			<path fill="#FFFFFF" d="M462.521,46.749V29.687h4.777c1.592,0,2.957,0.455,3.867,1.138s1.365,1.819,1.365,3.412
				c0,0.91-0.229,1.593-0.684,2.275c-0.455,0.682-1.137,1.137-1.819,1.364c1.138,0.228,1.819,0.683,2.503,1.365
				c0.682,0.91,0.909,1.819,0.909,2.729c0,1.593-0.455,2.73-1.364,3.413c-0.91,0.909-2.275,1.137-3.867,1.137h-5.688V46.749z
				 M463.887,37.194h3.867c1.137,0,2.047-0.227,2.729-0.909c0.683-0.455,0.909-1.365,0.909-2.275c0-1.138-0.455-1.819-1.137-2.502
				c-0.683-0.455-1.593-0.91-2.957-0.91h-3.412V37.194L463.887,37.194z M463.887,38.559v7.053h4.549c1.138,0,2.048-0.229,2.957-0.91
				c0.684-0.683,1.139-1.365,1.139-2.503c0-0.909-0.229-1.819-0.91-2.502c-0.684-0.683-1.593-0.91-2.73-0.91h-0.228
				C468.436,38.559,463.887,38.559,463.887,38.559z"/>
			<path fill="#FFFFFF" d="M485.27,41.971h-7.279l-1.592,4.777h-1.365l5.914-17.062h1.365l5.914,17.062h-1.364L485.27,41.971z
				 M478.445,40.607h6.369l-3.185-9.1l0,0L478.445,40.607z"/>
			<path fill="#FFFFFF" d="M500.057,42.427c0-0.91-0.228-1.592-0.91-2.047c-0.682-0.455-1.82-1.138-3.412-1.593
				c-1.82-0.455-3.186-1.138-4.095-1.819c-0.91-0.683-1.365-1.82-1.365-2.958c0-1.364,0.455-2.274,1.593-3.185
				c0.91-0.91,2.275-1.365,3.867-1.365s2.957,0.455,4.095,1.365c0.91,0.91,1.593,2.047,1.364,3.64l0,0h-1.364
				c0-1.138-0.455-2.047-1.138-2.729c-0.682-0.683-1.82-1.138-2.957-1.138c-1.365,0-2.275,0.228-2.957,0.91
				c-0.683,0.683-1.138,1.364-1.138,2.274s0.228,1.593,0.909,2.048c0.684,0.455,1.82,1.138,3.413,1.592
				c1.819,0.455,2.957,1.138,3.867,1.82s1.364,1.819,1.364,2.957c0,1.365-0.454,2.275-1.592,3.185
				c-1.137,0.91-2.502,1.138-4.095,1.138s-2.958-0.455-4.322-1.364c-1.364-0.91-1.819-2.048-1.819-3.641l0,0h1.137
				c0,1.365,0.455,2.275,1.365,2.958s2.047,0.909,3.185,0.909c1.365,0,2.274-0.227,2.958-0.909
				C499.602,44.247,500.057,43.564,500.057,42.427z"/>
			<path fill="#FFFFFF" d="M453.193,73.365L453.193,73.365l6.143-15.014h1.593v17.062h-1.364V61.081l0,0l-5.916,14.332h-0.909
				l-5.915-14.56l0,0v14.56h-1.365V58.351h1.82L453.193,73.365z"/>
			<path fill="#FFFFFF" d="M465.023,75.413V58.351h5.005c2.048,0,3.64,0.682,5.005,2.047s2.047,3.185,2.047,5.232v2.274
				c0,2.275-0.682,3.867-2.047,5.232s-2.957,2.048-5.005,2.048h-5.005V75.413z M466.389,59.488v14.56h3.64
				c1.593,0,2.957-0.683,4.095-1.82c1.137-1.137,1.592-2.729,1.592-4.55v-2.274c0-1.82-0.455-3.185-1.592-4.322
				c-1.138-1.138-2.275-1.82-4.095-1.82L466.389,59.488L466.389,59.488z"/>
			<path fill="#FFFFFF" d="M489.82,71.091c0-0.91-0.229-1.593-0.91-2.048c-0.684-0.455-1.82-1.138-3.412-1.593
				c-1.82-0.454-3.186-1.137-4.096-1.819s-1.365-1.82-1.365-2.957c0-1.365,0.455-2.275,1.593-3.186
				c1.138-0.909,2.274-1.364,3.868-1.364c1.592,0,2.957,0.455,4.094,1.364c0.91,0.91,1.593,2.048,1.365,3.641l0,0h-1.365
				c0-1.138-0.455-2.048-1.137-2.73c-0.683-0.683-1.82-1.138-2.957-1.138c-1.365,0-2.275,0.228-2.958,0.91s-1.138,1.365-1.138,2.275
				c0,0.909,0.228,1.592,0.91,2.047s1.82,1.138,3.412,1.593c1.82,0.455,2.957,1.138,3.867,1.819c0.91,0.683,1.365,1.82,1.365,2.958
				c0,1.364-0.455,2.274-1.592,3.185c-1.139,0.91-2.503,1.138-4.096,1.138c-1.592,0-2.957-0.455-4.322-1.365
				c-1.137-0.91-1.819-2.048-1.819-3.64l0,0h1.138c0,1.365,0.455,2.274,1.364,2.957c0.91,0.683,2.048,0.91,3.185,0.91
				c1.365,0,2.275-0.228,2.958-0.91C489.365,72.91,489.82,72.227,489.82,71.091z"/>
		</g>
	</g>
	<g>
		<g>
			<g>
				<polygon fill="#DB4E26" points="454.332,162.086 418.161,211.677 439.09,207.583 450.691,222.597 472.531,167.546 				"/>
			</g>
			<g>
				<polygon fill="#DB4E26" points="479.355,162.086 515.525,211.677 494.597,207.583 482.995,222.597 461.156,167.546 				"/>
			</g>
			<g>
				<g>
					<path fill="#DB4E26" d="M516.436,158.674c0.228-0.228,0.228-0.228,0.228-0.455c0.455-0.455,0.91-0.683,0.91-0.683h-0.228
						c1.365-1.593,2.275-3.867,2.275-6.143c0-3.185-1.365-5.914-3.641-7.734l0,0c0,0-1.137-1.138-1.365-2.274
						c0-0.228,0-0.455,0-0.683c0.455-0.683,0.684-1.138,0.91-1.82c0.229-0.228,0.229-0.455,0.229-0.455h-0.229
						c0.91-2.274,0.91-4.777-0.227-7.052c-1.138-2.503-2.958-4.095-5.006-5.232h0.229c0,0-2.048-0.91-2.503-2.047
						c-0.454-1.138,0.228-2.73,0.228-2.73l-0.228,0.228c0.455-2.957-0.454-5.915-2.729-8.189c-2.275-2.275-5.46-3.185-8.645-2.729
						c-0.455,0-0.91-0.228-1.365-0.228c-0.683-0.228-0.91-1.138-1.365-1.593c-0.682-2.957-2.729-5.46-5.914-6.597
						c-2.502-1.138-5.46-0.91-7.734,0.227l0,0c0,0-0.229,0.228-0.455,0.228h-0.229c-0.682,0.228-1.592,0.683-2.274,0.455
						s-1.138-0.683-1.593-1.137c-1.819-2.503-4.777-4.322-8.189-4.322c-2.957,0-5.687,1.364-7.507,3.412v-0.228
						c0,0-0.909,1.365-2.048,1.819c-1.137,0.228-3.184-0.909-3.184-0.909v0.228c-2.275-0.683-4.777-0.91-7.053,0.228
						c-2.502,0.909-4.322,2.957-5.232,5.231v-0.228c0,0,0,0.455-0.228,0.91c0,0.228-0.228,0.228-0.228,0.455
						c-0.227,0.683-0.455,1.138-0.91,1.593c-1.137,0.683-2.729,0.455-2.729,0.455l0,0c-2.729-0.228-5.687,0.682-7.734,2.957
						c-2.048,2.047-2.958,4.777-2.958,7.507l0,0c0,0,0.455,1.593-0.227,2.73c-0.229,0.455-0.683,0.909-1.138,1.137
						c-2.958,0.683-5.688,2.73-6.825,5.915c-1.137,2.957-0.91,6.37,0.684,8.872l-0.229-0.228c0,0,0.91,1.365,0.683,2.729
						c-0.228,1.138-2.048,2.503-2.048,2.503l0,0c-2.047,1.819-3.184,4.55-3.184,7.279c0,3.185,1.592,5.915,3.867,7.734
						c0.455,0.455,0.91,0.91,1.137,1.593c0.228,1.138-0.91,3.185-0.91,3.185l0,0c-0.91,2.275-1.137,5.005,0,7.508
						c1.365,3.412,4.551,5.459,7.734,5.914c0.229,0.228,0.684,0.228,0.91,0.683c0.229,0.228,0.455,0.683,0.455,0.91
						c0,2.729,0.91,5.46,2.957,7.507c2.048,2.048,4.551,2.957,7.053,2.957l0,0l0,0c0.228,0,0.683,0,0.91,0
						c0.682,0,1.592,0,2.047,0.455c0.683,0.455,0.91,1.138,1.138,1.593c0,0.228,0,0.228,0.228,0.455c0,0.228,0,0.228,0,0.228l0,0
						c0.91,2.502,2.957,4.55,5.46,5.688c2.048,0.909,4.322,0.909,6.37,0.454l0,0c0,0,0,0,0.227,0
						c0.455-0.227,0.91-0.227,1.365-0.454c0.683-0.228,1.365-0.228,1.82,0c0.227,0,0.455,0.228,0.682,0.454
						c1.82,2.73,4.777,4.55,8.189,4.55c2.958,0,5.461-1.137,7.28-3.185l0,0c0,0,0-0.228,0.228-0.455s0.455-0.455,0.455-0.683
						c0.227-0.454,0.682-0.682,1.137-0.909c1.138-0.455,3.186,0.682,3.186,0.682l-0.228-0.227c2.274,0.909,4.776,0.909,7.279,0
						c2.503-1.138,4.55-2.958,5.46-5.46v0.228c0,0,0.455-2.275,1.592-2.73c1.138-0.682,2.73-0.228,2.73-0.228l-0.228-0.228
						c2.729,0,5.46-0.909,7.507-2.957c2.047-2.047,2.957-4.55,2.957-7.052l0,0c0,0,0-0.228,0-0.455s0-0.455,0-0.91
						s0-1.138,0.229-1.593c0.455-1.137,2.729-1.819,2.729-1.819h-0.228c2.502-0.91,4.777-2.958,5.914-5.688
						c1.139-2.729,0.91-5.46-0.227-7.962c-0.229-0.683-0.229-1.365,0-1.82C515.98,159.128,516.209,158.901,516.436,158.674z
						 M490.502,172.323c-2.047,2.047-2.957,4.549-2.957,7.052c-2.275-0.91-5.005-1.138-7.734,0c-2.73,1.138-4.551,3.185-5.46,5.688
						c-1.819-1.593-4.095-2.503-6.597-2.503c-2.275,0-4.096,0.683-5.688,1.82c-0.91-2.275-2.73-4.095-5.232-5.005
						c-2.73-1.138-5.46-0.91-7.734,0.228c0-2.503-0.91-5.232-2.957-7.053c-2.048-2.047-4.551-2.957-7.28-2.957
						c0.228-1.82,0.228-3.867-0.683-5.688c-1.137-2.502-3.185-4.322-5.459-5.459c1.819-1.82,2.957-4.322,2.957-7.053
						c0-3.185-1.593-6.142-3.867-7.962c2.957-0.683,5.459-2.957,6.597-5.915c1.138-2.502,0.91-5.231,0-7.734
						c2.503,0,5.005-0.91,6.825-2.957c2.047-2.048,2.957-4.55,2.957-7.053c2.275,0.91,5.004,1.138,7.734,0
						c2.502-1.137,4.55-3.185,5.46-5.459c1.819,1.592,4.095,2.502,6.597,2.502c2.957,0,5.688-1.365,7.508-3.412
						c0.91,2.729,2.957,5.232,5.688,6.369c2.502,1.138,5.231,0.91,7.734,0c0,2.503,0.91,5.232,2.957,7.053
						c1.82,1.819,4.095,2.729,6.369,2.957c-1.592,2.503-2.047,5.915-0.682,9.1c1.137,2.503,3.185,4.322,5.459,5.232
						c-1.82,1.819-2.957,4.322-2.957,7.052c0,2.048,0.683,4.095,1.82,5.688c-1.82,1.138-3.186,2.729-3.867,4.777
						c-1.139,2.502-0.91,5.232,0,7.734C495.052,169.365,492.322,170.275,490.502,172.323z"/>
				</g>
				<g>
					<g>
						<g>
							<path d="M501.648,151.166c-0.682,18.199-16.379,32.304-34.578,31.621c-18.426-0.683-32.758-16.151-31.848-34.351
								c0.682-18.199,16.379-32.304,34.578-31.621C488.227,117.725,502.559,132.967,501.648,151.166z"/>
							<path fill="#B52125" d="M468.436,185.062c-0.455,0-0.91,0-1.592,0c-9.555-0.455-18.427-4.322-24.797-11.375
								c-6.369-7.052-9.781-15.924-9.326-25.251c0.909-19.337,17.289-34.578,37.08-33.668c19.564,0.909,35.033,17.289,34.123,36.625
								C503.242,170.275,487.545,185.062,468.436,185.062L468.436,185.062z M468.436,119.318c-16.606,0-30.256,12.967-30.938,29.346
								c-0.455,8.189,2.502,15.924,8.189,22.066c5.687,5.914,13.193,9.555,21.383,9.782c17.289,0.682,31.621-12.513,32.304-29.347
								S486.862,120,469.801,119.318C469.346,119.318,468.891,119.318,468.436,119.318L468.436,119.318z"/>
						</g>
					</g>
				</g>
			</g>
		</g>
	</g>
</g>
<g>
	<g>
		<g>
			<path fill="#FFFFFF" d="M293.498,41.29L293.498,41.29c0,1.819-0.455,2.957-1.593,4.094c-1.137,1.138-2.502,1.593-4.322,1.593
				c-1.82,0-3.185-0.683-4.322-2.047c-1.137-1.365-1.592-3.186-1.592-5.232v-2.729c0-2.048,0.455-3.868,1.592-5.232
				c1.138-1.365,2.502-2.048,4.322-2.048c1.82,0,3.185,0.455,4.322,1.365c1.138,0.91,1.593,2.274,1.593,4.095l0,0h-1.365
				c0-1.365-0.455-2.502-1.137-3.185c-0.91-0.683-1.82-1.138-3.413-1.138c-1.365,0-2.502,0.683-3.412,1.82
				c-0.91,1.137-1.365,2.729-1.365,4.322v2.729c0,1.819,0.455,3.412,1.365,4.55s2.047,1.819,3.412,1.819
				c1.365,0,2.502-0.454,3.413-1.137c0.91-0.683,1.137-1.82,1.137-3.186L293.498,41.29L293.498,41.29z"/>
			<path fill="#FFFFFF" d="M305.554,38.332h-7.28v7.053h8.417v1.137h-9.782V29.46h9.782v1.138h-8.417v6.37h7.28
				C305.554,37.194,305.554,38.332,305.554,38.332z"/>
			<path fill="#FFFFFF" d="M309.649,46.749V29.687h4.777c1.592,0,2.958,0.455,3.867,1.138c0.91,0.683,1.365,1.819,1.365,3.412
				c0,0.91-0.228,1.593-0.683,2.275c-0.455,0.682-1.138,1.137-1.82,1.364c1.137,0.228,1.82,0.683,2.502,1.365
				c0.682,0.91,0.91,1.819,0.91,2.729c0,1.593-0.455,2.73-1.365,3.413c-0.91,0.909-2.275,1.137-3.867,1.137h-5.688V46.749z
				 M311.014,37.194h3.867c1.137,0,2.047-0.227,2.73-0.909c0.682-0.455,0.91-1.365,0.91-2.275c0-1.138-0.455-1.819-1.137-2.502
				c-0.683-0.455-1.593-0.91-2.958-0.91h-3.412C311.014,30.825,311.014,37.194,311.014,37.194z M311.014,38.559v7.053h4.55
				c1.137,0,2.047-0.229,2.957-0.91c0.683-0.683,1.138-1.365,1.138-2.503c0-0.909-0.228-1.819-0.91-2.502s-1.592-0.91-2.73-0.91
				h-0.228C315.564,38.559,311.014,38.559,311.014,38.559z"/>
			<path fill="#FFFFFF" d="M332.398,41.971h-7.28l-1.593,4.777h-1.364l5.915-17.062h1.364l5.915,17.062h-1.365L332.398,41.971z
				 M325.573,40.607h6.37l-3.186-9.1l0,0L325.573,40.607z"/>
			<path fill="#FFFFFF" d="M347.185,42.427c0-0.91-0.228-1.592-0.91-2.047s-1.819-1.138-3.412-1.593
				c-1.819-0.455-3.185-1.138-4.095-1.819c-0.91-0.683-1.365-1.82-1.365-2.958c0-1.364,0.455-2.274,1.593-3.185
				c0.909-0.91,2.274-1.365,3.867-1.365s2.958,0.455,4.095,1.365c0.91,0.91,1.592,2.047,1.365,3.64l0,0h-1.365
				c0-1.138-0.455-2.047-1.137-2.729c-0.684-0.683-1.82-1.138-2.958-1.138c-1.364,0-2.274,0.228-2.958,0.91
				c-0.682,0.683-1.137,1.364-1.137,2.274s0.228,1.593,0.91,2.048c0.682,0.455,1.82,1.138,3.412,1.592
				c1.82,0.455,2.957,1.138,3.867,1.82s1.365,1.819,1.365,2.957c0,1.365-0.455,2.275-1.593,3.185
				c-1.138,0.91-2.503,1.138-4.095,1.138s-2.957-0.455-4.322-1.364c-1.365-0.91-1.82-2.048-1.82-3.641l0,0h1.138
				c0,1.365,0.455,2.275,1.365,2.958c0.909,0.683,2.048,0.909,3.185,0.909c1.365,0,2.275-0.227,2.957-0.909
				C346.729,44.247,347.185,43.564,347.185,42.427z"/>
			<path fill="#FFFFFF" d="M294.407,71.091c0-0.91-0.228-1.593-0.91-2.048c-0.683-0.455-1.82-1.138-3.413-1.593
				c-1.82-0.454-3.185-1.137-4.095-1.819s-1.365-1.82-1.365-2.957c0-1.365,0.455-2.275,1.592-3.186
				c1.137-0.909,2.275-1.364,3.867-1.364s2.958,0.455,4.095,1.364c0.91,0.91,1.593,2.048,1.365,3.641l0,0h-1.365
				c0-1.138-0.455-2.048-1.137-2.73s-1.82-1.138-2.958-1.138c-1.365,0-2.275,0.228-2.957,0.91c-0.683,0.683-1.138,1.365-1.138,2.275
				c0,0.909,0.228,1.592,0.91,2.047c0.682,0.455,1.82,1.138,3.412,1.593c1.82,0.455,2.958,1.138,3.867,1.819
				c0.91,0.683,1.365,1.82,1.365,2.958c0,1.364-0.455,2.274-1.593,3.185c-1.137,0.91-2.502,1.138-4.095,1.138
				c-1.592,0-2.957-0.455-4.322-1.365c-1.137-0.91-1.82-2.048-1.82-3.64l0,0h1.138c0,1.365,0.455,2.274,1.365,2.957
				c0.91,0.683,2.047,0.91,3.185,0.91c1.365,0,2.275-0.228,2.958-0.91C293.952,72.91,294.407,72.227,294.407,71.091z"/>
			<path fill="#FFFFFF" d="M306.464,75.413c0-0.455-0.228-0.91-0.228-1.138s0-0.683,0-0.91c-0.455,0.683-0.91,1.138-1.82,1.593
				c-0.683,0.455-1.593,0.683-2.502,0.683c-1.138,0-2.047-0.228-2.73-0.91s-0.91-1.593-0.91-2.73c0-1.137,0.455-2.047,1.365-2.729
				c0.91-0.683,2.275-1.138,3.64-1.138h2.958v-1.592c0-0.91-0.228-1.593-0.91-2.048c-0.455-0.455-1.365-0.683-2.275-0.683
				c-0.91,0-1.592,0.228-2.275,0.683c-0.455,0.455-0.91,1.138-0.91,1.82h-1.138l0,0c0-0.91,0.455-1.82,1.138-2.503
				c0.91-0.683,1.82-1.138,3.185-1.138c1.365,0,2.502,0.455,3.185,1.138c0.91,0.683,1.137,1.82,1.137,2.958v6.142
				c0,0.455,0,0.91,0,1.365s0.228,0.91,0.228,1.138H306.464L306.464,75.413z M301.915,74.275c1.137,0,1.82-0.228,2.73-0.683
				c0.682-0.455,1.365-1.138,1.592-2.047v-2.503h-2.958c-1.137,0-2.047,0.228-2.73,0.91c-0.682,0.455-1.137,1.138-1.137,2.047
				c0,0.683,0.228,1.365,0.683,1.82C300.549,74.048,301.004,74.275,301.915,74.275z"/>
			<path fill="#FFFFFF" d="M318.976,73.365c-0.455,0.683-0.91,1.365-1.592,1.593c-0.683,0.455-1.365,0.683-2.275,0.683
				c-1.365,0-2.275-0.455-2.958-1.365s-1.137-2.275-1.137-4.095v-7.279h1.365v7.279c0,1.593,0.228,2.729,0.683,3.412
				c0.455,0.683,1.137,0.91,2.047,0.91c0.91,0,1.82-0.228,2.502-0.683c0.682-0.455,1.137-1.138,1.365-1.819v-9.1h1.365v12.512
				h-1.137L318.976,73.365z M317.384,57.669h1.592l0,0l-2.73,2.957h-1.137L317.384,57.669z"/>
			<path fill="#FFFFFF" d="M323.299,69.043c0-2.047,0.455-3.64,1.137-4.777c0.91-1.138,2.048-1.819,3.412-1.819
				c0.91,0,1.593,0.228,2.275,0.455c0.683,0.455,1.137,0.909,1.592,1.592v-7.507h1.365v18.199h-1.137l-0.229-1.82
				c-0.455,0.683-0.909,1.138-1.592,1.593s-1.365,0.455-2.275,0.455c-1.364,0-2.502-0.455-3.412-1.593s-1.137-2.729-1.137-4.55
				V69.043L323.299,69.043z M324.663,69.27c0,1.593,0.228,2.729,0.91,3.64s1.364,1.365,2.729,1.365c0.91,0,1.593-0.228,2.275-0.683
				c0.682-0.455,1.137-0.91,1.365-1.593v-5.914c-0.229-0.683-0.684-1.365-1.365-1.82c-0.455-0.455-1.365-0.683-2.275-0.683
				c-1.137,0-2.047,0.455-2.729,1.593c-0.683,0.91-0.91,2.275-0.91,3.867V69.27L324.663,69.27z"/>
			<path fill="#FFFFFF" d="M341.27,75.64c-1.592,0-2.957-0.683-3.867-1.82s-1.365-2.729-1.365-4.55v-0.683
				c0-1.819,0.455-3.412,1.593-4.55c0.91-1.137,2.274-1.819,3.64-1.819s2.73,0.455,3.412,1.364c0.91,0.91,1.139,2.275,1.139,3.868
				v1.137h-8.418v0.455c0,1.365,0.455,2.73,1.138,3.64c0.683,0.91,1.593,1.365,2.958,1.365c0.682,0,1.364-0.228,2.047-0.455
				c0.682-0.228,1.137-0.683,1.592-0.91l0.684,0.91c-0.455,0.455-0.91,0.91-1.594,1.138C343.09,75.413,342.18,75.64,341.27,75.64z
				 M341.043,63.583c-1.139,0-1.82,0.455-2.503,1.138s-1.138,1.82-1.138,2.957l0,0h7.053V67.45c0-1.137-0.229-2.047-0.91-2.729
				C343.09,64.038,342.18,63.583,341.043,63.583z"/>
		</g>
	</g>
	<g>
		<g>
			<g>
				<polygon fill="#DC9928" points="301.459,162.086 265.062,211.905 285.99,207.81 297.592,222.825 319.659,167.546 				"/>
			</g>
			<g>
				<polygon fill="#DC9928" points="326.483,162.086 362.881,211.905 341.725,207.81 330.123,222.825 308.284,167.546 				"/>
			</g>
			<g>
				<g>
					<path fill="#F4D256" d="M363.791,158.674l0.228-0.228c0.455-0.455,0.91-0.683,0.91-0.683h-0.228
						c1.365-1.593,2.275-3.867,2.275-6.37c0-3.185-1.365-5.914-3.641-7.734l0,0c0,0-1.137-1.138-1.365-2.502
						c0-0.228,0-0.455,0-0.683c0.455-0.683,0.684-1.138,0.91-1.82c0.229-0.228,0.455-0.455,0.455-0.455h-0.227
						c0.682-2.274,0.682-4.777-0.229-7.052c-0.91-2.502-2.957-4.322-5.004-5.232h0.227c0,0-2.047-0.91-2.502-2.047
						c-0.455-1.138,0.228-2.73,0.228-2.73l-0.228,0.228c0.455-2.957-0.455-6.142-2.73-8.417c-2.274-2.274-5.687-3.185-8.645-2.729
						c-0.454,0-0.909,0-1.364-0.228c-0.683-0.228-0.91-1.138-1.364-1.593c-0.91-2.957-2.958-5.46-5.916-6.597
						c-2.502-1.138-5.459-0.91-7.734,0.228l0,0c0,0-0.227,0.228-0.455,0.228c0,0-0.227,0-0.227,0.227
						c-0.683,0.229-1.593,0.683-2.503,0.455c-0.683-0.227-1.364-0.682-1.593-1.137c-1.819-2.503-4.777-4.322-8.189-4.322
						c-2.958,0-5.687,1.364-7.507,3.412v-0.228c0,0-0.91,1.365-2.047,1.819c-1.137,0.229-3.185-0.909-3.185-0.909v0.228
						c-2.275-0.683-4.777-0.683-7.052,0.228c-2.502,1.137-4.322,2.957-5.232,5.231v-0.227c0,0,0,0.454-0.228,0.909
						c0,0.228-0.227,0.455-0.227,0.455c-0.228,0.683-0.455,1.138-0.91,1.593c-1.137,0.683-2.73,0.455-2.73,0.455l0,0
						c-2.729-0.228-5.459,0.683-7.734,2.957c-2.047,2.048-2.958,4.777-2.958,7.507l0,0c0,0,0.455,1.593-0.228,2.73
						c-0.228,0.455-0.682,0.909-1.137,1.137c-2.958,0.683-5.688,2.73-6.825,5.915c-1.138,2.957-0.91,6.37,0.683,8.872l-0.228-0.228
						c0,0,0.91,1.365,0.682,2.73c-0.227,1.137-2.047,2.502-2.047,2.502l0,0c-2.047,1.82-3.185,4.55-3.185,7.279
						c0,3.186,1.592,5.915,3.867,7.734c0.455,0.455,0.91,0.91,1.137,1.593c0.228,1.138-0.91,3.185-0.91,3.185l0,0
						c-0.91,2.275-0.91,5.232,0,7.735c1.365,3.412,4.55,5.459,7.962,5.914c0.228,0.228,0.683,0.228,0.91,0.455
						s0.455,0.683,0.455,0.91c0,2.729,0.91,5.46,2.957,7.507c2.047,2.048,4.55,2.958,7.28,2.958l0,0l0,0c0.228,0,0.683,0,0.91,0
						c0.682,0,1.592,0,2.047,0.454c0.682,0.455,0.91,1.138,1.137,1.82c0,0.228,0,0.228,0.228,0.455c0,0.228,0,0.228,0,0.228l0,0
						c0.91,2.502,2.958,4.55,5.459,5.688c2.048,0.909,4.322,0.909,6.37,0.455l0,0c0,0,0,0,0.227,0
						c0.455-0.228,0.91-0.228,1.365-0.455c0.683-0.228,1.365-0.228,1.82,0c0.228,0,0.455,0.228,0.683,0.455
						c1.82,2.729,4.777,4.55,8.417,4.55c2.957,0,5.459-1.138,7.28-3.186l0,0c0,0,0-0.228,0.227-0.455
						c0.229-0.228,0.455-0.455,0.455-0.682c0.229-0.455,0.684-0.683,1.139-0.91c1.137-0.455,3.184,0.683,3.184,0.683l-0.227-0.228
						c2.274,0.909,5.004,0.909,7.279,0c2.502-1.138,4.55-2.958,5.459-5.46v0.228c0,0,0.455-2.275,1.594-2.73
						c1.137-0.682,2.729-0.228,2.729-0.228L344,190.294c2.729,0,5.459-0.909,7.507-2.957c2.048-2.047,2.958-4.55,2.958-7.052l0,0
						c0,0,0-0.228,0-0.455s0-0.455,0-0.683c0-0.455,0-1.138,0.227-1.593c0.455-1.137,2.73-1.819,2.73-1.819h-0.228
						c2.502-0.91,4.776-2.957,5.915-5.688c1.137-2.729,0.909-5.46-0.229-7.962c-0.227-0.683-0.227-1.365,0-1.82
						C363.336,159.128,363.564,158.901,363.791,158.674z M337.63,172.323c-2.048,2.047-2.957,4.549-2.957,7.052
						c-2.274-0.91-5.005-1.138-7.735,0c-2.729,1.138-4.549,3.185-5.459,5.688c-1.82-1.593-4.095-2.503-6.597-2.503
						c-2.275,0-4.095,0.683-5.915,1.82c-0.91-2.275-2.73-4.095-5.232-5.005c-2.73-1.138-5.46-0.91-7.962,0.228
						c0-2.503-0.91-5.232-2.958-7.28c-2.047-2.047-4.55-2.957-7.28-2.957c0.455-1.819,0.228-3.867-0.682-5.688
						c-1.138-2.502-3.185-4.55-5.46-5.459c1.82-1.82,2.958-4.322,2.958-7.053c0-3.185-1.593-6.142-4.095-7.962
						c2.957-0.91,5.459-2.957,6.597-5.915c1.137-2.502,0.91-5.231,0-7.734c2.502,0,5.004-0.91,6.824-2.957
						c2.047-2.048,2.958-4.55,2.958-7.052c2.275,0.909,5.232,1.137,7.735,0c2.502-1.138,4.549-3.186,5.459-5.46
						c1.82,1.592,4.095,2.502,6.597,2.502c2.958,0,5.687-1.364,7.507-3.412c0.91,2.729,2.957,5.232,5.688,6.37
						c2.502,1.137,5.232,0.909,7.734,0c0,2.502,0.91,5.231,2.957,7.052c1.82,1.819,4.095,2.729,6.598,2.957
						c-1.593,2.73-2.048,5.915-0.684,9.1c1.139,2.503,3.186,4.322,5.461,5.46c-1.82,1.819-2.958,4.322-2.958,7.052
						c0,2.275,0.683,4.095,1.819,5.688c-1.819,1.138-3.184,2.729-4.094,4.777c-1.138,2.502-0.91,5.232,0,7.734
						C342.407,169.365,339.678,170.275,337.63,172.323z"/>
				</g>
				<g>
					<g>
						<g>
							<path d="M348.095,151.166c-0.683,18.199-16.151,32.531-34.351,31.621c-18.199-0.683-32.531-16.151-31.621-34.351
								c0.683-18.199,16.151-32.531,34.351-31.621C334.673,117.498,349.004,132.967,348.095,151.166z"/>
							<path fill="#DD9A28" d="M315.109,185.289c-0.455,0-0.91,0-1.592,0c-9.555-0.454-18.199-4.55-24.569-11.374
								c-6.37-7.052-9.782-15.924-9.327-25.479c0.91-19.564,17.062-34.806,36.853-33.896c19.563,0.909,34.806,17.289,33.896,36.853
								C349.688,170.275,334.218,185.289,315.109,185.289L315.109,185.289z M315.109,119.091c-16.607,0-30.028,12.967-30.711,29.573
								c-0.228,8.189,2.502,16.151,8.189,22.066c5.46,6.142,13.194,9.555,21.384,10.01c17.062,0.682,31.394-12.513,32.076-29.347
								c0.683-16.834-12.512-31.393-29.346-32.075C316.019,119.091,315.564,119.091,315.109,119.091L315.109,119.091z"/>
						</g>
					</g>
				</g>
			</g>
		</g>
	</g>
</g>
<g>
	<g>
		<g>
			<path fill="#FFFFFF" d="M127.204,41.29L127.204,41.29c0,1.819-0.455,2.957-1.592,4.094c-1.138,1.138-2.502,1.593-4.322,1.593
				c-1.82,0-3.185-0.683-4.322-2.047c-1.138-1.365-1.593-3.186-1.593-5.232v-2.729c0-2.048,0.455-3.868,1.593-5.232
				c1.137-1.365,2.502-2.048,4.322-2.048c1.82,0,3.185,0.455,4.322,1.365c1.137,0.91,1.592,2.274,1.592,4.095l0,0h-1.365
				c0-1.365-0.455-2.502-1.137-3.185c-0.91-0.683-1.82-1.138-3.412-1.138c-1.365,0-2.502,0.683-3.413,1.82
				c-0.91,1.137-1.365,2.729-1.365,4.322v2.729c0,1.819,0.455,3.412,1.365,4.55c0.91,1.138,2.047,1.819,3.413,1.819
				c1.365,0,2.502-0.454,3.412-1.137s1.137-1.82,1.137-3.186L127.204,41.29L127.204,41.29z"/>
			<path fill="#FFFFFF" d="M139.488,38.332h-7.279v7.053h8.417v1.137h-9.782V29.46h9.782v1.138h-8.417v6.37h7.279V38.332z"/>
			<path fill="#FFFFFF" d="M143.355,46.749V29.687h4.777c1.592,0,2.958,0.455,3.867,1.138c0.91,0.683,1.365,1.819,1.365,3.412
				c0,0.91-0.228,1.593-0.683,2.275c-0.455,0.682-1.137,1.137-1.82,1.364c1.137,0.228,1.82,0.683,2.502,1.365
				c0.683,0.91,0.91,1.819,0.91,2.729c0,1.593-0.455,2.73-1.365,3.413c-0.91,0.909-2.275,1.137-3.867,1.137h-5.688V46.749z
				 M144.72,37.194h3.867c1.137,0,2.047-0.227,2.73-0.909c0.682-0.455,0.91-1.365,0.91-2.275c0-1.138-0.455-1.819-1.137-2.502
				c-0.683-0.455-1.592-0.91-2.958-0.91h-3.412C144.72,30.825,144.72,37.194,144.72,37.194z M144.72,38.559v7.053h4.55
				c1.137,0,2.047-0.229,2.957-0.91c0.683-0.683,1.138-1.365,1.138-2.503c0-0.909-0.228-1.819-0.91-2.502
				c-0.682-0.683-1.592-0.91-2.729-0.91h-0.228C149.27,38.559,144.72,38.559,144.72,38.559z"/>
			<path fill="#FFFFFF" d="M166.104,41.971h-7.28l-1.592,4.777h-1.365l5.915-17.062h1.365l5.915,17.062h-1.365L166.104,41.971z
				 M159.507,40.607h6.37l-3.185-9.1l0,0L159.507,40.607z"/>
			<path fill="#FFFFFF" d="M180.891,42.427c0-0.91-0.228-1.592-0.91-2.047c-0.683-0.455-1.82-1.138-3.413-1.593
				c-1.82-0.455-3.185-1.138-4.095-1.819c-0.91-0.683-1.365-1.82-1.365-2.958c0-1.364,0.455-2.274,1.592-3.185
				c0.91-0.91,2.275-1.365,3.867-1.365s2.958,0.455,4.095,1.365c0.91,0.91,1.593,2.047,1.365,3.64l0,0h-1.365
				c0-1.138-0.455-2.047-1.137-2.729c-0.683-0.683-1.82-1.138-2.958-1.138c-1.365,0-2.275,0.228-2.957,0.91
				c-0.683,0.683-1.138,1.364-1.138,2.274s0.228,1.593,0.91,2.048c0.682,0.455,1.82,1.138,3.412,1.592
				c1.82,0.455,2.958,1.138,3.867,1.82c0.91,0.683,1.365,1.819,1.365,2.957c0,1.365-0.455,2.275-1.593,3.185
				c-1.137,0.91-2.502,1.138-4.095,1.138c-1.592,0-2.957-0.455-4.322-1.364c-1.365-0.91-1.82-2.048-1.82-3.641l0,0h1.138
				c0,1.365,0.455,2.275,1.365,2.958s2.047,0.909,3.185,0.909c1.365,0,2.275-0.227,2.958-0.909
				C180.436,44.247,180.891,43.564,180.891,42.427z"/>
			<path fill="#FFFFFF" d="M109.687,66.996h-7.28v7.052h8.417v1.138h-9.782V58.351h9.782v1.137h-8.417v6.37h7.28V66.996z"/>
			<path fill="#FFFFFF" d="M112.645,69.043c0-2.047,0.455-3.64,1.137-4.777c0.91-1.138,2.047-1.819,3.412-1.819
				c0.91,0,1.593,0.228,2.275,0.455c0.683,0.455,1.138,0.909,1.593,1.592v-7.507h1.365v18.199h-1.137l-0.228-1.82
				c-0.455,0.683-0.91,1.138-1.593,1.593c-0.682,0.455-1.365,0.455-2.275,0.455c-1.365,0-2.502-0.455-3.412-1.593
				c-0.91-1.138-1.137-2.729-1.137-4.55V69.043L112.645,69.043z M114.009,69.27c0,1.593,0.228,2.729,0.91,3.64
				c0.683,0.91,1.365,1.365,2.73,1.365c0.91,0,1.592-0.228,2.275-0.683s1.138-0.91,1.365-1.593v-5.914
				c-0.228-0.683-0.683-1.365-1.365-1.82c-0.455-0.455-1.365-0.683-2.275-0.683c-1.137,0-2.047,0.455-2.73,1.593
				c-0.682,0.91-0.91,2.275-0.91,3.867V69.27z"/>
			<path fill="#FFFFFF" d="M134.028,73.365c-0.455,0.683-0.91,1.365-1.593,1.593c-0.682,0.455-1.365,0.683-2.274,0.683
				c-1.365,0-2.275-0.455-2.958-1.365s-1.138-2.275-1.138-4.095v-7.279h1.365v7.279c0,1.593,0.228,2.729,0.682,3.412
				c0.455,0.683,1.138,0.91,2.048,0.91c0.91,0,1.82-0.228,2.502-0.683c0.683-0.455,1.138-1.138,1.365-1.819v-9.1h1.365v12.512
				h-1.137L134.028,73.365z"/>
			<path fill="#FFFFFF" d="M143.355,74.503c0.91,0,1.593-0.228,2.275-0.91c0.683-0.455,0.91-1.365,0.91-2.274h1.137l0,0
				c0,1.137-0.455,2.047-1.365,2.957c-0.91,0.683-2.047,1.138-3.185,1.138c-1.593,0-2.958-0.683-3.868-1.82
				c-0.91-1.138-1.365-2.729-1.365-4.55v-0.455c0-1.819,0.455-3.412,1.365-4.55c0.91-1.137,2.047-1.819,3.868-1.819
				c1.365,0,2.502,0.455,3.185,1.137c0.91,0.91,1.365,1.82,1.365,3.186l0,0h-1.137c0-0.91-0.228-1.82-0.91-2.503
				c-0.682-0.683-1.365-0.91-2.275-0.91c-1.365,0-2.275,0.455-2.957,1.365c-0.683,0.91-0.91,2.275-0.91,3.64v0.455
				c0,1.593,0.228,2.73,0.91,3.64C141.08,73.82,141.99,74.503,143.355,74.503z"/>
			<path fill="#FFFFFF" d="M158.37,75.413c0-0.455-0.228-0.91-0.228-1.138s0-0.683,0-0.91c-0.455,0.683-0.91,1.138-1.82,1.593
				c-0.682,0.455-1.592,0.683-2.502,0.683c-1.138,0-2.047-0.228-2.73-0.91s-0.91-1.593-0.91-2.73c0-1.137,0.455-2.047,1.365-2.729
				c0.91-0.683,2.275-1.138,3.64-1.138h2.958v-1.592c0-0.91-0.228-1.593-0.91-2.048c-0.455-0.455-1.365-0.683-2.275-0.683
				c-0.91,0-1.592,0.228-2.275,0.683c-0.455,0.455-0.91,1.138-0.91,1.82h-1.138l0,0c0-0.91,0.455-1.82,1.138-2.503
				c0.91-0.683,1.82-1.138,3.185-1.138c1.365,0,2.502,0.455,3.185,1.138c0.91,0.683,1.137,1.82,1.137,2.958v6.142
				c0,0.455,0,0.91,0,1.365s0.228,0.91,0.228,1.138H158.37L158.37,75.413z M154.047,74.275c1.137,0,1.82-0.228,2.729-0.683
				c0.683-0.455,1.365-1.138,1.593-2.047v-2.503h-2.958c-1.138,0-2.047,0.228-2.73,0.91c-0.683,0.455-1.137,1.138-1.137,2.047
				c0,0.683,0.228,1.365,0.682,1.82C152.455,74.048,153.137,74.275,154.047,74.275z"/>
			<path fill="#FFFFFF" d="M167.469,74.503c0.91,0,1.593-0.228,2.275-0.91c0.683-0.455,0.91-1.365,0.91-2.274h1.137l0,0
				c0,1.137-0.455,2.047-1.365,2.957c-0.91,0.683-2.047,1.138-3.185,1.138c-1.592,0-2.957-0.683-3.867-1.82
				c-0.91-1.138-1.365-2.729-1.365-4.55v-0.455c0-1.819,0.455-3.412,1.365-4.55c0.91-1.137,2.047-1.819,3.867-1.819
				c1.365,0,2.502,0.455,3.185,1.137c0.91,0.91,1.365,1.82,1.365,3.186l0,0h-1.137c0-0.91-0.228-1.82-0.91-2.503
				c-0.682-0.683-1.365-0.91-2.275-0.91c-1.365,0-2.275,0.455-2.957,1.365c-0.683,0.91-0.91,2.275-0.91,3.64v0.455
				c0,1.593,0.228,2.73,0.91,3.64C165.421,73.82,166.332,74.503,167.469,74.503z M167.924,75.413l-0.228,0.682
				c0.683,0,1.138,0.228,1.365,0.683c0.455,0.228,0.455,0.683,0.455,1.365s-0.227,1.365-0.91,1.593
				c-0.683,0.455-1.365,0.682-2.502,0.682v-0.909c0.683,0,1.137-0.228,1.592-0.455s0.683-0.683,0.683-1.138s-0.228-0.683-0.455-0.91
				s-0.91-0.228-1.592-0.455l0.228-1.592L167.924,75.413L167.924,75.413z"/>
			<path fill="#FFFFFF" d="M182.71,75.413c0-0.455-0.228-0.91-0.228-1.138s0-0.683,0-0.91c-0.455,0.683-0.91,1.138-1.82,1.593
				c-0.682,0.455-1.592,0.683-2.502,0.683c-1.137,0-2.047-0.228-2.729-0.91c-0.683-0.683-0.91-1.593-0.91-2.73
				c0-1.137,0.455-2.047,1.365-2.729c0.91-0.683,2.275-1.138,3.64-1.138h2.958v-1.592c0-0.91-0.228-1.593-0.91-2.048
				c-0.455-0.455-1.365-0.683-2.275-0.683c-0.91,0-1.592,0.228-2.275,0.683c-0.455,0.455-0.91,1.138-0.91,1.82h-1.137l0,0
				c0-0.91,0.455-1.82,1.137-2.503c0.91-0.683,1.82-1.138,3.185-1.138s2.502,0.455,3.185,1.138c0.91,0.683,1.137,1.82,1.137,2.958
				v6.142c0,0.455,0,0.91,0,1.365s0.228,0.91,0.228,1.138H182.71L182.71,75.413z M182.938,57.896c0,0.682-0.228,1.137-0.682,1.592
				c-0.455,0.455-0.91,0.683-1.593,0.683c-0.455,0-1.137-0.228-1.592-0.683c-0.683-0.455-1.137-0.683-1.365-0.683
				c-0.455,0-0.683,0.228-0.91,0.455s-0.455,0.683-0.455,1.138l-0.91-0.228c0-0.683,0.228-1.138,0.682-1.592
				c0.455-0.455,0.91-0.683,1.593-0.683c0.455,0,1.137,0.228,1.592,0.683c0.683,0.454,1.137,0.682,1.592,0.682
				s0.683-0.228,0.91-0.455s0.455-0.682,0.455-1.137L182.938,57.896z M178.161,74.275c1.137,0,1.82-0.228,2.729-0.683
				c0.683-0.455,1.365-1.138,1.592-2.047v-2.503h-2.957c-1.138,0-2.047,0.228-2.73,0.91c-0.683,0.455-1.137,1.138-1.137,2.047
				c0,0.683,0.227,1.365,0.682,1.82C176.796,74.048,177.479,74.275,178.161,74.275z"/>
			<path fill="#FFFFFF" d="M186.578,68.815c0-1.819,0.455-3.412,1.365-4.55s2.275-1.819,3.867-1.819s2.958,0.682,3.867,1.819
				c0.91,1.138,1.365,2.73,1.365,4.55v0.455c0,1.82-0.455,3.412-1.365,4.55c-0.91,1.138-2.275,1.82-3.867,1.82
				s-2.957-0.683-3.867-1.82s-1.365-2.729-1.365-4.55V68.815L186.578,68.815z M187.943,69.27c0,1.365,0.455,2.729,1.137,3.64
				c0.683,0.91,1.593,1.593,2.958,1.593c1.138,0,2.275-0.455,2.958-1.593s1.137-2.274,1.137-3.64v-0.455
				c0-1.365-0.455-2.729-1.137-3.64s-1.82-1.593-2.958-1.593c-1.365,0-2.275,0.455-2.958,1.593c-0.682,0.91-1.137,2.274-1.137,3.64
				V69.27z"/>
		</g>
	</g>
	<g>
		<g>
			<g>
				<polygon fill="#274391" points="135.166,162.086 99.223,211.45 120.151,207.583 131.526,222.37 153.365,167.546 				"/>
			</g>
			<g>
				<polygon fill="#274391" points="160.189,162.086 196.36,211.45 175.431,207.583 163.829,222.37 141.99,167.546 				"/>
			</g>
			<g>
				<g>
					<path fill="#91C1E4" d="M197.27,158.674l0.228-0.228c0.455-0.455,0.91-0.683,0.91-0.683h-0.228
						c1.365-1.593,2.275-3.867,2.275-6.143c0-3.185-1.365-5.914-3.64-7.734l0,0c0,0-1.138-1.138-1.365-2.274
						c0-0.228,0-0.455,0-0.683c0.455-0.683,0.682-1.138,0.91-1.82c0.228-0.228,0.228-0.455,0.228-0.455h-0.228
						c0.91-2.274,0.91-4.777-0.228-7.052c-1.137-2.503-2.958-4.095-5.005-5.232h0.228c0,0-2.047-0.91-2.502-2.047
						c-0.455-1.138,0.228-2.73,0.228-2.73l-0.228,0.228c0.455-2.957-0.455-5.915-2.729-8.189c-2.275-2.275-5.46-3.185-8.645-2.729
						c-0.455,0-0.91,0-1.365-0.228c-0.682-0.228-0.91-1.138-1.365-1.593c-0.683-2.957-2.73-5.46-5.687-6.598
						c-2.502-1.137-5.46-0.909-7.735,0.228l0,0c0,0-0.228,0.228-0.455,0.228h-0.228c-0.682,0.228-1.592,0.683-2.275,0.455
						c-0.682-0.228-1.137-0.682-1.592-1.137c-1.82-2.503-4.777-4.322-8.189-4.322c-2.958,0-5.687,1.364-7.507,3.412v-0.228
						c0,0-0.91,1.364-2.047,1.593c-1.137,0.227-3.185-0.91-3.185-0.91v0.228c-2.275-0.683-4.55-0.683-7.052,0.228
						c-2.502,0.909-4.322,2.957-5.232,5.231v-0.228c0,0,0,0.455-0.228,0.91c0,0.228-0.228,0.228-0.228,0.455
						c-0.227,0.683-0.455,1.138-0.91,1.593c-1.137,0.683-2.73,0.455-2.73,0.455l0,0c-2.729-0.228-5.459,0.683-7.734,2.957
						c-2.047,2.048-2.958,4.777-2.958,7.507l0,0c0,0,0.455,1.593,0,2.73c-0.228,0.455-0.683,0.682-1.137,1.137
						c-2.958,0.683-5.688,2.73-6.825,5.915c-1.138,2.957-0.91,6.37,0.682,8.872l-0.227-0.228c0,0,0.91,1.365,0.682,2.729
						c-0.228,1.138-2.047,2.503-2.047,2.503l0,0c-2.047,1.819-3.185,4.322-3.185,7.279c0,3.185,1.592,5.915,3.867,7.735
						c0.455,0.454,0.91,0.909,1.137,1.592c0.228,1.138-0.91,3.185-0.91,3.185l0,0c-0.91,2.275-0.91,5.005,0,7.508
						c1.365,3.412,4.55,5.459,7.734,5.914c0.228,0.228,0.683,0.228,0.91,0.683c0.228,0.228,0.455,0.683,0.455,0.91
						c0,2.729,0.91,5.46,2.957,7.279c2.047,2.048,4.55,2.958,7.28,2.958l0,0l0,0c0.228,0,0.683,0,0.91,0
						c0.682,0,1.592,0,2.047,0.454c0.683,0.455,0.91,1.138,1.138,1.593c0,0.228,0,0.228,0.228,0.455c0,0.228,0,0.228,0,0.228l0,0
						c0.91,2.502,2.958,4.55,5.459,5.688c2.047,0.91,4.322,0.91,6.37,0.455l0,0l0,0c0.455-0.228,0.91-0.228,1.365-0.455
						c0.683-0.228,1.365-0.228,1.82,0c0.228,0,0.455,0.228,0.683,0.455c1.82,2.729,4.777,4.322,8.189,4.322
						c2.958,0,5.459-1.138,7.28-3.186l0,0c0,0,0-0.228,0.228-0.455c0.228-0.227,0.455-0.454,0.455-0.682
						c0.228-0.455,0.683-0.683,1.138-0.91c1.137-0.455,3.185,0.455,3.185,0.455l-0.228-0.228c2.275,0.91,4.777,0.91,7.28,0
						c2.502-1.138,4.55-2.957,5.46-5.46v0.228c0,0,0.455-2.274,1.592-2.729c1.137-0.683,2.73-0.228,2.73-0.228h-0.228
						c2.729,0,5.459-0.91,7.507-2.958c2.047-2.047,2.958-4.55,2.958-7.052l0,0c0,0,0-0.228,0-0.455s0-0.455,0-0.91
						s0-1.137,0.228-1.592c0.682-1.138,2.73-1.82,2.73-1.82l0,0c2.502-0.91,4.777-2.957,5.915-5.46
						c1.137-2.729,0.91-5.459-0.228-7.962c-0.228-0.683-0.228-1.364,0-1.819C196.815,159.128,197.042,158.901,197.27,158.674z
						 M171.336,172.323c-2.047,2.047-2.958,4.549-2.958,7.052c-2.275-0.91-5.005-1.138-7.734,0c-2.73,1.138-4.55,3.185-5.46,5.688
						c-1.82-1.593-4.095-2.503-6.597-2.503c-2.047,0-4.095,0.683-5.687,1.82c-0.91-2.275-2.73-4.095-5.232-5.005
						c-2.502-1.138-5.459-0.91-7.734,0.228c0-2.503-0.91-5.232-2.958-7.053c-2.047-2.047-4.55-2.957-7.28-2.957
						c0.455-1.82,0.228-3.867-0.682-5.688c-1.138-2.502-2.958-4.322-5.46-5.459c1.82-1.82,2.958-4.322,2.958-7.053
						c0-3.185-1.592-6.142-3.867-7.962c2.957-0.683,5.459-2.729,6.597-5.688c1.137-2.502,0.91-5.231,0-7.734
						c2.502,0,5.004-0.91,6.824-2.957c1.82-2.048,2.958-4.55,2.958-7.053c2.275,0.91,5.005,1.138,7.735,0
						c2.502-1.137,4.549-3.185,5.459-5.459c1.82,1.592,4.095,2.502,6.597,2.502c2.958,0,5.687-1.365,7.507-3.412
						c0.91,2.729,2.957,5.005,5.687,6.369c2.502,1.138,5.232,0.91,7.734,0c0,2.503,0.91,5.005,2.958,7.053
						c1.82,1.819,4.095,2.729,6.37,2.957c-1.592,2.73-2.047,5.915-0.683,8.872c1.138,2.503,2.958,4.322,5.46,5.46
						c-1.82,1.819-2.958,4.322-2.958,7.052c0,2.048,0.683,4.095,1.82,5.688c-1.82,1.138-3.185,2.729-3.867,4.777
						c-1.137,2.502-0.91,5.232,0,7.734C175.886,169.365,173.384,170.275,171.336,172.323z"/>
				</g>
				<g>
					<g>
						<g>
							<path d="M181.801,151.166c-0.683,18.199-16.152,32.304-34.123,31.394c-18.199-0.683-32.304-16.151-31.394-34.123
								c0.683-18.199,16.151-32.304,34.123-31.394C168.379,117.725,182.483,133.194,181.801,151.166z"/>
							<path fill="#274391" d="M149.042,185.062c-0.455,0-0.91,0-1.592,0c-9.327-0.455-17.972-4.322-24.341-11.375
								c-6.37-6.824-9.555-15.924-9.327-25.251c0.91-19.337,17.062-34.578,36.625-33.668c19.336,0.909,34.578,17.289,33.668,36.625
								C183.393,170.275,167.924,185.062,149.042,185.062L149.042,185.062z M148.815,119.318c-16.379,0-29.801,12.967-30.483,29.346
								c-0.455,8.189,2.502,15.924,7.962,21.839c5.46,5.914,12.967,9.555,21.157,9.782c17.062,0.682,31.166-12.285,31.848-29.347
								c0.683-16.834-12.512-31.166-29.346-31.848C149.725,119.318,149.27,119.318,148.815,119.318L148.815,119.318z"/>
						</g>
					</g>
				</g>
			</g>
		</g>
	</g>
</g>
<g>
	<path fill="#D3EAF7" d="M126.066,375.469h1.593c0.682,0,1.365-0.227,1.592-0.455c0.228-0.227,0.455-0.91,0.455-1.365
		c0-0.682-0.228-1.137-0.455-1.363c-0.455-0.229-0.91-0.455-1.365-0.455c-0.455,0-0.91,0.227-1.365,0.455
		c-0.455,0.227-0.455,0.682-0.455,1.137h-2.957c0-0.684,0.228-1.365,0.682-2.047c0.455-0.684,0.91-1.139,1.82-1.365
		c0.682-0.229,1.592-0.455,2.502-0.455c1.593,0,2.73,0.455,3.64,1.137c0.91,0.684,1.365,1.82,1.365,2.957
		c0,0.684-0.228,1.365-0.683,1.82c-0.455,0.455-0.91,0.91-1.592,1.365c0.91,0.227,1.365,0.682,1.82,1.365
		c0.455,0.682,0.683,1.365,0.683,2.047c0,1.365-0.455,2.275-1.365,3.186c-0.91,0.682-2.275,1.137-3.64,1.137
		c-1.365,0-2.729-0.455-3.64-1.137c-0.91-0.684-1.365-1.82-1.365-2.957h2.957c0,0.453,0.228,0.908,0.683,1.363
		s0.91,0.455,1.592,0.455s1.138-0.227,1.592-0.455c0.455-0.455,0.683-0.91,0.683-1.363c0-1.365-0.91-2.275-2.502-2.275h-1.592v-2.73
		H126.066z"/>
	<path fill="#D3EAF7" d="M135.848,387.526l-1.592-0.682l0.455-0.684c0.455-0.908,0.683-1.592,0.683-2.502v-2.273h2.502v2.047
		c0,0.682-0.228,1.592-0.455,2.275C136.758,386.389,136.303,387.071,135.848,387.526z"/>
	<path fill="#D3EAF7" d="M149.725,370.92l-5.687,12.967h-2.958l5.688-12.285h-7.28v-2.275h10.237V370.92z"/>
	<path fill="#D3EAF7" d="M152,376.834l0.91-7.508h8.189v2.504h-5.687l-0.455,3.184c0.683-0.455,1.365-0.455,2.275-0.455
		c1.365,0,2.502,0.455,3.185,1.365c0.682,0.91,1.137,2.047,1.137,3.641c0,0.91-0.228,1.818-0.683,2.502
		c-0.455,0.682-0.91,1.365-1.592,1.82s-1.592,0.682-2.73,0.682c-0.91,0-1.592-0.227-2.502-0.455c-0.682-0.455-1.365-0.91-1.82-1.592
		c-0.455-0.684-0.682-1.365-0.682-2.275h2.957c0,0.682,0.228,1.137,0.683,1.365c0.455,0.227,0.91,0.455,1.365,0.455
		c0.683,0,1.138-0.229,1.593-0.684c0.455-0.453,0.455-1.137,0.455-2.047s-0.228-1.365-0.682-1.82
		c-0.455-0.453-0.91-0.682-1.82-0.682c-0.683,0-1.138,0.229-1.593,0.455l-0.228,0.227L152,376.834z"/>
	<path fill="#D3EAF7" d="M163.374,372.057c0-0.91,0.228-1.592,0.91-2.275c0.683-0.455,1.365-0.91,2.275-0.91
		c0.91,0,1.82,0.229,2.275,0.91c0.682,0.455,0.91,1.365,0.91,2.275v0.682c0,0.91-0.228,1.594-0.91,2.275
		c-0.683,0.684-1.365,0.91-2.275,0.91c-0.91,0-1.82-0.227-2.275-0.91c-0.683-0.455-0.91-1.365-0.91-2.275V372.057z M165.194,372.967
		c0,0.455,0,0.682,0.455,0.91c0.228,0.227,0.455,0.455,0.91,0.455s0.682-0.229,0.91-0.455c0.228-0.229,0.228-0.684,0.228-0.91
		v-0.682c0-0.455,0-0.684-0.228-0.91c-0.228-0.229-0.455-0.455-0.91-0.455s-0.683,0.227-0.91,0.455
		c-0.228,0.227-0.228,0.682-0.228,0.91v0.682H165.194z M167.014,382.748l-1.365-0.682l7.052-11.375l1.365,0.684L167.014,382.748z
		 M170.426,380.246c0-0.91,0.228-1.592,0.91-2.275c0.682-0.455,1.365-0.91,2.275-0.91c0.91,0,1.82,0.229,2.274,0.91
		c0.683,0.455,0.91,1.365,0.91,2.275v0.684c0,0.908-0.228,1.592-0.91,2.273c-0.682,0.455-1.365,0.91-2.274,0.91
		c-0.91,0-1.82-0.227-2.275-0.91c-0.455-0.682-0.91-1.365-0.91-2.273V380.246z M172.246,381.156c0,0.455,0.228,0.682,0.455,0.91
		c0.228,0.227,0.455,0.455,0.91,0.455c0.91,0,1.137-0.455,1.137-1.365v-0.682c0-0.455-0.228-0.684-0.455-0.91
		c-0.228-0.229-0.455-0.455-0.91-0.455s-0.683,0.227-0.91,0.455c-0.228,0.227-0.228,0.682-0.228,0.91V381.156z"/>
</g>
<g>
	<path fill="#F6D448" d="M295.545,383.887h-2.958V372.74l-3.412,1.137v-2.275l5.915-2.047h0.228v14.332H295.545z"/>
	<path fill="#F6D448" d="M301.004,387.526l-1.592-0.682l0.455-0.684c0.455-0.908,0.682-1.592,0.682-2.502v-2.273h2.502v2.047
		c0,0.682-0.228,1.592-0.455,2.275C302.142,386.389,301.687,387.071,301.004,387.526z"/>
	<path fill="#F6D448" d="M315.109,377.971c0,2.049-0.455,3.641-1.138,4.551c-0.682,0.91-2.047,1.592-3.64,1.592
		s-2.73-0.455-3.64-1.592c-0.91-1.139-1.365-2.502-1.365-4.551v-2.729c0-2.049,0.455-3.641,1.365-4.551
		c0.91-1.137,2.047-1.592,3.64-1.592s2.73,0.455,3.64,1.592c0.91,1.139,1.365,2.502,1.365,4.551v2.729H315.109z M312.151,375.014
		c0-1.137-0.228-2.047-0.455-2.729c-0.228-0.455-0.91-0.91-1.592-0.91s-1.137,0.227-1.592,0.682
		c-0.228,0.455-0.455,1.365-0.455,2.502v3.641c0,1.137,0.228,2.047,0.455,2.73c0.228,0.682,0.91,0.908,1.592,0.908
		s1.138-0.227,1.592-0.908c0.228-0.455,0.455-1.365,0.455-2.504V375.014z"/>
	<path fill="#F6D448" d="M324.891,369.1v2.275h-0.228c-1.364,0-2.274,0.455-3.185,0.91c-0.91,0.682-1.365,1.592-1.365,2.729
		c0.683-0.682,1.82-1.137,2.957-1.137c1.365,0,2.275,0.455,2.958,1.365s1.138,2.047,1.138,3.639c0,0.91-0.229,1.82-0.683,2.504
		c-0.455,0.682-0.91,1.363-1.82,1.818c-0.683,0.455-1.593,0.684-2.502,0.684c-1.593,0-2.73-0.455-3.64-1.594
		c-0.91-1.137-1.365-2.502-1.365-4.322v-1.137c0-1.592,0.228-2.957,0.91-4.094c0.683-1.139,1.365-2.049,2.502-2.73
		c1.138-0.684,2.502-0.91,3.867-0.91H324.891z M321.934,376.608c-0.455,0-0.91,0.227-1.365,0.453
		c-0.455,0.229-0.682,0.455-0.91,0.91v0.91c0,0.91,0.228,1.82,0.682,2.275c0.455,0.455,0.91,0.91,1.593,0.91
		c0.682,0,1.137-0.229,1.592-0.684c0.455-0.453,0.684-1.137,0.684-1.818c0-0.684-0.229-1.365-0.684-1.82
		S322.615,376.608,321.934,376.608z"/>
	<path fill="#F6D448" d="M328.758,372.057c0-0.91,0.228-1.592,0.91-2.275c0.683-0.455,1.365-0.91,2.275-0.91s1.819,0.229,2.274,0.91
		c0.683,0.455,0.91,1.365,0.91,2.275v0.682c0,0.91-0.228,1.594-0.91,2.275c-0.683,0.684-1.364,0.91-2.274,0.91
		s-1.82-0.227-2.275-0.91c-0.683-0.455-0.91-1.365-0.91-2.275V372.057z M330.578,372.967c0,0.455,0,0.682,0.455,0.91
		c0.227,0.227,0.455,0.455,0.91,0.455s0.682-0.229,0.91-0.455c0.227-0.229,0.227-0.684,0.227-0.91v-0.682
		c0-0.455,0-0.684-0.227-0.91c-0.229-0.229-0.455-0.455-0.91-0.455s-0.684,0.227-0.91,0.455c-0.228,0.227-0.228,0.682-0.228,0.91
		v0.682H330.578z M332.398,382.748l-1.365-0.682l7.052-11.375l1.365,0.684L332.398,382.748z M335.582,380.246
		c0-0.91,0.229-1.592,0.91-2.275c0.684-0.455,1.365-0.91,2.275-0.91s1.82,0.229,2.275,0.91c0.682,0.455,0.909,1.365,0.909,2.275
		v0.684c0,0.908-0.228,1.592-0.909,2.273c-0.684,0.455-1.365,0.91-2.275,0.91s-1.82-0.227-2.275-0.91
		c-0.455-0.682-0.91-1.365-0.91-2.273V380.246z M337.63,381.156c0,0.455,0.228,0.682,0.455,0.91c0.228,0.227,0.455,0.455,0.91,0.455
		c0.909,0,1.138-0.455,1.138-1.365v-0.682c0-0.455-0.229-0.684-0.455-0.91c-0.228-0.229-0.455-0.455-0.91-0.455
		s-0.683,0.227-0.91,0.455c-0.228,0.227-0.228,0.682-0.228,0.91V381.156z"/>
</g>
<g>
	<path fill="#91C1E4" d="M130.616,152.076c0,2.048-0.455,3.64-1.137,4.55s-2.047,1.593-3.64,1.593c-1.592,0-2.729-0.455-3.64-1.593
		c-0.91-1.138-1.365-2.502-1.365-4.55v-2.729c0-2.048,0.455-3.64,1.365-4.55c0.91-1.138,2.047-1.593,3.64-1.593
		c1.593,0,2.73,0.455,3.64,1.593c0.91,1.138,1.365,2.502,1.365,4.55v2.729H130.616z M127.886,149.119
		c0-1.138-0.228-2.048-0.455-2.73c-0.228-0.455-0.91-0.909-1.592-0.909c-0.683,0-1.138,0.228-1.593,0.682
		c-0.228,0.455-0.455,1.365-0.455,2.503v3.64c0,1.138,0.228,2.048,0.455,2.729c0.228,0.683,0.91,0.91,1.593,0.91
		c0.682,0,1.137-0.228,1.592-0.91c0.228-0.454,0.455-1.364,0.455-2.502V149.119z"/>
	<path fill="#91C1E4" d="M133.573,161.858l-1.592-0.683l0.455-0.683c0.455-0.91,0.683-1.592,0.683-2.502v-2.275h2.502v2.048
		c0,0.683-0.228,1.593-0.455,2.274C134.483,160.72,134.028,161.403,133.573,161.858z"/>
	<path fill="#91C1E4" d="M147.678,158.219h-10.01v-2.048l4.777-5.005c0.683-0.683,1.137-1.364,1.365-1.819s0.455-1.138,0.455-1.593
		c0-0.683-0.228-1.138-0.455-1.593s-0.682-0.455-1.365-0.455s-1.138,0.228-1.592,0.683c-0.455,0.455-0.455,1.138-0.455,1.82h-2.958
		c0-0.91,0.228-1.593,0.683-2.503c0.455-0.682,0.91-1.364,1.82-1.819c0.683-0.455,1.592-0.683,2.73-0.683
		c1.592,0,2.73,0.455,3.412,1.138c0.91,0.683,1.138,1.819,1.138,2.957c0,0.683-0.228,1.365-0.455,2.275
		c-0.228,0.909-0.91,1.592-1.82,2.502l-3.413,3.412h6.37v2.73H147.678z"/>
	<path fill="#91C1E4" d="M158.824,147.526c0,0.683-0.228,1.365-0.455,1.82c-0.455,0.455-0.91,0.91-1.365,1.364
		c0.683,0.228,1.365,0.91,1.592,1.365c0.455,0.683,0.683,1.365,0.683,2.048c0,1.364-0.455,2.274-1.365,2.957
		c-0.91,0.683-2.047,1.138-3.64,1.138c-1.592,0-2.729-0.455-3.64-1.138s-1.365-1.82-1.365-2.957c0-0.91,0.227-1.593,0.682-2.048
		s0.91-1.138,1.593-1.365c-0.683-0.228-1.138-0.682-1.365-1.364c-0.455-0.455-0.455-1.138-0.455-1.82
		c0-1.138,0.455-2.274,1.138-2.957c0.91-0.683,2.047-1.138,3.412-1.138c1.365,0,2.502,0.455,3.413,1.138
		C158.37,145.252,158.824,146.161,158.824,147.526z M156.322,153.896c0-0.683-0.228-1.138-0.455-1.593s-0.91-0.683-1.593-0.683
		c-0.682,0-1.137,0.228-1.365,0.455c-0.455,0.455-0.455,0.91-0.455,1.593s0.228,1.137,0.455,1.592s0.91,0.683,1.592,0.683
		c0.683,0,1.138-0.228,1.365-0.455C156.095,155.033,156.322,154.579,156.322,153.896z M155.867,147.526
		c0-0.455-0.228-0.91-0.455-1.365c-0.228-0.454-0.683-0.454-1.365-0.454c-0.455,0-0.91,0.228-1.365,0.454
		c-0.228,0.228-0.455,0.683-0.455,1.365s0.228,1.138,0.455,1.365c0.228,0.455,0.683,0.455,1.365,0.455
		c0.683,0,0.91-0.228,1.365-0.455S155.867,148.209,155.867,147.526z"/>
	<path fill="#91C1E4" d="M161.099,146.388c0-0.909,0.228-1.592,0.91-2.274c0.683-0.455,1.365-0.91,2.275-0.91
		c0.91,0,1.82,0.228,2.275,0.91c0.682,0.455,0.91,1.365,0.91,2.274v0.683c0,0.91-0.228,1.593-0.91,2.275
		c-0.683,0.683-1.365,0.91-2.275,0.91c-0.91,0-1.82-0.228-2.275-0.91c-0.683-0.455-0.91-1.365-0.91-2.275V146.388z M162.919,147.071
		c0,0.455,0,0.683,0.455,0.91c0.228,0.228,0.455,0.455,0.91,0.455s0.683-0.228,0.91-0.455c0.228-0.228,0.228-0.683,0.228-0.91
		v-0.683c0-0.454,0-0.682-0.228-0.909s-0.455-0.455-0.91-0.455s-0.683,0.228-0.91,0.455s-0.228,0.682-0.228,0.909v0.683H162.919z
		 M164.739,157.081l-1.365-0.683l7.052-11.374l1.365,0.683L164.739,157.081z M168.151,154.579c0-0.91,0.228-1.593,0.91-2.275
		c0.682-0.455,1.365-0.91,2.275-0.91c0.91,0,1.82,0.228,2.275,0.91c0.682,0.455,0.91,1.365,0.91,2.275v0.682
		c0,0.91-0.228,1.593-0.91,2.275c-0.683,0.455-1.365,0.91-2.275,0.91c-0.91,0-1.82-0.228-2.275-0.91
		c-0.683-0.455-0.91-1.365-0.91-2.275V154.579z M169.971,155.488c0,0.455,0.228,0.683,0.455,0.91s0.455,0.455,0.91,0.455
		c0.91,0,1.137-0.455,1.137-1.365v-0.683c0-0.454-0.228-0.682-0.455-0.909s-0.455-0.455-0.91-0.455c-0.455,0-0.683,0.228-0.91,0.455
		s-0.228,0.683-0.228,0.909V155.488z"/>
</g>
<g>
	<path fill="#F4D256" d="M298.274,152.076c0,2.048-0.455,3.64-1.137,4.55s-2.047,1.593-3.64,1.593c-1.593,0-2.73-0.455-3.64-1.593
		c-0.91-1.138-1.365-2.502-1.365-4.55v-2.729c0-2.048,0.455-3.64,1.365-4.55c0.91-1.138,2.047-1.593,3.64-1.593
		c1.592,0,2.729,0.455,3.64,1.593s1.365,2.502,1.365,4.55v2.729H298.274z M295.317,149.119c0-1.138-0.228-2.048-0.455-2.73
		c-0.228-0.455-0.91-0.909-1.592-0.909c-0.683,0-1.138,0.228-1.592,0.682c-0.228,0.455-0.455,1.365-0.455,2.503v3.64
		c0,1.138,0.228,2.048,0.455,2.729c0.227,0.683,0.91,0.91,1.592,0.91c0.682,0,1.137-0.228,1.592-0.91
		c0.228-0.454,0.455-1.364,0.455-2.502V149.119z"/>
	<path fill="#F4D256" d="M301.004,161.858l-1.592-0.683l0.455-0.683c0.455-0.91,0.682-1.592,0.682-2.502v-2.275h2.502v2.048
		c0,0.683-0.228,1.593-0.455,2.274C302.142,160.72,301.687,161.403,301.004,161.858z"/>
	<path fill="#F4D256" d="M308.284,149.574h1.592c0.683,0,1.365-0.228,1.592-0.455c0.455-0.455,0.455-0.91,0.455-1.365
		c0-0.683-0.228-1.138-0.455-1.365c-0.455-0.228-0.91-0.455-1.365-0.455s-0.91,0.228-1.365,0.455
		c-0.455,0.228-0.455,0.683-0.455,1.138h-3.185c0-0.683,0.228-1.365,0.683-2.047c0.455-0.683,0.91-1.138,1.82-1.365
		c0.683-0.455,1.592-0.455,2.502-0.455c1.592,0,2.73,0.455,3.64,1.138c0.91,0.683,1.365,1.819,1.365,2.957
		c0,0.683-0.228,1.365-0.683,1.82c-0.455,0.454-0.91,0.909-1.592,1.364c0.91,0.228,1.365,0.683,1.82,1.365s0.683,1.365,0.683,2.047
		c0,1.365-0.455,2.275-1.365,3.186c-0.91,0.683-2.275,1.137-3.64,1.137s-2.73-0.454-3.64-1.137c-0.91-0.683-1.365-1.82-1.365-2.958
		h2.958c0,0.455,0.228,0.91,0.683,1.365c0.455,0.455,0.91,0.455,1.592,0.455s1.137-0.228,1.592-0.455
		c0.455-0.455,0.683-0.91,0.683-1.365c0-1.364-0.91-2.274-2.502-2.274h-1.592v-2.729H308.284z"/>
	<path fill="#F4D256" d="M323.754,152.303c-0.684,0.683-1.593,1.138-2.73,1.138c-1.365,0-2.275-0.455-3.185-1.365
		c-0.682-0.91-1.137-2.047-1.137-3.64c0-0.91,0.228-1.82,0.683-2.73c0.455-0.682,0.91-1.364,1.82-1.819
		c0.683-0.455,1.592-0.683,2.502-0.683c0.909,0,1.819,0.228,2.503,0.683c0.682,0.455,1.364,1.138,1.819,2.047
		c0.455,0.91,0.683,1.82,0.683,3.186v1.137c0,2.503-0.683,4.322-1.82,5.688c-1.137,1.365-2.957,2.048-5.232,2.275h-0.683v-2.503
		h0.683C322.161,155.716,323.525,154.579,323.754,152.303z M321.706,151.166c0.455,0,0.909-0.228,1.138-0.455
		c0.227-0.228,0.682-0.455,0.682-0.909v-1.138c0-0.91-0.227-1.82-0.455-2.275c-0.455-0.455-0.909-0.909-1.592-0.909
		s-1.138,0.228-1.365,0.682c-0.455,0.455-0.455,1.138-0.455,2.048c0,0.683,0.228,1.365,0.455,2.047
		C320.568,150.938,321.251,151.166,321.706,151.166z"/>
	<path fill="#F4D256" d="M328.758,146.388c0-0.909,0.228-1.592,0.91-2.274c0.683-0.455,1.365-0.91,2.275-0.91
		s1.819,0.228,2.274,0.91c0.683,0.455,0.91,1.365,0.91,2.274v0.683c0,0.91-0.228,1.593-0.91,2.275s-1.364,0.91-2.274,0.91
		s-1.82-0.228-2.275-0.91c-0.683-0.455-0.91-1.365-0.91-2.275V146.388z M330.578,147.071c0,0.455,0,0.683,0.455,0.91
		c0.227,0.228,0.455,0.455,0.91,0.455s0.682-0.228,0.91-0.455c0.227-0.228,0.227-0.683,0.227-0.91v-0.683
		c0-0.454,0-0.682-0.227-0.909c-0.229-0.228-0.455-0.455-0.91-0.455s-0.684,0.228-0.91,0.455c-0.228,0.228-0.228,0.682-0.228,0.909
		v0.683H330.578z M332.398,157.081l-1.365-0.683l7.052-11.374l1.365,0.683L332.398,157.081z M335.582,154.579
		c0-0.91,0.229-1.593,0.91-2.275c0.684-0.455,1.365-0.91,2.275-0.91s1.82,0.228,2.275,0.91c0.682,0.455,0.909,1.365,0.909,2.275
		v0.682c0,0.91-0.228,1.593-0.909,2.275c-0.684,0.455-1.365,0.91-2.275,0.91s-1.82-0.228-2.275-0.91
		c-0.682-0.455-0.91-1.365-0.91-2.275V154.579z M337.63,155.488c0,0.455,0.228,0.683,0.455,0.91s0.455,0.455,0.91,0.455
		c0.909,0,1.138-0.455,1.138-1.365v-0.683c0-0.454-0.229-0.682-0.455-0.909c-0.228-0.228-0.455-0.455-0.91-0.455
		s-0.683,0.228-0.91,0.455s-0.228,0.683-0.228,0.909V155.488z"/>
</g>
<g>
	<path fill="#DB4E26" d="M447.279,158.219h-2.957v-11.147l-3.412,1.138v-2.274l5.914-2.048h0.228v14.332H447.279z"/>
	<path fill="#DB4E26" d="M452.967,161.858l-1.593-0.683l0.455-0.683c0.455-0.91,0.683-1.592,0.683-2.502v-2.275h2.502v2.048
		c0,0.683-0.227,1.593-0.455,2.274C453.877,160.72,453.422,161.403,452.967,161.858z"/>
	<path fill="#DB4E26" d="M464.796,143.431v2.275h-0.228c-1.365,0-2.275,0.454-3.185,0.909c-0.91,0.683-1.365,1.593-1.365,2.73
		c0.683-0.683,1.82-1.138,2.958-1.138c1.364,0,2.274,0.455,2.957,1.365c0.682,0.909,1.137,2.047,1.137,3.64
		c0,0.91-0.227,1.819-0.682,2.502s-0.91,1.365-1.82,1.82c-0.682,0.455-1.592,0.683-2.502,0.683c-1.593,0-2.73-0.455-3.641-1.593
		s-1.364-2.502-1.364-4.322v-1.138c0-1.592,0.228-2.957,0.909-4.095c0.684-1.137,1.365-2.047,2.503-2.729s2.503-0.91,3.867-0.91
		H464.796z M462.066,150.711c-0.455,0-0.91,0.228-1.365,0.455s-0.683,0.455-0.91,0.91v0.91c0,0.91,0.228,1.819,0.683,2.274
		s0.91,0.91,1.593,0.91c0.682,0,1.137-0.228,1.592-0.683s0.683-1.137,0.683-1.819s-0.228-1.365-0.683-1.82
		C463.203,150.938,462.748,150.711,462.066,150.711z"/>
	<path fill="#DB4E26" d="M469.118,150.938l0.91-7.507h8.189v2.503h-5.687l-0.455,3.185c0.682-0.455,1.364-0.455,2.274-0.455
		c1.364,0,2.503,0.455,3.185,1.365c0.683,0.909,1.138,2.047,1.138,3.64c0,0.91-0.228,1.819-0.683,2.502s-0.91,1.365-1.592,1.82
		c-0.684,0.455-1.593,0.683-2.73,0.683c-0.91,0-1.592-0.228-2.502-0.455c-0.683-0.455-1.365-0.91-1.82-1.593
		s-0.683-1.365-0.683-2.274h2.958c0,0.682,0.227,1.137,0.682,1.364s0.91,0.455,1.365,0.455c0.683,0,1.138-0.228,1.592-0.683
		c0.455-0.455,0.455-1.137,0.455-2.047s-0.227-1.365-0.682-1.82s-0.91-0.683-1.82-0.683c-0.682,0-1.137,0.228-1.592,0.455
		l-0.229,0.228L469.118,150.938z"/>
	<path fill="#DB4E26" d="M480.492,146.388c0-0.909,0.229-1.592,0.91-2.274c0.683-0.455,1.365-0.91,2.275-0.91s1.82,0.228,2.274,0.91
		c0.683,0.455,0.91,1.365,0.91,2.274v0.683c0,0.91-0.228,1.593-0.91,2.275s-1.364,0.91-2.274,0.91s-1.82-0.228-2.275-0.91
		c-0.682-0.455-0.91-1.365-0.91-2.275V146.388z M482.313,147.071c0,0.455,0,0.683,0.455,0.91c0.228,0.228,0.455,0.455,0.91,0.455
		s0.682-0.228,0.91-0.455c0.227,0,0.227-0.455,0.227-0.91v-0.683c0-0.454,0-0.682-0.227-0.909c-0.229-0.228-0.455-0.455-0.91-0.455
		s-0.683,0.228-0.91,0.455s-0.228,0.682-0.228,0.909v0.683H482.313z M484.133,157.081l-1.365-0.683l7.053-11.374l1.364,0.683
		L484.133,157.081z M487.545,154.579c0-0.91,0.228-1.593,0.91-2.275c0.682-0.455,1.365-0.91,2.274-0.91
		c0.91,0,1.819,0.228,2.274,0.91c0.684,0.455,0.91,1.365,0.91,2.275v0.682c0,0.91-0.227,1.593-0.91,2.275
		c-0.682,0.455-1.364,0.91-2.274,0.91c-0.909,0-1.819-0.228-2.274-0.91c-0.683-0.455-0.91-1.365-0.91-2.275V154.579z
		 M489.365,155.488c0,0.455,0.227,0.683,0.455,0.91c0.227,0.228,0.454,0.455,0.909,0.455c0.91,0,1.138-0.455,1.138-1.365v-0.683
		c0-0.454-0.228-0.682-0.455-0.909s-0.455-0.455-0.91-0.455s-0.682,0.228-0.91,0.455c-0.227,0.228-0.227,0.683-0.227,0.909V155.488z
		"/>
</g>
</svg>
