<?xml version="1.0" encoding="utf-8"?>
<!-- Generator: Adobe Illustrator 18.1.1, SVG Export Plug-In . SVG Version: 6.00 Build 0)  -->
<svg version="1.1" id="Camada_1" xmlns="http://www.w3.org/2000/svg" xmlns:xlink="http://www.w3.org/1999/xlink" x="0px" y="0px"
	 viewBox="-192 315.9 210.5 211" enable-background="new -192 315.9 210.5 211" xml:space="preserve">
<g>
	<g>
		<path fill="#FFFFFF" d="M-161.8,443.3v5c0,0.8-0.2,1.5-0.7,1.9c-0.5,0.5-1.1,0.7-1.9,0.7c-0.8,0-1.4-0.2-1.8-0.7
			c-0.5-0.5-0.7-1.1-0.7-1.9v-5h0.6v5c0,0.6,0.2,1.2,0.6,1.5c0.4,0.4,0.8,0.6,1.4,0.6c0.6,0,1.1-0.2,1.4-0.6
			c0.4-0.4,0.6-0.9,0.6-1.5v-5C-162.4,443.3-161.8,443.3-161.8,443.3z"/>
		<path fill="#FFFFFF" d="M-159.5,447.7v3.1h-0.6v-7.5h2.5c0.8,0,1.3,0.2,1.8,0.6c0.4,0.4,0.6,0.9,0.6,1.6c0,0.7-0.2,1.2-0.6,1.6
			c-0.4,0.4-1,0.6-1.8,0.6L-159.5,447.7L-159.5,447.7z M-159.5,447.2h1.9c0.6,0,1-0.2,1.3-0.5c0.3-0.3,0.4-0.7,0.4-1.2
			c0-0.5-0.1-0.9-0.4-1.2c-0.3-0.3-0.7-0.5-1.3-0.5h-1.9V447.2z"/>
		<path fill="#FFFFFF" d="M-149.9,447.3h-3.3v3.5h-0.6v-7.5h4.4v0.5h-3.8v2.9h3.3V447.3z"/>
		<path fill="#FFFFFF" d="M-145.2,449.4c0-0.3-0.1-0.5-0.3-0.7c-0.2-0.2-0.6-0.4-1.1-0.5c-0.6-0.1-1.1-0.3-1.4-0.6
			c-0.3-0.2-0.5-0.6-0.5-1c0-0.4,0.2-0.8,0.5-1.1c0.3-0.3,0.8-0.4,1.4-0.4c0.6,0,1.1,0.2,1.4,0.5s0.5,0.7,0.5,1.2l0,0h-0.5
			c0-0.3-0.1-0.6-0.4-0.8c-0.3-0.2-0.6-0.3-1-0.3c-0.4,0-0.8,0.1-1,0.3c-0.2,0.2-0.3,0.4-0.3,0.7c0,0.3,0.1,0.5,0.3,0.6
			c0.2,0.2,0.6,0.3,1.1,0.4c0.6,0.1,1.1,0.3,1.4,0.6c0.3,0.3,0.5,0.6,0.5,1c0,0.5-0.2,0.8-0.5,1.1c-0.4,0.3-0.8,0.4-1.4,0.4
			c-0.6,0-1.2-0.2-1.5-0.5c-0.4-0.3-0.5-0.7-0.5-1.1l0,0h0.5c0,0.4,0.2,0.7,0.5,0.9c0.3,0.2,0.6,0.3,1,0.3c0.4,0,0.8-0.1,1-0.3
			C-145.3,449.9-145.2,449.6-145.2,449.4z"/>
	</g>
	<g>
		<g>
			<polygon fill="#D3EAF7" points="-161.3,483.4 -177.5,505.5 -168.1,503.7 -163,510.4 -153.2,485.8 			"/>
			<polygon fill="#D3EAF7" points="-150.2,483.4 -134,505.5 -143.4,503.7 -148.5,510.4 -158.3,485.8 			"/>
			<g>
				<g>
					<path stroke="#DD9A28" stroke-width="2" d="M-137.6,478.1c-0.4,9.8-8.7,17.4-18.5,17c-9.8-0.4-17.4-8.7-17-18.5
						c0.4-9.8,8.7-17.4,18.5-17C-144.8,460.1-137.2,468.3-137.6,478.1z"/>
				</g>
			</g>
		</g>
	</g>
</g>
<g>
	<g>
		<path fill="#FFFFFF" d="M-93.3,447.7c0,1-0.3,1.7-0.8,2.3s-1.2,0.9-2,0.9c-0.8,0-1.5-0.3-2-0.9c-0.5-0.6-0.8-1.4-0.8-2.3v-1.2
			c0-1,0.3-1.7,0.8-2.3c0.5-0.6,1.2-0.9,2-0.9c0.9,0,1.5,0.3,2.1,0.9c0.5,0.6,0.8,1.4,0.8,2.3C-93.3,446.5-93.3,447.7-93.3,447.7z
			 M-93.9,446.4c0-0.8-0.2-1.5-0.6-1.9s-0.9-0.7-1.6-0.7c-0.7,0-1.2,0.2-1.6,0.7s-0.6,1.1-0.6,1.9v1.2c0,0.8,0.2,1.5,0.6,2
			c0.4,0.5,0.9,0.7,1.6,0.7c0.7,0,1.2-0.2,1.6-0.7c0.4-0.5,0.6-1.1,0.6-2C-93.9,447.7-93.9,446.4-93.9,446.4z"/>
		<path fill="#FFFFFF" d="M-87.7,449c0-0.4-0.1-0.7-0.4-0.9c-0.3-0.2-0.8-0.5-1.5-0.7c-0.8-0.2-1.4-0.5-1.8-0.8
			c-0.4-0.3-0.6-0.8-0.6-1.3c0-0.6,0.2-1,0.7-1.4s1-0.6,1.7-0.6c0.7,0,1.3,0.2,1.8,0.6c0.4,0.4,0.7,0.9,0.6,1.6l0,0h-0.6
			c0-0.5-0.2-0.9-0.5-1.2c-0.3-0.3-0.8-0.5-1.3-0.5c-0.6,0-1,0.1-1.3,0.4c-0.3,0.3-0.5,0.6-0.5,1c0,0.4,0.1,0.7,0.4,0.9
			s0.8,0.5,1.5,0.7c0.8,0.2,1.3,0.5,1.7,0.8c0.4,0.3,0.6,0.8,0.6,1.3c0,0.6-0.2,1-0.7,1.4s-1.1,0.5-1.8,0.5s-1.3-0.2-1.9-0.6
			c-0.5-0.4-0.8-0.9-0.8-1.6l0,0h0.5c0,0.6,0.2,1,0.6,1.3c0.4,0.3,0.9,0.4,1.4,0.4c0.6,0,1-0.1,1.3-0.4
			C-87.9,449.7-87.7,449.4-87.7,449z"/>
		<path fill="#FFFFFF" d="M-80.7,448.5L-80.7,448.5c0,0.8-0.2,1.3-0.7,1.8c-0.5,0.4-1.1,0.7-1.9,0.7c-0.8,0-1.4-0.3-1.9-0.9
			c-0.5-0.6-0.7-1.4-0.7-2.3v-1.2c0-0.9,0.2-1.7,0.7-2.3c0.5-0.6,1.1-0.9,1.9-0.9c0.8,0,1.4,0.2,1.9,0.6c0.5,0.4,0.7,1,0.7,1.8l0,0
			h-0.6c0-0.6-0.2-1.1-0.5-1.4c-0.4-0.3-0.8-0.5-1.5-0.5c-0.6,0-1.1,0.3-1.5,0.8c-0.4,0.5-0.6,1.2-0.6,1.9v1.2c0,0.8,0.2,1.5,0.6,2
			c0.4,0.5,0.9,0.8,1.5,0.8c0.6,0,1.1-0.2,1.5-0.5c0.4-0.3,0.5-0.8,0.5-1.4L-80.7,448.5L-80.7,448.5z"/>
		<path fill="#FFFFFF" d="M-78.4,450.8H-79v-7.5h0.6V450.8z"/>
		<path fill="#FFFFFF" d="M-75.8,447.7v3.1h-0.6v-7.5h2.5c0.8,0,1.3,0.2,1.8,0.6c0.4,0.4,0.6,0.9,0.6,1.6c0,0.7-0.2,1.2-0.6,1.6
			c-0.4,0.4-1,0.6-1.8,0.6L-75.8,447.7L-75.8,447.7z M-75.8,447.2h1.9c0.6,0,1-0.2,1.3-0.5c0.3-0.3,0.4-0.7,0.4-1.2
			c0-0.5-0.1-0.9-0.4-1.2c-0.3-0.3-0.7-0.5-1.3-0.5h-1.9V447.2z"/>
		<path fill="#FFFFFF" d="M-67.1,449.4c0-0.3-0.1-0.5-0.3-0.7c-0.2-0.2-0.6-0.4-1.1-0.5c-0.6-0.1-1.1-0.3-1.4-0.6
			c-0.3-0.2-0.5-0.6-0.5-1c0-0.4,0.2-0.8,0.5-1.1c0.3-0.3,0.8-0.4,1.4-0.4c0.6,0,1.1,0.2,1.4,0.5s0.5,0.7,0.5,1.2l0,0h-0.5
			c0-0.3-0.1-0.6-0.4-0.8c-0.3-0.2-0.6-0.3-1-0.3c-0.4,0-0.8,0.1-1,0.3c-0.2,0.2-0.3,0.4-0.3,0.7c0,0.3,0.1,0.5,0.3,0.6
			c0.2,0.2,0.6,0.3,1.1,0.4c0.6,0.1,1.1,0.3,1.4,0.6c0.3,0.3,0.5,0.6,0.5,1c0,0.5-0.2,0.8-0.5,1.1c-0.4,0.3-0.8,0.4-1.4,0.4
			c-0.6,0-1.2-0.2-1.5-0.5c-0.4-0.3-0.5-0.7-0.5-1.1l0,0h0.5c0,0.4,0.2,0.7,0.5,0.9c0.3,0.2,0.6,0.3,1,0.3c0.4,0,0.8-0.1,1-0.3
			C-67.2,449.9-67.1,449.6-67.1,449.4z"/>
	</g>
	<g>
		<g>
			<polygon fill="#F6D448" points="-88.3,483.4 -104.5,505.5 -95.1,503.7 -89.9,510.4 -80.2,485.8 			"/>
			<polygon fill="#F6D448" points="-77.1,483.4 -61,505.5 -70.3,503.7 -75.5,510.4 -85.2,485.8 			"/>
			<g>
				<g>
					<path stroke="#DD9A28" stroke-width="2" d="M-64.6,478.1c-0.4,9.8-8.7,17.4-18.5,17c-9.8-0.4-17.4-8.7-17-18.5
						c0.4-9.8,8.7-17.4,18.5-17C-71.8,460.1-64.2,468.3-64.6,478.1z"/>
				</g>
			</g>
		</g>
	</g>
</g>
<g>
	<g>
		<g>
			<path fill="#FFFFFF" d="M-24.9,330.5L-24.9,330.5c0,0.8-0.2,1.3-0.7,1.8s-1.1,0.7-1.9,0.7c-0.8,0-1.4-0.3-1.9-0.9
				c-0.5-0.6-0.7-1.4-0.7-2.3v-1.2c0-0.9,0.2-1.7,0.7-2.3c0.5-0.6,1.1-0.9,1.9-0.9c0.8,0,1.4,0.2,1.9,0.6c0.5,0.4,0.7,1,0.7,1.8l0,0
				h-0.6c0-0.6-0.2-1.1-0.5-1.4c-0.4-0.3-0.8-0.5-1.5-0.5c-0.6,0-1.1,0.3-1.5,0.8c-0.4,0.5-0.6,1.2-0.6,1.9v1.2c0,0.8,0.2,1.5,0.6,2
				c0.4,0.5,0.9,0.8,1.5,0.8c0.6,0,1.1-0.2,1.5-0.5c0.4-0.3,0.5-0.8,0.5-1.4L-24.9,330.5L-24.9,330.5z"/>
			<path fill="#FFFFFF" d="M-19.6,329.2h-3.2v3.1h3.7v0.5h-4.3v-7.5h4.3v0.5h-3.7v2.8h3.2V329.2z"/>
			<path fill="#FFFFFF" d="M-17.8,332.9v-7.5h2.1c0.7,0,1.3,0.2,1.7,0.5c0.4,0.3,0.6,0.8,0.6,1.5c0,0.4-0.1,0.7-0.3,1
				c-0.2,0.3-0.5,0.5-0.8,0.6c0.5,0.1,0.8,0.3,1.1,0.6c0.3,0.4,0.4,0.8,0.4,1.2c0,0.7-0.2,1.2-0.6,1.5c-0.4,0.4-1,0.5-1.7,0.5H-17.8
				z M-17.2,328.7h1.7c0.5,0,0.9-0.1,1.2-0.4c0.3-0.2,0.4-0.6,0.4-1c0-0.5-0.2-0.8-0.5-1.1c-0.3-0.2-0.7-0.4-1.3-0.4h-1.5
				L-17.2,328.7L-17.2,328.7z M-17.2,329.3v3.1h2c0.5,0,0.9-0.1,1.3-0.4c0.3-0.3,0.5-0.6,0.5-1.1c0-0.4-0.1-0.8-0.4-1.1
				c-0.3-0.3-0.7-0.4-1.2-0.4h-0.1C-15.2,329.3-17.2,329.3-17.2,329.3z"/>
			<path fill="#FFFFFF" d="M-7.8,330.8H-11l-0.7,2.1h-0.6l2.6-7.5h0.6l2.6,7.5h-0.6L-7.8,330.8z M-10.8,330.2H-8l-1.4-4h0
				L-10.8,330.2z"/>
			<path fill="#FFFFFF" d="M-1.3,331c0-0.4-0.1-0.7-0.4-0.9c-0.3-0.2-0.8-0.5-1.5-0.7c-0.8-0.2-1.4-0.5-1.8-0.8
				c-0.4-0.3-0.6-0.8-0.6-1.3c0-0.6,0.2-1,0.7-1.4c0.4-0.4,1-0.6,1.7-0.6c0.7,0,1.3,0.2,1.8,0.6c0.4,0.4,0.7,0.9,0.6,1.6l0,0h-0.6
				c0-0.5-0.2-0.9-0.5-1.2c-0.3-0.3-0.8-0.5-1.3-0.5c-0.6,0-1,0.1-1.3,0.4c-0.3,0.3-0.5,0.6-0.5,1c0,0.4,0.1,0.7,0.4,0.9
				s0.8,0.5,1.5,0.7c0.8,0.2,1.3,0.5,1.7,0.8c0.4,0.3,0.6,0.8,0.6,1.3c0,0.6-0.2,1-0.7,1.4s-1.1,0.5-1.8,0.5s-1.3-0.2-1.9-0.6
				s-0.8-0.9-0.8-1.6l0,0h0.5c0,0.6,0.2,1,0.6,1.3c0.4,0.3,0.9,0.4,1.4,0.4c0.6,0,1-0.1,1.3-0.4C-1.5,331.8-1.3,331.5-1.3,331z"/>
			<path fill="#FFFFFF" d="M-21.9,344.6L-21.9,344.6l2.7-6.6h0.7v7.5h-0.6v-6.3l0,0l-2.6,6.3h-0.4l-2.6-6.4l0,0v6.4h-0.6V338h0.8
				L-21.9,344.6z"/>
			<path fill="#FFFFFF" d="M-16.7,345.5V338h2.2c0.9,0,1.6,0.3,2.2,0.9c0.6,0.6,0.9,1.4,0.9,2.3v1c0,1-0.3,1.7-0.9,2.3
				c-0.6,0.6-1.3,0.9-2.2,0.9H-16.7z M-16.1,338.5v6.4h1.6c0.7,0,1.3-0.3,1.8-0.8c0.5-0.5,0.7-1.2,0.7-2v-1c0-0.8-0.2-1.4-0.7-1.9
				c-0.5-0.5-1-0.8-1.8-0.8L-16.1,338.5L-16.1,338.5z"/>
			<path fill="#FFFFFF" d="M-5.8,343.6c0-0.4-0.1-0.7-0.4-0.9s-0.8-0.5-1.5-0.7c-0.8-0.2-1.4-0.5-1.8-0.8c-0.4-0.3-0.6-0.8-0.6-1.3
				c0-0.6,0.2-1,0.7-1.4s1-0.6,1.7-0.6c0.7,0,1.3,0.2,1.8,0.6c0.4,0.4,0.7,0.9,0.6,1.6l0,0h-0.6c0-0.5-0.2-0.9-0.5-1.2
				c-0.3-0.3-0.8-0.5-1.3-0.5c-0.6,0-1,0.1-1.3,0.4c-0.3,0.3-0.5,0.6-0.5,1c0,0.4,0.1,0.7,0.4,0.9c0.3,0.2,0.8,0.5,1.5,0.7
				c0.8,0.2,1.3,0.5,1.7,0.8c0.4,0.3,0.6,0.8,0.6,1.3c0,0.6-0.2,1-0.7,1.4s-1.1,0.5-1.8,0.5s-1.3-0.2-1.9-0.6
				c-0.5-0.4-0.8-0.9-0.8-1.6l0,0h0.5c0,0.6,0.2,1,0.6,1.3c0.4,0.3,0.9,0.4,1.4,0.4c0.6,0,1-0.1,1.3-0.4
				C-6,344.4-5.8,344.1-5.8,343.6z"/>
		</g>
	</g>
	<g>
		<g>
			<g>
				<polygon fill="#DB4E26" points="-21.4,383.6 -37.3,405.4 -28.1,403.6 -23,410.2 -13.4,386 				"/>
			</g>
			<g>
				<polygon fill="#DB4E26" points="-10.4,383.6 5.5,405.4 -3.7,403.6 -8.8,410.2 -18.4,386 				"/>
			</g>
			<g>
				<g>
					<path fill="#DB4E26" d="M5.9,382.1C6,382,6,382,6,381.9c0.2-0.2,0.4-0.3,0.4-0.3l-0.1,0c0.6-0.7,1-1.7,1-2.7
						c0-1.4-0.6-2.6-1.6-3.4l0,0c0,0-0.5-0.5-0.6-1c0-0.1,0-0.2,0-0.3c0.2-0.3,0.3-0.5,0.4-0.8c0.1-0.1,0.1-0.2,0.1-0.2l-0.1,0
						c0.4-1,0.4-2.1-0.1-3.1c-0.5-1.1-1.3-1.8-2.2-2.3l0.1,0c0,0-0.9-0.4-1.1-0.9c-0.2-0.5,0.1-1.2,0.1-1.2l-0.1,0.1
						c0.2-1.3-0.2-2.6-1.2-3.6c-1-1-2.4-1.4-3.8-1.2c-0.2,0-0.4-0.1-0.6-0.1c-0.3-0.1-0.4-0.5-0.6-0.7c-0.3-1.3-1.2-2.4-2.6-2.9
						c-1.1-0.5-2.4-0.4-3.4,0.1l0,0c0,0-0.1,0.1-0.2,0.1c0,0-0.1,0-0.1,0c-0.3,0.1-0.7,0.3-1,0.2c-0.3-0.1-0.5-0.3-0.7-0.5
						c-0.8-1.1-2.1-1.9-3.6-1.9c-1.3,0-2.5,0.6-3.3,1.5v-0.1c0,0-0.4,0.6-0.9,0.8c-0.5,0.1-1.4-0.4-1.4-0.4l0,0.1
						c-1-0.3-2.1-0.4-3.1,0.1c-1.1,0.4-1.9,1.3-2.3,2.3l0-0.1c0,0,0,0.2-0.1,0.4c0,0.1-0.1,0.1-0.1,0.2c-0.1,0.3-0.2,0.5-0.4,0.7
						c-0.5,0.3-1.2,0.2-1.2,0.2l0,0c-1.2-0.1-2.5,0.3-3.4,1.3c-0.9,0.9-1.3,2.1-1.3,3.3l0,0c0,0,0.2,0.7-0.1,1.2
						c-0.1,0.2-0.3,0.4-0.5,0.5c-1.3,0.3-2.5,1.2-3,2.6c-0.5,1.3-0.4,2.8,0.3,3.9l-0.1-0.1c0,0,0.4,0.6,0.3,1.2
						c-0.1,0.5-0.9,1.1-0.9,1.1h0c-0.9,0.8-1.4,2-1.4,3.2c0,1.4,0.7,2.6,1.7,3.4c0.2,0.2,0.4,0.4,0.5,0.7c0.1,0.5-0.4,1.4-0.4,1.4
						l0,0c-0.4,1-0.5,2.2,0,3.3c0.6,1.5,2,2.4,3.4,2.6c0.1,0.1,0.3,0.1,0.4,0.3c0.1,0.1,0.2,0.3,0.2,0.4c0,1.2,0.4,2.4,1.3,3.3
						c0.9,0.9,2,1.3,3.1,1.3l0,0c0,0,0,0,0,0c0.1,0,0.3,0,0.4,0c0.3,0,0.7,0,0.9,0.2c0.3,0.2,0.4,0.5,0.5,0.7c0,0.1,0,0.1,0.1,0.2
						c0,0.1,0,0.1,0,0.1l0,0c0.4,1.1,1.3,2,2.4,2.5c0.9,0.4,1.9,0.4,2.8,0.2l0,0c0,0,0,0,0.1,0c0.2-0.1,0.4-0.1,0.6-0.2
						c0.3-0.1,0.6-0.1,0.8,0c0.1,0,0.2,0.1,0.3,0.2c0.8,1.2,2.1,2,3.6,2c1.3,0,2.4-0.5,3.2-1.4v0c0,0,0-0.1,0.1-0.2
						c0.1-0.1,0.2-0.2,0.2-0.3c0.1-0.2,0.3-0.3,0.5-0.4c0.5-0.2,1.4,0.3,1.4,0.3l-0.1-0.1c1,0.4,2.1,0.4,3.2,0
						c1.1-0.5,2-1.3,2.4-2.4l0,0.1c0,0,0.2-1,0.7-1.2c0.5-0.3,1.2-0.1,1.2-0.1l-0.1-0.1c1.2,0,2.4-0.4,3.3-1.3
						c0.9-0.9,1.3-2,1.3-3.1l0,0c0,0,0-0.1,0-0.2c0-0.1,0-0.2,0-0.4c0-0.2,0-0.5,0.1-0.7c0.2-0.5,1.2-0.8,1.2-0.8l-0.1,0
						c1.1-0.4,2.1-1.3,2.6-2.5c0.5-1.2,0.4-2.4-0.1-3.5c-0.1-0.3-0.1-0.6,0-0.8C5.7,382.3,5.8,382.2,5.9,382.1z M-5.5,388.1
						c-0.9,0.9-1.3,2-1.3,3.1c-1-0.4-2.2-0.5-3.4,0c-1.2,0.5-2,1.4-2.4,2.5c-0.8-0.7-1.8-1.1-2.9-1.1c-1,0-1.8,0.3-2.5,0.8
						c-0.4-1-1.2-1.8-2.3-2.2c-1.2-0.5-2.4-0.4-3.4,0.1c0-1.1-0.4-2.3-1.3-3.1c-0.9-0.9-2-1.3-3.2-1.3c0.1-0.8,0.1-1.7-0.3-2.5
						c-0.5-1.1-1.4-1.9-2.4-2.4c0.8-0.8,1.3-1.9,1.3-3.1c0-1.4-0.7-2.7-1.7-3.5c1.3-0.3,2.4-1.3,2.9-2.6c0.5-1.1,0.4-2.3,0-3.4
						c1.1,0,2.2-0.4,3-1.3c0.9-0.9,1.3-2,1.3-3.1c1,0.4,2.2,0.5,3.4,0c1.1-0.5,2-1.4,2.4-2.4c0.8,0.7,1.8,1.1,2.9,1.1
						c1.3,0,2.5-0.6,3.3-1.5c0.4,1.2,1.3,2.3,2.5,2.8c1.1,0.5,2.3,0.4,3.4,0c0,1.1,0.4,2.3,1.3,3.1c0.8,0.8,1.8,1.2,2.8,1.3
						c-0.7,1.1-0.9,2.6-0.3,4c0.5,1.1,1.4,1.9,2.4,2.3c-0.8,0.8-1.3,1.9-1.3,3.1c0,0.9,0.3,1.8,0.8,2.5c-0.8,0.5-1.4,1.2-1.7,2.1
						c-0.5,1.1-0.4,2.3,0,3.4C-3.5,386.8-4.7,387.2-5.5,388.1z"/>
				</g>
				<g>
					<g>
						<g>
							<path d="M-0.6,378.8c-0.3,8-7.2,14.2-15.2,13.9c-8.1-0.3-14.4-7.1-14-15.1c0.3-8,7.2-14.2,15.2-13.9
								C-6.5,364.1-0.2,370.8-0.6,378.8z"/>
							<path fill="#B52125" d="M-15.2,393.7c-0.2,0-0.4,0-0.7,0c-4.2-0.2-8.1-1.9-10.9-5c-2.8-3.1-4.3-7-4.1-11.1
								c0.4-8.5,7.6-15.2,16.3-14.8c8.6,0.4,15.4,7.6,15,16.1C0.1,387.2-6.8,393.7-15.2,393.7L-15.2,393.7z M-15.2,364.8
								c-7.3,0-13.3,5.7-13.6,12.9c-0.2,3.6,1.1,7,3.6,9.7c2.5,2.6,5.8,4.2,9.4,4.3c7.6,0.3,13.9-5.5,14.2-12.9
								c0.3-7.4-5.5-13.7-13-14C-14.8,364.8-15,364.8-15.2,364.8L-15.2,364.8z"/>
						</g>
					</g>
				</g>
			</g>
		</g>
	</g>
</g>
<g>
	<g>
		<g>
			<path fill="#FFFFFF" d="M-92.1,330.5L-92.1,330.5c0,0.8-0.2,1.3-0.7,1.8s-1.1,0.7-1.9,0.7c-0.8,0-1.4-0.3-1.9-0.9
				c-0.5-0.6-0.7-1.4-0.7-2.3v-1.2c0-0.9,0.2-1.7,0.7-2.3c0.5-0.6,1.1-0.9,1.9-0.9c0.8,0,1.4,0.2,1.9,0.6c0.5,0.4,0.7,1,0.7,1.8l0,0
				h-0.6c0-0.6-0.2-1.1-0.5-1.4c-0.4-0.3-0.8-0.5-1.5-0.5c-0.6,0-1.1,0.3-1.5,0.8c-0.4,0.5-0.6,1.2-0.6,1.9v1.2c0,0.8,0.2,1.5,0.6,2
				c0.4,0.5,0.9,0.8,1.5,0.8c0.6,0,1.1-0.2,1.5-0.5c0.4-0.3,0.5-0.8,0.5-1.4L-92.1,330.5L-92.1,330.5z"/>
			<path fill="#FFFFFF" d="M-86.8,329.2H-90v3.1h3.7v0.5h-4.3v-7.5h4.3v0.5H-90v2.8h3.2C-86.8,328.7-86.8,329.2-86.8,329.2z"/>
			<path fill="#FFFFFF" d="M-85,332.9v-7.5h2.1c0.7,0,1.3,0.2,1.7,0.5c0.4,0.3,0.6,0.8,0.6,1.5c0,0.4-0.1,0.7-0.3,1
				c-0.2,0.3-0.5,0.5-0.8,0.6c0.5,0.1,0.8,0.3,1.1,0.6c0.3,0.4,0.4,0.8,0.4,1.2c0,0.7-0.2,1.2-0.6,1.5c-0.4,0.4-1,0.5-1.7,0.5H-85z
				 M-84.4,328.7h1.7c0.5,0,0.9-0.1,1.2-0.4c0.3-0.2,0.4-0.6,0.4-1c0-0.5-0.2-0.8-0.5-1.1c-0.3-0.2-0.7-0.4-1.3-0.4h-1.5
				C-84.4,325.9-84.4,328.7-84.4,328.7z M-84.4,329.3v3.1h2c0.5,0,0.9-0.1,1.3-0.4c0.3-0.3,0.5-0.6,0.5-1.1c0-0.4-0.1-0.8-0.4-1.1
				c-0.3-0.3-0.7-0.4-1.2-0.4h-0.1C-82.4,329.3-84.4,329.3-84.4,329.3z"/>
			<path fill="#FFFFFF" d="M-75,330.8h-3.2l-0.7,2.1h-0.6l2.6-7.5h0.6l2.6,7.5h-0.6L-75,330.8z M-78,330.2h2.8l-1.4-4h0L-78,330.2z"
				/>
			<path fill="#FFFFFF" d="M-68.5,331c0-0.4-0.1-0.7-0.4-0.9c-0.3-0.2-0.8-0.5-1.5-0.7c-0.8-0.2-1.4-0.5-1.8-0.8
				c-0.4-0.3-0.6-0.8-0.6-1.3c0-0.6,0.2-1,0.7-1.4c0.4-0.4,1-0.6,1.7-0.6c0.7,0,1.3,0.2,1.8,0.6c0.4,0.4,0.7,0.9,0.6,1.6l0,0h-0.6
				c0-0.5-0.2-0.9-0.5-1.2c-0.3-0.3-0.8-0.5-1.3-0.5c-0.6,0-1,0.1-1.3,0.4c-0.3,0.3-0.5,0.6-0.5,1c0,0.4,0.1,0.7,0.4,0.9
				s0.8,0.5,1.5,0.7c0.8,0.2,1.3,0.5,1.7,0.8c0.4,0.3,0.6,0.8,0.6,1.3c0,0.6-0.2,1-0.7,1.4s-1.1,0.5-1.8,0.5s-1.3-0.2-1.9-0.6
				s-0.8-0.9-0.8-1.6l0,0h0.5c0,0.6,0.2,1,0.6,1.3c0.4,0.3,0.9,0.4,1.4,0.4c0.6,0,1-0.1,1.3-0.4C-68.7,331.8-68.5,331.5-68.5,331z"
				/>
			<path fill="#FFFFFF" d="M-91.7,343.6c0-0.4-0.1-0.7-0.4-0.9s-0.8-0.5-1.5-0.7c-0.8-0.2-1.4-0.5-1.8-0.8c-0.4-0.3-0.6-0.8-0.6-1.3
				c0-0.6,0.2-1,0.7-1.4s1-0.6,1.7-0.6c0.7,0,1.3,0.2,1.8,0.6c0.4,0.4,0.7,0.9,0.6,1.6l0,0h-0.6c0-0.5-0.2-0.9-0.5-1.2
				c-0.3-0.3-0.8-0.5-1.3-0.5c-0.6,0-1,0.1-1.3,0.4c-0.3,0.3-0.5,0.6-0.5,1c0,0.4,0.1,0.7,0.4,0.9c0.3,0.2,0.8,0.5,1.5,0.7
				c0.8,0.2,1.3,0.5,1.7,0.8c0.4,0.3,0.6,0.8,0.6,1.3c0,0.6-0.2,1-0.7,1.4s-1.1,0.5-1.8,0.5s-1.3-0.2-1.9-0.6
				c-0.5-0.4-0.8-0.9-0.8-1.6l0,0h0.5c0,0.6,0.2,1,0.6,1.3c0.4,0.3,0.9,0.4,1.4,0.4c0.6,0,1-0.1,1.3-0.4
				C-91.9,344.4-91.7,344.1-91.7,343.6z"/>
			<path fill="#FFFFFF" d="M-86.4,345.5c0-0.2-0.1-0.4-0.1-0.5c0-0.1,0-0.3,0-0.4c-0.2,0.3-0.4,0.5-0.8,0.7
				c-0.3,0.2-0.7,0.3-1.1,0.3c-0.5,0-0.9-0.1-1.2-0.4s-0.4-0.7-0.4-1.2c0-0.5,0.2-0.9,0.6-1.2c0.4-0.3,1-0.5,1.6-0.5h1.3v-0.7
				c0-0.4-0.1-0.7-0.4-0.9c-0.2-0.2-0.6-0.3-1-0.3c-0.4,0-0.7,0.1-1,0.3c-0.2,0.2-0.4,0.5-0.4,0.8h-0.5l0,0c0-0.4,0.2-0.8,0.5-1.1
				c0.4-0.3,0.8-0.5,1.4-0.5c0.6,0,1.1,0.2,1.4,0.5c0.4,0.3,0.5,0.8,0.5,1.3v2.7c0,0.2,0,0.4,0,0.6c0,0.2,0.1,0.4,0.1,0.5
				L-86.4,345.5L-86.4,345.5z M-88.4,345c0.5,0,0.8-0.1,1.2-0.3c0.3-0.2,0.6-0.5,0.7-0.9v-1.1h-1.3c-0.5,0-0.9,0.1-1.2,0.4
				c-0.3,0.2-0.5,0.5-0.5,0.9c0,0.3,0.1,0.6,0.3,0.8C-89,344.9-88.8,345-88.4,345z"/>
			<path fill="#FFFFFF" d="M-80.9,344.6c-0.2,0.3-0.4,0.6-0.7,0.7c-0.3,0.2-0.6,0.3-1,0.3c-0.6,0-1-0.2-1.3-0.6
				c-0.3-0.4-0.5-1-0.5-1.8v-3.2h0.6v3.2c0,0.7,0.1,1.2,0.3,1.5c0.2,0.3,0.5,0.4,0.9,0.4c0.4,0,0.8-0.1,1.1-0.3s0.5-0.5,0.6-0.8v-4
				h0.6v5.5h-0.5L-80.9,344.6z M-81.6,337.7h0.7l0,0l-1.2,1.3h-0.5L-81.6,337.7z"/>
			<path fill="#FFFFFF" d="M-79,342.7c0-0.9,0.2-1.6,0.5-2.1c0.4-0.5,0.9-0.8,1.5-0.8c0.4,0,0.7,0.1,1,0.2c0.3,0.2,0.5,0.4,0.7,0.7
				v-3.3h0.6v8h-0.5l-0.1-0.8c-0.2,0.3-0.4,0.5-0.7,0.7c-0.3,0.2-0.6,0.2-1,0.2c-0.6,0-1.1-0.2-1.5-0.7c-0.4-0.5-0.5-1.2-0.5-2
				L-79,342.7L-79,342.7z M-78.4,342.8c0,0.7,0.1,1.2,0.4,1.6c0.3,0.4,0.6,0.6,1.2,0.6c0.4,0,0.7-0.1,1-0.3c0.3-0.2,0.5-0.4,0.6-0.7
				v-2.6c-0.1-0.3-0.3-0.6-0.6-0.8c-0.2-0.2-0.6-0.3-1-0.3c-0.5,0-0.9,0.2-1.2,0.7c-0.3,0.4-0.4,1-0.4,1.7L-78.4,342.8L-78.4,342.8z
				"/>
			<path fill="#FFFFFF" d="M-71.1,345.6c-0.7,0-1.3-0.3-1.7-0.8s-0.6-1.2-0.6-2v-0.3c0-0.8,0.2-1.5,0.7-2c0.4-0.5,1-0.8,1.6-0.8
				c0.6,0,1.2,0.2,1.5,0.6c0.4,0.4,0.5,1,0.5,1.7v0.5h-3.7v0.2c0,0.6,0.2,1.2,0.5,1.6c0.3,0.4,0.7,0.6,1.3,0.6
				c0.3,0,0.6-0.1,0.9-0.2c0.3-0.1,0.5-0.3,0.7-0.4l0.3,0.4c-0.2,0.2-0.4,0.4-0.7,0.5C-70.3,345.5-70.7,345.6-71.1,345.6z
				 M-71.2,340.3c-0.5,0-0.8,0.2-1.1,0.5c-0.3,0.3-0.5,0.8-0.5,1.3l0,0h3.1V342c0-0.5-0.1-0.9-0.4-1.2
				C-70.3,340.5-70.7,340.3-71.2,340.3z"/>
		</g>
	</g>
	<g>
		<g>
			<g>
				<polygon fill="#DC9928" points="-88.6,383.6 -104.6,405.5 -95.4,403.7 -90.3,410.3 -80.6,386 				"/>
			</g>
			<g>
				<polygon fill="#DC9928" points="-77.6,383.6 -61.6,405.5 -70.9,403.7 -76,410.3 -85.6,386 				"/>
			</g>
			<g>
				<g>
					<path fill="#F4D256" d="M-61.2,382.1c0,0,0.1-0.1,0.1-0.1c0.2-0.2,0.4-0.3,0.4-0.3l-0.1,0c0.6-0.7,1-1.7,1-2.8
						c0-1.4-0.6-2.6-1.6-3.4l0,0c0,0-0.5-0.5-0.6-1.1c0-0.1,0-0.2,0-0.3c0.2-0.3,0.3-0.5,0.4-0.8c0.1-0.1,0.2-0.2,0.2-0.2l-0.1,0
						c0.3-1,0.3-2.1-0.1-3.1c-0.4-1.1-1.3-1.9-2.2-2.3l0.1,0c0,0-0.9-0.4-1.1-0.9c-0.2-0.5,0.1-1.2,0.1-1.2l-0.1,0.1
						c0.2-1.3-0.2-2.7-1.2-3.7c-1-1-2.5-1.4-3.8-1.2c-0.2,0-0.4,0-0.6-0.1c-0.3-0.1-0.4-0.5-0.6-0.7c-0.4-1.3-1.3-2.4-2.6-2.9
						c-1.1-0.5-2.4-0.4-3.4,0.1l0,0c0,0-0.1,0.1-0.2,0.1c0,0-0.1,0-0.1,0.1c-0.3,0.1-0.7,0.3-1.1,0.2c-0.3-0.1-0.6-0.3-0.7-0.5
						c-0.8-1.1-2.1-1.9-3.6-1.9c-1.3,0-2.5,0.6-3.3,1.5l0-0.1c0,0-0.4,0.6-0.9,0.8c-0.5,0.1-1.4-0.4-1.4-0.4l0,0.1
						c-1-0.3-2.1-0.3-3.1,0.1c-1.1,0.5-1.9,1.3-2.3,2.3l0-0.1c0,0,0,0.2-0.1,0.4c0,0.1-0.1,0.2-0.1,0.2c-0.1,0.3-0.2,0.5-0.4,0.7
						c-0.5,0.3-1.2,0.2-1.2,0.2l0,0c-1.2-0.1-2.4,0.3-3.4,1.3c-0.9,0.9-1.3,2.1-1.3,3.3l0,0c0,0,0.2,0.7-0.1,1.2
						c-0.1,0.2-0.3,0.4-0.5,0.5c-1.3,0.3-2.5,1.2-3,2.6c-0.5,1.3-0.4,2.8,0.3,3.9l-0.1-0.1c0,0,0.4,0.6,0.3,1.2
						c-0.1,0.5-0.9,1.1-0.9,1.1h0c-0.9,0.8-1.4,2-1.4,3.2c0,1.4,0.7,2.6,1.7,3.4c0.2,0.2,0.4,0.4,0.5,0.7c0.1,0.5-0.4,1.4-0.4,1.4
						l0,0c-0.4,1-0.4,2.3,0,3.4c0.6,1.5,2,2.4,3.5,2.6c0.1,0.1,0.3,0.1,0.4,0.2c0.1,0.1,0.2,0.3,0.2,0.4c0,1.2,0.4,2.4,1.3,3.3
						c0.9,0.9,2,1.3,3.2,1.3l0,0c0,0,0,0,0,0c0.1,0,0.3,0,0.4,0c0.3,0,0.7,0,0.9,0.2c0.3,0.2,0.4,0.5,0.5,0.8c0,0.1,0,0.1,0.1,0.2
						c0,0.1,0,0.1,0,0.1l0,0c0.4,1.1,1.3,2,2.4,2.5c0.9,0.4,1.9,0.4,2.8,0.2l0,0c0,0,0,0,0.1,0c0.2-0.1,0.4-0.1,0.6-0.2
						c0.3-0.1,0.6-0.1,0.8,0c0.1,0,0.2,0.1,0.3,0.2c0.8,1.2,2.1,2,3.7,2c1.3,0,2.4-0.5,3.2-1.4v0c0,0,0-0.1,0.1-0.2
						c0.1-0.1,0.2-0.2,0.2-0.3c0.1-0.2,0.3-0.3,0.5-0.4c0.5-0.2,1.4,0.3,1.4,0.3l-0.1-0.1c1,0.4,2.2,0.4,3.2,0
						c1.1-0.5,2-1.3,2.4-2.4l0,0.1c0,0,0.2-1,0.7-1.2c0.5-0.3,1.2-0.1,1.2-0.1l-0.1-0.1c1.2,0,2.4-0.4,3.3-1.3
						c0.9-0.9,1.3-2,1.3-3.1l0,0c0,0,0-0.1,0-0.2c0-0.1,0-0.2,0-0.3c0-0.2,0-0.5,0.1-0.7c0.2-0.5,1.2-0.8,1.2-0.8l-0.1,0
						c1.1-0.4,2.1-1.3,2.6-2.5c0.5-1.2,0.4-2.4-0.1-3.5c-0.1-0.3-0.1-0.6,0-0.8C-61.4,382.3-61.3,382.2-61.2,382.1z M-72.7,388.1
						c-0.9,0.9-1.3,2-1.3,3.1c-1-0.4-2.2-0.5-3.4,0c-1.2,0.5-2,1.4-2.4,2.5c-0.8-0.7-1.8-1.1-2.9-1.1c-1,0-1.8,0.3-2.6,0.8
						c-0.4-1-1.2-1.8-2.3-2.2c-1.2-0.5-2.4-0.4-3.5,0.1c0-1.1-0.4-2.3-1.3-3.2c-0.9-0.9-2-1.3-3.2-1.3c0.2-0.8,0.1-1.7-0.3-2.5
						c-0.5-1.1-1.4-2-2.4-2.4c0.8-0.8,1.3-1.9,1.3-3.1c0-1.4-0.7-2.7-1.8-3.5c1.3-0.4,2.4-1.3,2.9-2.6c0.5-1.1,0.4-2.3,0-3.4
						c1.1,0,2.2-0.4,3-1.3c0.9-0.9,1.3-2,1.3-3.1c1,0.4,2.3,0.5,3.4,0c1.1-0.5,2-1.4,2.4-2.4c0.8,0.7,1.8,1.1,2.9,1.1
						c1.3,0,2.5-0.6,3.3-1.5c0.4,1.2,1.3,2.3,2.5,2.8c1.1,0.5,2.3,0.4,3.4,0c0,1.1,0.4,2.3,1.3,3.1c0.8,0.8,1.8,1.2,2.9,1.3
						c-0.7,1.2-0.9,2.6-0.3,4c0.5,1.1,1.4,1.9,2.4,2.4c-0.8,0.8-1.3,1.9-1.3,3.1c0,1,0.3,1.8,0.8,2.5c-0.8,0.5-1.4,1.2-1.8,2.1
						c-0.5,1.1-0.4,2.3,0,3.4C-70.6,386.8-71.8,387.2-72.7,388.1z"/>
				</g>
				<g>
					<g>
						<g>
							<path d="M-68.1,378.8c-0.3,8-7.1,14.3-15.1,13.9c-8-0.3-14.3-7.1-13.9-15.1c0.3-8,7.1-14.3,15.1-13.9
								C-74,364-67.7,370.8-68.1,378.8z"/>
							<path fill="#DD9A28" d="M-82.6,393.8c-0.2,0-0.4,0-0.7,0c-4.2-0.2-8-2-10.8-5c-2.8-3.1-4.3-7-4.1-11.2
								c0.4-8.6,7.5-15.3,16.2-14.9c8.6,0.4,15.3,7.6,14.9,16.2C-67.4,387.2-74.2,393.8-82.6,393.8L-82.6,393.8z M-82.6,364.7
								c-7.3,0-13.2,5.7-13.5,13c-0.1,3.6,1.1,7.1,3.6,9.7c2.4,2.7,5.8,4.2,9.4,4.4c7.5,0.3,13.8-5.5,14.1-12.9
								c0.3-7.4-5.5-13.8-12.9-14.1C-82.2,364.7-82.4,364.7-82.6,364.7L-82.6,364.7z"/>
						</g>
					</g>
				</g>
			</g>
		</g>
	</g>
</g>
<g>
	<g>
		<g>
			<path fill="#FFFFFF" d="M-165.2,330.5L-165.2,330.5c0,0.8-0.2,1.3-0.7,1.8s-1.1,0.7-1.9,0.7c-0.8,0-1.4-0.3-1.9-0.9
				c-0.5-0.6-0.7-1.4-0.7-2.3v-1.2c0-0.9,0.2-1.7,0.7-2.3c0.5-0.6,1.1-0.9,1.9-0.9c0.8,0,1.4,0.2,1.9,0.6c0.5,0.4,0.7,1,0.7,1.8l0,0
				h-0.6c0-0.6-0.2-1.1-0.5-1.4c-0.4-0.3-0.8-0.5-1.5-0.5c-0.6,0-1.1,0.3-1.5,0.8c-0.4,0.5-0.6,1.2-0.6,1.9v1.2c0,0.8,0.2,1.5,0.6,2
				c0.4,0.5,0.9,0.8,1.5,0.8c0.6,0,1.1-0.2,1.5-0.5c0.4-0.3,0.5-0.8,0.5-1.4L-165.2,330.5L-165.2,330.5z"/>
			<path fill="#FFFFFF" d="M-159.8,329.2h-3.2v3.1h3.7v0.5h-4.3v-7.5h4.3v0.5h-3.7v2.8h3.2V329.2z"/>
			<path fill="#FFFFFF" d="M-158.1,332.9v-7.5h2.1c0.7,0,1.3,0.2,1.7,0.5c0.4,0.3,0.6,0.8,0.6,1.5c0,0.4-0.1,0.7-0.3,1
				c-0.2,0.3-0.5,0.5-0.8,0.6c0.5,0.1,0.8,0.3,1.1,0.6c0.3,0.4,0.4,0.8,0.4,1.2c0,0.7-0.2,1.2-0.6,1.5c-0.4,0.4-1,0.5-1.7,0.5
				H-158.1z M-157.5,328.7h1.7c0.5,0,0.9-0.1,1.2-0.4c0.3-0.2,0.4-0.6,0.4-1c0-0.5-0.2-0.8-0.5-1.1c-0.3-0.2-0.7-0.4-1.3-0.4h-1.5
				C-157.5,325.9-157.5,328.7-157.5,328.7z M-157.5,329.3v3.1h2c0.5,0,0.9-0.1,1.3-0.4c0.3-0.3,0.5-0.6,0.5-1.1
				c0-0.4-0.1-0.8-0.4-1.1c-0.3-0.3-0.7-0.4-1.2-0.4h-0.1C-155.5,329.3-157.5,329.3-157.5,329.3z"/>
			<path fill="#FFFFFF" d="M-148.1,330.8h-3.2l-0.7,2.1h-0.6l2.6-7.5h0.6l2.6,7.5h-0.6L-148.1,330.8z M-151,330.2h2.8l-1.4-4h0
				L-151,330.2z"/>
			<path fill="#FFFFFF" d="M-141.6,331c0-0.4-0.1-0.7-0.4-0.9c-0.3-0.2-0.8-0.5-1.5-0.7c-0.8-0.2-1.4-0.5-1.8-0.8
				c-0.4-0.3-0.6-0.8-0.6-1.3c0-0.6,0.2-1,0.7-1.4c0.4-0.4,1-0.6,1.7-0.6c0.7,0,1.3,0.2,1.8,0.6c0.4,0.4,0.7,0.9,0.6,1.6l0,0h-0.6
				c0-0.5-0.2-0.9-0.5-1.2c-0.3-0.3-0.8-0.5-1.3-0.5c-0.6,0-1,0.1-1.3,0.4c-0.3,0.3-0.5,0.6-0.5,1c0,0.4,0.1,0.7,0.4,0.9
				c0.3,0.2,0.8,0.5,1.5,0.7c0.8,0.2,1.3,0.5,1.7,0.8c0.4,0.3,0.6,0.8,0.6,1.3c0,0.6-0.2,1-0.7,1.4s-1.1,0.5-1.8,0.5
				c-0.7,0-1.3-0.2-1.9-0.6s-0.8-0.9-0.8-1.6l0,0h0.5c0,0.6,0.2,1,0.6,1.3c0.4,0.3,0.9,0.4,1.4,0.4c0.6,0,1-0.1,1.3-0.4
				C-141.8,331.8-141.6,331.5-141.6,331z"/>
			<path fill="#FFFFFF" d="M-172.9,341.8h-3.2v3.1h3.7v0.5h-4.3V338h4.3v0.5h-3.7v2.8h3.2V341.8z"/>
			<path fill="#FFFFFF" d="M-171.6,342.7c0-0.9,0.2-1.6,0.5-2.1c0.4-0.5,0.9-0.8,1.5-0.8c0.4,0,0.7,0.1,1,0.2
				c0.3,0.2,0.5,0.4,0.7,0.7v-3.3h0.6v8h-0.5l-0.1-0.8c-0.2,0.3-0.4,0.5-0.7,0.7c-0.3,0.2-0.6,0.2-1,0.2c-0.6,0-1.1-0.2-1.5-0.7
				c-0.4-0.5-0.5-1.2-0.5-2L-171.6,342.7L-171.6,342.7z M-171,342.8c0,0.7,0.1,1.2,0.4,1.6c0.3,0.4,0.6,0.6,1.2,0.6
				c0.4,0,0.7-0.1,1-0.3c0.3-0.2,0.5-0.4,0.6-0.7v-2.6c-0.1-0.3-0.3-0.6-0.6-0.8c-0.2-0.2-0.6-0.3-1-0.3c-0.5,0-0.9,0.2-1.2,0.7
				c-0.3,0.4-0.4,1-0.4,1.7C-171,342.7-171,342.8-171,342.8z"/>
			<path fill="#FFFFFF" d="M-162.2,344.6c-0.2,0.3-0.4,0.6-0.7,0.7c-0.3,0.2-0.6,0.3-1,0.3c-0.6,0-1-0.2-1.3-0.6
				c-0.3-0.4-0.5-1-0.5-1.8v-3.2h0.6v3.2c0,0.7,0.1,1.2,0.3,1.5c0.2,0.3,0.5,0.4,0.9,0.4c0.4,0,0.8-0.1,1.1-0.3s0.5-0.5,0.6-0.8v-4
				h0.6v5.5h-0.5L-162.2,344.6z"/>
			<path fill="#FFFFFF" d="M-158.1,345.1c0.4,0,0.7-0.1,1-0.4c0.3-0.2,0.4-0.6,0.4-1h0.5l0,0c0,0.5-0.2,0.9-0.6,1.3
				c-0.4,0.3-0.9,0.5-1.4,0.5c-0.7,0-1.3-0.3-1.7-0.8c-0.4-0.5-0.6-1.2-0.6-2v-0.2c0-0.8,0.2-1.5,0.6-2c0.4-0.5,0.9-0.8,1.7-0.8
				c0.6,0,1.1,0.2,1.4,0.5c0.4,0.4,0.6,0.8,0.6,1.4l0,0h-0.5c0-0.4-0.1-0.8-0.4-1.1c-0.3-0.3-0.6-0.4-1-0.4c-0.6,0-1,0.2-1.3,0.6
				c-0.3,0.4-0.4,1-0.4,1.6v0.2c0,0.7,0.1,1.2,0.4,1.6C-159.1,344.8-158.7,345.1-158.1,345.1z"/>
			<path fill="#FFFFFF" d="M-151.5,345.5c0-0.2-0.1-0.4-0.1-0.5c0-0.1,0-0.3,0-0.4c-0.2,0.3-0.4,0.5-0.8,0.7
				c-0.3,0.2-0.7,0.3-1.1,0.3c-0.5,0-0.9-0.1-1.2-0.4c-0.3-0.3-0.4-0.7-0.4-1.2c0-0.5,0.2-0.9,0.6-1.2c0.4-0.3,1-0.5,1.6-0.5h1.3
				v-0.7c0-0.4-0.1-0.7-0.4-0.9c-0.2-0.2-0.6-0.3-1-0.3c-0.4,0-0.7,0.1-1,0.3c-0.2,0.2-0.4,0.5-0.4,0.8h-0.5l0,0
				c0-0.4,0.2-0.8,0.5-1.1c0.4-0.3,0.8-0.5,1.4-0.5c0.6,0,1.1,0.2,1.4,0.5c0.4,0.3,0.5,0.8,0.5,1.3v2.7c0,0.2,0,0.4,0,0.6
				c0,0.2,0.1,0.4,0.1,0.5L-151.5,345.5L-151.5,345.5z M-153.4,345c0.5,0,0.8-0.1,1.2-0.3c0.3-0.2,0.6-0.5,0.7-0.9v-1.1h-1.3
				c-0.5,0-0.9,0.1-1.2,0.4c-0.3,0.2-0.5,0.5-0.5,0.9c0,0.3,0.1,0.6,0.3,0.8C-154.1,344.9-153.8,345-153.4,345z"/>
			<path fill="#FFFFFF" d="M-147.5,345.1c0.4,0,0.7-0.1,1-0.4c0.3-0.2,0.4-0.6,0.4-1h0.5l0,0c0,0.5-0.2,0.9-0.6,1.3
				c-0.4,0.3-0.9,0.5-1.4,0.5c-0.7,0-1.3-0.3-1.7-0.8c-0.4-0.5-0.6-1.2-0.6-2v-0.2c0-0.8,0.2-1.5,0.6-2c0.4-0.5,0.9-0.8,1.7-0.8
				c0.6,0,1.1,0.2,1.4,0.5c0.4,0.4,0.6,0.8,0.6,1.4l0,0h-0.5c0-0.4-0.1-0.8-0.4-1.1c-0.3-0.3-0.6-0.4-1-0.4c-0.6,0-1,0.2-1.3,0.6
				s-0.4,1-0.4,1.6v0.2c0,0.7,0.1,1.2,0.4,1.6C-148.4,344.8-148,345.1-147.5,345.1z M-147.3,345.5l-0.1,0.3c0.3,0,0.5,0.1,0.6,0.3
				c0.2,0.1,0.2,0.3,0.2,0.6c0,0.3-0.1,0.6-0.4,0.7c-0.3,0.2-0.6,0.3-1.1,0.3l0-0.4c0.3,0,0.5-0.1,0.7-0.2c0.2-0.1,0.3-0.3,0.3-0.5
				c0-0.2-0.1-0.3-0.2-0.4c-0.1-0.1-0.4-0.1-0.7-0.2l0.1-0.7L-147.3,345.5L-147.3,345.5z"/>
			<path fill="#FFFFFF" d="M-140.8,345.5c0-0.2-0.1-0.4-0.1-0.5c0-0.1,0-0.3,0-0.4c-0.2,0.3-0.4,0.5-0.8,0.7
				c-0.3,0.2-0.7,0.3-1.1,0.3c-0.5,0-0.9-0.1-1.2-0.4s-0.4-0.7-0.4-1.2c0-0.5,0.2-0.9,0.6-1.2c0.4-0.3,1-0.5,1.6-0.5h1.3v-0.7
				c0-0.4-0.1-0.7-0.4-0.9c-0.2-0.2-0.6-0.3-1-0.3c-0.4,0-0.7,0.1-1,0.3c-0.2,0.2-0.4,0.5-0.4,0.8h-0.5l0,0c0-0.4,0.2-0.8,0.5-1.1
				c0.4-0.3,0.8-0.5,1.4-0.5c0.6,0,1.1,0.2,1.4,0.5c0.4,0.3,0.5,0.8,0.5,1.3v2.7c0,0.2,0,0.4,0,0.6c0,0.2,0.1,0.4,0.1,0.5
				L-140.8,345.5L-140.8,345.5z M-140.7,337.8c0,0.3-0.1,0.5-0.3,0.7c-0.2,0.2-0.4,0.3-0.7,0.3c-0.2,0-0.5-0.1-0.7-0.3
				c-0.3-0.2-0.5-0.3-0.6-0.3c-0.2,0-0.3,0.1-0.4,0.2s-0.2,0.3-0.2,0.5l-0.4-0.1c0-0.3,0.1-0.5,0.3-0.7c0.2-0.2,0.4-0.3,0.7-0.3
				c0.2,0,0.5,0.1,0.7,0.3c0.3,0.2,0.5,0.3,0.7,0.3c0.2,0,0.3-0.1,0.4-0.2c0.1-0.1,0.2-0.3,0.2-0.5L-140.7,337.8z M-142.8,345
				c0.5,0,0.8-0.1,1.2-0.3c0.3-0.2,0.6-0.5,0.7-0.9v-1.1h-1.3c-0.5,0-0.9,0.1-1.2,0.4c-0.3,0.2-0.5,0.5-0.5,0.9
				c0,0.3,0.1,0.6,0.3,0.8C-143.4,344.9-143.1,345-142.8,345z"/>
			<path fill="#FFFFFF" d="M-139.1,342.6c0-0.8,0.2-1.5,0.6-2c0.4-0.5,1-0.8,1.7-0.8c0.7,0,1.3,0.3,1.7,0.8c0.4,0.5,0.6,1.2,0.6,2
				v0.2c0,0.8-0.2,1.5-0.6,2c-0.4,0.5-1,0.8-1.7,0.8c-0.7,0-1.3-0.3-1.7-0.8c-0.4-0.5-0.6-1.2-0.6-2L-139.1,342.6L-139.1,342.6z
				 M-138.5,342.8c0,0.6,0.2,1.2,0.5,1.6c0.3,0.4,0.7,0.7,1.3,0.7c0.5,0,1-0.2,1.3-0.7s0.5-1,0.5-1.6v-0.2c0-0.6-0.2-1.2-0.5-1.6
				c-0.3-0.4-0.8-0.7-1.3-0.7c-0.6,0-1,0.2-1.3,0.7c-0.3,0.4-0.5,1-0.5,1.6V342.8z"/>
		</g>
	</g>
	<g>
		<g>
			<g>
				<polygon fill="#274391" points="-161.7,383.6 -177.5,405.3 -168.3,403.6 -163.3,410.1 -153.7,386 				"/>
			</g>
			<g>
				<polygon fill="#274391" points="-150.7,383.6 -134.8,405.3 -144,403.6 -149.1,410.1 -158.7,386 				"/>
			</g>
			<g>
				<g>
					<path fill="#91C1E4" d="M-134.4,382.1c0,0,0.1-0.1,0.1-0.1c0.2-0.2,0.4-0.3,0.4-0.3l-0.1,0c0.6-0.7,1-1.7,1-2.7
						c0-1.4-0.6-2.6-1.6-3.4l0,0c0,0-0.5-0.5-0.6-1c0-0.1,0-0.2,0-0.3c0.2-0.3,0.3-0.5,0.4-0.8c0.1-0.1,0.1-0.2,0.1-0.2l-0.1,0
						c0.4-1,0.4-2.1-0.1-3.1c-0.5-1.1-1.3-1.8-2.2-2.3l0.1,0c0,0-0.9-0.4-1.1-0.9c-0.2-0.5,0.1-1.2,0.1-1.2l-0.1,0.1
						c0.2-1.3-0.2-2.6-1.2-3.6c-1-1-2.4-1.4-3.8-1.2c-0.2,0-0.4,0-0.6-0.1c-0.3-0.1-0.4-0.5-0.6-0.7c-0.3-1.3-1.2-2.4-2.5-2.9
						c-1.1-0.5-2.4-0.4-3.4,0.1l0,0c0,0-0.1,0.1-0.2,0.1c0,0-0.1,0-0.1,0c-0.3,0.1-0.7,0.3-1,0.2c-0.3-0.1-0.5-0.3-0.7-0.5
						c-0.8-1.1-2.1-1.9-3.6-1.9c-1.3,0-2.5,0.6-3.3,1.5l0-0.1c0,0-0.4,0.6-0.9,0.7c-0.5,0.1-1.4-0.4-1.4-0.4l0,0.1
						c-1-0.3-2-0.3-3.1,0.1c-1.1,0.4-1.9,1.3-2.3,2.3l0-0.1c0,0,0,0.2-0.1,0.4c0,0.1-0.1,0.1-0.1,0.2c-0.1,0.3-0.2,0.5-0.4,0.7
						c-0.5,0.3-1.2,0.2-1.2,0.2l0,0c-1.2-0.1-2.4,0.3-3.4,1.3c-0.9,0.9-1.3,2.1-1.3,3.3l0,0c0,0,0.2,0.7,0,1.2
						c-0.1,0.2-0.3,0.3-0.5,0.5c-1.3,0.3-2.5,1.2-3,2.6c-0.5,1.3-0.4,2.8,0.3,3.9l-0.1-0.1c0,0,0.4,0.6,0.3,1.2
						c-0.1,0.5-0.9,1.1-0.9,1.1l0,0c-0.9,0.8-1.4,1.9-1.4,3.2c0,1.4,0.7,2.6,1.7,3.4c0.2,0.2,0.4,0.4,0.5,0.7
						c0.1,0.5-0.4,1.4-0.4,1.4l0,0c-0.4,1-0.4,2.2,0,3.3c0.6,1.5,2,2.4,3.4,2.6c0.1,0.1,0.3,0.1,0.4,0.3c0.1,0.1,0.2,0.3,0.2,0.4
						c0,1.2,0.4,2.4,1.3,3.2c0.9,0.9,2,1.3,3.2,1.3l0,0c0,0,0,0,0,0c0.1,0,0.3,0,0.4,0c0.3,0,0.7,0,0.9,0.2c0.3,0.2,0.4,0.5,0.5,0.7
						c0,0.1,0,0.1,0.1,0.2c0,0.1,0,0.1,0,0.1l0,0c0.4,1.1,1.3,2,2.4,2.5c0.9,0.4,1.9,0.4,2.8,0.2l0,0c0,0,0,0,0,0
						c0.2-0.1,0.4-0.1,0.6-0.2c0.3-0.1,0.6-0.1,0.8,0c0.1,0,0.2,0.1,0.3,0.2c0.8,1.2,2.1,1.9,3.6,1.9c1.3,0,2.4-0.5,3.2-1.4l0,0
						c0,0,0-0.1,0.1-0.2c0.1-0.1,0.2-0.2,0.2-0.3c0.1-0.2,0.3-0.3,0.5-0.4c0.5-0.2,1.4,0.2,1.4,0.2l-0.1-0.1c1,0.4,2.1,0.4,3.2,0
						c1.1-0.5,2-1.3,2.4-2.4l0,0.1c0,0,0.2-1,0.7-1.2c0.5-0.3,1.2-0.1,1.2-0.1l-0.1,0c1.2,0,2.4-0.4,3.3-1.3c0.9-0.9,1.3-2,1.3-3.1
						l0,0c0,0,0-0.1,0-0.2c0-0.1,0-0.2,0-0.4c0-0.2,0-0.5,0.1-0.7c0.3-0.5,1.2-0.8,1.2-0.8l0,0c1.1-0.4,2.1-1.3,2.6-2.4
						c0.5-1.2,0.4-2.4-0.1-3.5c-0.1-0.3-0.1-0.6,0-0.8C-134.6,382.3-134.5,382.2-134.4,382.1z M-145.8,388.1c-0.9,0.9-1.3,2-1.3,3.1
						c-1-0.4-2.2-0.5-3.4,0c-1.2,0.5-2,1.4-2.4,2.5c-0.8-0.7-1.8-1.1-2.9-1.1c-0.9,0-1.8,0.3-2.5,0.8c-0.4-1-1.2-1.8-2.3-2.2
						c-1.1-0.5-2.4-0.4-3.4,0.1c0-1.1-0.4-2.3-1.3-3.1c-0.9-0.9-2-1.3-3.2-1.3c0.2-0.8,0.1-1.7-0.3-2.5c-0.5-1.1-1.3-1.9-2.4-2.4
						c0.8-0.8,1.3-1.9,1.3-3.1c0-1.4-0.7-2.7-1.7-3.5c1.3-0.3,2.4-1.2,2.9-2.5c0.5-1.1,0.4-2.3,0-3.4c1.1,0,2.2-0.4,3-1.3
						c0.8-0.9,1.3-2,1.3-3.1c1,0.4,2.2,0.5,3.4,0c1.1-0.5,2-1.4,2.4-2.4c0.8,0.7,1.8,1.1,2.9,1.1c1.3,0,2.5-0.6,3.3-1.5
						c0.4,1.2,1.3,2.2,2.5,2.8c1.1,0.5,2.3,0.4,3.4,0c0,1.1,0.4,2.2,1.3,3.1c0.8,0.8,1.8,1.2,2.8,1.3c-0.7,1.2-0.9,2.6-0.3,3.9
						c0.5,1.1,1.3,1.9,2.4,2.4c-0.8,0.8-1.3,1.9-1.3,3.1c0,0.9,0.3,1.8,0.8,2.5c-0.8,0.5-1.4,1.2-1.7,2.1c-0.5,1.1-0.4,2.3,0,3.4
						C-143.8,386.8-144.9,387.2-145.8,388.1z"/>
				</g>
				<g>
					<g>
						<g>
							<path d="M-141.2,378.8c-0.3,8-7.1,14.2-15,13.8c-8-0.3-14.2-7.1-13.8-15c0.3-8,7.1-14.2,15-13.8
								C-147.1,364.1-140.9,370.9-141.2,378.8z"/>
							<path fill="#274391" d="M-155.6,393.7c-0.2,0-0.4,0-0.7,0c-4.1-0.2-7.9-1.9-10.7-5c-2.8-3-4.2-7-4.1-11.1
								c0.4-8.5,7.5-15.2,16.1-14.8c8.5,0.4,15.2,7.6,14.8,16.1C-140.5,387.2-147.3,393.7-155.6,393.7L-155.6,393.7z M-155.7,364.8
								c-7.2,0-13.1,5.7-13.4,12.9c-0.2,3.6,1.1,7,3.5,9.6c2.4,2.6,5.7,4.2,9.3,4.3c7.5,0.3,13.7-5.4,14-12.9
								c0.3-7.4-5.5-13.7-12.9-14C-155.3,364.8-155.5,364.8-155.7,364.8L-155.7,364.8z"/>
						</g>
					</g>
				</g>
			</g>
		</g>
	</g>
</g>
<g>
	<path fill="#D3EAF7" d="M-165.7,477.4h0.7c0.3,0,0.6-0.1,0.7-0.2s0.2-0.4,0.2-0.6c0-0.3-0.1-0.5-0.2-0.6c-0.2-0.1-0.4-0.2-0.6-0.2
		c-0.2,0-0.4,0.1-0.6,0.2c-0.2,0.1-0.2,0.3-0.2,0.5h-1.3c0-0.3,0.1-0.6,0.3-0.9c0.2-0.3,0.4-0.5,0.8-0.6c0.3-0.1,0.7-0.2,1.1-0.2
		c0.7,0,1.2,0.2,1.6,0.5c0.4,0.3,0.6,0.8,0.6,1.3c0,0.3-0.1,0.6-0.3,0.8c-0.2,0.2-0.4,0.4-0.7,0.6c0.4,0.1,0.6,0.3,0.8,0.6
		c0.2,0.3,0.3,0.6,0.3,0.9c0,0.6-0.2,1-0.6,1.4c-0.4,0.3-1,0.5-1.6,0.5c-0.6,0-1.2-0.2-1.6-0.5c-0.4-0.3-0.6-0.8-0.6-1.3h1.3
		c0,0.2,0.1,0.4,0.3,0.6c0.2,0.2,0.4,0.2,0.7,0.2c0.3,0,0.5-0.1,0.7-0.2c0.2-0.2,0.3-0.4,0.3-0.6c0-0.6-0.4-1-1.1-1h-0.7V477.4z"/>
	<path fill="#D3EAF7" d="M-161.4,482.7l-0.7-0.3l0.2-0.3c0.2-0.4,0.3-0.7,0.3-1.1v-1h1.1l0,0.9c0,0.3-0.1,0.7-0.2,1
		C-161,482.2-161.2,482.5-161.4,482.7z"/>
	<path fill="#D3EAF7" d="M-155.3,475.4l-2.5,5.7h-1.3l2.5-5.4h-3.2v-1h4.5V475.4z"/>
	<path fill="#D3EAF7" d="M-154.3,478l0.4-3.3h3.6v1.1h-2.5l-0.2,1.4c0.3-0.2,0.6-0.2,1-0.2c0.6,0,1.1,0.2,1.4,0.6s0.5,0.9,0.5,1.6
		c0,0.4-0.1,0.8-0.3,1.1c-0.2,0.3-0.4,0.6-0.7,0.8c-0.3,0.2-0.7,0.3-1.2,0.3c-0.4,0-0.7-0.1-1.1-0.2c-0.3-0.2-0.6-0.4-0.8-0.7
		c-0.2-0.3-0.3-0.6-0.3-1h1.3c0,0.3,0.1,0.5,0.3,0.6c0.2,0.1,0.4,0.2,0.6,0.2c0.3,0,0.5-0.1,0.7-0.3c0.2-0.2,0.2-0.5,0.2-0.9
		c0-0.4-0.1-0.6-0.3-0.8s-0.4-0.3-0.8-0.3c-0.3,0-0.5,0.1-0.7,0.2l-0.1,0.1L-154.3,478z"/>
	<path fill="#D3EAF7" d="M-149.3,475.9c0-0.4,0.1-0.7,0.4-1c0.3-0.2,0.6-0.4,1-0.4c0.4,0,0.8,0.1,1,0.4c0.3,0.2,0.4,0.6,0.4,1v0.3
		c0,0.4-0.1,0.7-0.4,1s-0.6,0.4-1,0.4c-0.4,0-0.8-0.1-1-0.4c-0.3-0.2-0.4-0.6-0.4-1V475.9z M-148.5,476.3c0,0.2,0,0.3,0.2,0.4
		c0.1,0.1,0.2,0.2,0.4,0.2s0.3-0.1,0.4-0.2c0.1-0.1,0.1-0.3,0.1-0.4v-0.3c0-0.2,0-0.3-0.1-0.4c-0.1-0.1-0.2-0.2-0.4-0.2
		c-0.2,0-0.3,0.1-0.4,0.2c-0.1,0.1-0.1,0.3-0.1,0.4V476.3z M-147.7,480.6l-0.6-0.3l3.1-5l0.6,0.3L-147.7,480.6z M-146.2,479.5
		c0-0.4,0.1-0.7,0.4-1c0.3-0.2,0.6-0.4,1-0.4c0.4,0,0.8,0.1,1,0.4c0.3,0.2,0.4,0.6,0.4,1v0.3c0,0.4-0.1,0.7-0.4,1
		c-0.3,0.2-0.6,0.4-1,0.4c-0.4,0-0.8-0.1-1-0.4s-0.4-0.6-0.4-1V479.5z M-145.4,479.9c0,0.2,0.1,0.3,0.2,0.4s0.2,0.2,0.4,0.2
		c0.4,0,0.5-0.2,0.5-0.6v-0.3c0-0.2-0.1-0.3-0.2-0.4c-0.1-0.1-0.2-0.2-0.4-0.2c-0.2,0-0.3,0.1-0.4,0.2c-0.1,0.1-0.1,0.3-0.1,0.4
		V479.9z"/>
</g>
<g>
	<path fill="#F6D448" d="M-91.2,481.1h-1.3v-4.9l-1.5,0.5v-1l2.6-0.9h0.1V481.1z"/>
	<path fill="#F6D448" d="M-88.8,482.7l-0.7-0.3l0.2-0.3c0.2-0.4,0.3-0.7,0.3-1.1v-1h1.1l0,0.9c0,0.3-0.1,0.7-0.2,1
		C-88.3,482.2-88.5,482.5-88.8,482.7z"/>
	<path fill="#F6D448" d="M-82.6,478.5c0,0.9-0.2,1.6-0.5,2s-0.9,0.7-1.6,0.7c-0.7,0-1.2-0.2-1.6-0.7s-0.6-1.1-0.6-2v-1.2
		c0-0.9,0.2-1.6,0.6-2c0.4-0.5,0.9-0.7,1.6-0.7s1.2,0.2,1.6,0.7c0.4,0.5,0.6,1.1,0.6,2V478.5z M-83.9,477.2c0-0.5-0.1-0.9-0.2-1.2
		c-0.1-0.2-0.4-0.4-0.7-0.4c-0.3,0-0.5,0.1-0.7,0.3c-0.1,0.2-0.2,0.6-0.2,1.1v1.6c0,0.5,0.1,0.9,0.2,1.2c0.1,0.3,0.4,0.4,0.7,0.4
		c0.3,0,0.5-0.1,0.7-0.4c0.1-0.2,0.2-0.6,0.2-1.1V477.2z"/>
	<path fill="#F6D448" d="M-78.3,474.6v1h-0.1c-0.6,0-1,0.2-1.4,0.4c-0.4,0.3-0.6,0.7-0.6,1.2c0.3-0.3,0.8-0.5,1.3-0.5
		c0.6,0,1,0.2,1.3,0.6c0.3,0.4,0.5,0.9,0.5,1.6c0,0.4-0.1,0.8-0.3,1.1c-0.2,0.3-0.4,0.6-0.8,0.8c-0.3,0.2-0.7,0.3-1.1,0.3
		c-0.7,0-1.2-0.2-1.6-0.7c-0.4-0.5-0.6-1.1-0.6-1.9v-0.5c0-0.7,0.1-1.3,0.4-1.8c0.3-0.5,0.6-0.9,1.1-1.2c0.5-0.3,1.1-0.4,1.7-0.4
		H-78.3z M-79.6,477.9c-0.2,0-0.4,0.1-0.6,0.2c-0.2,0.1-0.3,0.2-0.4,0.4v0.4c0,0.4,0.1,0.8,0.3,1c0.2,0.2,0.4,0.4,0.7,0.4
		c0.3,0,0.5-0.1,0.7-0.3c0.2-0.2,0.3-0.5,0.3-0.8c0-0.3-0.1-0.6-0.3-0.8S-79.3,477.9-79.6,477.9z"/>
	<path fill="#F6D448" d="M-76.6,475.9c0-0.4,0.1-0.7,0.4-1c0.3-0.2,0.6-0.4,1-0.4c0.4,0,0.8,0.1,1,0.4c0.3,0.2,0.4,0.6,0.4,1v0.3
		c0,0.4-0.1,0.7-0.4,1s-0.6,0.4-1,0.4c-0.4,0-0.8-0.1-1-0.4c-0.3-0.2-0.4-0.6-0.4-1V475.9z M-75.8,476.3c0,0.2,0,0.3,0.2,0.4
		c0.1,0.1,0.2,0.2,0.4,0.2s0.3-0.1,0.4-0.2c0.1-0.1,0.1-0.3,0.1-0.4v-0.3c0-0.2,0-0.3-0.1-0.4c-0.1-0.1-0.2-0.2-0.4-0.2
		c-0.2,0-0.3,0.1-0.4,0.2c-0.1,0.1-0.1,0.3-0.1,0.4V476.3z M-75,480.6l-0.6-0.3l3.1-5l0.6,0.3L-75,480.6z M-73.6,479.5
		c0-0.4,0.1-0.7,0.4-1c0.3-0.2,0.6-0.4,1-0.4c0.4,0,0.8,0.1,1,0.4c0.3,0.2,0.4,0.6,0.4,1v0.3c0,0.4-0.1,0.7-0.4,1
		c-0.3,0.2-0.6,0.4-1,0.4c-0.4,0-0.8-0.1-1-0.4s-0.4-0.6-0.4-1V479.5z M-72.7,479.9c0,0.2,0.1,0.3,0.2,0.4s0.2,0.2,0.4,0.2
		c0.4,0,0.5-0.2,0.5-0.6v-0.3c0-0.2-0.1-0.3-0.2-0.4c-0.1-0.1-0.2-0.2-0.4-0.2c-0.2,0-0.3,0.1-0.4,0.2c-0.1,0.1-0.1,0.3-0.1,0.4
		V479.9z"/>
</g>
<g>
	<path fill="#91C1E4" d="M-163.7,379.2c0,0.9-0.2,1.6-0.5,2s-0.9,0.7-1.6,0.7c-0.7,0-1.2-0.2-1.6-0.7c-0.4-0.5-0.6-1.1-0.6-2v-1.2
		c0-0.9,0.2-1.6,0.6-2c0.4-0.5,0.9-0.7,1.6-0.7s1.2,0.2,1.6,0.7c0.4,0.5,0.6,1.1,0.6,2V379.2z M-164.9,377.9c0-0.5-0.1-0.9-0.2-1.2
		c-0.1-0.2-0.4-0.4-0.7-0.4c-0.3,0-0.5,0.1-0.7,0.3c-0.1,0.2-0.2,0.6-0.2,1.1v1.6c0,0.5,0.1,0.9,0.2,1.2c0.1,0.3,0.4,0.4,0.7,0.4
		c0.3,0,0.5-0.1,0.7-0.4c0.1-0.2,0.2-0.6,0.2-1.1V377.9z"/>
	<path fill="#91C1E4" d="M-162.4,383.5l-0.7-0.3l0.2-0.3c0.2-0.4,0.3-0.7,0.3-1.1v-1h1.1l0,0.9c0,0.3-0.1,0.7-0.2,1
		C-162,383-162.2,383.3-162.4,383.5z"/>
	<path fill="#91C1E4" d="M-156.2,381.9h-4.4V381l2.1-2.2c0.3-0.3,0.5-0.6,0.6-0.8c0.1-0.2,0.2-0.5,0.2-0.7c0-0.3-0.1-0.5-0.2-0.7
		c-0.1-0.2-0.3-0.2-0.6-0.2c-0.3,0-0.5,0.1-0.7,0.3c-0.2,0.2-0.2,0.5-0.2,0.8h-1.3c0-0.4,0.1-0.7,0.3-1.1c0.2-0.3,0.4-0.6,0.8-0.8
		c0.3-0.2,0.7-0.3,1.2-0.3c0.7,0,1.2,0.2,1.5,0.5c0.4,0.3,0.5,0.8,0.5,1.3c0,0.3-0.1,0.6-0.2,1s-0.4,0.7-0.8,1.1l-1.5,1.5h2.8V381.9
		z"/>
	<path fill="#91C1E4" d="M-151.3,377.2c0,0.3-0.1,0.6-0.2,0.8c-0.2,0.2-0.4,0.4-0.6,0.6c0.3,0.1,0.6,0.4,0.7,0.6
		c0.2,0.3,0.3,0.6,0.3,0.9c0,0.6-0.2,1-0.6,1.3c-0.4,0.3-0.9,0.5-1.6,0.5s-1.2-0.2-1.6-0.5c-0.4-0.3-0.6-0.8-0.6-1.3
		c0-0.4,0.1-0.7,0.3-0.9s0.4-0.5,0.7-0.6c-0.3-0.1-0.5-0.3-0.6-0.6c-0.2-0.2-0.2-0.5-0.2-0.8c0-0.5,0.2-1,0.5-1.3
		c0.4-0.3,0.9-0.5,1.5-0.5c0.6,0,1.1,0.2,1.5,0.5C-151.5,376.2-151.3,376.6-151.3,377.2z M-152.4,380c0-0.3-0.1-0.5-0.2-0.7
		s-0.4-0.3-0.7-0.3c-0.3,0-0.5,0.1-0.6,0.2c-0.2,0.2-0.2,0.4-0.2,0.7c0,0.3,0.1,0.5,0.2,0.7s0.4,0.3,0.7,0.3c0.3,0,0.5-0.1,0.6-0.2
		C-152.5,380.5-152.4,380.3-152.4,380z M-152.6,377.2c0-0.2-0.1-0.4-0.2-0.6c-0.1-0.2-0.3-0.2-0.6-0.2c-0.2,0-0.4,0.1-0.6,0.2
		c-0.1,0.1-0.2,0.3-0.2,0.6c0,0.3,0.1,0.5,0.2,0.6c0.1,0.2,0.3,0.2,0.6,0.2s0.4-0.1,0.6-0.2C-152.6,377.7-152.6,377.5-152.6,377.2z"
		/>
	<path fill="#91C1E4" d="M-150.3,376.7c0-0.4,0.1-0.7,0.4-1c0.3-0.2,0.6-0.4,1-0.4c0.4,0,0.8,0.1,1,0.4c0.3,0.2,0.4,0.6,0.4,1v0.3
		c0,0.4-0.1,0.7-0.4,1s-0.6,0.4-1,0.4c-0.4,0-0.8-0.1-1-0.4c-0.3-0.2-0.4-0.6-0.4-1V376.7z M-149.5,377c0,0.2,0,0.3,0.2,0.4
		c0.1,0.1,0.2,0.2,0.4,0.2s0.3-0.1,0.4-0.2c0.1-0.1,0.1-0.3,0.1-0.4v-0.3c0-0.2,0-0.3-0.1-0.4c-0.1-0.1-0.2-0.2-0.4-0.2
		c-0.2,0-0.3,0.1-0.4,0.2s-0.1,0.3-0.1,0.4V377z M-148.7,381.4l-0.6-0.3l3.1-5l0.6,0.3L-148.7,381.4z M-147.2,380.3
		c0-0.4,0.1-0.7,0.4-1c0.3-0.2,0.6-0.4,1-0.4c0.4,0,0.8,0.1,1,0.4c0.3,0.2,0.4,0.6,0.4,1v0.3c0,0.4-0.1,0.7-0.4,1
		c-0.3,0.2-0.6,0.4-1,0.4c-0.4,0-0.8-0.1-1-0.4c-0.3-0.2-0.4-0.6-0.4-1V380.3z M-146.4,380.7c0,0.2,0.1,0.3,0.2,0.4
		c0.1,0.1,0.2,0.2,0.4,0.2c0.4,0,0.5-0.2,0.5-0.6v-0.3c0-0.2-0.1-0.3-0.2-0.4s-0.2-0.2-0.4-0.2c-0.2,0-0.3,0.1-0.4,0.2
		s-0.1,0.3-0.1,0.4V380.7z"/>
</g>
<g>
	<path fill="#F4D256" d="M-90,379.2c0,0.9-0.2,1.6-0.5,2s-0.9,0.7-1.6,0.7c-0.7,0-1.2-0.2-1.6-0.7c-0.4-0.5-0.6-1.1-0.6-2v-1.2
		c0-0.9,0.2-1.6,0.6-2c0.4-0.5,0.9-0.7,1.6-0.7s1.2,0.2,1.6,0.7c0.4,0.5,0.6,1.1,0.6,2V379.2z M-91.3,377.9c0-0.5-0.1-0.9-0.2-1.2
		c-0.1-0.2-0.4-0.4-0.7-0.4c-0.3,0-0.5,0.1-0.7,0.3c-0.1,0.2-0.2,0.6-0.2,1.1v1.6c0,0.5,0.1,0.9,0.2,1.2c0.1,0.3,0.4,0.4,0.7,0.4
		c0.3,0,0.5-0.1,0.7-0.4c0.1-0.2,0.2-0.6,0.2-1.1V377.9z"/>
	<path fill="#F4D256" d="M-88.8,383.5l-0.7-0.3l0.2-0.3c0.2-0.4,0.3-0.7,0.3-1.1v-1h1.1l0,0.9c0,0.3-0.1,0.7-0.2,1
		C-88.3,383-88.5,383.3-88.8,383.5z"/>
	<path fill="#F4D256" d="M-85.6,378.1h0.7c0.3,0,0.6-0.1,0.7-0.2c0.2-0.2,0.2-0.4,0.2-0.6c0-0.3-0.1-0.5-0.2-0.6
		c-0.2-0.1-0.4-0.2-0.6-0.2c-0.2,0-0.4,0.1-0.6,0.2c-0.2,0.1-0.2,0.3-0.2,0.5H-87c0-0.3,0.1-0.6,0.3-0.9c0.2-0.3,0.4-0.5,0.8-0.6
		c0.3-0.2,0.7-0.2,1.1-0.2c0.7,0,1.2,0.2,1.6,0.5c0.4,0.3,0.6,0.8,0.6,1.3c0,0.3-0.1,0.6-0.3,0.8c-0.2,0.2-0.4,0.4-0.7,0.6
		c0.4,0.1,0.6,0.3,0.8,0.6c0.2,0.3,0.3,0.6,0.3,0.9c0,0.6-0.2,1-0.6,1.4c-0.4,0.3-1,0.5-1.6,0.5c-0.6,0-1.2-0.2-1.6-0.5
		c-0.4-0.3-0.6-0.8-0.6-1.3h1.3c0,0.2,0.1,0.4,0.3,0.6c0.2,0.2,0.4,0.2,0.7,0.2c0.3,0,0.5-0.1,0.7-0.2c0.2-0.2,0.3-0.4,0.3-0.6
		c0-0.6-0.4-1-1.1-1h-0.7V378.1z"/>
	<path fill="#F4D256" d="M-78.8,379.3c-0.3,0.3-0.7,0.5-1.2,0.5c-0.6,0-1-0.2-1.4-0.6c-0.3-0.4-0.5-0.9-0.5-1.6
		c0-0.4,0.1-0.8,0.3-1.2c0.2-0.3,0.4-0.6,0.8-0.8c0.3-0.2,0.7-0.3,1.1-0.3c0.4,0,0.8,0.1,1.1,0.3c0.3,0.2,0.6,0.5,0.8,0.9
		c0.2,0.4,0.3,0.8,0.3,1.4v0.5c0,1.1-0.3,1.9-0.8,2.5c-0.5,0.6-1.3,0.9-2.3,1l-0.3,0v-1.1l0.3,0C-79.5,380.8-78.9,380.3-78.8,379.3z
		 M-79.7,378.8c0.2,0,0.4-0.1,0.5-0.2c0.1-0.1,0.3-0.2,0.3-0.4v-0.5c0-0.4-0.1-0.8-0.2-1c-0.2-0.2-0.4-0.4-0.7-0.4
		c-0.3,0-0.5,0.1-0.6,0.3c-0.2,0.2-0.2,0.5-0.2,0.9c0,0.3,0.1,0.6,0.2,0.9C-80.2,378.7-79.9,378.8-79.7,378.8z"/>
	<path fill="#F4D256" d="M-76.6,376.7c0-0.4,0.1-0.7,0.4-1c0.3-0.2,0.6-0.4,1-0.4c0.4,0,0.8,0.1,1,0.4c0.3,0.2,0.4,0.6,0.4,1v0.3
		c0,0.4-0.1,0.7-0.4,1s-0.6,0.4-1,0.4c-0.4,0-0.8-0.1-1-0.4c-0.3-0.2-0.4-0.6-0.4-1V376.7z M-75.8,377c0,0.2,0,0.3,0.2,0.4
		c0.1,0.1,0.2,0.2,0.4,0.2s0.3-0.1,0.4-0.2c0.1-0.1,0.1-0.3,0.1-0.4v-0.3c0-0.2,0-0.3-0.1-0.4c-0.1-0.1-0.2-0.2-0.4-0.2
		c-0.2,0-0.3,0.1-0.4,0.2s-0.1,0.3-0.1,0.4V377z M-75,381.4l-0.6-0.3l3.1-5l0.6,0.3L-75,381.4z M-73.6,380.3c0-0.4,0.1-0.7,0.4-1
		c0.3-0.2,0.6-0.4,1-0.4c0.4,0,0.8,0.1,1,0.4c0.3,0.2,0.4,0.6,0.4,1v0.3c0,0.4-0.1,0.7-0.4,1c-0.3,0.2-0.6,0.4-1,0.4
		c-0.4,0-0.8-0.1-1-0.4c-0.3-0.2-0.4-0.6-0.4-1V380.3z M-72.7,380.7c0,0.2,0.1,0.3,0.2,0.4c0.1,0.1,0.2,0.2,0.4,0.2
		c0.4,0,0.5-0.2,0.5-0.6v-0.3c0-0.2-0.1-0.3-0.2-0.4s-0.2-0.2-0.4-0.2c-0.2,0-0.3,0.1-0.4,0.2s-0.1,0.3-0.1,0.4V380.7z"/>
</g>
<g>
	<path fill="#DB4E26" d="M-24.5,381.9h-1.3V377l-1.5,0.5v-1l2.6-0.9h0.1V381.9z"/>
	<path fill="#DB4E26" d="M-22,383.5l-0.7-0.3l0.2-0.3c0.2-0.4,0.3-0.7,0.3-1.1v-1h1.1l0,0.9c0,0.3-0.1,0.7-0.2,1
		C-21.6,383-21.8,383.3-22,383.5z"/>
	<path fill="#DB4E26" d="M-16.8,375.4v1h-0.1c-0.6,0-1,0.2-1.4,0.4c-0.4,0.3-0.6,0.7-0.6,1.2c0.3-0.3,0.8-0.5,1.3-0.5
		c0.6,0,1,0.2,1.3,0.6c0.3,0.4,0.5,0.9,0.5,1.6c0,0.4-0.1,0.8-0.3,1.1c-0.2,0.3-0.4,0.6-0.8,0.8c-0.3,0.2-0.7,0.3-1.1,0.3
		c-0.7,0-1.2-0.2-1.6-0.7c-0.4-0.5-0.6-1.1-0.6-1.9v-0.5c0-0.7,0.1-1.3,0.4-1.8c0.3-0.5,0.6-0.9,1.1-1.2c0.5-0.3,1.1-0.4,1.7-0.4
		H-16.8z M-18,378.6c-0.2,0-0.4,0.1-0.6,0.2c-0.2,0.1-0.3,0.2-0.4,0.4v0.4c0,0.4,0.1,0.8,0.3,1c0.2,0.2,0.4,0.4,0.7,0.4
		c0.3,0,0.5-0.1,0.7-0.3c0.2-0.2,0.3-0.5,0.3-0.8c0-0.3-0.1-0.6-0.3-0.8C-17.5,378.7-17.7,378.6-18,378.6z"/>
	<path fill="#DB4E26" d="M-14.9,378.7l0.4-3.3h3.6v1.1h-2.5l-0.2,1.4c0.3-0.2,0.6-0.2,1-0.2c0.6,0,1.1,0.2,1.4,0.6s0.5,0.9,0.5,1.6
		c0,0.4-0.1,0.8-0.3,1.1c-0.2,0.3-0.4,0.6-0.7,0.8c-0.3,0.2-0.7,0.3-1.2,0.3c-0.4,0-0.7-0.1-1.1-0.2c-0.3-0.2-0.6-0.4-0.8-0.7
		c-0.2-0.3-0.3-0.6-0.3-1h1.3c0,0.3,0.1,0.5,0.3,0.6c0.2,0.1,0.4,0.2,0.6,0.2c0.3,0,0.5-0.1,0.7-0.3c0.2-0.2,0.2-0.5,0.2-0.9
		c0-0.4-0.1-0.6-0.3-0.8s-0.4-0.3-0.8-0.3c-0.3,0-0.5,0.1-0.7,0.2l-0.1,0.1L-14.9,378.7z"/>
	<path fill="#DB4E26" d="M-9.9,376.7c0-0.4,0.1-0.7,0.4-1c0.3-0.2,0.6-0.4,1-0.4c0.4,0,0.8,0.1,1,0.4c0.3,0.2,0.4,0.6,0.4,1v0.3
		c0,0.4-0.1,0.7-0.4,1s-0.6,0.4-1,0.4c-0.4,0-0.8-0.1-1-0.4c-0.3-0.2-0.4-0.6-0.4-1V376.7z M-9.1,377c0,0.2,0,0.3,0.2,0.4
		c0.1,0.1,0.2,0.2,0.4,0.2s0.3-0.1,0.4-0.2C-8,377.4-8,377.2-8,377v-0.3c0-0.2,0-0.3-0.1-0.4c-0.1-0.1-0.2-0.2-0.4-0.2
		c-0.2,0-0.3,0.1-0.4,0.2s-0.1,0.3-0.1,0.4V377z M-8.3,381.4l-0.6-0.3l3.1-5l0.6,0.3L-8.3,381.4z M-6.8,380.3c0-0.4,0.1-0.7,0.4-1
		c0.3-0.2,0.6-0.4,1-0.4c0.4,0,0.8,0.1,1,0.4c0.3,0.2,0.4,0.6,0.4,1v0.3c0,0.4-0.1,0.7-0.4,1c-0.3,0.2-0.6,0.4-1,0.4
		c-0.4,0-0.8-0.1-1-0.4c-0.3-0.2-0.4-0.6-0.4-1V380.3z M-6,380.7c0,0.2,0.1,0.3,0.2,0.4c0.1,0.1,0.2,0.2,0.4,0.2
		c0.4,0,0.5-0.2,0.5-0.6v-0.3c0-0.2-0.1-0.3-0.2-0.4s-0.2-0.2-0.4-0.2c-0.2,0-0.3,0.1-0.4,0.2s-0.1,0.3-0.1,0.4V380.7z"/>
</g>
</svg>
